<?xml version="1.0" encoding="utf-8"?>
<!-- Generator: Adobe Illustrator 17.0.0, SVG Export Plug-In . SVG Version: 6.00 Build 0)  -->
<!DOCTYPE svg PUBLIC "-//W3C//DTD SVG 1.1 Basic//EN" "http://www.w3.org/Graphics/SVG/1.1/DTD/svg11-basic.dtd">
<svg version="1.1" baseProfile="basic" id="Layer_1"
	 xmlns="http://www.w3.org/2000/svg" xmlns:xlink="http://www.w3.org/1999/xlink" x="0px" y="0px" width="44px" height="44px"
	 viewBox="0 0 44 44" xml:space="preserve">
<style type="text/css">
	.st0{fill:#338956;}
	.st1{fill:none;stroke:#338956;stroke-width:2;stroke-miterlimit:10;}
	.st2{opacity:0.5;fill:#FFFFFF;}
	.st3{fill:#BA8B2D;}
	.st4{fill:#263C83;}
	.st5{fill:#2B2F36;}
	.st6{fill:#9E8644;}
	.st7{fill:#A29165;}
	.st8{fill:#A48C4C;}
	.st9{fill:#FFFFFA;}
	.st10{fill:#A28C51;}
	.st11{fill:#A48C49;}
	.st12{fill:#FFFFFD;}
	.st13{fill:#25397A;}
	.st14{fill:#374041;}
	.st15{fill:#424740;}
	.st16{fill:#E1C177;}
	.st17{fill:#A48C4D;}
	.st18{fill:#323C41;}
	.st19{fill:#2B3B48;}
	.st20{fill:#B98A2D;}
	.st21{fill:#2A3843;}
	.st22{fill:#1D2F44;}
	.st23{fill:#B29349;}
	.st24{fill:#524E35;}
	.st25{fill:#596EB2;}
	.st26{fill:#586EB2;}
	.st27{fill:#D3D3D6;}
	.st28{fill:#596DB3;}
	.st29{fill:#D2D3D9;}
	.st30{fill:#CED4E0;}
	.st31{fill:#B5C7E7;}
	.st32{fill:#D3D3D7;}
	.st33{fill:#5A6DB3;}
	.st34{fill:#E81E25;}
	.st35{fill:#536EB5;}
	.st36{fill:#5A6EAF;}
	.st37{fill:#D7D3D5;}
	.st38{fill:#FCF7FA;}
	.st39{fill:#FCF8FB;}
	.st40{fill:#C6363B;}
	.st41{fill:#C63136;}
	.st42{fill:#576DB4;}
	.st43{fill:#D2D3D8;}
	.st44{fill:#D2D3D7;}
	.st45{fill:#ED1C24;}
	.st46{fill:#E21F26;}
	.st47{fill:#DB1F26;}
	.st48{fill:#D3D3D8;}
	.st49{fill:#E01F26;}
	.st50{fill:#E11F26;}
	.st51{fill:#E91D25;}
	.st52{fill:#E31E26;}
	.st53{fill:#E71E25;}
	.st54{fill:#566DB4;}
	.st55{fill:#D1D3D8;}
	.st56{fill:#BC7D80;}
	.st57{fill:#C86D70;}
	.st58{fill:#C3363A;}
	.st59{fill:#566EB0;}
	.st60{fill:#CE3438;}
	.st61{fill:#CC2A30;}
	.st62{fill:#CA2127;}
	.st63{fill:#CED4DF;}
	.st64{fill:#5A6DB2;}
	.st65{fill:#6C81B9;}
	.st66{fill:#FEF3F8;}
	.st67{fill:#FEF2F4;}
	.st68{fill:#263A7D;}
	.st69{fill:#D0D4DE;}
	.st70{fill:#D2D3D6;}
	.st71{fill:#586DB4;}
	.st72{fill:#C8CDE1;}
	.st73{fill:#586EB0;}
	.st74{fill:#5B72AE;}
	.st75{fill:#2A3A46;}
	.st76{fill:#FFFEF8;}
	.st77{fill:#A69A77;}
	.st78{fill:#323B38;}
	.st79{fill:#1B3461;}
	.st80{fill:#9B916E;}
	.st81{fill:#3B4342;}
	.st82{fill:#FFFEF5;}
	.st83{fill:#FFFEF6;}
	.st84{fill:#263B7F;}
	.st85{fill:#28334A;}
	.st86{fill:#2F3C42;}
	.st87{fill:#FFFEF7;}
	.st88{fill:#FFFEF4;}
	.st89{fill:#253876;}
	.st90{fill:#374654;}
	.st91{fill:#253C58;}
	.st92{fill:#2A3E55;}
	.st93{fill:#C2B388;}
	.st94{fill:#3E4B53;}
	.st95{fill:#FFFFF9;}
	.st96{fill:#293E58;}
	.st97{fill:#A0936B;}
	.st98{fill:#363A31;}
	.st99{fill:#AB945B;}
	.st100{fill:#464B45;}
	.st101{fill:#3B4544;}
	.st102{fill:#2D3F56;}
	.st103{fill:#2F3D49;}
	.st104{fill:#B0A789;}
	.st105{fill-rule:evenodd;clip-rule:evenodd;fill:#252C6A;}
	.st106{fill-rule:evenodd;clip-rule:evenodd;fill:#FFFFFF;}
	.st107{opacity:0.3;}
	.st108{fill:none;stroke:#FFFFFF;stroke-width:7;stroke-miterlimit:10;}
	.st109{fill:none;stroke:#FFFFFF;stroke-width:8;stroke-miterlimit:10;}
	.st110{fill:#FFFFFF;}
	.st111{fill:none;}
	.st112{fill:none;stroke:#338956;stroke-width:4;stroke-miterlimit:10;}
	.st113{fill:none;stroke:#348957;stroke-width:2;stroke-miterlimit:10;}
	.st114{fill:#348957;}
	.st115{fill:none;stroke:#338956;stroke-width:1.5;stroke-miterlimit:10;}
</style>
<g>
	<circle class="st115" cx="22" cy="21.93" r="20.93"/>
	<path class="st0" d="M38.624,11.387c-0.028-0.026-0.063-0.037-0.098-0.04c0.088-1.076,0.173-2.257,0.173-2.257l0.001-0.006l0,0
		c-0.506-0.657-1.05-1.283-1.629-1.875c-0.003-0.003-0.006-0.006-0.009-0.009c-0.576-0.588-1.185-1.143-1.826-1.661
		c-0.008-0.007-0.016-0.013-0.024-0.02c-0.425-0.342-0.863-0.669-1.314-0.978c-0.004-0.003-0.007-0.005-0.011-0.008
		c-0.222-0.152-0.448-0.3-0.676-0.444c-0.013-0.008-0.027-0.017-0.04-0.025c-0.454-0.285-0.921-0.553-1.398-0.803
		c-0.016-0.008-0.032-0.017-0.048-0.025c-0.235-0.123-0.473-0.241-0.713-0.355c-0.016-0.008-0.032-0.015-0.048-0.023
		c-0.483-0.228-0.977-0.437-1.48-0.628c-0.025-0.009-0.05-0.019-0.075-0.028C29.16,2.109,28.91,2.02,28.658,1.936
		c-0.014-0.005-0.029-0.009-0.044-0.014c-0.259-0.086-0.52-0.167-0.784-0.243h0c-0.393,1.954-0.769,3.411-0.897,3.891
		c-5.696,0.769-8.787,2.581-9.171,2.817c-0.576-0.357-2.812-1.6-6.57-1.978c0.026-0.483,0.12-1.768,0.404-2.804
		c-0.134,0.076-0.266,0.154-0.398,0.233c-0.251,1.081-0.323,2.279-0.339,2.646c-0.691,0.389-3.374,2.1-5.953,6.426
		c-0.014-0.001-0.029-0.004-0.044-0.001c-0.057,0.01-1.158,0.201-2.185,0.611c-0.063,0.144-0.124,0.289-0.184,0.435
		c0.914-0.416,2.024-0.647,2.338-0.706c0.131,0.607,0.749,2.92,3.068,6.361c-0.001,0.003-0.004,0.006-0.005,0.009
		c-0.015,0.046-1.472,4.617-1.162,9.279c0.002,0.029,0.013,0.054,0.027,0.076c-0.402,0.248-1.689,0.982-3.745,1.608l-0.103,0.277
		c0.579,1.236,1.275,2.407,2.073,3.498c0.002,0.002,0.004,0.005,0.006,0.008c0.477,0.652,0.991,1.275,1.538,1.867
		c0.004,0.005,0.009,0.009,0.013,0.014c0.36,0.389,0.735,0.764,1.123,1.124c0.009,0.008,0.018,0.016,0.027,0.025
		c0.586,0.542,1.203,1.052,1.847,1.526c0.012,0.009,0.024,0.018,0.036,0.026c0.423,0.309,0.857,0.603,1.303,0.88
		c0.014,0.009,0.028,0.018,0.042,0.026c0.225,0.139,0.452,0.275,0.682,0.405l0,0c0.261-0.099,0.434-0.165,0.434-0.165
		s1.321-0.106,2.112-0.227c0.01,0.01,0.019,0.021,0.032,0.029c0.039,0.023,3.392,2.015,7.08,3.092C21.505,42.994,21.752,43,22,43
		c0.199,0,0.396-0.003,0.593-0.009c-4.095-0.913-8.203-3.353-8.246-3.379c-0.001-0.001-0.003-0.001-0.004-0.001
		c-0.084-0.475-0.26-1.74-0.183-3.68c1.105-0.292,5.632-1.531,8.94-3.053c0.694,0.564,4.066,3.139,8.226,3.535
		c-0.004,0.612-0.078,2.672-0.822,4.798c0.137-0.061,0.273-0.122,0.408-0.186c0.718-2.221,0.746-4.304,0.743-4.728
		c0.78-0.655,4.245-3.712,5.784-7.462c0.033,0.001,0.072,0.002,0.121,0.002c0.583,0,2.28-0.105,4.712-1.148
		c0.039-0.136,0.075-0.273,0.111-0.409c-2.617,1.166-4.437,1.232-4.899,1.227c-0.127-0.73-0.819-3.865-3.722-7.437
		c1.166-5.593,1.081-8.666,1.054-9.199c1.102-0.055,2.978-0.277,3.535-0.345c0.004,0.037,0.02,0.074,0.05,0.101
		c0.032,0.029,3.13,2.933,4.514,7.745c-0.08-0.658-0.19-1.306-0.329-1.944C41.034,13.644,38.652,11.413,38.624,11.387z
		 M23.004,32.561c-3.405,1.573-8.148,2.848-9.03,3.079c-0.894-0.628-4.711-3.407-6.984-6.623c0.045-0.032,0.074-0.084,0.07-0.142
		c-0.305-4.597,1.132-9.111,1.147-9.156c0.003-0.009,0.002-0.018,0.003-0.027c0.706-0.33,3.337-1.513,7.604-2.869
		c0.101,0.083,2.988,2.473,8.282,7.124C23.99,24.975,23.482,29.79,23.004,32.561z M33.447,20.973
		c-0.877,0.325-4.858,1.763-9.132,2.73c-5.17-4.543-8.049-6.932-8.28-7.123c0.12-0.768,0.648-3.899,1.813-7.869
		c0.019-0.004,0.037-0.011,0.054-0.022c0.031-0.02,3.147-2.022,9.25-2.816c3.937,1.967,6.724,5.086,7.362,5.839
		c-0.02,0.03-0.032,0.065-0.029,0.103C34.487,11.844,34.71,14.899,33.447,20.973z"/>
</g>
</svg>
