<svg id="Layer_1" data-name="Layer 1" xmlns="http://www.w3.org/2000/svg" viewBox="0 0 74 74"><defs><style>.cls-1{fill:#009dff;}</style></defs><title>icon_preset</title><path class="cls-1" d="M37,7A30,30,0,1,0,67,37,30,30,0,0,0,37,7ZM49.9,30.4c0,0.3,0,.6,0,0.9,0,8.8-6.7,18.9-18.9,18.9a18.8,18.8,0,0,1-10.2-3h1.6a13.4,13.4,0,0,0,8.3-2.8,6.7,6.7,0,0,1-6.2-4.6h1.3l1.8-.2a6.7,6.7,0,0,1-5.3-6.5h0a6.6,6.6,0,0,0,3,.8A6.7,6.7,0,0,1,23,25a18.9,18.9,0,0,0,13.7,7,6.7,6.7,0,0,1,11.3-6.1,13.3,13.3,0,0,0,4.2-1.6A6.7,6.7,0,0,1,49.4,28a13.2,13.2,0,0,0,3.8-1A13.4,13.4,0,0,1,49.9,30.4Z"/></svg>