<svg id="Layer_1" data-name="Layer 1" xmlns="http://www.w3.org/2000/svg" viewBox="0 0 74 74"><defs><style>.cls-1{fill:#c8131a;}</style></defs><title>icon_preset</title><path class="cls-1" d="M37,7A30,30,0,1,0,67,37,30,30,0,0,0,37,7ZM55,38.4a44.8,44.8,0,0,1-.4,5.8,8.1,8.1,0,0,1-1.5,3.6,5.1,5.1,0,0,1-3.6,1.5c-5,.4-12.5.4-12.5,0.4s-9.3-.1-12.1-0.4a6,6,0,0,1-3.9-1.5,8.3,8.3,0,0,1-1.5-3.6,44.6,44.6,0,0,1-.4-5.8V35.6a44.8,44.8,0,0,1,.4-5.8,8,8,0,0,1,1.5-3.6A4.5,4.5,0,0,1,24.5,25c5-.4,12.5,0,12.5,0h0s7.5-.3,12.5,0a4.7,4.7,0,0,1,3.6,1.4,8.1,8.1,0,0,1,1.5,3.5,42.8,42.8,0,0,1,.4,5.7v2.7Z"/><polygon class="cls-1" points="33.3 41.7 43 36.6 33.3 31.6 33.3 41.7"/></svg>