<svg id="Layer_1" data-name="Layer 1" xmlns="http://www.w3.org/2000/svg" viewBox="0 0 109.2 42.13"><defs><style>.cls-1{fill:#fff;fill-rule:evenodd;}</style></defs><title>logo</title><path class="cls-1" d="M10,10.19a13.06,13.06,0,0,1,.51,4.45l0,10.76a27.14,27.14,0,0,1-.39,4.41,0,0,0,0,0,0,.06c4.11,0,8.17-.11,12.28.1,0,0,.05,0,0.06-0.06,0.21-1,.58-2.12.85-3.12,0.1-.36-0.11-0.86-0.62-0.47a6.23,6.23,0,0,1-3.59,1.43H17.61c-2.31,0-2.73-.83-2.72-3.24V20.32a0.08,0.08,0,0,1,.1-0.06,51.63,51.63,0,0,1,5.9.26,0,0,0,0,0,0,0c0.22-.83.44-1.6,0.67-2.4,0.06-.16,0-0.28-0.2-0.23a56.69,56.69,0,0,1-6.48.23,0.05,0.05,0,0,1,0,0c0-1.95,0-3.88.1-5.83a0.08,0.08,0,0,1,.09-0.09c2.55-.1,5-0.13,6,1.47a0.21,0.21,0,0,0,.38,0l1-3.42a0.07,0.07,0,0,0-.08-0.08c-4.05.1-8.14,0.09-12.21,0-0.08,0-.12,0-0.1.08h0Zm76.67,5.7c0-.08,0-0.13.08-0.13,1.36,0,2.74,0,4.06-.1a0.13,0.13,0,0,1,.15.13l-0.1,2.38A7.59,7.59,0,0,1,96,15.47c2.76,0,4.5,1.34,4.47,5l0,4.94a14.17,14.17,0,0,0,.58,4.35c0,0.09,0,.11-0.09.1a38.65,38.65,0,0,0-4.46,0,0.1,0.1,0,0,1-.13-0.13,26.38,26.38,0,0,0,.33-4.2V21.08c0-1.13-.36-2.85-2.55-2.85A3.29,3.29,0,0,0,91,21.52v3.77a15.14,15.14,0,0,0,.58,4.47c0,0.1,0,.14-0.13.12-1.49-.07-2.94-0.06-4.4,0-0.09,0-.13,0-0.11-0.1a36.2,36.2,0,0,0,.34-5.22V20.84a18.33,18.33,0,0,0-.61-4.95h0Zm-8-.41c-4.95.14-7.63,3.11-7.66,7.62s2.5,7.35,7.32,7.23c4.59-.11,7.37-3,7.5-7.8,0.1-3.76-2.27-7.19-7.16-7.05h0Zm-0.46,1.66c3-.1,3.48,3.26,3.53,5.68,0.05,2.61-.32,5.87-3.36,5.89-2.74,0-3.31-3.3-3.32-5.93,0-1.81.16-5.54,3.14-5.64h0ZM62.62,13.36s0,0,0,.08c0.08,0.82.11,1.65,0.12,2.47a0.08,0.08,0,0,1-.06.09,13.64,13.64,0,0,1-1.6-.08A0.1,0.1,0,0,0,61,16l-0.51,1.83c-0.05.25,0,.33,0.28,0.28A13.1,13.1,0,0,1,62.49,18c0.11,0,.13.06,0.13,0.14l0,7.77c0,3.31,1.7,4.5,4,4.46A13,13,0,0,0,70,29.76a0.16,0.16,0,0,0,.12-0.1l0.54-1.88a0.27,0.27,0,0,0-.38-0.35,3.67,3.67,0,0,1-1.74.53c-1.71,0-2.18-1.21-2.19-3.19V19.9c0-.59.06-1.66,0.08-1.85A0.08,0.08,0,0,1,66.5,18a33.13,33.13,0,0,1,3.68.13A0.08,0.08,0,0,0,70.26,18l0.53-1.93c0.07-.21,0-0.41-0.3-0.32A6,6,0,0,1,69.1,16l-2.64,0a0.06,0.06,0,0,1-.05-0.08,36.49,36.49,0,0,1,.24-3.83c0-.4-0.16-0.49-0.52-0.29a17.28,17.28,0,0,1-3.52,1.55h0ZM49.89,15.93a0.07,0.07,0,0,0-.08.09,17.25,17.25,0,0,1,.6,4.76l0,4.75a36.65,36.65,0,0,1-.32,4.28s0,0.08.06,0.07a44.65,44.65,0,0,1,4.48,0s0.1,0,.07-0.07a13.3,13.3,0,0,1-.61-4.27l0-2.84c0-2.29,1.2-3.74,2.52-3.71a1.72,1.72,0,0,1,1.33.87,0.25,0.25,0,0,0,.44,0l1.1-3.93c0-.08,0-0.11-0.1-0.17a2.68,2.68,0,0,0-1.22-.22c-2,0-3.19,1.9-4.44,3.61q0-1.6.06-3.2l-0.12-.08c-1.25.06-2.49,0.09-3.75,0.11h0Zm-9.75,6.68s-0.06,0-.06,0c0.05,2.94,1.7,5.28,4.86,5.27a4.87,4.87,0,0,0,3-1c0.21-.15.52,0,0.43,0.35l-0.59,2.14a0.13,0.13,0,0,1-.09.08,16.24,16.24,0,0,1-4.4.83,6.86,6.86,0,0,1-7.13-7.5c0.16-4.78,3-7.34,6.91-7.34,2.77,0,5.61,1.44,5.64,5.48a2.29,2.29,0,0,1-.28,1.46,0.27,0.27,0,0,1-.21.06l-8,.09h0Zm-0.06-1.77c0.07-1.76.58-3.61,2.68-3.63A2.14,2.14,0,0,1,45,19.36c0,2-2.09,1.25-4.92,1.48h0Zm-17.66-5a0,0,0,0,0,0,.05,10.68,10.68,0,0,1,1.87,3.38L27,27.48a13,13,0,0,1,.55,2.32,0.08,0.08,0,0,0,.09.08c1.06-.08,2.19-0.08,3.28-0.06A0.08,0.08,0,0,0,31,29.76a15.31,15.31,0,0,1,.65-2.3l3.4-7.9a19.26,19.26,0,0,1,2-3.51c0.21-.24.23-0.46-0.27-0.4a29.77,29.77,0,0,1-3.45.11c-0.09,0-.12,0-0.12.08a10.46,10.46,0,0,1-.85,4.35L30.17,26,28,18.67a29.46,29.46,0,0,1-.52-2.93s0-.11-0.1-0.1a48.63,48.63,0,0,1-5,.17h0Z"/></svg>