<?xml version="1.0" encoding="utf-8"?>
<!-- Generator: Adobe Illustrator 19.2.1, SVG Export Plug-In . SVG Version: 6.00 Build 0)  -->
<svg version="1.1" id="Layer_1" xmlns="http://www.w3.org/2000/svg" xmlns:xlink="http://www.w3.org/1999/xlink" x="0px" y="0px"
	 viewBox="0 0 50 50" style="enable-background:new 0 0 50 50;" xml:space="preserve">
<style type="text/css">
	.st0{opacity:0.65;}
	.st1{fill:#001842;}
	.st2{fill:#FFFFFF;}
	.st3{fill-rule:evenodd;clip-rule:evenodd;fill:#E9E9E9;}
	.st4{fill:url(#SVGID_1_);}
	.st5{fill:#E2A101;}
	.st6{fill:#FDE545;}
	.st7{fill:#766062;}
	.st8{fill:#473538;}
	.st9{fill:#00309B;}
	.st10{fill:url(#SVGID_2_);}
	.st11{fill:#FFC632;}
	.st12{fill:#FFD84A;}
	.st13{fill:#FAA339;}
	.st14{fill:#D7A043;}
	.st15{fill:#D9AC4E;}
	.st16{fill:#D58A44;}
	.st17{opacity:0.35;}
	.st18{fill:#999999;}
	.st19{clip-path:url(#SVGID_6_);}
	.st20{fill:#003699;}
	.st21{fill:#0347B8;}
	.st22{fill:#C3996D;}
	.st23{fill:#A27C52;}
	.st24{fill:#1A1A1A;}
	.st25{fill:#AAD4FF;}
	.st26{fill:#009DFF;}
	.st27{fill:#F9B619;}
	.st28{clip-path:url(#SVGID_8_);}
	.st29{fill:#F4DDB4;}
	.st30{opacity:0.3;fill:#FFFFFF;}
	.st31{fill:#0D1E15;}
	.st32{fill:#213228;}
	.st33{fill:#EB3A3F;}
	.st34{fill:#D8D9DA;}
	.st35{fill:#F2F2F2;}
	.st36{fill:#9DB202;}
	.st37{fill:#58452D;}
	.st38{clip-path:url(#SVGID_10_);fill:#9FB202;}
	.st39{clip-path:url(#SVGID_10_);}
	.st40{fill-rule:evenodd;clip-rule:evenodd;fill:#0E3154;}
	.st41{fill-rule:evenodd;clip-rule:evenodd;fill:#E3E7E8;}
	.st42{fill-rule:evenodd;clip-rule:evenodd;fill:#C4E3F6;}
	.st43{fill-rule:evenodd;clip-rule:evenodd;fill:#0A0A0D;}
	.st44{fill-rule:evenodd;clip-rule:evenodd;fill:#FFFFFF;}
	.st45{fill-rule:evenodd;clip-rule:evenodd;fill:#FCAB01;}
	.st46{fill-rule:evenodd;clip-rule:evenodd;fill:#F6BCB8;}
	.st47{clip-path:url(#SVGID_12_);}
	.st48{clip-path:url(#SVGID_14_);fill:#004FB9;}
	.st49{fill:#2B68B5;}
	.st50{fill:#B4C7E2;}
	.st51{fill:#C97B14;}
	.st52{fill:#EAB45E;}
	.st53{fill:#FFD78F;}
	.st54{fill:none;stroke:#3C2415;stroke-linecap:round;stroke-miterlimit:10;}
	.st55{fill:#3C2415;}
	.st56{fill:#D1D5D8;}
	.st57{fill:#47557A;}
	.st58{fill:#3181CE;}
	.st59{fill:#F9B119;}
	.st60{fill:#151D30;}
	.st61{fill:#FAB719;}
	.st62{fill:#E3E3E3;}
	.st63{fill:#C94B37;}
	.st64{fill:#E4553F;}
	.st65{fill:#EFEFEF;}
	.st66{fill:#404040;}
	.st67{fill:none;stroke:#EFEFEF;stroke-width:3;stroke-linecap:round;stroke-linejoin:round;stroke-miterlimit:10;}
	.st68{fill:none;stroke:#404040;stroke-width:3;stroke-linecap:round;stroke-miterlimit:10;}
	.st69{fill:url(#SVGID_15_);}
</style>
<g>
	<circle class="st9" cx="25" cy="25" r="14.8"/>
	<g>
		<path class="st11" d="M32.7,23.4c0-0.5-0.4-0.9-0.9-0.9c-0.5,0-0.9,0.4-0.9,0.9c0,0.1,0,0.3,0.1,0.4L29.3,25l-0.5-1.3
			c0.3-0.2,0.4-0.5,0.4-0.8c0-0.5-0.4-0.9-0.9-0.9c-0.5,0-0.9,0.4-0.9,0.9c0,0.3,0.1,0.6,0.4,0.7l-1,1.3l-1.2-1.6
			c0.3-0.2,0.4-0.5,0.4-0.8c0-0.5-0.4-0.9-0.9-0.9c-0.5,0-0.9,0.4-0.9,0.9c0,0.3,0.2,0.6,0.4,0.8l-1.2,1.6l-1-1.3
			c0.2-0.2,0.4-0.4,0.4-0.7c0-0.5-0.4-0.9-0.9-0.9c-0.5,0-0.9,0.4-0.9,0.9c0,0.3,0.2,0.6,0.4,0.8L20.7,25l-1.6-1.3
			c0-0.1,0.1-0.2,0.1-0.4c0-0.5-0.4-0.9-0.9-0.9c-0.5,0-0.9,0.4-0.9,0.9c0,0.5,0.4,0.9,0.9,0.9l1,4.2l1.4,0l5.7,0l4.4,0l1-4.2
			C32.3,24.3,32.7,23.9,32.7,23.4"/>
		<path class="st12" d="M18.3,23.1c0,0.2-0.2,0.3-0.3,0.3c-0.2,0-0.3-0.2-0.3-0.3c0-0.2,0.2-0.3,0.3-0.3
			C18.1,22.7,18.3,22.9,18.3,23.1"/>
		<path class="st12" d="M31.7,23.1c0,0.2-0.2,0.3-0.3,0.3c-0.2,0-0.3-0.2-0.3-0.3c0-0.2,0.2-0.3,0.3-0.3
			C31.6,22.8,31.7,22.9,31.7,23.1"/>
		<path class="st12" d="M28.3,22.6c0,0.2-0.2,0.3-0.3,0.3c-0.2,0-0.3-0.2-0.3-0.3c0-0.2,0.2-0.3,0.3-0.3
			C28.1,22.3,28.3,22.4,28.3,22.6"/>
		<path class="st12" d="M21.7,22.6c0,0.2-0.2,0.3-0.3,0.3c-0.2,0-0.3-0.2-0.3-0.3c0-0.2,0.2-0.3,0.3-0.3
			C21.6,22.3,21.7,22.4,21.7,22.6"/>
		<path class="st12" d="M25,22.2c0,0.2-0.2,0.3-0.3,0.3c-0.2,0-0.3-0.2-0.3-0.3c0-0.2,0.2-0.3,0.3-0.3C24.8,21.9,25,22,25,22.2"/>
		<path class="st13" d="M30.9,28l-11.8,0c-0.1,0-0.1-0.1-0.1-0.1l0,0c0-0.1,0.1-0.1,0.1-0.1l11.8,0c0.1,0,0.1,0.1,0.1,0.1l0,0
			C31,27.9,31,28,30.9,28"/>
		<path class="st14" d="M25,21.6l0,6.1l5.9,0c0,0,0,0,0,0l0.9-3.4c0.5,0,0.9-0.4,0.9-0.9c0-0.5-0.4-0.9-0.9-0.9
			c-0.5,0-0.9,0.4-0.9,0.9c0,0.1,0,0.3,0.1,0.4L29.3,25l-0.5-1.3c0.3-0.2,0.4-0.5,0.4-0.8c0-0.5-0.4-0.9-0.9-0.9
			c-0.5,0-0.9,0.4-0.9,0.9c0,0.3,0.1,0.6,0.4,0.7l-1,1.3l-1.2-1.6c0.3-0.2,0.4-0.5,0.4-0.8C25.9,22,25.5,21.6,25,21.6 M27.9,23
			c-0.2,0-0.3-0.2-0.3-0.3c0-0.2,0.2-0.3,0.3-0.3c0.2,0,0.3,0.2,0.3,0.3C28.3,22.8,28.1,23,27.9,23 M31.4,23.4
			c-0.2,0-0.3-0.2-0.3-0.3c0-0.2,0.2-0.3,0.3-0.3c0.2,0,0.3,0.2,0.3,0.3C31.7,23.3,31.6,23.4,31.4,23.4 M30.8,28L25,28l0,0.5l1.4,0
			l4.4,0L30.8,28z"/>
		<path class="st15" d="M31.4,22.8c-0.2,0-0.3,0.2-0.3,0.3c0,0.2,0.2,0.3,0.3,0.3c0.2,0,0.3-0.2,0.3-0.3
			C31.7,22.9,31.6,22.8,31.4,22.8"/>
		<path class="st15" d="M27.9,22.3c-0.2,0-0.3,0.2-0.3,0.3s0.2,0.3,0.3,0.3c0.2,0,0.3-0.2,0.3-0.3C28.3,22.4,28.1,22.3,27.9,22.3"/>
		<path class="st16" d="M30.9,27.7l-5.9,0l0,0.3l5.8,0l0,0c0.1,0,0.1-0.1,0.1-0.1l0,0C31,27.7,31,27.7,30.9,27.7
			C30.9,27.7,30.9,27.7,30.9,27.7"/>
	</g>
</g>
</svg>
