<?xml version="1.0" encoding="utf-8"?>
<!-- Generator: Adobe Illustrator 17.0.0, SVG Export Plug-In . SVG Version: 6.00 Build 0)  -->
<!DOCTYPE svg PUBLIC "-//W3C//DTD SVG 1.1//EN" "http://www.w3.org/Graphics/SVG/1.1/DTD/svg11.dtd">
<svg version="1.1" id="Layer_1" xmlns="http://www.w3.org/2000/svg" xmlns:xlink="http://www.w3.org/1999/xlink" x="0px" y="0px"
	 width="30px" height="30px" viewBox="0 0 30 30" style="enable-background:new 0 0 30 30;" xml:space="preserve">
<style type="text/css">
	.st0{fill:#FFFFFF;}
	.st1{fill:none;stroke:#FFFFFF;stroke-miterlimit:10;}
	.st2{fill:#BA8B2D;}
	.st3{fill:#263C83;}
	.st4{fill:#2B2F36;}
	.st5{fill:#9E8644;}
	.st6{fill:#A29165;}
	.st7{fill:#A48C4C;}
	.st8{fill:#FFFFFA;}
	.st9{fill:#A28C51;}
	.st10{fill:#A48C49;}
	.st11{fill:#FFFFFD;}
	.st12{fill:#25397A;}
	.st13{fill:#374041;}
	.st14{fill:#424740;}
	.st15{fill:#E1C177;}
	.st16{fill:#A48C4D;}
	.st17{fill:#323C41;}
	.st18{fill:#2B3B48;}
	.st19{fill:#B98A2D;}
	.st20{fill:#2A3843;}
	.st21{fill:#1D2F44;}
	.st22{fill:#B29349;}
	.st23{fill:#524E35;}
	.st24{fill:#596EB2;}
	.st25{fill:#586EB2;}
	.st26{fill:#D3D3D6;}
	.st27{fill:#596DB3;}
	.st28{fill:#D2D3D9;}
	.st29{fill:#CED4E0;}
	.st30{fill:#B5C7E7;}
	.st31{fill:#D3D3D7;}
	.st32{fill:#5A6DB3;}
	.st33{fill:#E81E25;}
	.st34{fill:#536EB5;}
	.st35{fill:#5A6EAF;}
	.st36{fill:#D7D3D5;}
	.st37{fill:#FCF7FA;}
	.st38{fill:#FCF8FB;}
	.st39{fill:#C6363B;}
	.st40{fill:#C63136;}
	.st41{fill:#576DB4;}
	.st42{fill:#D2D3D8;}
	.st43{fill:#D2D3D7;}
	.st44{fill:#ED1C24;}
	.st45{fill:#E21F26;}
	.st46{fill:#DB1F26;}
	.st47{fill:#D3D3D8;}
	.st48{fill:#E01F26;}
	.st49{fill:#E11F26;}
	.st50{fill:#E91D25;}
	.st51{fill:#E31E26;}
	.st52{fill:#E71E25;}
	.st53{fill:#566DB4;}
	.st54{fill:#D1D3D8;}
	.st55{fill:#BC7D80;}
	.st56{fill:#C86D70;}
	.st57{fill:#C3363A;}
	.st58{fill:#566EB0;}
	.st59{fill:#CE3438;}
	.st60{fill:#CC2A30;}
	.st61{fill:#CA2127;}
	.st62{fill:#CED4DF;}
	.st63{fill:#5A6DB2;}
	.st64{fill:#6C81B9;}
	.st65{fill:#FEF3F8;}
	.st66{fill:#FEF2F4;}
	.st67{fill:#263A7D;}
	.st68{fill:#D0D4DE;}
	.st69{fill:#D2D3D6;}
	.st70{fill:#586DB4;}
	.st71{fill:#C8CDE1;}
	.st72{fill:#586EB0;}
	.st73{fill:#338956;}
	.st74{fill:#5B72AE;}
	.st75{fill:#2A3A46;}
	.st76{fill:#FFFEF8;}
	.st77{fill:#A69A77;}
	.st78{fill:#323B38;}
	.st79{fill:#1B3461;}
	.st80{fill:#9B916E;}
	.st81{fill:#3B4342;}
	.st82{fill:#FFFEF5;}
	.st83{fill:#FFFEF6;}
	.st84{fill:#263B7F;}
	.st85{fill:#28334A;}
	.st86{fill:#2F3C42;}
	.st87{fill:#FFFEF7;}
	.st88{fill:#FFFEF4;}
	.st89{fill:#253876;}
	.st90{fill:#374654;}
	.st91{fill:#253C58;}
	.st92{fill:#2A3E55;}
	.st93{fill:#C2B388;}
	.st94{fill:#3E4B53;}
	.st95{fill:#FFFFF9;}
	.st96{fill:#293E58;}
	.st97{fill:#A0936B;}
	.st98{fill:#363A31;}
	.st99{fill:#AB945B;}
	.st100{fill:#464B45;}
	.st101{fill:#3B4544;}
	.st102{fill:#2D3F56;}
	.st103{fill:#2F3D49;}
	.st104{fill:#B0A789;}
	.st105{fill-rule:evenodd;clip-rule:evenodd;fill:#252C6A;}
	.st106{fill-rule:evenodd;clip-rule:evenodd;fill:#FFFFFF;}
	.st107{opacity:0.3;}
	.st108{fill:none;stroke:#FFFFFF;stroke-width:7;stroke-miterlimit:10;}
	.st109{fill:none;stroke:#FFFFFF;stroke-width:8;stroke-miterlimit:10;}
	.st110{opacity:0.89;}
	.st111{display:none;opacity:0.1;fill:#010101;}
	.st112{fill:#EDAC68;}
	.st113{fill:#FDC892;}
	.st114{clip-path:url(#SVGID_2_);}
	.st115{fill:#2E292A;}
	.st116{fill:#262125;}
	.st117{fill:#312C2F;}
	.st118{clip-path:url(#SVGID_4_);}
	.st119{fill:#0F303F;}
	.st120{fill:#2D5972;}
	.st121{fill:none;}
	.st122{opacity:0.5;fill:#B6B7B7;}
	.st123{fill:none;stroke:#F0F0F0;stroke-width:1.0228;stroke-miterlimit:10;}
	.st124{fill:#F0F0F0;}
	.st125{fill:none;stroke:#F0F0F0;stroke-width:2.0113;stroke-miterlimit:10;}
	.st126{fill:none;stroke:#F0F0F0;stroke-miterlimit:10;}
	.st127{fill:#F0F0F0;stroke:#F0F0F0;stroke-width:0.5;stroke-miterlimit:10;}
	.st128{opacity:0.77;}
	.st129{fill:none;stroke:#FFFFFF;stroke-width:4;stroke-linecap:round;stroke-linejoin:round;stroke-miterlimit:10;}
	.st130{fill:none;stroke:#FFFFFF;stroke-width:3.5;stroke-miterlimit:10;}
	.st131{fill:none;stroke:#FFFFFF;stroke-width:4;stroke-miterlimit:10;}
</style>
<g>
	<path class="st105" d="M28.6,17.5c-0.1,0.2-0.2,0.3-0.2,0.5l1.6,0.6l0,0.1c-2.5,6.1-7.3,9.8-13.9,10.3L15,30l-1-0.9
		C7.3,28.5,2.6,24.8,0.1,18.7l0-0.1l1.6-0.6c-0.1-0.2-0.1-0.4-0.2-0.5l-1,0.4l0,0C0,17.7,0,17.3,0,16.9c0-0.3,0.3-0.4,0.5-0.5
		c0.8-0.3,1.6-0.7,2.4-1c0.2-0.1,0.4-0.1,0.5,0c0.1,0.1,0.2,0.1,0.4,0.2l0,0l0,0c0.8,0.9,0.8,1.8,0.9,2.9l0,0.1L4,18.8
		c1.5,2.8,3.8,5,6.8,6.1c1.4,0.5,2.8,0.7,4.2,0.7s2.9-0.2,4.2-0.7c3-1.1,5.3-3.3,6.8-6.1l-0.8-0.3l0-0.1c0.1-1.1,0.1-2,0.9-2.9l0,0
		l0,0c0.1-0.1,0.2-0.2,0.4-0.2c0.2-0.1,0.4-0.1,0.5,0c0.8,0.3,1.6,0.7,2.4,1c0.2,0.1,0.5,0.3,0.5,0.5c0.1,0.4,0,0.8-0.4,1.1l0,0
		L28.6,17.5L28.6,17.5z"/>
	<path class="st106" d="M15,29.9l0.9-0.9c7.2-0.6,11.6-4.7,13.9-10.3l-1.6-0.6c0.1-0.2,0.2-0.5,0.3-0.7l1,0.4c0.2-0.2,0.4-0.5,0.3-1
		c0-0.2-0.2-0.3-0.4-0.4c-0.8-0.3-1.6-0.7-2.4-1c-0.2-0.1-0.3-0.1-0.5,0c-0.1,0.1-0.2,0.1-0.3,0.2c-0.8,0.8-0.8,1.8-0.9,2.8l0.8,0.3
		c-2.4,4.7-6.6,6.8-11.1,6.9c-4.6-0.1-8.8-2.3-11.1-6.9l0.8-0.3c-0.1-1.1-0.1-2-0.9-2.8c-0.1-0.1-0.2-0.1-0.3-0.2
		c-0.1-0.1-0.3-0.1-0.5,0c-0.8,0.3-1.6,0.7-2.4,1c-0.3,0.1-0.4,0.3-0.4,0.4c-0.1,0.5,0.1,0.8,0.3,1l1-0.4c0.1,0.2,0.2,0.4,0.3,0.7
		l-1.6,0.6c2.3,5.5,6.7,9.7,13.9,10.3L15,29.9L15,29.9z"/>
	<path class="st105" d="M26.4,15.8c-0.6,0.7-0.7,1.5-0.8,2.4c0.2,0.1,0.5,0.2,0.7,0.2c0.1-0.2,0.2-0.5,0.3-0.7c0,0,0-0.1-0.1,0
		c-0.2,0.1-0.3,0.4-0.5,0.4c-0.1,0-0.2,0-0.3,0c0-0.1,0-0.2,0-0.3c0.2,0,0.3,0.1,0.3,0c0.1-0.1,0.2-0.3,0.3-0.4c0.1,0,0.1-0.1,0.2,0
		c0.5,0.2,0.9,0.4,1.4,0.5c0.1-0.2,0.2-0.5,0.3-0.7c-0.4-0.2-0.8-0.3-1.2-0.5c-0.1,0-0.1-0.1-0.1-0.2c0-0.3,0.2-0.7,0-0.9
		c-0.1-0.1-0.3-0.1-0.4-0.1C26.6,15.7,26.5,15.8,26.4,15.8L26.4,15.8z M3.6,15.8c0.6,0.7,0.7,1.5,0.8,2.4c-0.2,0.1-0.5,0.2-0.7,0.2
		c-0.1-0.2-0.2-0.5-0.3-0.7c0,0,0-0.1,0.1,0c0.2,0.1,0.3,0.4,0.5,0.4c0.1,0,0.2,0,0.3,0c0-0.1,0-0.2,0-0.3c-0.2,0-0.3,0.1-0.3,0
		c-0.1-0.1-0.2-0.3-0.3-0.4c-0.1,0-0.1-0.1-0.2,0C2.9,17.7,2.5,17.8,2,18c-0.1-0.2-0.2-0.5-0.3-0.7c0.4-0.2,0.8-0.3,1.2-0.5
		c0.1,0,0.1-0.1,0.1-0.2c0-0.3-0.2-0.7,0-0.9c0.1-0.1,0.3-0.1,0.4-0.1C3.4,15.7,3.5,15.8,3.6,15.8L3.6,15.8z M0.5,17.5
		c-0.1-0.2-0.1-0.4-0.1-0.6c0-0.1,0.2-0.2,0.3-0.2c0.6-0.3,1.3-0.6,1.9-0.8c0,0.2,0,0.5,0,0.7c0,0,0,0,0,0.1
		C1.9,16.9,1.2,17.2,0.5,17.5L0.5,17.5z M3.5,18.6c0,0.1,0.1,0.2,0.1,0.3c1.5,2.9,3.9,5.2,7,6.3c1.4,0.5,2.9,0.7,4.4,0.7
		c1.5,0,3-0.2,4.4-0.7c3.1-1.1,5.5-3.4,7-6.3c0-0.1,0.1-0.2,0.1-0.3c0.1-0.2,0.2-0.5,0.3-0.7c0,0,0,0,0.1,0c0.3,0.1,0.7,0.3,1,0.4
		c0.5,0.2,1,0.4,1.5,0.6c-2.5,5.8-7.1,9.3-13.6,9.8c0,0-0.1,0-0.1,0c-0.3,0.3-0.5,0.5-0.8,0.8c-0.3-0.3-0.5-0.5-0.8-0.8
		c0,0-0.1,0-0.1,0c-6.5-0.5-11.1-4-13.6-9.8c0.5-0.2,1-0.4,1.5-0.6c0.3-0.1,0.7-0.3,1-0.4c0,0,0.1,0,0.1,0
		C3.3,18.1,3.4,18.3,3.5,18.6L3.5,18.6z M29.5,17.5c0.1-0.2,0.1-0.4,0.1-0.6c0-0.1-0.2-0.2-0.3-0.2c-0.6-0.3-1.3-0.6-1.9-0.8
		c0,0.2,0,0.5,0,0.7c0,0,0,0,0,0.1C28.1,16.9,28.8,17.2,29.5,17.5L29.5,17.5z"/>
	<path class="st105" d="M16.3,25.2c-0.4,0.4-0.8,0.8-1.2,1.2L15,26.5l-0.1-0.1c-0.4-0.4-0.8-0.8-1.2-1.2c-2.3-0.3-4.6-1.1-6.4-2.6
		c-1.6-1.3-2.9-3-3.4-5c-0.5-1.9-0.2-4,0.4-5.9c0.2-0.8,0.6-1.6,0.8-2.4c0.2-0.6,0.3-1.3,0.2-1.9C5.1,6.3,4.1,5.1,3.2,4.4L3.2,4.3
		l0.1-0.1c1.5-1.4,3-2.8,4.5-4.2L7.8,0l0.1,0.1c1,1,2.7,1.3,4.1,1.2c1-0.1,2.1-0.4,3-1.1l0.1,0l0.1,0c0.8,0.6,1.9,1,3,1.1
		c1.4,0.1,3.1-0.1,4.1-1.2L22.2,0l0.1,0.1c1.5,1.4,3,2.8,4.5,4.2l0.1,0.1l-0.1,0.1c-0.9,0.8-1.9,1.9-2.1,3.1
		c-0.1,0.6,0.1,1.3,0.2,1.9c0.2,0.8,0.6,1.6,0.8,2.4c0.6,1.9,0.9,3.9,0.4,5.9c-0.5,2-1.8,3.7-3.4,5C20.9,24.1,18.6,24.9,16.3,25.2
		L16.3,25.2z"/>
	<path class="st106" d="M15,0.2c1.9,1.5,5.6,1.5,7.2-0.1c1.5,1.4,3,2.8,4.5,4.2c-1.1,1-1.9,2.1-2.1,3.2c-0.1,0.6,0.1,1.2,0.2,1.9
		c0.2,0.8,0.6,1.6,0.8,2.4c0.6,2,0.8,3.9,0.4,5.8c-1.2,3.7-4.7,7-9.8,7.6c-0.4,0.4-0.8,0.8-1.2,1.2c-0.4-0.4-0.8-0.8-1.2-1.2
		c-5.1-0.5-8.6-3.9-9.8-7.6c-0.4-1.9-0.2-3.8,0.4-5.8c0.2-0.8,0.6-1.6,0.8-2.4C5.4,8.7,5.5,8,5.4,7.4c-0.2-1.1-1-2.1-2.1-3.2
		c1.5-1.4,3-2.8,4.5-4.2C9.4,1.8,13.1,1.7,15,0.2L15,0.2z"/>
	<path class="st105" d="M15,0.8c-0.9,0.6-1.9,0.9-3,1c-1.4,0.1-3.1-0.1-4.2-1C6.5,1.9,5.3,3.1,4,4.3c0.9,0.8,1.7,1.9,1.9,3.1
		c0.1,0.7,0,1.4-0.2,2.1c-0.2,0.8-0.6,1.6-0.8,2.4c-0.5,1.8-0.9,3.7-0.4,5.6c0.5,1.9,1.7,3.5,3.2,4.7c1.8,1.4,3.9,2.2,6.2,2.5l0.2,0
		l0.1,0.1c0.3,0.3,0.6,0.6,0.9,0.9c0.3-0.3,0.6-0.6,0.9-0.9l0.1-0.1l0.2,0c2.2-0.2,4.4-1.1,6.2-2.5c1.5-1.2,2.7-2.9,3.2-4.7
		c0.5-1.8,0.2-3.8-0.4-5.6c-0.2-0.8-0.6-1.6-0.8-2.4c-0.2-0.7-0.3-1.4-0.2-2.1c0.2-1.2,1-2.2,1.9-3.1c-1.3-1.2-2.6-2.4-3.8-3.5
		c-1.1,0.9-2.8,1.2-4.2,1C16.9,1.7,15.9,1.4,15,0.8L15,0.8z"/>
	<path class="st106" d="M21,7.2L21,7.2c0.2,0.1,0.4,0.3,0.5,0.5c-0.1,0.1-0.1,0.2-0.2,0.2C21.2,7.6,21.1,7.4,21,7.2
		c-0.2,0.3-0.4,0.5-0.5,0.7c-0.1-0.1-0.1-0.2-0.2-0.2c0.2-0.2,0.3-0.3,0.5-0.4l0,0C20.8,7.2,20.8,7.1,21,7.2L21,7.2L21,7.2
		C20.9,7.1,20.9,7.2,21,7.2L21,7.2z M9.2,7.2L9.2,7.2c0.2,0.1,0.4,0.3,0.5,0.5C9.7,7.7,9.6,7.8,9.5,7.9C9.4,7.6,9.3,7.4,9.2,7.2
		C8.9,7.4,8.8,7.6,8.7,7.9C8.6,7.8,8.6,7.7,8.5,7.6c0.2-0.2,0.3-0.3,0.5-0.4l0,0C9.1,7.2,9.1,7.1,9.2,7.2L9.2,7.2L9.2,7.2
		C9.2,7.1,9.2,7.2,9.2,7.2L9.2,7.2z M7.4,4c0.2-0.3,0.2-0.6,0-0.9C7.3,3.4,7.3,3.7,7.4,4L7.4,4z M7.7,3.8C8,3.6,8.1,3.4,8.1,3.1
		C7.8,3.2,7.6,3.5,7.7,3.8L7.7,3.8z M7.4,4.3C7.8,4.2,7.9,4.1,8,3.8C7.7,3.9,7.5,4,7.4,4.3L7.4,4.3z M7.3,4.5
		c0.1-0.3,0.1-0.6-0.1-0.9C7,4,7.1,4.3,7.3,4.5L7.3,4.5z M7.2,4.9C6.9,4.7,6.7,4.4,6.8,4.1C7.1,4.3,7.3,4.5,7.2,4.9L7.2,4.9z
		 M7.3,5.1c0.3-0.2,0.4-0.4,0.4-0.7C7.4,4.5,7.3,4.7,7.3,5.1L7.3,5.1z M7.3,5.5C7,5.4,6.8,5.1,6.8,4.8C7.1,4.9,7.3,5.1,7.3,5.5
		L7.3,5.5z M7.5,5C7.4,5.4,7.4,5.7,7.7,6C7.8,5.6,7.7,5.3,7.5,5L7.5,5z M7.5,5.9c-0.4,0-0.7-0.2-0.7-0.5C7.1,5.4,7.3,5.5,7.5,5.9
		L7.5,5.9z M7.8,6.4C7.4,6.4,7.1,6.3,7.1,6C7.4,5.9,7.6,6.1,7.8,6.4L7.8,6.4z M7.8,5.9C7.7,6.2,7.9,6.5,8.2,6.6
		C8.1,6.2,8.1,6,7.8,5.9L7.8,5.9z M8.9,7C8.6,7,8.3,6.8,8.2,6.5C8.6,6.5,8.9,6.7,8.9,7L8.9,7z M8.1,6.7C7.8,6.5,7.6,6.4,7.2,6.6
		C7.5,6.8,7.8,6.9,8.1,6.7L8.1,6.7z M8.5,6.9C8.2,6.8,7.9,6.8,7.7,7.1C8,7.2,8.3,7.2,8.5,6.9L8.5,6.9z M9,7.1C8.7,7,8.4,7,8.2,7.3
		C8.5,7.4,8.8,7.4,9,7.1L9,7.1z M10.8,4c-0.2-0.3-0.2-0.6,0-0.9C10.9,3.4,11,3.7,10.8,4L10.8,4z M10.6,3.8c-0.3-0.2-0.4-0.4-0.5-0.7
		C10.4,3.2,10.6,3.5,10.6,3.8L10.6,3.8z M10.8,4.3c-0.3-0.1-0.5-0.2-0.5-0.5C10.5,3.9,10.7,4,10.8,4.3L10.8,4.3z M10.9,4.5
		c-0.1-0.3-0.1-0.6,0.1-0.9C11.2,4,11.2,4.3,10.9,4.5L10.9,4.5z M11,4.9c0.3-0.1,0.5-0.5,0.4-0.8C11.1,4.3,11,4.5,11,4.9L11,4.9z
		 M10.9,5.1c-0.3-0.2-0.4-0.4-0.4-0.7C10.9,4.5,11,4.7,10.9,5.1L10.9,5.1z M10.9,5.5c0.3-0.1,0.6-0.4,0.5-0.7
		C11.1,4.9,10.9,5.1,10.9,5.5L10.9,5.5z M10.7,5c0.1,0.4,0.1,0.7-0.2,0.9C10.5,5.6,10.5,5.3,10.7,5L10.7,5z M10.7,5.9
		c0.4,0,0.7-0.2,0.7-0.5C11.1,5.4,10.9,5.5,10.7,5.9L10.7,5.9z M10.4,6.4c0.4,0,0.7-0.2,0.7-0.5C10.8,5.9,10.6,6.1,10.4,6.4
		L10.4,6.4z M10.5,5.9c0.1,0.4-0.1,0.6-0.4,0.8C10.1,6.2,10.2,6,10.5,5.9L10.5,5.9z M9.3,7C9.6,7,9.9,6.8,10,6.5
		C9.6,6.5,9.4,6.7,9.3,7L9.3,7z M10.2,6.7c0.2-0.2,0.5-0.3,0.9-0.2C10.8,6.8,10.5,6.9,10.2,6.7L10.2,6.7z M9.7,6.9
		c0.3-0.2,0.6-0.1,0.9,0.1C10.3,7.2,10,7.2,9.7,6.9L9.7,6.9z M9.2,7.1C9.5,7,9.8,7,10,7.3C9.7,7.4,9.4,7.4,9.2,7.1L9.2,7.1z M19.2,4
		c0.2-0.3,0.2-0.6,0-0.9C19.1,3.4,19,3.7,19.2,4L19.2,4z M19.4,3.8c0.3-0.2,0.4-0.4,0.5-0.7C19.6,3.2,19.4,3.5,19.4,3.8L19.4,3.8z
		 M19.2,4.3c0.3-0.1,0.5-0.2,0.5-0.5C19.5,3.9,19.3,4,19.2,4.3L19.2,4.3z M19.1,4.5c0.1-0.3,0.1-0.6-0.1-0.9
		C18.8,4,18.8,4.3,19.1,4.5L19.1,4.5z M19,4.9c-0.3-0.1-0.5-0.5-0.4-0.8C18.9,4.3,19,4.5,19,4.9L19,4.9z M19.1,5.1
		c0.3-0.2,0.4-0.4,0.4-0.7C19.1,4.5,19,4.7,19.1,5.1L19.1,5.1z M19.1,5.5c-0.3-0.1-0.6-0.4-0.5-0.7C18.9,4.9,19.1,5.1,19.1,5.5
		L19.1,5.5z M19.3,5c-0.1,0.4-0.1,0.7,0.2,0.9C19.5,5.6,19.5,5.3,19.3,5L19.3,5z M19.3,5.9c-0.4,0-0.7-0.2-0.7-0.5
		C18.9,5.4,19.1,5.5,19.3,5.9L19.3,5.9z M19.6,6.4c-0.4,0-0.7-0.2-0.7-0.5C19.2,5.9,19.4,6.1,19.6,6.4L19.6,6.4z M19.5,5.9
		c-0.1,0.4,0.1,0.6,0.4,0.8C19.9,6.2,19.8,6,19.5,5.9L19.5,5.9z M20.7,7c-0.3,0-0.6-0.2-0.7-0.5C20.4,6.5,20.6,6.7,20.7,7L20.7,7z
		 M19.8,6.7c-0.2-0.2-0.5-0.3-0.9-0.2C19.2,6.8,19.5,6.9,19.8,6.7L19.8,6.7z M20.3,6.9c-0.3-0.2-0.6-0.1-0.9,0.1
		C19.7,7.2,20,7.2,20.3,6.9L20.3,6.9z M20.8,7.1C20.5,7,20.2,7,20,7.3C20.3,7.4,20.6,7.4,20.8,7.1L20.8,7.1z M22.6,4
		c-0.2-0.3-0.2-0.6,0-0.9C22.7,3.4,22.7,3.7,22.6,4L22.6,4z M22.3,3.8c-0.3-0.2-0.4-0.4-0.5-0.7C22.2,3.2,22.4,3.5,22.3,3.8
		L22.3,3.8z M22.6,4.3c-0.3-0.1-0.5-0.2-0.5-0.5C22.3,3.9,22.5,4,22.6,4.3L22.6,4.3z M22.7,4.5c-0.1-0.3-0.1-0.6,0.1-0.9
		C23,4,22.9,4.3,22.7,4.5L22.7,4.5z M22.8,4.9c0.3-0.1,0.5-0.5,0.4-0.8C22.9,4.3,22.7,4.5,22.8,4.9L22.8,4.9z M22.7,5.1
		c-0.3-0.2-0.4-0.4-0.4-0.7C22.6,4.5,22.7,4.7,22.7,5.1L22.7,5.1z M22.7,5.5c0.3-0.1,0.6-0.4,0.5-0.7C22.9,4.9,22.7,5.1,22.7,5.5
		L22.7,5.5z M22.5,5c0.1,0.4,0.1,0.7-0.2,0.9C22.2,5.6,22.3,5.3,22.5,5L22.5,5z M22.5,5.9c0.4,0,0.7-0.2,0.7-0.5
		C22.9,5.4,22.7,5.5,22.5,5.9L22.5,5.9z M22.2,6.4c0.4,0,0.7-0.2,0.7-0.5C22.6,5.9,22.4,6.1,22.2,6.4L22.2,6.4z M22.2,5.9
		c0.1,0.4-0.1,0.6-0.4,0.8C21.9,6.2,21.9,6,22.2,5.9L22.2,5.9z M21.1,7c0.3,0,0.6-0.2,0.7-0.5C21.4,6.5,21.1,6.7,21.1,7L21.1,7z
		 M21.9,6.7c0.2-0.2,0.5-0.3,0.9-0.2C22.5,6.8,22.2,6.9,21.9,6.7L21.9,6.7z M21.5,6.9c0.3-0.2,0.6-0.1,0.9,0.1
		C22,7.2,21.7,7.2,21.5,6.9L21.5,6.9z M21,7.1C21.3,7,21.6,7,21.8,7.3C21.5,7.4,21.2,7.4,21,7.1L21,7.1z"/>
	<path class="st106" d="M14.9,2.5c0-0.1,0.1-0.1,0.2-0.1c0.1,0,0.2,0.1,0.2,0.2c0,0.1,0,0.2,0,0.3c0.7,1.6,1.5,3.1,2.2,4.7
		c0,0.1,0.1,0.1,0.1,0.2C18,7.9,18.2,8,18.3,8.2c0,0.2-0.1,0.3-0.3,0.4c0,1.9,0,3.8,0,5.8c0.1,0.1,0.2,0.1,0.2,0.3l0,1.4
		c-0.1,0.2-0.3,0.2-0.5,0.2c0-0.1,0-0.2,0-0.4c-0.1-0.1-0.2-0.1-0.3-0.1c-1.6-0.5-3.2-1.1-5-1.8c-0.1,0-0.2-0.1-0.2-0.2
		c0-0.3,0-0.6,0-0.9c0-0.1,0.1-0.2,0.2-0.2c0-1.3,0-2.6,0-3.9c-0.1-0.1-0.2-0.1-0.3-0.3C12,8.2,12.1,8,12.3,7.9
		c0.1-0.1,0.2-0.1,0.3-0.2c0.7-1.5,1.4-2.9,2.1-4.4c0.1-0.1,0.1-0.3,0.2-0.4C14.9,2.8,14.8,2.6,14.9,2.5L14.9,2.5z M13.2,7.5
		c0.7-1.4,1.3-2.7,2-4.1c0.1,0.2,0.2,0.4,0.3,0.5c-0.2,0-0.4,0-0.4,0.1c0,0.1,0.3,0,0.5,0.1c0,0,0,0.1,0.1,0.2
		c-0.1,0-0.3,0.1-0.3,0.1c0,0.1,0.3,0,0.4,0c0,0.1,0.1,0.2,0.1,0.3c-0.2,0-0.4,0-0.6,0.1c-0.1,0,0,0.1,0.1,0.1c0.2,0,0.4,0,0.6,0.1
		C15.9,5.1,16,5.2,16,5.3c-0.2,0-0.6,0-0.6,0c0.2,0.2,0.5,0,0.7,0.2c0.1,0.1,0.1,0.2,0.2,0.3c-0.2,0-0.5-0.1-0.8,0
		c-0.1,0.1,0.7,0.1,0.9,0.3c0.1,0.1,0.1,0.2,0.2,0.3c-0.4,0-0.8-0.1-1.3,0c-0.1,0-0.1,0.1,0,0.1c0.5,0.1,1,0.1,1.4,0.2
		c0.1,0.1,0.1,0.3,0.2,0.4c-0.4,0-0.7-0.1-1.1-0.1c-0.1,0,0,0.1,0,0.1c0.4,0.1,0.8,0.1,1.2,0.2c0.1,0,0.1,0.1,0.1,0.1
		c-0.7-0.1-1.3-0.2-2-0.2C14.5,7.3,13.8,7.4,13.2,7.5L13.2,7.5z M17.1,14.5l0.5,0.1l0,1l-0.5-0.2L17.1,14.5L17.1,14.5z M16.2,14.2
		l0.6,0.2l0,0.9l-0.6-0.2L16.2,14.2L16.2,14.2z M15.3,13.9l0.6,0.2l0,0.9l-0.6-0.2L15.3,13.9L15.3,13.9z M14.5,13.6l0.5,0.2l0,0.9
		l-0.5-0.2L14.5,13.6L14.5,13.6z M13.6,13.3l0.6,0.2l0,0.9l-0.5-0.2L13.6,13.3L13.6,13.3z M12.8,13l0.5,0.2l0,0.9L12.8,14L12.8,13
		L12.8,13z M15.6,8.8c0.6,0.1,1.3,0.1,1.9,0.3c0,0.1,0,0.2,0,0.2c-0.4-0.1-0.8-0.2-1.2-0.1c-0.1,0-0.1,0.1-0.1,0.1
		c0.4,0,0.9,0.1,1.3,0.3c0,0.1,0,0.2,0,0.3c-0.3-0.1-0.6-0.1-0.9-0.2c-0.4-0.1-0.7-0.1-1-0.1L15.6,8.8L15.6,8.8z M14.7,8.8
		c0.2,0,0.5,0,0.7,0c0,0.4,0,0.8-0.1,1.1c-0.2,0-0.4,0-0.6,0C14.8,9.6,14.8,9.2,14.7,8.8L14.7,8.8z M13.1,8.5
		c1.1-0.2,2.3-0.2,3.4-0.1c0.4,0,0.7,0.1,1.1,0.2c0,0.1,0,0.2,0,0.3c-0.6-0.1-1.3-0.2-1.9-0.2c-0.1-0.1-0.1-0.1-0.3-0.1
		c-0.3,0-0.6,0-0.9,0c0,0-0.1,0-0.1,0.1c0,0.3,0,0.7,0.1,1c-0.3,0-0.7,0.1-1,0.1c-0.1,0-0.2,0-0.3,0.1c0,0,0,0,0,0c0,0,0,0,0,0
		c0.4,0,0.9,0,1.3-0.1c0,0.1,0,0.1,0,0.1c0,0,0,0.1,0.1,0.1c0.2,0,0.5,0,0.7,0c0.1,0,0.1,0,0.2,0c0-0.1,0-0.1,0-0.2
		c0.3,0,0.6,0,0.9,0.1c0.4,0.1,0.8,0.1,1.1,0.3c0,0.1,0,0.2,0,0.2c-0.4-0.1-0.8-0.2-1.2-0.1c-0.1,0-0.1,0-0.2,0.1c0,0,0,0,0,0
		c0,0,0,0,0,0c0.4,0.1,0.9,0.1,1.3,0.3l0,0.3c-0.9-0.2-1.8-0.3-2.7-0.2c-0.4,0-0.7,0-1.1,0.1c0,0,0,0.1,0.1,0.1c0.7,0,1.4,0,2.2,0
		c0.5,0.1,1.1,0.1,1.5,0.3c0,0.1,0,0.2,0,0.3c-0.7-0.2-1.4-0.2-2.2-0.2c-0.1,0-0.1,0.1,0,0.1c0.7,0,1.5,0.1,2.1,0.4
		c0,0.1,0,0.2,0,0.3c-0.4,0-0.7-0.1-1,0c-0.1,0-0.1,0.1,0,0.1c0.4,0,0.7,0,1.1,0.2c0,0.1,0,0.3,0,0.4c-0.5-0.2-1-0.1-1.5-0.1
		c-0.1,0-0.1,0.1-0.1,0.1c0,0,0,0,0,0c0,0,0,0,0,0c0.6,0,1.1,0,1.7,0.2c0,0.1,0,0.3,0,0.4c-0.3-0.1-0.6-0.1-0.9-0.1
		c-0.2,0-0.2,0.1-0.1,0.1c0.2,0,0.3,0,0.5,0c0.2,0,0.3,0.1,0.5,0.1c0,0.2,0,0.5,0,0.7L13.3,13c-0.2-0.1-0.4-0.2-0.5-0.4
		c-0.1-0.5,0-1,0-1.5c0-0.8,0-1.5,0-2.3C12.7,8.6,13,8.5,13.1,8.5L13.1,8.5z M13.1,7.9c1.4-0.3,2.8-0.3,4.1,0
		C17.4,8,17.6,8,17.7,8.2c0,0,0,0.1,0,0.2c-0.2,0-0.3-0.1-0.4-0.1C16.5,8,15.6,8,14.8,8c-0.7,0-1.4,0.1-2.1,0.3c-0.1,0-0.1,0-0.2,0
		c-0.1,0-0.1-0.1-0.1-0.2C12.6,8,12.9,7.9,13.1,7.9L13.1,7.9z"/>
	<path class="st106" d="M7.4,16.6c0.1,0.2,0.1,0.5,0.1,0.7l0,1.8c0,0.3,0,0.5-0.1,0.7c0,0,0,0,0,0c0.7,0,1.4,0,2.1,0c0,0,0,0,0,0
		c0-0.2,0.1-0.4,0.1-0.5c0-0.1,0-0.1-0.1-0.1c-0.2,0.1-0.4,0.2-0.6,0.2l-0.3,0c-0.4,0-0.5-0.1-0.5-0.5l0-0.7c0,0,0,0,0,0
		c0.3,0,0.7,0,1,0c0,0,0,0,0,0c0-0.1,0.1-0.3,0.1-0.4c0,0,0,0,0,0c-0.4,0-0.7,0-1.1,0c0,0,0,0,0,0c0-0.3,0-0.6,0-1c0,0,0,0,0,0
		c0.4,0,0.8,0,1,0.2c0,0,0.1,0,0.1,0c0.1-0.2,0.1-0.4,0.2-0.6c0,0,0,0,0,0C8.8,16.6,8.1,16.6,7.4,16.6C7.4,16.6,7.4,16.6,7.4,16.6
		L7.4,16.6z M20.2,17.6C20.2,17.6,20.2,17.6,20.2,17.6c0.2,0,0.5,0,0.7,0c0,0,0,0,0,0c0,0.1,0,0.3,0,0.4c0.2-0.3,0.6-0.5,0.9-0.5
		c0.5,0,0.8,0.2,0.7,0.8c0,0.3,0,0.5,0,0.8c0,0.3,0,0.5,0.1,0.7c0,0,0,0,0,0c-0.2,0-0.5,0-0.7,0c0,0,0,0,0,0c0-0.2,0.1-0.5,0.1-0.7
		l0-0.7c0-0.2-0.1-0.5-0.4-0.5c-0.2,0-0.5,0.2-0.5,0.5v0.6c0,0.3,0,0.5,0.1,0.7c0,0,0,0,0,0c-0.2,0-0.5,0-0.7,0c0,0,0,0,0,0
		c0-0.3,0.1-0.6,0.1-0.9l0-0.6C20.3,18.2,20.3,17.8,20.2,17.6L20.2,17.6z M18.9,17.5c-0.8,0-1.3,0.5-1.3,1.3c0,0.8,0.4,1.2,1.2,1.2
		c0.8,0,1.2-0.5,1.3-1.3C20.1,18.1,19.7,17.5,18.9,17.5L18.9,17.5z M18.8,17.8c0.5,0,0.6,0.5,0.6,0.9c0,0.4-0.1,1-0.6,1
		c-0.5,0-0.6-0.6-0.6-1C18.3,18.4,18.3,17.8,18.8,17.8L18.8,17.8z M16.2,17.2C16.2,17.2,16.2,17.2,16.2,17.2c0,0.2,0,0.3,0,0.4
		c0,0,0,0,0,0c-0.1,0-0.2,0-0.3,0c0,0,0,0,0,0l-0.1,0.3c0,0,0,0.1,0,0c0.1,0,0.2,0,0.3,0c0,0,0,0,0,0l0,1.3c0,0.6,0.3,0.8,0.7,0.7
		c0.2,0,0.4,0,0.6-0.1c0,0,0,0,0,0l0.1-0.3c0-0.1,0-0.1-0.1-0.1c-0.1,0-0.2,0.1-0.3,0.1c-0.3,0-0.4-0.2-0.4-0.5v-0.8
		c0-0.1,0-0.3,0-0.3c0,0,0,0,0,0c0.2,0,0.4,0,0.6,0c0,0,0,0,0,0l0.1-0.3c0,0,0-0.1-0.1-0.1c-0.1,0-0.2,0-0.2,0l-0.4,0c0,0,0,0,0,0
		c0-0.2,0-0.4,0-0.6c0-0.1,0-0.1-0.1,0C16.6,17,16.4,17.1,16.2,17.2L16.2,17.2z M14.1,17.6C14,17.6,14,17.6,14.1,17.6
		c0,0.2,0.1,0.5,0.1,0.8l0,0.8c0,0.2,0,0.5-0.1,0.7c0,0,0,0,0,0c0.2,0,0.5,0,0.7,0c0,0,0,0,0,0c-0.1-0.2-0.1-0.5-0.1-0.7l0-0.5
		c0-0.4,0.2-0.6,0.4-0.6c0.1,0,0.2,0.1,0.2,0.1c0,0,0.1,0,0.1,0l0.2-0.7c0,0,0,0,0,0c0,0-0.1,0-0.2,0c-0.3,0-0.5,0.3-0.7,0.6
		c0-0.2,0-0.4,0-0.5c0,0,0,0,0,0C14.5,17.6,14.3,17.6,14.1,17.6L14.1,17.6z M12.4,18.7C12.4,18.7,12.4,18.7,12.4,18.7
		c0,0.5,0.3,0.9,0.8,0.9c0.2,0,0.3,0,0.5-0.2c0,0,0.1,0,0.1,0.1l-0.1,0.4c0,0,0,0,0,0c-0.2,0.1-0.5,0.1-0.7,0.1
		c-0.7,0-1.2-0.5-1.2-1.3c0-0.8,0.5-1.2,1.2-1.2c0.5,0,0.9,0.2,0.9,0.9c0,0.1,0,0.2,0,0.2c0,0,0,0,0,0L12.4,18.7L12.4,18.7z
		 M12.4,18.4c0-0.3,0.1-0.6,0.4-0.6c0.2,0,0.4,0.2,0.4,0.4C13.2,18.5,12.9,18.4,12.4,18.4L12.4,18.4z M9.5,17.6
		C9.4,17.6,9.4,17.6,9.5,17.6c0.1,0.2,0.2,0.4,0.3,0.6c0.2,0.5,0.3,0.9,0.5,1.4c0,0.1,0.1,0.3,0.1,0.4c0,0,0,0,0,0
		c0.2,0,0.4,0,0.5,0c0,0,0,0,0,0c0-0.1,0.1-0.3,0.1-0.4l0.6-1.3c0.1-0.2,0.2-0.4,0.3-0.6c0,0,0-0.1,0-0.1c-0.2,0-0.4,0-0.6,0
		c0,0,0,0,0,0c0,0.3-0.1,0.5-0.1,0.7l-0.4,1l-0.4-1.2c0-0.2-0.1-0.3-0.1-0.5c0,0,0,0,0,0C10,17.6,9.7,17.6,9.5,17.6L9.5,17.6z"/>
	<path class="st106" d="M12.8,21.4C12.8,21.4,12.8,21.4,12.8,21.4c0,0.1,0,0.1-0.1,0.2c0,0,0,0,0,0c0.1,0,0.3-0.1,0.3-0.1
		c0.1,0,0.1,0,0.1,0.2l0,1c0,0.1,0,0.3,0,0.4c0,0,0,0,0,0c0.1,0,0.2,0,0.3,0c0,0,0,0,0,0c0-0.1,0-0.2,0-0.4l0-1c0-0.1,0-0.3,0-0.4
		c0,0,0,0,0,0C13.2,21.4,12.9,21.4,12.8,21.4L12.8,21.4z M16.2,21.7c0-0.2,0.2-0.4,0.5-0.4c0.3,0,0.5,0.2,0.5,0.4
		c0,0.2-0.2,0.4-0.3,0.4c0.2,0.1,0.4,0.3,0.4,0.5c0,0.3-0.2,0.5-0.6,0.5c-0.3,0-0.5-0.2-0.5-0.5c0-0.2,0.2-0.4,0.4-0.5
		C16.4,22.1,16.2,22,16.2,21.7L16.2,21.7z M16.7,22.2c0.2,0.1,0.4,0.2,0.4,0.4c0,0.2-0.2,0.3-0.4,0.3c-0.1,0-0.4-0.1-0.3-0.4
		C16.4,22.4,16.6,22.3,16.7,22.2L16.7,22.2z M16.8,22c0.2-0.1,0.3-0.2,0.3-0.3c0-0.2-0.1-0.3-0.3-0.3c-0.1,0-0.3,0.1-0.3,0.3
		C16.5,21.9,16.6,22,16.8,22L16.8,22z M13.7,21.7c0-0.2,0.2-0.4,0.5-0.4c0.3,0,0.5,0.2,0.5,0.4c0,0.2-0.2,0.4-0.3,0.4
		c0.2,0.1,0.4,0.3,0.4,0.5c0,0.3-0.2,0.5-0.6,0.5c-0.3,0-0.5-0.2-0.5-0.5c0-0.2,0.2-0.4,0.4-0.5C13.9,22.1,13.7,22,13.7,21.7
		L13.7,21.7z M14.2,22.2c0.2,0.1,0.4,0.2,0.4,0.4c0,0.2-0.2,0.3-0.4,0.3c-0.1,0-0.4-0.1-0.3-0.4C13.9,22.4,14.1,22.3,14.2,22.2
		L14.2,22.2z M14.3,22c0.2-0.1,0.3-0.2,0.3-0.3c0-0.2-0.1-0.3-0.3-0.3c-0.1,0-0.3,0.1-0.3,0.3C14,21.9,14.1,22,14.3,22L14.3,22z
		 M15,21.4C15,21.4,15,21.4,15,21.4c0,0.1,0,0.2-0.1,0.3c0,0,0,0,0,0l0,0c0,0,0,0,0,0c0.1-0.1,0.2-0.1,0.3-0.1l0.6,0L15,23.1
		c0,0,0,0,0,0l0,0c0,0,0,0,0,0c0.1,0,0.2,0,0.3,0c0,0,0,0,0,0c0-0.4,0.6-1.4,0.8-1.6c0,0,0,0,0,0c0,0,0-0.1,0-0.1c0,0,0,0,0,0
		C15.7,21.4,15.4,21.4,15,21.4C15.1,21.4,15,21.4,15,21.4L15,21.4z"/>
	<path class="st106" d="M2.7,21.6l1.2-0.7l-0.1-0.2L3,21.1l0.5-0.9l-0.2-0.3l-1.2,0.7l0.1,0.2l0.9-0.6l-0.6,1.1L2.7,21.6L2.7,21.6z
		 M3.5,22.7l0.2-0.1l-0.1-0.2l0.8-0.6L4.5,22l0.2-0.1l-0.4-0.6L4,21.4l0.1,0.2l-0.8,0.6L3.2,22l-0.2,0.1L3.5,22.7L3.5,22.7z
		 M4.5,23.8l0.2-0.2l-0.4-0.5l0.9-0.8l-0.2-0.2l-1,0.9L4.5,23.8L4.5,23.8z M6.8,24.4L7,24.2c0-0.1-0.1-0.1-0.1-0.2
		c-0.1-0.1-0.1-0.1-0.2-0.2c-0.1-0.1-0.2-0.2-0.4-0.2c-0.1,0-0.2,0-0.3,0.1C5.9,23.9,5.9,24,5.8,24c0,0.1,0,0.2,0.1,0.3
		c0,0,0.1,0.1,0.1,0.1c0,0,0.1,0.1,0.1,0.1c0,0,0,0.1,0.1,0.1c0,0,0,0.1,0,0.1c0,0-0.1,0-0.1,0.1c0,0-0.1,0-0.1,0c0,0-0.1,0-0.1,0
		c0,0,0,0-0.1-0.1c-0.1-0.1-0.1-0.1-0.2-0.2c0-0.1-0.1-0.2-0.1-0.3l-0.2,0.2c0,0.1,0.1,0.1,0.1,0.2c0.1,0.1,0.1,0.1,0.2,0.2
		c0.1,0.1,0.3,0.2,0.4,0.2c0.1,0,0.2,0,0.3-0.2c0.1-0.1,0.1-0.1,0.1-0.2c0-0.1,0-0.2-0.1-0.2c0,0-0.1-0.1-0.1-0.1
		c0,0-0.1-0.1-0.1-0.1c0,0-0.1-0.1-0.1-0.2c0,0,0-0.1,0-0.1c0,0,0,0,0.1,0c0,0,0.1,0,0.1,0c0,0,0.1,0,0.1,0c0,0,0.1,0,0.1,0.1
		c0.1,0.1,0.1,0.1,0.2,0.2C6.7,24.3,6.8,24.4,6.8,24.4L6.8,24.4z M7.6,26.2l0.3-1.4l-0.3-0.2l-1.2,0.9l0.2,0.2L7,25.5l0.5,0.3
		L7.3,26L7.6,26.2L7.6,26.2z M7.5,25.5l-0.3-0.2l0.5-0.4L7.5,25.5L7.5,25.5z M9.4,25.8l0.1-0.2l-1-0.5l-0.1,0.2l0.4,0.2l-0.5,1.1
		l0.3,0.1l0.5-1.1L9.4,25.8L9.4,25.8z M10,27.3l0.1-0.2L9.9,27l0.4-0.9l0.2,0.1l0.1-0.2l-0.7-0.3l-0.1,0.2L10,26l-0.4,0.9l-0.2-0.1
		L9.4,27L10,27.3L10,27.3z M11.8,26.7l0.1-0.3c-0.1,0-0.1-0.1-0.2-0.1c-0.1,0-0.2-0.1-0.2-0.1c-0.1,0-0.3,0-0.4,0
		c-0.1,0-0.2,0.1-0.2,0.3c0,0.1,0,0.2,0,0.2c0,0.1,0.1,0.2,0.2,0.2c0,0,0.1,0.1,0.1,0.1c0,0,0.1,0.1,0.1,0.1c0,0,0.1,0.1,0.1,0.1
		c0,0,0,0.1,0,0.1c0,0,0,0.1-0.1,0.1c0,0-0.1,0-0.1,0c0,0-0.1,0-0.1,0c0,0-0.1,0-0.1,0c-0.1,0-0.2-0.1-0.2-0.1
		c-0.1-0.1-0.1-0.1-0.2-0.2l-0.1,0.3c0.1,0,0.1,0.1,0.2,0.1c0.1,0,0.2,0.1,0.3,0.1c0.1,0,0.3,0.1,0.5,0c0.1-0.1,0.2-0.1,0.2-0.3
		c0-0.1,0-0.2,0-0.2c0-0.1-0.1-0.1-0.2-0.2c0,0-0.1-0.1-0.1-0.1c0,0-0.1,0-0.1-0.1c0,0-0.1-0.1-0.1-0.1c0,0,0-0.1,0-0.1
		c0,0,0-0.1,0.1-0.1c0,0,0.1,0,0.1,0c0,0,0.1,0,0.1,0c0,0,0.1,0,0.1,0c0.1,0,0.2,0.1,0.2,0.1C11.7,26.6,11.8,26.6,11.8,26.7
		L11.8,26.7z M14,28.1l0.2-1.4l-0.3,0l-0.1,0.9l-0.4-1L13,26.6l-0.2,1.4l0.3,0l0.2-1.1l0.5,1.2L14,28.1L14,28.1z M15.3,28.2l0-0.2
		l-0.2,0l0-1l0.2,0l0-0.2l-0.7,0l0,0.2l0.2,0l0,1l-0.2,0l0,0.2L15.3,28.2L15.3,28.2z M16.7,26.9l0-0.3c-0.1,0-0.1,0-0.2,0
		c-0.1,0-0.2,0-0.3,0c-0.1,0-0.3,0.1-0.4,0.2c-0.1,0.1-0.1,0.2-0.1,0.3c0,0.1,0,0.2,0.1,0.2c0.1,0.1,0.2,0.1,0.2,0.1
		c0.1,0,0.1,0,0.2,0c0.1,0,0.1,0,0.2,0c0,0,0.1,0,0.1,0c0,0,0.1,0.1,0.1,0.1c0,0,0,0.1,0,0.1c0,0,0,0-0.1,0.1c0,0-0.1,0-0.1,0
		c0,0-0.1,0-0.1,0c-0.1,0-0.2,0-0.3,0c-0.1,0-0.2-0.1-0.3-0.1l0,0.3c0.1,0,0.1,0,0.2,0c0.1,0,0.2,0,0.3,0c0.2,0,0.3-0.1,0.4-0.2
		c0.1-0.1,0.1-0.2,0.1-0.3c0-0.1,0-0.2-0.1-0.2c-0.1-0.1-0.1-0.1-0.2-0.1c0,0-0.1,0-0.1,0c0,0-0.1,0-0.1,0c-0.1,0-0.1,0-0.2,0
		c0,0-0.1-0.1-0.1-0.1c0,0,0-0.1,0-0.1c0,0,0,0,0.1-0.1c0,0,0.1,0,0.1,0c0,0,0.1,0,0.1,0c0.1,0,0.2,0,0.3,0
		C16.6,26.9,16.7,26.9,16.7,26.9L16.7,26.9z M18.1,27.8l0-0.2l-0.2,0l-0.2-1l0.2,0l0-0.2l-0.7,0.1l0,0.2l0.2,0l0.2,1l-0.2,0l0,0.2
		L18.1,27.8L18.1,27.8z M20.3,26.4c-0.1-0.2-0.2-0.4-0.3-0.5c-0.2-0.1-0.3-0.1-0.5,0c-0.2,0.1-0.3,0.2-0.4,0.3
		c-0.1,0.2-0.1,0.4,0,0.6c0.1,0.2,0.2,0.4,0.3,0.4c0.2,0.1,0.3,0.1,0.5,0c0.2-0.1,0.3-0.2,0.4-0.3C20.3,26.8,20.3,26.6,20.3,26.4
		L20.3,26.4z M20,26.9c0,0,0,0.1-0.1,0.1c0,0-0.1,0.1-0.1,0.1c0,0-0.1,0-0.1,0c-0.1,0-0.1,0-0.1-0.1c0,0-0.1-0.1-0.1-0.1
		c0-0.1-0.1-0.1-0.1-0.2c0-0.1,0-0.2,0-0.2c0-0.1,0-0.1,0-0.2c0,0,0-0.1,0.1-0.1c0,0,0.1-0.1,0.1-0.1c0,0,0.1,0,0.1,0
		c0.1,0,0.1,0,0.1,0.1c0,0,0.1,0.1,0.1,0.1c0,0.1,0.1,0.1,0.1,0.2c0,0.1,0,0.1,0,0.2C20,26.8,20,26.9,20,26.9L20,26.9z M20.4,25.6
		l0.6,1.3l0.3-0.1l-0.2-0.4l0.2-0.1c0.1,0,0.1-0.1,0.2-0.1c0-0.1,0.1-0.1,0.1-0.2c0-0.1,0-0.1,0-0.2c0-0.1,0-0.1-0.1-0.2
		c0-0.1-0.1-0.1-0.1-0.2c0,0-0.1-0.1-0.2-0.1c-0.1,0-0.1,0-0.2,0c-0.1,0-0.1,0-0.2,0.1L20.4,25.6L20.4,25.6z M21.3,25.7
		c0,0,0,0.1,0,0.1c0,0,0,0.1,0,0.1c0,0,0,0.1-0.1,0.1c0,0-0.1,0.1-0.1,0.1L21,26.1l-0.2-0.4l0.1,0c0,0,0.1,0,0.1-0.1
		c0,0,0.1,0,0.1,0C21.1,25.6,21.2,25.6,21.3,25.7C21.2,25.6,21.3,25.6,21.3,25.7L21.3,25.7z M22.7,24.6l-0.1-0.2l-1,0.6l0.1,0.2
		l0.4-0.2l0.6,1l0.2-0.2l-0.6-1L22.7,24.6L22.7,24.6z M24.3,24.9l-0.1-0.2L24,24.9l-0.6-0.8l0.2-0.1l-0.1-0.2l-0.6,0.4l0.1,0.2
		l0.2-0.1l0.6,0.8l-0.2,0.1l0.1,0.2L24.3,24.9L24.3,24.9z M25.7,23.6l-1-1l-0.3,0.2l0.3,0.8L24,23.3l-0.3,0.2l1,1l0.2-0.2l-0.8-0.8
		l0.7,0.3l0.1-0.1L24.7,23l0.8,0.8L25.7,23.6L25.7,23.6z M25.7,21.4l-0.2,0.2l0.7,0.5c0.1,0.1,0.1,0.1,0.2,0.2c0,0.1,0,0.2-0.1,0.2
		c0,0.1-0.1,0.1-0.2,0.1c-0.1,0-0.2,0-0.2-0.1l-0.7-0.5L25,22.3l0.7,0.6c0.1,0.1,0.3,0.2,0.4,0.1c0.2,0,0.3-0.1,0.4-0.3
		c0.1-0.1,0.2-0.3,0.2-0.4c0-0.1-0.1-0.3-0.2-0.4L25.7,21.4L25.7,21.4z M27.9,20.6l-1.2-0.7l-0.2,0.3l0.5,0.7l-0.8-0.1L26,21
		l1.2,0.7l0.1-0.2L26.4,21l0.8,0.1l0.1-0.2l-0.5-0.6l0.9,0.6L27.9,20.6L27.9,20.6z"/>
</g>
</svg>
