<?xml version="1.0" encoding="utf-8"?>
<!-- Generator: Adobe Illustrator 19.2.1, SVG Export Plug-In . SVG Version: 6.00 Build 0)  -->
<svg version="1.1" id="Layer_1" xmlns="http://www.w3.org/2000/svg" xmlns:xlink="http://www.w3.org/1999/xlink" x="0px" y="0px"
	 viewBox="0 0 34 40" style="enable-background:new 0 0 34 40;" xml:space="preserve">
<style type="text/css">
	.st0{fill:#C8E5C9;}
	.st1{fill:#FFFFFF;}
	.st2{fill:none;stroke:#FFFFFF;stroke-miterlimit:10;}
	.st3{fill:#BA8B2D;}
	.st4{fill:#263C83;}
	.st5{fill:#2B2F36;}
	.st6{fill:#9E8644;}
	.st7{fill:#A29165;}
	.st8{fill:#A48C4C;}
	.st9{fill:#FFFFFA;}
	.st10{fill:#A28C51;}
	.st11{fill:#A48C49;}
	.st12{fill:#FFFFFD;}
	.st13{fill:#25397A;}
	.st14{fill:#374041;}
	.st15{fill:#424740;}
	.st16{fill:#E1C177;}
	.st17{fill:#A48C4D;}
	.st18{fill:#323C41;}
	.st19{fill:#2B3B48;}
	.st20{fill:#B98A2D;}
	.st21{fill:#2A3843;}
	.st22{fill:#1D2F44;}
	.st23{fill:#B29349;}
	.st24{fill:#524E35;}
	.st25{fill:#596EB2;}
	.st26{fill:#586EB2;}
	.st27{fill:#D3D3D6;}
	.st28{fill:#596DB3;}
	.st29{fill:#D2D3D9;}
	.st30{fill:#CED4E0;}
	.st31{fill:#B5C7E7;}
	.st32{fill:#D3D3D7;}
	.st33{fill:#5A6DB3;}
	.st34{fill:#E81E25;}
	.st35{fill:#536EB5;}
	.st36{fill:#5A6EAF;}
	.st37{fill:#D7D3D5;}
	.st38{fill:#FCF7FA;}
	.st39{fill:#FCF8FB;}
	.st40{fill:#C6363B;}
	.st41{fill:#C63136;}
	.st42{fill:#576DB4;}
	.st43{fill:#D2D3D8;}
	.st44{fill:#D2D3D7;}
	.st45{fill:#ED1C24;}
	.st46{fill:#E21F26;}
	.st47{fill:#DB1F26;}
	.st48{fill:#D3D3D8;}
	.st49{fill:#E01F26;}
	.st50{fill:#E11F26;}
	.st51{fill:#E91D25;}
	.st52{fill:#E31E26;}
	.st53{fill:#E71E25;}
	.st54{fill:#566DB4;}
	.st55{fill:#D1D3D8;}
	.st56{fill:#BC7D80;}
	.st57{fill:#C86D70;}
	.st58{fill:#C3363A;}
	.st59{fill:#566EB0;}
	.st60{fill:#CE3438;}
	.st61{fill:#CC2A30;}
	.st62{fill:#CA2127;}
	.st63{fill:#CED4DF;}
	.st64{fill:#5A6DB2;}
	.st65{fill:#6C81B9;}
	.st66{fill:#FEF3F8;}
	.st67{fill:#FEF2F4;}
	.st68{fill:#263A7D;}
	.st69{fill:#D0D4DE;}
	.st70{fill:#D2D3D6;}
	.st71{fill:#586DB4;}
	.st72{fill:#C8CDE1;}
	.st73{fill:#586EB0;}
	.st74{fill:#338956;}
	.st75{fill:#5B72AE;}
	.st76{fill:#2A3A46;}
	.st77{fill:#FFFEF8;}
	.st78{fill:#A69A77;}
	.st79{fill:#323B38;}
	.st80{fill:#1B3461;}
	.st81{fill:#9B916E;}
	.st82{fill:#3B4342;}
	.st83{fill:#FFFEF5;}
	.st84{fill:#FFFEF6;}
	.st85{fill:#263B7F;}
	.st86{fill:#28334A;}
	.st87{fill:#2F3C42;}
	.st88{fill:#FFFEF7;}
	.st89{fill:#FFFEF4;}
	.st90{fill:#253876;}
	.st91{fill:#374654;}
	.st92{fill:#253C58;}
	.st93{fill:#2A3E55;}
	.st94{fill:#C2B388;}
	.st95{fill:#3E4B53;}
	.st96{fill:#FFFFF9;}
	.st97{fill:#293E58;}
	.st98{fill:#A0936B;}
	.st99{fill:#363A31;}
	.st100{fill:#AB945B;}
	.st101{fill:#464B45;}
	.st102{fill:#3B4544;}
	.st103{fill:#2D3F56;}
	.st104{fill:#2F3D49;}
	.st105{fill:#B0A789;}
	.st106{fill-rule:evenodd;clip-rule:evenodd;fill:#252C6A;}
	.st107{fill-rule:evenodd;clip-rule:evenodd;fill:#FFFFFF;}
	.st108{opacity:0.3;}
	.st109{fill:none;stroke:#FFFFFF;stroke-width:7;stroke-miterlimit:10;}
	.st110{fill:none;stroke:#FFFFFF;stroke-width:8;stroke-miterlimit:10;}
	.st111{opacity:0.89;}
	.st112{display:none;opacity:0.1;fill:#010101;}
	.st113{fill:#EDAC68;}
	.st114{fill:#FDC892;}
	.st115{clip-path:url(#SVGID_2_);}
	.st116{fill:#2E292A;}
	.st117{fill:#262125;}
	.st118{fill:#312C2F;}
	.st119{clip-path:url(#SVGID_4_);}
	.st120{fill:#0F303F;}
	.st121{fill:#2D5972;}
	.st122{fill:none;}
	.st123{opacity:0.5;fill:#B6B7B7;}
	.st124{fill:none;stroke:#F0F0F0;stroke-width:1.0228;stroke-miterlimit:10;}
	.st125{fill:#F0F0F0;}
	.st126{fill:none;stroke:#F0F0F0;stroke-width:2.0113;stroke-miterlimit:10;}
	.st127{fill:none;stroke:#F0F0F0;stroke-miterlimit:10;}
	.st128{fill:#F0F0F0;stroke:#F0F0F0;stroke-width:0.5;stroke-miterlimit:10;}
	.st129{opacity:0.77;}
	.st130{fill:none;stroke:#FFFFFF;stroke-width:4;stroke-linecap:round;stroke-linejoin:round;stroke-miterlimit:10;}
	.st131{fill:none;stroke:#FFFFFF;stroke-width:3.5;stroke-miterlimit:10;}
	.st132{fill:none;stroke:#FFFFFF;stroke-width:4;stroke-miterlimit:10;}
	.st133{fill:none;stroke:#737373;stroke-width:2;stroke-linecap:round;stroke-linejoin:round;stroke-miterlimit:10;}
	.st134{fill:#4655A5;}
	.st135{fill:none;stroke:#C8E5C9;stroke-width:7.7823;stroke-linecap:round;stroke-linejoin:round;stroke-miterlimit:10;}
	.st136{fill:#4DAF4F;}
	.st137{opacity:0.5;fill:none;stroke:#737373;stroke-miterlimit:10;}
	.st138{fill:#3C5A99;}
	.st139{fill:#439CD6;}
	.st140{fill:#E3E4E5;}
	.st141{fill:#F7F9F9;}
	.st142{fill:#EFEFEF;}
	.st143{fill:#223228;}
	.st144{clip-path:url(#SVGID_6_);}
	.st145{fill:#378F43;}
	.st146{clip-path:url(#SVGID_6_);fill:url(#SVGID_7_);}
	.st147{fill:#737373;}
</style>
<g>
	<path class="st147" d="M31.2,14.6l-2.8-2.9l0.6-4c0.1-0.6-0.3-1.2-0.9-1.3l-4-0.7l-1.9-3.6c-0.3-0.5-1-0.8-1.5-0.5L17,3.4l-3.6-1.8
		c-0.6-0.3-1.2-0.1-1.5,0.5L10,5.7L6,6.4C5.4,6.5,4.9,7.1,5,7.7l0.6,4l-2.8,2.9c-0.4,0.4-0.4,1.2,0,1.6l2.8,2.9l-0.6,4
		c-0.1,0.6,0.5,1.2,1.1,1.3l3.3,0.6v12.4c0,0.4,0,0.8,0.4,1c0.2,0.1,0.3,0.2,0.5,0.2c0.2,0,0.3,0,0.5-0.1l6.2-3.1l6.2,3.1
		c0.4,0.2,0.6,0.2,0.9-0.1c0.3-0.2,0.4-0.6,0.4-1V24.9l3.4-0.6c0.6-0.1,1.1-0.7,1-1.3l-0.5-4l2.8-2.9C31.6,15.7,31.7,15,31.2,14.6
		L31.2,14.6z M17.5,33c-0.3-0.2-0.7-0.2-1,0l-5,2.5v-7.6l0.4,0.8c0.3,0.5,1,0.8,1.5,0.5l3.6-1.8l3.6,1.8c0.2,0.1,0.3,0.1,0.5,0.1
		c0.4,0,0.8-0.2,1-0.6l0.4-0.7v7.6L17.5,33z M26.4,17.9c-0.2,0.3-0.4,0.6-0.3,1l0.5,3.5l-3.4,0.6c-0.3,0.1-0.6,0.3-0.8,0.6l-1.6,3.1
		l-3.1-1.5C17.4,25,17.2,25,17,25c-0.2,0-0.3,0-0.5,0.1l-3.1,1.5l-1.6-3.1c-0.2-0.3-0.5-0.5-0.8-0.6l-3.4-0.6L8,18.9
		c0-0.4-0.1-0.7-0.3-1l-2.4-2.5l2.4-2.5c0.2-0.3,0.4-0.6,0.3-1L7.5,8.5l3.4-0.6c0.3-0.1,0.6-0.3,0.8-0.6l1.6-3.1l3.1,1.5
		c0.3,0.2,0.7,0.2,1,0l3.1-1.5l1.6,3.1c0.2,0.3,0.5,0.5,0.8,0.6l3.4,0.6l-0.5,3.5c0,0.4,0.1,0.7,0.3,1l2.4,2.5L26.4,17.9z
		 M26.4,17.9"/>
	<g>
		<path class="st147" d="M17,11c2.4,0,4.3,1.9,4.3,4.3c0,2.4-1.9,4.3-4.3,4.3c-2.4,0-4.3-1.9-4.3-4.3C12.7,13,14.6,11,17,11 M17,9
			c-3.5,0-6.3,2.8-6.3,6.3c0,3.5,2.8,6.3,6.3,6.3c3.5,0,6.3-2.8,6.3-6.3C23.3,11.9,20.5,9,17,9L17,9z"/>
	</g>
</g>
</svg>
