<?xml version="1.0" encoding="utf-8"?>
<!-- Generator: Adobe Illustrator 17.0.0, SVG Export Plug-In . SVG Version: 6.00 Build 0)  -->
<!DOCTYPE svg PUBLIC "-//W3C//DTD SVG 1.1 Basic//EN" "http://www.w3.org/Graphics/SVG/1.1/DTD/svg11-basic.dtd">
<svg version="1.1" baseProfile="basic" id="Layer_1"
	 xmlns="http://www.w3.org/2000/svg" xmlns:xlink="http://www.w3.org/1999/xlink" x="0px" y="0px" width="150px" height="100px"
	 viewBox="0 0 150 100" xml:space="preserve">
<style type="text/css">
	.st0{fill:#338956;}
	.st1{fill:none;stroke:#338956;stroke-width:2;stroke-miterlimit:10;}
	.st2{opacity:0.5;fill:#FFFFFF;}
	.st3{fill:#BA8B2D;}
	.st4{fill:#263C83;}
	.st5{fill:#2B2F36;}
	.st6{fill:#9E8644;}
	.st7{fill:#A29165;}
	.st8{fill:#A48C4C;}
	.st9{fill:#FFFFFA;}
	.st10{fill:#A28C51;}
	.st11{fill:#A48C49;}
	.st12{fill:#FFFFFD;}
	.st13{fill:#25397A;}
	.st14{fill:#374041;}
	.st15{fill:#424740;}
	.st16{fill:#E1C177;}
	.st17{fill:#A48C4D;}
	.st18{fill:#323C41;}
	.st19{fill:#2B3B48;}
	.st20{fill:#B98A2D;}
	.st21{fill:#2A3843;}
	.st22{fill:#1D2F44;}
	.st23{fill:#B29349;}
	.st24{fill:#524E35;}
	.st25{fill:#596EB2;}
	.st26{fill:#586EB2;}
	.st27{fill:#D3D3D6;}
	.st28{fill:#596DB3;}
	.st29{fill:#D2D3D9;}
	.st30{fill:#CED4E0;}
	.st31{fill:#B5C7E7;}
	.st32{fill:#D3D3D7;}
	.st33{fill:#5A6DB3;}
	.st34{fill:#E81E25;}
	.st35{fill:#536EB5;}
	.st36{fill:#5A6EAF;}
	.st37{fill:#D7D3D5;}
	.st38{fill:#FCF7FA;}
	.st39{fill:#FCF8FB;}
	.st40{fill:#C6363B;}
	.st41{fill:#C63136;}
	.st42{fill:#576DB4;}
	.st43{fill:#D2D3D8;}
	.st44{fill:#D2D3D7;}
	.st45{fill:#ED1C24;}
	.st46{fill:#E21F26;}
	.st47{fill:#DB1F26;}
	.st48{fill:#D3D3D8;}
	.st49{fill:#E01F26;}
	.st50{fill:#E11F26;}
	.st51{fill:#E91D25;}
	.st52{fill:#E31E26;}
	.st53{fill:#E71E25;}
	.st54{fill:#566DB4;}
	.st55{fill:#D1D3D8;}
	.st56{fill:#BC7D80;}
	.st57{fill:#C86D70;}
	.st58{fill:#C3363A;}
	.st59{fill:#566EB0;}
	.st60{fill:#CE3438;}
	.st61{fill:#CC2A30;}
	.st62{fill:#CA2127;}
	.st63{fill:#CED4DF;}
	.st64{fill:#5A6DB2;}
	.st65{fill:#6C81B9;}
	.st66{fill:#FEF3F8;}
	.st67{fill:#FEF2F4;}
	.st68{fill:#263A7D;}
	.st69{fill:#D0D4DE;}
	.st70{fill:#D2D3D6;}
	.st71{fill:#586DB4;}
	.st72{fill:#C8CDE1;}
	.st73{fill:#586EB0;}
	.st74{fill:#5B72AE;}
	.st75{fill:#2A3A46;}
	.st76{fill:#FFFEF8;}
	.st77{fill:#A69A77;}
	.st78{fill:#323B38;}
	.st79{fill:#1B3461;}
	.st80{fill:#9B916E;}
	.st81{fill:#3B4342;}
	.st82{fill:#FFFEF5;}
	.st83{fill:#FFFEF6;}
	.st84{fill:#263B7F;}
	.st85{fill:#28334A;}
	.st86{fill:#2F3C42;}
	.st87{fill:#FFFEF7;}
	.st88{fill:#FFFEF4;}
	.st89{fill:#253876;}
	.st90{fill:#374654;}
	.st91{fill:#253C58;}
	.st92{fill:#2A3E55;}
	.st93{fill:#C2B388;}
	.st94{fill:#3E4B53;}
	.st95{fill:#FFFFF9;}
	.st96{fill:#293E58;}
	.st97{fill:#A0936B;}
	.st98{fill:#363A31;}
	.st99{fill:#AB945B;}
	.st100{fill:#464B45;}
	.st101{fill:#3B4544;}
	.st102{fill:#2D3F56;}
	.st103{fill:#2F3D49;}
	.st104{fill:#B0A789;}
	.st105{fill-rule:evenodd;clip-rule:evenodd;fill:#252C6A;}
	.st106{fill-rule:evenodd;clip-rule:evenodd;fill:#FFFFFF;}
	.st107{opacity:0.3;}
	.st108{fill:none;stroke:#FFFFFF;stroke-width:7;stroke-miterlimit:10;}
	.st109{fill:none;stroke:#FFFFFF;stroke-width:8;stroke-miterlimit:10;}
	.st110{fill:#FFFFFF;}
	.st111{fill:none;}
	.st112{opacity:0.89;}
	.st113{display:none;opacity:0.1;fill:#010101;}
	.st114{fill:#EDAC68;}
	.st115{fill:#FDC892;}
	.st116{fill:#2E292A;}
	.st117{fill:#262125;}
	.st118{fill:#312C2F;}
	.st119{fill:#0F303F;}
	.st120{fill:#2D5972;}
</style>
<g class="st107">
	<line class="st109" x1="-1149.3" y1="60.4" x2="36.2" y2="652.3"/>
</g>
<g class="st112">
	<path class="st113" d="M282.5,27.1l-15.3-55.6L130.8,9.1v0l-5.5,1.5l0.5,1.8l-13.6,3.7l0.7,2.5l-9.1-1c-1.3-0.1-2.6,0-3.8,0.2
		c-1-0.5-2-0.8-3-1.1l0,0l-0.2-0.1l0-0.1l-7.9-2.6l-8.9-3l0,0.1l-8.6-2.8l0,0.1l-38,4L19.8,8.9l0.5-1.8l-5.5-1.5v0l-136.7-36.9
		l-15,55.7L-0.3,61.3l0,0l5.5,1.5l0,0h0l0.6-2l13.6,3.7l0.2-0.6l10.1-0.9l3.3,2.8c-0.4,2,0.1,4.1,1.4,5.8c1.9,2.4,5.1,3.1,7.9,2.1
		l1.5,1.3c-0.6,2.1-0.2,4.5,1.3,6.3c2.1,2.6,5.7,3.3,8.6,1.8l1.1,1c-0.9,2.3-0.6,5,1.1,7c2.3,2.8,6.2,3.3,9.1,1.5l0.9,0.7
		c-1.3,2.4-1.1,5.5,0.7,7.7c2.4,3,6.8,3.4,9.8,1.1c3,2.3,7.3,1.9,9.7-1c2-2.4,2.1-5.6,0.6-8.1c0.5-0.2,1-0.3,1.5-0.5
		c2.9,1.5,6.5,0.8,8.6-1.8c1.3-1.6,1.8-3.6,1.5-5.5l3-2.4c2.2,0.1,4.4-0.8,5.8-2.6c0.8-1,1.3-2.2,1.5-3.4l11.9-9.7
		c1.1-0.9,2.1-1.9,2.9-3l1.9,0.4l1,3.7l7.3-2h0l6.3-1.7l0.6,2h0l5.5-1.5v0L282.5,27.1z"/>
	<g>
		<g>
			<path class="st114" d="M82.4,14.5c7.1-5.8,17.6-4.7,23.4,2.4l17.1,21c5.8,7.1,4.8,17.6-2.4,23.4l-28.1,23
				c-7.1,5.8-17.6,4.8-23.4-2.4L52,60.9c-5.8-7.1-4.8-17.6,2.4-23.4L82.4,14.5z"/>
		</g>
		<g>
			<path class="st114" d="M133.7,60.2l-34.1-6.8c-6.3-0.6-10.9-6.3-10.3-12.6l1.9-18.6c0.6-6.3,6.3-10.9,12.6-10.3l39.3,5.6
				L133.7,60.2z"/>
		</g>
	</g>
	<g>
		<g>
			<g>
				<path class="st115" d="M64.5,9.6c-7.1-5.8-17.6-4.7-23.4,2.4L24.8,32.4C19,39.5,20.1,50,27.3,55.8l23.5,19.9
					c7.1,5.8,17.6,4.7,23.4-2.4L90.5,53c5.8-7.1,4.7-17.6-2.4-23.4L64.5,9.6z"/>
			</g>
			<g>
				<path class="st115" d="M96.9,85.4c-2.4,3-6.9,3.5-9.9,1L47,53.9c-3-2.4-3.5-6.8-1-9.8l0,0c2.4-3,6.9-3.5,9.9-1l40,32.5
					C98.9,78,99.3,82.4,96.9,85.4L96.9,85.4z"/>
			</g>
			<g>
				<path class="st115" d="M86.2,95.9c-2.5,3-6.9,3.4-9.9,0.9L36.8,63.7c-3-2.5-3.4-6.9-0.9-9.9l0,0c2.5-3,6.9-3.4,9.9-0.9
					l39.6,33.1C88.3,88.5,88.7,93,86.2,95.9L86.2,95.9z"/>
			</g>
			<g>
				<path class="st115" d="M107.2,74.9c-2.4,3-6.8,3.5-9.8,1l-40-32.5c-3-2.4-3.5-6.9-1-9.9l0,0c2.4-3,6.8-3.5,9.9-1l40,32.5
					C109.2,67.5,109.6,71.9,107.2,74.9L107.2,74.9z"/>
			</g>
			<g>
				<path class="st115" d="M117.2,64.1c-2.4,3-6.8,3.5-9.8,1l-40-32.5c-3-2.4-3.5-6.8-1-9.8l0,0c2.4-3,6.8-3.5,9.8-1l40,32.5
					C119.2,56.6,119.7,61.1,117.2,64.1L117.2,64.1z"/>
			</g>
			<g>
				<path class="st115" d="M19.4,58.7l35.8-3.1c6.8-0.7,11.7-6.8,11-13.6l-2.1-19.9c-0.7-6.8-6.8-11.7-13.6-11l-35.8,3.1L19.4,58.7z
					"/>
			</g>
		</g>
		<g>
			<g>
				<path class="st115" d="M80,6.1l1.4,19.3C82,32,87.8,37,94.5,36.4l4-0.4c0.2,0,0.3-0.1,0.5-0.1l-2.2-24.2L80,6.1z"/>
			</g>
			<g>
				<polygon class="st115" points="90.5,24.7 67.8,19.7 71.4,3.4 96.8,11.6 				"/>
			</g>
			<g>
				<path class="st115" d="M15.4,9.3l56.2-5.9c0.4,1.3,0.7,2.7,0.9,4.1c1.4,13.7-12.1,26.4-30.2,28.3c-9.4,1-18.2-1.2-24.7-5.4
					L15.4,9.3z"/>
			</g>
		</g>
	</g>
	<g>
		
			<rect x="-7.2" y="24.5" transform="matrix(-0.2607 0.9654 -0.9654 -0.2607 55.1284 20.8068)" class="st110" width="53.7" height="14.1"/>
		<path class="st116" d="M13.3,0C13.3,0,13.3,0,13.3,0l1.4,0.5l0,0l5.5,1.5l-0.5,1.8l13.6,3.7l-14,51.8L5.8,55.6l-0.5,1.9l13.6,3.7
			l1.9,0.5l0.5-1.9L35.3,8L35.9,6l-1.9-0.5L13.3,0z"/>
		<polygon class="st117" points="5.8,55.6 19.8,3.8 20.3,1.9 5.2,57.6 5.2,57.6 5.3,57.5 		"/>
		<path class="st117" d="M14.7,0.4L13.2,0C4.9,12.1,0,26.8,0,42.6c0,3.4,0.2,6.7,0.7,9.9L14.7,0.4z"/>
		<path class="st118" d="M20.3,1.9l-5.5-1.5l0,0L0.7,52.5c0.2,1.4,0.4,2.7,0.6,4.1l3.9,1.1l0,0L20.3,1.9z"/>
	</g>
	<g>
		<g>
			<path class="st114" d="M68,9.5L65.5,29c-1,6.8-7.3,11.5-14,10.5l-4.1-0.6c-0.2,0-0.3-0.1-0.5-0.1l3.6-24.6L68,9.5z"/>
		</g>
		<g>
			<polygon class="st114" points="56.3,27.9 79.7,24.1 77,7.2 50.6,14.1 			"/>
		</g>
		<g>
			<path class="st114" d="M133.7,16.5L76.8,7.3c-0.5,1.3-0.9,2.7-1.1,4.1C73.4,25.3,86.4,39,104.7,41.9c9.6,1.5,18.6-0.1,25.5-4.1
				L133.7,16.5z"/>
		</g>
	</g>
	<path class="st114" d="M66.7,96.9c2.4,3,6.9,3.4,9.9,1l8.3-6.9c3-2.4,3.4-6.9,1-9.9l0,0c-2.4-3-6.9-3.4-9.9-1l-8.3,6.9
		C64.7,89.5,64.3,93.9,66.7,96.9L66.7,96.9z"/>
	<path class="st114" d="M56,87c2.4,3,6.9,3.4,9.9,1l8.3-6.9c3-2.4,3.4-6.9,1-9.9l0,0c-2.4-3-6.9-3.4-9.9-1L57,77.1
		C54,79.6,53.5,84,56,87L56,87z"/>
	<path class="st114" d="M45.1,77.2c2.4,3,6.9,3.4,9.9,1l8.3-6.9c3-2.4,3.4-6.9,1-9.9l0,0c-2.4-3-6.9-3.4-9.9-1l-8.3,6.9
		C43.1,69.8,42.7,74.2,45.1,77.2L45.1,77.2z"/>
	<path class="st114" d="M34.4,67.4c2.4,3,6.9,3.4,9.9,1l8.3-6.9c3-2.4,3.4-6.9,1-9.9l0,0c-2.4-3-6.9-3.4-9.9-1l-8.3,6.9
		C32.4,60,32,64.4,34.4,67.4L34.4,67.4z"/>
	<g>
		
			<rect x="119" y="7.7" transform="matrix(-0.9642 0.265 -0.265 -0.9642 256.7151 34.3525)" class="st110" width="14.1" height="53.7"/>
		<path class="st119" d="M140,58.5l-13.6,3.7l-14.2-51.7l13.6-3.7l-0.5-1.8l5.5-1.5l0,0l7-1.9c0,0,0-0.1-0.1-0.1l-1.4,0.4l-24.7,6.8
			l-1.9,0.5l0.5,1.9l14.2,51.7l0.5,1.9l1.9-0.5l13.6-3.7L140,58.5z"/>
		<path class="st120" d="M150,42.6c0-15.2-4.5-29.3-12.3-41.1l-7,1.9L146.1,59l2.3-0.6C149.4,53.3,150,48,150,42.6z"/>
		<polygon class="st120" points="125.2,4.9 125.7,6.8 140,58.5 140.5,60.4 140.5,60.5 140.5,60.5 		"/>
		<polygon class="st119" points="130.8,3.4 130.8,3.4 125.2,4.9 140.5,60.5 140.5,60.5 146.1,59 146.1,59 		"/>
		
			<rect x="-7.2" y="24.5" transform="matrix(-0.2607 0.9654 -0.9654 -0.2607 55.1284 20.8068)" class="st110" width="53.7" height="14.1"/>
		<path class="st116" d="M13.3,0C13.3,0,13.3,0,13.3,0l1.4,0.5l0,0l5.5,1.5l-0.5,1.8l13.6,3.7l-14,51.8L5.8,55.6l-0.5,1.9l13.6,3.7
			l1.9,0.5l0.5-1.9L35.3,8L35.9,6l-1.9-0.5L13.3,0z"/>
		<polygon class="st117" points="5.8,55.6 19.8,3.8 20.3,1.9 5.2,57.6 5.2,57.6 5.3,57.5 		"/>
		<path class="st117" d="M14.7,0.4L13.2,0C4.9,12.1,0,26.8,0,42.6c0,3.4,0.2,6.7,0.7,9.9L14.7,0.4z"/>
		<path class="st118" d="M20.3,1.9l-5.5-1.5l0,0L0.7,52.5c0.2,1.4,0.4,2.7,0.6,4.1l3.9,1.1l0,0L20.3,1.9z"/>
	</g>
</g>
</svg>
