<?xml version="1.0" encoding="utf-8"?>
<!-- Generator: Adobe Illustrator 17.0.0, SVG Export Plug-In . SVG Version: 6.00 Build 0)  -->
<!DOCTYPE svg PUBLIC "-//W3C//DTD SVG 1.1 Basic//EN" "http://www.w3.org/Graphics/SVG/1.1/DTD/svg11-basic.dtd">
<svg version="1.1" baseProfile="basic" id="Layer_1"
	 xmlns="http://www.w3.org/2000/svg" xmlns:xlink="http://www.w3.org/1999/xlink" x="0px" y="0px" width="36px" height="36px"
	 viewBox="0 0 36 36" xml:space="preserve">
<style type="text/css">
	.st0{fill:#fff;}
	.st1{fill:none;stroke:#fff;stroke-width:2;stroke-miterlimit:10;}
</style>
<g>
	<path class="st1" d="M18,25.737c-9.99,0-9.917-13.5-9.917-24.667h19.833C27.917,12.237,27.932,25.737,18,25.737z"/>
	<line class="st1" x1="18" y1="25.737" x2="18" y2="29.252"/>
	<path class="st0" d="M18,30.945c2.046,0,3.81,1.236,4.582,3h-9.165C14.19,32.181,15.954,30.945,18,30.945 M18,28.945
		c-3.866,0-7,3.134-7,7h14C25,32.079,21.866,28.945,18,28.945L18,28.945z"/>
	<path class="st1" d="M8.083,14.07v-13c0,0-6.583,0.098-6.583,3.182C1.5,8.085,8.083,14.07,8.083,14.07z"/>
	<path class="st1" d="M27.917,14.07v-13c0,0,6.583,0.098,6.583,3.182C34.5,8.085,27.917,14.07,27.917,14.07z"/>
</g>
</svg>
