<svg id="Layer_2" data-name="Layer 2" xmlns="http://www.w3.org/2000/svg" xmlns:xlink="http://www.w3.org/1999/xlink" viewBox="0 0 30 30"><defs><clipPath id="clip-path"><rect x="-33" width="30" height="30" fill="none"/></clipPath></defs><title>slices_fixtures_v03</title><g clip-path="url(#clip-path)"><polygon points="19 0.025 19 30 -43.993 30 -44 0.025 19 0.025 19 0.025" fill="#004990" fill-rule="evenodd"/><path d="M4.141,4.266l1.347-.515L4.7,4.939,5.923,5.652,4.5,5.811,4.7,7.2,3.7,6.167,2.715,7.2l0.2-1.387L1.486,5.652l1.228-.713L1.922,3.751,3.269,4.266,3.7,2.919,4.141,4.266h0Zm0,21.353L5.488,25.1,4.7,26.293l1.228,0.753L4.5,27.164l0.2,1.426L3.7,27.561l-0.99,1.03,0.2-1.426-1.426-.119,1.228-.753L1.922,25.1l1.347,0.515L3.7,24.272l0.436,1.347h0ZM11.272,10.8l1.347-.515-0.792,1.188,1.228,0.713-1.426.158,0.2,1.387-0.99-1.03-0.99,1.03,0.2-1.387-1.426-.158,1.228-.713L9.053,10.288,10.4,10.8l0.436-1.347L11.272,10.8h0ZM-3.862,12.942l1.347-.515-0.792,1.188,1.228,0.753-1.426.119,0.2,1.387-0.99-1.03-0.99,1.03,0.2-1.387-1.426-.119,1.228-.753L-6.08,12.427l1.347,0.515L-4.3,11.595l0.436,1.347h0ZM6.914,15.794l-0.317.99H5.567L6.4,17.379l-0.317.951,0.832-.594L7.746,18.33l-0.317-.951,0.832-.594H7.231l-0.317-.99h0Z" fill="#fff" fill-rule="evenodd"/></g><rect width="30" height="30" fill="#ed2224"/><path id="path1339" d="M12.016,30H30V0H12.016V30Z" fill="#ed2224"/><path id="path1341" d="M0,30H12.016V0H0V30Z" fill="#166734"/><path id="path1343" d="M17.946,19.862c-2.29-.069-12.79-6.623-12.862-7.667l0.58-.967c1.042,1.513,11.776,7.887,12.83,7.662l-0.548.972" fill="#f6eb16"/><path id="path1345" d="M5.542,11.1c-0.205.553,2.74,2.374,6.284,4.529s6.6,3.487,6.826,3.3a2.006,2.006,0,0,0,.1-0.191,0.267,0.267,0,0,1-.307.038,35.62,35.62,0,0,1-6.547-3.3c-3.092-1.875-5.783-3.6-6.2-4.338a0.444,0.444,0,0,1-.046-0.216H5.643l-0.089.155L5.542,11.1h0ZM18,19.891a0.217,0.217,0,0,1-.249.058c-0.856-.095-3.455-1.359-6.531-3.2-3.579-2.142-6.534-4.094-6.213-4.6L5.1,11.991,5.112,12c-0.288.864,5.832,4.364,6.193,4.587,3.542,2.194,6.527,3.475,6.791,3.142l-0.1.165" fill="#f6eb16"/><path id="path1347" d="M5.542,11.1c-0.205.553,2.74,2.374,6.284,4.529s6.6,3.487,6.826,3.3a1.988,1.988,0,0,0,.1-0.191,0.267,0.267,0,0,1-.307.038,35.633,35.633,0,0,1-6.547-3.3c-3.092-1.875-5.783-3.6-6.2-4.338a0.445,0.445,0,0,1-.046-0.216H5.644l-0.089.156L5.542,11.1h0ZM18,19.892a0.217,0.217,0,0,1-.249.058c-0.856-.095-3.455-1.359-6.531-3.2-3.578-2.142-6.534-4.094-6.213-4.6l0.087-.154L5.112,12c-0.288.864,5.832,4.364,6.193,4.587,3.542,2.194,6.527,3.475,6.792,3.142l-0.1.165h0Z" fill="none" stroke="#010101" stroke-linecap="round" stroke-linejoin="round" stroke-width="0.043"/><path id="path1349" d="M12.029,12.827a21.619,21.619,0,0,0,6.748-.962l-0.351-.57c-0.962.532-3.806,0.883-6.416,0.935C8.922,12.2,6.742,11.915,5.65,11.182l-0.331.607a16.676,16.676,0,0,0,6.71,1.039" fill="#f6eb16"/><path id="path1351" d="M18.871,11.878a9.844,9.844,0,0,1-2.681.726,27.72,27.72,0,0,1-4.169.3,29.585,29.585,0,0,1-3.993-.253,11.648,11.648,0,0,1-2.8-.742c0.03-.06.049-0.1,0.078-0.157a12.121,12.121,0,0,0,2.75.729,29.222,29.222,0,0,0,3.962.253,27.82,27.82,0,0,0,4.14-.307,6.732,6.732,0,0,0,2.6-.746l0.113,0.2h0ZM18.563,11.3A8.108,8.108,0,0,1,16,11.99a27.56,27.56,0,0,1-3.962.278,26.677,26.677,0,0,1-3.827-.246,10.555,10.555,0,0,1-2.668-.673q0.044-.077.091-0.153a9.109,9.109,0,0,0,2.594.661,27.415,27.415,0,0,0,3.81.237,27.231,27.231,0,0,0,3.933-.279,6.845,6.845,0,0,0,2.481-.7L18.563,11.3" fill="#f6eb16"/><path id="path1353" d="M18.871,11.878a9.84,9.84,0,0,1-2.681.726,27.716,27.716,0,0,1-4.169.3,29.59,29.59,0,0,1-3.993-.253,11.634,11.634,0,0,1-2.8-.742c0.03-.06.049-0.1,0.078-0.157a12.128,12.128,0,0,0,2.75.729,29.238,29.238,0,0,0,3.962.253,27.833,27.833,0,0,0,4.14-.307,6.73,6.73,0,0,0,2.6-.746l0.113,0.2h0ZM18.563,11.3A8.11,8.11,0,0,1,16,11.99a27.589,27.589,0,0,1-3.961.278,26.693,26.693,0,0,1-3.827-.246,10.555,10.555,0,0,1-2.668-.673c0.03-.051.06-0.1,0.091-0.153a9.111,9.111,0,0,0,2.594.661,27.393,27.393,0,0,0,3.81.237,27.233,27.233,0,0,0,3.933-.28,6.85,6.85,0,0,0,2.481-.7L18.563,11.3h0Z" fill="none" stroke="#010101" stroke-linecap="round" stroke-linejoin="round" stroke-width="0.043"/><path id="path1355" d="M4.5,15.588c1.41,0.758,4.541,1.14,7.5,1.167,2.7,0,6.212-.417,7.526-1.113L19.5,14.883c-0.411.643-4.177,1.259-7.52,1.234s-6.446-.541-7.48-1.21L4.5,15.588" fill="#f6eb16"/><path id="path1357" d="M19.6,15.479V15.66a8.264,8.264,0,0,1-2.989.844,30.842,30.842,0,0,1-4.643.318,29.132,29.132,0,0,1-4.407-.3,10.994,10.994,0,0,1-3.153-.85V15.458a11.228,11.228,0,0,0,3.177.894,28.953,28.953,0,0,0,4.382.3,30.692,30.692,0,0,0,4.618-.316,9.6,9.6,0,0,0,3.014-.858h0Zm0-.644v0.181a8.265,8.265,0,0,1-2.989.844,30.842,30.842,0,0,1-4.643.318,29.131,29.131,0,0,1-4.407-.3,10.987,10.987,0,0,1-3.153-.85V14.814a11.225,11.225,0,0,0,3.177.894,28.962,28.962,0,0,0,4.382.3,30.672,30.672,0,0,0,4.618-.316,9.6,9.6,0,0,0,3.014-.858" fill="#f6eb16"/><path id="path1359" d="M19.6,15.479V15.66a8.26,8.26,0,0,1-2.989.845,30.852,30.852,0,0,1-4.643.318,29.141,29.141,0,0,1-4.407-.3,11,11,0,0,1-3.153-.85V15.458a11.229,11.229,0,0,0,3.177.894,28.987,28.987,0,0,0,4.382.3,30.7,30.7,0,0,0,4.618-.316,9.592,9.592,0,0,0,3.014-.858h0Zm0-.644v0.181a8.264,8.264,0,0,1-2.989.844,30.852,30.852,0,0,1-4.643.318,29.12,29.12,0,0,1-4.407-.3,10.992,10.992,0,0,1-3.153-.85V14.814a11.222,11.222,0,0,0,3.177.894,28.951,28.951,0,0,0,4.382.3,30.67,30.67,0,0,0,4.618-.316,9.6,9.6,0,0,0,3.014-.858h0Z" fill="none" stroke="#010101" stroke-linecap="round" stroke-linejoin="round" stroke-width="0.043"/><path id="path1361" d="M12,19.731A25.838,25.838,0,0,1,5.394,18.7l0.428,0.67a17.743,17.743,0,0,0,6.21,1.013,15.883,15.883,0,0,0,6.134-1l0.439-.694A23.358,23.358,0,0,1,12,19.731" fill="#f6eb16"/><path id="path1363" d="M18.33,19.231c-0.064.1-.13,0.2-0.2,0.29a17.263,17.263,0,0,1-2.319.594,20.99,20.99,0,0,1-3.81.349,18.275,18.275,0,0,1-6.329-1.084l-0.089-.153L5.6,19.2l0.151,0.059A20.361,20.361,0,0,0,12.02,20.3a21.359,21.359,0,0,0,3.736-.345,10.945,10.945,0,0,0,2.522-.693l0.052-.029h0Zm0.38-.627,0,0.006c-0.048.081-.1,0.164-0.149,0.247a16.134,16.134,0,0,1-2.93.651,23.181,23.181,0,0,1-3.6.306,24.674,24.674,0,0,1-6.692-1l-0.085-.162a28.224,28.224,0,0,0,6.777.995,25.089,25.089,0,0,0,3.574-.307,18.483,18.483,0,0,0,2.919-.649l-0.012-.015L18.71,18.6" fill="#f6eb16"/><path id="path1365" d="M18.33,19.231c-0.064.1-.13,0.2-0.2,0.29a17.246,17.246,0,0,1-2.319.595A21.006,21.006,0,0,1,12,20.465a18.275,18.275,0,0,1-6.329-1.084l-0.089-.153L5.6,19.2l0.151,0.059A20.352,20.352,0,0,0,12.02,20.3a21.361,21.361,0,0,0,3.736-.345,10.941,10.941,0,0,0,2.522-.693l0.052-.029h0Zm0.38-.627,0,0.006c-0.048.081-.1,0.164-0.149,0.247a16.137,16.137,0,0,1-2.93.651,23.153,23.153,0,0,1-3.6.306,24.684,24.684,0,0,1-6.692-1l-0.085-.162a28.228,28.228,0,0,0,6.777.995,25.054,25.054,0,0,0,3.574-.307,18.459,18.459,0,0,0,2.919-.648l-0.012-.015L18.71,18.6h0Z" fill="none" stroke="#010101" stroke-linecap="round" stroke-linejoin="round" stroke-width="0.042"/><path id="path3966" d="M18.749,14.99a7.235,7.235,0,0,1-1.96,4.891,7.055,7.055,0,0,1-4.818,2A7.144,7.144,0,0,1,7.249,19.9a7.186,7.186,0,0,1-1.957-4.794,6.784,6.784,0,0,1,2.37-5.061,7.081,7.081,0,0,1,4.557-1.615,6.979,6.979,0,0,1,5.042,2.526,7.044,7.044,0,0,1,1.488,4.032h0Zm-6.76-7.3a7.481,7.481,0,1,1-7.5,7.481,7.528,7.528,0,0,1,7.5-7.481" fill="#f6eb16"/><path id="path1371" d="M12.009,7.662a7.505,7.505,0,1,1-7.5,7.506,7.52,7.52,0,0,1,7.5-7.506h0Zm0,0.165a7.34,7.34,0,1,1-7.34,7.34,7.37,7.37,0,0,1,7.34-7.34h0Z" fill="none" stroke="#010101" stroke-linecap="round" stroke-linejoin="round" stroke-width="0.043"/><path id="path1375" d="M12.015,8.285A6.875,6.875,0,1,1,5.141,15.16a6.9,6.9,0,0,1,6.874-6.875h0Zm0,0.165a6.71,6.71,0,1,1-6.709,6.71A6.737,6.737,0,0,1,12.015,8.45Z" fill="none" stroke="#010101" stroke-linecap="round" stroke-linejoin="round" stroke-width="0.043"/><path id="path1377" d="M12.253,7.544V7.627H11.779V7.547H11.615V22.8h0.163V22.727h0.476V22.8h0.163l0-15.256H12.253Z" fill="#f6eb16"/><path id="path1379" d="M11.79,7.631h0.456" fill="none" stroke="#010101" stroke-linecap="round" stroke-linejoin="round" stroke-width="0.043"/><path id="path1381" d="M11.791,22.712h0.458" fill="none" stroke="#010101" stroke-linecap="round" stroke-linejoin="round" stroke-width="0.043"/><path id="path1385" d="M12.253,7.545h0.164V22.8H12.255V7.545h0Zm-0.638,0H11.78V22.8H11.615V7.545h0Z" fill="none" stroke="#010101" stroke-linecap="round" stroke-linejoin="round" stroke-width="0.043"/><path id="path1387" d="M4.477,14.847c0.941-.866,4.413-1.428,7.494-1.414s6.729,0.647,7.523,1.4L19.5,15.475C18.838,14.85,16,14.1,11.977,14.1s-6.948.758-7.5,1.4V14.847" fill="#f6eb16"/><path id="path1389" d="M4.476,14.877v0.558" fill="none" stroke="#010101" stroke-linecap="round" stroke-linejoin="round" stroke-width="0.043"/><path id="path1391" d="M19.519,14.9v0.558" fill="none" stroke="#010101" stroke-linecap="round" stroke-linejoin="round" stroke-width="0.043"/><path id="path1393" d="M12.012,14a26.034,26.034,0,0,1,4.856.434A5.646,5.646,0,0,1,19.6,15.467v0.2A6.01,6.01,0,0,0,16.836,14.6a25.847,25.847,0,0,0-4.824-.43,26.845,26.845,0,0,0-4.926.44c-1.07.212-2.5,0.634-2.676,1.05v-0.2c0.1-.288,1.161-0.718,2.652-1.017a26.975,26.975,0,0,1,4.95-.439h0Zm0-.644a26.037,26.037,0,0,1,4.856.434,5.646,5.646,0,0,1,2.737,1.029v0.2a6.009,6.009,0,0,0-2.768-1.059,25.846,25.846,0,0,0-4.824-.43,26.75,26.75,0,0,0-4.917.44c-1.033.2-2.519,0.634-2.684,1.05v-0.2c0.1-.285,1.182-0.731,2.652-1.017a26.973,26.973,0,0,1,4.95-.439" fill="#f6eb16"/><path id="path1395" d="M12.012,14a26.021,26.021,0,0,1,4.856.434A5.646,5.646,0,0,1,19.6,15.467v0.2A6.008,6.008,0,0,0,16.836,14.6a25.871,25.871,0,0,0-4.824-.43,26.848,26.848,0,0,0-4.926.44c-1.07.212-2.5,0.634-2.676,1.05v-0.2c0.1-.288,1.161-0.718,2.652-1.017A26.965,26.965,0,0,1,12.012,14h0Zm0-.644a26.036,26.036,0,0,1,4.856.434,5.648,5.648,0,0,1,2.737,1.029v0.2a6.01,6.01,0,0,0-2.768-1.059,25.848,25.848,0,0,0-4.824-.43,26.754,26.754,0,0,0-4.917.44c-1.033.2-2.518,0.634-2.684,1.051v-0.2c0.1-.285,1.182-0.731,2.652-1.017a26.976,26.976,0,0,1,4.95-.439h0Z" fill="none" stroke="#010101" stroke-linecap="round" stroke-linejoin="round" stroke-width="0.043"/><path id="path1397" d="M11.977,10.078a16.145,16.145,0,0,1,6.344.961l0.407,0.7a16.3,16.3,0,0,0-6.746-.984c-2.566.016-5.308,0.283-6.683,1.016l0.485-.812c1.129-.585,3.792-0.883,6.194-0.886" fill="#f6eb16"/><path id="path1399" d="M18.391,11.154L18.668,11.6" fill="none" stroke="#010101" stroke-linecap="round" stroke-linejoin="round" stroke-width="0.044"/><path id="path1401" d="M12.014,10.659a25.331,25.331,0,0,1,4.357.306,7.932,7.932,0,0,1,2.383.7l0.12,0.213a8.731,8.731,0,0,0-2.527-.751,24.442,24.442,0,0,0-4.336-.3,25.133,25.133,0,0,0-4.394.3,7.757,7.757,0,0,0-2.365.737l0.118-.225a7.881,7.881,0,0,1,2.215-.677,25.806,25.806,0,0,1,4.428-.3h0Zm0-.643a24.715,24.715,0,0,1,4.2.292,6.814,6.814,0,0,1,2.176.712l0.176,0.28a5.752,5.752,0,0,0-2.423-.826,26.767,26.767,0,0,0-4.132-.293,25.1,25.1,0,0,0-4.226.311,6.884,6.884,0,0,0-2.1.647l0.155-.234a7.5,7.5,0,0,1,1.918-.579,25.305,25.305,0,0,1,4.253-.31" fill="#f6eb16"/><path id="path1403" d="M12.014,10.659a25.346,25.346,0,0,1,4.356.306,7.942,7.942,0,0,1,2.383.7l0.121,0.213a8.732,8.732,0,0,0-2.527-.751,24.437,24.437,0,0,0-4.336-.3,25.128,25.128,0,0,0-4.394.3,7.753,7.753,0,0,0-2.365.737l0.118-.225a7.882,7.882,0,0,1,2.215-.677,25.808,25.808,0,0,1,4.428-.3h0Zm0-.643a24.739,24.739,0,0,1,4.2.292,6.815,6.815,0,0,1,2.176.712l0.176,0.28a5.756,5.756,0,0,0-2.423-.826,26.772,26.772,0,0,0-4.132-.293,25.136,25.136,0,0,0-4.226.311,6.881,6.881,0,0,0-2.1.647l0.155-.234a7.507,7.507,0,0,1,1.918-.58,25.316,25.316,0,0,1,4.253-.31h0Z" fill="none" stroke="#010101" stroke-linecap="round" stroke-linejoin="round" stroke-width="0.043"/><path id="path1405" d="M15.741,18.287A19.59,19.59,0,0,0,12.011,18c-4.654.054-6.158,0.956-6.342,1.229l-0.348-.567c1.185-.859,3.72-1.341,6.715-1.291a23.675,23.675,0,0,1,4.026.347l-0.321.566" fill="#f6eb16"/><path id="path1407" d="M5.4,18.743l0.228,0.393" fill="none" stroke="#010101" stroke-linecap="round" stroke-linejoin="round" stroke-width="0.043"/><path id="path1409" d="M11.984,17.923a22.556,22.556,0,0,1,3.792.3l-0.089.157a19.794,19.794,0,0,0-3.7-.284,17.89,17.89,0,0,0-4.968.581,2.651,2.651,0,0,0-1.348.693l-0.088-.146a2.355,2.355,0,0,1,1.4-.712,18.013,18.013,0,0,1,5-.591h0Zm0.059-.652a23.245,23.245,0,0,1,4.073.354l-0.093.163a21.239,21.239,0,0,0-3.973-.346,19.059,19.059,0,0,0-5.213.609,2.825,2.825,0,0,0-1.494.762l-0.088-.157a2.761,2.761,0,0,1,1.543-.77,19.146,19.146,0,0,1,5.244-.615" fill="#f6eb16"/><path id="path1411" d="M11.984,17.923a22.557,22.557,0,0,1,3.792.3l-0.089.157a19.782,19.782,0,0,0-3.7-.284,17.884,17.884,0,0,0-4.968.581,2.651,2.651,0,0,0-1.348.693l-0.088-.146a2.355,2.355,0,0,1,1.4-.712,18.01,18.01,0,0,1,5-.591h0Zm0.059-.652a23.245,23.245,0,0,1,4.073.354l-0.093.163a21.247,21.247,0,0,0-3.973-.346,19.065,19.065,0,0,0-5.213.609,2.823,2.823,0,0,0-1.494.762l-0.088-.157a2.761,2.761,0,0,1,1.543-.77,19.146,19.146,0,0,1,5.244-.615h0Z" fill="none" stroke="#010101" stroke-linecap="round" stroke-linejoin="round" stroke-width="0.042"/><path id="path1419" d="M5.717,10.954c2.306-.03,12.954,6.507,12.986,7.711l-0.66,1.011c-0.3-1.4-11.1-7.759-12.885-7.639l0.559-1.083" fill="#f6eb16"/><path id="path1421" d="M18.654,18.751l-0.559.868" fill="none" stroke="#010101" stroke-linecap="round" stroke-linejoin="round" stroke-width="0.043"/><path id="path1423" d="M5.7,11.011l-0.52.964" fill="none" stroke="#010101" stroke-linecap="round" stroke-linejoin="round" stroke-width="0.043"/><path id="path1425" d="M5.092,12c0.428-.29,3.573,1.111,6.864,3.095s6.418,4.239,6.135,4.66L18,19.9l-0.043.034a0.2,0.2,0,0,0,0-.22c-0.14-.46-2.365-2.235-6.056-4.464C8.3,13.1,5.3,11.81,5,12.18L5.092,12h0Zm13.677,6.74c0.271-.534-2.647-2.732-6.263-4.872-3.7-2.1-6.366-3.331-6.854-2.963l-0.108.2a0.4,0.4,0,0,0,.027-0.031A0.476,0.476,0,0,1,5.872,11c0.839,0.013,3.234,1.115,6.595,3.042,1.473,0.858,6.221,3.9,6.2,4.759a0.155,0.155,0,0,1-.022.125l0.121-.183" fill="#f6eb16"/><path id="path1427" d="M5.092,12c0.428-.29,3.573,1.111,6.864,3.1s6.418,4.239,6.135,4.66L18,19.9l-0.043.034a0.2,0.2,0,0,0,0-.22c-0.14-.46-2.365-2.235-6.056-4.464C8.3,13.1,5.3,11.809,5,12.179L5.092,12h0Zm13.677,6.74c0.271-.535-2.647-2.732-6.263-4.872-3.7-2.1-6.366-3.331-6.854-2.963l-0.108.2c0,0.011,0-.013.027-0.031A0.476,0.476,0,0,1,5.872,11c0.839,0.013,3.234,1.115,6.595,3.042,1.473,0.858,6.221,3.9,6.2,4.759a0.156,0.156,0,0,1-.022.125l0.121-.184h0Z" fill="none" stroke="#010101" stroke-linecap="round" stroke-linejoin="round" stroke-width="0.043"/><path id="path1429" d="M7.514,15.994a4.534,4.534,0,0,0,4.492,4.5A4.507,4.507,0,0,0,16.513,16h0V10l-9-.011v6.009" fill="#fff"/><path id="path1431" d="M7.514,15.994a4.534,4.534,0,0,0,4.492,4.5A4.507,4.507,0,0,0,16.513,16h0V10l-9-.011v6.009h0Z" fill="none" stroke="#010101" stroke-width="0.051"/><path id="path1433" d="M7.682,16v0a4.274,4.274,0,0,0,1.272,3.033,4.309,4.309,0,0,0,6.1.007,4.274,4.274,0,0,0,1.266-3.035h0V10.186l-8.629,0L7.682,16m6.9-4.074v3.706l0,0.392h0a2.832,2.832,0,0,1-.018.321,2.517,2.517,0,0,1-.739,1.494A2.577,2.577,0,0,1,12,18.594a2.605,2.605,0,0,1-2.566-2.58V11.919l5.15,0.009" fill="#ed2224"/><path id="path1435" d="M7.682,16v0a4.274,4.274,0,0,0,1.272,3.033,4.309,4.309,0,0,0,6.1.007,4.274,4.274,0,0,0,1.266-3.035h0V10.186H7.687L7.682,16m6.9-4.074v3.706l0,0.392h0a2.819,2.819,0,0,1-.018.321,2.516,2.516,0,0,1-.739,1.494A2.578,2.578,0,0,1,12,18.594a2.605,2.605,0,0,1-2.566-2.581V11.919l5.15,0.009h0Z" fill="none" stroke="#010101" stroke-width="0.038"/><g id="_3" data-name="3"><path id="_4" data-name="4" d="M11.458,15.342h0a0.633,0.633,0,0,0,.168.431,0.539,0.539,0,0,0,.8,0,0.632,0.632,0,0,0,.167-0.432V14.527H11.46l0,0.816" fill="#243e90"/></g><g id="_1" data-name="1"><path id="_2" data-name="2" d="M11.452,17.3h0a0.632,0.632,0,0,0,.168.431,0.539,0.539,0,0,0,.8,0,0.632,0.632,0,0,0,.167-0.432V16.481H11.454l0,0.816" fill="#243e90"/></g><g id="use3440"><path id="path1485" d="M9.881,15.346h0a0.632,0.632,0,0,0,.168.431,0.539,0.539,0,0,0,.8,0,0.633,0.633,0,0,0,.167-0.432V14.53H9.883l0,0.816" fill="#243e90"/></g><g id="use3436"><path id="path1485-2" data-name="path1485" d="M13.03,15.345h0a0.632,0.632,0,0,0,.168.431,0.539,0.539,0,0,0,.8,0,0.633,0.633,0,0,0,.167-0.432V14.53H13.032l0,0.816" fill="#243e90"/></g><path id="path1485-3" data-name="path1485" d="M11.457,13.37h0a0.632,0.632,0,0,0,.168.431,0.539,0.539,0,0,0,.8,0,0.632,0.632,0,0,0,.167-0.432V12.555H11.459l0,0.816" fill="#243e90"/><g id="use4364"><path id="path1539" d="M9.1,10.73l0.01,0.264H8.8l0.009-.264H9.1" fill="#f6eb16"/></g><path id="path1497" d="M8.241,11.705a0.527,0.527,0,0,1,.309-0.519,0.519,0.519,0,0,1,.32.523l-0.629,0" fill="#f6eb16"/><path id="path1499" d="M7.984,11.194l-0.052.481H8.247a0.428,0.428,0,0,1,.309-0.463,0.463,0.463,0,0,1,.31.463H9.18l-0.057-.485-1.139,0" fill="#f6eb16"/><path id="path1501" d="M7.984,11.194l-0.052.481H8.247a0.428,0.428,0,0,1,.308-0.463,0.464,0.464,0,0,1,.31.463H9.18l-0.057-.485-1.139,0h0Z" fill="none" stroke="#010101" stroke-width="0.038"/><path id="path1503" d="M7.912,11.677H9.2a0.06,0.06,0,0,1,0,.119H7.912a0.06,0.06,0,0,1,0-.119" fill="#f6eb16"/><path id="path1505" d="M7.912,11.677H9.2a0.06,0.06,0,0,1,0,.119H7.912A0.06,0.06,0,0,1,7.912,11.677Z" fill="none" stroke="#010101" stroke-width="0.038"/><path id="path1507" d="M8.379,11.675a0.331,0.331,0,0,1,.172-0.322,0.336,0.336,0,0,1,.179.322H8.379" fill="#f6eb16"/><path id="path1509" d="M8.379,11.675a0.331,0.331,0,0,1,.172-0.322,0.336,0.336,0,0,1,.179.322H8.379" fill="none" stroke="#010101" stroke-width="0.038"/><path id="path1511" d="M7.939,11H9.17a0.054,0.054,0,0,1,0,.107H7.939a0.054,0.054,0,0,1,0-.107" fill="#f6eb16"/><path id="path1513" d="M7.939,10.994H9.17a0.054,0.054,0,0,1,0,.107H7.939A0.054,0.054,0,0,1,7.939,10.994Z" fill="none" stroke="#010101" stroke-width="0.038"/><path id="path1515" d="M7.965,11.1H9.143a0.054,0.054,0,0,1,0,.107H7.965a0.054,0.054,0,0,1,0-.107" fill="#f6eb16"/><path id="path1517" d="M7.965,11.1H9.142a0.054,0.054,0,0,1,0,.107H7.965A0.054,0.054,0,0,1,7.965,11.1Z" fill="none" stroke="#010101" stroke-width="0.038"/><g id="g6250"><g id="use4658"><path id="path1535" d="M8.35,10.3H8.441v0.066H8.507V10.3H8.6v0.067H8.667V10.3H8.76V10.45a0.039,0.039,0,0,1-.041.039H8.392a0.042,0.042,0,0,1-.042-0.04V10.3" fill="#f6eb16"/></g><path id="path1521" d="M8.345,10.3H8.438v0.066H8.506V10.3H8.6v0.067H8.669V10.3h0.1V10.45a0.04,0.04,0,0,1-.042.039H8.389a0.043,0.043,0,0,1-.043-0.04V10.3h0Z" fill="none" stroke="#010101" stroke-width="0.038"/><path id="path1523" d="M8.7,10.5l0.021,0.489H8.39L8.412,10.5H8.7" fill="#f6eb16"/><path id="path1525" d="M8.7,10.5l0.021,0.489H8.39L8.412,10.5H8.7" fill="none" stroke="#010101" stroke-width="0.038"/><g id="use4656"><path id="path1535-2" data-name="path1535" d="M8.75,10.539H8.841v0.066H8.907V10.537H9v0.067H9.067V10.538H9.16V10.69a0.039,0.039,0,0,1-.041.039H8.792a0.042,0.042,0,0,1-.042-0.04V10.539" fill="#f6eb16"/></g><g id="use4366"><path id="path1541" d="M9.1,10.73l0.01,0.264H8.8l0.009-.264H9.1Z" fill="none" stroke="#010101" stroke-width="0.038"/></g><g id="use4660"><path id="path1537" d="M8.75,10.538H8.841V10.6H8.907V10.537H9V10.6H9.067V10.537H9.16v0.152a0.039,0.039,0,0,1-.041.039H8.792a0.042,0.042,0,0,1-.042-0.04V10.538h0Z" fill="none" stroke="#010101" stroke-width="0.038"/></g><path id="path1535-3" data-name="path1535" d="M7.946,10.539H8.037v0.066H8.1V10.537H8.2v0.067H8.263V10.538H8.356V10.69a0.039,0.039,0,0,1-.041.039H7.988a0.042,0.042,0,0,1-.042-0.04V10.539" fill="#f6eb16"/><path id="path1537-2" data-name="path1537" d="M7.946,10.539H8.037v0.066H8.1V10.538H8.2v0.067H8.263V10.538H8.356V10.69a0.039,0.039,0,0,1-.041.039H7.988a0.042,0.042,0,0,1-.042-0.04V10.539h0Z" fill="none" stroke="#010101" stroke-width="0.038"/><path id="path1539-2" data-name="path1539" d="M8.3,10.73l0.01,0.264H7.995L8,10.73H8.3" fill="#f6eb16"/><path id="path1541-2" data-name="path1541" d="M8.3,10.73l0.01,0.264H7.995L8,10.73H8.3Z" fill="none" stroke="#010101" stroke-width="0.038"/><path id="path1543" d="M8.522,10.658a0.033,0.033,0,1,1,.066,0v0.116H8.522V10.658" fill="#010101"/><g id="use4362"><path id="path1547" d="M8.924,10.827a0.031,0.031,0,1,1,.063,0v0.09H8.924v-0.09" fill="#010101"/></g><path id="path1547-2" data-name="path1547" d="M8.118,10.827a0.032,0.032,0,1,1,.063,0v0.09H8.118v-0.09" fill="#010101"/></g><g id="use5166"><path id="path1539-3" data-name="path1539" d="M12.566,10.73l0.01,0.264H12.264l0.009-.264h0.294" fill="#f6eb16"/></g><path id="path5168" d="M11.706,11.705a0.527,0.527,0,0,1,.309-0.519,0.519,0.519,0,0,1,.32.523l-0.629,0" fill="#f6eb16"/><path id="path5170" d="M11.449,11.194l-0.052.481h0.314a0.428,0.428,0,0,1,.309-0.463,0.463,0.463,0,0,1,.31.463h0.315l-0.057-.485-1.139,0" fill="#f6eb16"/><path id="path5172" d="M11.449,11.194l-0.052.481h0.314a0.428,0.428,0,0,1,.308-0.463,0.464,0.464,0,0,1,.31.463h0.315l-0.057-.485-1.139,0h0Z" fill="none" stroke="#010101" stroke-width="0.038"/><path id="path5174" d="M11.377,11.677h1.284a0.06,0.06,0,0,1,0,.119H11.377a0.06,0.06,0,0,1,0-.119" fill="#f6eb16"/><path id="path5176" d="M11.377,11.677h1.284a0.06,0.06,0,0,1,0,.119H11.377A0.06,0.06,0,0,1,11.377,11.677Z" fill="none" stroke="#010101" stroke-width="0.038"/><path id="path5178" d="M11.844,11.675a0.331,0.331,0,0,1,.172-0.322,0.336,0.336,0,0,1,.179.322H11.844" fill="#f6eb16"/><path id="path5180" d="M11.844,11.675a0.331,0.331,0,0,1,.172-0.322,0.336,0.336,0,0,1,.179.322H11.844" fill="none" stroke="#010101" stroke-width="0.038"/><path id="path5182" d="M11.4,11h1.231a0.054,0.054,0,0,1,0,.107H11.4a0.054,0.054,0,0,1,0-.107" fill="#f6eb16"/><path id="path5184" d="M11.4,10.994h1.231a0.054,0.054,0,0,1,0,.107H11.4A0.054,0.054,0,0,1,11.4,10.994Z" fill="none" stroke="#010101" stroke-width="0.038"/><path id="path5186" d="M11.43,11.1h1.178a0.054,0.054,0,0,1,0,.107H11.43a0.054,0.054,0,0,1,0-.107" fill="#f6eb16"/><path id="path5188" d="M11.43,11.1h1.178a0.054,0.054,0,0,1,0,.107H11.43A0.054,0.054,0,0,1,11.43,11.1Z" fill="none" stroke="#010101" stroke-width="0.038"/><g id="use4980"><g id="use5190"><path id="path1535-4" data-name="path1535" d="M11.815,10.3h0.091v0.066h0.066V10.3h0.093v0.067h0.067V10.3h0.093V10.45a0.039,0.039,0,0,1-.041.039H11.857a0.042,0.042,0,0,1-.042-0.04V10.3" fill="#f6eb16"/></g><path id="path5192" d="M11.81,10.3H11.9v0.066h0.068V10.3h0.1v0.067h0.068V10.3h0.1V10.45a0.04,0.04,0,0,1-.042.039H11.854a0.043,0.043,0,0,1-.043-0.04V10.3h0Z" fill="none" stroke="#010101" stroke-width="0.038"/><path id="path5194" d="M12.16,10.5l0.021,0.489H11.855l0.022-.489H12.16" fill="#f6eb16"/><path id="path5196" d="M12.16,10.5l0.021,0.489H11.855l0.022-.489H12.16" fill="none" stroke="#010101" stroke-width="0.038"/><g id="use5198"><path id="path1535-5" data-name="path1535" d="M12.215,10.539h0.091v0.066h0.066V10.537h0.093v0.067h0.067V10.538h0.093V10.69a0.039,0.039,0,0,1-.041.039H12.257a0.042,0.042,0,0,1-.042-0.04V10.539" fill="#f6eb16"/></g><g id="use5200"><path id="path1541-3" data-name="path1541" d="M12.567,10.73l0.01,0.264H12.264l0.009-.264h0.294Z" fill="none" stroke="#010101" stroke-width="0.038"/></g><g id="use5202"><path id="path1537-3" data-name="path1537" d="M12.215,10.538h0.091V10.6h0.066V10.537h0.093V10.6h0.067V10.537h0.093v0.152a0.039,0.039,0,0,1-.041.039H12.257a0.042,0.042,0,0,1-.042-0.04V10.538h0Z" fill="none" stroke="#010101" stroke-width="0.038"/></g><path id="path5204" d="M11.411,10.539H11.5v0.066h0.066V10.537h0.093v0.067h0.067V10.538h0.093V10.69a0.039,0.039,0,0,1-.041.039H11.453a0.042,0.042,0,0,1-.042-0.04V10.539" fill="#f6eb16"/><path id="path5206" d="M11.411,10.539H11.5v0.066h0.067V10.538h0.093v0.067h0.067V10.538h0.093V10.69a0.039,0.039,0,0,1-.041.039H11.453a0.042,0.042,0,0,1-.042-0.04V10.539h0Z" fill="none" stroke="#010101" stroke-width="0.038"/><path id="path5208" d="M11.762,10.73l0.01,0.264H11.46l0.009-.264h0.294" fill="#f6eb16"/><path id="path5210" d="M11.762,10.73l0.01,0.264H11.46l0.009-.264h0.294Z" fill="none" stroke="#010101" stroke-width="0.038"/><path id="path5212" d="M11.987,10.658a0.033,0.033,0,1,1,.066,0v0.116H11.987V10.658" fill="#010101"/><g id="use4984"><path id="path1547-3" data-name="path1547" d="M12.389,10.827a0.031,0.031,0,1,1,.063,0v0.09H12.389v-0.09" fill="#010101"/></g><path id="path5216" d="M11.583,10.827a0.031,0.031,0,1,1,.063,0v0.09H11.583v-0.09" fill="#010101"/></g><g id="use5166-2" data-name="use5166"><path id="path1539-4" data-name="path1539" d="M15.993,10.73L16,10.993H15.69L15.7,10.73h0.294" fill="#f6eb16"/></g><path id="path5168-2" data-name="path5168" d="M15.132,11.705a0.527,0.527,0,0,1,.309-0.519,0.519,0.519,0,0,1,.32.523l-0.629,0" fill="#f6eb16"/><path id="path5170-2" data-name="path5170" d="M14.876,11.194l-0.052.481h0.314a0.428,0.428,0,0,1,.309-0.463,0.463,0.463,0,0,1,.31.463h0.315l-0.057-.485-1.139,0" fill="#f6eb16"/><path id="path5172-2" data-name="path5172" d="M14.876,11.194l-0.052.481h0.314a0.428,0.428,0,0,1,.308-0.463,0.464,0.464,0,0,1,.31.463h0.315l-0.057-.485-1.139,0h0Z" fill="none" stroke="#010101" stroke-width="0.038"/><path id="path5174-2" data-name="path5174" d="M14.8,11.677h1.284a0.06,0.06,0,0,1,0,.119H14.8a0.06,0.06,0,0,1,0-.119" fill="#f6eb16"/><path id="path5176-2" data-name="path5176" d="M14.8,11.677h1.284a0.06,0.06,0,0,1,0,.119H14.8A0.06,0.06,0,0,1,14.8,11.677Z" fill="none" stroke="#010101" stroke-width="0.038"/><path id="path5178-2" data-name="path5178" d="M15.27,11.675a0.331,0.331,0,0,1,.172-0.322,0.336,0.336,0,0,1,.179.322H15.27" fill="#f6eb16"/><path id="path5180-2" data-name="path5180" d="M15.27,11.675a0.331,0.331,0,0,1,.172-0.322,0.336,0.336,0,0,1,.179.322H15.27" fill="none" stroke="#010101" stroke-width="0.038"/><path id="path5182-2" data-name="path5182" d="M14.83,11h1.231a0.054,0.054,0,0,1,0,.107H14.83a0.054,0.054,0,0,1,0-.107" fill="#f6eb16"/><path id="path5184-2" data-name="path5184" d="M14.83,10.994h1.231a0.054,0.054,0,0,1,0,.107H14.83A0.054,0.054,0,0,1,14.83,10.994Z" fill="none" stroke="#010101" stroke-width="0.038"/><path id="path5186-2" data-name="path5186" d="M14.856,11.1h1.178a0.054,0.054,0,0,1,0,.107H14.856a0.054,0.054,0,0,1,0-.107" fill="#f6eb16"/><path id="path5188-2" data-name="path5188" d="M14.856,11.1h1.178a0.054,0.054,0,0,1,0,.107H14.856A0.054,0.054,0,0,1,14.856,11.1Z" fill="none" stroke="#010101" stroke-width="0.038"/><g id="use4980-2" data-name="use4980"><g id="use5190-2" data-name="use5190"><path id="path1535-6" data-name="path1535" d="M15.241,10.3h0.091v0.066H15.4V10.3h0.093v0.067h0.067V10.3h0.093V10.45a0.039,0.039,0,0,1-.041.039H15.284a0.042,0.042,0,0,1-.042-0.04V10.3" fill="#f6eb16"/></g><path id="path5192-2" data-name="path5192" d="M15.237,10.3H15.33v0.066H15.4V10.3h0.1v0.067h0.068V10.3h0.1V10.45a0.04,0.04,0,0,1-.042.039H15.28a0.043,0.043,0,0,1-.043-0.04V10.3h0Z" fill="none" stroke="#010101" stroke-width="0.038"/><path id="path5194-2" data-name="path5194" d="M15.587,10.5l0.021,0.489H15.282L15.3,10.5h0.284" fill="#f6eb16"/><path id="path5196-2" data-name="path5196" d="M15.587,10.5l0.021,0.489H15.282L15.3,10.5h0.283" fill="none" stroke="#010101" stroke-width="0.038"/><g id="use5198-2" data-name="use5198"><path id="path1535-7" data-name="path1535" d="M15.641,10.539h0.091v0.066H15.8V10.537h0.093v0.067h0.067V10.538h0.093V10.69a0.039,0.039,0,0,1-.041.039H15.684a0.042,0.042,0,0,1-.042-0.04V10.539" fill="#f6eb16"/></g><g id="use5200-2" data-name="use5200"><path id="path1541-4" data-name="path1541" d="M15.993,10.73L16,10.993H15.69L15.7,10.73h0.294Z" fill="none" stroke="#010101" stroke-width="0.038"/></g><g id="use5202-2" data-name="use5202"><path id="path1537-4" data-name="path1537" d="M15.641,10.538h0.091V10.6H15.8V10.537h0.093V10.6h0.067V10.537h0.093v0.152a0.039,0.039,0,0,1-.041.039H15.684a0.042,0.042,0,0,1-.042-0.04V10.538h0Z" fill="none" stroke="#010101" stroke-width="0.038"/></g><path id="path5204-2" data-name="path5204" d="M14.837,10.539h0.091v0.066h0.066V10.537h0.093v0.067h0.067V10.538h0.093V10.69a0.039,0.039,0,0,1-.041.039H14.88a0.042,0.042,0,0,1-.042-0.04V10.539" fill="#f6eb16"/><path id="path5206-2" data-name="path5206" d="M14.837,10.539h0.091v0.066h0.067V10.538h0.093v0.067h0.067V10.538h0.093V10.69a0.039,0.039,0,0,1-.041.039H14.88a0.042,0.042,0,0,1-.042-0.04V10.539h0Z" fill="none" stroke="#010101" stroke-width="0.038"/><path id="path5208-2" data-name="path5208" d="M15.189,10.73l0.01,0.264H14.886l0.009-.264h0.294" fill="#f6eb16"/><path id="path5210-2" data-name="path5210" d="M15.189,10.73l0.01,0.264H14.886l0.009-.264h0.294Z" fill="none" stroke="#010101" stroke-width="0.038"/><path id="path5212-2" data-name="path5212" d="M15.413,10.658a0.033,0.033,0,1,1,.066,0v0.116H15.413V10.658" fill="#010101"/><g id="use4982"><path id="path1547-4" data-name="path1547" d="M15.816,10.827a0.031,0.031,0,1,1,.063,0v0.09H15.816v-0.09" fill="#010101"/></g><path id="path5216-2" data-name="path5216" d="M15.009,10.827a0.032,0.032,0,1,1,.063,0v0.09H15.009v-0.09" fill="#010101"/></g><g id="use5166-3" data-name="use5166"><path id="path1539-5" data-name="path1539" d="M9.1,14.241L9.111,14.5H8.8l0.009-.264H9.1" fill="#f6eb16"/></g><path id="path5168-3" data-name="path5168" d="M8.241,15.216A0.526,0.526,0,0,1,8.55,14.7a0.519,0.519,0,0,1,.32.523l-0.629,0" fill="#f6eb16"/><path id="path5170-3" data-name="path5170" d="M7.984,14.7l-0.052.481H8.247a0.428,0.428,0,0,1,.309-0.463,0.463,0.463,0,0,1,.31.463H9.18L9.123,14.7l-1.139,0" fill="#f6eb16"/><path id="path5172-3" data-name="path5172" d="M7.984,14.705l-0.052.481H8.247a0.428,0.428,0,0,1,.308-0.463,0.464,0.464,0,0,1,.31.463H9.18L9.123,14.7l-1.139,0h0Z" fill="none" stroke="#010101" stroke-width="0.038"/><path id="path5174-3" data-name="path5174" d="M7.912,15.188H9.2a0.06,0.06,0,0,1,0,.119H7.912a0.06,0.06,0,0,1,0-.119" fill="#f6eb16"/><path id="path5176-3" data-name="path5176" d="M7.912,15.188H9.2a0.06,0.06,0,0,1,0,.119H7.912A0.06,0.06,0,0,1,7.912,15.188Z" fill="none" stroke="#010101" stroke-width="0.038"/><path id="path5178-3" data-name="path5178" d="M8.379,15.186a0.331,0.331,0,0,1,.172-0.322,0.336,0.336,0,0,1,.179.322H8.379" fill="#f6eb16"/><path id="path5180-3" data-name="path5180" d="M8.379,15.186a0.331,0.331,0,0,1,.172-0.322,0.336,0.336,0,0,1,.179.322H8.379" fill="none" stroke="#010101" stroke-width="0.038"/><path id="path5182-3" data-name="path5182" d="M7.939,14.506H9.17a0.054,0.054,0,0,1,0,.107H7.939a0.054,0.054,0,0,1,0-.107" fill="#f6eb16"/><path id="path5184-3" data-name="path5184" d="M7.939,14.505H9.17a0.054,0.054,0,0,1,0,.107H7.939A0.054,0.054,0,0,1,7.939,14.505Z" fill="none" stroke="#010101" stroke-width="0.038"/><path id="path5186-3" data-name="path5186" d="M7.965,14.613H9.143a0.054,0.054,0,0,1,0,.107H7.965a0.054,0.054,0,0,1,0-.107" fill="#f6eb16"/><path id="path5188-3" data-name="path5188" d="M7.965,14.613H9.142a0.054,0.054,0,0,1,0,.107H7.965A0.054,0.054,0,0,1,7.965,14.613Z" fill="none" stroke="#010101" stroke-width="0.038"/><g id="use4980-3" data-name="use4980"><g id="use5190-3" data-name="use5190"><path id="path1535-8" data-name="path1535" d="M8.35,13.81H8.441v0.066H8.507V13.809H8.6v0.067H8.667V13.809H8.76v0.152A0.039,0.039,0,0,1,8.719,14H8.392a0.042,0.042,0,0,1-.042-0.04V13.81" fill="#f6eb16"/></g><path id="path5192-3" data-name="path5192" d="M8.345,13.81H8.438v0.066H8.506V13.809H8.6v0.067H8.669V13.809h0.1v0.152A0.04,0.04,0,0,1,8.723,14H8.389a0.043,0.043,0,0,1-.043-0.04V13.81h0Z" fill="none" stroke="#010101" stroke-width="0.038"/><path id="path5194-3" data-name="path5194" d="M8.7,14.014L8.716,14.5H8.39l0.022-.489H8.7" fill="#f6eb16"/><path id="path5196-3" data-name="path5196" d="M8.7,14.014L8.716,14.5H8.39l0.022-.489H8.7" fill="none" stroke="#010101" stroke-width="0.038"/><g id="use5198-3" data-name="use5198"><path id="path1535-9" data-name="path1535" d="M8.75,14.05H8.841v0.066H8.907V14.048H9v0.067H9.067V14.048H9.16V14.2a0.039,0.039,0,0,1-.041.039H8.792A0.042,0.042,0,0,1,8.75,14.2V14.05" fill="#f6eb16"/></g><g id="use5200-3" data-name="use5200"><path id="path1541-5" data-name="path1541" d="M9.1,14.241L9.112,14.5H8.8l0.009-.264H9.1Z" fill="none" stroke="#010101" stroke-width="0.038"/></g><g id="use5202-3" data-name="use5202"><path id="path1537-5" data-name="path1537" d="M8.75,14.049H8.841v0.066H8.907V14.048H9v0.067H9.067V14.048H9.16V14.2a0.039,0.039,0,0,1-.041.039H8.792A0.042,0.042,0,0,1,8.75,14.2V14.049h0Z" fill="none" stroke="#010101" stroke-width="0.038"/></g><path id="path5204-3" data-name="path5204" d="M7.946,14.05H8.037v0.066H8.1V14.048H8.2v0.067H8.263V14.048H8.356V14.2a0.039,0.039,0,0,1-.041.039H7.988a0.042,0.042,0,0,1-.042-0.04V14.05" fill="#f6eb16"/><path id="path5206-3" data-name="path5206" d="M7.946,14.05H8.037v0.066H8.1V14.048H8.2v0.067H8.263V14.048H8.356V14.2a0.039,0.039,0,0,1-.041.039H7.988a0.042,0.042,0,0,1-.042-0.04V14.05h0Z" fill="none" stroke="#010101" stroke-width="0.038"/><path id="path5208-3" data-name="path5208" d="M8.3,14.241L8.307,14.5H7.995L8,14.241H8.3" fill="#f6eb16"/><path id="path5210-3" data-name="path5210" d="M8.3,14.241L8.307,14.5H7.995L8,14.241H8.3Z" fill="none" stroke="#010101" stroke-width="0.038"/><path id="path5212-3" data-name="path5212" d="M8.522,14.169a0.033,0.033,0,1,1,.066,0v0.116H8.522V14.169" fill="#010101"/><g id="use5214"><path id="path1547-5" data-name="path1547" d="M8.924,14.338a0.031,0.031,0,1,1,.063,0v0.09H8.924v-0.09" fill="#010101"/></g><path id="path5216-3" data-name="path5216" d="M8.118,14.338a0.032,0.032,0,1,1,.063,0v0.09H8.118v-0.09" fill="#010101"/></g><g id="use5328"><path id="path1539-6" data-name="path1539" d="M15.265,18.352l-0.179.193-0.221-.221,0.193-.18,0.208,0.208" fill="#f6eb16"/></g><path id="path5330" d="M13.966,18.433a0.527,0.527,0,0,1,.586-0.148,0.519,0.519,0,0,1-.144.6l-0.442-.447" fill="#f6eb16"/><path id="path5332" d="M14.147,17.89l-0.377.3,0.221,0.222a0.428,0.428,0,0,1,.545-0.109,0.463,0.463,0,0,1-.108.546l0.223,0.223,0.3-.383-0.807-.8" fill="#f6eb16"/><path id="path5334" d="M14.146,17.891l-0.377.3,0.221,0.222a0.428,0.428,0,0,1,.545-0.109,0.464,0.464,0,0,1-.108.546l0.223,0.222,0.3-.383-0.807-.8h0Z" fill="none" stroke="#010101" stroke-width="0.038"/><path id="path5336" d="M13.753,18.181l0.908,0.908a0.06,0.06,0,0,1-.084.084l-0.908-.908a0.06,0.06,0,0,1,.084-0.084" fill="#f6eb16"/><path id="path5338" d="M13.753,18.181l0.908,0.908a0.06,0.06,0,0,1-.084.084l-0.908-.908A0.06,0.06,0,0,1,13.753,18.181Z" fill="none" stroke="#010101" stroke-width="0.038"/><path id="path5340" d="M14.085,18.509a0.331,0.331,0,0,1,.35-0.106,0.336,0.336,0,0,1-.1.354l-0.248-.248" fill="#f6eb16"/><path id="path5342" d="M14.085,18.509a0.331,0.331,0,0,1,.35-0.106,0.336,0.336,0,0,1-.1.354l-0.248-.248" fill="none" stroke="#010101" stroke-width="0.038"/><path id="path5344" d="M14.255,17.717l0.871,0.871a0.054,0.054,0,0,1-.076.076l-0.871-.871a0.054,0.054,0,0,1,.076-0.076" fill="#f6eb16"/><path id="path5346" d="M14.255,17.717l0.871,0.871a0.054,0.054,0,0,1-.076.076l-0.871-.871A0.054,0.054,0,0,1,14.255,17.717Z" fill="none" stroke="#010101" stroke-width="0.038"/><path id="path5348" d="M14.2,17.811l0.833,0.833a0.054,0.054,0,0,1-.076.076l-0.833-.833a0.054,0.054,0,0,1,.075-0.076" fill="#f6eb16"/><path id="path5350" d="M14.2,17.811l0.833,0.833a0.054,0.054,0,0,1-.076.075l-0.833-.833A0.054,0.054,0,0,1,14.2,17.811Z" fill="none" stroke="#010101" stroke-width="0.038"/><g id="use5132"><g id="use5352"><path id="path1535-10" data-name="path1535" d="M15.037,17.516L15.1,17.58l-0.047.047L15.1,17.674l0.048-.048,0.066,0.066-0.048.048,0.047,0.047,0.048-.048,0.066,0.066-0.108.108a0.039,0.039,0,0,1-.057,0l-0.231-.231a0.042,0.042,0,0,1,0-.058l0.106-.107" fill="#f6eb16"/></g><path id="path5354" d="M15.034,17.513L15.1,17.579l-0.047.047L15.1,17.673l0.048-.048,0.067,0.068-0.048.048,0.048,0.048,0.048-.048,0.067,0.067-0.108.108a0.04,0.04,0,0,1-.057,0l-0.237-.236a0.043,0.043,0,0,1,0-.059l0.106-.107h0Z" fill="none" stroke="#010101" stroke-width="0.038"/><path id="path5356" d="M15.138,17.9l-0.331.361-0.23-.231,0.361-.33,0.2,0.2" fill="#f6eb16"/><path id="path5358" d="M15.138,17.9l-0.331.361-0.23-.231,0.361-.331,0.2,0.2" fill="none" stroke="#010101" stroke-width="0.038"/><g id="use5360"><path id="path1535-11" data-name="path1535" d="M15.151,17.968l0.064,0.064-0.047.047,0.047,0.047,0.048-.048,0.066,0.066-0.048.048,0.047,0.047,0.048-.048,0.066,0.066-0.108.108a0.039,0.039,0,0,1-.057,0l-0.231-.231a0.042,0.042,0,0,1,0-.058l0.106-.107" fill="#f6eb16"/></g><g id="use5362"><path id="path1541-6" data-name="path1541" d="M15.265,18.352l-0.179.193-0.221-.221,0.193-.18,0.208,0.208h0Z" fill="none" stroke="#010101" stroke-width="0.038"/></g><g id="use5364"><path id="path1537-6" data-name="path1537" d="M15.152,17.968l0.064,0.064-0.047.047,0.047,0.047,0.048-.048,0.066,0.066-0.048.048,0.047,0.047,0.048-.048,0.066,0.066-0.108.108a0.039,0.039,0,0,1-.057,0l-0.231-.231a0.042,0.042,0,0,1,0-.058l0.106-.107h0Z" fill="none" stroke="#010101" stroke-width="0.038"/></g><path id="path5366" d="M14.582,17.4l0.064,0.064-0.047.047,0.047,0.047,0.048-.048,0.066,0.066-0.048.048,0.047,0.047,0.048-.048,0.066,0.066-0.108.108a0.039,0.039,0,0,1-.057,0l-0.231-.231a0.042,0.042,0,0,1,0-.058l0.106-.107" fill="#f6eb16"/><path id="path5368" d="M14.582,17.4l0.064,0.064-0.047.047,0.047,0.047,0.048-.048,0.066,0.066-0.048.048,0.047,0.047,0.048-.048,0.066,0.066-0.108.108a0.039,0.039,0,0,1-.056,0l-0.231-.231a0.042,0.042,0,0,1,0-.058l0.106-.107h0Z" fill="none" stroke="#010101" stroke-width="0.038"/><path id="path5370" d="M14.7,17.783l-0.179.193L14.3,17.756l0.193-.18L14.7,17.783" fill="#f6eb16"/><path id="path5372" d="M14.7,17.783l-0.179.193L14.3,17.756l0.193-.18L14.7,17.783h0Z" fill="none" stroke="#010101" stroke-width="0.038"/><path id="path5374" d="M14.906,17.891a0.033,0.033,0,1,1,.046.046l-0.082.082-0.046-.046,0.082-.082" fill="#010101"/><g id="use5376"><path id="path1547-6" data-name="path1547" d="M15.071,18.3a0.032,0.032,0,1,1,.044.044l-0.064.064-0.044-.044,0.064-.064" fill="#010101"/></g><path id="path5378" d="M14.5,17.725a0.031,0.031,0,1,1,.044.044l-0.064.064-0.044-.044,0.064-.064" fill="#010101"/></g><g id="use5220"><path id="path1539-7" data-name="path1539" d="M15.988,14.241L16,14.5H15.685l0.009-.264h0.294" fill="#f6eb16"/></g><path id="path5222" d="M15.127,15.216a0.526,0.526,0,0,1,.309-0.519,0.519,0.519,0,0,1,.32.523l-0.629,0" fill="#f6eb16"/><path id="path5224" d="M14.871,14.7l-0.052.481h0.314a0.428,0.428,0,0,1,.309-0.463,0.463,0.463,0,0,1,.31.463h0.315L16.009,14.7l-1.139,0" fill="#f6eb16"/><path id="path5226" d="M14.871,14.705l-0.052.481h0.314a0.428,0.428,0,0,1,.308-0.463,0.463,0.463,0,0,1,.31.463h0.315L16.009,14.7l-1.139,0h0Z" fill="none" stroke="#010101" stroke-width="0.038"/><path id="path5228" d="M14.8,15.188h1.284a0.06,0.06,0,0,1,0,.119H14.8a0.06,0.06,0,0,1,0-.119" fill="#f6eb16"/><path id="path5230" d="M14.8,15.188h1.284a0.06,0.06,0,0,1,0,.119H14.8A0.06,0.06,0,0,1,14.8,15.188Z" fill="none" stroke="#010101" stroke-width="0.038"/><path id="path5232" d="M15.265,15.186a0.331,0.331,0,0,1,.172-0.322,0.336,0.336,0,0,1,.179.322H15.265" fill="#f6eb16"/><path id="path5234" d="M15.265,15.186a0.331,0.331,0,0,1,.172-0.322,0.336,0.336,0,0,1,.179.322H15.265" fill="none" stroke="#010101" stroke-width="0.038"/><path id="path5236" d="M14.825,14.506h1.231a0.054,0.054,0,0,1,0,.107H14.825a0.054,0.054,0,0,1,0-.107" fill="#f6eb16"/><path id="path5238" d="M14.825,14.505h1.231a0.054,0.054,0,0,1,0,.107H14.825A0.054,0.054,0,0,1,14.825,14.505Z" fill="none" stroke="#010101" stroke-width="0.038"/><path id="path5240" d="M14.851,14.613h1.178a0.054,0.054,0,0,1,0,.107H14.851a0.054,0.054,0,0,1,0-.107" fill="#f6eb16"/><path id="path5242" d="M14.851,14.613h1.178a0.054,0.054,0,0,1,0,.107H14.851A0.054,0.054,0,0,1,14.851,14.613Z" fill="none" stroke="#010101" stroke-width="0.038"/><g id="use5100"><g id="use5244"><path id="path1535-12" data-name="path1535" d="M15.236,13.81h0.091v0.066h0.066V13.809h0.093v0.067h0.067V13.809h0.093v0.152a0.039,0.039,0,0,1-.041.039H15.278a0.042,0.042,0,0,1-.042-0.04V13.81" fill="#f6eb16"/></g><path id="path5246" d="M15.231,13.81h0.093v0.066h0.068V13.809h0.1v0.067h0.068V13.809h0.1v0.152a0.04,0.04,0,0,1-.042.039H15.275a0.043,0.043,0,0,1-.043-0.04V13.81h0Z" fill="none" stroke="#010101" stroke-width="0.038"/><path id="path5248" d="M15.582,14.014L15.6,14.5H15.276l0.022-.489h0.284" fill="#f6eb16"/><path id="path5250" d="M15.582,14.014L15.6,14.5H15.276l0.022-.489h0.284" fill="none" stroke="#010101" stroke-width="0.038"/><g id="use5252"><path id="path1535-13" data-name="path1535" d="M15.636,14.05h0.091v0.066h0.066V14.048h0.093v0.067h0.067V14.049h0.093V14.2a0.039,0.039,0,0,1-.041.039H15.678a0.042,0.042,0,0,1-.042-0.04V14.05" fill="#f6eb16"/></g><g id="use5254"><path id="path1541-7" data-name="path1541" d="M15.988,14.241L16,14.5H15.685l0.009-.264h0.294Z" fill="none" stroke="#010101" stroke-width="0.038"/></g><g id="use5256"><path id="path1537-7" data-name="path1537" d="M15.636,14.049h0.091v0.066h0.067V14.048h0.093v0.067h0.067V14.048h0.093V14.2a0.039,0.039,0,0,1-.041.039H15.679a0.042,0.042,0,0,1-.042-0.04V14.049h0Z" fill="none" stroke="#010101" stroke-width="0.038"/></g><path id="path5258" d="M14.832,14.05h0.091v0.066h0.066V14.048h0.093v0.067h0.067V14.049h0.093V14.2a0.039,0.039,0,0,1-.041.039H14.874a0.042,0.042,0,0,1-.042-0.04V14.05" fill="#f6eb16"/><path id="path5260" d="M14.832,14.05h0.091v0.066h0.066V14.048h0.093v0.067h0.067V14.049h0.093V14.2a0.039,0.039,0,0,1-.041.039H14.874a0.042,0.042,0,0,1-.042-0.04V14.05h0Z" fill="none" stroke="#010101" stroke-width="0.038"/><path id="path5262" d="M15.184,14.241l0.01,0.264H14.881l0.009-.264h0.294" fill="#f6eb16"/><path id="path5264" d="M15.184,14.241l0.01,0.264H14.881l0.009-.264h0.294Z" fill="none" stroke="#010101" stroke-width="0.038"/><path id="path5266" d="M15.408,14.169a0.033,0.033,0,1,1,.066,0v0.116H15.408V14.169" fill="#010101"/><g id="use5268"><path id="path1547-7" data-name="path1547" d="M15.81,14.338a0.031,0.031,0,1,1,.063,0v0.09H15.81v-0.09" fill="#010101"/></g><path id="path5270" d="M15,14.338a0.031,0.031,0,1,1,.063,0v0.09H15v-0.09" fill="#010101"/></g><g id="use5274"><path id="path1539-8" data-name="path1539" d="M9.526,17.573L9.72,17.752,9.5,17.974l-0.18-.193,0.208-.208" fill="#f6eb16"/></g><path id="path5276" d="M9.607,18.872a0.527,0.527,0,0,1-.148-0.586,0.52,0.52,0,0,1,.6.144l-0.447.442" fill="#f6eb16"/><path id="path5278" d="M9.064,18.691l0.3,0.377,0.222-.221A0.428,0.428,0,0,1,9.482,18.3a0.463,0.463,0,0,1,.546.108l0.223-.223-0.383-.3-0.8.807" fill="#f6eb16"/><path id="path5280" d="M9.064,18.691l0.3,0.377,0.222-.221A0.428,0.428,0,0,1,9.481,18.3a0.463,0.463,0,0,1,.546.108l0.223-.223-0.383-.3-0.8.807h0Z" fill="none" stroke="#010101" stroke-width="0.038"/><path id="path5282" d="M9.355,19.084l0.908-.908a0.06,0.06,0,0,1,.084.084l-0.908.908a0.06,0.06,0,0,1-.084-0.084" fill="#f6eb16"/><path id="path5284" d="M9.355,19.084l0.908-.908a0.06,0.06,0,0,1,.084.084l-0.908.908a0.06,0.06,0,0,1-.084-0.084h0Z" fill="none" stroke="#010101" stroke-width="0.038"/><path id="path5286" d="M9.683,18.752a0.331,0.331,0,0,1-.106-0.35,0.336,0.336,0,0,1,.354.1l-0.248.248" fill="#f6eb16"/><path id="path5288" d="M9.683,18.752a0.331,0.331,0,0,1-.106-0.35,0.336,0.336,0,0,1,.354.1l-0.248.248" fill="none" stroke="#010101" stroke-width="0.038"/><path id="path5290" d="M8.891,18.582l0.871-.871a0.054,0.054,0,0,1,.076.076l-0.871.871a0.054,0.054,0,0,1-.076-0.075" fill="#f6eb16"/><path id="path5292" d="M8.891,18.582l0.871-.871a0.054,0.054,0,0,1,.076.076l-0.871.871a0.054,0.054,0,0,1-.076-0.075h0Z" fill="none" stroke="#010101" stroke-width="0.038"/><path id="path5294" d="M8.985,18.639l0.833-.833a0.054,0.054,0,0,1,.076.076l-0.833.833a0.054,0.054,0,0,1-.076-0.075" fill="#f6eb16"/><path id="path5296" d="M8.985,18.639l0.833-.833a0.054,0.054,0,0,1,.075.075l-0.833.833a0.054,0.054,0,0,1-.076-0.075h0Z" fill="none" stroke="#010101" stroke-width="0.038"/><g id="use5298"><path id="path1535-14" data-name="path1535" d="M8.69,17.8l0.064-.064L8.8,17.783l0.047-.047L8.8,17.688l0.066-.066L8.914,17.67l0.047-.047-0.048-.048,0.066-.066,0.108,0.108a0.039,0.039,0,0,1,0,.056L8.855,17.9a0.042,0.042,0,0,1-.058,0L8.69,17.8" fill="#f6eb16"/></g><path id="path5300" d="M8.687,17.8l0.066-.066L8.8,17.784l0.048-.048L8.8,17.689l0.068-.067,0.048,0.048,0.048-.048-0.048-.048,0.067-.067L9.09,17.614a0.04,0.04,0,0,1,0,.057l-0.236.236a0.043,0.043,0,0,1-.059,0L8.687,17.8h0Z" fill="none" stroke="#010101" stroke-width="0.038"/><path id="path5302" d="M9.079,17.7L9.44,18.03l-0.231.23L8.878,17.9l0.2-.2" fill="#f6eb16"/><path id="path5304" d="M9.079,17.7L9.44,18.031l-0.232.23L8.878,17.9l0.2-.2" fill="none" stroke="#010101" stroke-width="0.038"/><g id="use5306"><path id="path1535-15" data-name="path1535" d="M9.142,17.687l0.064-.064,0.047,0.047L9.3,17.622l-0.048-.048,0.066-.066,0.048,0.048,0.047-.047-0.048-.048L9.432,17.4,9.539,17.5a0.039,0.039,0,0,1,0,.057l-0.231.231a0.042,0.042,0,0,1-.058,0l-0.107-.106" fill="#f6eb16"/></g><g id="use5308"><path id="path1541-8" data-name="path1541" d="M9.526,17.573L9.72,17.752,9.5,17.973l-0.18-.193,0.208-.208h0Z" fill="none" stroke="#010101" stroke-width="0.038"/></g><g id="use5310"><path id="path1537-8" data-name="path1537" d="M9.142,17.686l0.064-.064,0.047,0.047L9.3,17.621l-0.048-.048,0.066-.066,0.048,0.048,0.047-.047-0.048-.048,0.066-.066L9.539,17.5a0.039,0.039,0,0,1,0,.057l-0.231.231a0.042,0.042,0,0,1-.058,0l-0.107-.106h0Z" fill="none" stroke="#010101" stroke-width="0.038"/></g><path id="path5312" d="M8.574,18.255l0.064-.064,0.047,0.047,0.047-.047-0.048-.048,0.066-.066L8.8,18.124l0.047-.047L8.8,18.03l0.066-.066,0.108,0.108a0.039,0.039,0,0,1,0,.057l-0.231.231a0.042,0.042,0,0,1-.058,0l-0.107-.106" fill="#f6eb16"/><path id="path5314" d="M8.574,18.255l0.064-.064,0.047,0.047,0.047-.047-0.048-.048,0.066-.066L8.8,18.125l0.047-.047L8.8,18.03l0.066-.066,0.108,0.108a0.039,0.039,0,0,1,0,.057l-0.231.231a0.042,0.042,0,0,1-.058,0l-0.107-.107h0Z" fill="none" stroke="#010101" stroke-width="0.038"/><path id="path5316" d="M8.958,18.141l0.193,0.179-0.221.221-0.18-.193,0.208-.208" fill="#f6eb16"/><path id="path5318" d="M8.958,18.141l0.193,0.179-0.221.221-0.18-.193,0.208-.208h0Z" fill="none" stroke="#010101" stroke-width="0.038"/><path id="path5320" d="M9.065,17.932a0.033,0.033,0,1,1,.046-0.046l0.082,0.082-0.046.046-0.082-.082" fill="#010101"/><g id="use5322"><path id="path1547-8" data-name="path1547" d="M9.469,17.767a0.032,0.032,0,1,1,.044-0.044l0.064,0.064-0.044.044-0.064-.064" fill="#010101"/></g><path id="path5324" d="M8.9,18.338a0.031,0.031,0,1,1,.044-0.044l0.064,0.064L8.963,18.4,8.9,18.338" fill="#010101"/><g id="use6358"><path id="use5944" d="M12.343,17.3a0.113,0.113,0,1,0,.113.113,0.113,0.113,0,0,0-.113-0.113" fill="#fff"/></g><g id="use6360"><path id="use5944-2" data-name="use5944" d="M11.718,17.3a0.113,0.113,0,1,0,.113.113,0.113,0.113,0,0,0-.113-0.113" fill="#fff"/></g><g id="use6356"><path id="use5944-3" data-name="use5944" d="M12.028,16.981a0.113,0.113,0,1,0,.113.113,0.113,0.113,0,0,0-.113-0.113" fill="#fff"/></g><g id="use6352"><path id="use5944-4" data-name="use5944" d="M12.343,16.678a0.113,0.113,0,1,0,.113.113,0.113,0.113,0,0,0-.113-0.113" fill="#fff"/></g><path id="use5944-5" data-name="use5944" d="M13.921,15.346a0.113,0.113,0,1,0,.113.113,0.113,0.113,0,0,0-.113-0.113" fill="#fff"/><g id="use5946"><path id="use5944-6" data-name="use5944" d="M13.306,15.347a0.113,0.113,0,1,0,.113.113,0.113,0.113,0,0,0-.113-0.113" fill="#fff"/></g><g id="use5948"><path id="use5944-7" data-name="use5944" d="M13.606,15.03a0.113,0.113,0,1,0,.113.113,0.113,0.113,0,0,0-.113-0.113" fill="#fff"/></g><g id="use5950"><path id="use5944-8" data-name="use5944" d="M13.921,14.727a0.113,0.113,0,1,0,.113.113,0.113,0.113,0,0,0-.113-0.113" fill="#fff"/></g><g id="use5952"><path id="use5944-9" data-name="use5944" d="M13.3,14.727a0.113,0.113,0,1,0,.113.113,0.113,0.113,0,0,0-.113-0.113" fill="#fff"/></g><g id="use5954"><path id="use5944-10" data-name="use5944" d="M12.348,15.343a0.113,0.113,0,1,0,.113.113,0.113,0.113,0,0,0-.113-0.113" fill="#fff"/></g><path id="use5944-11" data-name="use5944" d="M11.718,15.344a0.113,0.113,0,1,0,.113.113,0.113,0.113,0,0,0-.113-0.113" fill="#fff"/><path id="use5944-12" data-name="use5944" d="M12.033,15.027a0.113,0.113,0,1,0,.113.113,0.113,0.113,0,0,0-.113-0.113" fill="#fff"/><path id="use5944-13" data-name="use5944" d="M12.349,14.724a0.113,0.113,0,1,0,.113.113,0.113,0.113,0,0,0-.113-0.113" fill="#fff"/><path id="use5944-14" data-name="use5944" d="M11.718,14.724a0.113,0.113,0,1,0,.113.113,0.113,0.113,0,0,0-.113-0.113" fill="#fff"/><path id="use5944-15" data-name="use5944" d="M10.772,15.347a0.113,0.113,0,1,0,.113.113,0.113,0.113,0,0,0-.113-0.113" fill="#fff"/><path id="use5944-16" data-name="use5944" d="M10.157,15.348a0.113,0.113,0,1,0,.113.113,0.113,0.113,0,0,0-.113-0.113" fill="#fff"/><path id="use5944-17" data-name="use5944" d="M10.457,15.031a0.113,0.113,0,1,0,.113.113,0.113,0.113,0,0,0-.113-0.113" fill="#fff"/><path id="use5944-18" data-name="use5944" d="M10.773,14.728a0.113,0.113,0,1,0,.113.113,0.113,0.113,0,0,0-.113-0.113" fill="#fff"/><path id="use5944-19" data-name="use5944" d="M11.718,16.678a0.113,0.113,0,1,0,.113.113,0.113,0.113,0,0,0-.113-0.113" fill="#fff"/><path id="use6320" d="M10.155,14.727a0.113,0.113,0,1,0,.113.113,0.113,0.113,0,0,0-.113-0.113" fill="#f6eb16"/><path id="use5944-20" data-name="use5944" d="M11.718,12.752a0.113,0.113,0,1,0,.113.113,0.113,0.113,0,0,0-.113-0.113" fill="#fff"/><path id="use5944-21" data-name="use5944" d="M12.335,12.752a0.113,0.113,0,1,0,.113.113,0.113,0.113,0,0,0-.113-0.113" fill="#fff"/><path id="use5944-22" data-name="use5944" d="M12.02,13.055a0.113,0.113,0,1,0,.113.113,0.113,0.113,0,0,0-.113-0.113" fill="#fff"/><path id="use5944-23" data-name="use5944" d="M12.335,13.371a0.113,0.113,0,1,0,.113.113,0.113,0.113,0,0,0-.113-0.113" fill="#fff"/><path id="use5944-24" data-name="use5944" d="M11.718,13.372a0.113,0.113,0,1,0,.113.113,0.113,0.113,0,0,0-.113-0.113" fill="#fff"/><path id="use5944-25" data-name="use5944" d="M10.156,14.727a0.113,0.113,0,1,0,.113.113,0.113,0.113,0,0,0-.113-0.113" fill="#fff"/></svg>