<svg xmlns="http://www.w3.org/2000/svg" viewBox="0 0 30 30"><defs><style>.a{fill:#0355a0;}.a,.b,.c{fill-rule:evenodd;}.b{fill:#fff;}.c{fill:#fbbd17;}.d{fill:none;stroke:#000;stroke-width:0.02px;}</style></defs><title>slices_fixtures_v03</title><path class="a" d="M4.3,16.42a0.55,0.55,0,0,0,.34-0.24c0.11,0.58.39,1.64,0.51,2.21a1.33,1.33,0,0,0-.56.25A3,3,0,0,0,4.42,17c-0.21,0-.4.09-0.61,0.13L4,18.19a1,1,0,0,0,.14.29,1.27,1.27,0,0,1-.53-0.22c-0.08-.25-0.17-0.78-0.25-1a1.6,1.6,0,0,0-.94.4c-0.06-.25-0.14-0.65-0.2-0.89a0.3,0.3,0,0,0,.31.1c0.61-.15,1.17-0.26,1.7-0.41h0Zm0,0"/><path class="a" d="M13.28,2.34c0.61,0,1.79-.07,2.41-0.07a1.36,1.36,0,0,0,.12.59,2.15,2.15,0,0,0-1-.17c0,0.54,0,1.18.08,1.73a0.33,0.33,0,0,0,.19.28l-0.94,0a0.27,0.27,0,0,0,.15-0.23c0-.59-0.07-1.18-0.07-1.78a1.74,1.74,0,0,0-1,.24,1,1,0,0,0,.07-0.62h0Zm0,0"/><path class="a" d="M16,2.25L18.49,2.7a1.16,1.16,0,0,0,0,.62,4,4,0,0,0-1.77-.55c0,0.19-.08.38-0.11,0.58l1,0.21a0.94,0.94,0,0,0,.33,0,0.67,0.67,0,0,1-.5.39c-0.26,0-.67-0.13-0.93-0.17,0,0.2-.08.41-0.12,0.62l1.19,0.23a1,1,0,0,0,.74-0.15,1.63,1.63,0,0,0-.26.64l-2.49-.47a0.49,0.49,0,0,0,.21-0.27q0.18-.88.34-1.76A0.46,0.46,0,0,0,16,2.25h0Zm0,0"/><path class="a" d="M11.4,2.83A5.13,5.13,0,0,1,13,2.42c0,0.21,0,.41,0,0.62a1.88,1.88,0,0,0-1.22.05,0.24,0.24,0,0,0,0,.39,0.89,0.89,0,0,0,.45,0,1.83,1.83,0,0,1,1.17.18,0.75,0.75,0,0,1,0,1,2.68,2.68,0,0,1-1.25.49,1.58,1.58,0,0,0-.5.13c-0.1-.21-0.2-0.4-0.29-0.62a2.13,2.13,0,0,0,1.56-.17A0.29,0.29,0,0,0,12.71,4a5.07,5.07,0,0,1-1.28,0,0.67,0.67,0,0,1,0-1.18h0Zm0,0"/><path class="a" d="M19.33,2.95L21,3.74a0.72,0.72,0,0,1,.43.4A0.68,0.68,0,0,1,21.1,5a1.15,1.15,0,0,1-.61.07,9.62,9.62,0,0,1,.32,1.3c-0.24-.11-0.64-0.33-0.9-0.43,0.18-.06.17-0.2,0.16-0.37A1.4,1.4,0,0,0,19.91,5a1.81,1.81,0,0,0-.55-0.37,1.34,1.34,0,0,0-.27.91l-0.82-.41a0.54,0.54,0,0,0,.32-0.3c0.25-.51.51-1,0.75-1.51a0.44,0.44,0,0,0,0-.38h0Zm0.51,0.71c-0.09.21-.21,0.4-0.3,0.61,0.21,0.09.58,0.3,0.8,0.37,0.38,0.21.74-.35,0.22-0.62-0.2-.11-0.51-0.25-0.73-0.36h0Zm0,0"/><path class="a" d="M7.91,4.39c0.56-.33,1.64-0.87,2.2-1.19a1.87,1.87,0,0,0,.39.48,5,5,0,0,0-1.71.7C8.87,4.56,9,4.72,9.07,4.9l1-.55a0.65,0.65,0,0,0,.2-0.17,1.11,1.11,0,0,1-.08.57C10,4.9,9.46,5.12,9.24,5.25l0.3,0.55c0.28-.16.91-0.48,1.18-0.66a1.11,1.11,0,0,0,.43-0.5,1.21,1.21,0,0,0,.14.67c-0.58.32-1.66,0.88-2.24,1.2a0.46,0.46,0,0,0,0-.41L8.23,4.61a0.44,0.44,0,0,0-.31-0.22h0Zm0,0"/><path class="a" d="M7.17,5A0.68,0.68,0,0,0,7.4,4.77C7.5,5,7.55,5.17,7.65,5.35a1.38,1.38,0,0,0-1,.87,0.8,0.8,0,0,0,.23.66,0.75,0.75,0,0,0,.6.35,1.25,1.25,0,0,0,.83-0.55,1.5,1.5,0,0,0,.28-0.54L9,6.62A1.26,1.26,0,0,0,8.59,7a1.94,1.94,0,0,1-1.24.79,1.17,1.17,0,0,1-1.14-.73,1.11,1.11,0,0,1,0-1.12,2.66,2.66,0,0,1,1-1h0Zm0,0"/><path class="a" d="M22.26,5.86a1.19,1.19,0,0,1,1-.29,2,2,0,0,1,1.17.88,1.17,1.17,0,0,0,.33.35l-0.57.28a1.3,1.3,0,0,0-.73-0.94,0.82,0.82,0,0,0-1,.33,0.65,0.65,0,0,0-.17.64A1.73,1.73,0,0,0,23.49,8L23,8.49a0.76,0.76,0,0,0-.36-0.39,1.89,1.89,0,0,1-.88-1.22,1.3,1.3,0,0,1,.48-1h0Zm0,0"/><path class="a" d="M20.73,25.16a1.26,1.26,0,0,1-.24-1.07,1.86,1.86,0,0,1,1-1.09A1.35,1.35,0,0,0,22,22.68c0.06,0.19.11,0.41,0.18,0.61a1.16,1.16,0,0,0-1.12.72,0.91,0.91,0,0,0,.28.9,0.72,0.72,0,0,0,.69.19A1.81,1.81,0,0,0,23,24.19c0.16,0.16.27,0.35,0.42,0.52a0.8,0.8,0,0,0-.43.29,2,2,0,0,1-1.29.65,1.13,1.13,0,0,1-.92-0.5h0Zm0,0"/><path class="a" d="M4.73,7.52C4.9,7.32,5.17,7,5.33,6.78a0.45,0.45,0,0,0,.19.39L6.87,8.22a0.48,0.48,0,0,0,.38.06L6.66,9a0.49,0.49,0,0,0-.18-0.36L5.14,7.6a0.51,0.51,0,0,0-.41-0.08h0Zm0,0"/><path class="a" d="M24.84,7.76a0.53,0.53,0,0,0,.31-0.44l0.53,0.78a0.36,0.36,0,0,0-.38.07c-0.45.3-.88,0.63-1.33,0.93a0.48,0.48,0,0,0-.26.4c-0.14-.21-0.41-0.57-0.54-0.78a0.45,0.45,0,0,0,.44-0.09C24,8.34,24.43,8,24.84,7.76h0Zm0,0"/><path class="a" d="M3.11,10.37C3.39,9.79,4,8.71,4.26,8.12a1.53,1.53,0,0,0,.51.2,1,1,0,0,0-.45.45L3.77,9.88c0.17,0.09.4,0.17,0.57,0.26l0.52-1a0.66,0.66,0,0,0,.08-0.25,1.3,1.3,0,0,1,.27.52c-0.1.23-.38,0.74-0.47,1a6,6,0,0,0,.54.27c0.12-.25.44-0.87,0.55-1.13a1.38,1.38,0,0,0,.1-0.75C6.07,8.85,6.13,9,6.27,9.12a0.3,0.3,0,0,0,.18.1c-0.32.59-.84,1.64-1.12,2.23A0.62,0.62,0,0,0,5,11.14l-1.52-.75a0.45,0.45,0,0,0-.41,0h0Zm0,0"/><path class="a" d="M25.36,8.6A1,1,0,0,0,26,8.44c0.26,0.56.77,1.59,1,2.14a1,1,0,0,0-.49.33,1.79,1.79,0,0,0-.26-1c-0.49.21-.88,0.42-1.36,0.64a0.74,0.74,0,0,0-.4.39l-0.41-.85a0.51,0.51,0,0,0,.37,0L26,9.42a1.93,1.93,0,0,0-.6-0.82h0Zm0,0"/><path class="a" d="M26.73,11.4a1.52,1.52,0,0,0,.4-0.54l0.22,1a0.22,0.22,0,0,0-.34.05c-0.22.23-.47,0.47-0.68,0.71l1,0.43A0.19,0.19,0,0,0,27.56,13l0.19,0.92C27.62,13.74,26.56,13.31,26,13a0.84,0.84,0,0,0-.45,0,0.61,0.61,0,0,0-.39.28c-0.05-.25-0.14-0.69-0.2-0.94a0.52,0.52,0,0,0,.51.09,0.91,0.91,0,0,0,.36-0.11c0.31-.31.63-0.66,0.89-1h0Zm0,0"/><path class="a" d="M4.63,11.36c0.17,0.09.29,0.23,0.46,0.32a0.27,0.27,0,0,0,.17,0c-0.12.56-.35,1.59-0.48,2.15a0.53,0.53,0,0,0-.34-0.25l-1.74-.38a0.37,0.37,0,0,0-.32.11c0.05-.25.15-0.71,0.21-1a0.5,0.5,0,0,0,.3.28C3.44,12.78,4,12.91,4.53,13a6.73,6.73,0,0,0,.2-1.14,1.14,1.14,0,0,0-.1-0.51h0Zm0,0"/><path class="a" d="M24.25,19.58c0.17-.29.31-0.56,0.47-0.84a0.55,0.55,0,0,0,.33.41c0.35,0.21.63,0.35,1,.56a0.86,0.86,0,0,1,.42.67,1.63,1.63,0,0,1-.3.9,1.2,1.2,0,0,1-.65.58,1,1,0,0,1-.75-0.14l-0.84-.48a0.51,0.51,0,0,0-.53-0.07c0.17-.28.31-0.57,0.47-0.84a0.34,0.34,0,0,0,.23.33L25,21.2a0.57,0.57,0,0,0,.52.08,0.84,0.84,0,0,0,.44-0.7,0.58,0.58,0,0,0-.31-0.43c-0.36-.2-0.68-0.39-1-0.58a0.38,0.38,0,0,0-.35,0h0Zm0,0"/><path class="a" d="M4.46,18.79a1.11,1.11,0,0,1,.81.19A1.76,1.76,0,0,1,6,20.33a1.17,1.17,0,0,1-.5,1,1.27,1.27,0,0,1-1.2.2,1.71,1.71,0,0,1-.94-2,1.4,1.4,0,0,1,1.08-.81h0Zm0.19,0.57a1,1,0,0,0-.82.62,0.86,0.86,0,0,0,.69,1,1.13,1.13,0,0,0,.94-0.44,0.79,0.79,0,0,0-.13-0.88,0.76,0.76,0,0,0-.69-0.32h0Zm0,0"/><path class="a" d="M5.95,21.38a1.14,1.14,0,0,1,.84.05,1.77,1.77,0,0,1,1,1.17,1.19,1.19,0,0,1-.34,1.1,1.26,1.26,0,0,1-1.15.39A1.66,1.66,0,0,1,5,22.35a1.38,1.38,0,0,1,.93-1h0ZM6.09,22a0.89,0.89,0,0,0-.54.68,0.91,0.91,0,0,0,.86.91,1,1,0,0,0,.83-0.63A0.73,0.73,0,0,0,7,22.1,0.75,0.75,0,0,0,6.09,22h0Zm0,0"/><path class="a" d="M7.83,23.37a1.35,1.35,0,0,0,.42-0.45c0.51,0.34,1.5,1,2,1.32a1.08,1.08,0,0,0-.26.57,1.67,1.67,0,0,0-.69-0.71s0,0-.06,0L8.37,25.43a0.51,0.51,0,0,0-.06.43l-0.78-.53a0.31,0.31,0,0,0,.28-0.12c0.33-.49.66-1,1-1.46a1.82,1.82,0,0,0-1-.38h0Zm0,0"/><path class="a" d="M13.55,25.22l1,0.1a0.27,0.27,0,0,0,0,.16l0.64,1.88a1.09,1.09,0,0,0,.25.41c-0.23,0-.64,0-0.88,0a0.43,0.43,0,0,0,0-.53c-0.36,0-1-.09-1.39-0.12a0.5,0.5,0,0,0-.06.52c-0.23,0-.64-0.16-0.87-0.2a1,1,0,0,0,.3-0.31l1-1.73a0.2,0.2,0,0,0,0-.16h0ZM13.37,26.7c0.26,0,.76.06,1,0.08L14,25.64Zm0,0"/><path class="a" d="M15.3,25.36l1-.12a0.39,0.39,0,0,0-.13.34c0.07,0.55.16,1.13,0.23,1.67a7.69,7.69,0,0,0,.82-0.11,1.27,1.27,0,0,0,.76-0.38c0,0.2-.09.36-0.12,0.55a0.24,0.24,0,0,0,0,.15c-0.57.07-1.62,0.24-2.19,0.29a0.72,0.72,0,0,0,.1-0.52c-0.07-.54-0.18-1.06-0.24-1.6a0.38,0.38,0,0,0-.22-0.27h0Zm0,0"/><path class="a" d="M17.4,25.08c0.24-.08.64-0.25,0.89-0.31a0.39,0.39,0,0,0-.06.36c0.18,0.52.38,1.07,0.56,1.59a6.5,6.5,0,0,0,.76-0.27A1.16,1.16,0,0,0,20.23,26c0,0.2,0,.35,0,0.55a0.24,0.24,0,0,0,.07.14c-0.54.18-1.5,0.52-2,.69a0.65,0.65,0,0,0,0-.5c-0.18-.51-0.38-1-0.55-1.51a0.39,0.39,0,0,0-.27-0.23h0Zm0,0"/><path class="a" d="M22,22.63c0.16-.19.4-0.46,0.57-0.64a0.51,0.51,0,0,0,.2.36l1.22,1c0.12-.13.43-0.48,0.53-0.61A1.38,1.38,0,0,0,24.91,22a4,4,0,0,1,.26.49,0.23,0.23,0,0,0,.15.09c-0.37.44-1.08,1.25-1.46,1.68a0.52,0.52,0,0,0-.2-0.41c-0.42-.35-0.82-0.71-1.23-1.06A0.51,0.51,0,0,0,22,22.63h0Zm0,0"/><path class="a" d="M24.75,18.63c0.08-.38.28-1.17,0.36-1.55a1.24,1.24,0,0,1,.31-0.64,0.54,0.54,0,0,1,.88.44,0.7,0.7,0,0,1,.4-0.5,0.67,0.67,0,0,1,.82.64,17.6,17.6,0,0,1-.41,2.16,0.52,0.52,0,0,0-.31-0.25l-1.68-.37a0.4,0.4,0,0,0-.38.08h0Zm1.14-.52c0-.2.13-0.61,0.17-0.81s-0.47-.56-0.59,0c-0.05.21-.1,0.5-0.16,0.7l0.58,0.13h0Zm0.39,0.1,0.63,0.13c0-.25.15-0.71,0.2-1s-0.49-.63-0.63,0c-0.07.25-.15,0.62-0.2,0.87h0Zm0,0"/><path class="a" d="M10.38,24.34c0.38,0.11,1.1.37,1.47,0.49a0.79,0.79,0,0,1,.72.7,0.53,0.53,0,0,1-.65.51,0.66,0.66,0,0,1,.47.58c-0.06.6-.58,0.74-1.15,0.55s-1.16-.39-1.68-0.56a0.34,0.34,0,0,0,.29-0.25c0.16-.55.38-1,0.54-1.59a0.55,0.55,0,0,0,0-.43h0Zm0.35,1.17a8.17,8.17,0,0,0,.94.26c0.28,0.06.46-.43,0.19-0.54s-0.77-.21-1-0.28l-0.17.56h0Zm-0.09.36c-0.06.21-.15,0.42-0.21,0.62,0.24,0.09.58,0.2,0.83,0.28,0.56,0.19.69-.43,0.22-0.59l-0.85-.31h0Zm0,0"/><path class="a" d="M20.09,8.79a0.11,0.11,0,0,1,.19.05,2.13,2.13,0,0,0,0,.26c-0.32.77-.13,1.82-0.55,2.46a1.28,1.28,0,0,1-.43,1.15,0,0,0,0,1,0,0,7.28,7.28,0,0,1-1.48-1.24c0.73-.47.07-1,0.59-1.52a13.42,13.42,0,0,1,1.69-1.17h0Zm0,0"/><path class="a" d="M9.93,8.89a0.23,0.23,0,0,0-.3-0.05,0.76,0.76,0,0,0,.05.4,15.7,15.7,0,0,0,.6,2.93,0.86,0.86,0,0,0,.36.76s0,0,0,0a5.93,5.93,0,0,1,.83-0.68,0.48,0.48,0,0,0,.14-0.11c0.14-.2.3-0.38,0.42-0.6s0-.12-0.08-0.16a1,1,0,0,1-.19-0.17,0.62,0.62,0,0,1,0-.46,0.79,0.79,0,0,0,0-.2,1.3,1.3,0,0,0-.24-0.33,3.16,3.16,0,0,1-.34-0.52,1.78,1.78,0,0,1-.36-0.16,8.55,8.55,0,0,0-.91-0.66h0Zm0,0"/><path class="a" d="M14.13,10.68c0.23,0.15.49,0.36,0.74,0.57a0.11,0.11,0,0,1,0,.1,1.51,1.51,0,0,1-.1.28,0,0,0,0,1,0,0l-0.13-.17a0.11,0.11,0,0,1,0-.06,0.19,0.19,0,0,0-.15-0.25,0.45,0.45,0,0,1-.32-0.48h0Zm0,0"/><path class="a" d="M15.87,10.62a3.62,3.62,0,0,1-.58.67,0.19,0.19,0,0,0,0,.1,0.52,0.52,0,0,0,0,.26,0.05,0.05,0,0,1,0,.05,0.45,0.45,0,0,1-.17-0.17,1,1,0,0,1,0-.29,0.07,0.07,0,0,1,0-.08,4.14,4.14,0,0,1,.76-0.54h0Zm0,0"/><path class="a" d="M17.52,13s0,0,0,0a6.23,6.23,0,0,0-1.12.5,0,0,0,0,1-.06,0,0.7,0.7,0,0,1,0-.15,0.08,0.08,0,0,1,0-.05A2.8,2.8,0,0,0,16.86,13l0.21-.09,0.08,0a0.74,0.74,0,0,1,.37.08h0Zm0,0"/><path class="a" d="M12.56,12.93s0,0,0,0a0.93,0.93,0,0,0,.33.17,1.17,1.17,0,0,1,.57.31,0.06,0.06,0,0,1,0,0,0.12,0.12,0,0,1,0,.09h0a1.38,1.38,0,0,1-.35-0.21,0.09,0.09,0,0,0-.08,0,0.11,0.11,0,0,1-.07,0,0.51,0.51,0,0,1-.39-0.39h0Zm0,0"/><path class="a" d="M12.85,15.12a0.33,0.33,0,1,1,.44.43,0.34,0.34,0,0,1-.44-0.43h0Zm0,0"/><path class="a" d="M16.6,15.11a0.33,0.33,0,1,1,.44.43,0.33,0.33,0,0,1-.44-0.43h0Zm0,0"/><path class="a" d="M11.42,14.69a6.81,6.81,0,0,0,1,0,1.52,1.52,0,0,1,1.85.77,0.08,0.08,0,0,1,0,.07,0.68,0.68,0,0,0,0,.16,0,0,0,0,1,0,0c-0.64-.38-0.74-1.07-1.78-0.81a2.33,2.33,0,0,1-1-.16h0Zm0,0"/><path class="a" d="M12,15.1s0,0,0,0a0.79,0.79,0,0,1,.25.23,4.08,4.08,0,0,0,.47.4l0.08,0a3.46,3.46,0,0,0,.56,0,0.13,0.13,0,0,0,.15-0.11,0,0,0,0,0,0,0c-0.91,0-1.26-.79-1.49-0.6h0Zm0,0"/><path class="a" d="M13.58,16.13s0.05,0,.05,0c0.06,0.63.57,1.05,0.26,1.65a0.11,0.11,0,0,0,0,.08,2.05,2.05,0,0,1-.39.77,0,0,0,0,1,0,0s0,0-.05-0.08a9.15,9.15,0,0,1,.3-1.05,1.84,1.84,0,0,0-.17-1.15,0.21,0.21,0,0,1,.06-0.24h0Zm0,0"/><path class="a" d="M20.51,7.89s0.05,0,.07.05a7.33,7.33,0,0,1,.43,1A0.23,0.23,0,0,1,21,9a2.74,2.74,0,0,1-.14.95,3.43,3.43,0,0,1-.23,1,2.42,2.42,0,0,0-.24,1.12,2.74,2.74,0,0,1-.11.5c-0.05.25-.64,0.68,0,1.18a5.88,5.88,0,0,0,.71.48c-0.56.78-.62,0.81-0.45,1.18C19.29,16,20,17,18.92,17.81a9.62,9.62,0,0,0-1.48,1.08,0.31,0.31,0,0,0-.09.14,2.76,2.76,0,0,1-.42.55,0.34,0.34,0,0,0-.07.1,0.26,0.26,0,0,0,0,.06,1.3,1.3,0,0,1-.9,1.33,2.47,2.47,0,0,1-.64.31,0.45,0.45,0,0,1-.37,0,1.39,1.39,0,0,1-.4-0.25A0.32,0.32,0,0,0,14.4,21a1.59,1.59,0,0,1-.92-0.51,1.17,1.17,0,0,1-.08-0.7,2.76,2.76,0,0,0-1-1.19c-0.65-.71-1.2-0.58-1.69-1.41a1.42,1.42,0,0,1-.18-0.62,0.11,0.11,0,0,0,0-.07,0.21,0.21,0,0,0-.09,0c0.15-.2-0.1-0.25-0.13-0.39a6.65,6.65,0,0,0-.7-0.58,0.27,0.27,0,0,0,0-.43,3.79,3.79,0,0,1-.38-0.55,0.07,0.07,0,0,1,0-.07,0.31,0.31,0,0,1,.29-0.26l0.07,0,0.57-.58a0.06,0.06,0,0,0,0-.09,1.77,1.77,0,0,1-.29-0.77,6.45,6.45,0,0,1-.25-1.29A1.24,1.24,0,0,0,9.54,11c-0.5-.86-0.63-2.44,0-3a0.07,0.07,0,0,1,.1,0,8.19,8.19,0,0,1,2.92,2,0.1,0.1,0,0,0,.1.06,7.45,7.45,0,0,1,2.86-.33,7.09,7.09,0,0,1,2,.25,0.09,0.09,0,0,0,.1,0,9.67,9.67,0,0,1,3-2.09h0Zm0,0"/><path class="b" d="M20,9.16a7.58,7.58,0,0,0-.24,1.69c-0.29.35-.19,1-0.45,1.4a0.07,0.07,0,0,1-.07,0,2.54,2.54,0,0,1-.89-0.75,0.06,0.06,0,0,1,0-.07,0.76,0.76,0,0,0,.18-0.81c0-.78.95-0.91,1.5-1.49h0Zm0,0"/><path class="b" d="M12.95,15.13a0.07,0.07,0,1,1,.13,0,0.07,0.07,0,0,1-.13,0h0Zm0,0"/><path class="b" d="M16.7,15.13a0.07,0.07,0,1,1,.13,0,0.07,0.07,0,0,1-.13,0h0Zm0,0"/><path class="b" d="M9.94,9.28a7.9,7.9,0,0,0,1.17.83,1.34,1.34,0,0,0,.15.19c0.4,0.46.08,0.63,0.44,1.22a0.18,0.18,0,0,1,0,.21,6.26,6.26,0,0,0-.64.64c-0.26.32-.39,0.2-0.47,0a0.71,0.71,0,0,1,0-.49,0.23,0.23,0,0,0-.05-0.26,4,4,0,0,1-.25-0.41,0.53,0.53,0,0,1-.05-0.16,8.12,8.12,0,0,0-.26-1.77h0Zm0,0"/><path class="c" d="M15.72,19.56A2.25,2.25,0,0,0,16,19.32"/><path class="c" d="M15.64,16.29c0.23,1,.32,1.56.36,1.83L16.16,18a2.17,2.17,0,0,1-.1-0.92,4.6,4.6,0,0,0,.21-0.92c0.16-.34.18-0.49,0.34-0.48a1.59,1.59,0,0,0,.42,0,0.39,0.39,0,0,0,.14-0.06,2.16,2.16,0,0,0,.57-0.52,0.1,0.1,0,0,0,0-.09,0,0,0,0,0,0,0,1.37,1.37,0,0,0-1.29.15,4.6,4.6,0,0,0-.77,1,0.18,0.18,0,0,0,0,.13h0Zm1.14-.74a0.33,0.33,0,1,1,.44-0.19,0.33,0.33,0,0,1-.44.19h0Zm0,0"/><path class="c" d="M16.46,15.92c0,0.33-.11.36-0.23,1.32a0.52,0.52,0,0,0,0,.16c0,0.15.06,0.3,0.1,0.46A11.15,11.15,0,0,1,18.12,17l0.36-.4a0.36,0.36,0,0,1,.16-0.1,3.82,3.82,0,0,0,1.31-.9,0.07,0.07,0,0,0,0-.06,1.3,1.3,0,0,1,.44-1s0-.06,0-0.08a2.86,2.86,0,0,1-.61-0.54,0.53,0.53,0,0,1-.07-0.19A2.06,2.06,0,0,1,20,12.32a2.53,2.53,0,0,1,.13-0.74,3.07,3.07,0,0,1,.22-0.66c0-1.39.48-1.07,0.36-1.81a2.83,2.83,0,0,0-.2-0.6,0,0,0,0,0,0,0,5.74,5.74,0,0,0-2.69,1.91A9.18,9.18,0,0,1,17,11c0.54-.71-0.53-0.76-1.82-0.9a5,5,0,0,0-2.29.39,0.06,0.06,0,0,0,0,.09A1.89,1.89,0,0,1,13,11s0,0,0,0A15.6,15.6,0,0,0,9.64,8.49a0.05,0.05,0,0,0-.06,0,1.61,1.61,0,0,0-.08.19,0.32,0.32,0,0,1-.08.14c-0.32.31,0.24,0.9,0.32,2a3.93,3.93,0,0,0,.27,1,0.61,0.61,0,0,1,0,.12,13.93,13.93,0,0,0,.43,1.48c0.23,0.74-.67.62-0.71,1.24,0,0.42.47,0.65,0.39,1,0,0,0,0,0,.07a2.71,2.71,0,0,1,.68.63c0.36,0.62.74-.06,1.39,0.85a10.69,10.69,0,0,1,1.41.8,2.81,2.81,0,0,0,.1-0.41,1.84,1.84,0,0,0-.17-1.15,0.21,0.21,0,0,1,.06-0.24s0.05,0,.05,0c0.06,0.63.57,1.05,0.26,1.65a0.11,0.11,0,0,0,0,.08,0.46,0.46,0,0,1,0,.22l0.3,0.23,0-.12c0.13-.7.24-1.82,0.34-2a0,0,0,0,0,0,0,0.47,0.47,0,0,1-.19-0.39,0.43,0.43,0,0,1,.44.38A10.6,10.6,0,0,1,14.23,19a0,0,0,0,0,0,0c0.13,0.18.1,0.23,0.06,0.25s-0.13,0-.17,0h0a1,1,0,0,0,.2.17,0.38,0.38,0,0,1,.22-0.09,1.93,1.93,0,0,1,1.13.09,0.18,0.18,0,0,1,.08.07A2.25,2.25,0,0,0,16,19.32a0.07,0.07,0,0,1-.1,0c-0.17-.92-0.35-1.06-0.45-1.75a1.9,1.9,0,0,1,0-.7,0.5,0.5,0,0,0,0-.22,1.44,1.44,0,0,1,0-.69,1.81,1.81,0,0,1,.18-0.26,0.8,0.8,0,0,0,.12-0.23,1.32,1.32,0,0,1,.57-0.59,0,0,0,0,0,0,0,0.22,0.22,0,0,1,0-.06,3.75,3.75,0,0,1,1.67,0c0.22,0,.43-0.05.64-0.09,0,0,0,0,0,0A1,1,0,0,1,18,15a0.07,0.07,0,0,0-.06.06,1.41,1.41,0,0,1-1.45.87s0,0,0,0h0Zm2.88-3.21a0,0,0,0,1,0,0,7.28,7.28,0,0,1-1.48-1.24c0.73-.47.07-1,0.59-1.52a13.42,13.42,0,0,1,1.69-1.17,0.11,0.11,0,0,1,.19.05,2.13,2.13,0,0,0,0,.26c-0.32.77-.13,1.82-0.55,2.46a1.28,1.28,0,0,1-.43,1.15h0ZM15.29,11.3a0.19,0.19,0,0,0,0,.1,0.52,0.52,0,0,0,0,.26,0.05,0.05,0,0,1,0,.05,0.45,0.45,0,0,1-.17-0.17,1,1,0,0,1,0-.29,0.07,0.07,0,0,1,0-.08,4.14,4.14,0,0,1,.76-0.54,3.62,3.62,0,0,1-.58.67h0Zm-3.23.25c-0.12.22-.28,0.4-0.42,0.6a0.48,0.48,0,0,1-.14.11,5.93,5.93,0,0,0-.83.68s0,0,0,0a0.86,0.86,0,0,1-.36-0.76,15.7,15.7,0,0,1-.6-2.93,0.76,0.76,0,0,1-.05-0.4,0.23,0.23,0,0,1,.3.05,8.55,8.55,0,0,1,.91.66,1.78,1.78,0,0,0,.36.16,3.16,3.16,0,0,0,.34.52,1.3,1.3,0,0,1,.24.33,0.79,0.79,0,0,1,0,.2,0.62,0.62,0,0,0,0,.46,1,1,0,0,0,.19.17c0.08,0,.12.08,0.08,0.16h0ZM17.52,13s0,0,0,0a6.23,6.23,0,0,0-1.12.5,0,0,0,0,1-.06,0,0.7,0.7,0,0,1,0-.15,0.08,0.08,0,0,1,0-.05A2.8,2.8,0,0,0,16.86,13l0.21-.09,0.08,0a0.74,0.74,0,0,1,.37.08h0Zm-3.23,2.53a0.68,0.68,0,0,0,0,.16,0,0,0,0,1,0,0c-0.64-.38-0.74-1.07-1.78-0.81a2.33,2.33,0,0,1-1-.16,6.81,6.81,0,0,0,1,0,1.52,1.52,0,0,1,1.85.77,0.08,0.08,0,0,1,0,.07h0Zm-0.82-.12a0.33,0.33,0,1,1-.19-0.43,0.33,0.33,0,0,1,.19.43h0ZM12,15.1c0.23-.19.58,0.61,1.49,0.6a0,0,0,0,1,0,0,0.13,0.13,0,0,1-.15.11,3.46,3.46,0,0,1-.56,0l-0.08,0a4.08,4.08,0,0,1-.47-0.4A0.79,0.79,0,0,0,12,15.13s0,0,0,0h0Zm1.43-1.56a1.38,1.38,0,0,1-.35-0.21,0.09,0.09,0,0,0-.08,0,0.11,0.11,0,0,1-.07,0,0.51,0.51,0,0,1-.39-0.39s0,0,0,0a0.93,0.93,0,0,0,.33.17,1.17,1.17,0,0,1,.57.31,0.06,0.06,0,0,1,0,0,0.12,0.12,0,0,1,0,.09h0Zm1.35-1.91a0,0,0,0,1,0,0l-0.13-.17a0.11,0.11,0,0,1,0-.06,0.19,0.19,0,0,0-.15-0.25,0.45,0.45,0,0,1-.32-0.48c0.23,0.15.49,0.36,0.74,0.57a0.11,0.11,0,0,1,0,.1,1.51,1.51,0,0,1-.1.28h0Zm0,0"/><path class="b" d="M13.6,17.93a10.69,10.69,0,0,0-1.41-.8l0.06,0.09s0,0,0,0A1.43,1.43,0,0,1,12,17.13c-0.2-.08-0.58-0.17-0.86-0.31a0,0,0,0,0,0,0,1.08,1.08,0,0,0,1,1,0.45,0.45,0,0,1,.27.27c0.47,0.76.83,0.59,1.2,1.31,0,0,0,0,.05,0a0.88,0.88,0,0,0,.12-0.63C13.8,18.93,14,19,14,18.72a2.13,2.13,0,0,1,.13-0.41l-0.3-.23c-0.09.19-.28,0.35-0.35,0.55a0,0,0,0,1,0,0s0,0-.05-0.08a1.41,1.41,0,0,1,.21-0.64h0Zm0,0"/><path class="b" d="M14,19.3c-0.44.81-.37,1.34,0.45,1.5,0.37,0,.52,0,0.54-0.3a0,0,0,0,0,0,0,0.36,0.36,0,0,1-.22-0.07,1.28,1.28,0,0,1-.4-0.43,0.4,0.4,0,0,1-.06-0.16,0.58,0.58,0,0,1,0-.26,0.17,0.17,0,0,1,0-.07,1,1,0,0,1-.2-0.17,0.07,0.07,0,0,1-.05,0s-0.05,0-.07,0h0Zm0,0"/><path class="b" d="M15.74,19.72a0.76,0.76,0,0,1-.63.74,0.06,0.06,0,0,0-.06,0c0,0.22,0,.29.33,0.33a0.87,0.87,0,0,0,1.06-.71,2.06,2.06,0,0,0-.21-0.88,0.06,0.06,0,0,0-.08,0,0.29,0.29,0,0,0-.11.11h0a2.25,2.25,0,0,1-.31.23,0.3,0.3,0,0,1,0,.16h0Zm0,0"/><path class="b" d="M16.37,18.78a2.27,2.27,0,0,1,.17.52,0.4,0.4,0,0,1,.1.19s0,0.08.07,0a5,5,0,0,1,.7-0.78c0.3-.25.23-0.42,0.45-0.6,0.85-.76,1.22-0.54,1.28-1.33,0-.08,0-0.15-0.14-0.09a1.34,1.34,0,0,1-.26.15l-0.11,0H18.5a0.12,0.12,0,0,0-.1.06c-0.1.11-.19,0.24-0.29,0.36a0.6,0.6,0,0,1,0-.15,0,0,0,0,0,0,0H18s0,0,0,0l0.09-.1a11.15,11.15,0,0,0-1.79.91v0a0.47,0.47,0,0,0,.07.17,0.74,0.74,0,0,1,.07.79,1.18,1.18,0,0,1-.05-0.33,1.81,1.81,0,0,1-.27-0.5L16,18.12a4.06,4.06,0,0,0,.06.45c0.07,0.25.2,0.05,0.3,0.21h0Zm0,0"/><path class="a" d="M11.49,19.54c0.07,0.41.18,0.81,0.27,1.19a0.26,0.26,0,0,0-.3.23,0.27,0.27,0,0,0-.32-0.22,4.24,4.24,0,0,0,.35-1.2h0Zm0,0"/><path class="a" d="M11.2,19a0.15,0.15,0,0,1,0,.12c0,0.05,0,.05-0.07,0a0.18,0.18,0,0,1-.07-0.07,0,0,0,0,1,0-.05A0.11,0.11,0,0,1,11.15,19s0,0,0,0h0Zm0,0"/><path class="a" d="M11.52,18.67l0,0a0.26,0.26,0,0,1,0,.11,0,0,0,0,1-.07,0l-0.05,0a0.08,0.08,0,0,1,0,0,0.19,0.19,0,0,1,0-.07l0,0h0.06l0,0h0Zm0,0"/><path class="a" d="M11.8,19v0a0,0,0,0,1,0,0l0,0s0,0,0,.07a0.12,0.12,0,0,1,0,0,0.06,0.06,0,0,1,0,0,0,0,0,0,1-.06,0,0.15,0.15,0,0,1,0-.14h0Zm0,0"/><path class="a" d="M15.1,8.45a3.6,3.6,0,0,0,.14,1H14.83c0.1-.33.13-0.54,0.27-0.95h0Zm0,0"/><path class="a" d="M14.81,7.92a0.15,0.15,0,0,1,0,.12c0,0.05,0,.05-0.07,0A0.18,0.18,0,0,1,14.68,8a0,0,0,0,1,0-.05,0.12,0.12,0,0,1,.07-0.07s0,0,0,0h0Zm0,0"/><path class="a" d="M15.12,7.57l0,0a0.27,0.27,0,0,1,0,.11,0,0,0,0,1-.07,0L15,7.69a0.08,0.08,0,0,1,0,0,0.18,0.18,0,0,1,0-.07l0,0h0.06l0,0h0Zm0,0"/><path class="a" d="M15.38,7.91a0,0,0,0,1,0,0h0l0,0s0,0,0,.07a0.11,0.11,0,0,1,0,0,0.06,0.06,0,0,1,0,0,0,0,0,0,1-.06,0,0.15,0.15,0,0,1,0-.14h0Zm0,0"/><path class="a" d="M21.48,12.85c0.07,0.41.18,0.81,0.27,1.19a0.26,0.26,0,0,0-.3.23,0.27,0.27,0,0,0-.32-0.22,4.27,4.27,0,0,0,.35-1.2h0Zm0,0"/><path class="a" d="M21.17,12.35a0.15,0.15,0,0,1,0,.12c0,0.05,0,.05-0.07,0A0.18,0.18,0,0,1,21,12.45a0,0,0,0,1,0-.05,0.12,0.12,0,0,1,.07-0.07s0,0,0,0h0Zm0,0"/><path class="a" d="M21.53,12l0,0a0.27,0.27,0,0,1,0,.11,0,0,0,0,1-.07,0l-0.05,0a0.09,0.09,0,0,1,0,0,0.18,0.18,0,0,1,0-.07l0,0h0.06l0,0h0Zm0,0"/><path class="a" d="M21.77,12.34v0a0,0,0,0,1,0,0l0,0s0,0,0,.07a0.14,0.14,0,0,1,0,0,0.06,0.06,0,0,1,0,0,0,0,0,0,1-.06,0,0.15,0.15,0,0,1,0-.14h0Zm0,0"/><path class="a" d="M8.75,13c0.07,0.41.18,0.81,0.27,1.19a0.26,0.26,0,0,0-.3.23,0.27,0.27,0,0,0-.32-0.22A4.26,4.26,0,0,0,8.75,13h0Zm0,0"/><path class="a" d="M8.43,12.45a0.15,0.15,0,0,1,0,.12c0,0.05,0,.05-0.07,0a0.17,0.17,0,0,1-.07-0.07,0,0,0,0,1,0-.05,0.11,0.11,0,0,1,.07-0.07s0,0,0,0h0Zm0,0"/><path class="a" d="M8.73,12l0,0a0.26,0.26,0,0,1,0,.11,0,0,0,0,1-.07,0l-0.05,0a0.09,0.09,0,0,1,0,0,0.19,0.19,0,0,1,0-.07l0,0H8.69l0,0h0Zm0,0"/><path class="a" d="M9,12.39v0a0,0,0,0,1,0,0l0,0s0,0,0,.07a0.12,0.12,0,0,1,0,0,0.06,0.06,0,0,1,0,0,0,0,0,0,1-.06,0,0.15,0.15,0,0,1,0-.14H9Zm0,0"/><path class="a" d="M18.81,19.53c0.07,0.41.18,0.81,0.27,1.19a0.26,0.26,0,0,0-.3.23,0.27,0.27,0,0,0-.32-0.22,4.26,4.26,0,0,0,.35-1.2h0Zm0,0"/><path class="a" d="M18.5,19a0.15,0.15,0,0,1,0,.12c0,0.05,0,.05-0.07,0a0.18,0.18,0,0,1-.07-0.07,0,0,0,0,1,0-.05A0.12,0.12,0,0,1,18.45,19s0,0,0,0h0Zm0,0"/><path class="a" d="M18.82,18.64l0,0a0.27,0.27,0,0,1,0,.11,0,0,0,0,1-.07,0l-0.05,0a0.09,0.09,0,0,1,0,0,0.18,0.18,0,0,1,0-.07l0,0h0.06l0,0h0Zm0,0"/><path class="a" d="M19.09,19v0a0.05,0.05,0,0,1,0,0l0,0s0,0,0,.07a0.12,0.12,0,0,1,0,0,0.06,0.06,0,0,1,0,0,0,0,0,0,1-.06,0,0.15,0.15,0,0,1,0-.14h0Zm0,0"/><path class="a" d="M23.46,12s0,0,0,0c-1,.69-0.44,1.95-0.71,2.84s-0.9,1.17-2,1.1l0,0a1,1,0,0,1,.76-0.28c1.85-.66.73-2.38,1.67-3.49a0,0,0,0,0,0-.05,7,7,0,0,1-2-1.39,0,0,0,0,1,0,0,0.6,0.6,0,0,1,0-.19h0C21.89,11,22.5,12,23.46,12h0Zm0,0"/><path class="a" d="M23.59,12.34A9,9,0,0,1,20.76,22c-0.21-1.17,1.09-2,1.05-3.23a2.5,2.5,0,0,0-1.71-2,0,0,0,0,1,0,0c0-.79.73-0.39,1.25-0.4a2.26,2.26,0,0,0,.59-0.13c2.34-1,.61-2.78,1.67-3.84h0Zm0,0"/><path class="b" d="M22.74,17.39s0,0,0,0a2.17,2.17,0,0,0-1.24-.68,0.35,0.35,0,0,0-.17,0,0.29,0.29,0,0,0-.2.14,0.15,0.15,0,0,0,.07.2,2.59,2.59,0,0,0,1.52.4h0Zm0,0"/><path class="a" d="M19.86,17a0,0,0,0,1,0,0C21,17.45,22,18.34,21.1,19.78c-0.38.72-1.06,1.52-.72,2.34-1.46-.81-3.17,1.1-4.32-0.51a0.06,0.06,0,0,1,0-.09,0.5,0.5,0,0,1,.12-0.13,0.23,0.23,0,0,1,.27.09c1.11,1.29,2.28.09,3.63,0.36,0,0,.07,0,0.07,0a2.81,2.81,0,0,1,0-.4,1.91,1.91,0,0,1,.21-0.52c0.55-1,1.59-2.6-.52-3.46a0.12,0.12,0,0,1-.08-0.18l0.1-.21h0Zm0,0"/><path class="a" d="M20.13,22.47A9,9,0,0,1,10,22.61a1.75,1.75,0,0,1,1.81-.19c0.87,0.22,2.1.24,2.62-.63a0,0,0,0,1,.07,0,1.41,1.41,0,0,0,1.13-.07,0.07,0.07,0,0,1,.06,0,2.24,2.24,0,0,0,2.62.83,2.56,2.56,0,0,1,1.79-.07h0Zm0,0"/><path class="b" d="M15.36,22a0.31,0.31,0,0,0-.21-0.12,0.09,0.09,0,0,0-.09,0,1.41,1.41,0,0,0,.09,1.4s0,0,0,0a3.72,3.72,0,0,0,.22-1.17,0.17,0.17,0,0,0,0-.12h0Zm0,0"/><path class="a" d="M13.81,21.42a0.07,0.07,0,0,1,.09,0,0.87,0.87,0,0,1,.18.09s0,0,0,.06c-1.17,1.71-3.21-.51-4.37.87,0.29-.84,0-1.26-0.6-2.31A1.89,1.89,0,0,1,10.09,17s0.06,0,.06,0a1.25,1.25,0,0,1,0,.25,0.08,0.08,0,0,1,0,0,1.61,1.61,0,0,0-.95,2.41A4.18,4.18,0,0,1,10,21.86a0.07,0.07,0,0,0,.07.08,0.66,0.66,0,0,0,.35-0.1,0.59,0.59,0,0,1,.18,0c1.18,0,2.73.11,3.21-.4h0Zm0,0"/><path class="a" d="M9.46,22.21a9,9,0,0,1-3.2-9.67s0,0,.05,0c1.2,0.67.2,2,.93,3a2.26,2.26,0,0,0,1.5.94,7.09,7.09,0,0,0,1.15-.06s0,0,0,0L10,16.65a0,0,0,0,1,0,0c-1.64.75-2.2,1.9-1.19,3.59a6,6,0,0,1,.72,1.55,0.19,0.19,0,0,1,0,.12,0.91,0.91,0,0,0-.07.27h0Zm0,0"/><path class="b" d="M7.23,17.55s0,0,0,0a2.47,2.47,0,0,0,1.28-.29,0.27,0.27,0,0,0,.11-0.42,0.1,0.1,0,0,0-.06,0,2,2,0,0,0-1.34.68h0Zm0,0"/><path class="a" d="M9.56,16.08s0,0,0,0A1.81,1.81,0,0,1,7.26,14.5c-0.09-.93-0.07-1.93-0.94-2.33,1.23,0.2,1.48-1,2.44-1.67a0,0,0,0,1,0,0l0.1,0.12a0,0,0,0,1,0,0,4.14,4.14,0,0,1-2.08,1.61s0,0,0,0a2.84,2.84,0,0,1,.46.91C7.54,14.55,7.75,15.72,9,16a0.81,0.81,0,0,1,.53.11h0Zm0,0"/><path class="a" d="M8.88,8.37a3,3,0,0,0-.22,1.74,0,0,0,0,1,0,0c-0.78.49-1.11,1.81-2.12,1.72,0,0,0,0,0,0A8.37,8.37,0,0,1,8.88,8.37h0Zm0,0"/><path class="a" d="M9.62,7.77a0,0,0,0,1,0,0,8.06,8.06,0,0,1,5-1.72,0,0,0,0,1,0,0c-0.22,1.42-2.6.88-3,2.83,0,0,0,0,0,0a17,17,0,0,0-2-1.13h0Zm0,0"/><path class="a" d="M15.07,6.1a4,4,0,0,0-.11.48,0.18,0.18,0,0,1,0,.08C13.84,7.74,12.52,7.43,12,9c-0.06.13,0,.27,0.26,0.41,0,0,0,0,0,0-0.06-1.71,2.26-1.6,2.76-2.79a0,0,0,0,1,0,0,3.46,3.46,0,0,0,1.77,1.27,1.53,1.53,0,0,1,.92,1.32s0,0,0,0A0.5,0.5,0,0,0,18.09,9c-0.16-1.16-1.44-1.41-2.47-1.89L15.5,7a1.75,1.75,0,0,1-.43-0.87h0Zm0,0"/><path class="a" d="M15.49,6s0,0,0,0a0.76,0.76,0,0,0,.36.68l0.07,0c1.06,0.43,2.23.75,2.49,2,0,0,0,0,0,0C19,8.39,19.55,8,20.12,7.65c0,0,0,0,0,0A8.62,8.62,0,0,0,15.49,6h0Zm0,0"/><path class="a" d="M21.37,8.65a7.45,7.45,0,0,1,1.95,3s0,0,0,0c-0.86,0-1.27-1.22-2-1.62a0,0,0,0,1,0-.05,3.31,3.31,0,0,0,.11-1.34h0Zm0,0"/><path class="a" d="M1,15A14,14,0,1,1,15,29,14,14,0,0,1,1,15H1ZM15,0A15,15,0,1,0,30,15,15,15,0,0,0,15,0h0Zm0,0"/><path class="a" d="M1.48,15.18A13.52,13.52,0,1,1,15.17,28.53,13.52,13.52,0,0,1,1.48,15.18h0ZM14.83,1.32A13.69,13.69,0,1,0,28.69,14.83,13.69,13.69,0,0,0,14.83,1.32h0Zm0,0"/><path class="b" d="M14.75,21s0,0,0,0L15,21.19l0.06,0a1.11,1.11,0,0,0,.25,0l0.06,0A0.37,0.37,0,0,0,15.44,21a0,0,0,0,0,0,0,3,3,0,0,0-.68,0h0Zm0,0"/><path class="d" d="M14.75,21s0,0,0,0L15,21.19l0.06,0a1.11,1.11,0,0,0,.25,0l0.06,0A0.36,0.36,0,0,0,15.44,21a0,0,0,0,0,0,0,3,3,0,0,0-.68,0h0Zm0,0"/></svg>