<svg id="Layer_2" data-name="Layer 2" xmlns="http://www.w3.org/2000/svg" xmlns:xlink="http://www.w3.org/1999/xlink" viewBox="0 0 30 30"><defs><clipPath id="clip-path"><rect width="30" height="30" fill="none"/></clipPath><clipPath id="clip-path-2"><rect x="37" width="30" height="30" fill="none"/></clipPath></defs><title>slices_fixtures_v03</title><g clip-path="url(#clip-path)"><rect x="-10.2" y="0.029" width="50.4" height="29.839" fill="#fff"/><polygon points="-10.2 2.981 -10.2 11.321 3.97 11.321 -10.2 2.981" fill="#293d7a"/><polygon points="6.014 11.321 8.914 11.321 -10.2 0.029 -10.2 1.8 6.014 11.321" fill="#ed1c24"/><polygon points="-4.613 0.029 11.571 9.99 11.571 0.029 -4.613 0.029" fill="#273e76"/><polygon points="40.205 26.892 40.205 18.627 26.183 18.627 40.205 26.892" fill="#293d7a"/><polygon points="24.139 18.627 21.239 18.627 40.205 29.862 40.205 28.073 24.139 18.627" fill="#ed1c24"/><polygon points="34.761 29.992 18.578 20.031 18.578 29.992 34.761 29.992" fill="#273e76"/><polygon points="40.205 3.057 40.205 11.321 26.183 11.31 40.205 3.057" fill="#293d7a"/><polygon points="18.582 11.321 21.873 11.321 40.205 0.029 36.876 0.029 18.582 11.321" fill="#ed1c24"/><polygon points="34.624 0.029 18.582 9.916 18.582 0.029 34.624 0.029" fill="#273e76"/><polygon points="-10.198 26.963 -10.198 18.624 3.971 18.624 -10.198 26.963" fill="#293d7a"/><polygon points="11.564 18.622 8.273 18.622 -10.209 30 -6.877 30 11.564 18.622" fill="#ed1c24"/><polygon points="-4.619 29.987 11.564 20.026 11.564 29.987 -4.619 29.987" fill="#273e76"/><rect x="12.922" y="0.029" width="4.262" height="29.962" fill="#ed1c24"/><rect x="-10.2" y="12.612" width="50.408" height="4.822" fill="#ed1c24"/></g><g clip-path="url(#clip-path-2)"><polygon points="89 0.025 89 30 26.007 30 26 0.025 89 0.025 89 0.025" fill="#004990" fill-rule="evenodd"/><polygon points="38.628 0.304 38.628 4.702 29.827 0.304 26 0.304 26 2.245 32.696 5.534 26 5.534 26 10.803 32.696 10.803 26 14.13 26 16.032 29.827 16.032 38.628 11.635 38.628 16.032 44.941 16.032 44.941 11.635 53.79 16.032 57.617 16.032 57.617 14.13 50.873 10.803 57.617 10.803 57.617 5.534 50.873 5.534 57.617 2.245 57.617 0.304 53.79 0.304 44.941 4.702 44.941 0.304 38.628 0.304 38.628 0.304" fill="#fff" fill-rule="evenodd"/><polygon points="36.607 5.534 26 0.304 26 1.572 34.063 5.534 36.607 5.534 36.607 5.534" fill="#ed1c24" fill-rule="evenodd"/><polygon points="38.66 10.803 36.559 10.803 26.055 16.032 28.585 16.032 38.66 11.001 38.66 10.803 38.66 10.803" fill="#ed1c24" fill-rule="evenodd"/><polygon points="26 6.603 39.967 6.603 39.967 0.304 43.698 0.304 43.698 6.603 57.617 6.603 57.617 9.693 43.698 9.693 43.698 16.032 39.967 16.032 39.967 9.693 26 9.693 26 6.603 26 6.603" fill="#ed1c24" fill-rule="evenodd"/></g></svg>