<?xml version="1.0" encoding="utf-8"?>
<!-- Generator: Adobe Illustrator 17.0.0, SVG Export Plug-In . SVG Version: 6.00 Build 0)  -->
<!DOCTYPE svg PUBLIC "-//W3C//DTD SVG 1.1 Basic//EN" "http://www.w3.org/Graphics/SVG/1.1/DTD/svg11-basic.dtd">
<svg version="1.1" baseProfile="basic" id="Layer_1"
	 xmlns="http://www.w3.org/2000/svg" xmlns:xlink="http://www.w3.org/1999/xlink" x="0px" y="0px" width="60px" height="60px"
	 viewBox="0 0 60 60" xml:space="preserve">
<style type="text/css">
	.st0{fill:#338956;}
	.st1{fill:none;stroke:#338956;stroke-width:2;stroke-miterlimit:10;}
	.st2{opacity:0.5;fill:#FFFFFF;}
	.st3{fill:#BA8B2D;}
	.st4{fill:#263C83;}
	.st5{fill:#2B2F36;}
	.st6{fill:#9E8644;}
	.st7{fill:#A29165;}
	.st8{fill:#A48C4C;}
	.st9{fill:#FFFFFA;}
	.st10{fill:#A28C51;}
	.st11{fill:#A48C49;}
	.st12{fill:#FFFFFD;}
	.st13{fill:#25397A;}
	.st14{fill:#374041;}
	.st15{fill:#424740;}
	.st16{fill:#E1C177;}
	.st17{fill:#A48C4D;}
	.st18{fill:#323C41;}
	.st19{fill:#2B3B48;}
	.st20{fill:#B98A2D;}
	.st21{fill:#2A3843;}
	.st22{fill:#1D2F44;}
	.st23{fill:#B29349;}
	.st24{fill:#524E35;}
	.st25{fill:#596EB2;}
	.st26{fill:#586EB2;}
	.st27{fill:#D3D3D6;}
	.st28{fill:#596DB3;}
	.st29{fill:#D2D3D9;}
	.st30{fill:#CED4E0;}
	.st31{fill:#B5C7E7;}
	.st32{fill:#D3D3D7;}
	.st33{fill:#5A6DB3;}
	.st34{fill:#E81E25;}
	.st35{fill:#536EB5;}
	.st36{fill:#5A6EAF;}
	.st37{fill:#D7D3D5;}
	.st38{fill:#FCF7FA;}
	.st39{fill:#FCF8FB;}
	.st40{fill:#C6363B;}
	.st41{fill:#C63136;}
	.st42{fill:#576DB4;}
	.st43{fill:#D2D3D8;}
	.st44{fill:#D2D3D7;}
	.st45{fill:#ED1C24;}
	.st46{fill:#E21F26;}
	.st47{fill:#DB1F26;}
	.st48{fill:#D3D3D8;}
	.st49{fill:#E01F26;}
	.st50{fill:#E11F26;}
	.st51{fill:#E91D25;}
	.st52{fill:#E31E26;}
	.st53{fill:#E71E25;}
	.st54{fill:#566DB4;}
	.st55{fill:#D1D3D8;}
	.st56{fill:#BC7D80;}
	.st57{fill:#C86D70;}
	.st58{fill:#C3363A;}
	.st59{fill:#566EB0;}
	.st60{fill:#CE3438;}
	.st61{fill:#CC2A30;}
	.st62{fill:#CA2127;}
	.st63{fill:#CED4DF;}
	.st64{fill:#5A6DB2;}
	.st65{fill:#6C81B9;}
	.st66{fill:#FEF3F8;}
	.st67{fill:#FEF2F4;}
	.st68{fill:#263A7D;}
	.st69{fill:#D0D4DE;}
	.st70{fill:#D2D3D6;}
	.st71{fill:#586DB4;}
	.st72{fill:#C8CDE1;}
	.st73{fill:#586EB0;}
	.st74{fill:#5B72AE;}
	.st75{fill:#2A3A46;}
	.st76{fill:#FFFEF8;}
	.st77{fill:#A69A77;}
	.st78{fill:#323B38;}
	.st79{fill:#1B3461;}
	.st80{fill:#9B916E;}
	.st81{fill:#3B4342;}
	.st82{fill:#FFFEF5;}
	.st83{fill:#FFFEF6;}
	.st84{fill:#263B7F;}
	.st85{fill:#28334A;}
	.st86{fill:#2F3C42;}
	.st87{fill:#FFFEF7;}
	.st88{fill:#FFFEF4;}
	.st89{fill:#253876;}
	.st90{fill:#374654;}
	.st91{fill:#253C58;}
	.st92{fill:#2A3E55;}
	.st93{fill:#C2B388;}
	.st94{fill:#3E4B53;}
	.st95{fill:#FFFFF9;}
	.st96{fill:#293E58;}
	.st97{fill:#A0936B;}
	.st98{fill:#363A31;}
	.st99{fill:#AB945B;}
	.st100{fill:#464B45;}
	.st101{fill:#3B4544;}
	.st102{fill:#2D3F56;}
	.st103{fill:#2F3D49;}
	.st104{fill:#B0A789;}
	.st105{fill-rule:evenodd;clip-rule:evenodd;fill:#252C6A;}
	.st106{fill-rule:evenodd;clip-rule:evenodd;fill:#FFFFFF;}
	.st107{opacity:0.3;}
	.st108{fill:none;stroke:#FFFFFF;stroke-width:7;stroke-miterlimit:10;}
	.st109{fill:none;stroke:#FFFFFF;stroke-width:8;stroke-miterlimit:10;}
	.st110{fill:#FFFFFF;}
	.st111{fill:none;}
</style>
<g>
	<path class="st3" d="M26.944,0.137c4.279-0.386,8.649,0.03,12.719,1.445c5.461,1.84,10.34,5.322,13.902,9.847
		c3.523,4.443,5.73,9.907,6.289,15.55c0.255,3.052,0.161,6.15-0.478,9.152c-0.89,4.307-2.747,8.411-5.399,11.922
		c-2.736,3.631-6.3,6.637-10.351,8.7c-4.201,2.144-8.914,3.295-13.634,3.247c-4.954,0.05-9.9-1.224-14.254-3.575
		c-5.054-2.725-9.292-6.937-12.058-11.969c-1.915-3.479-3.122-7.346-3.537-11.297c-0.373-4.146-0.044-8.39,1.279-12.352
		c1.804-5.685,5.386-10.774,10.082-14.444C15.923,2.877,21.349,0.705,26.944,0.137 M25.838,1.042
		c-6.943,0.984-13.481,4.563-18.031,9.898c-3.275,3.828-5.575,8.496-6.519,13.451c-0.593,2.711-0.472,5.507-0.406,8.261
		c0.398,4.982,2.193,9.826,5.024,13.937c4.784,7.034,12.797,11.785,21.28,12.517c1.402,0.077,2.808,0.056,4.21,0.048
		c2.026,0.003,4.035-0.34,5.991-0.846c4.042-1.042,7.841-2.984,11.074-5.622c6.081-4.916,10.087-12.375,10.657-20.188
		c0.03-2.563,0.178-5.16-0.342-7.687c-0.779-4.485-2.655-8.774-5.414-12.394c-2.919-3.94-6.898-7.067-11.354-9.094
		c-3.572-1.585-7.47-2.546-11.391-2.48C29.023,0.849,27.419,0.807,25.838,1.042 M10.935,47.659c0.422-0.748,1.11-1.288,1.724-1.871
		c0.604,0.487,1.118,1.071,1.679,1.605c-0.166,0.197-0.336,0.39-0.509,0.581c-0.384-0.212-0.732-0.625-1.212-0.537
		c0.214,0.35,0.451,0.682,0.689,1.018c-0.209,0.156-0.423,0.306-0.648,0.439c-0.242-0.184-0.437-0.497-0.748-0.553
		c-0.39,0.28-0.676,0.703-1.14,0.875l0.084-0.097c0.337-0.379,0.706-0.729,1.068-1.085c0.298,0.253,0.595,0.506,0.898,0.754
		c0.091-0.153,0.181-0.305,0.272-0.458c-0.236-0.25-0.47-0.501-0.704-0.753c0.169-0.17,0.339-0.34,0.508-0.511
		c0.275,0.255,0.551,0.506,0.831,0.754c0.12-0.12,0.242-0.241,0.364-0.359c-0.414-0.534-0.901-1.006-1.429-1.426
		C12.07,46.56,11.525,47.135,10.935,47.659 M46.979,45.801c0.287,0.022,0.575,0.014,0.864,0.017
		c0.476,0.131,0.598,0.693,0.979,0.956c0.255,0.205,0.59,0.35,0.728,0.665c0.123,0.384,0.119,0.857-0.181,1.162
		c-0.429,0.501-0.918,0.951-1.415,1.385c-0.642-0.583-1.232-1.218-1.858-1.818c-0.256-0.27-0.511-0.542-0.768-0.811
		C45.886,46.849,46.381,46.27,46.979,45.801 M46.964,46.037c-0.5,0.392-0.914,0.879-1.36,1.329c0.734,0.851,1.566,1.613,2.369,2.397
		c0.573-0.611,1.602-1.142,1.454-2.113c-0.039-0.45-0.548-0.559-0.848-0.796c-0.225-0.247-0.351-0.57-0.604-0.79
		C47.688,45.849,47.245,45.785,46.964,46.037 M14.213,48.192c0.472-0.028,0.945-0.027,1.418,0
		C15.159,48.248,14.683,48.25,14.213,48.192 M14.906,49.12c0.312-0.091,0.647,0.034,0.811,0.32c0.25,0.834-0.548,1.855-1.423,1.724
		C13.49,50.617,14.182,49.404,14.906,49.12 M15.045,49.271c-0.506,0.103-0.792,0.622-0.978,1.06
		c-0.151,0.358,0.223,0.789,0.608,0.656c0.451-0.166,0.79-0.576,0.956-1.02C15.794,49.612,15.428,49.167,15.045,49.271
		 M40.714,50.977c-0.286-0.547,0.495-0.701,0.825-0.937c0.511,0.7,0.834,1.516,1.354,2.207c0.4,0.142,0.759-0.236,1.123-0.361
		c0.125,0.253,0.434,0.545,0.278,0.843c-0.592,0.45-1.268,0.775-1.924,1.121C41.848,52.874,41.226,51.956,40.714,50.977
		 M40.778,50.641c0.462,1.039,1.076,2.01,1.691,2.964c0.597-0.3,1.168-0.645,1.738-0.99c-0.086-0.175-0.173-0.35-0.262-0.522
		c-0.326,0.175-0.64,0.378-0.987,0.515c-0.183-0.048-0.225-0.273-0.331-0.404c-0.362-0.64-0.72-1.284-1.109-1.91
		C41.271,50.407,41.025,50.524,40.778,50.641 M17.61,50.372c0.868-0.172,1.98,0.03,2.325,0.954c0.162,0.515,0.147,1.067-0.011,1.58
		c-0.053,0.223-0.258,0.362-0.4,0.529c0.361-0.698,0.65-1.613,0.12-2.307c-0.419-0.639-1.234-0.684-1.919-0.748L17.61,50.372
		 M20.621,51.49c0.066-0.002,0.197-0.005,0.262-0.006c0.578,0.216,1.148,0.454,1.743,0.622c0.156,0.05,0.311,0.102,0.467,0.153
		c-0.012,0.287-0.053,0.573-0.197,0.828c-0.228-0.036-0.456-0.08-0.686-0.07c-0.248,0.212-0.305,0.561-0.422,0.853
		c-0.159,0.539-0.339,1.071-0.587,1.577c-0.325-0.089-0.803-0.056-0.992-0.361c0.005-0.553,0.233-1.096,0.486-1.58
		c0.086-0.128,0.172-0.255,0.259-0.379c-0.222,0.626-0.44,1.254-0.647,1.885c0.262,0.105,0.525,0.209,0.787,0.314
		c0.351-0.846,0.634-1.719,0.957-2.575c0.258,0.053,0.515,0.103,0.773,0.155c0.033-0.17,0.067-0.339,0.1-0.508
		c-0.704-0.281-1.42-0.54-2.149-0.751c-0.061,0.095-0.183,0.286-0.244,0.383c0.223,0.151,0.45,0.301,0.667,0.464
		c-0.017,0.047-0.048,0.141-0.066,0.187c-0.247-0.159-0.495-0.314-0.745-0.467C20.468,51.971,20.544,51.731,20.621,51.49
		 M14.219,52.088c0.403-0.028,0.809-0.041,1.21,0.006C15.033,52.188,14.619,52.129,14.219,52.088 M40.511,53.149
		c0.281,0.031,0.561,0.066,0.84,0.106c-0.094,0.717-0.447,1.496-1.188,1.73c-0.575,0.155-1.302,0.173-1.737-0.301
		c0.608,0.212,1.326,0.414,1.918,0.045c0.495-0.269,0.726-0.807,0.834-1.334c-0.162-0.016-0.326-0.031-0.489-0.044
		c-0.123,0.187-0.247,0.373-0.373,0.559C40.375,53.655,40.44,53.402,40.511,53.149L40.511,53.149z"/>
	<path class="st4" d="M25.838,1.042c1.58-0.236,3.184-0.194,4.779-0.198c3.921-0.066,7.819,0.895,11.391,2.48
		c4.456,2.027,8.435,5.154,11.354,9.094c2.76,3.62,4.635,7.909,5.414,12.394c0.52,2.527,0.372,5.124,0.342,7.687
		c-0.57,7.813-4.576,15.272-10.657,20.188c-3.233,2.638-7.032,4.58-11.074,5.622c-1.955,0.506-3.965,0.85-5.991,0.846
		c-1.402,0.008-2.808,0.028-4.21-0.048c-8.483-0.732-16.496-5.483-21.28-12.517c-2.831-4.11-4.626-8.955-5.024-13.937
		c-0.066-2.755-0.187-5.55,0.406-8.261c0.943-4.955,3.244-9.623,6.519-13.451C12.358,5.606,18.895,2.026,25.838,1.042 M28.643,2.101
		c0,2.049-0.005,4.096,0.002,6.145c1.377,0.08,2.763,0.105,4.14,0.005c0.112-0.547,0.103-1.109,0.003-1.657
		c-0.595-0.062-1.193-0.083-1.79-0.092c-0.131-1.465,0.055-2.939-0.103-4.402C30.144,2.081,29.393,2.081,28.643,2.101 M22.827,2.926
		c-0.039,0.397,0.011,0.793,0.1,1.179c0.339,1.609,0.593,3.236,0.995,4.832c1.292-0.172,2.583-0.414,3.839-0.764
		c-0.056-0.453-0.151-0.898-0.269-1.338c-0.187,0.014-0.375,0.041-0.559,0.078C26.501,6.9,26.07,6.891,25.637,6.864
		c0.027-0.155,0.052-0.309,0.078-0.462c0.231-0.087,0.478-0.166,0.651-0.351c0.269-0.052,0.537-0.094,0.807-0.136
		c0.011-0.503-0.073-1.003-0.28-1.463c-0.255,0.052-0.509,0.106-0.764,0.161C25.762,4.592,25.384,4.57,25.05,4.4
		c0.28-0.18,0.592-0.308,0.848-0.523c0.306-0.056,0.612-0.128,0.906-0.236c-0.144-0.428-0.067-1.026-0.414-1.332
		C25.195,2.462,24.03,2.807,22.827,2.926 M35.177,3.163c-0.857,0.383-1.118,1.485-0.811,2.311c0.273,0.608,0.864,0.964,1.326,1.412
		c-0.103,0.305-0.301,0.558-0.554,0.753c-0.169-0.32-0.333-0.643-0.489-0.971c-0.439,0.062-0.864,0.197-1.262,0.387
		c0.109,0.389,0.225,0.79,0.487,1.107c0.628,0.823,1.832,1.043,2.774,0.704c0.79-0.281,1.298-1.149,1.188-1.974
		c-0.094-0.472-0.358-0.907-0.715-1.226c0.415-0.109,0.826-0.247,1.207-0.448C38.651,3.574,36.541,2.393,35.177,3.163 M18.594,4.577
		c0.158,0.54,0.437,1.031,0.692,1.529c-0.106,0.181-0.119,0.451-0.319,0.558c-0.187,0.022-0.376,0.006-0.564-0.002
		c-0.265-0.534-0.486-1.09-0.767-1.616c-0.62,0.239-1.26,0.464-1.787,0.884c0.493,1.095,1.017,2.175,1.537,3.258
		c0.345,0.714,0.625,1.462,1.057,2.13c0.625-0.183,1.209-0.479,1.758-0.821c-0.197-0.539-0.472-1.04-0.728-1.549
		c0.025-0.2,0.052-0.398,0.08-0.598c0.216-0.097,0.433-0.197,0.645-0.3c0.322,0.653,0.592,1.332,0.935,1.976
		c0.648-0.145,1.228-0.483,1.799-0.806c-0.778-1.843-1.71-3.615-2.541-5.435C19.738,3.907,19.168,4.261,18.594,4.577 M40.462,5.172
		c-0.725,1.524-1.557,2.997-2.25,4.535c1.112,0.687,2.299,1.252,3.492,1.779c0.256-0.4,0.47-0.826,0.597-1.284
		c-0.425-0.223-0.859-0.429-1.285-0.647c0.009-0.247,0.025-0.492,0.044-0.737c0.34,0.072,0.682,0.144,1.024,0.209
		c0.191,0.1,0.381,0.198,0.575,0.295c0.294-0.395,0.523-0.837,0.634-1.32c-0.387-0.22-0.782-0.426-1.181-0.628
		c-0.017-0.164-0.033-0.33-0.047-0.495c0.309,0.039,0.618,0.077,0.929,0.116c0.234,0.122,0.47,0.237,0.711,0.348
		c0.269-0.411,0.517-0.84,0.637-1.321c-1.092-0.548-2.165-1.137-3.275-1.641C40.734,4.481,40.637,4.903,40.462,5.172 M12.675,8.172
		c-1.496,0.511-2.469,2.285-1.963,3.811c0.309,0.882,0.92,1.676,1.73,2.152c1.676,0.914,4.181-0.027,4.537-1.99l0.173,0.033
		c0.036-0.528,0.305-1.318-0.175-1.679c-0.03-0.072-0.089-0.219-0.12-0.29c-0.456,0.052-0.91,0.136-1.346,0.283
		c0.098,0.753,0.109,1.696-0.7,2.068c-0.181-0.18-0.547-0.164-0.722,0.017c-0.583-0.23-1.09-0.645-1.384-1.203
		c-0.295-0.492-0.264-1.196,0.192-1.585c0.511,0.002,1.023-0.044,1.516-0.18c0.047,0.006,0.142,0.02,0.189,0.027
		c0.097-0.511,0.2-1.026,0.169-1.548C14.077,8.017,13.353,7.95,12.675,8.172 M46.661,9.501c-1.404,0.767-2.864,1.431-4.245,2.239
		c0.295,0.331,0.568,0.75,1.01,0.89c0.272-0.067,0.514-0.212,0.765-0.33c0.264,0.052,0.581,0.02,0.789,0.222
		c0.265,0.233,0.166,0.622,0.189,0.932c-0.047,0.212-0.284,0.469-0.089,0.67c0.394,0.469,0.857,0.884,1.388,1.193
		c0.462-1.391,0.929-2.78,1.371-4.178c0.265-0.864,0.636-1.699,0.796-2.594C47.934,8.765,47.309,9.16,46.661,9.501 M29.413,9.106
		c-3.423,0.055-6.818,1.028-9.79,2.722c-4.332,2.466-7.734,6.528-9.373,11.24c-1.076,3.008-1.381,6.262-1.029,9.43
		c0.52,4.429,2.505,8.682,5.597,11.899c3.231,3.467,7.704,5.728,12.397,6.342c3.618,0.459,7.365,0.027,10.741-1.376
		c4.278-1.751,7.924-4.976,10.218-8.985c2.852-4.929,3.503-11.044,1.838-16.479C48.6,19.16,45.4,15.006,41.238,12.352
		C37.745,10.11,33.563,8.959,29.413,9.106 M5.211,20.836C3.912,21.206,3,22.572,3.148,23.914c0.097,1.087,0.857,2.076,1.879,2.457
		c1.098,0.429,2.438,0.098,3.214-0.787c0.918-0.982,0.979-2.613,0.176-3.683C7.718,20.914,6.361,20.486,5.211,20.836 M53.156,20.832
		c-1.256,0.351-2.202,1.613-2.085,2.93c-0.012,1.652,1.643,3.025,3.262,2.772c1.501-0.136,2.719-1.587,2.557-3.094
		C56.859,21.627,54.864,20.269,53.156,20.832 M4.641,34.004c-0.37-0.016-0.865-0.036-1.029,0.379
		c-0.194,0.534-0.395,1.065-0.628,1.585c-0.181,0.395,0.159,0.726,0.423,0.973c-0.048,0.276-0.148,0.556-0.092,0.84
		c0.098,0.297,0.398,0.44,0.625,0.628c0.34,0.234,0.612,0.554,0.954,0.787c0.342,0.186,0.706-0.027,1.037-0.13
		c0.298,0.191,0.673,0.45,1.028,0.225c0.476-0.308,0.95-0.62,1.441-0.904c0.387-0.236,0.276-0.736,0.247-1.112
		c0.292-0.189,0.656-0.454,0.562-0.857c-0.153-0.575-0.319-1.145-0.447-1.724c-0.109-0.398-0.579-0.442-0.914-0.526
		c-0.134-0.337-0.281-0.789-0.717-0.806c-0.608-0.009-1.21-0.083-1.816-0.105C4.915,33.261,4.785,33.707,4.641,34.004
		 M52.953,33.443c-0.281,0.128-0.308,0.469-0.403,0.725c-0.358,0.086-0.87,0.105-0.973,0.542c-0.128,0.579-0.297,1.149-0.44,1.726
		c-0.069,0.404,0.286,0.668,0.561,0.893c-0.022,0.323-0.134,0.722,0.141,0.975c0.29,0.241,0.647,0.379,0.951,0.6
		c0.326,0.209,0.65,0.543,1.076,0.47c0.208-0.077,0.369-0.236,0.543-0.367c0.326,0.203,0.762,0.426,1.117,0.145
		c0.422-0.362,0.85-0.72,1.288-1.062c0.365-0.286,0.187-0.778,0.105-1.153c0.298-0.223,0.62-0.581,0.433-0.981
		c-0.236-0.523-0.425-1.065-0.639-1.598c-0.183-0.397-0.653-0.367-1.018-0.364c-0.119-0.28-0.226-0.661-0.573-0.722
		c-0.415-0.047-0.828,0.07-1.242,0.067C53.57,33.359,53.237,33.292,52.953,33.443 M46.979,45.801
		c-0.598,0.469-1.093,1.048-1.652,1.557c-0.142,0.131-0.283,0.264-0.422,0.4c-0.184,0.186-0.373,0.367-0.562,0.548
		c0.326,0.884,1.387,1.42,1.37,2.421c-0.098-0.012-0.297-0.036-0.397-0.047c-0.565-0.581-0.978-1.292-1.485-1.921
		c-0.383,0.136-0.693,0.401-1.001,0.657c0.462,0.697,0.92,1.42,1.554,1.974c0.028,0.053,0.086,0.156,0.116,0.209
		c0.69,0.5,1.921,0.29,2.168-0.615c0.334-0.062,0.337-0.837,0.008-0.909c-0.05-0.242-0.191-0.45-0.336-0.642
		c-0.123-0.411-0.325-0.825-0.244-1.265c0.626,0.6,1.217,1.235,1.858,1.818c0.497-0.434,0.985-0.884,1.415-1.385
		c0.3-0.305,0.305-0.778,0.181-1.162c-0.137-0.315-0.473-0.461-0.728-0.665c-0.381-0.262-0.503-0.825-0.979-0.956
		C47.805,45.475,47.037,45.476,46.979,45.801 M10.935,47.659c-0.262,0.244-0.506,0.506-0.748,0.77
		c0.22,0.231,0.444,0.461,0.667,0.69l-0.084,0.097c0.464-0.172,0.75-0.595,1.14-0.875c0.311,0.056,0.506,0.369,0.748,0.553
		l-0.083,0.048c0.142,0.087,0.284,0.175,0.426,0.262c-0.142,0.562-0.351,1.178-0.03,1.721l0.07-0.166
		c0.403,1.012,1.721,1.53,2.671,0.97c0.112,0.017,0.334,0.052,0.445,0.069c0.027,0.615,0.103,1.317,0.697,1.657
		c0.695,0.72,2.001,0.748,2.671-0.02c0.142-0.167,0.347-0.306,0.4-0.529c0.203-0.278,0.483-0.5,0.818-0.286
		c-0.027,0.294-0.044,0.589-0.047,0.884c-0.253,0.484-0.481,1.028-0.486,1.58c0.189,0.305,0.667,0.272,0.992,0.361
		c0.248-0.506,0.428-1.039,0.587-1.577c0.309-0.384,0.722-0.648,1.201-0.767l-0.094-0.016c0.144-0.255,0.184-0.54,0.197-0.828
		c-0.156-0.052-0.311-0.103-0.467-0.153c-0.389-0.533-1.129-0.629-1.743-0.622c-0.066,0.002-0.197,0.005-0.262,0.006
		c-0.233-0.042-0.461-0.098-0.686-0.164c-0.345-0.925-1.457-1.126-2.325-0.954c-0.236,0-0.453,0.117-0.672,0.191
		c-0.009-0.44-0.02-0.895-0.231-1.293c-0.025,0.067-0.075,0.203-0.098,0.272c-0.231-0.49-0.567-0.981-1.124-1.12
		c-0.489-0.106-1.07-0.153-1.505,0.147c-0.194-0.042-0.389-0.084-0.583-0.126c0.144-0.156,0.287-0.312,0.433-0.467
		c0.173-0.191,0.344-0.384,0.509-0.581c-0.561-0.534-1.074-1.118-1.679-1.605C12.045,46.371,11.357,46.911,10.935,47.659
		 M14.213,48.192c0.47,0.058,0.946,0.056,1.418,0C15.158,48.165,14.685,48.164,14.213,48.192 M40.714,50.977
		c0.512,0.979,1.134,1.897,1.655,2.874c0.656-0.347,1.332-0.672,1.924-1.121c0.156-0.298-0.153-0.59-0.278-0.843
		c-0.364,0.125-0.723,0.503-1.123,0.361c-0.52-0.69-0.843-1.507-1.354-2.207C41.209,50.275,40.428,50.43,40.714,50.977
		 M37.434,52.958c-0.019,0.542,0.198,1.121,0.667,1.426c0.102,0.106,0.209,0.206,0.325,0.3c0.434,0.475,1.162,0.456,1.737,0.301
		c0.742-0.234,1.095-1.014,1.188-1.73c-0.28-0.041-0.559-0.075-0.84-0.106c-0.07,0.253-0.136,0.506-0.195,0.762
		c-0.037,0.055-0.112,0.166-0.15,0.22c-0.273-0.083-0.554-0.142-0.818-0.248c-0.319-0.262-0.406-0.692-0.55-1.057
		c0.15-0.201,0.289-0.415,0.479-0.579c0.344,0.005,0.676,0.103,1.007,0.186c0.209-0.251,0.375-0.536,0.403-0.867
		c-0.417-0.201-0.851-0.425-1.326-0.389C38.416,51.245,37.573,52.021,37.434,52.958 M14.219,52.088c0.4,0.041,0.814,0.1,1.21,0.006
		C15.028,52.048,14.622,52.06,14.219,52.088 M23.554,52.407l0.122,0.031c-0.097,0.317-0.186,0.637-0.248,0.962
		c-0.264,0.339-0.384,0.75-0.275,1.174c-0.144,0.487-0.292,0.981-0.286,1.496c-0.027,0.267,0.439,0.334,0.553,0.119
		c0.201,0.078,0.412,0.139,0.626,0.178c0.3,0.364,0.948,0.319,1.284,0.025c0.512-0.426,0.598-1.096,0.494-1.719
		c0.016-0.05,0.045-0.15,0.061-0.198c0.059-0.025,0.178-0.075,0.239-0.1c0.247-0.587-0.022-1.36-0.651-1.566
		C24.92,52.401,24.216,52.338,23.554,52.407 M28.009,52.783c-0.456,0.828-0.837,1.693-1.277,2.528
		c-0.225,0.445-0.503,0.881-0.562,1.387c0.039,0.306,0.74,0.303,0.739-0.02c0.195-0.239,0.387-0.481,0.583-0.72
		c0.483,0.05,0.584,0.579,0.761,0.942c0.369,0.036,0.737,0.059,1.109,0.075c-0.158-0.775-0.447-1.513-0.667-2.271
		C28.489,54.056,28.353,53.378,28.009,52.783 M32.549,53.029c-0.211,0.394-0.011,0.839,0.044,1.248
		c0.184,0.764,0.072,1.604,0.49,2.304l0.011,0.153l0.089,0.117c0.614,0.123,1.254-0.112,1.821-0.344
		c0.164-0.033,0.326-0.072,0.489-0.116c-0.042-0.309-0.087-0.617-0.139-0.925c-0.351-0.078-0.711-0.077-1.067-0.072
		c-0.091-0.454-0.133-0.917-0.176-1.376c-0.053-0.201,0.008-0.554-0.275-0.59c-0.023-0.178-0.045-0.355-0.067-0.533
		C33.375,52.696,32.91,52.815,32.549,53.029 M29.872,53.135c-0.012,0.528-0.075,1.079,0.136,1.58
		c0.005,0.32,0.016,0.642,0.037,0.962c-0.23,0.411-0.091,0.903-0.042,1.342c0.839,0.083,1.679-0.03,2.51-0.148
		c0.02-0.322,0.025-0.642,0.016-0.962c-0.412-0.02-0.823-0.036-1.235-0.047c-0.014-0.912,0.062-1.829-0.069-2.735
		C30.777,53.044,30.319,53.046,29.872,53.135 M32.505,13.827c0.325,0.389,0.461,0.917,0.873,1.238
		c0.935,0.907,2.311,0.968,3.529,1.142c0.255,0.518,0.742,0.837,1.178,1.19c-0.308,0.782-0.884,1.407-1.352,2.091
		c-0.28-0.181-0.551-0.604-0.925-0.426c-0.515,0.247-0.798,0.853-0.679,1.41c0.339,0.03,0.679,0.037,1.018,0.016
		c-0.006,0.258-0.016,0.514-0.012,0.771c0.016,0.317,0.055,0.631,0.092,0.946c-0.514-0.3-1.112-0.793-1.737-0.508
		c-0.693,0.353-0.668,1.296-0.481,1.943c0.108,0.486,0.517,0.804,0.95,0.998c0.469-0.019,0.836-0.311,1.178-0.598
		c0.105,0.261,0.208,0.522,0.303,0.787c-0.008,0.479-0.02,1.032-0.406,1.379c-0.481,0.518-1.231,0.512-1.88,0.55
		c-0.142,0.915,0.547,1.618,0.656,2.486c0.251,1.545,0.475,3.139,1.263,4.52c0.426,0.904,1.257,1.624,2.254,1.81
		c0.762,0.156,1.655-0.069,2.116-0.732c0.426-0.645,0.422-1.495,0.191-2.21c-0.467-1.34-1.709-2.199-2.293-3.472
		c-0.342-0.746-0.319-1.677,0.161-2.36c0.648-0.956,1.634-1.596,2.46-2.382c0.409-0.398,0.803-0.876,0.882-1.46
		c0.102-1.004-0.964-1.958-1.954-1.66c-0.518,0.126-0.746,0.65-0.981,1.073c-0.098,0.164-0.2,0.328-0.301,0.489
		c0-0.462,0.009-0.928,0.098-1.382c0.147-0.222,0.306-0.434,0.486-0.632c1.176-1.012,3.231-0.764,4.087,0.556
		c0.32,0.811,0.322,1.769-0.15,2.524c-0.771,1.256-2.143,1.926-3.198,2.899c-0.345,0.308-0.573,0.715-0.768,1.128
		c0.736-0.529,1.559-1.026,2.505-0.964c0.731,0.083,1.354,0.545,1.771,1.134c0.404,0.92,0.103,1.988-0.654,2.622l-0.117,0.12
		c0.097-0.604,0.32-1.323-0.136-1.838c-0.522-0.782-1.79-0.828-2.369-0.094c-0.301,0.334-0.301,0.809-0.297,1.231
		c0.722,1.012,1.707,1.901,1.999,3.158c0.32,1.032-0.075,2.291-1.059,2.81c-1.167,0.626-2.583,0.378-3.762-0.087
		c-0.087-0.05-0.262-0.148-0.35-0.198c-0.33-0.211-0.659-0.422-1.003-0.612c0.158,0.962,0.657,1.883,1.484,2.425
		c0.778,0.54,1.768,0.509,2.655,0.319c-0.23,0.295-0.473,0.581-0.679,0.895c-1.118,1.549-1.057,3.54-0.943,5.355
		c0.061,0.517-0.453,0.675-0.857,0.751c-0.367,0.033-0.479,0.417-0.654,0.676l-0.095-0.105l-0.075-0.084
		c-0.072-0.198-0.136-0.4-0.2-0.6c-0.108-0.011-0.322-0.033-0.429-0.044c-0.486-0.033-0.707,0.404-0.893,0.773
		c-0.081,0.066-0.245,0.195-0.326,0.261c-0.022-0.384-0.041-0.767-0.058-1.149c-0.3,0.022-0.601,0.045-0.898,0.092
		c-0.265,0.03-0.503,0.156-0.726,0.294c-0.123,0.284-0.217,0.581-0.331,0.871c-0.05-0.078-0.148-0.233-0.198-0.309
		c0.003-0.74-0.458-1.744,0.3-2.26c0.879-0.568,1.98-0.358,2.969-0.459c0.475-0.795,0.898-1.677,0.873-2.624
		c-0.023-0.534-0.186-1.118-0.622-1.463c-0.5-0.197-1.073-0.089-1.571-0.298c-0.442-0.314-0.514-0.931-0.907-1.284
		c-0.384-0.136-0.801-0.122-1.203-0.125c-0.996,0.125-2.096,0.592-2.539,1.551c-0.272,0.622,0.267,1.212,0.814,1.434
		c0.27,0.12,0.55,0.216,0.826,0.32c-0.126,0.058-0.256,0.112-0.384,0.167c-0.514,0.216-1.082,0.403-1.437,0.859
		c-0.578,0.731-0.57,1.737-1.074,2.507c-0.337,0.481-1.009,0.325-1.491,0.533c-0.28,0.275-0.303,0.706-0.448,1.056
		c-0.097-0.379-0.192-0.761-0.284-1.14c-0.322-0.006-0.642-0.014-0.962-0.003c-0.389,0.225-0.689,0.572-0.804,1.01
		c-0.03,0.081-0.091,0.242-0.12,0.323c-0.042-0.067-0.126-0.201-0.169-0.269c0.012-0.364,0.047-0.726,0.083-1.087
		c-0.398,0.005-0.796,0.005-1.193,0.034c-0.084,0.053-0.255,0.159-0.34,0.214c-0.336,0.151-0.158,0.842-0.584,0.762l-0.025-0.105
		c-0.045-0.626-0.144-1.249-0.173-1.877c-0.033-0.334,0.175-0.662,0.486-0.781c1.179-0.448,2.546,0.251,3.67-0.401
		c1.192-0.718,1.484-2.205,1.771-3.459c-0.464-0.336-1.165-0.623-1.16-1.298c-0.072-0.533,0.17-1.054,0.583-1.387
		c1.404-1.245,3.323-1.61,4.863-2.635c0.509-0.328,0.95-0.923,0.762-1.557c-0.123-0.608-0.706-0.906-1.218-1.134
		c0.045,0.448,0.169,0.903,0.087,1.354c-0.344,0.494-1.031,0.461-1.549,0.648c-0.111-0.166-0.223-0.331-0.333-0.497
		c-0.262-0.401-0.481-0.826-0.709-1.246c-0.948,1.173-2.102,2.291-3.623,2.635c-0.312-0.236-0.598-0.537-0.981-0.656
		c-1.046-0.153-2.279,0.579-2.254,1.732c-0.094,0.025-0.28,0.072-0.373,0.097l-0.006-0.134c-0.02-0.376-0.052-0.751-0.084-1.126
		c-0.378,0.114-0.745,0.264-1.103,0.431c0.045-0.362,0.103-0.723,0.166-1.082c-0.209,0.048-0.419,0.098-0.625,0.159
		c-0.111,0.059-0.331,0.178-0.44,0.237c0.083-0.422,0.258-0.815,0.475-1.184c-0.301,0.028-0.603,0.048-0.895,0.13l-0.201,0.072
		c0.092-0.618,0.667-1.015,1.22-1.201c1.112-0.265,2.339,0.062,3.384-0.5c0.842-0.453,1.648-0.973,2.486-1.434
		c1.001-0.593,2.051-1.106,2.995-1.79c-0.664-0.048-1.334-0.098-1.969-0.308c-0.13-0.236-0.264-0.469-0.4-0.7
		c-0.319,0.355-0.639,0.729-1.078,0.937c-0.45,0.23-0.968,0.219-1.46,0.234c-0.281-0.205-0.551-0.42-0.801-0.661
		c0.429-0.131,1.192,0.037,1.288-0.556c0.158-0.517-0.32-0.876-0.729-1.062c-0.7-0.276-1.435-0.44-2.166-0.608
		c-0.002,1.843-0.012,3.686,0.011,5.528c-0.176,0.028-0.353,0.056-0.528,0.081c-0.119-1.907,0.002-3.82-0.053-5.73
		c-0.223-0.023-0.448-0.045-0.67-0.072c-0.281-0.037-0.601-0.077-0.795-0.306c-0.162-0.342-0.264-0.707-0.406-1.057
		c-0.206-0.39,0.248-0.765,0.094-1.16c-0.052-0.267-0.148-0.567,0.023-0.812c0.194-0.387,0.676-0.444,1.062-0.411
		c0.239,0.005,0.478,0.014,0.717,0.022c0-0.111,0.002-0.334,0.002-0.445c-0.239-0.014-0.478-0.027-0.715-0.042
		c-0.348-0.016-0.692-0.078-1.028-0.167c0.203-0.141,0.425-0.248,0.653-0.34c-0.161-0.12-0.323-0.237-0.473-0.37
		c-0.525-0.723-0.873-1.618-0.729-2.524c0.08-0.837,0.659-1.496,1.22-2.074c1.21-0.647,2.738,0.03,3.397,1.156
		c0.539,1.221,0.219,2.774-0.848,3.603c-0.326,0.303-0.851,0.431-0.998,0.892c0.053,0.255,0.052,0.54,0.201,0.764
		c0.362,0.262,0.812,0.358,1.231,0.5c0.576,0.228,1.181,0.429,1.699,0.778c0.601,0.543,1.237,1.068,1.709,1.735
		c0.325,0.458,0.322,1.043,0.412,1.577c0.715-0.123,1.138-0.814,1.19-1.495c0.002-0.381-0.214-0.795,0.031-1.142
		c0.478-0.878,1.056-1.748,1.165-2.766c-0.74-0.339-1.616-0.69-1.858-1.557L27.73,18.73c0.339,0.186,0.634,0.469,1.017,0.562
		c0.333,0.041,0.654-0.087,0.965-0.191c0.917-0.22,1.521-1.337,1.045-2.19c-0.267-0.554-0.96-0.428-1.463-0.445
		c0.417-0.645,1.232-0.731,1.932-0.722c0.287-0.005,0.576-0.011,0.865-0.017C32.098,15.073,32.218,14.42,32.505,13.827
		 M21.111,16.353c-0.144,0.198-0.306,0.386-0.415,0.606c-0.128,0.333,0.1,0.647,0.219,0.943c0.395,0.306,0.768,0.661,0.867,1.174
		c0.842-0.406,1.493-1.482,1.06-2.393C22.515,16.047,21.658,15.935,21.111,16.353 M33.652,17.361
		c0.372,0.453,1.046,0.951,1.641,0.628c-0.301-0.247-0.603-0.511-0.718-0.898C34.258,17.133,33.728,16.914,33.652,17.361
		 M34.949,17.069c-0.052,0.339,0.136,0.575,0.475,0.612c0.086-0.219,0.172-0.436,0.256-0.654
		C35.437,17.039,35.193,17.053,34.949,17.069 M20.165,21.256c-0.019,0.264-0.034,0.528-0.042,0.793
		c0.536,0.069,1.079,0.064,1.613-0.02C21.331,21.596,20.822,21.056,20.165,21.256 M20.332,22.421
		c-0.319,0.094-0.18,0.476-0.231,0.72c0.553,0.186,1.174,0.017,1.651-0.29C21.313,22.619,20.836,22.414,20.332,22.421 M20.31,23.589
		c0.002,0.123,0.005,0.373,0.006,0.498c0.429,0.002,0.856-0.075,1.257-0.234C21.219,23.569,20.75,23.378,20.31,23.589L20.31,23.589z
		"/>
	<path class="st5" d="M28.643,2.101c0.75-0.02,1.501-0.02,2.252-0.002c0.158,1.463-0.028,2.938,0.103,4.402
		c0.597,0.009,1.195,0.03,1.79,0.092c0.1,0.548,0.109,1.11-0.003,1.657c-1.377,0.1-2.763,0.075-4.14-0.005
		C28.639,6.198,28.643,4.15,28.643,2.101 M28.789,2.212c-0.002,1.98-0.003,3.959,0,5.939c1.298,0.094,2.603,0.05,3.903,0.022
		c0.022-0.395,0.016-0.792-0.059-1.179c0.016-0.069,0.048-0.205,0.064-0.272c-0.637-0.016-1.274-0.014-1.91-0.014
		c-0.086-1.482,0.048-2.97-0.059-4.449c-0.052-0.027-0.151-0.083-0.203-0.109C29.944,2.159,29.365,2.153,28.789,2.212 M24.967,4.092
		c0.306-0.086,0.617-0.159,0.931-0.216C25.642,4.092,25.329,4.221,25.05,4.4c0.334,0.17,0.712,0.192,1.081,0.212
		c-0.334,0.069-0.667,0.136-1.001,0.206C25.075,4.577,25.02,4.335,24.967,4.092 M19.286,6.106c0.072,0.153,0.141,0.308,0.211,0.461
		C19.2,6.724,18.9,6.877,18.598,7.027c-0.066-0.122-0.131-0.244-0.195-0.365c0.187,0.008,0.376,0.023,0.564,0.002
		C19.167,6.557,19.179,6.287,19.286,6.106 M42.043,6.551c0.322,0.137,0.64,0.284,0.951,0.445c-0.311-0.039-0.62-0.077-0.929-0.116
		c0.014,0.166,0.03,0.331,0.047,0.495c-0.126-0.064-0.251-0.13-0.375-0.197C41.838,6.969,41.94,6.76,42.043,6.551 M44.192,12.301
		c0.159-0.077,0.319-0.15,0.478-0.223c0.256,0.208,0.511,0.419,0.764,0.631c-0.084,0.25-0.17,0.5-0.264,0.746
		c-0.023-0.311,0.077-0.7-0.189-0.932C44.773,12.321,44.456,12.352,44.192,12.301 M12.617,47.438
		c0.479-0.087,0.828,0.325,1.212,0.537c-0.145,0.155-0.289,0.311-0.433,0.467c0.194,0.042,0.389,0.084,0.583,0.126
		c-0.722,0.484-1.032,1.345-0.937,2.193l-0.07,0.166c-0.322-0.543-0.112-1.159,0.03-1.721c-0.142-0.087-0.284-0.175-0.426-0.262
		l0.083-0.048c0.225-0.133,0.439-0.283,0.648-0.439C13.068,48.12,12.831,47.788,12.617,47.438 M37.434,52.958
		c0.139-0.937,0.982-1.713,1.927-1.782c0.475-0.036,0.909,0.187,1.326,0.389c-0.028,0.331-0.194,0.615-0.403,0.867
		c-0.331-0.083-0.664-0.181-1.007-0.186c-0.191,0.164-0.33,0.378-0.479,0.579c0.144,0.365,0.231,0.795,0.55,1.057
		c0.264,0.106,0.545,0.166,0.818,0.248c-0.375,0-0.867,0.142-1.112-0.236c-0.303-0.436-0.6-1.117-0.183-1.574
		c0.345-0.409,0.934-0.164,1.393-0.175c0.083-0.153,0.166-0.305,0.25-0.456c-0.45-0.151-0.923-0.437-1.409-0.275
		c-0.765,0.162-1.468,0.881-1.381,1.701c0,0.45,0.2,0.865,0.376,1.268C37.632,54.08,37.415,53.5,37.434,52.958 M23.554,52.407
		c0.662-0.069,1.366-0.006,1.918,0.401c-0.595-0.139-1.204-0.211-1.796-0.37L23.554,52.407 M32.549,53.029
		c0.361-0.214,0.826-0.333,1.22-0.133c-0.378,0.084-0.757,0.158-1.137,0.233c0.058,1.162,0.361,2.293,0.451,3.451
		c-0.419-0.7-0.306-1.54-0.49-2.304C32.538,53.867,32.338,53.422,32.549,53.029 M29.872,53.135c0.447-0.089,0.904-0.091,1.352-0.008
		c0.131,0.906,0.055,1.823,0.069,2.735c0.412,0.011,0.823,0.027,1.235,0.047c0.009,0.32,0.005,0.64-0.016,0.962
		c-0.831,0.119-1.671,0.231-2.51,0.148c-0.048-0.439-0.187-0.931,0.042-1.342l0.142-0.073c0.005,0.362,0.009,0.725,0.027,1.087
		c0.109,0.445,0.715,0.194,1.017,0.097c0.342-0.012,0.682-0.023,1.026-0.02l0.183,0.008c-0.019-0.255-0.036-0.508-0.052-0.759
		c-0.406-0.008-0.812-0.011-1.217-0.014c-0.009-0.918-0.009-1.84-0.122-2.753c-0.347-0.005-0.692-0.003-1.039,0.006
		c-0.003,0.486-0.003,0.973-0.003,1.46C29.797,54.214,29.86,53.663,29.872,53.135 M24.491,53.332
		c0.286,0.02,0.689,0.191,0.606,0.543c0.031,0.373-0.451,0.259-0.682,0.323C24.436,53.908,24.463,53.619,24.491,53.332
		L24.491,53.332z"/>
	<path class="st6" d="M28.789,2.212c0.576-0.059,1.156-0.053,1.735-0.062c-0.011,0.162-0.02,0.326-0.028,0.49
		c-0.447-0.169-0.925-0.17-1.391-0.128c-0.008,1.766,0.002,3.534-0.008,5.3l0.006,0.147c1.092,0.066,2.215,0.184,3.287-0.089
		c0.083-0.292,0.166-0.583,0.242-0.876c0.075,0.387,0.081,0.784,0.059,1.179c-1.299,0.028-2.605,0.072-3.903-0.022
		C28.785,6.171,28.787,4.192,28.789,2.212L28.789,2.212z"/>
	<path class="st7" d="M30.524,2.15c0.052,0.027,0.151,0.083,0.203,0.109c0.108,1.479-0.027,2.967,0.059,4.449
		c0.636,0,1.273-0.002,1.91,0.014c-0.016,0.067-0.048,0.203-0.064,0.272c-0.077,0.294-0.159,0.584-0.242,0.876
		c-0.027-0.27-0.052-0.542-0.078-0.812c-0.614-0.033-1.229-0.044-1.843-0.045c-0.05-1.457-0.055-2.917,0.027-4.373
		C30.503,2.476,30.513,2.312,30.524,2.15L30.524,2.15z"/>
	<path class="st8" d="M22.827,2.926c1.203-0.119,2.368-0.464,3.562-0.617c0.347,0.306,0.27,0.904,0.414,1.332
		c-0.294,0.108-0.6,0.18-0.906,0.236c-0.314,0.056-0.625,0.13-0.931,0.216c0.053,0.242,0.108,0.484,0.162,0.726
		c0.334-0.07,0.667-0.137,1.001-0.206c0.255-0.055,0.509-0.109,0.764-0.161c0.206,0.461,0.29,0.96,0.28,1.463
		c-0.27,0.042-0.539,0.084-0.807,0.136c-0.32,0.056-0.637,0.126-0.953,0.205c0.044,0.3,0.087,0.6,0.131,0.898
		c0.47-0.028,0.931-0.13,1.388-0.241c0.184-0.037,0.372-0.064,0.559-0.078c0.117,0.44,0.212,0.885,0.269,1.338
		c-1.256,0.35-2.547,0.592-3.839,0.764c-0.401-1.596-0.656-3.223-0.995-4.832C22.838,3.719,22.788,3.323,22.827,2.926 M23.166,3.246
		c0.02,0.32,0.058,0.64,0.128,0.954c0.312,1.443,0.554,2.9,0.89,4.338c1.012-0.102,2.008-0.334,3.002-0.551
		c0.345-0.08,0.072-0.525,0.086-0.756c-0.65,0.042-1.276,0.244-1.926,0.289c-0.114-0.506-0.22-1.014-0.305-1.524
		c0.598-0.134,1.198-0.259,1.794-0.401c-0.047-0.241-0.095-0.483-0.144-0.725c-0.611,0.062-1.21,0.184-1.816,0.273
		c-0.123-0.44-0.203-0.893-0.211-1.351c0.581-0.108,1.159-0.233,1.733-0.375c-0.05-0.245-0.103-0.49-0.158-0.734
		C25.208,2.826,24.192,3.066,23.166,3.246 M40.462,5.172c0.175-0.269,0.272-0.69,0.604-0.79c1.11,0.504,2.183,1.093,3.275,1.641
		c-0.12,0.481-0.369,0.91-0.637,1.321c-0.24-0.111-0.476-0.226-0.711-0.348c-0.311-0.161-0.629-0.308-0.951-0.445
		c-0.103,0.209-0.205,0.419-0.306,0.628c0.123,0.067,0.248,0.133,0.375,0.197c0.398,0.201,0.793,0.408,1.181,0.628
		c-0.111,0.483-0.34,0.925-0.634,1.32c-0.194-0.097-0.384-0.195-0.575-0.295c-0.339-0.181-0.679-0.356-1.024-0.523
		c-0.147,0.28-0.292,0.562-0.433,0.845c0.128,0.069,0.258,0.137,0.389,0.206c0.426,0.217,0.861,0.423,1.285,0.647
		c-0.126,0.458-0.34,0.884-0.597,1.284c-1.193-0.526-2.38-1.092-3.492-1.779C38.905,8.169,39.738,6.696,40.462,5.172 M41.089,4.748
		c-0.829,1.596-1.663,3.191-2.439,4.813c0.932,0.575,1.935,1.023,2.906,1.526c0.114-0.231,0.22-0.467,0.315-0.707
		c-0.543-0.29-1.087-0.581-1.637-0.862c0.161-0.506,0.411-0.976,0.706-1.416c0.556,0.255,1.092,0.554,1.66,0.782
		c0.1-0.236,0.201-0.472,0.303-0.707c-0.52-0.287-1.049-0.554-1.573-0.832c0.156-0.425,0.355-0.832,0.576-1.226
		c0.583,0.222,1.124,0.529,1.691,0.784c0.112-0.236,0.209-0.478,0.284-0.728C42.956,5.69,42.016,5.231,41.089,4.748 M46.661,9.501
		c0.648-0.34,1.273-0.736,1.976-0.954c-0.161,0.895-0.531,1.73-0.796,2.594c-0.442,1.398-0.909,2.786-1.371,4.178
		c-0.531-0.309-0.995-0.725-1.388-1.193c-0.195-0.201,0.042-0.458,0.089-0.67c0.094-0.247,0.18-0.497,0.264-0.746
		c-0.253-0.212-0.508-0.423-0.764-0.631c-0.159,0.073-0.319,0.147-0.478,0.223c-0.251,0.117-0.493,0.262-0.765,0.33
		c-0.442-0.141-0.715-0.559-1.01-0.89C43.797,10.931,45.257,10.267,46.661,9.501 M47.114,9.637
		c-1.374,0.736-2.758,1.449-4.145,2.157c0.15,0.189,0.311,0.369,0.479,0.542c0.42-0.178,0.832-0.373,1.235-0.587
		c0.384,0.264,0.731,0.578,1.045,0.923c-0.141,0.404-0.275,0.809-0.412,1.212c0.298,0.32,0.622,0.625,1.018,0.823
		c0.562-1.846,1.252-3.653,1.774-5.51C47.766,9.318,47.432,9.462,47.114,9.637 M23.675,52.438c0.592,0.159,1.201,0.231,1.796,0.37
		c0.629,0.206,0.898,0.979,0.651,1.566c-0.061,0.025-0.18,0.075-0.239,0.1c0.116-0.42,0.223-0.984-0.176-1.29
		c-0.565-0.375-1.265-0.431-1.918-0.534c-0.233,1.087-0.581,2.15-0.718,3.256c0.662,0.155,1.345,0.498,2.035,0.33
		c0.625-0.261,0.492-1.042,0.717-1.563c0.105,0.623,0.019,1.293-0.494,1.719c-0.428-0.022-0.856-0.016-1.284-0.025
		c-0.214-0.039-0.425-0.1-0.626-0.178c-0.172-0.081-0.359-0.181-0.553-0.119c-0.006-0.515,0.142-1.009,0.286-1.496
		c0.114-0.386,0.2-0.779,0.275-1.174C23.49,53.075,23.579,52.755,23.675,52.438L23.675,52.438z"/>
	<path class="st9" d="M29.104,2.512c0.467-0.042,0.945-0.041,1.391,0.128c-0.081,1.456-0.077,2.916-0.027,4.373
		c0.614,0.002,1.229,0.012,1.843,0.045c0.027,0.27,0.052,0.542,0.078,0.812c-1.096-0.066-2.196-0.022-3.294-0.058
		C29.106,6.046,29.096,4.278,29.104,2.512 M23.166,3.246c1.026-0.18,2.041-0.42,3.075-0.562c0.055,0.244,0.108,0.489,0.158,0.734
		c-0.575,0.142-1.153,0.267-1.733,0.375c0.008,0.458,0.087,0.91,0.211,1.351c0.606-0.089,1.206-0.211,1.816-0.273
		c0.048,0.242,0.097,0.484,0.144,0.725c-0.597,0.142-1.196,0.267-1.794,0.401c0.084,0.511,0.191,1.018,0.305,1.524
		c0.65-0.045,1.276-0.247,1.926-0.289c-0.014,0.231,0.259,0.676-0.086,0.756c-0.993,0.217-1.99,0.45-3.002,0.551
		C23.849,7.1,23.607,5.643,23.294,4.2C23.224,3.886,23.187,3.566,23.166,3.246 M35.213,3.529c1.034-0.637,2.613-0.02,2.839,1.212
		c-0.209,0.084-0.42,0.162-0.636,0.233c-0.17-0.4-0.328-0.954-0.859-0.964c-0.548-0.133-0.889,0.537-0.629,0.973
		c0.303,0.525,0.896,0.79,1.257,1.271c0.503,0.572,0.369,1.526-0.201,2.004c-0.62,0.55-1.58,0.529-2.286,0.166
		c-0.476-0.247-0.743-0.734-0.94-1.21c0.216-0.028,0.439-0.144,0.657-0.081c0.273,0.337,0.506,0.859,1.026,0.809
		c0.558,0.03,0.903-0.697,0.587-1.132c-0.444-0.568-1.19-0.914-1.412-1.641C34.503,4.57,34.651,3.854,35.213,3.529 M41.089,4.748
		c0.928,0.483,1.868,0.942,2.794,1.426c-0.075,0.25-0.172,0.492-0.284,0.728c-0.567-0.255-1.109-0.562-1.691-0.784
		c-0.222,0.394-0.42,0.801-0.576,1.226c0.523,0.278,1.053,0.545,1.573,0.832C42.802,8.412,42.7,8.648,42.6,8.884
		c-0.568-0.228-1.104-0.528-1.66-0.782c-0.295,0.44-0.545,0.91-0.706,1.416c0.55,0.281,1.093,0.572,1.637,0.862
		c-0.095,0.241-0.201,0.476-0.315,0.707c-0.971-0.503-1.974-0.951-2.906-1.526C39.425,7.939,40.259,6.344,41.089,4.748
		 M11.304,9.752c0.584-1.109,1.915-1.585,3.109-1.351c-0.02,0.261-0.044,0.522-0.066,0.782c-0.568,0.008-1.215-0.03-1.668,0.379
		c-0.508,0.417-0.676,1.167-0.378,1.755c0.369,0.77,1.046,1.502,1.93,1.618c0.565,0.087,1.156-0.198,1.434-0.698
		c0.278-0.425,0.2-0.953,0.269-1.431c0.148-0.239,0.506-0.106,0.745-0.167c0.033,0.608,0.075,1.242-0.151,1.819
		c-0.375,0.995-1.415,1.654-2.463,1.676C11.917,14.347,10.125,11.604,11.304,9.752 M47.114,9.637
		c0.319-0.175,0.653-0.319,0.995-0.44c-0.522,1.857-1.212,3.664-1.774,5.51c-0.397-0.198-0.72-0.503-1.018-0.823
		c0.137-0.403,0.272-0.807,0.412-1.212c-0.314-0.345-0.661-0.659-1.045-0.923c-0.403,0.214-0.815,0.409-1.235,0.587
		c-0.169-0.173-0.33-0.353-0.479-0.542C44.356,11.086,45.739,10.372,47.114,9.637 M45.266,11.429
		c0.216,0.197,0.44,0.383,0.672,0.561c0.15-0.342,0.264-0.697,0.339-1.062C45.924,11.061,45.586,11.231,45.266,11.429L45.266,11.429
		z"/>
	<path class="st10" d="M35.177,3.163c1.363-0.77,3.473,0.411,3.152,2.055c-0.408,0.014-0.814,0.037-1.221,0.061
		c-0.102-0.289-0.206-0.575-0.311-0.862c-0.195-0.009-0.392-0.019-0.587-0.027c-0.048,0.617,0.515,0.921,0.912,1.276
		c0.358,0.319,0.622,0.754,0.715,1.226c0.109,0.825-0.398,1.693-1.188,1.974c-0.942,0.339-2.146,0.119-2.774-0.704
		c-0.262-0.317-0.378-0.718-0.487-1.107c0.398-0.191,0.823-0.325,1.262-0.387c0.156,0.328,0.32,0.651,0.489,0.971
		c0.305,0.006,0.578-0.111,0.807-0.308c-0.083-0.15-0.164-0.3-0.253-0.445c-0.462-0.448-1.053-0.804-1.326-1.412
		C34.059,4.648,34.32,3.546,35.177,3.163 M35.213,3.529c-0.562,0.325-0.711,1.042-0.597,1.638c0.222,0.728,0.968,1.073,1.412,1.641
		c0.315,0.436-0.03,1.162-0.587,1.132c-0.52,0.05-0.753-0.472-1.026-0.809c-0.219-0.062-0.442,0.053-0.657,0.081
		c0.197,0.476,0.464,0.964,0.94,1.21c0.706,0.364,1.666,0.384,2.286-0.166c0.57-0.478,0.704-1.432,0.201-2.004
		c-0.361-0.481-0.954-0.747-1.257-1.271c-0.259-0.436,0.081-1.106,0.629-0.973c0.531,0.009,0.689,0.564,0.859,0.964
		c0.216-0.07,0.426-0.148,0.636-0.233C37.826,3.508,36.247,2.892,35.213,3.529L35.213,3.529z"/>
	<path class="st11" d="M18.594,4.577c0.575-0.315,1.145-0.67,1.799-0.793c0.831,1.819,1.763,3.592,2.541,5.435
		c-0.572,0.323-1.151,0.661-1.799,0.806c-0.344-0.643-0.614-1.323-0.935-1.976c-0.362-0.13-0.686,0.126-1.001,0.264
		c0.091,0.212,0.18,0.425,0.276,0.634c0.256,0.509,0.531,1.01,0.728,1.549c-0.55,0.342-1.134,0.639-1.758,0.821
		c-0.433-0.668-0.712-1.416-1.057-2.13c-0.52-1.082-1.043-2.163-1.537-3.258c0.526-0.42,1.167-0.645,1.787-0.884
		c0.281,0.526,0.501,1.082,0.767,1.616c0.064,0.122,0.13,0.244,0.195,0.365c0.301-0.15,0.601-0.303,0.898-0.461
		c-0.07-0.153-0.139-0.308-0.211-0.461C19.031,5.607,18.751,5.117,18.594,4.577 M19.031,4.722c0.231,0.69,0.604,1.321,0.856,2.004
		c-0.465,0.272-0.953,0.5-1.456,0.69c-0.361-0.623-0.628-1.295-0.97-1.927c-0.408,0.147-0.8,0.331-1.185,0.526
		c0.722,1.662,1.541,3.283,2.33,4.916c0.401-0.167,0.792-0.359,1.162-0.586c-0.305-0.732-0.679-1.434-0.982-2.168
		c0.484-0.255,0.978-0.497,1.493-0.682c0.383,0.701,0.647,1.466,1.093,2.133c0.386-0.172,0.764-0.358,1.129-0.572
		C21.755,7.424,20.997,5.79,20.162,4.2C19.774,4.35,19.396,4.523,19.031,4.722L19.031,4.722z"/>
	<path class="st12" d="M19.031,4.722c0.365-0.198,0.743-0.372,1.131-0.522c0.836,1.59,1.593,3.223,2.339,4.857
		c-0.365,0.214-0.743,0.4-1.129,0.572c-0.447-0.667-0.711-1.432-1.093-2.133c-0.515,0.186-1.009,0.428-1.493,0.682
		c0.303,0.734,0.678,1.435,0.982,2.168c-0.37,0.226-0.761,0.419-1.162,0.586c-0.789-1.634-1.609-3.255-2.33-4.916
		c0.386-0.195,0.778-0.379,1.185-0.526c0.342,0.632,0.609,1.304,0.97,1.927c0.503-0.191,0.99-0.419,1.456-0.69
		C19.635,6.043,19.262,5.412,19.031,4.722L19.031,4.722z"/>
	<path class="st13" d="M36.21,4.391c0.195,0.008,0.392,0.017,0.587,0.027c0.105,0.287,0.209,0.573,0.311,0.862
		c0.408-0.023,0.814-0.047,1.221-0.061c-0.381,0.201-0.792,0.339-1.207,0.448C36.725,5.312,36.161,5.008,36.21,4.391L36.21,4.391z"
		/>
	<path class="st14" d="M25.414,6.255c0.315-0.078,0.632-0.148,0.953-0.205c-0.173,0.186-0.42,0.264-0.651,0.351
		c-0.027,0.153-0.052,0.308-0.078,0.462c0.433,0.027,0.864,0.036,1.296,0.048c-0.458,0.111-0.918,0.212-1.388,0.241
		C25.501,6.855,25.457,6.555,25.414,6.255L25.414,6.255z"/>
	<path class="st15" d="M35.693,6.886c0.089,0.145,0.17,0.295,0.253,0.445c-0.23,0.197-0.503,0.314-0.807,0.308
		C35.391,7.444,35.59,7.191,35.693,6.886L35.693,6.886z"/>
	<path class="st16" d="M29.096,7.812c1.098,0.036,2.197-0.008,3.294,0.058c-1.073,0.273-2.196,0.155-3.287,0.089L29.096,7.812
		L29.096,7.812z"/>
	<path class="st17" d="M12.675,8.172c0.678-0.222,1.402-0.155,2.097-0.084c0.031,0.522-0.072,1.037-0.169,1.548
		c-0.047-0.006-0.142-0.02-0.189-0.027c-0.512-0.091-1.078-0.175-1.516,0.18c-0.456,0.389-0.487,1.093-0.192,1.585
		c0.294,0.558,0.801,0.973,1.384,1.203c0.219,0.131,0.52,0.164,0.722-0.017c0.809-0.372,0.798-1.315,0.7-2.068
		c0.436-0.147,0.89-0.231,1.346-0.283c0.031,0.072,0.091,0.219,0.12,0.29c0.052,0.547,0.056,1.099,0.002,1.646
		c-0.356,1.963-2.861,2.903-4.537,1.99c-0.811-0.476-1.421-1.27-1.73-2.152C10.206,10.456,11.179,8.682,12.675,8.172 M11.304,9.752
		c-1.179,1.852,0.614,4.595,2.761,4.384c1.048-0.022,2.088-0.681,2.463-1.676c0.226-0.578,0.184-1.212,0.151-1.819
		c-0.239,0.061-0.597-0.072-0.745,0.167c-0.069,0.478,0.009,1.006-0.269,1.431c-0.278,0.5-0.868,0.786-1.434,0.698
		c-0.884-0.116-1.562-0.848-1.93-1.618c-0.298-0.589-0.13-1.338,0.378-1.755c0.453-0.409,1.099-0.372,1.668-0.379
		c0.022-0.261,0.045-0.522,0.066-0.782C13.218,8.167,11.888,8.643,11.304,9.752 M32.632,53.129c0.379-0.075,0.759-0.148,1.137-0.233
		c0.022,0.178,0.044,0.355,0.067,0.533c0.081,0.756,0.175,1.513,0.37,2.249c0.384-0.058,0.768-0.123,1.148-0.211
		c0.052,0.308,0.097,0.615,0.139,0.925c-0.162,0.044-0.325,0.083-0.489,0.116c-0.637,0.072-1.277,0.114-1.91,0.226l-0.011-0.153
		C32.993,55.421,32.69,54.29,32.632,53.129 M32.771,53.261c0.158,1.098,0.33,2.193,0.515,3.286c0.682-0.056,1.356-0.186,2.026-0.322
		c-0.044-0.176-0.089-0.353-0.133-0.528c-0.37,0.062-0.739,0.125-1.109,0.181c-0.241-0.912-0.276-1.862-0.497-2.777
		C33.305,53.154,33.038,53.205,32.771,53.261L32.771,53.261z"/>
	<path class="st18" d="M19.198,8.312c0.315-0.137,0.639-0.394,1.001-0.264c-0.212,0.103-0.429,0.203-0.645,0.3
		c-0.028,0.2-0.055,0.398-0.08,0.598C19.378,8.737,19.289,8.525,19.198,8.312L19.198,8.312z"/>
	<path class="st19" d="M40.626,9.349c0.141-0.283,0.286-0.565,0.433-0.845c0.345,0.167,0.686,0.342,1.024,0.523
		c-0.342-0.066-0.684-0.137-1.024-0.209c-0.019,0.245-0.034,0.49-0.044,0.737C40.884,9.487,40.754,9.418,40.626,9.349L40.626,9.349z
		"/>
	<path class="st20" d="M29.413,9.106c4.149-0.147,8.332,1.004,11.825,3.247c4.162,2.653,7.362,6.807,8.774,11.546
		c1.665,5.435,1.014,11.55-1.838,16.479c-2.294,4.009-5.941,7.234-10.218,8.985c-3.376,1.402-7.123,1.835-10.741,1.376
		c-4.693-0.614-9.166-2.875-12.397-6.342c-3.092-3.217-5.077-7.47-5.597-11.899c-0.351-3.167-0.047-6.422,1.029-9.43
		c1.64-4.712,5.041-8.774,9.373-11.24C22.595,10.133,25.99,9.16,29.413,9.106 M27.858,9.888c-2.482,0.244-4.907,0.981-7.123,2.121
		c-4.363,2.229-7.849,6.105-9.608,10.677c-1.568,4.039-1.785,8.578-0.625,12.751c1.193,4.34,3.898,8.243,7.535,10.891
		c3.515,2.594,7.899,3.99,12.267,3.896c4.198-0.039,8.369-1.449,11.735-3.959c3.593-2.65,6.273-6.52,7.452-10.829
		c1.179-4.249,0.935-8.886-0.715-12.978c-1.641-4.124-4.698-7.66-8.524-9.904C36.552,10.364,32.132,9.419,27.858,9.888
		 M44.905,47.758c0.543,0.498,0.978,1.099,1.434,1.676c0.145,0.192,0.286,0.4,0.336,0.642c0.002,0.303-0.002,0.604-0.008,0.909
		c-0.247,0.906-1.477,1.115-2.168,0.615c0.439,0.05,0.903,0.226,1.335,0.044c0.648-0.23,1.017-1.112,0.617-1.702
		c-0.422-0.695-0.946-1.32-1.462-1.944c-0.145,0.136-0.289,0.275-0.431,0.414c0.439,0.678,1.015,1.263,1.418,1.966
		c0.203,0.409-0.437,0.851-0.745,0.497c-0.561-0.583-0.957-1.299-1.499-1.899c-0.228,0.173-0.454,0.347-0.679,0.523
		c0.439,0.632,0.953,1.218,1.331,1.893c-0.634-0.554-1.092-1.277-1.554-1.974c0.308-0.256,0.618-0.522,1.001-0.657
		c0.508,0.629,0.92,1.34,1.485,1.921c0.1,0.011,0.298,0.034,0.397,0.047c0.017-1.001-1.043-1.537-1.37-2.421
		C44.532,48.125,44.721,47.944,44.905,47.758 M28.009,52.783c0.344,0.595,0.479,1.273,0.684,1.921
		c0.22,0.757,0.509,1.496,0.667,2.271c-0.372-0.016-0.74-0.039-1.109-0.075c-0.176-0.362-0.278-0.892-0.761-0.942
		c-0.195,0.239-0.387,0.481-0.583,0.72c-0.245-0.025-0.493-0.016-0.739,0.02c0.059-0.506,0.337-0.942,0.562-1.387
		C27.172,54.476,27.553,53.611,28.009,52.783 M27.995,53.239c-0.583,1.09-1.195,2.177-1.626,3.337
		c0.122,0.003,0.364,0.008,0.484,0.011c0.131-0.251,0.262-0.503,0.39-0.754c0.267,0.036,0.533,0.078,0.798,0.126
		c0.087,0.25,0.178,0.5,0.269,0.75c0.273,0.03,0.548,0.053,0.825,0.07C28.823,55.582,28.482,54.378,27.995,53.239L27.995,53.239z"/>
	<path class="st21" d="M12.898,9.788c0.439-0.355,1.004-0.27,1.516-0.18C13.921,9.744,13.409,9.79,12.898,9.788L12.898,9.788z"/>
	<path class="st22" d="M16.977,10.499c0.479,0.361,0.211,1.151,0.175,1.679l-0.173-0.033C17.034,11.598,17.029,11.045,16.977,10.499
		L16.977,10.499z"/>
	<path class="st23" d="M45.266,11.429c0.32-0.198,0.657-0.369,1.01-0.501c-0.075,0.365-0.189,0.72-0.339,1.062
		C45.707,11.812,45.482,11.626,45.266,11.429L45.266,11.429z"/>
	<path class="st24" d="M14.09,12.576c0.175-0.181,0.54-0.197,0.722-0.017C14.61,12.74,14.308,12.707,14.09,12.576L14.09,12.576z"/>
	<path class="st25" d="M31.225,15.746c-0.225-0.914,0.568-1.548,1.281-1.919c-0.287,0.593-0.408,1.246-0.415,1.902
		C31.801,15.735,31.512,15.741,31.225,15.746 M29.185,16.469l0.108-0.002c0.503,0.017,1.196-0.109,1.463,0.445
		c0.476,0.853-0.128,1.969-1.045,2.19c0.292-0.509,0.634-1.106,0.392-1.705c-0.114-0.39-0.57-0.428-0.89-0.551
		C29.205,16.752,29.191,16.563,29.185,16.469L29.185,16.469z"/>
	<path class="st26" d="M18.881,16.524c0.22-0.77,0.809-1.445,1.576-1.704c-0.561,0.578-1.14,1.237-1.22,2.074
		c-0.144,0.906,0.205,1.801,0.729,2.524C18.951,18.891,18.603,17.573,18.881,16.524 M23.118,44.433
		c0.397-0.03,0.795-0.03,1.193-0.034c-0.036,0.361-0.07,0.723-0.083,1.087c-0.089-0.056-0.269-0.17-0.358-0.228
		C23.758,44.85,23.621,44.431,23.118,44.433L23.118,44.433z"/>
	<path class="st27" d="M23.854,15.975c0.554,0.048,0.806,0.604,1.006,1.049c0.333,0.909,0.186,1.986-0.401,2.761
		c-0.389,0.554-0.982,0.909-1.571,1.218c-0.276-0.203-0.579-0.369-0.879-0.534c0.147-0.461,0.672-0.589,0.998-0.892
		C24.072,18.749,24.392,17.197,23.854,15.975 M43.437,28.119c0.654,0.226,1.106,0.878,1.106,1.57
		c0.069,0.979-0.64,1.877-1.529,2.224c-0.039-0.398-0.092-0.795-0.231-1.171C43.54,30.107,43.842,29.039,43.437,28.119
		 M29.582,41.469c0.355-0.456,0.923-0.643,1.437-0.859c0.423,0.208,0.856,0.392,1.292,0.572c-0.647,0.328-1.432,0.509-1.869,1.137
		c-0.506,0.695-0.5,1.616-0.945,2.338c-0.34,0.553-1.06,0.406-1.579,0.626c-0.205,0.311-0.262,0.697-0.412,1.035
		c-0.345-0.209-0.664-0.459-0.937-0.754c0.145-0.35,0.169-0.781,0.448-1.056c0.483-0.208,1.154-0.052,1.491-0.533
		C29.012,43.205,29.004,42.2,29.582,41.469L29.582,41.469z"/>
	<path class="st28" d="M21.111,16.353c0.547-0.419,1.404-0.306,1.73,0.331c0.433,0.91-0.219,1.986-1.06,2.393
		c-0.098-0.514-0.472-0.868-0.867-1.174c0.458-0.031,1.171,0.027,1.213-0.603C22.236,16.685,21.586,16.458,21.111,16.353
		L21.111,16.353z"/>
	<path class="st29" d="M21.111,16.353c0.475,0.105,1.124,0.331,1.017,0.946c-0.042,0.629-0.756,0.572-1.213,0.603
		c-0.119-0.297-0.347-0.611-0.219-0.943C20.805,16.739,20.967,16.552,21.111,16.353L21.111,16.353z"/>
	<path class="st30" d="M33.652,17.361c0.077-0.447,0.606-0.228,0.923-0.27c0.116,0.387,0.417,0.651,0.718,0.898
		C34.698,18.312,34.023,17.814,33.652,17.361L33.652,17.361z"/>
	<path class="st31" d="M34.949,17.069c0.244-0.016,0.487-0.03,0.731-0.042c-0.084,0.219-0.17,0.436-0.256,0.654
		C35.085,17.643,34.898,17.408,34.949,17.069L34.949,17.069z"/>
	<path class="st32" d="M38.085,17.397c0.301,0.273,0.765,0.472,0.862,0.895c-0.201,0.514-0.584,0.929-0.851,1.407
		c-0.259-0.072-0.514-0.156-0.775-0.214c-0.103,0.136-0.178,0.287-0.223,0.454c-0.426-0.364-0.739,0.251-0.951,0.548
		c-0.339,0.022-0.679,0.014-1.018-0.016c-0.119-0.558,0.164-1.163,0.679-1.41c0.373-0.178,0.645,0.245,0.925,0.426
		C37.201,18.804,37.778,18.179,38.085,17.397 M32.993,45.089c0.223-0.137,0.461-0.264,0.726-0.294
		c0.106,0.019,0.32,0.058,0.426,0.077c0.117,0.223,0.236,0.448,0.358,0.67c-0.529,0.137-0.728,0.65-0.943,1.092
		C33.144,46.224,33.111,45.625,32.993,45.089L32.993,45.089z"/>
	<path class="st33" d="M27.663,19.669c-0.067-0.276,0.033-0.547,0.125-0.804c0.242,0.867,1.118,1.218,1.858,1.557
		c-0.109,1.018-0.687,1.888-1.165,2.766c-0.245,0.347-0.03,0.761-0.031,1.142c-0.052,0.681-0.475,1.371-1.19,1.495
		c-0.091-0.534-0.087-1.12-0.412-1.577c-0.472-0.667-1.107-1.192-1.709-1.735c0.736,0.058,1.465,0.186,2.202,0.225
		c0.481-0.604,0.887-1.263,1.245-1.947C28.229,20.467,27.731,20.192,27.663,19.669 M39.889,21.296
		c0.99-0.298,2.055,0.656,1.954,1.66c-0.08,0.584-0.473,1.062-0.882,1.46c-0.826,0.786-1.812,1.426-2.46,2.382
		c-0.479,0.682-0.503,1.613-0.161,2.36c0.584,1.273,1.826,2.132,2.293,3.472c0.231,0.715,0.236,1.565-0.191,2.21
		c-0.461,0.664-1.354,0.889-2.116,0.732c-0.996-0.186-1.827-0.906-2.254-1.81c0.251,0.216,0.515,0.42,0.79,0.609
		c0.7,0.395,1.621,0.601,2.358,0.192c0.592-0.328,0.768-1.101,0.575-1.713c-0.28-0.96-1.064-1.638-1.643-2.416
		c-0.761-0.965-1.262-2.314-0.784-3.515c0.631-1.431,2.086-2.19,3.061-3.342c0.244-0.264,0.325-0.622,0.337-0.971
		c-0.164-0.515-0.682-0.867-1.22-0.676c-0.219,0.139-0.433,0.286-0.639,0.44C39.143,21.946,39.371,21.423,39.889,21.296
		 M20.833,24.507c0.222,0.027,0.447,0.048,0.67,0.072c0.055,1.91-0.066,3.823,0.053,5.73c0.175-0.025,0.351-0.053,0.528-0.081
		c0.315-0.077,0.625-0.184,0.917-0.326c0.826-0.464,1.571-1.056,2.363-1.573c0.672-0.426,1.382-0.79,2.055-1.215
		c0.636,0.209,1.306,0.259,1.969,0.308c-0.945,0.684-1.994,1.196-2.995,1.79c-0.839,0.461-1.644,0.981-2.486,1.434
		c-1.045,0.562-2.272,0.234-3.384,0.5c-0.553,0.186-1.128,0.583-1.22,1.201l-0.047,0.175c-0.259-0.13-0.089-0.448-0.061-0.661
		c0.176-0.814,1.012-1.151,1.652-1.537C20.849,28.385,20.864,26.447,20.833,24.507 M31.751,30.776
		c0.512,0.228,1.095,0.526,1.218,1.134c0.187,0.634-0.253,1.229-0.762,1.557c-1.54,1.024-3.459,1.39-4.863,2.635
		c-0.412,0.333-0.654,0.854-0.583,1.387c-0.005,0.675,0.697,0.962,1.16,1.298c-0.287,1.254-0.579,2.741-1.771,3.459
		c-1.124,0.653-2.491-0.047-3.67,0.401c-0.311,0.119-0.518,0.447-0.486,0.781c0.03,0.628,0.128,1.251,0.173,1.877
		c-0.195-0.211-0.315-0.475-0.297-0.767c-0.006-0.69-0.153-1.482,0.311-2.068c0.328-0.225,0.701-0.376,1.087-0.47
		c0.898-0.012,2.035,0.398,2.731-0.376c0.536-0.723,0.718-1.662,0.761-2.544c-0.184-0.509-0.876-0.722-0.998-1.293
		c-0.214-1.096,0.525-2.066,1.249-2.799c0.962-0.903,2.049-1.712,3.276-2.21c0.518-0.187,1.206-0.155,1.549-0.648
		C31.92,31.678,31.796,31.224,31.751,30.776 M32.302,37.138c0.401,0.003,0.818-0.011,1.203,0.125
		c0.394,0.353,0.465,0.97,0.907,1.284c0.498,0.209,1.071,0.102,1.571,0.298c0.436,0.345,0.598,0.929,0.622,1.463
		c0.025,0.946-0.398,1.829-0.873,2.624c-0.989,0.102-2.09-0.109-2.969,0.459c-0.757,0.515-0.297,1.52-0.3,2.26
		c-0.383-0.675-0.414-1.596-0.05-2.282c0.639-0.775,1.754-0.653,2.647-0.811c0.284-0.014,0.328-0.336,0.39-0.553
		c0.08-0.456,0.073-0.931-0.005-1.387c-0.044-0.2-0.094-0.397-0.144-0.593c-0.25-0.08-0.501-0.158-0.75-0.244
		c-0.845-0.331-1.51-1.024-1.913-1.826C32.515,37.688,32.407,37.413,32.302,37.138L32.302,37.138z"/>
	<path class="st34" d="M38.096,19.699c0.628,0.203,1.142-0.337,1.63-0.639c-0.117,0.678-0.529,1.331-1.234,1.504
		c-0.195-0.027-0.39-0.055-0.586-0.087c-0.281-0.162-0.542-0.353-0.809-0.537c0.045-0.167,0.12-0.319,0.223-0.454
		C37.583,19.542,37.837,19.627,38.096,19.699L38.096,19.699z"/>
	<path class="st35" d="M20.814,20.295c0.237,0.016,0.476,0.028,0.715,0.042c0,0.111-0.002,0.334-0.002,0.445
		c-0.239-0.008-0.478-0.017-0.717-0.022C20.811,20.643,20.813,20.411,20.814,20.295L20.814,20.295z"/>
	<path class="st36" d="M22.008,20.47c0.3,0.166,0.603,0.331,0.879,0.534c0.203,0.228,0.378,0.479,0.553,0.729
		c-0.419-0.142-0.868-0.237-1.231-0.5C22.059,21.01,22.061,20.725,22.008,20.47L22.008,20.47z"/>
	<path class="st37" d="M37.907,20.476c0.195,0.033,0.39,0.061,0.586,0.087c0.237,0.078,0.465,0.183,0.698,0.28
		c-0.18,0.198-0.339,0.411-0.486,0.632c-0.247-0.12-0.501-0.226-0.72-0.392C37.914,20.89,37.923,20.679,37.907,20.476L37.907,20.476
		z"/>
	<path class="st38" d="M5.211,20.836c1.149-0.35,2.507,0.078,3.206,1.065c0.803,1.07,0.742,2.7-0.176,3.683
		C7.465,26.469,6.125,26.8,5.027,26.37c-1.021-0.381-1.782-1.37-1.879-2.457C3,22.572,3.912,21.206,5.211,20.836 M4.757,21.457
		c0.173,0.081,0.337,0.267,0.547,0.216c0.603-0.12,1.212-0.205,1.819-0.295C6.394,20.948,5.471,21.045,4.757,21.457 M3.97,22.204
		c0.998,0.486,1.946,1.06,2.917,1.596c0.061-0.265,0.119-0.531,0.175-0.798c-0.756-0.611-1.615-1.093-2.549-1.374
		C4.327,21.815,4.146,22.007,3.97,22.204 M5.588,21.749c0.24,0.198,0.483,0.487,0.831,0.431c0.545-0.027,1.092-0.052,1.638-0.078
		c-0.13-0.158-0.27-0.3-0.425-0.431C6.956,21.527,6.258,21.612,5.588,21.749 M6.529,22.349c0.212,0.187,0.423,0.383,0.676,0.515
		c0.417,0.034,0.836,0.003,1.252-0.011c-0.07-0.164-0.141-0.326-0.212-0.487C7.679,22.265,7.098,22.265,6.529,22.349 M3.581,23.247
		c0.917,0.618,1.919,1.124,2.981,1.441c0.028-0.255,0.334-0.609,0.047-0.803c-0.861-0.59-1.787-1.092-2.747-1.502
		C3.731,22.658,3.637,22.947,3.581,23.247 M8.069,23.006c-0.078,1.051-0.508,2.007-1.017,2.911c1.135-0.387,1.679-1.671,1.512-2.802
		C8.399,23.078,8.235,23.042,8.069,23.006 M6.248,25.632c0.089,0.069,0.265,0.203,0.355,0.272c0.87-0.67,1.168-1.802,1.285-2.842
		c-0.145-0.008-0.436-0.022-0.581-0.03C7.034,23.929,6.693,24.805,6.248,25.632 M3.52,23.492c0.042,0.375-0.022,0.864,0.333,1.11
		c0.645,0.501,1.423,0.815,2.23,0.929c0.117-0.223,0.233-0.448,0.347-0.673C5.422,24.484,4.477,23.975,3.52,23.492 M3.995,25.002
		c-0.072,0.216,0,0.298,0.219,0.247C4.288,25.032,4.215,24.949,3.995,25.002 M4.427,25.229c0.02,0.472,0.429,0.682,0.831,0.787
		C5.268,25.524,4.863,25.293,4.427,25.229 M5.293,25.596c0.111,0.178,0.205,0.375,0.364,0.52c0.276,0.108,0.579,0.036,0.865,0.017
		C6.261,25.703,5.763,25.583,5.293,25.596L5.293,25.596z"/>
	<path class="st39" d="M53.156,20.832c1.709-0.564,3.703,0.795,3.734,2.608c0.162,1.507-1.056,2.958-2.557,3.094
		c-1.619,0.253-3.275-1.12-3.262-2.772C50.954,22.446,51.9,21.184,53.156,20.832 M52.659,21.456
		c0.178,0.089,0.353,0.272,0.572,0.216c0.604-0.119,1.213-0.206,1.824-0.295C54.313,20.953,53.385,21.053,52.659,21.456
		 M51.892,22.207c0.996,0.489,1.943,1.07,2.922,1.588c0.053-0.256,0.211-0.512,0.162-0.779c-0.72-0.648-1.61-1.074-2.521-1.387
		C52.264,21.816,52.077,22.008,51.892,22.207 M53.514,21.746c0.212,0.17,0.404,0.439,0.704,0.433
		c0.584-0.011,1.168-0.055,1.754-0.05c-0.122-0.156-0.24-0.314-0.386-0.445C54.903,21.516,54.191,21.61,53.514,21.746
		 M54.461,22.349c0.211,0.191,0.415,0.403,0.678,0.525c0.415,0.023,0.831-0.005,1.246-0.023c-0.067-0.156-0.134-0.314-0.2-0.47
		C55.619,22.26,55.033,22.26,54.461,22.349 M51.718,22.472c-0.119,0.248-0.17,0.518-0.225,0.786
		c0.909,0.597,1.893,1.073,2.917,1.434c0.106-0.212,0.209-0.426,0.311-0.64c-0.726-0.573-1.552-1.009-2.374-1.426
		C52.142,22.567,51.933,22.363,51.718,22.472 M55.147,23.281c-0.255,0.811-0.583,1.595-0.971,2.35
		c0.091,0.072,0.269,0.216,0.359,0.287c0.856-0.706,1.215-1.84,1.228-2.917C55.55,23.063,55.205,22.991,55.147,23.281
		 M55.984,22.984c-0.091,1.096-0.479,2.138-1.154,3.008c1.153-0.362,1.879-1.64,1.646-2.817
		C56.364,23.019,56.145,23.045,55.984,22.984 M51.472,23.515c0.017,0.342-0.053,0.768,0.23,1.026
		c0.611,0.528,1.39,0.826,2.174,0.982c0.283-0.08,0.331-0.444,0.479-0.662C53.356,24.495,52.422,23.987,51.472,23.515
		 M51.917,25.018c-0.062,0.217,0.014,0.295,0.231,0.236C52.213,25.033,52.135,24.954,51.917,25.018 M52.366,25.236
		c0.022,0.472,0.406,0.698,0.825,0.782C53.179,25.539,52.803,25.293,52.366,25.236 M53.223,25.578
		c0.103,0.18,0.186,0.379,0.336,0.529c0.25,0.097,0.526,0.067,0.79,0.086C54.285,25.658,53.646,25.605,53.223,25.578L53.223,25.578z
		"/>
	<path class="st40" d="M4.757,21.457c0.714-0.412,1.637-0.509,2.366-0.08c-0.608,0.091-1.217,0.175-1.819,0.295
		C5.094,21.724,4.93,21.538,4.757,21.457L4.757,21.457z"/>
	<path class="st41" d="M52.659,21.456c0.726-0.403,1.654-0.503,2.396-0.08c-0.611,0.089-1.22,0.176-1.824,0.295
		C53.012,21.727,52.837,21.545,52.659,21.456L52.659,21.456z"/>
	<path class="st42" d="M20.165,21.256c0.657-0.2,1.167,0.34,1.571,0.773c-0.534,0.084-1.078,0.089-1.613,0.02
		C20.13,21.783,20.146,21.52,20.165,21.256L20.165,21.256z"/>
	<path class="st43" d="M36.135,21.259c0.292,0.008,0.586,0.014,0.878,0.022c0.05,0.553,0.097,1.104,0.141,1.657
		c-0.548-0.278-1.22-0.881-1.829-0.408c-0.695,0.473-0.481,1.409-0.365,2.108c-0.433-0.194-0.842-0.512-0.95-0.998
		c-0.187-0.647-0.212-1.59,0.481-1.943c0.625-0.286,1.223,0.208,1.737,0.508C36.189,21.89,36.15,21.576,36.135,21.259
		 M36.439,24.827c0.025,0.066,0.075,0.197,0.1,0.262c0.184-0.072,0.37-0.144,0.556-0.214c0.3,0.622,0.444,1.462-0.066,2.015
		c-0.467,0.562-1.252,0.559-1.913,0.659c-0.094,0.939,0.539,1.719,0.653,2.625c0.211,1.434,0.506,2.864,1.093,4.196
		c-0.275-0.189-0.539-0.394-0.79-0.609c-0.789-1.381-1.012-2.975-1.263-4.52c-0.109-0.868-0.798-1.571-0.656-2.486
		c0.65-0.037,1.399-0.031,1.88-0.55C36.419,25.86,36.432,25.307,36.439,24.827L36.439,24.827z"/>
	<path class="st44" d="M43.278,21.399c0.778,0.272,1.174,1.101,1.145,1.887c0.045,0.921-0.495,1.744-1.143,2.35
		c-0.523,0.469-1.087,0.887-1.613,1.349c-0.946-0.062-1.769,0.434-2.505,0.964c0.195-0.412,0.423-0.82,0.768-1.128
		c1.056-0.973,2.427-1.643,3.198-2.899C43.6,23.169,43.598,22.21,43.278,21.399 M39.864,30.161c0.137-0.392,0.33-0.836,0.789-0.923
		c0.581-0.22,1.148,0.187,1.37,0.714c-0.325,0.084-0.722,0.08-0.951,0.362c-0.28,0.3-0.272,0.796,0.028,1.079
		c0.664,0.768,1.391,1.543,1.666,2.55c0.269,0.854,0.161,1.893-0.525,2.527c-0.832,0.884-2.183,0.923-3.289,0.645
		c-0.703-0.198-1.462-0.459-1.91-1.074c1.179,0.465,2.596,0.714,3.762,0.087c0.984-0.518,1.379-1.777,1.059-2.81
		C41.571,32.061,40.586,31.172,39.864,30.161 M25.624,33.67c1.521-0.344,2.675-1.462,3.623-2.635
		c0.228,0.42,0.447,0.845,0.709,1.246c-1.051,0.817-2.008,1.874-3.381,2.13c-0.356-0.25-0.686-0.587-1.12-0.687
		c-0.687-0.005-1.413,0.295-1.837,0.846c-0.197,0.462-0.431,0.91-0.634,1.371c-0.059,0.884-0.028,1.774-0.022,2.66
		c-0.02,0.518,0.615,0.843,0.45,1.384c-0.117,0.665-0.176,1.338-0.144,2.015c-0.386,0.094-0.759,0.245-1.087,0.47
		c-0.34-0.131-0.659-0.334-0.776-0.698c0.355-0.172,0.823-0.289,0.967-0.706c0.078-0.409-0.066-0.828,0.019-1.235
		c0.075-0.383,0.112-0.771,0.116-1.16c-0.164-0.176-0.473-0.287-0.469-0.565c-0.048-1.087,0.022-2.175-0.022-3.262
		c0.094-0.025,0.28-0.072,0.373-0.097c-0.025-1.153,1.207-1.885,2.254-1.732C25.026,33.132,25.312,33.434,25.624,33.67
		 M29.763,38.689c0.444-0.959,1.543-1.426,2.539-1.551c0.105,0.275,0.212,0.55,0.337,0.818c-0.618,0.28-1.292,0.536-1.73,1.081
		c-0.248,0.303-0.259,0.715-0.333,1.085C30.03,39.901,29.491,39.311,29.763,38.689 M22.777,44.647
		c0.086-0.055,0.256-0.161,0.34-0.214c0.503-0.002,0.64,0.417,0.753,0.825c-0.223,0.295-0.433,0.598-0.643,0.901
		C22.684,45.857,22.807,45.165,22.777,44.647 M24.517,45.431c0.116-0.439,0.415-0.786,0.804-1.01
		c0.314,0.209,0.543,0.511,0.77,0.807c-0.344,0.359-0.589,0.795-0.804,1.238C24.942,46.195,24.678,45.84,24.517,45.431
		 M35.001,45.592c0.186-0.369,0.408-0.806,0.893-0.773c0.208,0.216,0.422,0.426,0.629,0.643l0.075,0.084
		c-0.337,0.314-0.606,0.687-0.857,1.071C35.426,46.329,35.198,45.967,35.001,45.592L35.001,45.592z"/>
	<path class="st45" d="M3.97,22.204c0.176-0.197,0.358-0.389,0.543-0.576c0.934,0.281,1.793,0.764,2.549,1.374
		c-0.056,0.267-0.114,0.533-0.175,0.798C5.916,23.264,4.968,22.689,3.97,22.204 M51.472,23.515c0.95,0.472,1.883,0.979,2.883,1.346
		c-0.148,0.219-0.197,0.583-0.479,0.662c-0.784-0.156-1.563-0.454-2.174-0.982C51.419,24.284,51.49,23.857,51.472,23.515
		L51.472,23.515z"/>
	<path class="st46" d="M5.588,21.749c0.67-0.137,1.368-0.222,2.044-0.078c0.155,0.131,0.295,0.273,0.425,0.431
		c-0.547,0.027-1.093,0.052-1.638,0.078C6.07,22.236,5.828,21.947,5.588,21.749L5.588,21.749z"/>
	<path class="st45" d="M51.892,22.207c0.184-0.198,0.372-0.39,0.564-0.578c0.91,0.312,1.801,0.739,2.521,1.387
		c0.048,0.267-0.109,0.523-0.162,0.779C53.835,23.276,52.889,22.696,51.892,22.207L51.892,22.207z"/>
	<path class="st47" d="M53.514,21.746c0.678-0.136,1.39-0.23,2.072-0.062c0.145,0.131,0.264,0.289,0.386,0.445
		c-0.586-0.005-1.17,0.039-1.754,0.05C53.918,22.185,53.726,21.916,53.514,21.746L53.514,21.746z"/>
	<path class="st48" d="M39.547,21.929c0.537-0.191,1.056,0.161,1.22,0.676c-0.492,0.212-0.895,0.57-1.235,0.976
		C39.569,23.031,39.583,22.48,39.547,21.929L39.547,21.929z"/>
	<path class="st49" d="M6.529,22.349c0.568-0.084,1.149-0.084,1.716,0.017c0.072,0.161,0.142,0.323,0.212,0.487
		c-0.417,0.014-0.836,0.045-1.252,0.011C6.953,22.731,6.742,22.536,6.529,22.349L6.529,22.349z"/>
	<path class="st42" d="M20.332,22.421c0.504-0.006,0.981,0.198,1.42,0.429c-0.476,0.308-1.098,0.476-1.651,0.29
		C20.152,22.897,20.013,22.514,20.332,22.421L20.332,22.421z"/>
	<path class="st50" d="M54.461,22.349c0.572-0.089,1.157-0.089,1.724,0.031c0.066,0.156,0.133,0.314,0.2,0.47
		c-0.415,0.019-0.831,0.047-1.246,0.023C54.877,22.752,54.672,22.539,54.461,22.349L54.461,22.349z"/>
	<path class="st45" d="M3.581,23.247c0.056-0.3,0.15-0.589,0.281-0.864c0.96,0.411,1.887,0.912,2.747,1.502
		c0.287,0.194-0.019,0.548-0.047,0.803C5.5,24.371,4.498,23.865,3.581,23.247 M5.702,35.692c0.425-0.305,1.103,0.028,1.109,0.553
		c0.052,0.537-0.603,0.973-1.07,0.681C5.266,36.695,5.213,35.937,5.702,35.692 M6.865,36.949c0.568,0.036,1.31,0.267,1.505,0.864
		c-0.148,0.395-0.618,0.484-0.923,0.728c-0.317,0.164-0.587,0.518-0.975,0.473c-0.498-0.42-0.275-1.157-0.2-1.712
		c0.284,0.133,0.525,0.333,0.767,0.528C6.981,37.536,6.917,37.244,6.865,36.949L6.865,36.949z"/>
	<path class="st45" d="M51.718,22.472c0.216-0.109,0.425,0.095,0.629,0.153c0.821,0.417,1.648,0.853,2.374,1.426
		c-0.102,0.214-0.205,0.428-0.311,0.64c-1.024-0.361-2.008-0.837-2.917-1.434C51.547,22.991,51.599,22.721,51.718,22.472
		 M3.654,37.655c-0.012-0.729,1.021-0.798,1.576-0.839c-0.102,0.298-0.22,0.59-0.328,0.887c0.256-0.161,0.503-0.337,0.751-0.511
		c0.194,0.478,0.162,1.051-0.055,1.515c-0.13,0.287-0.553,0.228-0.728,0.019C4.493,38.338,4.006,38.067,3.654,37.655L3.654,37.655z"
		/>
	<path class="st49" d="M8.069,23.006c0.166,0.036,0.33,0.072,0.495,0.109c0.167,1.131-0.376,2.414-1.512,2.802
		C7.562,25.013,7.991,24.057,8.069,23.006L8.069,23.006z"/>
	<path class="st51" d="M55.147,23.281c0.058-0.29,0.403-0.219,0.615-0.28c-0.012,1.078-0.372,2.211-1.228,2.917
		c-0.091-0.072-0.269-0.216-0.359-0.287C54.565,24.876,54.892,24.092,55.147,23.281L55.147,23.281z"/>
	<path class="st52" d="M55.984,22.984c0.161,0.061,0.379,0.034,0.492,0.191c0.233,1.178-0.493,2.455-1.646,2.817
		C55.505,25.122,55.894,24.081,55.984,22.984L55.984,22.984z"/>
	<path class="st53" d="M6.248,25.632c0.445-0.826,0.786-1.702,1.059-2.6c0.145,0.008,0.436,0.022,0.581,0.03
		c-0.117,1.04-0.415,2.172-1.285,2.842C6.514,25.835,6.337,25.7,6.248,25.632L6.248,25.632z"/>
	<path class="st54" d="M20.31,23.589c0.44-0.211,0.909-0.02,1.263,0.264c-0.401,0.159-0.828,0.236-1.257,0.234
		C20.315,23.962,20.312,23.712,20.31,23.589L20.31,23.589z"/>
	<path class="st45" d="M3.52,23.492c0.957,0.483,1.902,0.992,2.909,1.366c-0.114,0.225-0.23,0.45-0.347,0.673
		c-0.807-0.114-1.585-0.428-2.23-0.929C3.498,24.356,3.562,23.867,3.52,23.492 M55.119,36.823c0.486,0.017,0.992,0.097,1.395,0.387
		c0.286,0.133,0.191,0.556-0.044,0.692c-0.345,0.275-0.692,0.548-1.02,0.845c-0.176,0.217-0.623,0.225-0.722-0.072
		c-0.178-0.412-0.183-0.875-0.173-1.315c0.337-0.158,0.584,0.22,0.871,0.336C55.325,37.404,55.213,37.116,55.119,36.823
		L55.119,36.823z"/>
	<path class="st55" d="M22.073,24.699c0.731,0.167,1.466,0.331,2.166,0.608c0.062,0.144,0.123,0.29,0.183,0.436
		c-0.476-0.097-0.954-0.183-1.434-0.258c-0.048,1.471-0.036,2.945,0.012,4.417c-0.292,0.142-0.601,0.25-0.917,0.326
		C22.061,28.385,22.072,26.542,22.073,24.699L22.073,24.699z"/>
	<path class="st56" d="M3.995,25.002c0.22-0.053,0.294,0.03,0.219,0.247C3.995,25.3,3.923,25.218,3.995,25.002L3.995,25.002z"/>
	<path class="st57" d="M51.917,25.018c0.217-0.064,0.295,0.016,0.231,0.236C51.931,25.313,51.855,25.235,51.917,25.018
		L51.917,25.018z"/>
	<path class="st58" d="M4.427,25.229c0.436,0.064,0.84,0.295,0.831,0.787C4.857,25.911,4.448,25.7,4.427,25.229L4.427,25.229z"/>
	<path class="st59" d="M24.239,25.307c0.409,0.186,0.887,0.545,0.729,1.062c-0.097,0.593-0.859,0.425-1.288,0.556
		c0.264-0.191,0.597-0.317,0.786-0.595c0.039-0.195-0.011-0.394-0.044-0.587C24.363,25.597,24.302,25.45,24.239,25.307
		L24.239,25.307z"/>
	<path class="st60" d="M52.366,25.236c0.437,0.056,0.814,0.303,0.825,0.782C52.772,25.935,52.388,25.708,52.366,25.236
		L52.366,25.236z"/>
	<path class="st61" d="M5.293,25.596c0.47-0.012,0.968,0.108,1.229,0.537c-0.286,0.019-0.589,0.091-0.865-0.017
		C5.497,25.97,5.403,25.774,5.293,25.596L5.293,25.596z"/>
	<path class="st62" d="M53.223,25.578c0.423,0.027,1.062,0.08,1.126,0.615c-0.264-0.019-0.54,0.011-0.79-0.086
		C53.409,25.958,53.326,25.758,53.223,25.578L53.223,25.578z"/>
	<path class="st63" d="M25.942,27.351c0.439-0.208,0.759-0.583,1.078-0.937c0.136,0.231,0.27,0.464,0.4,0.7
		c-0.673,0.425-1.384,0.789-2.055,1.215c-0.287-0.256-0.576-0.511-0.882-0.743C24.973,27.57,25.492,27.581,25.942,27.351
		L25.942,27.351z"/>
	<path class="st64" d="M40.161,28.93c0.579-0.734,1.848-0.689,2.369,0.094c0.456,0.515,0.233,1.234,0.136,1.838
		c-0.176,0.161-0.415,0.22-0.626,0.319c-0.002-0.411,0.023-0.821-0.017-1.229c-0.222-0.526-0.789-0.934-1.37-0.714
		c-0.459,0.087-0.651,0.531-0.789,0.923C39.859,29.739,39.859,29.264,40.161,28.93 M20.365,33.09
		c0.206-0.061,0.415-0.111,0.625-0.159c-0.062,0.359-0.12,0.72-0.166,1.082c0.358-0.167,0.725-0.317,1.103-0.431
		c0.033,0.375,0.064,0.75,0.084,1.126c-0.158-0.167-0.315-0.334-0.475-0.5c-0.069,1.409-0.002,2.82-0.016,4.229
		c-0.03,0.23,0.02,0.547-0.239,0.662c-0.319,0.122-0.665,0.133-0.999,0.18c-0.009-0.23-0.02-0.459-0.031-0.689
		c0.186-0.07,0.373-0.139,0.561-0.206c0.089-1.126,0.014-2.258,0.045-3.387C20.919,34.315,20.493,33.738,20.365,33.09L20.365,33.09z
		"/>
	<path class="st65" d="M19.504,32.273c0.292-0.081,0.593-0.102,0.895-0.13c-0.217,0.369-0.392,0.762-0.475,1.184l-0.048,0.187
		C19.731,33.106,19.723,32.653,19.504,32.273L19.504,32.273z"/>
	<path class="st66" d="M4.641,34.004c0.144-0.297,0.273-0.743,0.675-0.746c0.606,0.022,1.209,0.095,1.816,0.105
		c0.436,0.017,0.583,0.469,0.717,0.806c0.334,0.084,0.804,0.128,0.914,0.526c0.128,0.579,0.294,1.149,0.447,1.724
		c0.094,0.403-0.27,0.668-0.562,0.857c0.03,0.376,0.141,0.876-0.247,1.112c-0.492,0.284-0.965,0.597-1.441,0.904
		c-0.355,0.225-0.729-0.034-1.028-0.225c-0.331,0.103-0.695,0.315-1.037,0.13c-0.342-0.233-0.614-0.553-0.954-0.787
		c-0.226-0.187-0.526-0.331-0.625-0.628c-0.056-0.284,0.044-0.564,0.092-0.84c-0.264-0.247-0.604-0.578-0.423-0.973
		c0.233-0.52,0.434-1.051,0.628-1.585C3.776,33.968,4.271,33.988,4.641,34.004 M5.068,33.826c-0.087,0.54,0.333,0.998,0.623,1.41
		c0.379,0.119,0.308-0.523,0.483-0.737c0.114,0.264,0.178,0.545,0.25,0.825c0.444-0.159,0.714-0.581,0.917-0.984
		c0.142-0.198,0.08-0.525-0.172-0.595c-0.436-0.123-0.9-0.055-1.346-0.102C5.564,33.648,5.216,33.54,5.068,33.826 M3.542,35.575
		c-0.097,0.28-0.344,0.586-0.161,0.884c0.5,0.336,1.112-0.006,1.641-0.098c-0.072-0.311-0.328-0.504-0.536-0.723
		c0.262-0.028,0.593,0.156,0.804-0.062c-0.159-0.556-0.543-1.056-1.071-1.304C3.803,34.588,3.756,35.133,3.542,35.575 M6.967,35.808
		c0.29,0.012,0.583,0.017,0.873,0.028c-0.198,0.222-0.753,0.3-0.603,0.673c0.37,0.205,0.775,0.362,1.198,0.401
		c0.253,0.002,0.492-0.22,0.408-0.481c-0.141-0.529-0.272-1.062-0.415-1.591c-0.05-0.228-0.401-0.331-0.581-0.183
		C7.448,34.933,7.076,35.317,6.967,35.808 M5.702,35.692c-0.489,0.245-0.436,1.003,0.039,1.234c0.467,0.292,1.121-0.144,1.07-0.681
		C6.804,35.72,6.127,35.388,5.702,35.692 M3.654,37.655c0.351,0.412,0.839,0.682,1.217,1.071c0.175,0.209,0.598,0.269,0.728-0.019
		c0.217-0.464,0.248-1.037,0.055-1.515c-0.248,0.173-0.495,0.35-0.751,0.511c0.108-0.297,0.226-0.589,0.328-0.887
		C4.676,36.857,3.642,36.926,3.654,37.655 M6.865,36.949c0.052,0.295,0.116,0.587,0.175,0.881c-0.242-0.195-0.483-0.395-0.767-0.528
		c-0.075,0.554-0.298,1.292,0.2,1.712c0.387,0.045,0.657-0.309,0.975-0.473c0.305-0.244,0.775-0.333,0.923-0.728
		C8.176,37.216,7.434,36.985,6.865,36.949L6.865,36.949z"/>
	<path class="st67" d="M52.953,33.443c0.284-0.151,0.617-0.084,0.926-0.103c0.414,0.003,0.826-0.114,1.242-0.067
		c0.347,0.061,0.454,0.442,0.573,0.722c0.365-0.003,0.836-0.033,1.018,0.364c0.214,0.533,0.403,1.074,0.639,1.598
		c0.187,0.4-0.134,0.757-0.433,0.981c0.083,0.375,0.261,0.867-0.105,1.153c-0.439,0.342-0.867,0.7-1.288,1.062
		c-0.355,0.281-0.79,0.058-1.117-0.145c-0.175,0.131-0.336,0.29-0.543,0.367c-0.426,0.073-0.75-0.261-1.076-0.47
		c-0.305-0.22-0.661-0.359-0.951-0.6c-0.275-0.253-0.162-0.651-0.141-0.975c-0.275-0.225-0.629-0.489-0.561-0.893
		c0.144-0.576,0.312-1.146,0.44-1.726c0.103-0.437,0.615-0.456,0.973-0.542C52.645,33.912,52.672,33.571,52.953,33.443
		 M53.732,33.681c-0.265,0.017-0.639-0.031-0.77,0.267c-0.028,0.615,0.476,1.087,0.931,1.426c0.092-0.29,0.166-0.587,0.247-0.881
		c0.108,0.251,0.197,0.511,0.308,0.761c0.308,0.05,0.4-0.34,0.562-0.529c0.191-0.306,0.473-0.828,0.062-1.081
		C54.625,33.609,54.179,33.687,53.732,33.681 M55.828,34.426c-0.386,0.314-0.665,0.756-0.789,1.24
		c0.305-0.002,0.609-0.017,0.914-0.022c-0.2,0.23-0.653,0.34-0.612,0.703c0.55,0.156,1.363,0.539,1.746-0.092
		c-0.242-0.529-0.439-1.076-0.648-1.618C56.379,34.366,56.042,34.252,55.828,34.426 M51.866,35.03
		c-0.07,0.614-0.472,1.196-0.308,1.821c0.609,0.148,1.192-0.142,1.696-0.454c-0.244-0.206-0.509-0.381-0.776-0.554
		c0.315-0.011,0.632-0.019,0.948-0.044c-0.189-0.472-0.517-0.906-0.964-1.156C52.177,34.461,51.872,34.735,51.866,35.03
		 M53.94,35.653c-0.459,0.192-0.553,0.873-0.153,1.181c0.394,0.395,1.153,0.112,1.181-0.447
		C55.08,35.833,54.422,35.391,53.94,35.653 M53.054,36.993c-0.451,0.17-1.065,0.369-1.07,0.953c0.501,0.345,1.018,0.667,1.526,1.004
		c0.217,0.167,0.503,0.023,0.592-0.216c0.114-0.473,0.042-0.965-0.037-1.438c-0.283,0.153-0.533,0.355-0.79,0.543
		c0.075-0.283,0.164-0.561,0.25-0.839C53.37,36.97,53.206,36.918,53.054,36.993 M55.119,36.823c0.094,0.294,0.206,0.581,0.308,0.873
		c-0.287-0.116-0.534-0.493-0.871-0.336c-0.009,0.44-0.005,0.903,0.173,1.315c0.098,0.297,0.545,0.289,0.722,0.072
		c0.328-0.297,0.675-0.57,1.02-0.845c0.234-0.136,0.33-0.559,0.044-0.692C56.111,36.92,55.605,36.84,55.119,36.823L55.119,36.823z"
		/>
	<path class="st45" d="M5.068,33.826c0.148-0.286,0.497-0.178,0.754-0.183c0.447,0.047,0.91-0.022,1.346,0.102
		c0.251,0.07,0.314,0.397,0.172,0.595c-0.203,0.403-0.473,0.825-0.917,0.984c-0.072-0.28-0.136-0.561-0.25-0.825
		c-0.175,0.214-0.103,0.856-0.483,0.737C5.4,34.824,4.98,34.366,5.068,33.826 M3.542,35.575c0.214-0.442,0.261-0.987,0.678-1.304
		c0.528,0.248,0.912,0.748,1.071,1.304c-0.211,0.219-0.542,0.034-0.804,0.062c0.208,0.219,0.464,0.412,0.536,0.723
		c-0.529,0.092-1.142,0.434-1.641,0.098C3.198,36.161,3.445,35.854,3.542,35.575 M55.828,34.426
		c0.214-0.173,0.551-0.059,0.611,0.211c0.209,0.542,0.406,1.089,0.648,1.618c-0.383,0.631-1.196,0.248-1.746,0.092
		c-0.041-0.362,0.412-0.473,0.612-0.703c-0.305,0.005-0.609,0.02-0.914,0.022C55.163,35.181,55.442,34.739,55.828,34.426
		 M6.967,35.808c0.109-0.49,0.481-0.875,0.879-1.153c0.18-0.148,0.531-0.045,0.581,0.183c0.144,0.529,0.275,1.062,0.415,1.591
		c0.084,0.261-0.155,0.483-0.408,0.481c-0.423-0.039-0.828-0.197-1.198-0.401c-0.15-0.373,0.404-0.451,0.603-0.673
		C7.549,35.825,7.257,35.82,6.967,35.808 M51.866,35.03c0.006-0.295,0.311-0.568,0.597-0.387c0.447,0.25,0.775,0.684,0.964,1.156
		c-0.315,0.025-0.632,0.033-0.948,0.044c0.267,0.173,0.533,0.348,0.776,0.554c-0.504,0.312-1.087,0.603-1.696,0.454
		C51.394,36.226,51.796,35.644,51.866,35.03 M53.94,35.653c0.483-0.262,1.14,0.18,1.028,0.734c-0.028,0.559-0.787,0.842-1.181,0.447
		C53.387,36.526,53.481,35.845,53.94,35.653 M53.054,36.993c0.151-0.075,0.315-0.023,0.47,0.008
		c-0.086,0.278-0.175,0.556-0.25,0.839c0.258-0.189,0.508-0.39,0.79-0.543c0.08,0.473,0.151,0.965,0.037,1.438
		c-0.089,0.239-0.375,0.383-0.592,0.216c-0.508-0.337-1.024-0.659-1.526-1.004C51.989,37.362,52.603,37.163,53.054,36.993
		L53.054,36.993z"/>
	<path class="st45" d="M53.732,33.681c0.447,0.006,0.893-0.072,1.34-0.037c0.411,0.253,0.128,0.775-0.062,1.081
		c-0.162,0.189-0.255,0.579-0.562,0.529c-0.111-0.25-0.2-0.509-0.308-0.761c-0.081,0.294-0.155,0.59-0.247,0.881
		c-0.454-0.339-0.959-0.811-0.931-1.426C53.093,33.649,53.467,33.698,53.732,33.681L53.732,33.681z"/>
	<path class="st68" d="M21.536,34.208c0.159,0.166,0.317,0.333,0.475,0.5l0.006,0.134c0.044,1.087-0.027,2.175,0.022,3.262
		c-0.005,0.278,0.305,0.389,0.469,0.565c-0.003,0.389-0.041,0.778-0.116,1.16c-0.084,0.408,0.059,0.826-0.019,1.235
		c-0.144,0.417-0.612,0.534-0.967,0.706c-0.464-0.145-0.843-0.437-1.064-0.876c0.342,0.086,0.682,0.225,1.039,0.212
		c0.465-0.125,0.603-0.85,0.214-1.134c-0.409-0.211-0.885-0.214-1.334-0.262c0.006-0.109,0.016-0.325,0.02-0.433
		c0.334-0.047,0.681-0.058,0.999-0.18c0.259-0.116,0.209-0.433,0.239-0.662C21.534,37.029,21.467,35.617,21.536,34.208
		L21.536,34.208z"/>
	<path class="st69" d="M35.69,35.23c0.344,0.191,0.673,0.401,1.003,0.612c-0.072,0.648,0.258,1.229,0.481,1.813
		C36.347,37.113,35.847,36.192,35.69,35.23L35.69,35.23z"/>
	<path class="st70" d="M39.149,38.869c0.528-0.014,1.056-0.047,1.582-0.094c-1.267,1.317-1.768,3.184-1.66,4.979
		c0,0.517,0.15,1.049,0.011,1.559c-0.206,0.37-0.712,0.342-1.067,0.49c-0.123,0.208-0.248,0.414-0.373,0.62
		c-0.32-0.253-0.634-0.512-0.948-0.771c0.175-0.259,0.287-0.643,0.654-0.676c0.404-0.077,0.918-0.234,0.857-0.751
		C38.092,42.409,38.031,40.418,39.149,38.869L39.149,38.869z"/>
	<path class="st71" d="M20.262,39.712c0.448,0.048,0.925,0.052,1.334,0.262c0.389,0.284,0.251,1.009-0.214,1.134
		c-0.356,0.012-0.697-0.126-1.039-0.212c-0.019-0.37,0.147-0.703,0.348-1.001C20.547,39.834,20.404,39.773,20.262,39.712
		L20.262,39.712z"/>
	<path class="st72" d="M34.553,39.782c0.248,0.086,0.5,0.164,0.75,0.244c0.05,0.197,0.1,0.394,0.144,0.593
		C35.106,40.39,34.754,40.152,34.553,39.782L34.553,39.782z"/>
	<path class="st73" d="M25.322,44.42c0.32-0.011,0.64-0.003,0.962,0.003c0.092,0.379,0.187,0.761,0.284,1.14
		c-0.169-0.098-0.328-0.211-0.476-0.336C25.865,44.931,25.635,44.63,25.322,44.42L25.322,44.42z"/>
	<path class="st0" d="M33.719,44.795c0.297-0.047,0.598-0.07,0.898-0.092c0.017,0.383,0.036,0.765,0.058,1.149
		c-0.044-0.078-0.13-0.233-0.172-0.311c-0.122-0.222-0.241-0.447-0.358-0.67C34.039,44.853,33.825,44.814,33.719,44.795
		L33.719,44.795z"/>
	<path class="st74" d="M35.894,44.819c0.108,0.011,0.322,0.033,0.429,0.044c0.064,0.2,0.128,0.401,0.2,0.6
		C36.316,45.245,36.102,45.034,35.894,44.819L35.894,44.819z"/>
	<path class="st75" d="M46.979,45.801c0.058-0.325,0.826-0.326,0.864,0.017C47.554,45.815,47.267,45.823,46.979,45.801
		L46.979,45.801z"/>
	<path class="st76" d="M46.964,46.037c0.281-0.251,0.725-0.187,1.01,0.027c0.253,0.22,0.379,0.543,0.604,0.79
		c0.3,0.237,0.809,0.347,0.848,0.796c0.148,0.971-0.881,1.502-1.454,2.113c-0.803-0.784-1.635-1.546-2.369-2.397
		C46.05,46.916,46.464,46.429,46.964,46.037 M46.511,47.038c0.23,0.287,0.494,0.545,0.793,0.759
		c0.189-0.269,0.503-0.647,0.208-0.957C47.204,46.473,46.789,46.835,46.511,47.038 M47.944,47.727
		c-0.066,0.072-0.197,0.217-0.262,0.29l-0.114-0.083c0.134,0.348,0.394,0.618,0.686,0.842c0.209-0.247,0.561-0.573,0.292-0.91
		C48.411,47.644,48.154,47.717,47.944,47.727 M10.935,47.659c0.59-0.525,1.135-1.099,1.726-1.623
		c0.528,0.42,1.015,0.892,1.429,1.426c-0.122,0.119-0.244,0.239-0.364,0.359c-0.28-0.248-0.556-0.5-0.831-0.754
		c-0.169,0.17-0.339,0.34-0.508,0.511c0.234,0.251,0.469,0.503,0.704,0.753c-0.091,0.153-0.181,0.305-0.272,0.458
		c-0.303-0.248-0.6-0.501-0.898-0.754c-0.362,0.356-0.731,0.706-1.068,1.085c-0.223-0.23-0.447-0.459-0.667-0.69
		C10.429,48.165,10.673,47.903,10.935,47.659 M23.789,52.651c0.653,0.103,1.352,0.159,1.918,0.534c0.4,0.306,0.292,0.87,0.176,1.29
		c-0.016,0.048-0.045,0.148-0.061,0.198c-0.225,0.522-0.092,1.302-0.717,1.563c-0.69,0.169-1.373-0.175-2.035-0.33
		C23.209,54.801,23.557,53.738,23.789,52.651 M24.491,53.332c-0.028,0.287-0.055,0.576-0.077,0.867
		c0.231-0.064,0.714,0.05,0.682-0.323C25.179,53.522,24.776,53.352,24.491,53.332 M24.21,54.639
		c-0.116,0.325-0.181,0.664-0.205,1.009c0.281-0.023,0.661,0.07,0.817-0.242c0.027-0.211-0.036-0.417-0.064-0.622
		C24.575,54.736,24.392,54.687,24.21,54.639L24.21,54.639z"/>
	<path class="st77" d="M46.511,47.038c0.278-0.203,0.693-0.565,1.001-0.198c0.295,0.311-0.019,0.689-0.208,0.957
		C47.004,47.583,46.74,47.325,46.511,47.038 M46.797,47.036c0.151,0.181,0.315,0.35,0.494,0.504c0.053-0.089,0.161-0.27,0.214-0.359
		c-0.05-0.092-0.15-0.276-0.198-0.369C47.134,46.885,46.965,46.96,46.797,47.036L46.797,47.036z"/>
	<path class="st78" d="M46.797,47.036c0.169-0.077,0.337-0.151,0.509-0.223c0.048,0.092,0.148,0.276,0.198,0.369
		c-0.053,0.089-0.161,0.27-0.214,0.359C47.112,47.386,46.948,47.217,46.797,47.036L46.797,47.036z"/>
	<path class="st79" d="M44.905,47.758c0.139-0.136,0.28-0.269,0.422-0.4c0.258,0.269,0.512,0.54,0.768,0.811
		c-0.081,0.44,0.12,0.854,0.244,1.265C45.883,48.857,45.449,48.256,44.905,47.758L44.905,47.758z"/>
	<path class="st80" d="M47.944,47.727c0.209-0.009,0.467-0.083,0.601,0.139c0.269,0.337-0.083,0.664-0.292,0.91
		c-0.292-0.223-0.551-0.493-0.686-0.842l0.114,0.083c0.206,0.148,0.408,0.301,0.611,0.456c0.056-0.156,0.112-0.314,0.17-0.469
		C48.291,47.909,48.118,47.816,47.944,47.727L47.944,47.727z"/>
	<path class="st81" d="M47.682,48.017c0.066-0.073,0.197-0.219,0.262-0.29c0.173,0.089,0.347,0.183,0.518,0.278
		c-0.058,0.155-0.114,0.312-0.17,0.469C48.09,48.319,47.888,48.165,47.682,48.017L47.682,48.017z"/>
	<path class="st82" d="M44.559,48.411c0.142-0.139,0.286-0.278,0.431-0.414c0.515,0.625,1.04,1.249,1.462,1.944
		c0.4,0.59,0.031,1.473-0.617,1.702c-0.433,0.183-0.896,0.006-1.335-0.044c-0.03-0.053-0.087-0.156-0.116-0.209
		c-0.378-0.675-0.892-1.26-1.331-1.893c0.225-0.176,0.451-0.35,0.679-0.523c0.542,0.6,0.939,1.317,1.499,1.899
		c0.308,0.355,0.948-0.087,0.745-0.497C45.574,49.674,44.997,49.088,44.559,48.411L44.559,48.411z"/>
	<path class="st83" d="M13.979,48.568c0.436-0.3,1.017-0.253,1.505-0.147c0.558,0.139,0.893,0.629,1.124,1.12
		c0.164,0.843-0.233,1.676-0.896,2.19c-0.95,0.561-2.268,0.042-2.671-0.97C12.947,49.913,13.257,49.053,13.979,48.568 M14.906,49.12
		c-0.725,0.284-1.416,1.498-0.612,2.044c0.875,0.131,1.673-0.89,1.423-1.724C15.553,49.154,15.219,49.029,14.906,49.12L14.906,49.12
		z"/>
	<path class="st84" d="M15.045,49.271c0.383-0.105,0.748,0.34,0.586,0.697c-0.166,0.444-0.504,0.854-0.956,1.02
		c-0.384,0.133-0.759-0.298-0.608-0.656C14.254,49.893,14.539,49.374,15.045,49.271L15.045,49.271z"/>
	<path class="st85" d="M16.609,49.541c0.023-0.069,0.073-0.205,0.098-0.272c0.211,0.398,0.222,0.853,0.231,1.293
		c0.219-0.073,0.436-0.191,0.672-0.191l0.116,0.009c-0.448,0.339-0.942,0.689-1.135,1.243c-0.275,0.611-0.048,1.285,0.264,1.832
		c-0.593-0.34-0.67-1.042-0.697-1.657c-0.111-0.017-0.333-0.052-0.445-0.069C16.376,51.217,16.773,50.385,16.609,49.541
		L16.609,49.541z"/>
	<path class="st86" d="M46.675,50.075c0.33,0.072,0.326,0.846-0.008,0.909C46.673,50.68,46.676,50.378,46.675,50.075L46.675,50.075z
		"/>
	<path class="st87" d="M40.778,50.641c0.247-0.117,0.494-0.234,0.74-0.347c0.389,0.626,0.746,1.27,1.109,1.91
		c0.106,0.131,0.148,0.356,0.331,0.404c0.347-0.137,0.661-0.34,0.987-0.515c0.089,0.172,0.176,0.347,0.262,0.522
		c-0.57,0.345-1.142,0.69-1.738,0.99C41.854,52.651,41.24,51.679,40.778,50.641 M20.777,51.645c0.729,0.211,1.445,0.47,2.149,0.751
		c-0.033,0.169-0.067,0.337-0.1,0.508c-0.258-0.052-0.515-0.102-0.773-0.155c-0.323,0.856-0.606,1.729-0.957,2.575
		c-0.262-0.105-0.525-0.209-0.787-0.314c0.206-0.631,0.425-1.259,0.647-1.885c0.061-0.15,0.122-0.298,0.18-0.447
		c0.017-0.047,0.048-0.141,0.066-0.187c-0.217-0.162-0.444-0.312-0.667-0.464C20.594,51.931,20.716,51.74,20.777,51.645
		L20.777,51.645z"/>
	<path class="st88" d="M17.725,50.382c0.686,0.064,1.501,0.109,1.919,0.748c0.529,0.693,0.241,1.609-0.12,2.307
		c-0.67,0.768-1.976,0.74-2.671,0.02c-0.312-0.547-0.539-1.221-0.264-1.832C16.784,51.07,17.277,50.72,17.725,50.382 M18.042,51.303
		c-0.517,0.404-0.942,1.34-0.367,1.852c0.817,0.283,1.459-0.72,1.335-1.445C19.097,51.208,18.355,50.948,18.042,51.303
		 M39.105,51.415c0.486-0.162,0.959,0.123,1.409,0.275c-0.084,0.151-0.167,0.303-0.25,0.456c-0.459,0.011-1.048-0.234-1.393,0.175
		c-0.417,0.458-0.12,1.138,0.183,1.574c0.245,0.378,0.737,0.236,1.112,0.236c0.037-0.055,0.112-0.166,0.15-0.22
		c0.126-0.186,0.25-0.372,0.373-0.559c0.162,0.012,0.326,0.028,0.489,0.044c-0.108,0.526-0.339,1.065-0.834,1.334
		c-0.592,0.369-1.31,0.167-1.918-0.045c-0.116-0.094-0.223-0.194-0.325-0.3c-0.176-0.403-0.376-0.818-0.376-1.268
		C37.637,52.296,38.34,51.578,39.105,51.415L39.105,51.415z"/>
	<path class="st89" d="M18.042,51.303c0.312-0.355,1.054-0.095,0.968,0.408c0.123,0.725-0.518,1.727-1.335,1.445
		C17.101,52.643,17.525,51.707,18.042,51.303L18.042,51.303z"/>
	<path class="st90" d="M19.935,51.326c0.225,0.066,0.453,0.122,0.686,0.164c-0.077,0.241-0.153,0.481-0.231,0.722
		c0.25,0.153,0.498,0.308,0.745,0.467c-0.058,0.148-0.119,0.297-0.18,0.447c-0.087,0.125-0.173,0.251-0.259,0.379
		c0.003-0.295,0.02-0.59,0.047-0.884c-0.336-0.214-0.615,0.008-0.818,0.286C20.082,52.393,20.098,51.842,19.935,51.326
		L19.935,51.326z"/>
	<path class="st91" d="M20.883,51.484c0.614-0.008,1.354,0.089,1.743,0.622C22.031,51.939,21.461,51.7,20.883,51.484L20.883,51.484z
		"/>
	<path class="st92" d="M22.211,53.016c0.23-0.009,0.458,0.034,0.686,0.07l0.094,0.016c-0.479,0.119-0.892,0.383-1.201,0.767
		C21.906,53.577,21.962,53.229,22.211,53.016L22.211,53.016z"/>
	<path class="st82" d="M32.771,53.261c0.267-0.056,0.534-0.108,0.803-0.159c0.22,0.915,0.256,1.865,0.497,2.777
		c0.37-0.056,0.739-0.119,1.109-0.181c0.044,0.175,0.089,0.351,0.133,0.528c-0.67,0.136-1.343,0.265-2.026,0.322
		C33.1,55.454,32.929,54.359,32.771,53.261 M27.995,53.239c0.487,1.138,0.828,2.343,1.14,3.54c-0.276-0.017-0.551-0.041-0.825-0.07
		c-0.091-0.25-0.181-0.5-0.269-0.75c-0.265-0.048-0.531-0.091-0.798-0.126c-0.128,0.251-0.259,0.503-0.39,0.754
		c-0.12-0.003-0.362-0.008-0.484-0.011C26.8,55.416,27.413,54.33,27.995,53.239 M27.664,55.028
		c-0.264,0.066-0.181,0.528,0.097,0.467C28.017,55.435,27.914,54.987,27.664,55.028L27.664,55.028z"/>
	<path class="st93" d="M30.011,53.255c0.347-0.009,0.692-0.011,1.039-0.006c0.112,0.914,0.112,1.835,0.122,2.753
		c0.404,0.003,0.811,0.006,1.217,0.014c0.016,0.251,0.033,0.504,0.052,0.759l-0.183-0.008c-0.036-0.13-0.106-0.39-0.142-0.52
		c-0.373-0.028-0.746-0.053-1.12-0.077c-0.031-0.915-0.044-1.829-0.083-2.742c-0.253,0.003-0.504,0.006-0.754,0.011
		c-0.002,0.722,0.028,1.443,0.03,2.165l-0.142,0.073c-0.022-0.32-0.033-0.642-0.037-0.962
		C30.008,54.228,30.008,53.741,30.011,53.255L30.011,53.255z"/>
	<path class="st94" d="M23.152,54.575c-0.109-0.425,0.011-0.836,0.275-1.174C23.352,53.795,23.266,54.189,23.152,54.575
		L23.152,54.575z"/>
	<path class="st95" d="M30.158,53.439c0.25-0.005,0.501-0.008,0.754-0.011c0.039,0.914,0.052,1.827,0.083,2.742
		c0.373,0.023,0.746,0.048,1.12,0.077c0.036,0.13,0.106,0.39,0.142,0.52c-0.344-0.003-0.684,0.008-1.026,0.02
		c-0.336-0.055-0.675-0.126-1.017-0.097c-0.017-0.362-0.022-0.725-0.027-1.087C30.186,54.882,30.157,54.161,30.158,53.439
		L30.158,53.439z"/>
	<path class="st96" d="M33.836,53.428c0.283,0.036,0.222,0.389,0.275,0.59c0.044,0.459,0.086,0.921,0.176,1.376
		c0.356-0.005,0.715-0.006,1.067,0.072c-0.379,0.087-0.764,0.153-1.148,0.211C34.011,54.942,33.917,54.184,33.836,53.428
		L33.836,53.428z"/>
	<path class="st97" d="M24.21,54.639c0.183,0.048,0.365,0.097,0.548,0.145c0.028,0.205,0.091,0.411,0.064,0.622
		c-0.156,0.312-0.536,0.219-0.817,0.242C24.028,55.302,24.094,54.964,24.21,54.639 M24.349,54.815
		c-0.058,0.223-0.114,0.447-0.167,0.673c0.331,0.07,0.517-0.17,0.567-0.464C24.648,54.973,24.449,54.868,24.349,54.815
		L24.349,54.815z"/>
	<path class="st98" d="M24.349,54.815c0.1,0.053,0.3,0.158,0.4,0.209c-0.05,0.294-0.236,0.534-0.567,0.464
		C24.235,55.262,24.291,55.039,24.349,54.815L24.349,54.815z"/>
	<path class="st99" d="M27.664,55.028c0.25-0.041,0.353,0.408,0.097,0.467C27.483,55.555,27.4,55.093,27.664,55.028L27.664,55.028z"
		/>
	<path class="st100" d="M22.867,56.071c0.194-0.062,0.381,0.037,0.553,0.119C23.305,56.405,22.84,56.338,22.867,56.071
		L22.867,56.071z"/>
	<path class="st101" d="M24.046,56.368c0.428,0.009,0.856,0.003,1.284,0.025C24.994,56.686,24.345,56.731,24.046,56.368
		L24.046,56.368z"/>
	<path class="st102" d="M33.094,56.733c0.632-0.112,1.273-0.155,1.91-0.226c-0.567,0.231-1.207,0.467-1.821,0.344L33.094,56.733
		L33.094,56.733z"/>
	<path class="st103" d="M26.17,56.699c0.245-0.036,0.493-0.045,0.739-0.02C26.91,57.002,26.209,57.005,26.17,56.699L26.17,56.699z"
		/>
	<path class="st104" d="M30.214,56.691c0.342-0.03,0.681,0.042,1.017,0.097C30.93,56.884,30.324,57.136,30.214,56.691L30.214,56.691
		z"/>
</g>
<g class="st107">
	<line class="st109" x1="-1056" y1="-14.639" x2="129.488" y2="577.269"/>
</g>
</svg>
