<svg xmlns="http://www.w3.org/2000/svg" viewBox="0 0 30 30"><defs><style>.a{fill:#252c6a;}.a,.b{fill-rule:evenodd;}.b{fill:#fff;}</style></defs><title>slices_fixtures_v03</title><path class="a" d="M28.62,17.53a2.63,2.63,0,0,0-.24.53L30,18.66l0,0.09C27.4,24.82,22.65,28.53,16,29.08L15,30l-1-.92C7.35,28.53,2.6,24.82.08,18.75l0-.09,1.58-.6a2.62,2.62,0,0,0-.24-0.53l-1,.43,0,0A1,1,0,0,1,0,16.87,0.71,0.71,0,0,1,.5,16.35c0.82-.34,1.62-0.71,2.44-1a0.65,0.65,0,0,1,.55,0,3.18,3.18,0,0,1,.36.22h0a4.39,4.39,0,0,1,.9,2.86v0.07L4,18.76a12.26,12.26,0,0,0,6.77,6.06,12.93,12.93,0,0,0,8.5,0A12.26,12.26,0,0,0,26,18.76l-0.8-.27V18.42a4.39,4.39,0,0,1,.9-2.86h0a3.18,3.18,0,0,1,.36-0.22,0.65,0.65,0,0,1,.55,0c0.82,0.33,1.63.69,2.44,1a0.71,0.71,0,0,1,.49.52,1,1,0,0,1-.36,1.07l0,0-1-.43h0Z"/><path class="b" d="M15,29.87L15.93,29c7.17-.57,11.6-4.73,13.9-10.28l-1.57-.6a2.71,2.71,0,0,1,.32-0.7l1,0.44a1,1,0,0,0,.32-1,0.61,0.61,0,0,0-.43-0.45L27,15.4a0.58,0.58,0,0,0-.47,0,3.6,3.6,0,0,0-.35.21,4.32,4.32,0,0,0-.88,2.81l0.83,0.29a12.44,12.44,0,0,1-22.3,0l0.83-.29a4.32,4.32,0,0,0-.88-2.81,3.6,3.6,0,0,0-.35-0.21,0.58,0.58,0,0,0-.47,0l-2.44,1a0.61,0.61,0,0,0-.43.45,1,1,0,0,0,.32,1l1-.44a2.72,2.72,0,0,1,.32.7l-1.57.6C2.47,24.25,6.9,28.41,14.07,29L15,29.87h0Z"/><path class="a" d="M26.38,15.82a3.78,3.78,0,0,0-.76,2.41l0.68,0.23,0.33-.75s0-.06-0.1,0a1.81,1.81,0,0,1-.45.41H25.74l0-.25a0.4,0.4,0,0,0,.31,0l0.33-.37a0.22,0.22,0,0,1,.22,0L28,18a3,3,0,0,1,.32-0.71l-1.18-.49c-0.07,0-.08-0.11-0.08-0.24a1.15,1.15,0,0,0,0-.85,0.38,0.38,0,0,0-.4-0.07l-0.29.17h0Zm-22.76,0a3.78,3.78,0,0,1,.76,2.41l-0.68.23-0.33-.75s0-.06.1,0a1.81,1.81,0,0,0,.45.41H4.26l0-.25a0.4,0.4,0,0,1-.31,0l-0.33-.37a0.22,0.22,0,0,0-.22,0L2,18a3,3,0,0,0-.32-0.71l1.18-.49c0.07,0,.08-0.11.08-0.24a1.15,1.15,0,0,1,0-.85,0.38,0.38,0,0,1,.4-0.07l0.29,0.17h0ZM0.48,17.54a0.88,0.88,0,0,1-.09-0.62,0.41,0.41,0,0,1,.27-0.23l1.95-.83,0,0.72a0.05,0.05,0,0,1,0,.05c-0.73.3-1.41,0.58-2.13,0.9h0Zm3,1,0.14,0.28a12.65,12.65,0,0,0,7,6.33,13.3,13.3,0,0,0,8.74,0,12.65,12.65,0,0,0,7-6.33l0.14-.28,0.3-.68a0.06,0.06,0,0,1,.07,0l1,0.44,1.54,0.58a15.42,15.42,0,0,1-13.56,9.84h-0.1L15,29.49l-0.81-.77h-0.1A15.42,15.42,0,0,1,.53,18.87l1.54-.58,1-.44a0.06,0.06,0,0,1,.07,0l0.3,0.68h0Zm26.06-1a0.88,0.88,0,0,0,.09-0.62,0.41,0.41,0,0,0-.27-0.23l-1.95-.83,0,0.72a0.05,0.05,0,0,0,0,.05c0.73,0.3,1.41.58,2.13,0.9h0Z"/><path class="a" d="M16.26,25.18L15.07,26.4,15,26.47l-0.07-.07-1.19-1.22a12.38,12.38,0,0,1-6.44-2.6,9.7,9.7,0,0,1-3.38-5,10.87,10.87,0,0,1,.38-5.86c0.24-.8.6-1.55,0.81-2.36a4.87,4.87,0,0,0,.21-1.88,5.85,5.85,0,0,0-2.09-3.1L3.16,4.3l0.07-.07L7.76,0.06,7.83,0,7.89,0.07A5.14,5.14,0,0,0,12,1.23a5.89,5.89,0,0,0,3-1.06l0.06,0,0.06,0a5.89,5.89,0,0,0,3,1.06A5.14,5.14,0,0,0,22.11.07L22.17,0l0.07,0.06,4.53,4.17L26.84,4.3l-0.08.07a5.85,5.85,0,0,0-2.09,3.1,4.87,4.87,0,0,0,.21,1.88c0.21,0.81.57,1.56,0.81,2.36a10.87,10.87,0,0,1,.38,5.86,9.7,9.7,0,0,1-3.38,5,12.38,12.38,0,0,1-6.44,2.6h0Z"/><path class="b" d="M15,0.25c1.94,1.48,5.65,1.51,7.18-.12L26.7,4.3a5.9,5.9,0,0,0-2.12,3.15,5.6,5.6,0,0,0,.21,1.92c0.24,0.81.57,1.57,0.81,2.36A11.75,11.75,0,0,1,26,17.53a11.28,11.28,0,0,1-9.77,7.56L15,26.34l-1.22-1.25A11.28,11.28,0,0,1,4,17.53a11.75,11.75,0,0,1,.38-5.81c0.25-.79.58-1.55,0.81-2.36a5.6,5.6,0,0,0,.21-1.92A5.9,5.9,0,0,0,3.3,4.3L7.82,0.13c1.53,1.63,5.23,1.6,7.18.12h0Z"/><path class="a" d="M15,0.82a6.66,6.66,0,0,1-3,1,6,6,0,0,1-4.21-1L4,4.3A5.77,5.77,0,0,1,5.88,7.38a5.35,5.35,0,0,1-.22,2.1c-0.21.82-.58,1.57-0.82,2.38a10.33,10.33,0,0,0-.38,5.56,9.15,9.15,0,0,0,3.19,4.73,11.83,11.83,0,0,0,6.18,2.48l0.17,0,0.12,0.12L15,25.67l0.88-.9L16,24.65l0.17,0a11.83,11.83,0,0,0,6.18-2.48,9.15,9.15,0,0,0,3.19-4.73,10.33,10.33,0,0,0-.38-5.56c-0.24-.8-0.61-1.56-0.82-2.38a5.34,5.34,0,0,1-.22-2.1A5.77,5.77,0,0,1,26,4.3L22.18,0.76a6,6,0,0,1-4.21,1,6.66,6.66,0,0,1-3-1h0Z"/><path class="b" d="M21,7.17h0a3.75,3.75,0,0,1,.55.45l-0.22.25a2.41,2.41,0,0,0-.39-0.63,2.41,2.41,0,0,0-.39.63l-0.22-.25a3.75,3.75,0,0,1,.55-0.45h0l0,0h0l0,0h0Zm-11.77,0h0a3.75,3.75,0,0,1,.55.45l-0.22.25a2.41,2.41,0,0,0-.39-0.63,2.41,2.41,0,0,0-.39.63L8.5,7.62a3.75,3.75,0,0,1,.55-0.45H9l0,0h0l0,0h0ZM7.43,4a0.86,0.86,0,0,0,0-.91,0.8,0.8,0,0,0,0,.91h0Zm0.23-.17a0.82,0.82,0,0,0,.48-0.75,0.75,0.75,0,0,0-.48.75h0Zm-0.23.5A0.61,0.61,0,0,0,8,3.8a0.64,0.64,0,0,0-.55.51h0Zm-0.14.21a0.82,0.82,0,0,0-.12-0.88,0.75,0.75,0,0,0,.12.88h0ZM7.21,4.9A0.69,0.69,0,0,1,6.8,4.13a0.69,0.69,0,0,1,.41.77h0ZM7.28,5.07a0.75,0.75,0,0,0,.4-0.73,0.69,0.69,0,0,0-.4.73h0ZM7.34,5.49A0.69,0.69,0,0,1,6.8,4.8a0.69,0.69,0,0,1,.54.69h0ZM7.5,5A0.86,0.86,0,0,0,7.66,6,0.85,0.85,0,0,0,7.5,5h0Zm0,0.84A0.69,0.69,0,0,1,6.75,5.4a0.7,0.7,0,0,1,.74.48h0Zm0.3,0.55A0.69,0.69,0,0,1,7.05,6a0.7,0.7,0,0,1,.74.48h0Zm0-.57a0.67,0.67,0,0,0,.4.78,0.77,0.77,0,0,0-.4-0.78h0ZM8.9,7a0.69,0.69,0,0,1-.67-0.52A0.64,0.64,0,0,1,8.9,7h0ZM8.08,6.72a0.69,0.69,0,0,0-.86-0.16,0.69,0.69,0,0,0,.86.16h0Zm0.43,0.2a0.69,0.69,0,0,0-.86.13,0.69,0.69,0,0,0,.86-0.13h0ZM9,7.1a0.69,0.69,0,0,0-.85.19A0.69,0.69,0,0,0,9,7.1H9ZM10.8,4a0.86,0.86,0,0,1,0-.91,0.8,0.8,0,0,1,0,.91h0Zm-0.23-.17a0.82,0.82,0,0,1-.48-0.75,0.75,0.75,0,0,1,.48.75h0Zm0.23,0.5a0.61,0.61,0,0,1-.55-0.51,0.64,0.64,0,0,1,.55.51h0Zm0.14,0.21a0.82,0.82,0,0,1,.12-0.88,0.75,0.75,0,0,1-.12.88h0ZM11,4.9a0.69,0.69,0,0,0,.41-0.77A0.69,0.69,0,0,0,11,4.9h0Zm-0.07.17a0.75,0.75,0,0,1-.4-0.73,0.69,0.69,0,0,1,.4.73h0Zm-0.05.42a0.69,0.69,0,0,0,.54-0.69,0.69,0.69,0,0,0-.54.69h0ZM10.73,5a0.86,0.86,0,0,1-.16.91A0.85,0.85,0,0,1,10.73,5h0Zm0,0.84a0.69,0.69,0,0,0,.74-0.48,0.7,0.7,0,0,0-.74.48h0Zm-0.3.55A0.69,0.69,0,0,0,11.18,6a0.7,0.7,0,0,0-.74.48h0Zm0-.57a0.67,0.67,0,0,1-.4.78,0.77,0.77,0,0,1,.4-0.78h0ZM9.33,7A0.69,0.69,0,0,0,10,6.47,0.64,0.64,0,0,0,9.33,7h0Zm0.83-.27A0.69,0.69,0,0,1,11,6.56a0.69,0.69,0,0,1-.86.16h0Zm-0.43.2a0.69,0.69,0,0,1,.86.13,0.69,0.69,0,0,1-.86-0.13h0ZM9.18,7.1A0.69,0.69,0,0,1,10,7.3,0.69,0.69,0,0,1,9.18,7.1h0ZM19.2,4a0.86,0.86,0,0,0,0-.91,0.8,0.8,0,0,0,0,.91h0Zm0.23-.17a0.82,0.82,0,0,0,.48-0.75,0.75,0.75,0,0,0-.48.75h0Zm-0.23.5a0.61,0.61,0,0,0,.55-0.51,0.64,0.64,0,0,0-.55.51h0Zm-0.14.21a0.82,0.82,0,0,0-.12-0.88,0.75,0.75,0,0,0,.12.88h0ZM19,4.9a0.69,0.69,0,0,1-.41-0.77A0.69,0.69,0,0,1,19,4.9h0Zm0.07,0.17a0.75,0.75,0,0,0,.4-0.73,0.69,0.69,0,0,0-.4.73h0Zm0.05,0.42a0.69,0.69,0,0,1-.54-0.69,0.69,0.69,0,0,1,.54.69h0ZM19.27,5a0.86,0.86,0,0,0,.16.91A0.85,0.85,0,0,0,19.27,5h0Zm0,0.84a0.69,0.69,0,0,1-.74-0.48,0.7,0.7,0,0,1,.74.48h0Zm0.3,0.55A0.69,0.69,0,0,1,18.82,6a0.7,0.7,0,0,1,.74.48h0Zm0-.57a0.67,0.67,0,0,0,.4.78,0.77,0.77,0,0,0-.4-0.78h0ZM20.67,7A0.69,0.69,0,0,1,20,6.47a0.64,0.64,0,0,1,.67.52h0Zm-0.83-.27A0.69,0.69,0,0,0,19,6.56a0.69,0.69,0,0,0,.86.16h0Zm0.43,0.2a0.69,0.69,0,0,0-.86.13,0.69,0.69,0,0,0,.86-0.13h0ZM20.82,7.1A0.69,0.69,0,0,0,20,7.3a0.69,0.69,0,0,0,.85-0.19h0ZM22.57,4a0.86,0.86,0,0,1,0-.91,0.8,0.8,0,0,1,0,.91h0Zm-0.23-.17a0.82,0.82,0,0,1-.48-0.75,0.75,0.75,0,0,1,.48.75h0Zm0.23,0.5A0.61,0.61,0,0,1,22,3.8a0.64,0.64,0,0,1,.55.51h0Zm0.14,0.21a0.82,0.82,0,0,1,.12-0.88,0.75,0.75,0,0,1-.12.88h0ZM22.79,4.9a0.69,0.69,0,0,0,.41-0.77,0.69,0.69,0,0,0-.41.77h0Zm-0.07.17a0.75,0.75,0,0,1-.4-0.73,0.69,0.69,0,0,1,.4.73h0Zm-0.05.42A0.69,0.69,0,0,0,23.2,4.8a0.69,0.69,0,0,0-.54.69h0ZM22.5,5a0.86,0.86,0,0,1-.16.91A0.85,0.85,0,0,1,22.5,5h0Zm0,0.84a0.69,0.69,0,0,0,.74-0.48,0.7,0.7,0,0,0-.74.48h0Zm-0.3.55A0.69,0.69,0,0,0,22.95,6a0.7,0.7,0,0,0-.74.48h0Zm0-.57a0.67,0.67,0,0,1-.4.78,0.77,0.77,0,0,1,.4-0.78h0ZM21.1,7a0.69,0.69,0,0,0,.67-0.52A0.64,0.64,0,0,0,21.1,7h0Zm0.83-.27a0.69,0.69,0,0,1,.86-0.16,0.69,0.69,0,0,1-.86.16h0Zm-0.43.2a0.69,0.69,0,0,1,.86.13,0.69,0.69,0,0,1-.86-0.13h0ZM21,7.1a0.69,0.69,0,0,1,.85.19A0.69,0.69,0,0,1,21,7.1h0Z"/><path class="b" d="M14.91,2.55a0.24,0.24,0,0,1,.23-0.1,0.26,0.26,0,0,1,.24.17,2,2,0,0,0,0,.31l2.24,4.68a0.35,0.35,0,0,0,.14.15,0.93,0.93,0,0,1,.49.47,0.45,0.45,0,0,1-.29.41c0,1.92,0,3.84,0,5.76a0.34,0.34,0,0,1,.16.29l0,1.37a0.48,0.48,0,0,1-.52.17,2.62,2.62,0,0,0,0-.36,0.72,0.72,0,0,0-.26-0.13c-1.63-.55-3.17-1.12-5-1.77a0.23,0.23,0,0,1-.18-0.22c0-.31,0-0.61,0-0.92a0.32,0.32,0,0,1,.2-0.21c0-1.3,0-2.61,0-3.91a0.44,0.44,0,0,1-.28-0.25,0.55,0.55,0,0,1,.25-0.57,0.93,0.93,0,0,0,.28-0.24l2.08-4.36a4.05,4.05,0,0,0,.18-0.4,0.67,0.67,0,0,1,.06-0.34h0Zm-1.74,5c0.65-1.37,1.31-2.74,2-4.11,0.09,0.17.17,0.35,0.26,0.53-0.15,0-.38,0-0.39.13a1.75,1.75,0,0,0,.47.05s0,0.12.07,0.17a0.44,0.44,0,0,0-.3.13,0.7,0.7,0,0,0,.41,0c0,0.1.08,0.22,0.13,0.32-0.23,0-.38,0-0.61.06-0.07,0,0,.06.11,0.07a2.94,2.94,0,0,1,.61.11,0.93,0.93,0,0,1,.12.26,1.58,1.58,0,0,0-.61,0,3.29,3.29,0,0,0,.71.15,2.49,2.49,0,0,1,.15.34,1.8,1.8,0,0,0-.76,0C15.35,6,16.17,5.9,16.42,6.11a2.8,2.8,0,0,1,.18.35,8.16,8.16,0,0,0-1.26,0c-0.09,0-.1.06,0,0.08a7.43,7.43,0,0,1,1.41.22l0.2,0.42a4,4,0,0,0-1.13-.07c-0.06,0,0,.06,0,0.07A7.41,7.41,0,0,1,17,7.39a0.21,0.21,0,0,1,.1.1,16.3,16.3,0,0,0-2-.19,10.61,10.61,0,0,0-1.94.21h0Zm3.94,7L17.6,14.6v1l-0.49-.18V14.47h0Zm-0.87-.25,0.56,0.17V15.3l-0.56-.18v-0.9h0Zm-0.89-.29,0.57,0.18V15l-0.57-.23V13.93h0Zm-0.84-.31L15,13.8v0.89l-0.53-.19V13.62h0Zm-0.86-.3,0.56,0.21v0.89l-0.55-.19,0-.91h0ZM12.82,13l0.51,0.2v0.92L12.83,14V13h0Zm2.83-4.2a8.29,8.29,0,0,1,1.91.31c0,0.08,0,.15,0,0.23a3.33,3.33,0,0,0-1.2-.13c-0.08,0-.11.07-0.06,0.08a2.73,2.73,0,0,1,1.27.31c0,0.11,0,.22,0,0.32-0.3-.08-0.61-0.12-0.92-0.17a5.43,5.43,0,0,0-1-.08l0.05-.86h0Zm-0.9,0a6.4,6.4,0,0,1,.72,0c0,0.38,0,.76-0.07,1.14h-0.6c0-.38,0-0.75-0.06-1.13h0ZM13.1,8.48a12.61,12.61,0,0,1,3.39-.11,3.26,3.26,0,0,1,1.06.23c0,0.08,0,.2,0,0.28a17.56,17.56,0,0,0-1.89-.21,0.27,0.27,0,0,0-.25-0.1c-0.29,0-.58,0-0.87,0a0.09,0.09,0,0,0-.08.09c0,0.34,0,.71.05,1-0.33,0-.65.06-1,0.1a0.54,0.54,0,0,0-.3.1,0,0,0,0,0,0,0h0l1.28-.06c0,0.05,0,.09,0,0.14a0.09,0.09,0,0,0,.09.08h0.73a0.32,0.32,0,0,0,.2,0c0-.07,0-0.13,0-0.2a6,6,0,0,1,.85.07,4.22,4.22,0,0,1,1.12.29c0,0.08,0,.17,0,0.25a5,5,0,0,0-1.22-.14,0.23,0.23,0,0,0-.16.06,0,0,0,0,0,0,0h0a3.59,3.59,0,0,1,1.34.32l0,0.27a10,10,0,0,0-2.7-.23,4.62,4.62,0,0,0-1.08.12s0,0.08.08,0.09a16.83,16.83,0,0,1,2.19,0,6,6,0,0,1,1.54.33c0,0.1,0,.21,0,0.31a8.34,8.34,0,0,0-2.15-.18c-0.08,0-.07.08,0,0.08a6.63,6.63,0,0,1,2.15.37c0,0.11,0,.21,0,0.32a4.37,4.37,0,0,0-1,0c-0.1,0-.07.07,0,0.09a3.07,3.07,0,0,1,1.06.18c0,0.14,0,.28,0,0.42A4.18,4.18,0,0,0,16,12.83a0.14,0.14,0,0,0-.13.1,0,0,0,0,0,0,0h0a5,5,0,0,1,1.67.22c0,0.13,0,.26,0,0.39a4.18,4.18,0,0,0-.92-0.09c-0.16,0-.24.11-0.13,0.13s0.34,0,.54,0a3.35,3.35,0,0,1,.51.12c0,0.2,0,.46,0,0.66L13.33,13a0.75,0.75,0,0,1-.5-0.4c-0.05-.54,0-1,0-1.53,0-.76,0-1.52,0-2.28a0.34,0.34,0,0,1,.33-0.28h0Zm0-.59a9.26,9.26,0,0,1,4.15,0,0.67,0.67,0,0,1,.51.3,0.15,0.15,0,0,1,0,.16,2,2,0,0,1-.44-0.13A8.35,8.35,0,0,0,14.82,8a7.75,7.75,0,0,0-2.08.31,0.52,0.52,0,0,1-.2,0,0.13,0.13,0,0,1-.09-0.18,1.13,1.13,0,0,1,.64-0.26h0Z"/><path class="b" d="M7.38,16.64a2.17,2.17,0,0,1,.09.74v1.8a4.51,4.51,0,0,1-.07.74,0,0,0,0,0,0,0c0.69,0,1.37,0,2.05,0h0c0-.16.1-0.35,0.14-0.52s0-.14-0.1-0.08a1,1,0,0,1-.6.24H8.65c-0.39,0-.46-0.14-0.46-0.54v-0.7h0a8.67,8.67,0,0,1,1,0h0L9.32,18s0,0,0,0A9.52,9.52,0,0,1,8.2,18h0c0-.33,0-0.65,0-1a0,0,0,0,1,0,0,1.09,1.09,0,0,1,1,.24,0,0,0,0,0,.06,0l0.16-.57h0c-0.68,0-1.36,0-2,0,0,0,0,0,0,0h0Zm12.83,1s0,0,0,0c0.23,0,.46,0,0.68,0a0,0,0,0,1,0,0l0,0.4a1.27,1.27,0,0,1,.86-0.45,0.69,0.69,0,0,1,.75.84v0.82a2.36,2.36,0,0,0,.1.72s0,0,0,0a6.49,6.49,0,0,0-.75,0,0,0,0,0,1,0,0,4.39,4.39,0,0,0,.06-0.7V18.46A0.41,0.41,0,0,0,21.46,18a0.55,0.55,0,0,0-.53.55v0.63a2.52,2.52,0,0,0,.1.75s0,0,0,0c-0.25,0-.49,0-0.74,0,0,0,0,0,0,0A6,6,0,0,0,20.31,19V18.42a3,3,0,0,0-.1-0.82h0Zm-1.33-.07A1.19,1.19,0,0,0,17.6,18.8,1.09,1.09,0,0,0,18.82,20a1.21,1.21,0,0,0,1.25-1.3,1.09,1.09,0,0,0-1.2-1.18h0Zm-0.08.28c0.49,0,.58.54,0.59,0.95s-0.05,1-.56,1-0.55-.55-0.56-1,0-.92.53-0.94h0Zm-2.62-.63s0,0,0,0,0,0.28,0,.41a0,0,0,0,1,0,0H15.9l-0.09.31s0,0.05,0,0l0.3,0s0,0,0,0v1.3a0.62,0.62,0,0,0,.66.74,2.17,2.17,0,0,0,.56-0.1l0,0,0.09-.31a0,0,0,0,0-.06-0.06,0.61,0.61,0,0,1-.29.09c-0.29,0-.37-0.2-0.37-0.53V18.26c0-.1,0-0.28,0-0.31h0a5.56,5.56,0,0,1,.62,0h0l0.09-.32s0-.07-0.05-0.05a1,1,0,0,1-.23,0H16.81a6.07,6.07,0,0,1,0-.64c0-.07,0-0.08-0.09,0a2.9,2.9,0,0,1-.59.26h0Zm-2.13.43a0,0,0,0,0,0,0,2.87,2.87,0,0,1,.1.79V19.2a6.09,6.09,0,0,1-.05.71s0,0,0,0c0.25,0,.5,0,0.75,0,0,0,0,0,0,0a2.21,2.21,0,0,1-.1-0.71V18.73a0.53,0.53,0,0,1,.42-0.62,0.29,0.29,0,0,1,.22.15,0,0,0,0,0,.07,0l0.18-.66s0,0,0,0a0.45,0.45,0,0,0-.2,0,1.06,1.06,0,0,0-.74.6V17.6h0l-0.63,0h0Zm-1.63,1.11h0a0.8,0.8,0,0,0,.81.88,0.82,0.82,0,0,0,.5-0.16s0.09,0,.07.06l-0.1.36h0a2.72,2.72,0,0,1-.74.14,1.15,1.15,0,0,1-1.19-1.25,1.13,1.13,0,0,1,1.16-1.22,0.86,0.86,0,0,1,.94.91,0.38,0.38,0,0,1,0,.24H12.42Zm0-.3a0.51,0.51,0,0,1,.45-0.61,0.36,0.36,0,0,1,.37.36c0,0.34-.35.21-0.82,0.25h0Zm-3-.84a0,0,0,0,0,0,0,1.78,1.78,0,0,1,.31.56l0.46,1.37a2.15,2.15,0,0,1,.09.39h0.58A2.55,2.55,0,0,1,11,19.52l0.57-1.32a3.21,3.21,0,0,1,.33-0.59s0-.08,0-0.07a5,5,0,0,1-.58,0s0,0,0,0a1.74,1.74,0,0,1-.14.72l-0.37,1-0.36-1.22a4.9,4.9,0,0,1-.09-0.49s0,0,0,0a8.16,8.16,0,0,1-.84,0h0Z"/><path class="b" d="M12.77,21.43h0a0.5,0.5,0,0,1,0,.14s0,0,0,0A1.46,1.46,0,0,1,13,21.53c0.06,0,.1,0,0.1.21v1a2.93,2.93,0,0,1,0,.38H13.4a1.68,1.68,0,0,1,0-.38v-1c0-.14,0-0.28,0-0.41s0,0,0,0a3.51,3.51,0,0,1-.58.12h0Zm3.47,0.28a0.49,0.49,0,0,1,.52-0.45,0.44,0.44,0,0,1,.47.42,0.53,0.53,0,0,1-.34.43,0.6,0.6,0,0,1,.4.51,0.55,0.55,0,0,1-.61.52,0.48,0.48,0,0,1-.53-0.47,0.62,0.62,0,0,1,.41-0.51,0.5,0.5,0,0,1-.32-0.45h0Zm0.45,0.53a0.54,0.54,0,0,1,.38.44,0.36,0.36,0,0,1-.37.34,0.34,0.34,0,0,1-.35-0.35,0.49,0.49,0,0,1,.34-0.43h0ZM16.77,22a0.43,0.43,0,0,0,.28-0.35,0.29,0.29,0,0,0-.31-0.31,0.29,0.29,0,0,0-.29.29,0.53,0.53,0,0,0,.31.37h0Zm-3-.33a0.49,0.49,0,0,1,.52-0.45,0.44,0.44,0,0,1,.47.42,0.53,0.53,0,0,1-.34.43,0.6,0.6,0,0,1,.4.51,0.55,0.55,0,0,1-.61.52,0.48,0.48,0,0,1-.53-0.47,0.62,0.62,0,0,1,.41-0.51,0.5,0.5,0,0,1-.32-0.45h0Zm0.45,0.53a0.54,0.54,0,0,1,.38.44,0.36,0.36,0,0,1-.37.34,0.34,0.34,0,0,1-.35-0.35,0.49,0.49,0,0,1,.34-0.43h0ZM14.27,22a0.43,0.43,0,0,0,.28-0.35,0.29,0.29,0,0,0-.31-0.31,0.29,0.29,0,0,0-.29.29,0.53,0.53,0,0,0,.31.37h0Zm0.77-.7h0a1.46,1.46,0,0,1-.06.26,0,0,0,0,0,0,0h0a0.47,0.47,0,0,1,.26-0.07H15.9L15,23.11a0,0,0,0,0,0,0v0h0a2.53,2.53,0,0,1,.31,0s0,0,0,0a4.45,4.45,0,0,1,.8-1.61,0,0,0,0,0,0,0,0.87,0.87,0,0,1,0-.14,0,0,0,0,0,0,0H15Z"/><path class="b" d="M2.71,21.61l1.2-.74-0.14-.22L3,21.13l0.49-.93-0.2-.31-1.2.74,0.14,0.22,0.92-.57L2.56,21.37l0.15,0.25h0Zm0.78,1.07,0.17-.12-0.13-.18,0.81-.59L4.46,22l0.17-.12L4.2,21.27,4,21.39l0.13,0.18-0.81.59L3.23,22l-0.17.12,0.43,0.59h0Zm1,1.12,0.17-.15L4.23,23.2l0.88-.79-0.19-.22-1,.94,0.61,0.68h0Zm2.3,0.62L7,24.21A1.16,1.16,0,0,0,6.85,24a1.2,1.2,0,0,0-.18-0.18,0.67,0.67,0,0,0-.4-0.17,0.38,0.38,0,0,0-.32.14,0.4,0.4,0,0,0-.1.23,0.48,0.48,0,0,0,.08.26L6,24.43l0.1,0.13a0.28,0.28,0,0,1,.05.12,0.14,0.14,0,0,1,0,.11,0.14,0.14,0,0,1-.09.05H6l-0.08,0-0.07-.05a0.75,0.75,0,0,1-.17-0.21,0.81,0.81,0,0,1-.09-0.26l-0.2.23a1.39,1.39,0,0,0,.12.19,1.14,1.14,0,0,0,.2.21,0.69,0.69,0,0,0,.42.18,0.4,0.4,0,0,0,.33-0.15,0.37,0.37,0,0,0,.1-0.22,0.46,0.46,0,0,0-.07-0.25l-0.08-.12-0.09-.12a0.47,0.47,0,0,1-.09-0.15,0.13,0.13,0,0,1,0-.12,0.13,0.13,0,0,1,.08,0H6.38l0.09,0L6.54,24a0.66,0.66,0,0,1,.16.2,0.74,0.74,0,0,1,.08.22h0ZM7.59,26.2l0.34-1.44-0.3-.19-1.15.94,0.25,0.15L7,25.46l0.46,0.28L7.33,26,7.59,26.2h0Zm-0.12-.67-0.34-.21,0.51-.44-0.17.65h0Zm2,0.29,0.1-.2-1-.49-0.1.2,0.38,0.18L8.29,26.57l0.26,0.13,0.52-1.06,0.38,0.18h0ZM10,27.29l0.07-.19L9.9,27l0.36-.93,0.21,0.08L10.54,26l-0.68-.26-0.07.19L10,26l-0.36.93-0.21-.08L9.35,27,10,27.29h0Zm1.78-.59,0.08-.28-0.18-.11-0.24-.09a0.67,0.67,0,0,0-.43,0,0.37,0.37,0,0,0-.23.26,0.4,0.4,0,0,0,0,.25,0.48,0.48,0,0,0,.18.21L11.13,27l0.15,0.08a0.28,0.28,0,0,1,.1.09,0.14,0.14,0,0,1,0,.11,0.14,0.14,0,0,1-.06.09l-0.08,0H11.16l-0.08,0a0.75,0.75,0,0,1-.24-0.12,0.81,0.81,0,0,1-.2-0.2l-0.08.29,0.19,0.12a1.15,1.15,0,0,0,.27.1,0.69,0.69,0,0,0,.46,0,0.4,0.4,0,0,0,.24-0.28,0.37,0.37,0,0,0,0-.24,0.46,0.46,0,0,0-.17-0.19l-0.13-.08-0.13-.07a0.47,0.47,0,0,1-.14-0.1,0.13,0.13,0,0,1,0-.12,0.13,0.13,0,0,1,.05-0.07l0.08,0h0.09l0.09,0a0.67,0.67,0,0,1,.23.11,0.74,0.74,0,0,1,.16.16h0ZM14,28.11l0.2-1.39-0.26,0-0.13.9-0.4-1L13,26.55l-0.2,1.39,0.26,0,0.15-1.07,0.46,1.15,0.29,0h0Zm1.32,0v-0.2H15.06l0-1h0.22v-0.2H14.57v0.2h0.22l0,1H14.55v0.2h0.73Zm1.44-1.2,0-.29-0.21,0H16.22a0.67,0.67,0,0,0-.4.17,0.37,0.37,0,0,0-.12.33,0.4,0.4,0,0,0,.09.23,0.48,0.48,0,0,0,.25.13l0.16,0,0.16,0a0.28,0.28,0,0,1,.13,0,0.14,0.14,0,0,1,.06.1,0.14,0.14,0,0,1,0,.1l-0.07.06-0.09,0H16.28a0.75,0.75,0,0,1-.27,0,0.82,0.82,0,0,1-.25-0.12l0,0.3,0.22,0a1.15,1.15,0,0,0,.29,0,0.69,0.69,0,0,0,.42-0.17,0.4,0.4,0,0,0,.12-0.34,0.37,0.37,0,0,0-.09-0.22,0.46,0.46,0,0,0-.23-0.12l-0.15,0-0.14,0a0.47,0.47,0,0,1-.17,0A0.13,0.13,0,0,1,16,27a0.13,0.13,0,0,1,0-.09l0.06-.06,0.09,0,0.09,0a0.67,0.67,0,0,1,.25,0,0.74,0.74,0,0,1,.21.09h0Zm1.36,0.84,0-.2-0.22,0-0.19-1,0.22,0,0-.2-0.72.14,0,0.2,0.22,0,0.19,1-0.22,0,0,0.2,0.72-.14h0Zm2.19-1.37A0.78,0.78,0,0,0,19.92,26a0.7,0.7,0,0,0-.92.32,0.91,0.91,0,0,0,.35,1A0.7,0.7,0,0,0,20.27,27a0.78,0.78,0,0,0,0-.56h0Zm-0.26.5a0.31,0.31,0,0,1-.08.13,0.32,0.32,0,0,1-.12.07,0.33,0.33,0,0,1-.14,0,0.31,0.31,0,0,1-.14-0.05A0.48,0.48,0,0,1,19.4,27a0.81,0.81,0,0,1-.1-0.21,0.82,0.82,0,0,1,0-.23,0.46,0.46,0,0,1,0-.18,0.32,0.32,0,0,1,.08-0.13,0.33,0.33,0,0,1,.12-0.07l0.14,0a0.31,0.31,0,0,1,.14.05,0.48,0.48,0,0,1,.12.12,0.81,0.81,0,0,1,.1.21,0.85,0.85,0,0,1,0,.22,0.48,0.48,0,0,1,0,.18h0Zm0.42-1.32L21,26.87l0.26-.12-0.2-.43,0.22-.1a0.58,0.58,0,0,0,.19-0.14,0.52,0.52,0,0,0,.1-0.18,0.4,0.4,0,0,0,0-.17,0.57,0.57,0,0,0-.05-0.18,0.48,0.48,0,0,0-.12-0.17,0.35,0.35,0,0,0-.16-0.08H21.12a0.81,0.81,0,0,0-.2.07l-0.49.23h0Zm0.87,0.08a0.36,0.36,0,0,1,0,.11,0.21,0.21,0,0,1,0,.1,0.22,0.22,0,0,1-.08.1l-0.13.07L21,26.12l-0.21-.45,0.08,0L21,25.58l0.12,0a0.2,0.2,0,0,1,.11,0,0.21,0.21,0,0,1,.08.1h0Zm1.39-1-0.12-.19-1,.6,0.12,0.19L22.08,25l0.63,1L23,25.87l-0.63-1,0.36-.22h0Zm1.57,0.29-0.13-.16L24,24.91l-0.62-.79L23.52,24l-0.13-.16-0.58.45,0.13,0.16,0.17-.13,0.62,0.79-0.17.14,0.13,0.16,0.58-.45h0Zm1.42-1.3-1-1-0.26.25,0.31,0.78L24,23.32l-0.26.25,1,1,0.19-.19-0.76-.79,0.74,0.34L25,23.8,24.71,23l0.76,0.79,0.21-.2h0Zm0-2.23-0.18.23,0.7,0.54a0.39,0.39,0,0,1,.15.2,0.26,0.26,0,0,1-.07.22,0.26,0.26,0,0,1-.2.11,0.4,0.4,0,0,1-.23-0.1l-0.7-.54L25,22.3l0.72,0.56a0.53,0.53,0,0,0,.4.13,0.73,0.73,0,0,0,.53-0.67A0.53,0.53,0,0,0,26.41,22l-0.71-.56h0Zm2.21-.77-1.2-.74-0.19.3L27,20.87l-0.83-.14L26,21l1.2,0.74,0.14-.23L26.4,21l0.8,0.15,0.11-.17-0.48-.65,0.93,0.58,0.15-.24h0Z"/></svg>