<?xml version="1.0" encoding="utf-8"?>
<!-- Generator: Adobe Illustrator 17.0.0, SVG Export Plug-In . SVG Version: 6.00 Build 0)  -->
<!DOCTYPE svg PUBLIC "-//W3C//DTD SVG 1.1//EN" "http://www.w3.org/Graphics/SVG/1.1/DTD/svg11.dtd">
<svg version="1.1" id="Layer_1" xmlns="http://www.w3.org/2000/svg" xmlns:xlink="http://www.w3.org/1999/xlink" x="0px" y="0px"
	 width="30px" height="30px" viewBox="0 0 30 30" style="enable-background:new 0 0 30 30;" xml:space="preserve">
<style type="text/css">
	.st0{fill:#FFFFFF;}
	.st1{fill:none;stroke:#FFFFFF;stroke-miterlimit:10;}
	.st2{fill:#BA8B2D;}
	.st3{fill:#263C83;}
	.st4{fill:#2B2F36;}
	.st5{fill:#9E8644;}
	.st6{fill:#A29165;}
	.st7{fill:#A48C4C;}
	.st8{fill:#FFFFFA;}
	.st9{fill:#A28C51;}
	.st10{fill:#A48C49;}
	.st11{fill:#FFFFFD;}
	.st12{fill:#25397A;}
	.st13{fill:#374041;}
	.st14{fill:#424740;}
	.st15{fill:#E1C177;}
	.st16{fill:#A48C4D;}
	.st17{fill:#323C41;}
	.st18{fill:#2B3B48;}
	.st19{fill:#B98A2D;}
	.st20{fill:#2A3843;}
	.st21{fill:#1D2F44;}
	.st22{fill:#B29349;}
	.st23{fill:#524E35;}
	.st24{fill:#596EB2;}
	.st25{fill:#586EB2;}
	.st26{fill:#D3D3D6;}
	.st27{fill:#596DB3;}
	.st28{fill:#D2D3D9;}
	.st29{fill:#CED4E0;}
	.st30{fill:#B5C7E7;}
	.st31{fill:#D3D3D7;}
	.st32{fill:#5A6DB3;}
	.st33{fill:#E81E25;}
	.st34{fill:#536EB5;}
	.st35{fill:#5A6EAF;}
	.st36{fill:#D7D3D5;}
	.st37{fill:#FCF7FA;}
	.st38{fill:#FCF8FB;}
	.st39{fill:#C6363B;}
	.st40{fill:#C63136;}
	.st41{fill:#576DB4;}
	.st42{fill:#D2D3D8;}
	.st43{fill:#D2D3D7;}
	.st44{fill:#ED1C24;}
	.st45{fill:#E21F26;}
	.st46{fill:#DB1F26;}
	.st47{fill:#D3D3D8;}
	.st48{fill:#E01F26;}
	.st49{fill:#E11F26;}
	.st50{fill:#E91D25;}
	.st51{fill:#E31E26;}
	.st52{fill:#E71E25;}
	.st53{fill:#566DB4;}
	.st54{fill:#D1D3D8;}
	.st55{fill:#BC7D80;}
	.st56{fill:#C86D70;}
	.st57{fill:#C3363A;}
	.st58{fill:#566EB0;}
	.st59{fill:#CE3438;}
	.st60{fill:#CC2A30;}
	.st61{fill:#CA2127;}
	.st62{fill:#CED4DF;}
	.st63{fill:#5A6DB2;}
	.st64{fill:#6C81B9;}
	.st65{fill:#FEF3F8;}
	.st66{fill:#FEF2F4;}
	.st67{fill:#263A7D;}
	.st68{fill:#D0D4DE;}
	.st69{fill:#D2D3D6;}
	.st70{fill:#586DB4;}
	.st71{fill:#C8CDE1;}
	.st72{fill:#586EB0;}
	.st73{fill:#338956;}
	.st74{fill:#5B72AE;}
	.st75{fill:#2A3A46;}
	.st76{fill:#FFFEF8;}
	.st77{fill:#A69A77;}
	.st78{fill:#323B38;}
	.st79{fill:#1B3461;}
	.st80{fill:#9B916E;}
	.st81{fill:#3B4342;}
	.st82{fill:#FFFEF5;}
	.st83{fill:#FFFEF6;}
	.st84{fill:#263B7F;}
	.st85{fill:#28334A;}
	.st86{fill:#2F3C42;}
	.st87{fill:#FFFEF7;}
	.st88{fill:#FFFEF4;}
	.st89{fill:#253876;}
	.st90{fill:#374654;}
	.st91{fill:#253C58;}
	.st92{fill:#2A3E55;}
	.st93{fill:#C2B388;}
	.st94{fill:#3E4B53;}
	.st95{fill:#FFFFF9;}
	.st96{fill:#293E58;}
	.st97{fill:#A0936B;}
	.st98{fill:#363A31;}
	.st99{fill:#AB945B;}
	.st100{fill:#464B45;}
	.st101{fill:#3B4544;}
	.st102{fill:#2D3F56;}
	.st103{fill:#2F3D49;}
	.st104{fill:#B0A789;}
	.st105{fill-rule:evenodd;clip-rule:evenodd;fill:#252C6A;}
	.st106{fill-rule:evenodd;clip-rule:evenodd;fill:#FFFFFF;}
	.st107{opacity:0.3;}
	.st108{fill:none;stroke:#FFFFFF;stroke-width:7;stroke-miterlimit:10;}
	.st109{fill:none;stroke:#FFFFFF;stroke-width:8;stroke-miterlimit:10;}
	.st110{opacity:0.89;}
	.st111{display:none;opacity:0.1;fill:#010101;}
	.st112{fill:#EDAC68;}
	.st113{fill:#FDC892;}
	.st114{clip-path:url(#SVGID_2_);}
	.st115{fill:#2E292A;}
	.st116{fill:#262125;}
	.st117{fill:#312C2F;}
	.st118{clip-path:url(#SVGID_4_);}
	.st119{fill:#0F303F;}
	.st120{fill:#2D5972;}
	.st121{fill:none;}
	.st122{opacity:0.5;fill:#B6B7B7;}
	.st123{fill:none;stroke:#F0F0F0;stroke-width:1.0228;stroke-miterlimit:10;}
	.st124{fill:#F0F0F0;}
	.st125{fill:none;stroke:#F0F0F0;stroke-width:2.0113;stroke-miterlimit:10;}
	.st126{fill:none;stroke:#F0F0F0;stroke-miterlimit:10;}
	.st127{fill:#F0F0F0;stroke:#F0F0F0;stroke-width:0.5;stroke-miterlimit:10;}
	.st128{opacity:0.77;}
	.st129{fill:none;stroke:#FFFFFF;stroke-width:4;stroke-linecap:round;stroke-linejoin:round;stroke-miterlimit:10;}
	.st130{fill:none;stroke:#FFFFFF;stroke-width:3.5;stroke-miterlimit:10;}
	.st131{fill:none;stroke:#FFFFFF;stroke-width:4;stroke-miterlimit:10;}
</style>
<g>
	<path class="st2" d="M13.5,0.1c2.1-0.2,4.3,0,6.4,0.7c2.7,0.9,5.2,2.7,7,4.9c1.8,2.2,2.9,5,3.1,7.8c0.1,1.5,0.1,3.1-0.2,4.6
		c-0.4,2.2-1.4,4.2-2.7,6c-1.4,1.8-3.1,3.3-5.2,4.4C19.7,29.4,17.4,30,15,30c-2.5,0-4.9-0.6-7.1-1.8c-2.5-1.4-4.6-3.5-6-6
		c-1-1.7-1.6-3.7-1.8-5.6c-0.2-2.1,0-4.2,0.6-6.2c0.9-2.8,2.7-5.4,5-7.2C8,1.4,10.7,0.4,13.5,0.1 M12.9,0.5C9.4,1,6.2,2.8,3.9,5.5
		c-1.6,1.9-2.8,4.2-3.3,6.7c-0.3,1.4-0.2,2.8-0.2,4.1c0.2,2.5,1.1,4.9,2.5,7c2.4,3.5,6.4,5.9,10.6,6.3c0.7,0,1.4,0,2.1,0
		c1,0,2-0.2,3-0.4c2-0.5,3.9-1.5,5.5-2.8c3-2.5,5-6.2,5.3-10.1c0-1.3,0.1-2.6-0.2-3.8C29,10.2,28.1,8,26.7,6.2
		c-1.5-2-3.4-3.5-5.7-4.5c-1.8-0.8-3.7-1.3-5.7-1.2C14.5,0.4,13.7,0.4,12.9,0.5 M5.5,23.8c0.2-0.4,0.6-0.6,0.9-0.9
		c0.3,0.2,0.6,0.5,0.8,0.8C7.1,23.8,7,23.9,6.9,24c-0.2-0.1-0.4-0.3-0.6-0.3c0.1,0.2,0.2,0.3,0.3,0.5c-0.1,0.1-0.2,0.2-0.3,0.2
		c-0.1-0.1-0.2-0.2-0.4-0.3c-0.2,0.1-0.3,0.4-0.6,0.4l0,0C5.6,24.4,5.8,24.2,6,24c0.1,0.1,0.3,0.3,0.4,0.4c0-0.1,0.1-0.2,0.1-0.2
		c-0.1-0.1-0.2-0.3-0.4-0.4c0.1-0.1,0.2-0.2,0.3-0.3c0.1,0.1,0.3,0.3,0.4,0.4C6.9,23.9,7,23.8,7,23.7c-0.2-0.3-0.5-0.5-0.7-0.7
		C6,23.3,5.8,23.6,5.5,23.8 M23.5,22.9c0.1,0,0.3,0,0.4,0c0.2,0.1,0.3,0.3,0.5,0.5c0.1,0.1,0.3,0.2,0.4,0.3c0.1,0.2,0.1,0.4-0.1,0.6
		c-0.2,0.3-0.5,0.5-0.7,0.7c-0.3-0.3-0.6-0.6-0.9-0.9c-0.1-0.1-0.3-0.3-0.4-0.4C22.9,23.4,23.2,23.1,23.5,22.9 M23.5,23
		c-0.2,0.2-0.5,0.4-0.7,0.7c0.4,0.4,0.8,0.8,1.2,1.2c0.3-0.3,0.8-0.6,0.7-1.1c0-0.2-0.3-0.3-0.4-0.4c-0.1-0.1-0.2-0.3-0.3-0.4
		C23.8,22.9,23.6,22.9,23.5,23 M7.1,24.1c0.2,0,0.5,0,0.7,0C7.6,24.1,7.3,24.1,7.1,24.1 M7.5,24.6c0.2,0,0.3,0,0.4,0.2
		c0.1,0.4-0.3,0.9-0.7,0.9C6.7,25.3,7.1,24.7,7.5,24.6 M7.5,24.6c-0.3,0.1-0.4,0.3-0.5,0.5c-0.1,0.2,0.1,0.4,0.3,0.3
		c0.2-0.1,0.4-0.3,0.5-0.5C7.9,24.8,7.7,24.6,7.5,24.6 M20.4,25.5c-0.1-0.3,0.2-0.4,0.4-0.5c0.3,0.3,0.4,0.8,0.7,1.1
		c0.2,0.1,0.4-0.1,0.6-0.2c0.1,0.1,0.2,0.3,0.1,0.4c-0.3,0.2-0.6,0.4-1,0.6C20.9,26.4,20.6,26,20.4,25.5 M20.4,25.3
		c0.2,0.5,0.5,1,0.8,1.5c0.3-0.1,0.6-0.3,0.9-0.5c0-0.1-0.1-0.2-0.1-0.3c-0.2,0.1-0.3,0.2-0.5,0.3c-0.1,0-0.1-0.1-0.2-0.2
		c-0.2-0.3-0.4-0.6-0.6-1C20.6,25.2,20.5,25.3,20.4,25.3 M8.8,25.2c0.4-0.1,1,0,1.2,0.5c0.1,0.3,0.1,0.5,0,0.8
		c0,0.1-0.1,0.2-0.2,0.3c0.2-0.3,0.3-0.8,0.1-1.2C9.6,25.2,9.2,25.2,8.8,25.2L8.8,25.2 M10.3,25.7c0,0,0.1,0,0.1,0
		c0.3,0.1,0.6,0.2,0.9,0.3c0.1,0,0.2,0.1,0.2,0.1c0,0.1,0,0.3-0.1,0.4c-0.1,0-0.2,0-0.3,0c-0.1,0.1-0.2,0.3-0.2,0.4
		c-0.1,0.3-0.2,0.5-0.3,0.8c-0.2,0-0.4,0-0.5-0.2c0-0.3,0.1-0.5,0.2-0.8c0-0.1,0.1-0.1,0.1-0.2c-0.1,0.3-0.2,0.6-0.3,0.9
		c0.1,0.1,0.3,0.1,0.4,0.2c0.2-0.4,0.3-0.9,0.5-1.3c0.1,0,0.3,0.1,0.4,0.1c0-0.1,0-0.2,0-0.3C11.1,26.1,10.8,25.9,10.3,25.7
		c0,0.1,0,0.2,0,0.3c0.1,0.1,0.2,0.2,0.3,0.2c0,0,0,0.1,0,0.1c-0.1-0.1-0.2-0.2-0.4-0.2C10.2,26,10.3,25.9,10.3,25.7 M7.1,26
		c0.2,0,0.4,0,0.6,0C7.5,26.1,7.3,26.1,7.1,26 M20.3,26.6c0.1,0,0.3,0,0.4,0.1c0,0.4-0.2,0.7-0.6,0.9c-0.3,0.1-0.7,0.1-0.9-0.2
		c0.3,0.1,0.7,0.2,1,0c0.2-0.1,0.4-0.4,0.4-0.7c-0.1,0-0.2,0-0.2,0c-0.1,0.1-0.1,0.2-0.2,0.3C20.2,26.8,20.2,26.7,20.3,26.6
		L20.3,26.6z"/>
	<path class="st3" d="M12.9,0.5c0.8-0.1,1.6-0.1,2.4-0.1c2,0,3.9,0.4,5.7,1.2c2.2,1,4.2,2.6,5.7,4.5c1.4,1.8,2.3,4,2.7,6.2
		c0.3,1.3,0.2,2.6,0.2,3.8c-0.3,3.9-2.3,7.6-5.3,10.1c-1.6,1.3-3.5,2.3-5.5,2.8c-1,0.3-2,0.4-3,0.4c-0.7,0-1.4,0-2.1,0
		C9.4,29.2,5.3,26.8,3,23.3c-1.4-2.1-2.3-4.5-2.5-7c0-1.4-0.1-2.8,0.2-4.1c0.5-2.5,1.6-4.8,3.3-6.7C6.2,2.8,9.4,1,12.9,0.5
		 M14.3,1.1c0,1,0,2,0,3.1c0.7,0,1.4,0.1,2.1,0c0.1-0.3,0.1-0.6,0-0.8c-0.3,0-0.6,0-0.9,0c-0.1-0.7,0-1.5-0.1-2.2
		C15.1,1,14.7,1,14.3,1.1 M11.4,1.5c0,0.2,0,0.4,0,0.6c0.2,0.8,0.3,1.6,0.5,2.4c0.6-0.1,1.3-0.2,1.9-0.4c0-0.2-0.1-0.4-0.1-0.7
		c-0.1,0-0.2,0-0.3,0c-0.2,0-0.4,0-0.6,0c0-0.1,0-0.2,0-0.2c0.1,0,0.2-0.1,0.3-0.2c0.1,0,0.3,0,0.4-0.1c0-0.3,0-0.5-0.1-0.7
		c-0.1,0-0.3,0.1-0.4,0.1c-0.2,0-0.4,0-0.5-0.1c0.1-0.1,0.3-0.2,0.4-0.3c0.2,0,0.3-0.1,0.5-0.1c-0.1-0.2,0-0.5-0.2-0.7
		C12.6,1.2,12,1.4,11.4,1.5 M17.6,1.6c-0.4,0.2-0.6,0.7-0.4,1.2c0.1,0.3,0.4,0.5,0.7,0.7c-0.1,0.2-0.2,0.3-0.3,0.4
		c-0.1-0.2-0.2-0.3-0.2-0.5c-0.2,0-0.4,0.1-0.6,0.2c0.1,0.2,0.1,0.4,0.2,0.6c0.3,0.4,0.9,0.5,1.4,0.4c0.4-0.1,0.6-0.6,0.6-1
		c0-0.2-0.2-0.5-0.4-0.6c0.2-0.1,0.4-0.1,0.6-0.2C19.3,1.8,18.3,1.2,17.6,1.6 M9.3,2.3c0.1,0.3,0.2,0.5,0.3,0.8
		C9.6,3.1,9.6,3.3,9.5,3.3c-0.1,0-0.2,0-0.3,0C9.1,3.1,9,2.8,8.8,2.5C8.5,2.6,8.2,2.8,7.9,3c0.2,0.5,0.5,1.1,0.8,1.6
		C8.9,5,9,5.3,9.2,5.7c0.3-0.1,0.6-0.2,0.9-0.4C10,5,9.9,4.7,9.7,4.5c0-0.1,0-0.2,0-0.3c0.1,0,0.2-0.1,0.3-0.1
		c0.2,0.3,0.3,0.7,0.5,1c0.3-0.1,0.6-0.2,0.9-0.4c-0.4-0.9-0.9-1.8-1.3-2.7C9.9,2,9.6,2.1,9.3,2.3 M20.2,2.6
		c-0.4,0.8-0.8,1.5-1.1,2.3c0.6,0.3,1.1,0.6,1.7,0.9c0.1-0.2,0.2-0.4,0.3-0.6c-0.2-0.1-0.4-0.2-0.6-0.3c0-0.1,0-0.2,0-0.4
		c0.2,0,0.3,0.1,0.5,0.1c0.1,0,0.2,0.1,0.3,0.1c0.1-0.2,0.3-0.4,0.3-0.7c-0.2-0.1-0.4-0.2-0.6-0.3c0-0.1,0-0.2,0-0.2
		c0.2,0,0.3,0,0.5,0.1c0.1,0.1,0.2,0.1,0.4,0.2C22,3.5,22.1,3.3,22.2,3c-0.5-0.3-1.1-0.6-1.6-0.8C20.4,2.2,20.3,2.5,20.2,2.6
		 M6.3,4.1C5.6,4.3,5.1,5.2,5.4,6c0.2,0.4,0.5,0.8,0.9,1.1c0.8,0.5,2.1,0,2.3-1l0.1,0c0-0.3,0.2-0.7-0.1-0.8c0,0,0-0.1-0.1-0.1
		C8.2,5.1,8,5.2,7.8,5.2c0,0.4,0.1,0.8-0.3,1C7.3,6.2,7.1,6.2,7,6.3C6.8,6.2,6.5,6,6.4,5.7C6.2,5.4,6.2,5.1,6.4,4.9
		c0.3,0,0.5,0,0.8-0.1c0,0,0.1,0,0.1,0c0-0.3,0.1-0.5,0.1-0.8C7,4,6.7,4,6.3,4.1 M23.3,4.8c-0.7,0.4-1.4,0.7-2.1,1.1
		c0.1,0.2,0.3,0.4,0.5,0.4c0.1,0,0.3-0.1,0.4-0.2c0.1,0,0.3,0,0.4,0.1c0.1,0.1,0.1,0.3,0.1,0.5c0,0.1-0.1,0.2,0,0.3
		c0.2,0.2,0.4,0.4,0.7,0.6c0.2-0.7,0.5-1.4,0.7-2.1c0.1-0.4,0.3-0.8,0.4-1.3C24,4.4,23.7,4.6,23.3,4.8 M14.7,4.6
		c-1.7,0-3.4,0.5-4.9,1.4c-2.2,1.2-3.9,3.3-4.7,5.6c-0.5,1.5-0.7,3.1-0.5,4.7c0.3,2.2,1.3,4.3,2.8,5.9c1.6,1.7,3.9,2.9,6.2,3.2
		c1.8,0.2,3.7,0,5.4-0.7c2.1-0.9,4-2.5,5.1-4.5c1.4-2.5,1.8-5.5,0.9-8.2c-0.7-2.4-2.3-4.4-4.4-5.8C18.9,5.1,16.8,4.5,14.7,4.6
		 M2.6,10.4c-0.6,0.2-1.1,0.9-1,1.5c0,0.5,0.4,1,0.9,1.2c0.5,0.2,1.2,0,1.6-0.4c0.5-0.5,0.5-1.3,0.1-1.8C3.9,10.5,3.2,10.2,2.6,10.4
		 M26.6,10.4c-0.6,0.2-1.1,0.8-1,1.5c0,0.8,0.8,1.5,1.6,1.4c0.8-0.1,1.4-0.8,1.3-1.5C28.4,10.8,27.4,10.1,26.6,10.4 M2.3,17
		c-0.2,0-0.4,0-0.5,0.2c-0.1,0.3-0.2,0.5-0.3,0.8c-0.1,0.2,0.1,0.4,0.2,0.5c0,0.1-0.1,0.3,0,0.4c0,0.1,0.2,0.2,0.3,0.3
		c0.2,0.1,0.3,0.3,0.5,0.4c0.2,0.1,0.4,0,0.5-0.1c0.1,0.1,0.3,0.2,0.5,0.1c0.2-0.2,0.5-0.3,0.7-0.5c0.2-0.1,0.1-0.4,0.1-0.6
		c0.1-0.1,0.3-0.2,0.3-0.4c-0.1-0.3-0.2-0.6-0.2-0.9c-0.1-0.2-0.3-0.2-0.5-0.3c-0.1-0.2-0.1-0.4-0.4-0.4c-0.3,0-0.6,0-0.9-0.1
		C2.5,16.6,2.4,16.9,2.3,17 M26.5,16.7c-0.1,0.1-0.2,0.2-0.2,0.4c-0.2,0-0.4,0.1-0.5,0.3c-0.1,0.3-0.1,0.6-0.2,0.9
		c0,0.2,0.1,0.3,0.3,0.4c0,0.2-0.1,0.4,0.1,0.5c0.1,0.1,0.3,0.2,0.5,0.3c0.2,0.1,0.3,0.3,0.5,0.2c0.1,0,0.2-0.1,0.3-0.2
		c0.2,0.1,0.4,0.2,0.6,0.1c0.2-0.2,0.4-0.4,0.6-0.5c0.2-0.1,0.1-0.4,0.1-0.6c0.1-0.1,0.3-0.3,0.2-0.5c-0.1-0.3-0.2-0.5-0.3-0.8
		C28.3,17,28,17,27.8,17c-0.1-0.1-0.1-0.3-0.3-0.4c-0.2,0-0.4,0-0.6,0C26.8,16.7,26.6,16.6,26.5,16.7 M23.5,22.9
		c-0.3,0.2-0.5,0.5-0.8,0.8c-0.1,0.1-0.1,0.1-0.2,0.2c-0.1,0.1-0.2,0.2-0.3,0.3c0.2,0.4,0.7,0.7,0.7,1.2c0,0-0.1,0-0.2,0
		c-0.3-0.3-0.5-0.6-0.7-1c-0.2,0.1-0.3,0.2-0.5,0.3c0.2,0.3,0.5,0.7,0.8,1c0,0,0,0.1,0.1,0.1c0.3,0.2,1,0.1,1.1-0.3
		c0.2,0,0.2-0.4,0-0.5c0-0.1-0.1-0.2-0.2-0.3c-0.1-0.2-0.2-0.4-0.1-0.6c0.3,0.3,0.6,0.6,0.9,0.9c0.2-0.2,0.5-0.4,0.7-0.7
		c0.1-0.2,0.2-0.4,0.1-0.6c-0.1-0.2-0.2-0.2-0.4-0.3c-0.2-0.1-0.3-0.4-0.5-0.5C23.9,22.7,23.5,22.7,23.5,22.9 M5.5,23.8
		c-0.1,0.1-0.3,0.3-0.4,0.4c0.1,0.1,0.2,0.2,0.3,0.3l0,0c0.2-0.1,0.4-0.3,0.6-0.4c0.2,0,0.3,0.2,0.4,0.3l0,0c0.1,0,0.1,0.1,0.2,0.1
		c-0.1,0.3-0.2,0.6,0,0.9l0-0.1c0.2,0.5,0.9,0.8,1.3,0.5c0.1,0,0.2,0,0.2,0c0,0.3,0.1,0.7,0.3,0.8c0.3,0.4,1,0.4,1.3,0
		c0.1-0.1,0.2-0.2,0.2-0.3c0.1-0.1,0.2-0.2,0.4-0.1c0,0.1,0,0.3,0,0.4c-0.1,0.2-0.2,0.5-0.2,0.8c0.1,0.2,0.3,0.1,0.5,0.2
		c0.1-0.3,0.2-0.5,0.3-0.8c0.2-0.2,0.4-0.3,0.6-0.4l0,0c0.1-0.1,0.1-0.3,0.1-0.4c-0.1,0-0.2-0.1-0.2-0.1c-0.2-0.3-0.6-0.3-0.9-0.3
		c0,0-0.1,0-0.1,0c-0.1,0-0.2,0-0.3-0.1c-0.2-0.5-0.7-0.6-1.2-0.5c-0.1,0-0.2,0.1-0.3,0.1c0-0.2,0-0.4-0.1-0.6c0,0,0,0.1,0,0.1
		c-0.1-0.2-0.3-0.5-0.6-0.6c-0.2-0.1-0.5-0.1-0.8,0.1c-0.1,0-0.2,0-0.3-0.1c0.1-0.1,0.1-0.2,0.2-0.2c0.1-0.1,0.2-0.2,0.3-0.3
		c-0.3-0.3-0.5-0.6-0.8-0.8C6,23.2,5.7,23.5,5.5,23.8 M7.1,24.1c0.2,0,0.5,0,0.7,0C7.6,24.1,7.3,24.1,7.1,24.1 M20.4,25.5
		c0.3,0.5,0.6,0.9,0.8,1.4c0.3-0.2,0.7-0.3,1-0.6c0.1-0.1-0.1-0.3-0.1-0.4c-0.2,0.1-0.4,0.3-0.6,0.2c-0.3-0.3-0.4-0.8-0.7-1.1
		C20.6,25.1,20.2,25.2,20.4,25.5 M18.7,26.5c0,0.3,0.1,0.6,0.3,0.7c0.1,0.1,0.1,0.1,0.2,0.1c0.2,0.2,0.6,0.2,0.9,0.2
		c0.4-0.1,0.5-0.5,0.6-0.9c-0.1,0-0.3,0-0.4-0.1c0,0.1-0.1,0.3-0.1,0.4c0,0-0.1,0.1-0.1,0.1c-0.1,0-0.3-0.1-0.4-0.1
		c-0.2-0.1-0.2-0.3-0.3-0.5c0.1-0.1,0.1-0.2,0.2-0.3c0.2,0,0.3,0.1,0.5,0.1c0.1-0.1,0.2-0.3,0.2-0.4c-0.2-0.1-0.4-0.2-0.7-0.2
		C19.2,25.6,18.8,26,18.7,26.5 M7.1,26c0.2,0,0.4,0,0.6,0C7.5,26,7.3,26,7.1,26 M11.8,26.2L11.8,26.2c0,0.2,0,0.3-0.1,0.5
		c-0.1,0.2-0.2,0.4-0.1,0.6c-0.1,0.2-0.1,0.5-0.1,0.7c0,0.1,0.2,0.2,0.3,0.1c0.1,0,0.2,0.1,0.3,0.1c0.1,0.2,0.5,0.2,0.6,0
		c0.3-0.2,0.3-0.5,0.2-0.9c0,0,0-0.1,0-0.1c0,0,0.1,0,0.1,0c0.1-0.3,0-0.7-0.3-0.8C12.5,26.2,12.1,26.2,11.8,26.2 M14,26.4
		c-0.2,0.4-0.4,0.8-0.6,1.3c-0.1,0.2-0.3,0.4-0.3,0.7c0,0.2,0.4,0.2,0.4,0c0.1-0.1,0.2-0.2,0.3-0.4c0.2,0,0.3,0.3,0.4,0.5
		c0.2,0,0.4,0,0.6,0c-0.1-0.4-0.2-0.8-0.3-1.1C14.2,27,14.2,26.7,14,26.4 M16.3,26.5c-0.1,0.2,0,0.4,0,0.6c0.1,0.4,0,0.8,0.2,1.2
		l0,0.1l0,0.1c0.3,0.1,0.6-0.1,0.9-0.2c0.1,0,0.2,0,0.2-0.1c0-0.2,0-0.3-0.1-0.5c-0.2,0-0.4,0-0.5,0c0-0.2-0.1-0.5-0.1-0.7
		c0-0.1,0-0.3-0.1-0.3c0-0.1,0-0.2,0-0.3C16.7,26.3,16.5,26.4,16.3,26.5 M14.9,26.6c0,0.3,0,0.5,0.1,0.8c0,0.2,0,0.3,0,0.5
		c-0.1,0.2,0,0.5,0,0.7c0.4,0,0.8,0,1.3-0.1c0-0.2,0-0.3,0-0.5c-0.2,0-0.4,0-0.6,0c0-0.5,0-0.9,0-1.4C15.4,26.5,15.2,26.5,14.9,26.6
		 M16.3,6.9c0.2,0.2,0.2,0.5,0.4,0.6C17.2,8,17.8,8,18.5,8.1c0.1,0.3,0.4,0.4,0.6,0.6c-0.2,0.4-0.4,0.7-0.7,1
		c-0.1-0.1-0.3-0.3-0.5-0.2c-0.3,0.1-0.4,0.4-0.3,0.7c0.2,0,0.3,0,0.5,0c0,0.1,0,0.3,0,0.4c0,0.2,0,0.3,0,0.5
		c-0.3-0.1-0.6-0.4-0.9-0.3c-0.3,0.2-0.3,0.6-0.2,1c0.1,0.2,0.3,0.4,0.5,0.5c0.2,0,0.4-0.2,0.6-0.3c0.1,0.1,0.1,0.3,0.2,0.4
		c0,0.2,0,0.5-0.2,0.7c-0.2,0.3-0.6,0.3-0.9,0.3c-0.1,0.5,0.3,0.8,0.3,1.2c0.1,0.8,0.2,1.6,0.6,2.3c0.2,0.5,0.6,0.8,1.1,0.9
		c0.4,0.1,0.8,0,1.1-0.4c0.2-0.3,0.2-0.7,0.1-1.1c-0.2-0.7-0.9-1.1-1.1-1.7c-0.2-0.4-0.2-0.8,0.1-1.2c0.3-0.5,0.8-0.8,1.2-1.2
		c0.2-0.2,0.4-0.4,0.4-0.7c0.1-0.5-0.5-1-1-0.8c-0.3,0.1-0.4,0.3-0.5,0.5c0,0.1-0.1,0.2-0.2,0.2c0-0.2,0-0.5,0-0.7
		c0.1-0.1,0.2-0.2,0.2-0.3c0.6-0.5,1.6-0.4,2,0.3c0.2,0.4,0.2,0.9-0.1,1.3c-0.4,0.6-1.1,1-1.6,1.4c-0.2,0.2-0.3,0.4-0.4,0.6
		c0.4-0.3,0.8-0.5,1.3-0.5c0.4,0,0.7,0.3,0.9,0.6c0.2,0.5,0.1,1-0.3,1.3l-0.1,0.1c0-0.3,0.2-0.7-0.1-0.9c-0.3-0.4-0.9-0.4-1.2,0
		c-0.2,0.2-0.2,0.4-0.1,0.6c0.4,0.5,0.9,1,1,1.6c0.2,0.5,0,1.1-0.5,1.4c-0.6,0.3-1.3,0.2-1.9,0c0,0-0.1-0.1-0.2-0.1
		c-0.2-0.1-0.3-0.2-0.5-0.3c0.1,0.5,0.3,0.9,0.7,1.2c0.4,0.3,0.9,0.3,1.3,0.2c-0.1,0.1-0.2,0.3-0.3,0.4c-0.6,0.8-0.5,1.8-0.5,2.7
		c0,0.3-0.2,0.3-0.4,0.4c-0.2,0-0.2,0.2-0.3,0.3l0-0.1l0,0c0-0.1-0.1-0.2-0.1-0.3c-0.1,0-0.2,0-0.2,0c-0.2,0-0.4,0.2-0.4,0.4
		c0,0-0.1,0.1-0.2,0.1c0-0.2,0-0.4,0-0.6c-0.1,0-0.3,0-0.4,0c-0.1,0-0.3,0.1-0.4,0.1c-0.1,0.1-0.1,0.3-0.2,0.4c0,0-0.1-0.1-0.1-0.2
		c0-0.4-0.2-0.9,0.1-1.1c0.4-0.3,1-0.2,1.5-0.2c0.2-0.4,0.4-0.8,0.4-1.3c0-0.3-0.1-0.6-0.3-0.7c-0.2-0.1-0.5,0-0.8-0.1
		c-0.2-0.2-0.3-0.5-0.5-0.6c-0.2-0.1-0.4-0.1-0.6-0.1c-0.5,0.1-1,0.3-1.3,0.8c-0.1,0.3,0.1,0.6,0.4,0.7c0.1,0.1,0.3,0.1,0.4,0.2
		c-0.1,0-0.1,0.1-0.2,0.1c-0.3,0.1-0.5,0.2-0.7,0.4c-0.3,0.4-0.3,0.9-0.5,1.3c-0.2,0.2-0.5,0.2-0.7,0.3c-0.1,0.1-0.2,0.4-0.2,0.5
		c0-0.2-0.1-0.4-0.1-0.6c-0.2,0-0.3,0-0.5,0c-0.2,0.1-0.3,0.3-0.4,0.5c0,0,0,0.1-0.1,0.2c0,0-0.1-0.1-0.1-0.1c0-0.2,0-0.4,0-0.5
		c-0.2,0-0.4,0-0.6,0c0,0-0.1,0.1-0.2,0.1c-0.2,0.1-0.1,0.4-0.3,0.4l0-0.1c0-0.3-0.1-0.6-0.1-0.9c0-0.2,0.1-0.3,0.2-0.4
		c0.6-0.2,1.3,0.1,1.8-0.2c0.6-0.4,0.7-1.1,0.9-1.7c-0.2-0.2-0.6-0.3-0.6-0.6c0-0.3,0.1-0.5,0.3-0.7c0.7-0.6,1.7-0.8,2.4-1.3
		c0.3-0.2,0.5-0.5,0.4-0.8c-0.1-0.3-0.4-0.5-0.6-0.6c0,0.2,0.1,0.5,0,0.7c-0.2,0.2-0.5,0.2-0.8,0.3c-0.1-0.1-0.1-0.2-0.2-0.2
		c-0.1-0.2-0.2-0.4-0.4-0.6c-0.5,0.6-1.1,1.1-1.8,1.3c-0.2-0.1-0.3-0.3-0.5-0.3c-0.5-0.1-1.1,0.3-1.1,0.9c0,0-0.1,0-0.2,0l0-0.1
		c0-0.2,0-0.4,0-0.6c-0.2,0.1-0.4,0.1-0.6,0.2c0-0.2,0.1-0.4,0.1-0.5c-0.1,0-0.2,0-0.3,0.1c-0.1,0-0.2,0.1-0.2,0.1
		c0-0.2,0.1-0.4,0.2-0.6c-0.2,0-0.3,0-0.4,0.1l-0.1,0c0-0.3,0.3-0.5,0.6-0.6c0.6-0.1,1.2,0,1.7-0.2c0.4-0.2,0.8-0.5,1.2-0.7
		c0.5-0.3,1-0.6,1.5-0.9c-0.3,0-0.7,0-1-0.2c-0.1-0.1-0.1-0.2-0.2-0.3c-0.2,0.2-0.3,0.4-0.5,0.5c-0.2,0.1-0.5,0.1-0.7,0.1
		c-0.1-0.1-0.3-0.2-0.4-0.3c0.2-0.1,0.6,0,0.6-0.3c0.1-0.3-0.2-0.4-0.4-0.5c-0.3-0.1-0.7-0.2-1.1-0.3c0,0.9,0,1.8,0,2.8
		c-0.1,0-0.2,0-0.3,0c-0.1-1,0-1.9,0-2.9c-0.1,0-0.2,0-0.3,0c-0.1,0-0.3,0-0.4-0.2c-0.1-0.2-0.1-0.4-0.2-0.5c-0.1-0.2,0.1-0.4,0-0.6
		c0-0.1-0.1-0.3,0-0.4c0.1-0.2,0.3-0.2,0.5-0.2c0.1,0,0.2,0,0.4,0c0-0.1,0-0.2,0-0.2c-0.1,0-0.2,0-0.4,0c-0.2,0-0.3,0-0.5-0.1
		c0.1-0.1,0.2-0.1,0.3-0.2c-0.1-0.1-0.2-0.1-0.2-0.2C9.7,9.3,9.5,8.9,9.6,8.4c0-0.4,0.3-0.7,0.6-1c0.6-0.3,1.4,0,1.7,0.6
		c0.3,0.6,0.1,1.4-0.4,1.8c-0.2,0.2-0.4,0.2-0.5,0.4c0,0.1,0,0.3,0.1,0.4c0.2,0.1,0.4,0.2,0.6,0.2c0.3,0.1,0.6,0.2,0.8,0.4
		c0.3,0.3,0.6,0.5,0.9,0.9c0.2,0.2,0.2,0.5,0.2,0.8c0.4-0.1,0.6-0.4,0.6-0.7c0-0.2-0.1-0.4,0-0.6c0.2-0.4,0.5-0.9,0.6-1.4
		C14.5,10,14,9.9,13.9,9.4l0-0.1c0.2,0.1,0.3,0.2,0.5,0.3c0.2,0,0.3,0,0.5-0.1c0.5-0.1,0.8-0.7,0.5-1.1c-0.1-0.3-0.5-0.2-0.7-0.2
		c0.2-0.3,0.6-0.4,1-0.4c0.1,0,0.3,0,0.4,0C16,7.5,16.1,7.2,16.3,6.9 M10.6,8.2c-0.1,0.1-0.2,0.2-0.2,0.3c-0.1,0.2,0,0.3,0.1,0.5
		c0.2,0.2,0.4,0.3,0.4,0.6c0.4-0.2,0.7-0.7,0.5-1.2C11.3,8,10.8,8,10.6,8.2 M16.8,8.7C17,8.9,17.3,9.2,17.6,9
		c-0.2-0.1-0.3-0.3-0.4-0.4C17.1,8.6,16.9,8.5,16.8,8.7 M17.5,8.5c0,0.2,0.1,0.3,0.2,0.3c0-0.1,0.1-0.2,0.1-0.3
		C17.7,8.5,17.6,8.5,17.5,8.5 M10.1,10.6c0,0.1,0,0.3,0,0.4c0.3,0,0.5,0,0.8,0C10.7,10.8,10.4,10.5,10.1,10.6 M10.2,11.2
		c-0.2,0-0.1,0.2-0.1,0.4c0.3,0.1,0.6,0,0.8-0.1C10.7,11.3,10.4,11.2,10.2,11.2 M10.2,11.8c0,0.1,0,0.2,0,0.2c0.2,0,0.4,0,0.6-0.1
		C10.6,11.8,10.4,11.7,10.2,11.8L10.2,11.8z"/>
	<path class="st4" d="M14.3,1.1c0.4,0,0.8,0,1.1,0c0.1,0.7,0,1.5,0.1,2.2c0.3,0,0.6,0,0.9,0c0,0.3,0.1,0.6,0,0.8c-0.7,0-1.4,0-2.1,0
		C14.3,3.1,14.3,2.1,14.3,1.1 M14.4,1.1c0,1,0,2,0,3c0.6,0,1.3,0,2,0c0-0.2,0-0.4,0-0.6c0,0,0-0.1,0-0.1c-0.3,0-0.6,0-1,0
		c0-0.7,0-1.5,0-2.2c0,0-0.1,0-0.1-0.1C15,1.1,14.7,1.1,14.4,1.1 M12.5,2c0.2,0,0.3-0.1,0.5-0.1c-0.1,0.1-0.3,0.2-0.4,0.3
		c0.2,0.1,0.4,0.1,0.5,0.1c-0.2,0-0.3,0.1-0.5,0.1C12.5,2.3,12.5,2.2,12.5,2 M9.6,3.1c0,0.1,0.1,0.2,0.1,0.2
		C9.6,3.4,9.4,3.4,9.3,3.5c0-0.1-0.1-0.1-0.1-0.2c0.1,0,0.2,0,0.3,0C9.6,3.3,9.6,3.1,9.6,3.1 M21,3.3c0.2,0.1,0.3,0.1,0.5,0.2
		c-0.2,0-0.3,0-0.5-0.1c0,0.1,0,0.2,0,0.2c-0.1,0-0.1-0.1-0.2-0.1C20.9,3.5,21,3.4,21,3.3 M22.1,6.2c0.1,0,0.2-0.1,0.2-0.1
		c0.1,0.1,0.3,0.2,0.4,0.3c0,0.1-0.1,0.2-0.1,0.4c0-0.2,0-0.3-0.1-0.5C22.4,6.2,22.2,6.2,22.1,6.2 M6.3,23.7c0.2,0,0.4,0.2,0.6,0.3
		c-0.1,0.1-0.1,0.2-0.2,0.2c0.1,0,0.2,0,0.3,0.1c-0.4,0.2-0.5,0.7-0.5,1.1l0,0.1c-0.2-0.3-0.1-0.6,0-0.9c-0.1,0-0.1-0.1-0.2-0.1l0,0
		c0.1-0.1,0.2-0.1,0.3-0.2C6.5,24.1,6.4,23.9,6.3,23.7 M18.7,26.5c0.1-0.5,0.5-0.9,1-0.9c0.2,0,0.5,0.1,0.7,0.2
		c0,0.2-0.1,0.3-0.2,0.4c-0.2,0-0.3-0.1-0.5-0.1c-0.1,0.1-0.2,0.2-0.2,0.3c0.1,0.2,0.1,0.4,0.3,0.5c0.1,0.1,0.3,0.1,0.4,0.1
		c-0.2,0-0.4,0.1-0.6-0.1c-0.2-0.2-0.3-0.6-0.1-0.8c0.2-0.2,0.5-0.1,0.7-0.1c0-0.1,0.1-0.2,0.1-0.2c-0.2-0.1-0.5-0.2-0.7-0.1
		c-0.4,0.1-0.7,0.4-0.7,0.9c0,0.2,0.1,0.4,0.2,0.6C18.8,27,18.7,26.8,18.7,26.5 M11.8,26.2c0.3,0,0.7,0,1,0.2
		C12.4,26.3,12.1,26.3,11.8,26.2L11.8,26.2 M16.3,26.5c0.2-0.1,0.4-0.2,0.6-0.1C16.7,26.5,16.5,26.5,16.3,26.5
		c0.1,0.6,0.2,1.2,0.3,1.8c-0.2-0.3-0.2-0.8-0.2-1.2C16.3,26.9,16.2,26.7,16.3,26.5 M14.9,26.6c0.2,0,0.5,0,0.7,0
		c0.1,0.5,0,0.9,0,1.4c0.2,0,0.4,0,0.6,0c0,0.2,0,0.3,0,0.5c-0.4,0.1-0.8,0.1-1.3,0.1c0-0.2-0.1-0.5,0-0.7l0.1,0c0,0.2,0,0.4,0,0.5
		c0.1,0.2,0.4,0.1,0.5,0c0.2,0,0.3,0,0.5,0l0.1,0c0-0.1,0-0.3,0-0.4c-0.2,0-0.4,0-0.6,0c0-0.5,0-0.9-0.1-1.4
		C15.4,26.6,15.2,26.6,14.9,26.6c0.1,0.3,0.1,0.5,0.1,0.8C14.9,27.1,14.9,26.8,14.9,26.6 M12.2,26.7c0.1,0,0.3,0.1,0.3,0.3
		c0,0.2-0.2,0.1-0.3,0.2C12.2,27,12.2,26.8,12.2,26.7L12.2,26.7z"/>
	<path class="st5" d="M14.4,1.1c0.3,0,0.6,0,0.9,0c0,0.1,0,0.2,0,0.2c-0.2-0.1-0.5-0.1-0.7-0.1c0,0.9,0,1.8,0,2.7l0,0.1
		c0.5,0,1.1,0.1,1.6,0c0-0.1,0.1-0.3,0.1-0.4c0,0.2,0,0.4,0,0.6c-0.6,0-1.3,0-2,0C14.4,3.1,14.4,2.1,14.4,1.1L14.4,1.1z"/>
	<path class="st6" d="M15.3,1.1c0,0,0.1,0,0.1,0.1c0.1,0.7,0,1.5,0,2.2c0.3,0,0.6,0,1,0c0,0,0,0.1,0,0.1c0,0.1-0.1,0.3-0.1,0.4
		c0-0.1,0-0.3,0-0.4c-0.3,0-0.6,0-0.9,0c0-0.7,0-1.5,0-2.2C15.3,1.2,15.3,1.2,15.3,1.1L15.3,1.1z"/>
	<path class="st7" d="M11.4,1.5c0.6-0.1,1.2-0.2,1.8-0.3c0.2,0.2,0.1,0.5,0.2,0.7c-0.1,0.1-0.3,0.1-0.5,0.1C12.8,2,12.6,2,12.5,2
		c0,0.1,0.1,0.2,0.1,0.4c0.2,0,0.3-0.1,0.5-0.1c0.1,0,0.3-0.1,0.4-0.1c0.1,0.2,0.1,0.5,0.1,0.7c-0.1,0-0.3,0-0.4,0.1
		c-0.2,0-0.3,0.1-0.5,0.1c0,0.1,0,0.3,0.1,0.4c0.2,0,0.5-0.1,0.7-0.1c0.1,0,0.2,0,0.3,0c0.1,0.2,0.1,0.4,0.1,0.7
		c-0.6,0.2-1.3,0.3-1.9,0.4c-0.2-0.8-0.3-1.6-0.5-2.4C11.4,1.9,11.4,1.7,11.4,1.5 M11.6,1.6c0,0.2,0,0.3,0.1,0.5
		c0.2,0.7,0.3,1.5,0.4,2.2c0.5-0.1,1-0.2,1.5-0.3c0.2,0,0-0.3,0-0.4c-0.3,0-0.6,0.1-1,0.1c-0.1-0.3-0.1-0.5-0.2-0.8
		c0.3-0.1,0.6-0.1,0.9-0.2c0-0.1,0-0.2-0.1-0.4c-0.3,0-0.6,0.1-0.9,0.1c-0.1-0.2-0.1-0.4-0.1-0.7c0.3-0.1,0.6-0.1,0.9-0.2
		c0-0.1-0.1-0.2-0.1-0.4C12.6,1.4,12.1,1.5,11.6,1.6 M20.2,2.6c0.1-0.1,0.1-0.3,0.3-0.4c0.6,0.3,1.1,0.5,1.6,0.8
		c-0.1,0.2-0.2,0.5-0.3,0.7c-0.1-0.1-0.2-0.1-0.4-0.2c-0.2-0.1-0.3-0.2-0.5-0.2c-0.1,0.1-0.1,0.2-0.2,0.3c0.1,0,0.1,0.1,0.2,0.1
		c0.2,0.1,0.4,0.2,0.6,0.3c-0.1,0.2-0.2,0.5-0.3,0.7c-0.1,0-0.2-0.1-0.3-0.1c-0.2-0.1-0.3-0.2-0.5-0.3c-0.1,0.1-0.1,0.3-0.2,0.4
		c0.1,0,0.1,0.1,0.2,0.1c0.2,0.1,0.4,0.2,0.6,0.3c-0.1,0.2-0.2,0.4-0.3,0.6c-0.6-0.3-1.2-0.5-1.7-0.9C19.5,4.1,19.9,3.3,20.2,2.6
		 M20.5,2.4c-0.4,0.8-0.8,1.6-1.2,2.4c0.5,0.3,1,0.5,1.5,0.8c0.1-0.1,0.1-0.2,0.2-0.4c-0.3-0.1-0.5-0.3-0.8-0.4
		c0.1-0.3,0.2-0.5,0.4-0.7c0.3,0.1,0.5,0.3,0.8,0.4c0-0.1,0.1-0.2,0.2-0.4c-0.3-0.1-0.5-0.3-0.8-0.4c0.1-0.2,0.2-0.4,0.3-0.6
		c0.3,0.1,0.6,0.3,0.8,0.4c0.1-0.1,0.1-0.2,0.1-0.4C21.5,2.8,21,2.6,20.5,2.4 M23.3,4.8c0.3-0.2,0.6-0.4,1-0.5
		c-0.1,0.4-0.3,0.9-0.4,1.3c-0.2,0.7-0.5,1.4-0.7,2.1c-0.3-0.2-0.5-0.4-0.7-0.6c-0.1-0.1,0-0.2,0-0.3c0-0.1,0.1-0.2,0.1-0.4
		c-0.1-0.1-0.3-0.2-0.4-0.3c-0.1,0-0.2,0.1-0.2,0.1c-0.1,0.1-0.2,0.1-0.4,0.2c-0.2-0.1-0.4-0.3-0.5-0.4C21.9,5.5,22.6,5.1,23.3,4.8
		 M23.6,4.8c-0.7,0.4-1.4,0.7-2.1,1.1c0.1,0.1,0.2,0.2,0.2,0.3c0.2-0.1,0.4-0.2,0.6-0.3c0.2,0.1,0.4,0.3,0.5,0.5
		c-0.1,0.2-0.1,0.4-0.2,0.6c0.1,0.2,0.3,0.3,0.5,0.4c0.3-0.9,0.6-1.8,0.9-2.8C23.9,4.7,23.7,4.7,23.6,4.8 M11.8,26.2
		c0.3,0.1,0.6,0.1,0.9,0.2c0.3,0.1,0.4,0.5,0.3,0.8c0,0-0.1,0-0.1,0c0.1-0.2,0.1-0.5-0.1-0.6c-0.3-0.2-0.6-0.2-1-0.3
		c-0.1,0.5-0.3,1.1-0.4,1.6c0.3,0.1,0.7,0.2,1,0.2c0.3-0.1,0.2-0.5,0.4-0.8c0.1,0.3,0,0.6-0.2,0.9c-0.2,0-0.4,0-0.6,0
		c-0.1,0-0.2,0-0.3-0.1c-0.1,0-0.2-0.1-0.3-0.1c0-0.3,0.1-0.5,0.1-0.7c0.1-0.2,0.1-0.4,0.1-0.6C11.7,26.5,11.8,26.4,11.8,26.2
		L11.8,26.2z"/>
	<path class="st8" d="M14.6,1.3c0.2,0,0.5,0,0.7,0.1c0,0.7,0,1.5,0,2.2c0.3,0,0.6,0,0.9,0c0,0.1,0,0.3,0,0.4c-0.5,0-1.1,0-1.6,0
		C14.6,3,14.5,2.1,14.6,1.3 M11.6,1.6c0.5-0.1,1-0.2,1.5-0.3c0,0.1,0.1,0.2,0.1,0.4c-0.3,0.1-0.6,0.1-0.9,0.2c0,0.2,0,0.5,0.1,0.7
		c0.3,0,0.6-0.1,0.9-0.1c0,0.1,0,0.2,0.1,0.4c-0.3,0.1-0.6,0.1-0.9,0.2c0,0.3,0.1,0.5,0.2,0.8c0.3,0,0.6-0.1,1-0.1
		c0,0.1,0.1,0.3,0,0.4c-0.5,0.1-1,0.2-1.5,0.3c-0.2-0.7-0.3-1.4-0.4-2.2C11.6,1.9,11.6,1.8,11.6,1.6 M17.6,1.8
		c0.5-0.3,1.3,0,1.4,0.6c-0.1,0-0.2,0.1-0.3,0.1C18.6,2.3,18.5,2,18.3,2C18,1.9,17.8,2.3,18,2.5c0.2,0.3,0.4,0.4,0.6,0.6
		c0.3,0.3,0.2,0.8-0.1,1c-0.3,0.3-0.8,0.3-1.1,0.1c-0.2-0.1-0.4-0.4-0.5-0.6c0.1,0,0.2-0.1,0.3,0C17.3,3.7,17.5,4,17.7,4
		C18,4,18.2,3.6,18,3.4c-0.2-0.3-0.6-0.5-0.7-0.8C17.3,2.3,17.3,1.9,17.6,1.8 M20.5,2.4c0.5,0.2,0.9,0.5,1.4,0.7
		c0,0.1-0.1,0.2-0.1,0.4c-0.3-0.1-0.6-0.3-0.8-0.4c-0.1,0.2-0.2,0.4-0.3,0.6c0.3,0.1,0.5,0.3,0.8,0.4c-0.1,0.1-0.1,0.2-0.2,0.4
		c-0.3-0.1-0.6-0.3-0.8-0.4c-0.1,0.2-0.3,0.5-0.4,0.7c0.3,0.1,0.5,0.3,0.8,0.4c0,0.1-0.1,0.2-0.2,0.4c-0.5-0.3-1-0.5-1.5-0.8
		C19.7,4,20.1,3.2,20.5,2.4 M5.7,4.9c0.3-0.6,1-0.8,1.6-0.7c0,0.1,0,0.3,0,0.4c-0.3,0-0.6,0-0.8,0.2C6.1,5,6,5.4,6.2,5.7
		c0.2,0.4,0.5,0.8,1,0.8c0.3,0,0.6-0.1,0.7-0.3C8,5.9,7.9,5.6,8,5.4C8,5.3,8.2,5.4,8.3,5.3c0,0.3,0,0.6-0.1,0.9
		C8.1,6.7,7.6,7.1,7,7.1C6,7.2,5.1,5.8,5.7,4.9 M23.6,4.8c0.2-0.1,0.3-0.2,0.5-0.2c-0.3,0.9-0.6,1.8-0.9,2.8
		c-0.2-0.1-0.4-0.3-0.5-0.4c0.1-0.2,0.1-0.4,0.2-0.6c-0.2-0.2-0.3-0.3-0.5-0.5c-0.2,0.1-0.4,0.2-0.6,0.3c-0.1-0.1-0.2-0.2-0.2-0.3
		C22.2,5.5,22.9,5.2,23.6,4.8 M22.6,5.7C22.7,5.8,22.9,5.9,23,6c0.1-0.2,0.1-0.3,0.2-0.5C23,5.5,22.8,5.6,22.6,5.7L22.6,5.7z"/>
	<path class="st9" d="M17.6,1.6c0.7-0.4,1.7,0.2,1.6,1c-0.2,0-0.4,0-0.6,0c-0.1-0.1-0.1-0.3-0.2-0.4c-0.1,0-0.2,0-0.3,0
		c0,0.3,0.3,0.5,0.5,0.6c0.2,0.2,0.3,0.4,0.4,0.6c0.1,0.4-0.2,0.8-0.6,1c-0.5,0.2-1.1,0.1-1.4-0.4c-0.1-0.2-0.2-0.4-0.2-0.6
		c0.2-0.1,0.4-0.2,0.6-0.2c0.1,0.2,0.2,0.3,0.2,0.5c0.2,0,0.3-0.1,0.4-0.2c0-0.1-0.1-0.1-0.1-0.2c-0.2-0.2-0.5-0.4-0.7-0.7
		C17,2.3,17.2,1.8,17.6,1.6 M17.6,1.8c-0.3,0.2-0.4,0.5-0.3,0.8c0.1,0.4,0.5,0.5,0.7,0.8C18.2,3.6,18,4,17.7,4
		c-0.3,0-0.4-0.2-0.5-0.4c-0.1,0-0.2,0-0.3,0c0.1,0.2,0.2,0.5,0.5,0.6c0.4,0.2,0.8,0.2,1.1-0.1c0.3-0.2,0.4-0.7,0.1-1
		c-0.2-0.2-0.5-0.4-0.6-0.6c-0.1-0.2,0-0.6,0.3-0.5c0.3,0,0.3,0.3,0.4,0.5c0.1,0,0.2-0.1,0.3-0.1C18.9,1.8,18.1,1.4,17.6,1.8
		L17.6,1.8z"/>
	<path class="st10" d="M9.3,2.3C9.6,2.1,9.9,2,10.2,1.9c0.4,0.9,0.9,1.8,1.3,2.7c-0.3,0.2-0.6,0.3-0.9,0.4c-0.2-0.3-0.3-0.7-0.5-1
		C9.9,4,9.8,4.1,9.6,4.2c0,0.1,0.1,0.2,0.1,0.3C9.9,4.7,10,5,10.1,5.2C9.8,5.4,9.5,5.6,9.2,5.7C9,5.3,8.9,5,8.7,4.6
		C8.4,4.1,8.2,3.5,7.9,3c0.3-0.2,0.6-0.3,0.9-0.4C9,2.8,9.1,3.1,9.2,3.3c0,0.1,0.1,0.1,0.1,0.2c0.2-0.1,0.3-0.2,0.4-0.2
		c0-0.1-0.1-0.2-0.1-0.2C9.5,2.8,9.4,2.6,9.3,2.3 M9.5,2.4c0.1,0.3,0.3,0.7,0.4,1C9.7,3.5,9.5,3.6,9.2,3.7C9,3.4,8.9,3.1,8.7,2.7
		C8.5,2.8,8.3,2.9,8.1,3c0.4,0.8,0.8,1.6,1.2,2.5c0.2-0.1,0.4-0.2,0.6-0.3C9.7,4.8,9.5,4.5,9.4,4.1C9.6,4,9.9,3.8,10.1,3.7
		c0.2,0.4,0.3,0.7,0.5,1.1c0.2-0.1,0.4-0.2,0.6-0.3c-0.4-0.8-0.8-1.6-1.2-2.4C9.9,2.2,9.7,2.3,9.5,2.4L9.5,2.4z"/>
	<path class="st11" d="M9.5,2.4c0.2-0.1,0.4-0.2,0.6-0.3c0.4,0.8,0.8,1.6,1.2,2.4c-0.2,0.1-0.4,0.2-0.6,0.3
		c-0.2-0.3-0.4-0.7-0.5-1.1C9.9,3.8,9.6,4,9.4,4.1c0.2,0.4,0.3,0.7,0.5,1.1C9.7,5.3,9.5,5.4,9.3,5.5C8.9,4.6,8.5,3.8,8.1,3
		c0.2-0.1,0.4-0.2,0.6-0.3c0.2,0.3,0.3,0.7,0.5,1c0.3-0.1,0.5-0.2,0.7-0.3C9.8,3,9.6,2.7,9.5,2.4L9.5,2.4z"/>
	<path class="st12" d="M18.1,2.2c0.1,0,0.2,0,0.3,0c0.1,0.1,0.1,0.3,0.2,0.4c0.2,0,0.4,0,0.6,0c-0.2,0.1-0.4,0.2-0.6,0.2
		C18.4,2.7,18.1,2.5,18.1,2.2L18.1,2.2z"/>
	<path class="st13" d="M12.7,3.1c0.2,0,0.3-0.1,0.5-0.1c-0.1,0.1-0.2,0.1-0.3,0.2c0,0.1,0,0.2,0,0.2c0.2,0,0.4,0,0.6,0
		c-0.2,0.1-0.5,0.1-0.7,0.1C12.8,3.4,12.7,3.3,12.7,3.1L12.7,3.1z"/>
	<path class="st14" d="M17.8,3.4c0,0.1,0.1,0.1,0.1,0.2c-0.1,0.1-0.3,0.2-0.4,0.2C17.7,3.7,17.8,3.6,17.8,3.4L17.8,3.4z"/>
	<path class="st15" d="M14.5,3.9c0.5,0,1.1,0,1.6,0C15.7,4.1,15.1,4,14.5,3.9L14.5,3.9L14.5,3.9z"/>
	<path class="st16" d="M6.3,4.1C6.7,4,7,4,7.4,4c0,0.3,0,0.5-0.1,0.8c0,0-0.1,0-0.1,0C7,4.8,6.7,4.7,6.4,4.9
		C6.2,5.1,6.2,5.4,6.4,5.7C6.5,6,6.8,6.2,7,6.3c0.1,0.1,0.3,0.1,0.4,0c0.4-0.2,0.4-0.7,0.3-1C8,5.2,8.2,5.1,8.4,5.1
		c0,0,0,0.1,0.1,0.1c0,0.3,0,0.5,0,0.8c-0.2,1-1.4,1.5-2.3,1C5.8,6.8,5.5,6.4,5.4,6C5.1,5.2,5.6,4.3,6.3,4.1 M5.7,4.9
		C5.1,5.8,6,7.2,7,7.1c0.5,0,1-0.3,1.2-0.8c0.1-0.3,0.1-0.6,0.1-0.9C8.2,5.4,8,5.3,8,5.4c0,0.2,0,0.5-0.1,0.7
		C7.7,6.4,7.4,6.5,7.1,6.5C6.7,6.4,6.3,6,6.2,5.7C6,5.4,6.1,5,6.3,4.8c0.2-0.2,0.5-0.2,0.8-0.2c0-0.1,0-0.3,0-0.4
		C6.6,4.1,5.9,4.3,5.7,4.9 M16.3,26.6c0.2,0,0.4-0.1,0.6-0.1c0,0.1,0,0.2,0,0.3c0,0.4,0.1,0.8,0.2,1.1c0.2,0,0.4-0.1,0.6-0.1
		c0,0.2,0,0.3,0.1,0.5c-0.1,0-0.2,0-0.2,0.1c-0.3,0-0.6,0.1-1,0.1l0-0.1C16.5,27.7,16.3,27.1,16.3,26.6 M16.4,26.6
		c0.1,0.5,0.2,1.1,0.3,1.6c0.3,0,0.7-0.1,1-0.2c0-0.1,0-0.2-0.1-0.3c-0.2,0-0.4,0.1-0.6,0.1c-0.1-0.5-0.1-0.9-0.2-1.4
		C16.7,26.6,16.5,26.6,16.4,26.6L16.4,26.6z"/>
	<path class="st17" d="M9.6,4.2C9.8,4.1,9.9,4,10.1,4C10,4.1,9.9,4.1,9.8,4.2c0,0.1,0,0.2,0,0.3C9.7,4.4,9.6,4.3,9.6,4.2L9.6,4.2z"
		/>
	<path class="st18" d="M20.3,4.7c0.1-0.1,0.1-0.3,0.2-0.4c0.2,0.1,0.3,0.2,0.5,0.3c-0.2,0-0.3-0.1-0.5-0.1c0,0.1,0,0.2,0,0.4
		C20.4,4.7,20.4,4.7,20.3,4.7L20.3,4.7z"/>
	<path class="st19" d="M14.7,4.6c2.1-0.1,4.2,0.5,5.9,1.6c2.1,1.3,3.7,3.4,4.4,5.8c0.8,2.7,0.5,5.8-0.9,8.2c-1.1,2-3,3.6-5.1,4.5
		c-1.7,0.7-3.6,0.9-5.4,0.7c-2.3-0.3-4.6-1.4-6.2-3.2c-1.5-1.6-2.5-3.7-2.8-5.9c-0.2-1.6,0-3.2,0.5-4.7c0.8-2.4,2.5-4.4,4.7-5.6
		C11.3,5.1,13,4.6,14.7,4.6 M13.9,4.9c-1.2,0.1-2.5,0.5-3.6,1.1c-2.2,1.1-3.9,3.1-4.8,5.3c-0.8,2-0.9,4.3-0.3,6.4
		c0.6,2.2,1.9,4.1,3.8,5.4c1.8,1.3,3.9,2,6.1,1.9c2.1,0,4.2-0.7,5.9-2c1.8-1.3,3.1-3.3,3.7-5.4c0.6-2.1,0.5-4.4-0.4-6.5
		c-0.8-2.1-2.3-3.8-4.3-5C18.3,5.2,16.1,4.7,13.9,4.9 M22.5,23.9c0.3,0.2,0.5,0.5,0.7,0.8c0.1,0.1,0.1,0.2,0.2,0.3
		c0,0.2,0,0.3,0,0.5c-0.1,0.5-0.7,0.6-1.1,0.3c0.2,0,0.5,0.1,0.7,0c0.3-0.1,0.5-0.6,0.3-0.9c-0.2-0.3-0.5-0.7-0.7-1
		c-0.1,0.1-0.1,0.1-0.2,0.2c0.2,0.3,0.5,0.6,0.7,1c0.1,0.2-0.2,0.4-0.4,0.2c-0.3-0.3-0.5-0.6-0.7-0.9c-0.1,0.1-0.2,0.2-0.3,0.3
		c0.2,0.3,0.5,0.6,0.7,0.9c-0.3-0.3-0.5-0.6-0.8-1c0.2-0.1,0.3-0.3,0.5-0.3c0.3,0.3,0.5,0.7,0.7,1c0,0,0.1,0,0.2,0
		c0-0.5-0.5-0.8-0.7-1.2C22.3,24.1,22.4,24,22.5,23.9 M14,26.4c0.2,0.3,0.2,0.6,0.3,1c0.1,0.4,0.3,0.7,0.3,1.1c-0.2,0-0.4,0-0.6,0
		C14,28.3,14,28,13.7,28c-0.1,0.1-0.2,0.2-0.3,0.4c-0.1,0-0.2,0-0.4,0c0-0.3,0.2-0.5,0.3-0.7C13.6,27.2,13.8,26.8,14,26.4 M14,26.6
		c-0.3,0.5-0.6,1.1-0.8,1.7c0.1,0,0.2,0,0.2,0c0.1-0.1,0.1-0.3,0.2-0.4c0.1,0,0.3,0,0.4,0.1c0,0.1,0.1,0.2,0.1,0.4
		c0.1,0,0.3,0,0.4,0C14.4,27.8,14.2,27.2,14,26.6L14,26.6z"/>
	<path class="st20" d="M6.4,4.9C6.7,4.7,7,4.8,7.2,4.8C7,4.9,6.7,4.9,6.4,4.9L6.4,4.9z"/>
	<path class="st21" d="M8.5,5.2c0.2,0.2,0.1,0.6,0.1,0.8l-0.1,0C8.5,5.8,8.5,5.5,8.5,5.2L8.5,5.2z"/>
	<path class="st22" d="M22.6,5.7c0.2-0.1,0.3-0.2,0.5-0.3C23.1,5.6,23,5.8,23,6C22.9,5.9,22.7,5.8,22.6,5.7L22.6,5.7z"/>
	<path class="st23" d="M7,6.3c0.1-0.1,0.3-0.1,0.4,0C7.3,6.4,7.2,6.4,7,6.3L7,6.3z"/>
	<path class="st24" d="M15.6,7.9c-0.1-0.5,0.3-0.8,0.6-1c-0.1,0.3-0.2,0.6-0.2,1C15.9,7.9,15.8,7.9,15.6,7.9 M14.6,8.2L14.6,8.2
		c0.3,0,0.7-0.1,0.8,0.2c0.2,0.4-0.1,1-0.5,1.1C15,9.3,15.2,9,15.1,8.7c-0.1-0.2-0.3-0.2-0.4-0.3C14.6,8.4,14.6,8.3,14.6,8.2
		L14.6,8.2z"/>
	<path class="st25" d="M9.4,8.3c0.1-0.4,0.4-0.7,0.8-0.9C9.9,7.7,9.7,8,9.6,8.4C9.5,8.9,9.7,9.3,10,9.7C9.5,9.4,9.3,8.8,9.4,8.3
		 M11.6,22.2c0.2,0,0.4,0,0.6,0c0,0.2,0,0.4,0,0.5c0,0-0.1-0.1-0.2-0.1C11.9,22.4,11.8,22.2,11.6,22.2L11.6,22.2z"/>
	<path class="st26" d="M11.9,8c0.3,0,0.4,0.3,0.5,0.5c0.2,0.5,0.1,1-0.2,1.4c-0.2,0.3-0.5,0.5-0.8,0.6c-0.1-0.1-0.3-0.2-0.4-0.3
		c0.1-0.2,0.3-0.3,0.5-0.4C12,9.4,12.2,8.6,11.9,8 M21.7,14.1c0.3,0.1,0.6,0.4,0.6,0.8c0,0.5-0.3,0.9-0.8,1.1c0-0.2,0-0.4-0.1-0.6
		C21.8,15.1,21.9,14.5,21.7,14.1 M14.8,20.7c0.2-0.2,0.5-0.3,0.7-0.4c0.2,0.1,0.4,0.2,0.6,0.3c-0.3,0.2-0.7,0.3-0.9,0.6
		C15,21.5,15,22,14.7,22.3c-0.2,0.3-0.5,0.2-0.8,0.3c-0.1,0.2-0.1,0.3-0.2,0.5c-0.2-0.1-0.3-0.2-0.5-0.4c0.1-0.2,0.1-0.4,0.2-0.5
		c0.2-0.1,0.6,0,0.7-0.3C14.5,21.6,14.5,21.1,14.8,20.7L14.8,20.7z"/>
	<path class="st27" d="M10.6,8.2C10.8,8,11.3,8,11.4,8.3c0.2,0.5-0.1,1-0.5,1.2c0-0.3-0.2-0.4-0.4-0.6c0.2,0,0.6,0,0.6-0.3
		C11.1,8.3,10.8,8.2,10.6,8.2L10.6,8.2z"/>
	<path class="st28" d="M10.6,8.2c0.2,0.1,0.6,0.2,0.5,0.5C11,9,10.7,8.9,10.5,9c-0.1-0.1-0.2-0.3-0.1-0.5
		C10.4,8.4,10.5,8.3,10.6,8.2L10.6,8.2z"/>
	<path class="st29" d="M16.8,8.7c0-0.2,0.3-0.1,0.5-0.1c0.1,0.2,0.2,0.3,0.4,0.4C17.3,9.2,17,8.9,16.8,8.7L16.8,8.7z"/>
	<path class="st30" d="M17.5,8.5c0.1,0,0.2,0,0.4,0c0,0.1-0.1,0.2-0.1,0.3C17.5,8.8,17.4,8.7,17.5,8.5L17.5,8.5z"/>
	<path class="st31" d="M19,8.7c0.2,0.1,0.4,0.2,0.4,0.4c-0.1,0.3-0.3,0.5-0.4,0.7c-0.1,0-0.3-0.1-0.4-0.1c-0.1,0.1-0.1,0.1-0.1,0.2
		c-0.2-0.2-0.4,0.1-0.5,0.3c-0.2,0-0.3,0-0.5,0c-0.1-0.3,0.1-0.6,0.3-0.7c0.2-0.1,0.3,0.1,0.5,0.2C18.6,9.4,18.9,9.1,19,8.7
		 M16.5,22.5c0.1-0.1,0.2-0.1,0.4-0.1c0.1,0,0.2,0,0.2,0c0.1,0.1,0.1,0.2,0.2,0.3c-0.3,0.1-0.4,0.3-0.5,0.5
		C16.6,23.1,16.6,22.8,16.5,22.5L16.5,22.5z"/>
	<path class="st32" d="M13.8,9.8c0-0.1,0-0.3,0.1-0.4c0.1,0.4,0.6,0.6,0.9,0.8c-0.1,0.5-0.3,0.9-0.6,1.4c-0.1,0.2,0,0.4,0,0.6
		c0,0.3-0.2,0.7-0.6,0.7c0-0.3,0-0.6-0.2-0.8c-0.2-0.3-0.6-0.6-0.9-0.9c0.4,0,0.7,0.1,1.1,0.1c0.2-0.3,0.4-0.6,0.6-1
		C14.1,10.2,13.9,10.1,13.8,9.8 M19.9,10.6c0.5-0.1,1,0.3,1,0.8c0,0.3-0.2,0.5-0.4,0.7c-0.4,0.4-0.9,0.7-1.2,1.2
		c-0.2,0.3-0.3,0.8-0.1,1.2c0.3,0.6,0.9,1.1,1.1,1.7c0.1,0.4,0.1,0.8-0.1,1.1c-0.2,0.3-0.7,0.4-1.1,0.4c-0.5-0.1-0.9-0.5-1.1-0.9
		c0.1,0.1,0.3,0.2,0.4,0.3c0.3,0.2,0.8,0.3,1.2,0.1c0.3-0.2,0.4-0.6,0.3-0.9c-0.1-0.5-0.5-0.8-0.8-1.2c-0.4-0.5-0.6-1.2-0.4-1.8
		c0.3-0.7,1-1.1,1.5-1.7c0.1-0.1,0.2-0.3,0.2-0.5C20.3,11,20,10.9,19.8,11c-0.1,0.1-0.2,0.1-0.3,0.2C19.6,11,19.7,10.7,19.9,10.6
		 M10.4,12.3c0.1,0,0.2,0,0.3,0c0,1,0,1.9,0,2.9c0.1,0,0.2,0,0.3,0c0.2,0,0.3-0.1,0.5-0.2c0.4-0.2,0.8-0.5,1.2-0.8
		c0.3-0.2,0.7-0.4,1-0.6c0.3,0.1,0.7,0.1,1,0.2c-0.5,0.3-1,0.6-1.5,0.9c-0.4,0.2-0.8,0.5-1.2,0.7c-0.5,0.3-1.1,0.1-1.7,0.2
		c-0.3,0.1-0.6,0.3-0.6,0.6l0,0.1c-0.1-0.1,0-0.2,0-0.3c0.1-0.4,0.5-0.6,0.8-0.8C10.4,14.2,10.4,13.2,10.4,12.3 M15.9,15.4
		c0.3,0.1,0.5,0.3,0.6,0.6c0.1,0.3-0.1,0.6-0.4,0.8c-0.8,0.5-1.7,0.7-2.4,1.3c-0.2,0.2-0.3,0.4-0.3,0.7c0,0.3,0.3,0.5,0.6,0.6
		c-0.1,0.6-0.3,1.4-0.9,1.7c-0.6,0.3-1.2,0-1.8,0.2c-0.2,0.1-0.3,0.2-0.2,0.4c0,0.3,0.1,0.6,0.1,0.9c-0.1-0.1-0.2-0.2-0.1-0.4
		c0-0.3-0.1-0.7,0.2-1c0.2-0.1,0.4-0.2,0.5-0.2c0.4,0,1,0.2,1.4-0.2c0.3-0.4,0.4-0.8,0.4-1.3c-0.1-0.3-0.4-0.4-0.5-0.6
		c-0.1-0.5,0.3-1,0.6-1.4c0.5-0.5,1-0.9,1.6-1.1c0.3-0.1,0.6-0.1,0.8-0.3C16,15.8,15.9,15.6,15.9,15.4 M16.2,18.6
		c0.2,0,0.4,0,0.6,0.1c0.2,0.2,0.2,0.5,0.5,0.6c0.2,0.1,0.5,0.1,0.8,0.1c0.2,0.2,0.3,0.5,0.3,0.7c0,0.5-0.2,0.9-0.4,1.3
		c-0.5,0.1-1-0.1-1.5,0.2c-0.4,0.3-0.1,0.8-0.1,1.1c-0.2-0.3-0.2-0.8,0-1.1c0.3-0.4,0.9-0.3,1.3-0.4c0.1,0,0.2-0.2,0.2-0.3
		c0-0.2,0-0.5,0-0.7c0-0.1,0-0.2-0.1-0.3c-0.1,0-0.3-0.1-0.4-0.1c-0.4-0.2-0.8-0.5-1-0.9C16.3,18.8,16.2,18.7,16.2,18.6L16.2,18.6z"
		/>
	<path class="st33" d="M19,9.8c0.3,0.1,0.6-0.2,0.8-0.3c-0.1,0.3-0.3,0.7-0.6,0.8c-0.1,0-0.2,0-0.3,0c-0.1-0.1-0.3-0.2-0.4-0.3
		c0-0.1,0.1-0.2,0.1-0.2C18.8,9.8,18.9,9.8,19,9.8L19,9.8z"/>
	<path class="st34" d="M10.4,10.1c0.1,0,0.2,0,0.4,0c0,0.1,0,0.2,0,0.2c-0.1,0-0.2,0-0.4,0C10.4,10.3,10.4,10.2,10.4,10.1L10.4,10.1
		z"/>
	<path class="st35" d="M11,10.2c0.1,0.1,0.3,0.2,0.4,0.3c0.1,0.1,0.2,0.2,0.3,0.4c-0.2-0.1-0.4-0.1-0.6-0.2C11,10.5,11,10.4,11,10.2
		L11,10.2z"/>
	<path class="st36" d="M19,10.2c0.1,0,0.2,0,0.3,0c0.1,0,0.2,0.1,0.3,0.1c-0.1,0.1-0.2,0.2-0.2,0.3c-0.1-0.1-0.3-0.1-0.4-0.2
		C19,10.4,19,10.3,19,10.2L19,10.2z"/>
	<path class="st37" d="M2.6,10.4c0.6-0.2,1.3,0,1.6,0.5c0.4,0.5,0.4,1.4-0.1,1.8c-0.4,0.4-1.1,0.6-1.6,0.4C2,13,1.6,12.5,1.6,12
		C1.5,11.3,2,10.6,2.6,10.4 M2.4,10.7c0.1,0,0.2,0.1,0.3,0.1c0.3-0.1,0.6-0.1,0.9-0.1C3.2,10.5,2.7,10.5,2.4,10.7 M2,11.1
		c0.5,0.2,1,0.5,1.5,0.8c0-0.1,0.1-0.3,0.1-0.4c-0.4-0.3-0.8-0.5-1.3-0.7C2.2,10.9,2.1,11,2,11.1 M2.8,10.9C2.9,11,3,11.1,3.2,11.1
		c0.3,0,0.5,0,0.8,0C4,11,3.9,10.9,3.8,10.8C3.5,10.8,3.1,10.8,2.8,10.9 M3.3,11.2c0.1,0.1,0.2,0.2,0.3,0.3c0.2,0,0.4,0,0.6,0
		c0-0.1-0.1-0.2-0.1-0.2C3.8,11.1,3.5,11.1,3.3,11.2 M1.8,11.6c0.5,0.3,1,0.6,1.5,0.7c0-0.1,0.2-0.3,0-0.4c-0.4-0.3-0.9-0.5-1.4-0.8
		C1.9,11.3,1.8,11.5,1.8,11.6 M4,11.5c0,0.5-0.3,1-0.5,1.5c0.6-0.2,0.8-0.8,0.8-1.4C4.2,11.5,4.1,11.5,4,11.5 M3.1,12.8
		c0,0,0.1,0.1,0.2,0.1c0.4-0.3,0.6-0.9,0.6-1.4c-0.1,0-0.2,0-0.3,0C3.5,12,3.3,12.4,3.1,12.8 M1.8,11.7c0,0.2,0,0.4,0.2,0.6
		c0.3,0.3,0.7,0.4,1.1,0.5c0.1-0.1,0.1-0.2,0.2-0.3C2.7,12.2,2.2,12,1.8,11.7 M2,12.5c0,0.1,0,0.1,0.1,0.1C2.1,12.5,2.1,12.5,2,12.5
		 M2.2,12.6c0,0.2,0.2,0.3,0.4,0.4C2.6,12.8,2.4,12.6,2.2,12.6 M2.6,12.8c0.1,0.1,0.1,0.2,0.2,0.3c0.1,0.1,0.3,0,0.4,0
		C3.1,12.9,2.9,12.8,2.6,12.8L2.6,12.8z"/>
	<path class="st38" d="M26.6,10.4c0.9-0.3,1.9,0.4,1.9,1.3c0.1,0.8-0.5,1.5-1.3,1.5c-0.8,0.1-1.6-0.6-1.6-1.4
		C25.5,11.2,26,10.6,26.6,10.4 M26.3,10.7c0.1,0,0.2,0.1,0.3,0.1c0.3-0.1,0.6-0.1,0.9-0.1C27.2,10.5,26.7,10.5,26.3,10.7 M25.9,11.1
		c0.5,0.2,1,0.5,1.5,0.8c0-0.1,0.1-0.3,0.1-0.4c-0.4-0.3-0.8-0.5-1.3-0.7C26.1,10.9,26,11,25.9,11.1 M26.8,10.9
		c0.1,0.1,0.2,0.2,0.4,0.2c0.3,0,0.6,0,0.9,0c-0.1-0.1-0.1-0.2-0.2-0.2C27.5,10.8,27.1,10.8,26.8,10.9 M27.2,11.2
		c0.1,0.1,0.2,0.2,0.3,0.3c0.2,0,0.4,0,0.6,0c0-0.1-0.1-0.2-0.1-0.2C27.8,11.1,27.5,11.1,27.2,11.2 M25.9,11.2
		c-0.1,0.1-0.1,0.3-0.1,0.4c0.5,0.3,0.9,0.5,1.5,0.7c0.1-0.1,0.1-0.2,0.2-0.3c-0.4-0.3-0.8-0.5-1.2-0.7C26.1,11.3,26,11.2,25.9,11.2
		 M27.6,11.6c-0.1,0.4-0.3,0.8-0.5,1.2c0,0,0.1,0.1,0.2,0.1c0.4-0.4,0.6-0.9,0.6-1.5C27.8,11.5,27.6,11.5,27.6,11.6 M28,11.5
		c0,0.5-0.2,1.1-0.6,1.5c0.6-0.2,0.9-0.8,0.8-1.4C28.2,11.5,28.1,11.5,28,11.5 M25.7,11.8c0,0.2,0,0.4,0.1,0.5
		c0.3,0.3,0.7,0.4,1.1,0.5c0.1,0,0.2-0.2,0.2-0.3C26.7,12.2,26.2,12,25.7,11.8 M26,12.5c0,0.1,0,0.1,0.1,0.1
		C26.1,12.5,26.1,12.5,26,12.5 M26.2,12.6c0,0.2,0.2,0.3,0.4,0.4C26.6,12.8,26.4,12.6,26.2,12.6 M26.6,12.8c0.1,0.1,0.1,0.2,0.2,0.3
		c0.1,0,0.3,0,0.4,0C27.1,12.8,26.8,12.8,26.6,12.8L26.6,12.8z"/>
	<path class="st39" d="M2.4,10.7c0.4-0.2,0.8-0.3,1.2,0c-0.3,0-0.6,0.1-0.9,0.1C2.5,10.9,2.5,10.8,2.4,10.7L2.4,10.7z"/>
	<path class="st40" d="M26.3,10.7c0.4-0.2,0.8-0.3,1.2,0c-0.3,0-0.6,0.1-0.9,0.1C26.5,10.9,26.4,10.8,26.3,10.7L26.3,10.7z"/>
	<path class="st41" d="M10.1,10.6c0.3-0.1,0.6,0.2,0.8,0.4c-0.3,0-0.5,0-0.8,0C10.1,10.9,10.1,10.8,10.1,10.6L10.1,10.6z"/>
	<path class="st42" d="M18.1,10.6c0.1,0,0.3,0,0.4,0c0,0.3,0,0.6,0.1,0.8c-0.3-0.1-0.6-0.4-0.9-0.2c-0.3,0.2-0.2,0.7-0.2,1.1
		c-0.2-0.1-0.4-0.3-0.5-0.5c-0.1-0.3-0.1-0.8,0.2-1c0.3-0.1,0.6,0.1,0.9,0.3C18.1,10.9,18.1,10.8,18.1,10.6 M18.2,12.4
		c0,0,0,0.1,0,0.1c0.1,0,0.2-0.1,0.3-0.1c0.1,0.3,0.2,0.7,0,1c-0.2,0.3-0.6,0.3-1,0.3c0,0.5,0.3,0.9,0.3,1.3
		c0.1,0.7,0.3,1.4,0.5,2.1c-0.1-0.1-0.3-0.2-0.4-0.3c-0.4-0.7-0.5-1.5-0.6-2.3c-0.1-0.4-0.4-0.8-0.3-1.2c0.3,0,0.7,0,0.9-0.3
		C18.2,12.9,18.2,12.7,18.2,12.4L18.2,12.4z"/>
	<path class="st43" d="M21.6,10.7c0.4,0.1,0.6,0.6,0.6,0.9c0,0.5-0.2,0.9-0.6,1.2c-0.3,0.2-0.5,0.4-0.8,0.7c-0.5,0-0.9,0.2-1.3,0.5
		c0.1-0.2,0.2-0.4,0.4-0.6c0.5-0.5,1.2-0.8,1.6-1.4C21.8,11.6,21.8,11.1,21.6,10.7 M19.9,15.1c0.1-0.2,0.2-0.4,0.4-0.5
		c0.3-0.1,0.6,0.1,0.7,0.4c-0.2,0-0.4,0-0.5,0.2c-0.1,0.1-0.1,0.4,0,0.5c0.3,0.4,0.7,0.8,0.8,1.3c0.1,0.4,0.1,0.9-0.3,1.3
		c-0.4,0.4-1.1,0.5-1.6,0.3c-0.4-0.1-0.7-0.2-1-0.5c0.6,0.2,1.3,0.4,1.9,0c0.5-0.3,0.7-0.9,0.5-1.4C20.8,16,20.3,15.6,19.9,15.1
		 M12.8,16.8c0.8-0.2,1.3-0.7,1.8-1.3c0.1,0.2,0.2,0.4,0.4,0.6c-0.5,0.4-1,0.9-1.7,1.1C13.1,17.1,12.9,16.9,12.8,16.8
		c-0.4,0-0.8,0.2-1,0.5c-0.1,0.2-0.2,0.5-0.3,0.7c0,0.4,0,0.9,0,1.3c0,0.3,0.3,0.4,0.2,0.7c-0.1,0.3-0.1,0.7-0.1,1
		c-0.2,0-0.4,0.1-0.5,0.2c-0.2-0.1-0.3-0.2-0.4-0.3c0.2-0.1,0.4-0.1,0.5-0.4c0-0.2,0-0.4,0-0.6c0-0.2,0.1-0.4,0.1-0.6
		c-0.1-0.1-0.2-0.1-0.2-0.3c0-0.5,0-1.1,0-1.6c0,0,0.1,0,0.2,0c0-0.6,0.6-0.9,1.1-0.9C12.5,16.6,12.7,16.7,12.8,16.8 M14.9,19.3
		c0.2-0.5,0.8-0.7,1.3-0.8c0.1,0.1,0.1,0.3,0.2,0.4c-0.3,0.1-0.6,0.3-0.9,0.5c-0.1,0.2-0.1,0.4-0.2,0.5C15,20,14.7,19.7,14.9,19.3
		 M11.4,22.3c0,0,0.1-0.1,0.2-0.1c0.3,0,0.3,0.2,0.4,0.4c-0.1,0.1-0.2,0.3-0.3,0.5C11.3,22.9,11.4,22.6,11.4,22.3 M12.3,22.7
		c0.1-0.2,0.2-0.4,0.4-0.5c0.2,0.1,0.3,0.3,0.4,0.4c-0.2,0.2-0.3,0.4-0.4,0.6C12.5,23.1,12.3,22.9,12.3,22.7 M17.5,22.8
		c0.1-0.2,0.2-0.4,0.4-0.4c0.1,0.1,0.2,0.2,0.3,0.3l0,0c-0.2,0.2-0.3,0.3-0.4,0.5C17.7,23.2,17.6,23,17.5,22.8L17.5,22.8z"/>
	<path class="st44" d="M2,11.1c0.1-0.1,0.2-0.2,0.3-0.3c0.5,0.1,0.9,0.4,1.3,0.7c0,0.1-0.1,0.3-0.1,0.4C3,11.6,2.5,11.3,2,11.1
		 M25.7,11.8c0.5,0.2,0.9,0.5,1.4,0.7c-0.1,0.1-0.1,0.3-0.2,0.3c-0.4-0.1-0.8-0.2-1.1-0.5C25.7,12.1,25.7,11.9,25.7,11.8L25.7,11.8z
		"/>
	<path class="st45" d="M2.8,10.9c0.3-0.1,0.7-0.1,1,0C3.9,10.9,4,11,4,11.1c-0.3,0-0.5,0-0.8,0C3,11.1,2.9,11,2.8,10.9L2.8,10.9z"/>
	<path class="st44" d="M25.9,11.1c0.1-0.1,0.2-0.2,0.3-0.3c0.5,0.2,0.9,0.4,1.3,0.7c0,0.1-0.1,0.3-0.1,0.4
		C26.9,11.6,26.4,11.3,25.9,11.1L25.9,11.1z"/>
	<path class="st46" d="M26.8,10.9c0.3-0.1,0.7-0.1,1,0c0.1,0.1,0.1,0.1,0.2,0.2c-0.3,0-0.6,0-0.9,0C27,11.1,26.9,11,26.8,10.9
		L26.8,10.9z"/>
	<path class="st47" d="M19.8,11c0.3-0.1,0.5,0.1,0.6,0.3c-0.2,0.1-0.4,0.3-0.6,0.5C19.8,11.5,19.8,11.2,19.8,11L19.8,11z"/>
	<path class="st48" d="M3.3,11.2c0.3,0,0.6,0,0.9,0c0,0.1,0.1,0.2,0.1,0.2c-0.2,0-0.4,0-0.6,0C3.5,11.4,3.4,11.3,3.3,11.2L3.3,11.2z
		"/>
	<path class="st41" d="M10.2,11.2c0.3,0,0.5,0.1,0.7,0.2c-0.2,0.2-0.5,0.2-0.8,0.1C10.1,11.4,10,11.3,10.2,11.2L10.2,11.2z"/>
	<path class="st49" d="M27.2,11.2c0.3,0,0.6,0,0.9,0c0,0.1,0.1,0.2,0.1,0.2c-0.2,0-0.4,0-0.6,0C27.4,11.4,27.3,11.3,27.2,11.2
		L27.2,11.2z"/>
	<path class="st44" d="M1.8,11.6c0-0.1,0.1-0.3,0.1-0.4c0.5,0.2,0.9,0.5,1.4,0.8c0.1,0.1,0,0.3,0,0.4C2.8,12.2,2.2,11.9,1.8,11.6
		 M2.9,17.8c0.2-0.2,0.6,0,0.6,0.3c0,0.3-0.3,0.5-0.5,0.3C2.6,18.3,2.6,18,2.9,17.8 M3.4,18.5c0.3,0,0.7,0.1,0.8,0.4
		c-0.1,0.2-0.3,0.2-0.5,0.4c-0.2,0.1-0.3,0.3-0.5,0.2c-0.2-0.2-0.1-0.6-0.1-0.9c0.1,0.1,0.3,0.2,0.4,0.3C3.5,18.8,3.5,18.6,3.4,18.5
		L3.4,18.5z"/>
	<path class="st44" d="M25.9,11.2c0.1-0.1,0.2,0,0.3,0.1c0.4,0.2,0.8,0.4,1.2,0.7c-0.1,0.1-0.1,0.2-0.2,0.3c-0.5-0.2-1-0.4-1.5-0.7
		C25.8,11.5,25.8,11.4,25.9,11.2 M1.8,18.8c0-0.4,0.5-0.4,0.8-0.4c-0.1,0.1-0.1,0.3-0.2,0.4c0.1-0.1,0.3-0.2,0.4-0.3
		c0.1,0.2,0.1,0.5,0,0.8c-0.1,0.1-0.3,0.1-0.4,0C2.2,19.2,2,19,1.8,18.8L1.8,18.8z"/>
	<path class="st48" d="M4,11.5c0.1,0,0.2,0,0.2,0.1c0.1,0.6-0.2,1.2-0.8,1.4C3.8,12.5,4,12,4,11.5L4,11.5z"/>
	<path class="st50" d="M27.6,11.6c0-0.1,0.2-0.1,0.3-0.1c0,0.5-0.2,1.1-0.6,1.5c0,0-0.1-0.1-0.2-0.1C27.3,12.4,27.4,12,27.6,11.6
		L27.6,11.6z"/>
	<path class="st51" d="M28,11.5c0.1,0,0.2,0,0.2,0.1c0.1,0.6-0.2,1.2-0.8,1.4C27.8,12.6,27.9,12,28,11.5L28,11.5z"/>
	<path class="st52" d="M3.1,12.8c0.2-0.4,0.4-0.9,0.5-1.3c0.1,0,0.2,0,0.3,0c-0.1,0.5-0.2,1.1-0.6,1.4C3.3,12.9,3.2,12.9,3.1,12.8
		L3.1,12.8z"/>
	<path class="st53" d="M10.2,11.8c0.2-0.1,0.5,0,0.6,0.1C10.6,12,10.4,12,10.2,12C10.2,12,10.2,11.9,10.2,11.8L10.2,11.8z"/>
	<path class="st44" d="M1.8,11.7c0.5,0.2,1,0.5,1.5,0.7c-0.1,0.1-0.1,0.2-0.2,0.3c-0.4-0.1-0.8-0.2-1.1-0.5
		C1.7,12.2,1.8,11.9,1.8,11.7 M27.6,18.4c0.2,0,0.5,0,0.7,0.2c0.1,0.1,0.1,0.3,0,0.3c-0.2,0.1-0.3,0.3-0.5,0.4
		c-0.1,0.1-0.3,0.1-0.4,0c-0.1-0.2-0.1-0.4-0.1-0.7c0.2-0.1,0.3,0.1,0.4,0.2C27.7,18.7,27.6,18.6,27.6,18.4L27.6,18.4z"/>
	<path class="st54" d="M11,12.3c0.4,0.1,0.7,0.2,1.1,0.3c0,0.1,0.1,0.1,0.1,0.2c-0.2,0-0.5-0.1-0.7-0.1c0,0.7,0,1.5,0,2.2
		c-0.1,0.1-0.3,0.1-0.5,0.2C11,14.2,11,13.3,11,12.3L11,12.3z"/>
	<path class="st55" d="M2,12.5c0.1,0,0.1,0,0.1,0.1C2,12.7,2,12.6,2,12.5L2,12.5z"/>
	<path class="st56" d="M26,12.5c0.1,0,0.1,0,0.1,0.1C26,12.7,25.9,12.6,26,12.5L26,12.5z"/>
	<path class="st57" d="M2.2,12.6c0.2,0,0.4,0.1,0.4,0.4C2.4,13,2.2,12.9,2.2,12.6L2.2,12.6z"/>
	<path class="st58" d="M12.1,12.7c0.2,0.1,0.4,0.3,0.4,0.5c0,0.3-0.4,0.2-0.6,0.3c0.1-0.1,0.3-0.2,0.4-0.3c0-0.1,0-0.2,0-0.3
		C12.2,12.8,12.2,12.7,12.1,12.7L12.1,12.7z"/>
	<path class="st59" d="M26.2,12.6c0.2,0,0.4,0.2,0.4,0.4C26.4,13,26.2,12.9,26.2,12.6L26.2,12.6z"/>
	<path class="st60" d="M2.6,12.8c0.2,0,0.5,0.1,0.6,0.3c-0.1,0-0.3,0-0.4,0C2.7,13,2.7,12.9,2.6,12.8L2.6,12.8z"/>
	<path class="st61" d="M26.6,12.8c0.2,0,0.5,0,0.6,0.3c-0.1,0-0.3,0-0.4,0C26.7,13,26.7,12.9,26.6,12.8L26.6,12.8z"/>
	<path class="st62" d="M13,13.7c0.2-0.1,0.4-0.3,0.5-0.5c0.1,0.1,0.1,0.2,0.2,0.3c-0.3,0.2-0.7,0.4-1,0.6c-0.1-0.1-0.3-0.3-0.4-0.4
		C12.5,13.8,12.7,13.8,13,13.7L13,13.7z"/>
	<path class="st63" d="M20.1,14.5c0.3-0.4,0.9-0.3,1.2,0c0.2,0.3,0.1,0.6,0.1,0.9c-0.1,0.1-0.2,0.1-0.3,0.2c0-0.2,0-0.4,0-0.6
		c-0.1-0.3-0.4-0.5-0.7-0.4c-0.2,0-0.3,0.3-0.4,0.5C19.9,14.9,19.9,14.6,20.1,14.5 M10.2,16.5c0.1,0,0.2-0.1,0.3-0.1
		c0,0.2-0.1,0.4-0.1,0.5c0.2-0.1,0.4-0.2,0.6-0.2c0,0.2,0,0.4,0,0.6c-0.1-0.1-0.2-0.2-0.2-0.2c0,0.7,0,1.4,0,2.1
		c0,0.1,0,0.3-0.1,0.3c-0.2,0.1-0.3,0.1-0.5,0.1c0-0.1,0-0.2,0-0.3c0.1,0,0.2-0.1,0.3-0.1c0-0.6,0-1.1,0-1.7
		C10.5,17.2,10.2,16.9,10.2,16.5L10.2,16.5z"/>
	<path class="st64" d="M9.8,16.1c0.1,0,0.3-0.1,0.4-0.1c-0.1,0.2-0.2,0.4-0.2,0.6l0,0.1C9.9,16.6,9.9,16.3,9.8,16.1L9.8,16.1z"/>
	<path class="st65" d="M2.3,17c0.1-0.1,0.1-0.4,0.3-0.4c0.3,0,0.6,0,0.9,0.1c0.2,0,0.3,0.2,0.4,0.4c0.2,0,0.4,0.1,0.5,0.3
		c0.1,0.3,0.1,0.6,0.2,0.9c0,0.2-0.1,0.3-0.3,0.4c0,0.2,0.1,0.4-0.1,0.6c-0.2,0.1-0.5,0.3-0.7,0.5c-0.2,0.1-0.4,0-0.5-0.1
		c-0.2,0.1-0.3,0.2-0.5,0.1c-0.2-0.1-0.3-0.3-0.5-0.4c-0.1-0.1-0.3-0.2-0.3-0.3c0-0.1,0-0.3,0-0.4c-0.1-0.1-0.3-0.3-0.2-0.5
		c0.1-0.3,0.2-0.5,0.3-0.8C1.9,17,2.1,17,2.3,17 M2.5,16.9c0,0.3,0.2,0.5,0.3,0.7C3,17.7,3,17.4,3.1,17.2c0.1,0.1,0.1,0.3,0.1,0.4
		c0.2-0.1,0.4-0.3,0.5-0.5c0.1-0.1,0-0.3-0.1-0.3c-0.2-0.1-0.4,0-0.7-0.1C2.8,16.8,2.6,16.8,2.5,16.9 M1.8,17.8
		c0,0.1-0.2,0.3-0.1,0.4c0.2,0.2,0.6,0,0.8,0c0-0.2-0.2-0.3-0.3-0.4c0.1,0,0.3,0.1,0.4,0c-0.1-0.3-0.3-0.5-0.5-0.7
		C1.9,17.3,1.9,17.6,1.8,17.8 M3.5,17.9c0.1,0,0.3,0,0.4,0c-0.1,0.1-0.4,0.1-0.3,0.3c0.2,0.1,0.4,0.2,0.6,0.2c0.1,0,0.2-0.1,0.2-0.2
		c-0.1-0.3-0.1-0.5-0.2-0.8c0-0.1-0.2-0.2-0.3-0.1C3.7,17.5,3.5,17.7,3.5,17.9 M2.9,17.8c-0.2,0.1-0.2,0.5,0,0.6
		c0.2,0.1,0.6-0.1,0.5-0.3C3.4,17.9,3.1,17.7,2.9,17.8 M1.8,18.8C2,19,2.2,19.2,2.4,19.4c0.1,0.1,0.3,0.1,0.4,0
		c0.1-0.2,0.1-0.5,0-0.8c-0.1,0.1-0.2,0.2-0.4,0.3c0.1-0.1,0.1-0.3,0.2-0.4C2.3,18.4,1.8,18.5,1.8,18.8 M3.4,18.5
		c0,0.1,0.1,0.3,0.1,0.4c-0.1-0.1-0.2-0.2-0.4-0.3c0,0.3-0.1,0.6,0.1,0.9c0.2,0,0.3-0.2,0.5-0.2c0.2-0.1,0.4-0.2,0.5-0.4
		C4.1,18.6,3.7,18.5,3.4,18.5L3.4,18.5z"/>
	<path class="st66" d="M26.5,16.7c0.1-0.1,0.3,0,0.5-0.1c0.2,0,0.4-0.1,0.6,0c0.2,0,0.2,0.2,0.3,0.4c0.2,0,0.4,0,0.5,0.2
		c0.1,0.3,0.2,0.5,0.3,0.8c0.1,0.2-0.1,0.4-0.2,0.5c0,0.2,0.1,0.4-0.1,0.6c-0.2,0.2-0.4,0.3-0.6,0.5c-0.2,0.1-0.4,0-0.6-0.1
		c-0.1,0.1-0.2,0.1-0.3,0.2c-0.2,0-0.4-0.1-0.5-0.2c-0.2-0.1-0.3-0.2-0.5-0.3c-0.1-0.1-0.1-0.3-0.1-0.5c-0.1-0.1-0.3-0.2-0.3-0.4
		c0.1-0.3,0.2-0.6,0.2-0.9c0.1-0.2,0.3-0.2,0.5-0.3C26.3,17,26.3,16.8,26.5,16.7 M26.9,16.8c-0.1,0-0.3,0-0.4,0.1
		c0,0.3,0.2,0.5,0.5,0.7c0-0.1,0.1-0.3,0.1-0.4c0.1,0.1,0.1,0.3,0.2,0.4c0.2,0,0.2-0.2,0.3-0.3c0.1-0.2,0.2-0.4,0-0.5
		C27.3,16.8,27.1,16.8,26.9,16.8 M27.9,17.2c-0.2,0.2-0.3,0.4-0.4,0.6c0.2,0,0.3,0,0.5,0c-0.1,0.1-0.3,0.2-0.3,0.4
		c0.3,0.1,0.7,0.3,0.9,0c-0.1-0.3-0.2-0.5-0.3-0.8C28.2,17.2,28,17.1,27.9,17.2 M25.9,17.5c0,0.3-0.2,0.6-0.2,0.9
		c0.3,0.1,0.6-0.1,0.8-0.2c-0.1-0.1-0.3-0.2-0.4-0.3c0.2,0,0.3,0,0.5,0c-0.1-0.2-0.3-0.5-0.5-0.6C26.1,17.2,25.9,17.4,25.9,17.5
		 M27,17.8c-0.2,0.1-0.3,0.4-0.1,0.6c0.2,0.2,0.6,0.1,0.6-0.2C27.5,17.9,27.2,17.7,27,17.8 M26.5,18.5C26.3,18.6,26,18.7,26,19
		c0.3,0.2,0.5,0.3,0.8,0.5c0.1,0.1,0.3,0,0.3-0.1c0.1-0.2,0-0.5,0-0.7c-0.1,0.1-0.3,0.2-0.4,0.3c0-0.1,0.1-0.3,0.1-0.4
		C26.7,18.5,26.6,18.5,26.5,18.5 M27.6,18.4c0,0.1,0.1,0.3,0.2,0.4c-0.1-0.1-0.3-0.2-0.4-0.2c0,0.2,0,0.5,0.1,0.7
		c0,0.1,0.3,0.1,0.4,0c0.2-0.1,0.3-0.3,0.5-0.4c0.1-0.1,0.2-0.3,0-0.3C28.1,18.5,27.8,18.4,27.6,18.4L27.6,18.4z"/>
	<path class="st44" d="M2.5,16.9c0.1-0.1,0.2-0.1,0.4-0.1c0.2,0,0.5,0,0.7,0.1c0.1,0,0.2,0.2,0.1,0.3c-0.1,0.2-0.2,0.4-0.5,0.5
		c0-0.1-0.1-0.3-0.1-0.4C3,17.4,3,17.7,2.8,17.6C2.7,17.4,2.5,17.2,2.5,16.9 M1.8,17.8c0.1-0.2,0.1-0.5,0.3-0.7
		c0.3,0.1,0.5,0.4,0.5,0.7c-0.1,0.1-0.3,0-0.4,0c0.1,0.1,0.2,0.2,0.3,0.4c-0.3,0-0.6,0.2-0.8,0C1.6,18.1,1.7,17.9,1.8,17.8
		 M27.9,17.2c0.1-0.1,0.3,0,0.3,0.1c0.1,0.3,0.2,0.5,0.3,0.8c-0.2,0.3-0.6,0.1-0.9,0c0-0.2,0.2-0.2,0.3-0.4c-0.2,0-0.3,0-0.5,0
		C27.6,17.6,27.7,17.4,27.9,17.2 M3.5,17.9c0.1-0.2,0.2-0.4,0.4-0.6c0.1-0.1,0.3,0,0.3,0.1c0.1,0.3,0.1,0.5,0.2,0.8
		c0,0.1-0.1,0.2-0.2,0.2c-0.2,0-0.4-0.1-0.6-0.2c-0.1-0.2,0.2-0.2,0.3-0.3C3.8,17.9,3.6,17.9,3.5,17.9 M25.9,17.5
		c0-0.1,0.2-0.3,0.3-0.2c0.2,0.1,0.4,0.3,0.5,0.6c-0.2,0-0.3,0-0.5,0c0.1,0.1,0.3,0.2,0.4,0.3c-0.3,0.2-0.5,0.3-0.8,0.2
		C25.7,18.1,25.9,17.8,25.9,17.5 M27,17.8c0.2-0.1,0.6,0.1,0.5,0.4c0,0.3-0.4,0.4-0.6,0.2C26.7,18.3,26.7,17.9,27,17.8 M26.5,18.5
		c0.1,0,0.2,0,0.2,0c0,0.1-0.1,0.3-0.1,0.4c0.1-0.1,0.3-0.2,0.4-0.3c0,0.2,0.1,0.5,0,0.7c0,0.1-0.2,0.2-0.3,0.1
		c-0.3-0.2-0.5-0.3-0.8-0.5C26,18.7,26.3,18.6,26.5,18.5L26.5,18.5z"/>
	<path class="st44" d="M26.9,16.8c0.2,0,0.4,0,0.7,0c0.2,0.1,0.1,0.4,0,0.5c-0.1,0.1-0.1,0.3-0.3,0.3c-0.1-0.1-0.1-0.3-0.2-0.4
		c0,0.1-0.1,0.3-0.1,0.4c-0.2-0.2-0.5-0.4-0.5-0.7C26.5,16.8,26.7,16.8,26.9,16.8L26.9,16.8z"/>
	<path class="st67" d="M10.8,17.1c0.1,0.1,0.2,0.2,0.2,0.2l0,0.1c0,0.5,0,1.1,0,1.6c0,0.1,0.2,0.2,0.2,0.3c0,0.2,0,0.4-0.1,0.6
		c0,0.2,0,0.4,0,0.6c-0.1,0.2-0.3,0.3-0.5,0.4c-0.2-0.1-0.4-0.2-0.5-0.4c0.2,0,0.3,0.1,0.5,0.1c0.2-0.1,0.3-0.4,0.1-0.6
		c-0.2-0.1-0.4-0.1-0.7-0.1c0-0.1,0-0.2,0-0.2c0.2,0,0.3,0,0.5-0.1c0.1-0.1,0.1-0.2,0.1-0.3C10.8,18.5,10.7,17.8,10.8,17.1
		L10.8,17.1z"/>
	<path class="st68" d="M17.8,17.6c0.2,0.1,0.3,0.2,0.5,0.3c0,0.3,0.1,0.6,0.2,0.9C18.2,18.6,17.9,18.1,17.8,17.6L17.8,17.6z"/>
	<path class="st69" d="M19.6,19.4c0.3,0,0.5,0,0.8,0c-0.6,0.7-0.9,1.6-0.8,2.5c0,0.3,0.1,0.5,0,0.8c-0.1,0.2-0.4,0.2-0.5,0.2
		c-0.1,0.1-0.1,0.2-0.2,0.3c-0.2-0.1-0.3-0.3-0.5-0.4c0.1-0.1,0.1-0.3,0.3-0.3c0.2,0,0.5-0.1,0.4-0.4C19,21.2,19,20.2,19.6,19.4
		L19.6,19.4z"/>
	<path class="st70" d="M10.1,19.9c0.2,0,0.5,0,0.7,0.1c0.2,0.1,0.1,0.5-0.1,0.6c-0.2,0-0.3-0.1-0.5-0.1c0-0.2,0.1-0.4,0.2-0.5
		C10.3,19.9,10.2,19.9,10.1,19.9L10.1,19.9z"/>
	<path class="st71" d="M17.3,19.9c0.1,0,0.2,0.1,0.4,0.1c0,0.1,0,0.2,0.1,0.3C17.6,20.2,17.4,20.1,17.3,19.9L17.3,19.9z"/>
	<path class="st72" d="M12.7,22.2c0.2,0,0.3,0,0.5,0c0,0.2,0.1,0.4,0.1,0.6c-0.1,0-0.2-0.1-0.2-0.2C12.9,22.5,12.8,22.3,12.7,22.2
		L12.7,22.2z"/>
	<path class="st73" d="M16.9,22.4c0.1,0,0.3,0,0.4,0c0,0.2,0,0.4,0,0.6c0,0-0.1-0.1-0.1-0.2c-0.1-0.1-0.1-0.2-0.2-0.3
		C17,22.4,16.9,22.4,16.9,22.4L16.9,22.4z"/>
	<path class="st74" d="M17.9,22.4c0.1,0,0.2,0,0.2,0c0,0.1,0.1,0.2,0.1,0.3C18.2,22.6,18.1,22.5,17.9,22.4L17.9,22.4z"/>
	<path class="st75" d="M23.5,22.9c0-0.2,0.4-0.2,0.4,0C23.8,22.9,23.6,22.9,23.5,22.9L23.5,22.9z"/>
	<path class="st76" d="M23.5,23c0.1-0.1,0.4-0.1,0.5,0c0.1,0.1,0.2,0.3,0.3,0.4c0.1,0.1,0.4,0.2,0.4,0.4c0.1,0.5-0.4,0.8-0.7,1.1
		c-0.4-0.4-0.8-0.8-1.2-1.2C23,23.5,23.2,23.2,23.5,23 M23.3,23.5c0.1,0.1,0.2,0.3,0.4,0.4c0.1-0.1,0.3-0.3,0.1-0.5
		C23.6,23.2,23.4,23.4,23.3,23.5 M24,23.9c0,0-0.1,0.1-0.1,0.1l-0.1,0c0.1,0.2,0.2,0.3,0.3,0.4c0.1-0.1,0.3-0.3,0.1-0.5
		C24.2,23.8,24.1,23.9,24,23.9 M5.5,23.8C5.8,23.6,6,23.3,6.3,23c0.3,0.2,0.5,0.4,0.7,0.7c-0.1,0.1-0.1,0.1-0.2,0.2
		c-0.1-0.1-0.3-0.2-0.4-0.4c-0.1,0.1-0.2,0.2-0.3,0.3c0.1,0.1,0.2,0.3,0.4,0.4c0,0.1-0.1,0.2-0.1,0.2C6.3,24.3,6.1,24.1,6,24
		c-0.2,0.2-0.4,0.4-0.5,0.5c-0.1-0.1-0.2-0.2-0.3-0.3C5.2,24.1,5.3,24,5.5,23.8 M11.9,26.3c0.3,0.1,0.7,0.1,1,0.3
		c0.2,0.2,0.1,0.4,0.1,0.6c0,0,0,0.1,0,0.1c-0.1,0.3,0,0.7-0.4,0.8c-0.3,0.1-0.7-0.1-1-0.2C11.6,27.4,11.8,26.9,11.9,26.3
		 M12.2,26.7c0,0.1,0,0.3,0,0.4c0.1,0,0.4,0,0.3-0.2C12.6,26.8,12.4,26.7,12.2,26.7 M12.1,27.3C12,27.5,12,27.7,12,27.8
		c0.1,0,0.3,0,0.4-0.1c0-0.1,0-0.2,0-0.3C12.3,27.4,12.2,27.3,12.1,27.3L12.1,27.3z"/>
	<path class="st77" d="M23.3,23.5c0.1-0.1,0.3-0.3,0.5-0.1c0.1,0.2,0,0.3-0.1,0.5C23.5,23.8,23.4,23.7,23.3,23.5 M23.4,23.5
		c0.1,0.1,0.2,0.2,0.2,0.3c0,0,0.1-0.1,0.1-0.2c0,0-0.1-0.1-0.1-0.2C23.6,23.4,23.5,23.5,23.4,23.5L23.4,23.5z"/>
	<path class="st78" d="M23.4,23.5c0.1,0,0.2-0.1,0.3-0.1c0,0,0.1,0.1,0.1,0.2c0,0-0.1,0.1-0.1,0.2C23.6,23.7,23.5,23.6,23.4,23.5
		L23.4,23.5z"/>
	<path class="st79" d="M22.5,23.9c0.1-0.1,0.1-0.1,0.2-0.2c0.1,0.1,0.3,0.3,0.4,0.4c0,0.2,0.1,0.4,0.1,0.6
		C22.9,24.4,22.7,24.1,22.5,23.9L22.5,23.9z"/>
	<path class="st80" d="M24,23.9c0.1,0,0.2,0,0.3,0.1c0.1,0.2,0,0.3-0.1,0.5c-0.1-0.1-0.3-0.2-0.3-0.4l0.1,0c0.1,0.1,0.2,0.2,0.3,0.2
		c0-0.1,0.1-0.2,0.1-0.2C24.1,24,24.1,23.9,24,23.9L24,23.9z"/>
	<path class="st81" d="M23.8,24c0,0,0.1-0.1,0.1-0.1c0.1,0,0.2,0.1,0.3,0.1c0,0.1-0.1,0.2-0.1,0.2C24,24.2,23.9,24.1,23.8,24
		L23.8,24z"/>
	<path class="st82" d="M22.3,24.2c0.1-0.1,0.1-0.1,0.2-0.2c0.3,0.3,0.5,0.6,0.7,1c0.2,0.3,0,0.7-0.3,0.9c-0.2,0.1-0.4,0-0.7,0
		c0,0,0-0.1-0.1-0.1c-0.2-0.3-0.4-0.6-0.7-0.9c0.1-0.1,0.2-0.2,0.3-0.3c0.3,0.3,0.5,0.7,0.7,0.9c0.2,0.2,0.5,0,0.4-0.2
		C22.8,24.8,22.5,24.5,22.3,24.2L22.3,24.2z"/>
	<path class="st83" d="M7,24.3c0.2-0.1,0.5-0.1,0.8-0.1c0.3,0.1,0.4,0.3,0.6,0.6c0.1,0.4-0.1,0.8-0.4,1.1c-0.5,0.3-1.1,0-1.3-0.5
		C6.5,25,6.6,24.5,7,24.3 M7.5,24.6c-0.4,0.1-0.7,0.7-0.3,1c0.4,0.1,0.8-0.4,0.7-0.9C7.8,24.6,7.6,24.5,7.5,24.6L7.5,24.6z"/>
	<path class="st84" d="M7.5,24.6c0.2-0.1,0.4,0.2,0.3,0.3c-0.1,0.2-0.3,0.4-0.5,0.5C7.1,25.6,7,25.3,7,25.2
		C7.1,24.9,7.3,24.7,7.5,24.6L7.5,24.6z"/>
	<path class="st85" d="M8.3,24.8c0,0,0-0.1,0-0.1c0.1,0.2,0.1,0.4,0.1,0.6c0.1,0,0.2-0.1,0.3-0.1l0.1,0c-0.2,0.2-0.5,0.3-0.6,0.6
		c-0.1,0.3,0,0.6,0.1,0.9c-0.3-0.2-0.3-0.5-0.3-0.8c-0.1,0-0.2,0-0.2,0C8.2,25.6,8.4,25.2,8.3,24.8L8.3,24.8z"/>
	<path class="st86" d="M23.3,25c0.2,0,0.2,0.4,0,0.5C23.3,25.3,23.3,25.2,23.3,25L23.3,25z"/>
	<path class="st87" d="M20.4,25.3c0.1-0.1,0.2-0.1,0.4-0.2c0.2,0.3,0.4,0.6,0.6,1c0.1,0.1,0.1,0.2,0.2,0.2c0.2-0.1,0.3-0.2,0.5-0.3
		c0,0.1,0.1,0.2,0.1,0.3c-0.3,0.2-0.6,0.3-0.9,0.5C20.9,26.3,20.6,25.8,20.4,25.3 M10.4,25.8c0.4,0.1,0.7,0.2,1.1,0.4
		c0,0.1,0,0.2,0,0.3c-0.1,0-0.3-0.1-0.4-0.1c-0.2,0.4-0.3,0.9-0.5,1.3c-0.1-0.1-0.3-0.1-0.4-0.2c0.1-0.3,0.2-0.6,0.3-0.9
		c0-0.1,0.1-0.1,0.1-0.2c0,0,0-0.1,0-0.1c-0.1-0.1-0.2-0.2-0.3-0.2C10.3,26,10.4,25.9,10.4,25.8L10.4,25.8z"/>
	<path class="st88" d="M8.9,25.2c0.3,0,0.8,0.1,1,0.4c0.3,0.3,0.1,0.8-0.1,1.2c-0.3,0.4-1,0.4-1.3,0c-0.2-0.3-0.3-0.6-0.1-0.9
		C8.4,25.5,8.6,25.4,8.9,25.2 M9,25.7c-0.3,0.2-0.5,0.7-0.2,0.9c0.4,0.1,0.7-0.4,0.7-0.7C9.5,25.6,9.2,25.5,9,25.7 M19.6,25.7
		c0.2-0.1,0.5,0.1,0.7,0.1c0,0.1-0.1,0.2-0.1,0.2c-0.2,0-0.5-0.1-0.7,0.1c-0.2,0.2-0.1,0.6,0.1,0.8c0.1,0.2,0.4,0.1,0.6,0.1
		c0,0,0.1-0.1,0.1-0.1c0.1-0.1,0.1-0.2,0.2-0.3c0.1,0,0.2,0,0.2,0c-0.1,0.3-0.2,0.5-0.4,0.7c-0.3,0.2-0.7,0.1-1,0
		c-0.1,0-0.1-0.1-0.2-0.1c-0.1-0.2-0.2-0.4-0.2-0.6C18.8,26.1,19.2,25.8,19.6,25.7L19.6,25.7z"/>
	<path class="st89" d="M9,25.7c0.2-0.2,0.5,0,0.5,0.2c0.1,0.4-0.3,0.9-0.7,0.7C8.6,26.3,8.8,25.9,9,25.7L9,25.7z"/>
	<path class="st90" d="M10,25.7c0.1,0,0.2,0.1,0.3,0.1c0,0.1-0.1,0.2-0.1,0.4c0.1,0.1,0.2,0.2,0.4,0.2c0,0.1-0.1,0.1-0.1,0.2
		c0,0.1-0.1,0.1-0.1,0.2c0-0.1,0-0.3,0-0.4c-0.2-0.1-0.3,0-0.4,0.1C10,26.2,10,25.9,10,25.7L10,25.7z"/>
	<path class="st91" d="M10.4,25.7c0.3,0,0.7,0,0.9,0.3C11,26,10.7,25.8,10.4,25.7L10.4,25.7z"/>
	<path class="st92" d="M11.1,26.5c0.1,0,0.2,0,0.3,0l0,0c-0.2,0.1-0.4,0.2-0.6,0.4C11,26.8,11,26.6,11.1,26.5L11.1,26.5z"/>
	<path class="st82" d="M16.4,26.6c0.1,0,0.3-0.1,0.4-0.1c0.1,0.5,0.1,0.9,0.2,1.4c0.2,0,0.4-0.1,0.6-0.1c0,0.1,0,0.2,0.1,0.3
		c-0.3,0.1-0.7,0.1-1,0.2C16.6,27.7,16.5,27.2,16.4,26.6 M14,26.6c0.2,0.6,0.4,1.2,0.6,1.8c-0.1,0-0.3,0-0.4,0
		c0-0.1-0.1-0.2-0.1-0.4c-0.1,0-0.3,0-0.4-0.1c-0.1,0.1-0.1,0.3-0.2,0.4c-0.1,0-0.2,0-0.2,0C13.4,27.7,13.7,27.2,14,26.6 M13.8,27.5
		c-0.1,0-0.1,0.3,0,0.2C14,27.7,14,27.5,13.8,27.5L13.8,27.5z"/>
	<path class="st93" d="M15,26.6c0.2,0,0.3,0,0.5,0c0.1,0.5,0.1,0.9,0.1,1.4c0.2,0,0.4,0,0.6,0c0,0.1,0,0.3,0,0.4l-0.1,0
		c0-0.1-0.1-0.2-0.1-0.3c-0.2,0-0.4,0-0.6,0c0-0.5,0-0.9,0-1.4C15.3,26.7,15.2,26.7,15,26.6c0.1,0.5,0.1,0.8,0.1,1.2l-0.1,0
		c0-0.2,0-0.3,0-0.5C15,27.1,15,26.9,15,26.6L15,26.6z"/>
	<path class="st94" d="M11.6,27.3c-0.1-0.2,0-0.4,0.1-0.6C11.7,26.9,11.6,27.1,11.6,27.3L11.6,27.3z"/>
	<path class="st95" d="M15.1,26.7c0.1,0,0.3,0,0.4,0c0,0.5,0,0.9,0,1.4c0.2,0,0.4,0,0.6,0c0,0.1,0.1,0.2,0.1,0.3c-0.2,0-0.3,0-0.5,0
		c-0.2,0-0.3-0.1-0.5,0c0-0.2,0-0.4,0-0.5C15.1,27.4,15.1,27.1,15.1,26.7L15.1,26.7z"/>
	<path class="st96" d="M16.9,26.7c0.1,0,0.1,0.2,0.1,0.3c0,0.2,0,0.5,0.1,0.7c0.2,0,0.4,0,0.5,0c-0.2,0-0.4,0.1-0.6,0.1
		C17,27.5,17,27.1,16.9,26.7L16.9,26.7z"/>
	<path class="st97" d="M12.1,27.3c0.1,0,0.2,0,0.3,0.1c0,0.1,0,0.2,0,0.3c-0.1,0.2-0.3,0.1-0.4,0.1C12,27.7,12,27.5,12.1,27.3
		 M12.2,27.4c0,0.1-0.1,0.2-0.1,0.3c0.2,0,0.3-0.1,0.3-0.2C12.3,27.5,12.2,27.4,12.2,27.4L12.2,27.4z"/>
	<path class="st98" d="M12.2,27.4c0,0,0.1,0.1,0.2,0.1c0,0.1-0.1,0.3-0.3,0.2C12.1,27.6,12.1,27.5,12.2,27.4L12.2,27.4z"/>
	<path class="st99" d="M13.8,27.5c0.1,0,0.2,0.2,0,0.2C13.7,27.8,13.7,27.5,13.8,27.5L13.8,27.5z"/>
	<path class="st100" d="M11.4,28c0.1,0,0.2,0,0.3,0.1C11.7,28.2,11.4,28.2,11.4,28L11.4,28z"/>
	<path class="st101" d="M12,28.2c0.2,0,0.4,0,0.6,0C12.5,28.3,12.2,28.4,12,28.2L12,28.2z"/>
	<path class="st102" d="M16.5,28.4c0.3-0.1,0.6-0.1,1-0.1C17.2,28.4,16.9,28.5,16.5,28.4L16.5,28.4L16.5,28.4z"/>
	<path class="st103" d="M13.1,28.3c0.1,0,0.2,0,0.4,0C13.5,28.5,13.1,28.5,13.1,28.3L13.1,28.3z"/>
	<path class="st104" d="M15.1,28.3c0.2,0,0.3,0,0.5,0C15.5,28.4,15.2,28.6,15.1,28.3L15.1,28.3z"/>
</g>
</svg>
