<?xml version="1.0" encoding="utf-8"?>
<!-- Generator: Adobe Illustrator 17.0.0, SVG Export Plug-In . SVG Version: 6.00 Build 0)  -->
<!DOCTYPE svg PUBLIC "-//W3C//DTD SVG 1.1 Basic//EN" "http://www.w3.org/Graphics/SVG/1.1/DTD/svg11-basic.dtd">
<svg version="1.1" baseProfile="basic" id="Layer_1"
	 xmlns="http://www.w3.org/2000/svg" xmlns:xlink="http://www.w3.org/1999/xlink" x="0px" y="0px" width="60px" height="60px"
	 viewBox="0 0 60 60" xml:space="preserve">
<style type="text/css">
	.st0{fill:#338956;}
	.st1{fill:none;stroke:#338956;stroke-width:2;stroke-miterlimit:10;}
	.st2{opacity:0.5;fill:#FFFFFF;}
	.st3{fill:#BA8B2D;}
	.st4{fill:#263C83;}
	.st5{fill:#2B2F36;}
	.st6{fill:#9E8644;}
	.st7{fill:#A29165;}
	.st8{fill:#A48C4C;}
	.st9{fill:#FFFFFA;}
	.st10{fill:#A28C51;}
	.st11{fill:#A48C49;}
	.st12{fill:#FFFFFD;}
	.st13{fill:#25397A;}
	.st14{fill:#374041;}
	.st15{fill:#424740;}
	.st16{fill:#E1C177;}
	.st17{fill:#A48C4D;}
	.st18{fill:#323C41;}
	.st19{fill:#2B3B48;}
	.st20{fill:#B98A2D;}
	.st21{fill:#2A3843;}
	.st22{fill:#1D2F44;}
	.st23{fill:#B29349;}
	.st24{fill:#524E35;}
	.st25{fill:#596EB2;}
	.st26{fill:#586EB2;}
	.st27{fill:#D3D3D6;}
	.st28{fill:#596DB3;}
	.st29{fill:#D2D3D9;}
	.st30{fill:#CED4E0;}
	.st31{fill:#B5C7E7;}
	.st32{fill:#D3D3D7;}
	.st33{fill:#5A6DB3;}
	.st34{fill:#E81E25;}
	.st35{fill:#536EB5;}
	.st36{fill:#5A6EAF;}
	.st37{fill:#D7D3D5;}
	.st38{fill:#FCF7FA;}
	.st39{fill:#FCF8FB;}
	.st40{fill:#C6363B;}
	.st41{fill:#C63136;}
	.st42{fill:#576DB4;}
	.st43{fill:#D2D3D8;}
	.st44{fill:#D2D3D7;}
	.st45{fill:#ED1C24;}
	.st46{fill:#E21F26;}
	.st47{fill:#DB1F26;}
	.st48{fill:#D3D3D8;}
	.st49{fill:#E01F26;}
	.st50{fill:#E11F26;}
	.st51{fill:#E91D25;}
	.st52{fill:#E31E26;}
	.st53{fill:#E71E25;}
	.st54{fill:#566DB4;}
	.st55{fill:#D1D3D8;}
	.st56{fill:#BC7D80;}
	.st57{fill:#C86D70;}
	.st58{fill:#C3363A;}
	.st59{fill:#566EB0;}
	.st60{fill:#CE3438;}
	.st61{fill:#CC2A30;}
	.st62{fill:#CA2127;}
	.st63{fill:#CED4DF;}
	.st64{fill:#5A6DB2;}
	.st65{fill:#6C81B9;}
	.st66{fill:#FEF3F8;}
	.st67{fill:#FEF2F4;}
	.st68{fill:#263A7D;}
	.st69{fill:#D0D4DE;}
	.st70{fill:#D2D3D6;}
	.st71{fill:#586DB4;}
	.st72{fill:#C8CDE1;}
	.st73{fill:#586EB0;}
	.st74{fill:#5B72AE;}
	.st75{fill:#2A3A46;}
	.st76{fill:#FFFEF8;}
	.st77{fill:#A69A77;}
	.st78{fill:#323B38;}
	.st79{fill:#1B3461;}
	.st80{fill:#9B916E;}
	.st81{fill:#3B4342;}
	.st82{fill:#FFFEF5;}
	.st83{fill:#FFFEF6;}
	.st84{fill:#263B7F;}
	.st85{fill:#28334A;}
	.st86{fill:#2F3C42;}
	.st87{fill:#FFFEF7;}
	.st88{fill:#FFFEF4;}
	.st89{fill:#253876;}
	.st90{fill:#374654;}
	.st91{fill:#253C58;}
	.st92{fill:#2A3E55;}
	.st93{fill:#C2B388;}
	.st94{fill:#3E4B53;}
	.st95{fill:#FFFFF9;}
	.st96{fill:#293E58;}
	.st97{fill:#A0936B;}
	.st98{fill:#363A31;}
	.st99{fill:#AB945B;}
	.st100{fill:#464B45;}
	.st101{fill:#3B4544;}
	.st102{fill:#2D3F56;}
	.st103{fill:#2F3D49;}
	.st104{fill:#B0A789;}
	.st105{fill-rule:evenodd;clip-rule:evenodd;fill:#252C6A;}
	.st106{fill-rule:evenodd;clip-rule:evenodd;fill:#FFFFFF;}
	.st107{opacity:0.3;}
	.st108{fill:none;stroke:#FFFFFF;stroke-width:7;stroke-miterlimit:10;}
	.st109{fill:none;stroke:#FFFFFF;stroke-width:8;stroke-miterlimit:10;}
	.st110{fill:#FFFFFF;}
	.st111{fill:none;}
</style>
<g>
	<path class="st105" d="M57.237,35.068c-0.199,0.333-0.357,0.685-0.478,1.053l3.159,1.196l-0.073,0.175
		C54.79,49.641,45.306,57.06,31.949,58.151L30,60l-1.949-1.849C14.694,57.06,5.21,49.641,0.156,37.492l-0.073-0.175l3.159-1.196
		c-0.121-0.368-0.28-0.72-0.478-1.053l-1.93,0.862l-0.084-0.055c-0.721-0.474-0.816-1.344-0.715-2.132
		c0.068-0.532,0.514-0.85,0.976-1.045c1.631-0.687,3.245-1.413,4.89-2.066c0.361-0.143,0.745-0.167,1.097,0.013
		c0.247,0.127,0.489,0.274,0.717,0.432l0.017,0.012l0.014,0.015c1.58,1.71,1.556,3.562,1.8,5.727l0.016,0.146l-1.595,0.549
		c2.936,5.622,7.5,9.971,13.539,12.123c2.727,0.972,5.602,1.435,8.496,1.435s5.769-0.463,8.496-1.435
		c6.039-2.153,10.603-6.502,13.539-12.123l-1.595-0.549l0.017-0.146c0.244-2.165,0.22-4.017,1.8-5.727l0.014-0.015l0.017-0.012
		c0.228-0.159,0.47-0.305,0.717-0.432c0.352-0.181,0.736-0.157,1.097-0.013c1.645,0.653,3.259,1.379,4.89,2.066
		c0.462,0.195,0.908,0.513,0.976,1.045c0.101,0.788,0.006,1.658-0.715,2.132l-0.084,0.055L57.237,35.068L57.237,35.068z"/>
	<path class="st106" d="M30,59.747l1.869-1.773c14.335-1.148,23.194-9.468,27.805-20.551l-3.143-1.19
		c0.147-0.498,0.357-0.964,0.634-1.397l1.986,0.886c0.494-0.325,0.741-0.935,0.634-1.956c-0.055-0.366-0.323-0.671-0.865-0.899
		c-1.629-0.688-3.257-1.377-4.886-2.065c-0.356-0.132-0.67-0.129-0.944,0.006c-0.229,0.123-0.474,0.265-0.697,0.419
		c-1.546,1.672-1.515,3.516-1.753,5.623l1.657,0.571C47.522,46.724,39.112,51.045,30,51.268
		c-9.112-0.224-17.522-4.544-22.296-13.847l1.657-0.571c-0.238-2.108-0.207-3.951-1.753-5.623c-0.223-0.155-0.467-0.297-0.697-0.419
		c-0.274-0.135-0.589-0.138-0.944-0.006c-1.629,0.688-3.257,1.377-4.886,2.065c-0.542,0.228-0.81,0.533-0.865,0.899
		c-0.107,1.021,0.14,1.631,0.634,1.956l1.986-0.886c0.277,0.433,0.486,0.899,0.634,1.397l-3.143,1.19
		c4.611,11.084,13.47,19.403,27.805,20.551L30,59.747L30,59.747z"/>
	<path class="st105" d="M52.757,31.645c-1.283,1.42-1.347,3.053-1.523,4.828c0.451,0.155,0.901,0.31,1.352,0.466
		c0.22-0.499,0.44-0.999,0.659-1.498c0.047-0.088-0.08-0.124-0.201-0.021c-0.309,0.267-0.581,0.722-0.902,0.816
		c-0.223,0.002-0.447,0.004-0.67,0.006c0.022-0.182,0.045-0.328,0.067-0.51c0.309,0.088,0.555,0.132,0.621,0.049
		c0.205-0.247,0.46-0.501,0.666-0.748c0.127-0.096,0.237-0.115,0.437-0.065c0.917,0.355,1.834,0.71,2.751,1.064
		c0.151-0.497,0.361-0.971,0.634-1.413c-0.785-0.329-1.57-0.658-2.355-0.988c-0.144-0.054-0.158-0.211-0.158-0.486
		c0.089-0.563,0.348-1.303,0.001-1.708c-0.183-0.175-0.512-0.257-0.795-0.139C53.141,31.401,52.944,31.519,52.757,31.645
		L52.757,31.645z M7.243,31.645c1.283,1.42,1.347,3.053,1.523,4.828c-0.451,0.155-0.901,0.31-1.352,0.466
		c-0.22-0.499-0.44-0.999-0.659-1.498c-0.047-0.088,0.08-0.124,0.201-0.021c0.309,0.267,0.581,0.722,0.902,0.816
		c0.223,0.002,0.447,0.004,0.67,0.006c-0.022-0.182-0.045-0.328-0.067-0.51c-0.309,0.088-0.555,0.132-0.621,0.049
		c-0.205-0.247-0.46-0.501-0.666-0.748c-0.127-0.096-0.238-0.115-0.437-0.065c-0.917,0.355-1.834,0.71-2.75,1.064
		c-0.151-0.497-0.361-0.971-0.634-1.413c0.785-0.329,1.57-0.658,2.355-0.988c0.144-0.054,0.158-0.211,0.158-0.486
		c-0.089-0.563-0.348-1.303-0.001-1.708c0.183-0.175,0.512-0.257,0.795-0.139C6.859,31.401,7.056,31.519,7.243,31.645L7.243,31.645z
		 M0.953,35.072c-0.25-0.335-0.239-0.844-0.189-1.236c0.029-0.227,0.351-0.385,0.532-0.461c1.3-0.548,2.589-1.12,3.892-1.661
		c0.031,0.481,0.062,0.962,0.093,1.444c0.003,0.048-0.024,0.091-0.068,0.109C3.746,33.866,2.401,34.425,0.953,35.072L0.953,35.072z
		 M6.922,37.108c0.097,0.188,0.193,0.376,0.29,0.565c3.018,5.879,7.761,10.428,14.044,12.668c2.807,1.001,5.766,1.478,8.744,1.478
		c2.978,0,5.937-0.478,8.744-1.478c6.283-2.24,11.027-6.789,14.044-12.668c0.097-0.188,0.193-0.376,0.29-0.565
		c0.201-0.456,0.403-0.911,0.605-1.367c0.024-0.055,0.09-0.081,0.145-0.057c0.676,0.294,1.352,0.587,2.028,0.881
		c1.029,0.389,2.057,0.779,3.086,1.168c-5.008,11.603-14.195,18.655-27.117,19.69c-0.065,0.005-0.13,0.011-0.195,0.016
		c-0.543,0.515-1.086,1.031-1.63,1.546c-0.543-0.515-1.086-1.031-1.63-1.546c-0.065-0.005-0.13-0.01-0.195-0.016
		c-12.922-1.035-22.109-8.087-27.117-19.69c1.029-0.39,2.057-0.779,3.086-1.168c0.676-0.294,1.352-0.587,2.028-0.881
		c0.056-0.024,0.121,0.001,0.145,0.057C6.519,36.197,6.721,36.653,6.922,37.108L6.922,37.108z M59.047,35.072
		c0.25-0.335,0.239-0.844,0.188-1.236c-0.029-0.227-0.351-0.385-0.532-0.461c-1.3-0.548-2.589-1.12-3.892-1.661
		c-0.031,0.481-0.062,0.962-0.093,1.444c-0.003,0.048,0.024,0.091,0.068,0.109C56.254,33.866,57.599,34.425,59.047,35.072
		L59.047,35.072z"/>
	<path class="st105" d="M32.522,50.358c-0.796,0.816-1.593,1.633-2.389,2.449L30,52.942l-0.132-0.135
		c-0.796-0.816-1.593-1.632-2.39-2.449c-4.685-0.509-9.196-2.239-12.877-5.199c-3.196-2.571-5.713-6.055-6.754-10.046
		c-1.012-3.879-0.378-7.94,0.763-11.717c0.481-1.592,1.207-3.102,1.626-4.713c0.31-1.19,0.598-2.527,0.415-3.758
		c-0.36-2.419-2.426-4.626-4.181-6.194L6.321,8.596l0.149-0.137c3.018-2.778,6.035-5.557,9.053-8.335L15.657,0l0.125,0.133
		c1.95,2.082,5.469,2.582,8.178,2.328c2.057-0.193,4.27-0.852,5.928-2.115L30,0.261l0.112,0.085
		c1.658,1.263,3.872,1.922,5.928,2.115c2.709,0.254,6.228-0.246,8.178-2.328L44.343,0l0.135,0.124
		c3.018,2.778,6.035,5.557,9.053,8.335l0.149,0.137l-0.151,0.135c-1.755,1.568-3.821,3.775-4.181,6.194
		c-0.183,1.231,0.106,2.568,0.415,3.758c0.419,1.612,1.145,3.121,1.626,4.713c1.141,3.777,1.775,7.838,0.763,11.717
		c-1.041,3.991-3.558,7.476-6.754,10.046C41.718,48.119,37.207,49.849,32.522,50.358L32.522,50.358z"/>
	<path class="st106" d="M30,0.492c3.886,2.959,11.3,3.026,14.352-0.234c3.018,2.778,6.035,5.557,9.053,8.335
		c-2.252,2.012-3.881,4.128-4.24,6.304c-0.158,1.197,0.112,2.474,0.419,3.831c0.476,1.613,1.137,3.132,1.628,4.72
		c1.186,4.015,1.549,7.87,0.762,11.618c-2.303,7.363-9.386,14.038-19.538,15.116c-0.812,0.832-1.624,1.664-2.436,2.496
		c-0.812-0.832-1.624-1.664-2.436-2.496C17.412,49.105,10.329,42.43,8.026,35.066c-0.788-3.748-0.425-7.603,0.762-11.618
		c0.491-1.589,1.152-3.107,1.628-4.72c0.307-1.357,0.577-2.634,0.419-3.831c-0.359-2.176-1.988-4.292-4.24-6.304
		c3.018-2.778,6.035-5.557,9.053-8.335C18.7,3.519,26.114,3.451,30,0.492L30,0.492z"/>
	<path class="st105" d="M30,1.634c-1.743,1.135-3.893,1.748-5.935,1.939c-2.779,0.261-6.166-0.215-8.419-2.043
		c-2.558,2.355-5.116,4.71-7.674,7.066c1.742,1.675,3.435,3.788,3.789,6.165c0.208,1.4-0.087,2.849-0.439,4.202
		c-0.425,1.634-1.152,3.148-1.638,4.755c-1.08,3.573-1.71,7.441-0.752,11.114c0.98,3.758,3.365,7.039,6.373,9.459
		c3.53,2.839,7.864,4.487,12.358,4.964l0.336,0.036l0.236,0.242c0.588,0.603,1.177,1.206,1.765,1.809
		c0.588-0.603,1.177-1.206,1.765-1.809l0.236-0.242l0.336-0.036c4.494-0.477,8.829-2.126,12.358-4.964
		c3.008-2.419,5.393-5.701,6.373-9.459c0.958-3.673,0.328-7.541-0.752-11.114c-0.486-1.607-1.212-3.121-1.638-4.755
		c-0.352-1.353-0.647-2.802-0.439-4.202c0.353-2.377,2.047-4.491,3.789-6.165c-2.558-2.355-5.116-4.71-7.674-7.066
		c-2.253,1.829-5.64,2.304-8.419,2.043C33.893,3.381,31.742,2.768,30,1.634L30,1.634z"/>
	<path class="st106" d="M41.91,14.338l-0.013,0.013c0.416,0.276,0.771,0.58,1.097,0.898c-0.146,0.164-0.292,0.328-0.439,0.492
		c-0.202-0.447-0.446-0.874-0.786-1.254c-0.34,0.381-0.584,0.807-0.786,1.254c-0.146-0.164-0.292-0.328-0.439-0.492
		c0.326-0.318,0.681-0.622,1.097-0.898l-0.013-0.013c0.031-0.032,0.063-0.065,0.094-0.097l0.046,0.028l0.046-0.028
		C41.847,14.273,41.879,14.305,41.91,14.338L41.91,14.338z M18.37,14.338l-0.013,0.013c0.416,0.276,0.771,0.58,1.098,0.898
		c-0.146,0.164-0.292,0.328-0.439,0.492c-0.202-0.447-0.446-0.874-0.786-1.254c-0.34,0.381-0.584,0.807-0.786,1.254
		c-0.146-0.164-0.292-0.328-0.439-0.492c0.326-0.318,0.681-0.622,1.098-0.898l-0.013-0.013c0.031-0.032,0.063-0.065,0.094-0.097
		l0.046,0.028l0.046-0.028C18.307,14.273,18.339,14.305,18.37,14.338L18.37,14.338z M14.867,7.971
		c0.432-0.604,0.364-1.199,0.096-1.826C14.56,6.764,14.5,7.396,14.867,7.971L14.867,7.971z M15.319,7.63
		c0.681-0.338,0.876-0.815,0.956-1.492C15.617,6.476,15.287,6.949,15.319,7.63L15.319,7.63z M14.866,8.637
		c0.675-0.141,0.98-0.468,1.099-1.03C15.454,7.724,15.027,7.951,14.866,8.637L14.866,8.637z M14.576,9.061
		c0.298-0.698,0.135-1.187-0.246-1.754C14.05,7.991,14.108,8.564,14.576,9.061L14.576,9.061z M14.425,9.798
		c-0.602-0.3-0.997-0.911-0.824-1.547C14.228,8.539,14.517,9.084,14.425,9.798L14.425,9.798z M14.568,10.139
		c0.687-0.447,0.762-0.778,0.806-1.46C14.739,9.06,14.522,9.436,14.568,10.139L14.568,10.139z M14.677,10.975
		c-0.644-0.192-1.139-0.726-1.079-1.383C14.265,9.769,14.644,10.256,14.677,10.975L14.677,10.975z M15.009,10.093
		c-0.238,0.751-0.124,1.38,0.317,1.828C15.559,11.236,15.493,10.606,15.009,10.093L15.009,10.093z M14.973,11.763
		c-0.777-0.041-1.315-0.314-1.474-0.953C14.187,10.758,14.674,11.086,14.973,11.763L14.973,11.763z M15.576,12.856
		c-0.777-0.041-1.315-0.314-1.474-0.953C14.79,11.851,15.277,12.179,15.576,12.856L15.576,12.856z M15.533,11.708
		c-0.116,0.724,0.183,1.28,0.804,1.555C16.298,12.474,16.101,11.942,15.533,11.708L15.533,11.708z M17.81,13.979
		c-0.648-0.014-1.207-0.45-1.333-1.042C17.221,12.957,17.731,13.409,17.81,13.979L17.81,13.979z M16.155,13.445
		c-0.466-0.478-1.031-0.631-1.711-0.316C14.927,13.631,15.504,13.744,16.155,13.445L16.155,13.445z M17.022,13.85
		c-0.597-0.3-1.181-0.261-1.721,0.259C15.922,14.426,16.504,14.345,17.022,13.85L17.022,13.85z M18.093,14.207
		c-0.617-0.255-1.197-0.173-1.697,0.386C17.039,14.863,17.613,14.739,18.093,14.207L18.093,14.207z M21.593,7.971
		c-0.432-0.604-0.364-1.199-0.096-1.826C21.9,6.764,21.96,7.396,21.593,7.971L21.593,7.971z M21.141,7.63
		c-0.681-0.338-0.876-0.815-0.956-1.492C20.843,6.476,21.173,6.949,21.141,7.63L21.141,7.63z M21.594,8.637
		c-0.675-0.141-0.98-0.468-1.099-1.03C21.006,7.724,21.433,7.951,21.594,8.637L21.594,8.637z M21.884,9.061
		c-0.298-0.698-0.135-1.187,0.246-1.754C22.41,7.991,22.352,8.564,21.884,9.061L21.884,9.061z M22.035,9.798
		c0.602-0.3,0.997-0.911,0.824-1.547C22.232,8.539,21.943,9.084,22.035,9.798L22.035,9.798z M21.892,10.139
		c-0.687-0.447-0.762-0.778-0.806-1.46C21.721,9.06,21.938,9.436,21.892,10.139L21.892,10.139z M21.783,10.975
		c0.644-0.192,1.139-0.726,1.079-1.383C22.195,9.769,21.816,10.256,21.783,10.975L21.783,10.975z M21.451,10.093
		c0.238,0.751,0.124,1.38-0.317,1.828C20.901,11.236,20.967,10.606,21.451,10.093L21.451,10.093z M21.487,11.763
		c0.777-0.041,1.315-0.314,1.474-0.953C22.273,10.758,21.786,11.086,21.487,11.763L21.487,11.763z M20.884,12.856
		c0.777-0.041,1.315-0.314,1.474-0.953C21.67,11.851,21.183,12.179,20.884,12.856L20.884,12.856z M20.927,11.708
		c0.116,0.724-0.183,1.28-0.804,1.555C20.162,12.474,20.359,11.942,20.927,11.708L20.927,11.708z M18.65,13.979
		c0.648-0.014,1.207-0.45,1.333-1.042C19.239,12.957,18.729,13.409,18.65,13.979L18.65,13.979z M20.305,13.445
		c0.466-0.478,1.031-0.631,1.711-0.316C21.533,13.631,20.956,13.744,20.305,13.445L20.305,13.445z M19.438,13.85
		c0.597-0.3,1.181-0.261,1.721,0.259C20.538,14.426,19.956,14.345,19.438,13.85L19.438,13.85z M18.367,14.207
		c0.617-0.255,1.197-0.173,1.697,0.386C19.421,14.863,18.847,14.739,18.367,14.207L18.367,14.207z M38.407,7.971
		c0.432-0.604,0.364-1.199,0.096-1.826C38.1,6.764,38.041,7.396,38.407,7.971L38.407,7.971z M38.859,7.63
		c0.681-0.338,0.876-0.815,0.956-1.492C39.157,6.476,38.827,6.949,38.859,7.63L38.859,7.63z M38.406,8.637
		c0.675-0.141,0.98-0.468,1.099-1.03C38.994,7.724,38.567,7.951,38.406,8.637L38.406,8.637z M38.116,9.061
		c0.297-0.698,0.135-1.187-0.246-1.754C37.59,7.991,37.648,8.564,38.116,9.061L38.116,9.061z M37.965,9.798
		c-0.602-0.3-0.997-0.911-0.824-1.547C37.768,8.539,38.057,9.084,37.965,9.798L37.965,9.798z M38.108,10.139
		c0.687-0.447,0.762-0.778,0.806-1.46C38.279,9.06,38.062,9.436,38.108,10.139L38.108,10.139z M38.217,10.975
		c-0.644-0.192-1.139-0.726-1.079-1.383C37.806,9.769,38.184,10.256,38.217,10.975L38.217,10.975z M38.549,10.093
		c-0.238,0.751-0.124,1.38,0.317,1.828C39.099,11.236,39.033,10.606,38.549,10.093L38.549,10.093z M38.513,11.763
		c-0.777-0.041-1.315-0.314-1.474-0.953C37.727,10.758,38.214,11.086,38.513,11.763L38.513,11.763z M39.116,12.856
		c-0.777-0.041-1.315-0.314-1.474-0.953C38.331,11.851,38.817,12.179,39.116,12.856L39.116,12.856z M39.073,11.708
		c-0.116,0.724,0.183,1.28,0.804,1.555C39.838,12.474,39.641,11.942,39.073,11.708L39.073,11.708z M41.35,13.979
		c-0.648-0.014-1.207-0.45-1.333-1.042C40.761,12.957,41.271,13.409,41.35,13.979L41.35,13.979z M39.695,13.445
		c-0.466-0.478-1.031-0.631-1.711-0.316C38.467,13.631,39.044,13.744,39.695,13.445L39.695,13.445z M40.562,13.85
		c-0.597-0.3-1.181-0.261-1.721,0.259C39.462,14.426,40.044,14.345,40.562,13.85L40.562,13.85z M41.633,14.207
		c-0.617-0.255-1.198-0.173-1.697,0.386C40.579,14.863,41.153,14.739,41.633,14.207L41.633,14.207z M45.133,7.971
		c-0.432-0.604-0.364-1.199-0.096-1.826C45.44,6.764,45.5,7.396,45.133,7.971L45.133,7.971z M44.681,7.63
		c-0.681-0.338-0.876-0.815-0.956-1.492C44.383,6.476,44.713,6.949,44.681,7.63L44.681,7.63z M45.134,8.637
		c-0.675-0.141-0.98-0.468-1.099-1.03C44.546,7.724,44.974,7.951,45.134,8.637L45.134,8.637z M45.424,9.061
		c-0.298-0.698-0.135-1.187,0.246-1.754C45.95,7.991,45.892,8.564,45.424,9.061L45.424,9.061z M45.575,9.798
		c0.602-0.3,0.997-0.911,0.824-1.547C45.772,8.539,45.483,9.084,45.575,9.798L45.575,9.798z M45.432,10.139
		c-0.687-0.447-0.762-0.778-0.806-1.46C45.261,9.06,45.478,9.436,45.432,10.139L45.432,10.139z M45.323,10.975
		c0.644-0.192,1.139-0.726,1.079-1.383C45.735,9.769,45.356,10.256,45.323,10.975L45.323,10.975z M44.991,10.093
		c0.238,0.751,0.125,1.38-0.317,1.828C44.441,11.236,44.507,10.606,44.991,10.093L44.991,10.093z M45.027,11.763
		c0.777-0.041,1.315-0.314,1.474-0.953C45.813,10.758,45.327,11.086,45.027,11.763L45.027,11.763z M44.424,12.856
		c0.777-0.041,1.315-0.314,1.474-0.953C45.21,11.851,44.723,12.179,44.424,12.856L44.424,12.856z M44.467,11.708
		c0.116,0.724-0.183,1.28-0.804,1.555C43.702,12.474,43.899,11.942,44.467,11.708L44.467,11.708z M42.19,13.979
		c0.648-0.014,1.207-0.45,1.333-1.042C42.779,12.957,42.269,13.409,42.19,13.979L42.19,13.979z M43.845,13.445
		c0.466-0.478,1.031-0.631,1.711-0.316C45.073,13.631,44.496,13.744,43.845,13.445L43.845,13.445z M42.978,13.85
		c0.597-0.3,1.181-0.261,1.721,0.259C44.078,14.426,43.496,14.345,42.978,13.85L42.978,13.85z M41.907,14.207
		c0.617-0.255,1.198-0.173,1.697,0.386C42.961,14.863,42.387,14.739,41.907,14.207L41.907,14.207z"/>
	<path class="st106" d="M29.824,5.095c0.093-0.164,0.274-0.199,0.455-0.203c0.243,0.012,0.408,0.135,0.489,0.347
		c0.051,0.203,0.01,0.422,0.093,0.618c1.492,3.114,2.979,6.25,4.472,9.364c0.064,0.133,0.152,0.231,0.278,0.308
		c0.397,0.244,0.852,0.481,0.979,0.944c0.063,0.386-0.283,0.65-0.58,0.826c-0.002,3.837-0.065,7.674-0.033,11.511
		c0.135,0.104,0.318,0.26,0.316,0.578l-0.036,2.735c-0.148,0.424-0.686,0.341-1.044,0.346c-0.005-0.231,0.013-0.5-0.026-0.727
		c-0.141-0.133-0.335-0.184-0.513-0.25c-3.257-1.099-6.334-2.233-10.041-3.535c-0.196-0.058-0.363-0.225-0.355-0.438
		c-0.013-0.614-0.016-1.229,0-1.843c-0.004-0.223,0.25-0.304,0.397-0.422c-0.003-2.609-0.001-5.218-0.018-7.827
		c-0.224-0.113-0.485-0.238-0.55-0.502c-0.151-0.445,0.157-0.883,0.499-1.147c0.183-0.165,0.449-0.256,0.558-0.489
		c1.389-2.905,2.775-5.812,4.168-8.716c0.125-0.267,0.272-0.525,0.368-0.804C29.729,5.544,29.682,5.292,29.824,5.095L29.824,5.095z
		 M26.341,15.008c1.306-2.741,2.62-5.479,3.909-8.228c0.188,0.346,0.349,0.707,0.524,1.061c-0.304,0.054-0.766-0.033-0.79,0.252
		c-0.052,0.109,0.596,0.026,0.938,0.1c0.068,0.097,0.086,0.24,0.145,0.342c-0.223,0.083-0.635,0.104-0.61,0.259
		c-0.055,0.132,0.54,0.073,0.813,0.091c0.094,0.209,0.157,0.444,0.256,0.649c-0.453,0.046-0.763,0.036-1.214,0.116
		c-0.142,0.041-0.018,0.114,0.222,0.147c0.446,0.067,0.799,0.057,1.227,0.211c0.132,0.116,0.15,0.364,0.234,0.514
		c-0.438,0.043-1.262-0.074-1.211,0.08c0.393,0.363,0.957,0.041,1.425,0.31c0.138,0.197,0.201,0.473,0.305,0.687
		c-0.406,0.006-1.041-0.128-1.521,0.1c-0.287,0.284,1.354,0.104,1.846,0.524c0.146,0.217,0.24,0.463,0.353,0.697
		c-0.852-0.077-1.665-0.109-2.521-0.056c-0.173,0.021-0.205,0.126-0.041,0.153c0.941,0.13,1.907,0.138,2.814,0.447
		c0.136,0.279,0.271,0.56,0.407,0.84c-0.743-0.093-1.5-0.264-2.251-0.145c-0.111,0.035-0.067,0.12,0.057,0.146
		c0.792,0.153,1.608,0.195,2.369,0.477c0.107,0.063,0.166,0.126,0.191,0.19c-1.324-0.184-2.655-0.356-3.994-0.376
		C28.921,14.615,27.619,14.749,26.341,15.008L26.341,15.008z M34.213,28.933l0.98,0.267l0.015,1.998l-0.979-0.365L34.213,28.933
		L34.213,28.933z M32.474,28.442l1.128,0.336l-0.003,1.831l-1.126-0.362L32.474,28.442L32.474,28.442z M30.69,27.858l1.135,0.358
		l0.005,1.813l-1.135-0.454L30.69,27.858L30.69,27.858z M29.018,27.246l1.052,0.348l0.011,1.783l-1.066-0.383L29.018,27.246
		L29.018,27.246z M27.297,26.65l1.118,0.418l0.012,1.789l-1.09-0.379L27.297,26.65L27.297,26.65z M25.637,26.033l1.02,0.399
		l0.028,1.839l-1.033-0.359L25.637,26.033L25.637,26.033z M31.293,17.637c1.29,0.111,2.591,0.22,3.824,0.629
		c-0.004,0.15-0.007,0.302-0.01,0.453c-0.783-0.177-1.598-0.378-2.402-0.261c-0.158,0.032-0.22,0.139-0.129,0.155
		c0.871,0.081,1.792,0.121,2.547,0.61c0.002,0.215,0,0.431-0.004,0.646c-0.604-0.154-1.221-0.249-1.838-0.344
		c-0.729-0.144-1.313-0.156-2.093-0.169L31.293,17.637L31.293,17.637z M29.489,17.637c0.48-0.049,0.963-0.034,1.444-0.028
		c-0.057,0.76-0.074,1.521-0.13,2.281c-0.396-0.012-0.794-0.015-1.19,0.001C29.583,19.139,29.536,18.388,29.489,17.637
		L29.489,17.637z M26.2,16.959c2.231-0.41,4.523-0.41,6.778-0.211c0.719,0.081,1.459,0.145,2.119,0.46
		c0.002,0.162,0.005,0.398,0.009,0.56c-1.147-0.157-2.619-0.404-3.778-0.425c-0.114-0.148-0.205-0.174-0.508-0.193
		c-0.578,0.001-1.16-0.025-1.737,0.025c-0.098,0.008-0.171,0.091-0.168,0.189c0.021,0.688,0.078,1.411,0.11,2.099
		c-0.654,0.069-1.304,0.117-1.955,0.207c-0.211,0.035-0.452,0.044-0.609,0.198c-0.011,0.011-0.014,0.026-0.008,0.04
		c0.006,0.014,0.019,0.023,0.035,0.022c0.853-0.023,1.703-0.084,2.556-0.117c0.008,0.102,0.018,0.19,0.029,0.282
		c0.011,0.093,0.089,0.162,0.183,0.162c0.489,0,0.976-0.018,1.465,0c0.133-0.012,0.293,0.039,0.403-0.06
		c0.032-0.134,0.056-0.27,0.075-0.406c0.571-0.003,1.139,0.07,1.703,0.147c0.763,0.125,1.537,0.257,2.241,0.587
		c-0.001,0.166-0.003,0.333-0.005,0.5c-0.807-0.156-1.61-0.318-2.44-0.275c-0.156,0.023-0.243,0.038-0.312,0.115
		c-0.009,0.01-0.012,0.024-0.007,0.037c0.005,0.013,0.016,0.022,0.03,0.024c0.893,0.112,1.881,0.194,2.675,0.648l0.038,0.54
		c-1.784-0.365-3.566-0.585-5.392-0.463c-0.753,0.059-1.438,0.005-2.164,0.234c-0.088,0.036-0.011,0.157,0.152,0.173
		c1.491-0.069,2.892-0.069,4.38,0.053c1.043,0.136,2.101,0.254,3.077,0.659c0.002,0.209,0.004,0.418,0.004,0.627
		c-1.412-0.318-2.856-0.406-4.304-0.352c-0.163,0.023-0.139,0.153-0.02,0.15c1.459,0.09,2.928,0.187,4.292,0.749
		c0,0.212,0.004,0.425,0.008,0.638c-0.719-0.097-1.338-0.155-2.062-0.089c-0.193,0.051-0.147,0.143-0.006,0.186
		c0.742,0.038,1.419,0.085,2.111,0.369c-0.002,0.28-0.004,0.561-0.004,0.842c-0.995-0.342-2.062-0.273-3.1-0.228
		c-0.189,0.038-0.238,0.116-0.265,0.2c-0.004,0.011-0.002,0.023,0.005,0.033c0.007,0.01,0.017,0.015,0.029,0.015
		c1.128,0.014,2.275,0.042,3.344,0.43c-0.001,0.258-0.002,0.517-0.004,0.775c-0.601-0.139-1.216-0.174-1.835-0.178
		c-0.315,0.001-0.48,0.219-0.261,0.268c0.405,0.028,0.676-0.013,1.079,0.038c0.349,0.036,0.682,0.148,1.019,0.238
		c-0.002,0.395,0.018,0.923,0.008,1.319l-8.56-2.843c-0.352-0.144-0.891-0.361-1.004-0.805c-0.107-1.083-0.078-1.979-0.084-3.067
		c-0.015-1.52-0.02-3.041-0.033-4.561C25.488,17.171,25.921,17.028,26.2,16.959L26.2,16.959z M26.179,15.785
		c2.73-0.526,5.595-0.632,8.298,0.097c0.423,0.128,0.802,0.168,1.016,0.594c0.022,0.099,0.004,0.298-0.086,0.314
		c-0.315-0.004-0.586-0.195-0.884-0.27c-1.582-0.45-3.246-0.553-4.885-0.522c-1.405,0.04-2.818,0.202-4.161,0.619
		c-0.131,0.032-0.265,0.079-0.401,0.057c-0.158-0.061-0.267-0.251-0.173-0.369C25.256,15.946,25.705,15.883,26.179,15.785
		L26.179,15.785z"/>
	<path class="st106" d="M14.76,33.288c0.184,0.479,0.159,0.989,0.172,1.483l0.009,3.591c-0.004,0.511-0.05,0.995-0.132,1.47
		c-0.003,0.016,0.007,0.022,0.016,0.021c1.377-0.007,2.735-0.038,4.109,0.035c0.015,0.001,0.017-0.01,0.019-0.02
		c0.071-0.328,0.194-0.707,0.286-1.042c0.034-0.12-0.037-0.288-0.206-0.158c-0.346,0.264-0.77,0.472-1.201,0.476L17.3,39.143
		c-0.772-0.001-0.915-0.277-0.912-1.081l0.001-1.396c0-0.018,0.019-0.021,0.033-0.021c0.669,0.003,1.311,0.009,1.973,0.087
		c0.012,0.001,0.014-0.006,0.016-0.012c0.075-0.278,0.148-0.533,0.223-0.801c0.02-0.053,0.003-0.092-0.067-0.077
		c-0.704,0.093-1.446,0.066-2.167,0.077c-0.008,0-0.014-0.011-0.014-0.011c0.006-0.654-0.005-1.298,0.033-1.948
		c0.002-0.021,0.007-0.03,0.031-0.029c0.853-0.035,1.677-0.045,2.002,0.489c0.036,0.067,0.114,0.043,0.128,0.003
		c0.11-0.387,0.215-0.755,0.325-1.141c0.003-0.01-0.009-0.026-0.025-0.025c-1.356,0.034-2.724,0.03-4.086,0.004
		C14.765,33.259,14.754,33.269,14.76,33.288L14.76,33.288z M40.418,35.19c-0.009-0.026-0.002-0.042,0.027-0.042
		c0.455,0.006,0.916,0.003,1.359-0.034c0.026-0.003,0.052,0.013,0.051,0.042c-0.012,0.277-0.026,0.608-0.034,0.795
		c0.469-0.509,1.124-0.906,1.722-0.902c0.923,0.006,1.505,0.447,1.496,1.67c0.002,0.55,0.004,1.1,0.006,1.649
		c-0.001,0.519,0.064,1.092,0.194,1.45c0.011,0.031-0.006,0.035-0.03,0.034c-0.487-0.03-0.993-0.027-1.493,0
		c-0.037,0.003-0.05-0.017-0.045-0.043c0.076-0.478,0.112-0.932,0.112-1.402l0-1.486c0.008-0.376-0.121-0.95-0.854-0.95
		c-0.48,0-1.049,0.403-1.063,1.096v1.256c0.005,0.521,0.052,1.077,0.194,1.49c0.011,0.033-0.012,0.046-0.042,0.042
		c-0.5-0.024-0.985-0.02-1.473-0.004c-0.032,0.002-0.044-0.008-0.038-0.034c0.091-0.565,0.105-1.164,0.112-1.74l0.004-1.238
		C40.624,36.302,40.554,35.605,40.418,35.19L40.418,35.19z M37.754,35.054c-1.656,0.047-2.553,1.036-2.563,2.543
		c-0.01,1.519,0.838,2.451,2.449,2.412c1.537-0.038,2.466-1.011,2.509-2.602C40.183,36.152,39.391,35.007,37.754,35.054
		L37.754,35.054z M37.598,35.608c0.988-0.033,1.166,1.088,1.183,1.894c0.018,0.871-0.106,1.957-1.123,1.965
		c-0.915,0.007-1.109-1.102-1.111-1.977C36.546,36.886,36.602,35.641,37.598,35.608L37.598,35.608z M32.36,34.345
		c-0.013,0.006-0.009,0.014-0.006,0.028c0.027,0.274,0.037,0.55,0.04,0.823c0,0.012-0.003,0.032-0.022,0.031
		c-0.18-0.006-0.353,0.002-0.534-0.025c-0.016-0.001-0.032,0.007-0.036,0.021l-0.172,0.612c-0.018,0.083,0.012,0.109,0.093,0.092
		c0.2-0.029,0.411-0.047,0.594-0.048c0.036-0.005,0.045,0.019,0.045,0.048l0.006,2.593c-0.006,1.104,0.57,1.502,1.326,1.489
		c0.375-0.007,0.761-0.084,1.126-0.191c0.02-0.006,0.031-0.013,0.04-0.033l0.182-0.627c0.036-0.106-0.056-0.162-0.128-0.118
		c-0.141,0.081-0.359,0.177-0.584,0.177c-0.573,0-0.731-0.403-0.733-1.064v-1.626c0.002-0.197,0.02-0.554,0.026-0.619
		c0.001-0.015,0.013-0.024,0.035-0.024c0.408,0.006,0.826-0.008,1.232,0.043c0.013,0.001,0.023-0.008,0.026-0.019l0.176-0.646
		c0.025-0.071,0.011-0.136-0.1-0.107c-0.148,0.035-0.309,0.065-0.463,0.064l-0.884,0.006c-0.013-0.001-0.017-0.014-0.017-0.026
		c-0.001-0.413,0.037-0.856,0.081-1.276c0.012-0.133-0.054-0.163-0.173-0.095C33.202,34.026,32.769,34.219,32.36,34.345
		L32.36,34.345z M28.101,35.202c-0.024,0-0.03,0.014-0.025,0.031c0.112,0.318,0.212,1.058,0.202,1.587l-0.006,1.584
		c-0.037,0.471-0.019,1.008-0.108,1.427c-0.003,0.016,0.002,0.026,0.022,0.024c0.491-0.031,0.991-0.025,1.498-0.006
		c0.012,0,0.032,0,0.023-0.024c-0.151-0.404-0.195-0.915-0.203-1.426l0.006-0.947c0-0.764,0.4-1.248,0.842-1.239
		c0.217,0.005,0.311,0.132,0.445,0.29c0.045,0.053,0.127,0.049,0.146-0.007l0.367-1.31c0.012-0.028-0.002-0.037-0.035-0.057
		c-0.091-0.053-0.251-0.074-0.409-0.074c-0.681,0.002-1.069,0.634-1.487,1.203c0.006-0.356,0.013-0.712,0.019-1.067
		c-0.014-0.009-0.028-0.018-0.042-0.027C28.937,35.184,28.522,35.197,28.101,35.202L28.101,35.202z M24.837,37.431
		c-0.013,0-0.021,0.003-0.022,0.014c0.017,0.981,0.57,1.761,1.627,1.757c0.361-0.002,0.675-0.09,0.995-0.319
		c0.071-0.05,0.175-0.017,0.143,0.118l-0.199,0.715c-0.003,0.012-0.017,0.021-0.03,0.025c-0.471,0.147-1.014,0.272-1.472,0.275
		c-1.328,0.011-2.441-0.924-2.386-2.501c0.055-1.594,1.016-2.447,2.312-2.447c0.928,0,1.879,0.48,1.888,1.828
		c0.001,0.165,0.003,0.402-0.093,0.487c-0.018,0.018-0.042,0.02-0.071,0.019L24.837,37.431L24.837,37.431z M24.818,36.841
		c0.025-0.587,0.193-1.206,0.896-1.212c0.449,0.011,0.749,0.314,0.75,0.718C26.465,37.026,25.765,36.763,24.818,36.841
		L24.818,36.841z M18.908,35.163c-0.01,0-0.014,0.011-0.007,0.017c0.302,0.345,0.481,0.745,0.625,1.129
		c0.307,0.915,0.613,1.83,0.92,2.745c0.082,0.258,0.156,0.527,0.185,0.773c0.001,0.019,0.013,0.03,0.031,0.028
		c0.353-0.025,0.734-0.026,1.096-0.021c0.012,0.001,0.028-0.004,0.03-0.017c0.056-0.265,0.119-0.508,0.217-0.768l1.136-2.636
		c0.176-0.404,0.414-0.831,0.662-1.172c0.07-0.079,0.078-0.155-0.09-0.134c-0.388,0.03-0.773,0.051-1.155,0.037
		c-0.031-0.002-0.042,0.01-0.039,0.028c0.028,0.507-0.105,0.99-0.284,1.45l-0.735,1.935l-0.717-2.441
		c-0.078-0.321-0.126-0.638-0.173-0.976c-0.003-0.015-0.002-0.037-0.033-0.034C20.033,35.157,19.467,35.168,18.908,35.163
		L18.908,35.163z"/>
	<path class="st106" d="M25.547,42.868c-0.018,0.001-0.036,0.007-0.041,0.03c-0.017,0.095-0.054,0.182-0.099,0.272
		c-0.016,0.028,0.019,0.05,0.044,0.042c0.146-0.055,0.532-0.157,0.634-0.152c0.128,0.007,0.205,0.048,0.203,0.428l-0.006,1.95
		c-0.015,0.266-0.015,0.543-0.061,0.769c-0.001,0.009,0.003,0.015,0.016,0.014c0.19-0.013,0.368-0.018,0.558-0.002
		c0.008,0.002,0.016-0.003,0.012-0.014c-0.055-0.208-0.089-0.457-0.097-0.767l0.001-1.941c0.024-0.276,0.021-0.553,0.064-0.827
		c0.006-0.036-0.03-0.055-0.07-0.046C26.437,42.709,25.716,42.871,25.547,42.868L25.547,42.868z M32.493,43.43
		c0.003-0.462,0.405-0.889,1.039-0.899c0.557-0.009,0.955,0.4,0.947,0.842c-0.008,0.465-0.435,0.754-0.685,0.866
		c0.467,0.243,0.797,0.548,0.802,1.029c0.005,0.523-0.442,1.054-1.221,1.037c-0.583-0.012-1.068-0.339-1.065-0.94
		c0.002-0.448,0.329-0.773,0.819-1.027C32.779,44.129,32.49,43.916,32.493,43.43L32.493,43.43z M33.396,44.484
		c0.372,0.19,0.766,0.43,0.761,0.874c-0.004,0.379-0.34,0.685-0.746,0.68c-0.297-0.004-0.705-0.207-0.696-0.702
		C32.723,44.84,33.103,44.639,33.396,44.484L33.396,44.484z M33.548,44.099c0.358-0.187,0.559-0.43,0.559-0.693
		c0-0.333-0.204-0.63-0.61-0.625c-0.297,0.004-0.589,0.24-0.574,0.581C32.936,43.702,33.252,43.911,33.548,44.099L33.548,44.099z
		 M27.494,43.43c0.003-0.462,0.405-0.889,1.039-0.899c0.557-0.009,0.955,0.4,0.947,0.842c-0.008,0.465-0.435,0.754-0.685,0.866
		c0.467,0.243,0.797,0.548,0.802,1.029c0.005,0.523-0.442,1.054-1.221,1.037c-0.583-0.012-1.068-0.339-1.065-0.94
		c0.002-0.448,0.329-0.773,0.819-1.027C27.78,44.129,27.49,43.916,27.494,43.43L27.494,43.43z M28.397,44.484
		c0.372,0.19,0.766,0.43,0.761,0.874c-0.004,0.379-0.34,0.685-0.746,0.68c-0.297-0.004-0.705-0.207-0.696-0.702
		C27.724,44.84,28.104,44.639,28.397,44.484L28.397,44.484z M28.548,44.099c0.358-0.187,0.559-0.43,0.559-0.693
		c0-0.333-0.204-0.63-0.61-0.625c-0.297,0.004-0.589,0.24-0.574,0.581C27.937,43.702,28.253,43.911,28.548,44.099L28.548,44.099z
		 M30.079,42.705c-0.013,0.003-0.016,0.016-0.017,0.028c-0.026,0.176-0.065,0.349-0.122,0.519c-0.004,0.015,0.002,0.016,0.008,0.02
		l0.029,0.014c0.012,0.005,0.03-0.006,0.043-0.017c0.169-0.11,0.347-0.136,0.513-0.14l1.273,0.003l-1.838,3.089
		c-0.011,0.017-0.018,0.034-0.013,0.047l0.018,0.033c0.007,0.014,0.022,0.019,0.04,0.017c0.2-0.026,0.417-0.015,0.625-0.015
		c0.022,0.004,0.029-0.006,0.025-0.031c0.053-0.843,1.193-2.747,1.603-3.214c0.012-0.013,0.011-0.031,0.006-0.047
		c-0.026-0.092-0.04-0.184-0.051-0.278c-0.002-0.02-0.011-0.038-0.042-0.036c-0.691,0.023-1.378,0.019-2.069,0.01
		C30.101,42.707,30.089,42.703,30.079,42.705L30.079,42.705z"/>
	<path class="st106" d="M5.423,43.226l2.39-1.489l-0.278-0.443l-1.55,0.965l0.985-1.867l-0.392-0.626l-2.39,1.489l0.278,0.443
		l1.836-1.144l-1.186,2.181L5.423,43.226L5.423,43.226z M6.979,45.371l0.33-0.239l-0.259-0.355l1.619-1.173l0.259,0.355l0.331-0.239
		L8.4,42.541L8.069,42.78l0.259,0.355l-1.619,1.173L6.45,43.953l-0.331,0.24L6.979,45.371L6.979,45.371z M8.946,47.62l0.339-0.304
		l-0.832-0.921l1.756-1.576l-0.389-0.431l-2.095,1.88L8.946,47.62L8.946,47.62z M13.55,48.859l0.374-0.444
		c-0.064-0.125-0.145-0.243-0.231-0.353c-0.105-0.136-0.225-0.259-0.357-0.37c-0.228-0.19-0.494-0.331-0.795-0.344
		c-0.258-0.011-0.475,0.077-0.642,0.275c-0.11,0.13-0.19,0.282-0.202,0.454c-0.013,0.185,0.065,0.373,0.157,0.53
		c0.054,0.092,0.115,0.18,0.182,0.263c0.069,0.086,0.135,0.174,0.2,0.264c0.052,0.072,0.098,0.158,0.109,0.247
		c0.01,0.081-0.01,0.155-0.062,0.217c-0.046,0.054-0.104,0.099-0.177,0.106c-0.06,0.006-0.12-0.001-0.178-0.018
		c-0.06-0.017-0.117-0.05-0.169-0.084c-0.048-0.031-0.096-0.065-0.139-0.101c-0.14-0.117-0.251-0.261-0.34-0.419
		c-0.092-0.164-0.155-0.34-0.186-0.525l-0.393,0.467c0.066,0.133,0.144,0.261,0.231,0.382c0.11,0.153,0.251,0.29,0.395,0.411
		c0.237,0.199,0.522,0.359,0.839,0.365c0.271,0.006,0.492-0.095,0.666-0.301c0.105-0.125,0.185-0.272,0.191-0.437
		c0.007-0.173-0.061-0.344-0.148-0.491c-0.051-0.086-0.105-0.169-0.165-0.249c-0.058-0.077-0.117-0.154-0.176-0.231
		c-0.062-0.081-0.149-0.203-0.172-0.304c-0.02-0.087,0.007-0.168,0.064-0.235c0.042-0.05,0.096-0.08,0.16-0.091
		c0.059-0.01,0.118-0.006,0.175,0.011c0.06,0.018,0.117,0.042,0.17,0.075c0.051,0.032,0.101,0.067,0.147,0.105
		c0.133,0.111,0.239,0.245,0.32,0.397C13.468,48.564,13.523,48.709,13.55,48.859L13.55,48.859z M15.177,52.394l0.684-2.887
		l-0.609-0.379l-2.303,1.878l0.492,0.306l0.472-0.402l0.913,0.569l-0.156,0.599L15.177,52.394L15.177,52.394z M14.94,51.048
		l-0.688-0.428l1.027-0.876L14.94,51.048L14.94,51.048z M18.894,51.634l0.2-0.408l-2.03-0.987l-0.2,0.408l0.753,0.366l-1.036,2.117
		l0.523,0.254l1.036-2.117L18.894,51.634L18.894,51.634z M20.069,54.572l0.146-0.38l-0.411-0.157l0.717-1.863l0.411,0.157
		l0.146-0.38l-1.365-0.522l-0.146,0.38l0.411,0.157l-0.717,1.863l-0.411-0.157l-0.146,0.38L20.069,54.572L20.069,54.572z
		 M23.629,53.399l0.15-0.559c-0.111-0.086-0.234-0.159-0.359-0.223c-0.153-0.079-0.314-0.14-0.48-0.184
		c-0.286-0.076-0.589-0.092-0.867,0.024c-0.24,0.1-0.398,0.268-0.465,0.519c-0.044,0.164-0.053,0.335,0.009,0.496
		c0.067,0.174,0.217,0.311,0.367,0.414c0.088,0.06,0.181,0.114,0.276,0.162c0.099,0.049,0.196,0.101,0.293,0.155
		c0.078,0.044,0.156,0.102,0.204,0.178c0.043,0.069,0.057,0.144,0.036,0.223c-0.018,0.069-0.053,0.134-0.116,0.171
		c-0.052,0.031-0.109,0.05-0.169,0.059c-0.061,0.009-0.128,0.004-0.189-0.005c-0.056-0.008-0.114-0.018-0.169-0.033
		c-0.176-0.047-0.339-0.131-0.486-0.237c-0.153-0.11-0.284-0.243-0.392-0.397l-0.158,0.589c0.117,0.093,0.241,0.175,0.371,0.249
		c0.165,0.093,0.35,0.158,0.532,0.206c0.299,0.08,0.626,0.105,0.915-0.022c0.248-0.109,0.406-0.293,0.476-0.554
		c0.042-0.157,0.052-0.325-0.012-0.477c-0.067-0.16-0.201-0.286-0.343-0.382c-0.082-0.056-0.167-0.109-0.255-0.156
		c-0.085-0.045-0.171-0.09-0.257-0.135c-0.091-0.047-0.221-0.121-0.285-0.203c-0.055-0.071-0.065-0.155-0.042-0.24
		c0.017-0.063,0.053-0.113,0.106-0.15c0.049-0.034,0.104-0.055,0.163-0.064c0.062-0.009,0.124-0.011,0.186-0.004
		c0.06,0.007,0.119,0.018,0.178,0.034c0.167,0.045,0.32,0.121,0.459,0.225C23.429,53.166,23.54,53.274,23.629,53.399L23.629,53.399z
		 M27.909,56.214l0.392-2.782l-0.519-0.073l-0.254,1.804l-0.802-1.952l-0.733-0.103l-0.392,2.782l0.519,0.073l0.301-2.137
		l0.913,2.307L27.909,56.214L27.909,56.214z M30.545,56.307l0.007-0.407l-0.44-0.008l0.035-1.995l0.44,0.008l0.007-0.407
		l-1.462-0.025l-0.007,0.407l0.44,0.008l-0.035,1.995l-0.44-0.008l-0.007,0.407L30.545,56.307L30.545,56.307z M33.435,53.899
		l-0.061-0.576c-0.134-0.041-0.276-0.065-0.415-0.08c-0.171-0.019-0.344-0.019-0.515-0.001c-0.295,0.031-0.582,0.124-0.801,0.331
		c-0.188,0.178-0.275,0.393-0.248,0.651c0.018,0.169,0.071,0.332,0.187,0.46c0.125,0.138,0.314,0.213,0.491,0.255
		c0.104,0.025,0.21,0.042,0.316,0.052c0.11,0.011,0.22,0.024,0.329,0.04c0.088,0.013,0.182,0.039,0.254,0.094
		c0.065,0.049,0.105,0.114,0.114,0.195c0.007,0.07-0.001,0.144-0.047,0.201c-0.038,0.047-0.084,0.085-0.137,0.115
		c-0.054,0.031-0.118,0.049-0.178,0.063c-0.056,0.013-0.113,0.024-0.17,0.03c-0.181,0.019-0.363-0.001-0.539-0.047
		c-0.183-0.048-0.353-0.125-0.508-0.231l0.064,0.606c0.142,0.045,0.288,0.078,0.436,0.099c0.187,0.028,0.384,0.022,0.571,0.002
		c0.308-0.032,0.621-0.125,0.846-0.348c0.192-0.19,0.274-0.418,0.245-0.687c-0.017-0.162-0.068-0.321-0.183-0.441
		c-0.12-0.125-0.291-0.195-0.457-0.235c-0.097-0.023-0.195-0.042-0.294-0.054c-0.096-0.012-0.192-0.023-0.289-0.034
		c-0.102-0.012-0.25-0.034-0.339-0.088c-0.077-0.047-0.116-0.121-0.126-0.209c-0.007-0.064,0.009-0.125,0.045-0.178
		c0.034-0.049,0.077-0.089,0.129-0.118c0.054-0.03,0.112-0.055,0.172-0.07c0.059-0.015,0.118-0.026,0.178-0.032
		c0.172-0.018,0.343-0.001,0.509,0.046C33.165,53.753,33.307,53.814,33.435,53.899L33.435,53.899z M36.152,55.585l-0.078-0.4
		l-0.432,0.084l-0.382-1.958l0.432-0.084l-0.078-0.4l-1.435,0.278l0.078,0.4l0.432-0.084l0.382,1.959l-0.432,0.084l0.078,0.4
		L36.152,55.585L36.152,55.585z M40.529,52.846c-0.128-0.37-0.337-0.708-0.688-0.901c-0.334-0.184-0.693-0.175-1.048-0.054
		c-0.356,0.122-0.645,0.334-0.794,0.686c-0.156,0.368-0.11,0.763,0.017,1.132c0.127,0.368,0.336,0.705,0.684,0.899
		c0.334,0.186,0.694,0.177,1.049,0.055c0.357-0.123,0.646-0.335,0.794-0.688C40.699,53.608,40.656,53.215,40.529,52.846
		L40.529,52.846z M40.007,53.843c-0.032,0.097-0.083,0.184-0.157,0.255c-0.07,0.067-0.151,0.117-0.242,0.148
		c-0.091,0.031-0.185,0.043-0.282,0.033c-0.102-0.01-0.195-0.046-0.28-0.102c-0.099-0.064-0.181-0.154-0.25-0.25
		c-0.09-0.124-0.154-0.272-0.204-0.417c-0.051-0.147-0.089-0.302-0.096-0.457c-0.005-0.118,0.002-0.244,0.043-0.356
		c0.035-0.094,0.087-0.181,0.161-0.25c0.069-0.064,0.149-0.11,0.238-0.14c0.089-0.031,0.182-0.042,0.276-0.034
		c0.102,0.009,0.196,0.046,0.281,0.101c0.099,0.064,0.182,0.154,0.25,0.248c0.091,0.125,0.156,0.274,0.207,0.419
		c0.048,0.139,0.086,0.287,0.096,0.434C40.057,53.6,40.046,53.724,40.007,53.843L40.007,53.843z M40.857,51.198l1.191,2.546
		l0.527-0.245l-0.403-0.862l0.44-0.205c0.142-0.066,0.286-0.154,0.389-0.273c0.094-0.108,0.16-0.232,0.203-0.368
		c0.035-0.11,0.04-0.225,0.027-0.339c-0.014-0.124-0.048-0.243-0.101-0.356c-0.059-0.126-0.138-0.248-0.247-0.338
		c-0.095-0.079-0.203-0.129-0.325-0.152c-0.107-0.02-0.216-0.018-0.324,0c-0.136,0.023-0.273,0.077-0.398,0.134L40.857,51.198
		L40.857,51.198z M42.591,51.367c0.033,0.07,0.06,0.146,0.068,0.223c0.008,0.07-0.001,0.138-0.028,0.203
		c-0.031,0.078-0.085,0.14-0.152,0.19c-0.08,0.059-0.174,0.108-0.264,0.15l-0.23,0.107l-0.418-0.893l0.158-0.073
		c0.083-0.039,0.167-0.077,0.252-0.112c0.074-0.03,0.153-0.044,0.233-0.046c0.076-0.002,0.147,0.022,0.212,0.06
		C42.499,51.221,42.554,51.288,42.591,51.367L42.591,51.367z M45.373,49.291l-0.241-0.385l-1.916,1.193l0.241,0.385l0.711-0.443
		l1.252,1.998l0.493-0.307l-1.252-1.998L45.373,49.291L45.373,49.291z M48.519,49.879l-0.252-0.321l-0.347,0.27l-1.232-1.572
		l0.347-0.27l-0.252-0.321l-1.152,0.897l0.252,0.321l0.347-0.27l1.232,1.572l-0.347,0.27l0.252,0.321L48.519,49.879L48.519,49.879z
		 M51.361,47.276l-1.958-2.021l-0.512,0.493l0.624,1.561l-1.545-0.674l-0.512,0.493l1.958,2.021l0.39-0.375l-1.528-1.577
		l1.475,0.674l0.289-0.278l-0.625-1.493l1.528,1.577L51.361,47.276L51.361,47.276z M51.391,42.816l-0.361,0.46l1.396,1.087
		c0.13,0.101,0.273,0.242,0.309,0.409c0.034,0.159-0.034,0.308-0.131,0.431c-0.099,0.126-0.229,0.228-0.396,0.229
		c-0.169,0-0.335-0.098-0.464-0.199l-1.396-1.087l-0.361,0.46l1.431,1.114c0.23,0.179,0.501,0.304,0.798,0.261
		c0.309-0.045,0.556-0.265,0.741-0.502c0.186-0.237,0.341-0.529,0.31-0.839c-0.03-0.299-0.218-0.531-0.448-0.71L51.391,42.816
		L51.391,42.816z M55.811,41.27l-2.39-1.489l-0.377,0.602l0.984,1.364l-1.662-0.282l-0.377,0.601l2.39,1.489l0.287-0.458
		l-1.865-1.162l1.595,0.299l0.213-0.34l-0.968-1.298l1.865,1.162L55.811,41.27L55.811,41.27z"/>
</g>
<g class="st107">
	<line class="st109" x1="-982" y1="-14.639" x2="203.488" y2="577.269"/>
</g>
</svg>
