<svg xmlns="http://www.w3.org/2000/svg" viewBox="0 0 30 30"><defs><style>.a{fill:#ba8b2d;}.b{fill:#263c83;}.c{fill:#2b2f36;}.d{fill:#9e8644;}.e{fill:#a29165;}.f{fill:#a48c4c;}.g{fill:#fffffa;}.h{fill:#a28c51;}.i{fill:#a48c49;}.j{fill:#fffffd;}.k{fill:#25397a;}.l{fill:#374041;}.m{fill:#424740;}.n{fill:#e1c177;}.o{fill:#a48c4d;}.p{fill:#323c41;}.q{fill:#2b3b48;}.r{fill:#b98a2d;}.s{fill:#2a3843;}.t{fill:#1d2f44;}.u{fill:#b29349;}.v{fill:#524e35;}.w{fill:#596eb2;}.x{fill:#586eb2;}.y{fill:#d3d3d6;}.z{fill:#596db3;}.aa{fill:#d2d3d9;}.ab{fill:#ced4e0;}.ac{fill:#b5c7e7;}.ad{fill:#d3d3d7;}.ae{fill:#5a6db3;}.af{fill:#e81e25;}.ag{fill:#536eb5;}.ah{fill:#5a6eaf;}.ai{fill:#d7d3d5;}.aj{fill:#fcf7fa;}.ak{fill:#fcf8fb;}.al{fill:#c6363b;}.am{fill:#c63136;}.an{fill:#576db4;}.ao{fill:#d2d3d8;}.ap{fill:#d2d3d7;}.aq{fill:#ed1c24;}.ar{fill:#e21f26;}.as{fill:#db1f26;}.at{fill:#d3d3d8;}.au{fill:#e01f26;}.av{fill:#e11f26;}.aw{fill:#e91d25;}.ax{fill:#e31e26;}.ay{fill:#e71e25;}.az{fill:#566db4;}.ba{fill:#d1d3d8;}.bb{fill:#bc7d80;}.bc{fill:#c86d70;}.bd{fill:#c3363a;}.be{fill:#566eb0;}.bf{fill:#ce3438;}.bg{fill:#cc2a30;}.bh{fill:#ca2127;}.bi{fill:#ced4df;}.bj{fill:#5a6db2;}.bk{fill:#6c81b9;}.bl{fill:#fef3f8;}.bm{fill:#fef2f4;}.bn{fill:#263a7d;}.bo{fill:#d0d4de;}.bp{fill:#d2d3d6;}.bq{fill:#586db4;}.br{fill:#c8cde1;}.bs{fill:#586eb0;}.bt{fill:#338956;}.bu{fill:#5b72ae;}.bv{fill:#2a3a46;}.bw{fill:#fffef8;}.bx{fill:#a69a77;}.by{fill:#323b38;}.bz{fill:#1b3461;}.ca{fill:#9b916e;}.cb{fill:#3b4342;}.cc{fill:#fffef5;}.cd{fill:#fffef6;}.ce{fill:#263b7f;}.cf{fill:#28334a;}.cg{fill:#2f3c42;}.ch{fill:#fffef7;}.ci{fill:#fffef4;}.cj{fill:#253876;}.ck{fill:#374654;}.cl{fill:#253c58;}.cm{fill:#2a3e55;}.cn{fill:#c2b388;}.co{fill:#3e4b53;}.cp{fill:#fffff9;}.cq{fill:#293e58;}.cr{fill:#a0936b;}.cs{fill:#363a31;}.ct{fill:#ab945b;}.cu{fill:#464b45;}.cv{fill:#3b4544;}.cw{fill:#2d3f56;}.cx{fill:#2f3d49;}.cy{fill:#b0a789;}</style></defs><title>slices_fixtures_v03</title><path class="a" d="M13.47,0.07a15.23,15.23,0,0,1,6.36.72,15,15,0,0,1,10.1,12.7,15.73,15.73,0,0,1-.24,4.58,15,15,0,0,1-7.87,10.31A14.74,14.74,0,0,1,15,30a14.78,14.78,0,0,1-7.13-1.79A15,15,0,0,1,13.47.07m-0.55.45A14.63,14.63,0,0,0,.64,12.2a17.33,17.33,0,0,0-.2,4.13,14.4,14.4,0,0,0,2.51,7,14.59,14.59,0,0,0,10.64,6.26c0.7,0,1.4,0,2.11,0a11.92,11.92,0,0,0,3-.42A14.61,14.61,0,0,0,29.56,16.25a18,18,0,0,0-.17-3.84,14.31,14.31,0,0,0-2.71-6.2A14.6,14.6,0,0,0,21,1.66,13.58,13.58,0,0,0,15.31.42a16.49,16.49,0,0,0-2.39.1M5.47,23.83a4.28,4.28,0,0,1,.86-0.94c0.3,0.24.56,0.54,0.84,0.8L6.91,24a1,1,0,0,0-.61-0.27c0.11,0.17.23,0.34,0.34,0.51l-0.32.22A1,1,0,0,0,6,24.17a2.66,2.66,0,0,1-.57.44l0,0C5.6,24.37,5.78,24.2,6,24l0.45,0.38,0.14-.23-0.35-.38,0.25-.26,0.42,0.38L7,23.73A4.23,4.23,0,0,0,6.33,23c-0.3.26-.57,0.55-0.86,0.81m18-.93h0.43a2,2,0,0,1,.49.48,1,1,0,0,1,.36.33,0.58,0.58,0,0,1-.09.58A6.89,6.89,0,0,1,24,25c-0.32-.29-0.62-0.61-0.93-0.91l-0.38-.41c0.28-.25.53-0.54,0.83-0.78m0,0.12a7.69,7.69,0,0,0-.68.66c0.37,0.43.78,0.81,1.18,1.2a1.45,1.45,0,0,0,.73-1.06,0.71,0.71,0,0,0-.42-0.4A4.29,4.29,0,0,0,24,23a0.41,0.41,0,0,0-.51,0M7.11,24.1a6.14,6.14,0,0,1,.71,0,3,3,0,0,1-.71,0m0.35,0.46a0.35,0.35,0,0,1,.41.16,0.7,0.7,0,0,1-.71.86c-0.4-.27-0.06-0.88.31-1m0.07,0.08a0.79,0.79,0,0,0-.49.53,0.25,0.25,0,0,0,.3.33A0.85,0.85,0,0,0,7.82,25a0.26,0.26,0,0,0-.29-0.35m12.83,0.85c-0.14-.27.25-0.35,0.41-0.47,0.26,0.35.42,0.76,0.68,1.1A0.9,0.9,0,0,0,22,25.94a0.49,0.49,0,0,1,.14.42,6.83,6.83,0,0,1-1,.56c-0.26-.49-0.57-0.95-0.83-1.44m0-.17a11.13,11.13,0,0,0,.85,1.48c0.3-.15.58-0.32,0.87-0.5L22,26a4.85,4.85,0,0,1-.49.26,0.42,0.42,0,0,1-.17-0.2c-0.18-.32-0.36-0.64-0.55-1l-0.37.17M8.8,25.19a1,1,0,0,1,1.16.48,1.33,1.33,0,0,1,0,.79,0.71,0.71,0,0,1-.2.26,1.08,1.08,0,0,0,.06-1.15,1.18,1.18,0,0,0-1-.37H8.8m1.51,0.56h0.13c0.29,0.11.57,0.23,0.87,0.31l0.23,0.08a0.9,0.9,0,0,1-.1.41,1.76,1.76,0,0,0-.34,0,1,1,0,0,0-.21.43,5,5,0,0,1-.29.79,0.77,0.77,0,0,1-.5-0.18,1.79,1.79,0,0,1,.24-0.79l0.13-.19c-0.11.31-.22,0.63-0.32,0.94l0.39,0.16c0.18-.42.32-0.86,0.48-1.29l0.39,0.08,0-.25c-0.35-.14-0.71-0.27-1.07-0.38L10.27,26l0.33,0.23,0,0.09-0.37-.23,0.12-.36m-3.2.3a3.26,3.26,0,0,1,.61,0,1.83,1.83,0,0,1-.61,0m13.15,0.53,0.42,0.05a1,1,0,0,1-.59.87,0.86,0.86,0,0,1-.87-0.15,1.11,1.11,0,0,0,1,0,0.93,0.93,0,0,0,.42-0.67l-0.24,0L20.16,27c0-.13.06-0.25,0.1-0.38h0Z"/><path class="b" d="M12.92,0.52a16.49,16.49,0,0,1,2.39-.1A13.58,13.58,0,0,1,21,1.66a14.6,14.6,0,0,1,5.68,4.55,14.31,14.31,0,0,1,2.71,6.2,18,18,0,0,1,.17,3.84A14.61,14.61,0,0,1,18.69,29.15a11.92,11.92,0,0,1-3,.42c-0.7,0-1.4,0-2.11,0A14.59,14.59,0,0,1,3,23.29a14.4,14.4,0,0,1-2.51-7,17.33,17.33,0,0,1,.2-4.13A14.63,14.63,0,0,1,12.92.52m1.4,0.53c0,1,0,2,0,3.07a15.92,15.92,0,0,0,2.07,0,2.17,2.17,0,0,0,0-.83c-0.3,0-.6,0-0.89,0-0.07-.73,0-1.47-0.05-2.2H14.32m-2.91.41a1.83,1.83,0,0,0,0,.59c0.17,0.8.3,1.62,0.5,2.42a14.07,14.07,0,0,0,1.92-.38,5,5,0,0,0-.13-0.67l-0.28,0-0.65,0,0-.23A0.81,0.81,0,0,0,13.18,3L13.59,3a1.69,1.69,0,0,0-.14-0.73l-0.38.08a1.33,1.33,0,0,1-.54-0.11,3.86,3.86,0,0,0,.42-0.26,2.76,2.76,0,0,0,.45-0.12,1.43,1.43,0,0,0-.21-0.67C12.6,1.23,12,1.4,11.41,1.46m6.17,0.12a0.92,0.92,0,0,0-.41,1.16,2.56,2.56,0,0,0,.66.71,0.8,0.8,0,0,1-.28.38l-0.24-.49a2.17,2.17,0,0,0-.63.19,1.46,1.46,0,0,0,.24.55,1.25,1.25,0,0,0,1.39.35,0.94,0.94,0,0,0,.59-1,1.13,1.13,0,0,0-.36-0.61,2.82,2.82,0,0,0,.6-0.22,1.08,1.08,0,0,0-1.58-1M9.3,2.29a4.45,4.45,0,0,0,.35.76,0.59,0.59,0,0,1-.16.28,1.79,1.79,0,0,1-.28,0C9.07,3.06,9,2.79,8.82,2.52A3.27,3.27,0,0,0,7.92,3c0.25,0.55.51,1.09,0.77,1.63a9.58,9.58,0,0,0,.53,1.07,3.58,3.58,0,0,0,.88-0.41,7.37,7.37,0,0,0-.36-0.77l0-.3L10.1,4c0.16,0.33.3,0.67,0.47,1a3.36,3.36,0,0,0,.9-0.4c-0.39-.92-0.86-1.81-1.27-2.72a3.12,3.12,0,0,0-.9.4m10.93,0.3c-0.36.76-.78,1.5-1.13,2.27a14.22,14.22,0,0,0,1.75.89,2.37,2.37,0,0,0,.3-0.64l-0.64-.32c0-.12,0-0.25,0-0.37L21,4.51l0.29,0.15A1.78,1.78,0,0,0,21.65,4l-0.59-.31,0-.25L21.5,3.5l0.36,0.17A2.2,2.2,0,0,0,22.17,3c-0.55-.27-1.08-0.57-1.64-0.82a0.75,0.75,0,0,0-.3.4M6.34,4.09A1.57,1.57,0,0,0,5.36,6a2,2,0,0,0,.87,1.08,1.59,1.59,0,0,0,2.27-1l0.09,0a0.94,0.94,0,0,0-.09-0.84L8.43,5.1a3.25,3.25,0,0,0-.67.14,0.9,0.9,0,0,1-.35,1,0.27,0.27,0,0,0-.36,0,1.32,1.32,0,0,1-.69-0.6,0.63,0.63,0,0,1,.1-0.79A2.82,2.82,0,0,0,7.21,4.8H7.3A3.16,3.16,0,0,0,7.39,4a2.54,2.54,0,0,0-1,0m17,0.66c-0.7.38-1.43,0.72-2.12,1.12a1.28,1.28,0,0,0,.51.45,2.15,2.15,0,0,0,.38-0.16,0.72,0.72,0,0,1,.39.11,0.62,0.62,0,0,1,.09.47,0.34,0.34,0,0,0,0,.33,2.67,2.67,0,0,0,.69.6c0.23-.7.46-1.39,0.69-2.09a11.25,11.25,0,0,0,.4-1.3,6,6,0,0,0-1,.48m-8.62-.2a10.28,10.28,0,0,0-4.9,1.36,10.45,10.45,0,0,0-5.2,10.33,10.47,10.47,0,0,0,9,9.12A10.46,10.46,0,0,0,25,11.95a10.48,10.48,0,0,0-4.39-5.77,10.35,10.35,0,0,0-5.91-1.62M2.61,10.42a1.46,1.46,0,1,0,1.51,2.37,1.46,1.46,0,0,0-1.51-2.37m24,0a1.46,1.46,0,1,0,1.87,1.3,1.46,1.46,0,0,0-1.87-1.3M2.32,17a0.47,0.47,0,0,0-.51.19c-0.1.27-.2,0.53-0.31,0.79a0.45,0.45,0,0,0,.21.49,1.15,1.15,0,0,0,0,.42A0.79,0.79,0,0,0,2,19.2c0.17,0.12.31,0.28,0.48,0.39A0.66,0.66,0,0,0,3,19.53a0.48,0.48,0,0,0,.51.11c0.24-.15.47-0.31,0.72-0.45a0.53,0.53,0,0,0,.12-0.56,0.44,0.44,0,0,0,.28-0.43c-0.08-.29-0.16-0.57-0.22-0.86a0.52,0.52,0,0,0-.46-0.26,0.48,0.48,0,0,0-.36-0.4c-0.3,0-.61,0-0.91-0.05a0.47,0.47,0,0,0-.34.37m24.16-.28a0.53,0.53,0,0,0-.2.36,0.52,0.52,0,0,0-.49.27c-0.06.29-.15,0.57-0.22,0.86a0.52,0.52,0,0,0,.28.45,0.56,0.56,0,0,0,.07.49c0.15,0.12.32,0.19,0.48,0.3a0.8,0.8,0,0,0,.54.24,1.13,1.13,0,0,0,.27-0.18,0.48,0.48,0,0,0,.56.07L28.41,19a0.53,0.53,0,0,0,.05-0.58A0.42,0.42,0,0,0,28.68,18c-0.12-.26-0.21-0.53-0.32-0.8A0.49,0.49,0,0,0,27.85,17a0.48,0.48,0,0,0-.29-0.36,5.89,5.89,0,0,0-.62,0,1.09,1.09,0,0,0-.46.05m-3,6.18c-0.3.23-.55,0.52-0.83,0.78l-0.21.2-0.28.27a3.65,3.65,0,0,1,.68,1.21l-0.2,0c-0.28-.29-0.49-0.65-0.74-1a1.7,1.7,0,0,0-.5.33,4.74,4.74,0,0,0,.78,1l0.06,0.1a0.71,0.71,0,0,0,1.08-.31,0.27,0.27,0,0,0,0-.45,0.82,0.82,0,0,0-.17-0.32A1.36,1.36,0,0,1,23,24.08c0.31,0.3.61,0.62,0.93,0.91a6.89,6.89,0,0,0,.71-0.69,0.58,0.58,0,0,0,.09-0.58,1,1,0,0,0-.36-0.33,2,2,0,0,0-.49-0.48c0-.17-0.4-0.17-0.43,0m-18,.93c-0.13.12-.25,0.25-0.37,0.38l0.33,0.35,0,0A2.66,2.66,0,0,0,6,24.17a1,1,0,0,1,.37.28l0,0L6.5,24.6a1.11,1.11,0,0,0,0,.86l0-.08a1,1,0,0,0,1.34.48l0.22,0a0.91,0.91,0,0,0,.35.83,0.94,0.94,0,0,0,1.34,0,0.71,0.71,0,0,0,.2-0.26,0.29,0.29,0,0,1,.41-0.14c0,0.15,0,.29,0,0.44a1.79,1.79,0,0,0-.24.79,0.77,0.77,0,0,0,.5.18,5,5,0,0,0,.29-0.79,1.1,1.1,0,0,1,.6-0.38h0a0.9,0.9,0,0,0,.1-0.41l-0.23-.08a1,1,0,0,0-.87-0.31H10.31L10,25.66a1,1,0,0,0-1.16-.48,1.09,1.09,0,0,0-.34.1,1.42,1.42,0,0,0-.12-0.65l0,0.14a0.92,0.92,0,0,0-.56-0.56,1,1,0,0,0-.75.07L6.7,24.22,6.91,24l0.25-.29c-0.28-.27-0.54-0.56-0.84-0.8a4.28,4.28,0,0,0-.86.94M7.11,24.1a3,3,0,0,0,.71,0,6.14,6.14,0,0,0-.71,0m13.25,1.39c0.26,0.49.57,0.95,0.83,1.44a6.83,6.83,0,0,0,1-.56A0.49,0.49,0,0,0,22,25.94a0.9,0.9,0,0,1-.56.18c-0.26-.35-0.42-0.75-0.68-1.1-0.16.12-.56,0.2-0.41,0.47m-1.64,1a0.81,0.81,0,0,0,.33.71l0.16,0.15a0.86,0.86,0,0,0,.87.15,1,1,0,0,0,.59-0.87l-0.42-.05c0,0.13-.07.25-0.1,0.38l-0.07.11c-0.14,0-.28-0.07-0.41-0.12a1.19,1.19,0,0,1-.27-0.53,1.71,1.71,0,0,1,.24-0.29,2.22,2.22,0,0,1,.5.09,0.79,0.79,0,0,0,.2-0.43,1.33,1.33,0,0,0-.66-0.19,1.08,1.08,0,0,0-1,.89M7.11,26a1.83,1.83,0,0,0,.61,0,3.26,3.26,0,0,0-.61,0m4.67,0.16,0.06,0a4.67,4.67,0,0,0-.12.48,0.67,0.67,0,0,0-.14.59,2.55,2.55,0,0,0-.14.75c0,0.13.22,0.17,0.28,0.06a1.73,1.73,0,0,0,.31.09,0.48,0.48,0,0,0,.64,0,0.88,0.88,0,0,0,.25-0.86l0-.1,0.12,0a0.59,0.59,0,0,0-.33-0.78,1.35,1.35,0,0,0-1-.2M14,26.39c-0.23.41-.42,0.85-0.64,1.26a2.13,2.13,0,0,0-.28.69c0,0.15.37,0.15,0.37,0L13.75,28a0.6,0.6,0,0,1,.38.47l0.55,0c-0.08-.39-0.22-0.76-0.33-1.14a4.67,4.67,0,0,0-.34-1m2.27,0.12a1,1,0,0,0,0,.62,3.84,3.84,0,0,0,.25,1.15v0.08l0,0.06a1.64,1.64,0,0,0,.91-0.17l0.24-.06c0-.15,0-0.31-0.07-0.46a2.31,2.31,0,0,0-.53,0A6.82,6.82,0,0,1,17.06,27c0-.1,0-0.28-0.14-0.3l0-.27a0.64,0.64,0,0,0-.61.07m-1.34.05a1.89,1.89,0,0,0,.07.79c0,0.16,0,.32,0,0.48a1.1,1.1,0,0,0,0,.67,5.24,5.24,0,0,0,1.25-.07q0-.24,0-0.48l-0.62,0a10.65,10.65,0,0,0,0-1.37,1.79,1.79,0,0,0-.68,0M16.25,6.91a3.48,3.48,0,0,0,.44.62,3,3,0,0,0,1.76.57,1.93,1.93,0,0,0,.59.6,5.5,5.5,0,0,1-.68,1,0.51,0.51,0,0,0-.46-0.21,0.64,0.64,0,0,0-.34.71,3.36,3.36,0,0,0,.51,0c0,0.13,0,.26,0,0.39s0,0.32,0,.47a1,1,0,0,0-.87-0.25,0.81,0.81,0,0,0-.24,1,0.77,0.77,0,0,0,.47.5,1,1,0,0,0,.59-0.3l0.15,0.39a0.9,0.9,0,0,1-.2.69,1.3,1.3,0,0,1-.94.27,4.34,4.34,0,0,0,.33,1.24A6.59,6.59,0,0,0,18,16.88a1.6,1.6,0,0,0,1.13.91,1,1,0,0,0,1.06-.37,1.3,1.3,0,0,0,.1-1.1c-0.23-.67-0.85-1.1-1.15-1.74a1.21,1.21,0,0,1,.08-1.18,8,8,0,0,1,1.23-1.19,1.32,1.32,0,0,0,.44-0.73,0.8,0.8,0,0,0-1-.83,0.9,0.9,0,0,0-.49.54l-0.15.24a3.59,3.59,0,0,1,0-.69,2.64,2.64,0,0,1,.24-0.32,1.43,1.43,0,0,1,2,.28A1.42,1.42,0,0,1,21.56,12,7.79,7.79,0,0,1,20,13.41a1.71,1.71,0,0,0-.38.56,2,2,0,0,1,1.25-.48,1.29,1.29,0,0,1,.89.57,1.13,1.13,0,0,1-.33,1.31l-0.06.06a1.07,1.07,0,0,0-.07-0.92,0.76,0.76,0,0,0-1.18,0,0.87,0.87,0,0,0-.15.62,4.76,4.76,0,0,1,1,1.58,1.2,1.2,0,0,1-.53,1.4,2.27,2.27,0,0,1-1.88,0l-0.17-.1-0.5-.31a1.78,1.78,0,0,0,.74,1.21,1.68,1.68,0,0,0,1.33.16c-0.11.15-.24,0.29-0.34,0.45a4,4,0,0,0-.47,2.68,0.4,0.4,0,0,1-.43.38,0.53,0.53,0,0,0-.33.34l0-.05,0,0-0.1-.3-0.21,0a0.51,0.51,0,0,0-.45.39l-0.16.13q0-.29,0-0.57l-0.45,0a0.89,0.89,0,0,0-.36.15c-0.06.14-.11,0.29-0.17,0.44l-0.1-.15a1.19,1.19,0,0,1,.15-1.13,3.19,3.19,0,0,1,1.48-.23,2.49,2.49,0,0,0,.44-1.31A1,1,0,0,0,18,19.42c-0.25-.1-0.54,0-0.79-0.15a6.64,6.64,0,0,1-.45-0.64,1.83,1.83,0,0,0-.6-0.06,1.57,1.57,0,0,0-1.27.78,0.58,0.58,0,0,0,.41.72l0.41,0.16-0.19.08a1.65,1.65,0,0,0-.72.43c-0.29.37-.29,0.87-0.54,1.25a1.39,1.39,0,0,1-.75.27,1.45,1.45,0,0,0-.22.53l-0.14-.57H12.66a0.83,0.83,0,0,0-.4.51l-0.06.16-0.08-.13c0-.18,0-0.36,0-0.54l-0.6,0-0.17.11c-0.17.08-.08,0.42-0.29,0.38V22.65c0-.31-0.07-0.62-0.09-0.94a0.39,0.39,0,0,1,.24-0.39c0.59-.22,1.27.13,1.84-0.2A2.5,2.5,0,0,0,14,19.39a0.93,0.93,0,0,1-.58-0.65,0.77,0.77,0,0,1,.29-0.69,19.76,19.76,0,0,1,2.43-1.32A0.73,0.73,0,0,0,16.48,16a0.9,0.9,0,0,0-.61-0.57,2.44,2.44,0,0,1,0,.68,1.38,1.38,0,0,1-.77.32L15,16.14c-0.13-.2-0.24-0.41-0.35-0.62a3.41,3.41,0,0,1-1.81,1.32,1.71,1.71,0,0,0-.49-0.33,1,1,0,0,0-1.13.87l-0.19,0V17.35c0-.19,0-0.38,0-0.56a4.11,4.11,0,0,0-.55.22c0-.18.05-0.36,0.08-0.54l-0.31.08L10,16.66a1.89,1.89,0,0,1,.24-0.59,2.53,2.53,0,0,0-.45.06l-0.1,0a0.83,0.83,0,0,1,.61-0.6A6.46,6.46,0,0,0,12,15.32c0.42-.23.82-0.49,1.24-0.72s1-.55,1.5-0.89a4.07,4.07,0,0,1-1-.15l-0.2-.35a1.81,1.81,0,0,1-.54.47,1.69,1.69,0,0,1-.73.12,3.78,3.78,0,0,1-.4-0.33c0.21-.07.6,0,0.64-0.28a0.48,0.48,0,0,0-.36-0.53,7.43,7.43,0,0,0-1.08-.3c0,0.92,0,1.84,0,2.76l-0.26,0c-0.06-1,0-1.91,0-2.86l-0.33,0A0.59,0.59,0,0,1,10,12.1c-0.08-.17-0.13-0.35-0.2-0.53a4.43,4.43,0,0,1,0-.58,0.44,0.44,0,0,1,.54-0.61h0.36c0-.06,0-0.17,0-0.22l-0.36,0a2.43,2.43,0,0,1-.51-0.08,1.66,1.66,0,0,1,.33-0.17L10,9.71a1.72,1.72,0,0,1-.36-1.26,1.82,1.82,0,0,1,.61-1,1.33,1.33,0,0,1,1.7.58,1.54,1.54,0,0,1-.42,1.8,1.28,1.28,0,0,0-.5.45,1,1,0,0,0,.1.38,2.23,2.23,0,0,0,.62.25,4.38,4.38,0,0,1,.85.39,5.54,5.54,0,0,1,.85.87,1.82,1.82,0,0,1,.21.79,0.78,0.78,0,0,0,.6-0.75,0.91,0.91,0,0,1,0-.57,3.84,3.84,0,0,0,.58-1.38,1.42,1.42,0,0,1-.93-0.78l0-.07a2.22,2.22,0,0,0,.51.28,1.12,1.12,0,0,0,.48-0.1,0.78,0.78,0,0,0,.52-1.09,0.72,0.72,0,0,0-.73-0.22,1.06,1.06,0,0,1,1-.36H16a2.23,2.23,0,0,1,.21-1m-5.7,1.26a2.21,2.21,0,0,0-.21.3,0.65,0.65,0,0,0,.11.47,1,1,0,0,1,.43.59,1,1,0,0,0,.53-1.2,0.58,0.58,0,0,0-.87-0.17m6.27,0.5a0.71,0.71,0,0,0,.82.31,1,1,0,0,1-.36-0.45c-0.16,0-.42-0.09-0.46.14m0.65-.15a0.25,0.25,0,0,0,.24.31l0.13-.33-0.37,0m-7.39,2.09c0,0.13,0,.26,0,0.4a2.85,2.85,0,0,0,.81,0,0.82,0.82,0,0,0-.79-0.39m0.08,0.58c-0.16,0-.09.24-0.12,0.36a1,1,0,0,0,.83-0.15,1.51,1.51,0,0,0-.71-0.21m0,0.58V12a1.68,1.68,0,0,0,.63-0.12,0.6,0.6,0,0,0-.63-0.13h0Z"/><path class="c" d="M14.32,1.05h1.13c0.08,0.73,0,1.47.05,2.2,0.3,0,.6,0,0.89,0a2.17,2.17,0,0,1,0,.83,15.92,15.92,0,0,1-2.07,0c0-1,0-2,0-3.07m0.07,0.06q0,1.49,0,3c0.65,0,1.3,0,2,0a2.4,2.4,0,0,0,0-.59l0-.14h-1c0-.74,0-1.49,0-2.22l-0.1-.05c-0.29,0-.58,0-0.87,0M12.48,2l0.47-.11a3.86,3.86,0,0,1-.42.26,1.33,1.33,0,0,0,.54.11l-0.5.1L12.48,2m-2.84,1L9.75,3.28,9.3,3.51,9.2,3.33a1.79,1.79,0,0,0,.28,0,0.59,0.59,0,0,0,.16-0.28M21,3.28L21.5,3.5,21,3.44l0,0.25-0.19-.1L21,3.28M22.1,6.15L22.33,6l0.38,0.32-0.13.37a0.62,0.62,0,0,0-.09-0.47,0.72,0.72,0,0,0-.39-0.11M6.31,23.72a1,1,0,0,1,.61.27l-0.22.23L7,24.28a1.14,1.14,0,0,0-.47,1.1l0,0.08a1.11,1.11,0,0,1,0-.86l-0.21-.13,0,0,0.32-.22c-0.12-.17-0.24-0.33-0.34-0.51m12.41,2.76a1.08,1.08,0,0,1,1-.89,1.33,1.33,0,0,1,.66.19,0.79,0.79,0,0,1-.2.43,2.22,2.22,0,0,0-.5-0.09,1.71,1.71,0,0,0-.24.29,1.19,1.19,0,0,0,.27.53c0.13,0.05.27,0.08,0.41,0.12a0.58,0.58,0,0,1-.56-0.12,0.65,0.65,0,0,1-.09-0.79,0.84,0.84,0,0,1,.7-0.09l0.12-.23a1.12,1.12,0,0,0-.7-0.14,0.84,0.84,0,0,0-.69.85,1.61,1.61,0,0,0,.19.63,0.81,0.81,0,0,1-.33-0.71m-6.94-.28a1.35,1.35,0,0,1,1,.2c-0.3-.07-0.6-0.11-0.9-0.19l-0.06,0m4.5,0.31a0.64,0.64,0,0,1,.61-0.07l-0.57.12c0,0.58.18,1.15,0.23,1.73a3.84,3.84,0,0,1-.25-1.15,1,1,0,0,1,0-.62m-1.34.05a1.79,1.79,0,0,1,.68,0,10.65,10.65,0,0,1,0,1.37l0.62,0q0,0.24,0,.48a5.24,5.24,0,0,1-1.25.07,1.1,1.1,0,0,1,0-.67l0.07,0c0,0.18,0,.36,0,0.54s0.36,0.1.51,0h0.6q0-.19,0-0.38H15.59a12.28,12.28,0,0,0-.06-1.38H15c0,0.24,0,.49,0,0.73a1.89,1.89,0,0,1-.07-0.79m-2.69.1a0.27,0.27,0,0,1,.3.27c0,0.19-.23.13-0.34,0.16,0-.15,0-0.29,0-0.43h0Z"/><path class="d" d="M14.39,1.11c0.29,0,.58,0,0.87,0,0,0.08,0,.16,0,0.25a1.56,1.56,0,0,0-.7-0.06c0,0.88,0,1.77,0,2.65V4a5.34,5.34,0,0,0,1.64,0l0.12-.44a2.4,2.4,0,0,1,0,.59c-0.65,0-1.3,0-2,0q0-1.49,0-3h0Z"/><path class="e" d="M15.26,1.07l0.1,0.05c0.05,0.74,0,1.48,0,2.22h1l0,0.14-0.12.44,0-.41-0.92,0c0-.73,0-1.46,0-2.19,0-.08,0-0.16,0-0.25h0Z"/><path class="f" d="M11.41,1.46C12,1.4,12.6,1.23,13.19,1.15a1.43,1.43,0,0,1,.21.67,2.76,2.76,0,0,1-.45.12L12.48,2l0.08,0.36,0.5-.1,0.38-.08a1.69,1.69,0,0,1,.14.73L13.18,3l-0.48.1,0.07,0.45a4,4,0,0,0,.69-0.12l0.28,0a5,5,0,0,1,.13.67A14.07,14.07,0,0,1,12,4.47c-0.2-.8-0.33-1.61-0.5-2.42a1.83,1.83,0,0,1,0-.59m0.17,0.16a3.07,3.07,0,0,0,.06.48c0.16,0.72.28,1.45,0.45,2.17A13.27,13.27,0,0,0,13.59,4c0.17,0,0-.26,0-0.38-0.32,0-.64.12-1,0.14C12.62,3.51,12.56,3.25,12.52,3l0.9-.2-0.07-.36c-0.31,0-.61.09-0.91,0.14a2.68,2.68,0,0,1-.11-0.68l0.87-.19-0.08-.37c-0.52.07-1,.19-1.54,0.28m8.65,1a0.75,0.75,0,0,1,.3-0.4c0.56,0.25,1.09.55,1.64,0.82a2.2,2.2,0,0,1-.32.66L21.5,3.5,21,3.28l-0.15.31,0.19,0.1L21.65,4a1.78,1.78,0,0,1-.32.66L21,4.51l-0.51-.26-0.22.42,0.19,0.1L21.15,5.1a2.37,2.37,0,0,1-.3.64,14.22,14.22,0,0,1-1.75-.89c0.35-.77.76-1.51,1.13-2.27m0.31-.21c-0.41.8-.83,1.6-1.22,2.41,0.47,0.29,1,.51,1.45.76,0.06-.12.11-0.23,0.16-0.35l-0.82-.43a2.81,2.81,0,0,1,.35-0.71c0.28,0.13.55,0.28,0.83,0.39l0.15-.35-0.79-.42A4.22,4.22,0,0,1,21,3.06c0.29,0.11.56,0.26,0.85,0.39a2.55,2.55,0,0,0,.14-0.36l-1.4-.71m2.79,2.38a6,6,0,0,1,1-.48,11.25,11.25,0,0,1-.4,1.3c-0.22.7-.45,1.39-0.69,2.09a2.67,2.67,0,0,1-.69-0.6,0.34,0.34,0,0,1,0-.33l0.13-.37L22.33,6l-0.24.11a2.15,2.15,0,0,1-.38.16,1.28,1.28,0,0,1-.51-0.45c0.69-.4,1.42-0.74,2.12-1.12m0.23,0.07c-0.69.37-1.38,0.72-2.07,1.08l0.24,0.27Q22,6,22.34,5.87a3,3,0,0,1,.52.46l-0.21.61a1.84,1.84,0,0,0,.51.41c0.28-.92.63-1.83,0.89-2.75a3.4,3.4,0,0,0-.5.22M11.84,26.22c0.3,0.08.6,0.12,0.9,0.19a0.59,0.59,0,0,1,.33.78l-0.12,0a0.59,0.59,0,0,0-.09-0.64,2.34,2.34,0,0,0-1-.27c-0.12.54-.29,1.08-0.36,1.63a2.22,2.22,0,0,0,1,.16,1.09,1.09,0,0,0,.36-0.78,0.88,0.88,0,0,1-.25.86H12a1.73,1.73,0,0,1-.31-0.09A0.38,0.38,0,0,0,11.43,28a2.55,2.55,0,0,1,.14-0.75c0.06-.19.1-0.39,0.14-0.59a4.67,4.67,0,0,1,.12-0.48h0Z"/><path class="g" d="M14.55,1.26a1.56,1.56,0,0,1,.7.06c0,0.73,0,1.46,0,2.19l0.92,0,0,0.41c-0.55,0-1.1,0-1.65,0,0-.88,0-1.77,0-2.65m-3,.37c0.51-.09,1-0.21,1.54-0.28L13.2,1.71l-0.87.19a2.68,2.68,0,0,0,.11.68c0.3,0,.6-0.11.91-0.14L13.42,2.8l-0.9.2c0,0.26.1,0.51,0.15,0.76,0.32,0,.64-0.12,1-0.14,0,0.12.13,0.34,0,.38a13.27,13.27,0,0,1-1.5.28c-0.17-.72-0.29-1.45-0.45-2.17a3.07,3.07,0,0,1-.06-0.48m6,0.14A1,1,0,0,1,19,2.37l-0.32.12A0.57,0.57,0,0,0,18.28,2a0.32,0.32,0,0,0-.31.49,7.42,7.42,0,0,0,.63.64,0.73,0.73,0,0,1-.1,1,1,1,0,0,1-1.14.08,1.12,1.12,0,0,1-.47-0.61,0.82,0.82,0,0,1,.33,0,0.67,0.67,0,0,0,.51.4A0.37,0.37,0,0,0,18,3.4a2.9,2.9,0,0,1-.71-0.82,0.76,0.76,0,0,1,.3-0.82m2.94,0.61,1.4,0.71a2.55,2.55,0,0,1-.14.36C21.52,3.32,21.24,3.17,21,3.06a4.22,4.22,0,0,0-.29.61l0.79,0.42-0.15.35C21,4.33,20.75,4.18,20.47,4.05a2.81,2.81,0,0,0-.35.71l0.82,0.43c0,0.12-.1.24-0.16,0.35-0.49-.25-1-0.48-1.45-0.76,0.39-.81.81-1.61,1.22-2.41M5.65,4.88A1.44,1.44,0,0,1,7.21,4.2l0,0.39a1.21,1.21,0,0,0-.83.19,0.73,0.73,0,0,0-.19.88,1.35,1.35,0,0,0,1,.81,0.71,0.71,0,0,0,.72-0.35A1.66,1.66,0,0,0,8,5.4a0.52,0.52,0,0,1,.37-0.08,2.15,2.15,0,0,1-.08.91A1.36,1.36,0,0,1,7,7.07,1.51,1.51,0,0,1,5.65,4.88m17.91-.06a3.4,3.4,0,0,1,.5-0.22c-0.26.93-.61,1.83-0.89,2.75a1.84,1.84,0,0,1-.51-0.41l0.21-.61a3,3,0,0,0-.52-0.46Q22,6,21.72,6.17L21.48,5.9c0.69-.35,1.39-0.71,2.07-1.08m-0.92.9L23,6a2.64,2.64,0,0,0,.17-0.53,2.9,2.9,0,0,0-.51.25h0Z"/><path class="h" d="M17.59,1.58a1.08,1.08,0,0,1,1.58,1l-0.61,0L18.4,2.21H18.1a0.84,0.84,0,0,0,.46.64,1.13,1.13,0,0,1,.36.61,0.94,0.94,0,0,1-.59,1,1.25,1.25,0,0,1-1.39-.35,1.46,1.46,0,0,1-.24-0.55,2.17,2.17,0,0,1,.63-0.19l0.24,0.49A0.6,0.6,0,0,0,18,3.67l-0.13-.22a2.56,2.56,0,0,1-.66-0.71,0.92,0.92,0,0,1,.41-1.16m0,0.18a0.76,0.76,0,0,0-.3.82A2.9,2.9,0,0,0,18,3.4a0.37,0.37,0,0,1-.29.57,0.67,0.67,0,0,1-.51-0.4,0.82,0.82,0,0,0-.33,0,1.12,1.12,0,0,0,.47.61,1,1,0,0,0,1.14-.08,0.73,0.73,0,0,0,.1-1A7.42,7.42,0,0,1,18,2.49,0.32,0.32,0,0,1,18.28,2a0.57,0.57,0,0,1,.43.48L19,2.37a1,1,0,0,0-1.42-.61h0Z"/><path class="i" d="M9.3,2.29a3.12,3.12,0,0,1,.9-0.4c0.42,0.91.88,1.8,1.27,2.72a3.36,3.36,0,0,1-.9.4c-0.17-.32-0.31-0.66-0.47-1a0.69,0.69,0,0,0-.5.13L9.74,4.47a7.37,7.37,0,0,1,.36.77,3.58,3.58,0,0,1-.88.41,9.58,9.58,0,0,1-.53-1.07C8.43,4.05,8.17,3.51,7.92,3a3.27,3.27,0,0,1,.89-0.44C9,2.79,9.07,3.06,9.2,3.33L9.3,3.51l0.45-.23L9.64,3.05A4.45,4.45,0,0,1,9.3,2.29M9.52,2.36c0.12,0.35.3,0.66,0.43,1a4.84,4.84,0,0,1-.73.35C9,3.4,8.9,3.06,8.73,2.74A5.28,5.28,0,0,0,8.14,3C8.5,3.84,8.91,4.65,9.3,5.47a4.21,4.21,0,0,0,.58-0.29C9.73,4.81,9.54,4.46,9.39,4.09a6,6,0,0,1,.75-0.34c0.19,0.35.32,0.73,0.55,1.07a5.71,5.71,0,0,0,.56-0.29C10.88,3.71,10.5,2.9,10.08,2.1a4.87,4.87,0,0,0-.57.26h0Z"/><path class="j" d="M9.52,2.36a4.87,4.87,0,0,1,.57-0.26c0.42,0.79.8,1.61,1.17,2.43a5.71,5.71,0,0,1-.56.29c-0.22-.33-0.36-0.72-0.55-1.07a6,6,0,0,0-.75.34c0.15,0.37.34,0.72,0.49,1.08a4.21,4.21,0,0,1-.58.29C8.91,4.65,8.5,3.84,8.14,3a5.28,5.28,0,0,1,.59-0.26c0.17,0.32.3,0.65,0.48,1a4.84,4.84,0,0,0,.73-0.35C9.82,3,9.63,2.71,9.52,2.36h0Z"/><path class="k" d="M18.1,2.2H18.4l0.16,0.43,0.61,0a2.82,2.82,0,0,1-.6.22A0.84,0.84,0,0,1,18.1,2.2h0Z"/><path class="l" d="M12.71,3.13L13.18,3a0.81,0.81,0,0,1-.33.18l0,0.23,0.65,0a4,4,0,0,1-.69.12l-0.07-.45h0Z"/><path class="m" d="M17.85,3.44L18,3.67a0.6,0.6,0,0,1-.4.15,0.8,0.8,0,0,0,.28-0.38h0Z"/><path class="n" d="M14.55,3.91c0.55,0,1.1,0,1.65,0a5.34,5.34,0,0,1-1.64,0V3.91h0Z"/><path class="o" d="M6.34,4.09a2.54,2.54,0,0,1,1,0,3.16,3.16,0,0,1-.08.77H7.21a0.9,0.9,0,0,0-.76.09,0.63,0.63,0,0,0-.1.79,1.32,1.32,0,0,0,.69.6,0.31,0.31,0,0,0,.36,0,0.9,0.9,0,0,0,.35-1A3.25,3.25,0,0,1,8.43,5.1L8.49,5.25a4.26,4.26,0,0,1,0,.82,1.59,1.59,0,0,1-2.27,1A2,2,0,0,1,5.36,6a1.57,1.57,0,0,1,1-1.91m-0.69.79A1.51,1.51,0,0,0,7,7.07a1.36,1.36,0,0,0,1.23-.84,2.15,2.15,0,0,0,.08-0.91A0.52,0.52,0,0,0,8,5.4a1.66,1.66,0,0,1-.13.72,0.71,0.71,0,0,1-.72.35,1.35,1.35,0,0,1-1-.81,0.73,0.73,0,0,1,.19-0.88,1.21,1.21,0,0,1,.83-0.19l0-.39a1.44,1.44,0,0,0-1.55.68M16.32,26.56l0.57-.12,0,0.27a7.49,7.49,0,0,0,.19,1.12l0.57-.11c0,0.15,0,.31.07,0.46l-0.24.06c-0.32,0-.64.06-1,0.11V28.29c0-.58-0.2-1.14-0.23-1.73m0.07,0.07q0.12,0.82.26,1.64a8.7,8.7,0,0,0,1-.16l-0.07-.26L17,27.94c-0.12-.46-0.14-0.93-0.25-1.39l-0.4.08h0Z"/><path class="p" d="M9.6,4.16A0.69,0.69,0,0,1,10.1,4l-0.32.15,0,0.3L9.6,4.16h0Z"/><path class="q" d="M20.31,4.67l0.22-.42L21,4.51l-0.51-.1c0,0.12,0,.25,0,0.37l-0.19-.1h0Z"/><path class="r" d="M14.71,4.55a10.35,10.35,0,0,1,5.91,1.62A10.46,10.46,0,0,1,19,24.68a10.59,10.59,0,0,1-5.37.69,10.47,10.47,0,0,1-9-9.12A10.45,10.45,0,0,1,9.81,5.91a10.28,10.28,0,0,1,4.9-1.36m-0.78.39A9.93,9.93,0,0,0,10.37,6a10.16,10.16,0,1,0,3.56-1.06m8.52,18.93a6.93,6.93,0,0,1,.72.84,0.82,0.82,0,0,1,.17.32c0,0.15,0,.3,0,0.45a0.71,0.71,0,0,1-1.08.31,1.3,1.3,0,0,0,.67,0A0.6,0.6,0,0,0,23.23,25a8.43,8.43,0,0,0-.73-1l-0.22.21c0.22,0.34.51,0.63,0.71,1a0.23,0.23,0,0,1-.37.25c-0.28-.29-0.48-0.65-0.75-0.95l-0.34.26c0.22,0.32.48,0.61,0.67,0.95a4.74,4.74,0,0,1-.78-1,1.7,1.7,0,0,1,.5-0.33c0.25,0.31.46,0.67,0.74,1l0.2,0a3.65,3.65,0,0,0-.68-1.21l0.28-.27M14,26.39a4.67,4.67,0,0,1,.34,1c0.11,0.38.25,0.75,0.33,1.14l-0.55,0A0.6,0.6,0,0,0,13.75,28l-0.29.36a1.5,1.5,0,0,0-.37,0,2.13,2.13,0,0,1,.28-0.69c0.22-.42.41-0.85,0.64-1.26m0,0.23a13.77,13.77,0,0,0-.81,1.67h0.24l0.2-.38L14,28l0.13,0.37,0.41,0A12.5,12.5,0,0,0,14,26.62h0Z"/><path class="s" d="M6.45,4.89A0.9,0.9,0,0,1,7.21,4.8a2.82,2.82,0,0,1-.76.09h0Z"/><path class="t" d="M8.49,5.25a0.94,0.94,0,0,1,.09.84l-0.09,0a4.26,4.26,0,0,0,0-.82h0Z"/><path class="u" d="M22.63,5.71a2.9,2.9,0,0,1,.51-0.25A2.64,2.64,0,0,1,23,6l-0.34-.28h0Z"/><path class="v" d="M7,6.29a0.27,0.27,0,0,1,.36,0,0.31,0.31,0,0,1-.36,0H7Z"/><path class="w" d="M15.61,7.87a0.92,0.92,0,0,1,.64-1,2.23,2.23,0,0,0-.21,1H15.61m-1,.36h0.05a0.72,0.72,0,0,1,.73.22,0.78,0.78,0,0,1-.52,1.09,1,1,0,0,0,.2-0.85,0.58,0.58,0,0,0-.45-0.28V8.23h0Z"/><path class="x" d="M9.44,8.26a1.27,1.27,0,0,1,.79-0.85,1.82,1.82,0,0,0-.61,1A1.72,1.72,0,0,0,10,9.71a1.27,1.27,0,0,1-.54-1.45m2.12,14,0.6,0c0,0.18,0,.36,0,0.54l-0.18-.11a0.42,0.42,0,0,0-.38-0.41h0Z"/><path class="y" d="M11.93,8a0.71,0.71,0,0,1,.5.52,1.48,1.48,0,0,1-.2,1.38,2.11,2.11,0,0,1-.79.61A4,4,0,0,0,11,10.24a1.28,1.28,0,0,1,.5-0.45A1.54,1.54,0,0,0,11.93,8m9.79,6.07a0.84,0.84,0,0,1,.55.78A1.17,1.17,0,0,1,21.51,16a2.33,2.33,0,0,0-.12-0.59,1.13,1.13,0,0,0,.33-1.31m-6.93,6.67a1.65,1.65,0,0,1,.72-0.43c0.21,0.1.43,0.2,0.65,0.29a2.22,2.22,0,0,0-.93.57C15,21.51,15,22,14.75,22.33a1.32,1.32,0,0,1-.79.31,3.39,3.39,0,0,0-.21.52,2.16,2.16,0,0,1-.47-0.38,1.45,1.45,0,0,1,.22-0.53A1.39,1.39,0,0,0,14.25,22c0.25-.38.25-0.89,0.54-1.25h0Z"/><path class="z" d="M10.56,8.18a0.58,0.58,0,0,1,.87.17,1,1,0,0,1-.53,1.2A1,1,0,0,0,10.46,9c0.23,0,.59,0,0.61-0.3a0.49,0.49,0,0,0-.51-0.47h0Z"/><path class="aa" d="M10.56,8.18a0.49,0.49,0,0,1,.51.47c0,0.31-.38.29-0.61,0.3a0.65,0.65,0,0,1-.11-0.47,2.21,2.21,0,0,1,.21-0.3h0Z"/><path class="ab" d="M16.83,8.68c0-.22.3-0.11,0.46-0.14a1,1,0,0,0,.36.45,0.71,0.71,0,0,1-.82-0.31h0Z"/><path class="ac" d="M17.47,8.53l0.37,0-0.13.33a0.25,0.25,0,0,1-.24-0.31h0Z"/><path class="ad" d="M19,8.7a1,1,0,0,1,.43.45,6,6,0,0,1-.43.7l-0.39-.11a0.66,0.66,0,0,0-.11.23c-0.21-.18-0.37.13-0.48,0.27a3.36,3.36,0,0,1-.51,0,0.64,0.64,0,0,1,.34-0.71,0.51,0.51,0,0,1,.46.21,5.5,5.5,0,0,0,.68-1M16.5,22.54a0.89,0.89,0,0,1,.36-0.15l0.21,0,0.18,0.33a0.84,0.84,0,0,0-.47.55,1.43,1.43,0,0,1-.28-0.77h0Z"/><path class="ae" d="M13.83,9.83a0.7,0.7,0,0,1,.06-0.4,1.42,1.42,0,0,0,.93.78,3.84,3.84,0,0,1-.58,1.38,0.91,0.91,0,0,0,0,.57,0.78,0.78,0,0,1-.6.75,1.82,1.82,0,0,0-.21-0.79,5.54,5.54,0,0,0-.85-0.87c0.37,0,.73.09,1.1,0.11a6.08,6.08,0,0,0,.62-1,1,1,0,0,1-.46-0.56m6.11,0.81a0.8,0.8,0,0,1,1,.83,1.32,1.32,0,0,1-.44.73,8,8,0,0,0-1.23,1.19,1.21,1.21,0,0,0-.08,1.18c0.29,0.64.91,1.07,1.15,1.74a1.3,1.3,0,0,1-.1,1.1,1,1,0,0,1-1.06.37A1.6,1.6,0,0,1,18,16.88a4.7,4.7,0,0,0,.4.3,1.23,1.23,0,0,0,1.18.1,0.73,0.73,0,0,0,.29-0.86,4.09,4.09,0,0,0-.82-1.21,1.83,1.83,0,0,1-.39-1.76,7.8,7.8,0,0,1,1.53-1.67,0.74,0.74,0,0,0,.17-0.49A0.48,0.48,0,0,0,19.77,11l-0.32.22a0.9,0.9,0,0,1,.49-0.54m-9.53,1.61,0.33,0c0,1,0,1.91,0,2.86l0.26,0A2.27,2.27,0,0,0,11.5,15c0.41-.23.79-0.53,1.18-0.79s0.69-.4,1-0.61a4.07,4.07,0,0,0,1,.15c-0.47.34-1,.6-1.5,0.89s-0.82.49-1.24,0.72a6.46,6.46,0,0,1-1.69.25,0.83,0.83,0,0,0-.61.6l0,0.09c-0.13-.06,0-0.22,0-0.33a1.41,1.41,0,0,1,.83-0.77c0-1,0-1.94,0-2.91m5.46,3.13a0.9,0.9,0,0,1,.61.57,0.73,0.73,0,0,1-.38.78,19.76,19.76,0,0,0-2.43,1.32,0.77,0.77,0,0,0-.29.69,0.93,0.93,0,0,0,.58.65,2.5,2.5,0,0,1-.89,1.73c-0.56.33-1.25,0-1.84,0.2a0.39,0.39,0,0,0-.24.39c0,0.31.06,0.63,0.09,0.94a0.51,0.51,0,0,1-.15-0.38,1.56,1.56,0,0,1,.16-1A1.64,1.64,0,0,1,11.63,21,1.69,1.69,0,0,0,13,20.81a2.32,2.32,0,0,0,.38-1.27,5.08,5.08,0,0,1-.5-0.65,1.65,1.65,0,0,1,.62-1.4,5.43,5.43,0,0,1,1.64-1.1,1.38,1.38,0,0,0,.77-0.32,2.44,2.44,0,0,0,0-.68m0.28,3.18a1.83,1.83,0,0,1,.6.06,6.64,6.64,0,0,0,.45.64c0.25,0.1.54,0.05,0.79,0.15a1,1,0,0,1,.31.73,2.49,2.49,0,0,1-.44,1.31,3.19,3.19,0,0,0-1.48.23,1.19,1.19,0,0,0-.15,1.13,1.23,1.23,0,0,1,0-1.14,2,2,0,0,1,1.32-.41,0.28,0.28,0,0,0,.2-0.28,2,2,0,0,0,0-.69L17.65,20l-0.37-.12a1.87,1.87,0,0,1-1-.91c-0.06-.13-0.12-0.27-0.17-0.41h0Z"/><path class="af" d="M19,9.85a1,1,0,0,0,.82-0.32,0.89,0.89,0,0,1-.62.75l-0.29,0c-0.14-.08-0.27-0.18-0.4-0.27a0.66,0.66,0,0,1,.11-0.23L19,9.85h0Z"/><path class="ag" d="M10.41,10.15l0.36,0c0,0.06,0,.17,0,0.22H10.41c0-.06,0-0.17,0-0.23h0Z"/><path class="ah" d="M11,10.24a4,4,0,0,1,.44.27,3.92,3.92,0,0,1,.28.36,2.23,2.23,0,0,1-.62-0.25,1,1,0,0,1-.1-0.38h0Z"/><path class="ai" d="M19,10.24l0.29,0,0.35,0.14a2.64,2.64,0,0,0-.24.32,2.11,2.11,0,0,1-.36-0.2,1.1,1.1,0,0,1,0-.3h0Z"/><path class="aj" d="M2.61,10.42a1.46,1.46,0,1,1-1,1.54,1.48,1.48,0,0,1,1-1.54m-0.23.31a0.43,0.43,0,0,0,.27.11c0.3-.06.61-0.1,0.91-0.15a1.19,1.19,0,0,0-1.18,0M2,11.1c0.5,0.24,1,.53,1.46.8l0.09-.4a3.77,3.77,0,0,0-1.27-.69L2,11.1m0.81-.23a0.56,0.56,0,0,0,.42.22l0.82,0a1.68,1.68,0,0,0-.21-0.22,2.51,2.51,0,0,0-1,0m0.47,0.3a1.78,1.78,0,0,0,.34.26,5.41,5.41,0,0,0,.63,0l-0.11-.24a2.66,2.66,0,0,0-.86,0m-1.47.45a5.49,5.49,0,0,0,1.49.72c0-.13.17-0.3,0-0.4a8,8,0,0,0-1.37-.75,1.75,1.75,0,0,0-.14.43M4,11.5A3.52,3.52,0,0,1,3.53,13a1.27,1.27,0,0,0,.76-1.4L4,11.5M3.12,12.82L3.3,13a2,2,0,0,0,.64-1.42H3.65a7.07,7.07,0,0,1-.53,1.3M1.76,11.75a0.7,0.7,0,0,0,.17.56A2.36,2.36,0,0,0,3,12.77l0.17-.34a14.51,14.51,0,0,1-1.45-.68M2,12.5c0,0.11,0,.15.11,0.12s0-.15-0.11-0.12m0.22,0.11a0.46,0.46,0,0,0,.42.39,0.41,0.41,0,0,0-.42-0.39M2.65,12.8a1.15,1.15,0,0,0,.18.26,1,1,0,0,0,.43,0,0.66,0.66,0,0,0-.61-0.27h0Z"/><path class="ak" d="M26.58,10.42a1.46,1.46,0,1,1-1,1.46,1.44,1.44,0,0,1,1-1.46m-0.25.31a0.43,0.43,0,0,0,.29.11c0.3-.06.61-0.1,0.91-0.15a1.24,1.24,0,0,0-1.2,0m-0.38.38c0.5,0.24,1,.53,1.46.79a1,1,0,0,0,.08-0.39,3.61,3.61,0,0,0-1.26-.69l-0.28.29m0.81-.23a0.6,0.6,0,0,0,.35.22c0.29,0,.58,0,0.88,0a1.7,1.7,0,0,0-.19-0.22,2.39,2.39,0,0,0-1,0m0.47,0.3a1.43,1.43,0,0,0,.34.26,6.15,6.15,0,0,0,.62,0l-0.1-.24a2.39,2.39,0,0,0-.86,0m-1.37.06a1.67,1.67,0,0,0-.11.39,6.73,6.73,0,0,0,1.46.72L27.36,12a7,7,0,0,0-1.19-.71,0.44,0.44,0,0,0-.31-0.08m1.71,0.4a7.45,7.45,0,0,1-.49,1.18L27.27,13a1.9,1.9,0,0,0,.61-1.46c-0.11,0-.28,0-0.31.14M28,11.49a2.82,2.82,0,0,1-.58,1.5,1.25,1.25,0,0,0,.82-1.41,0.45,0.45,0,0,0-.25-0.1m-2.26.27a0.69,0.69,0,0,0,.11.51,2.35,2.35,0,0,0,1.09.49,0.6,0.6,0,0,0,.24-0.33,14.56,14.56,0,0,1-1.44-.67M26,12.51c0,0.11,0,.15.12,0.12s0-.15-0.12-0.12m0.22,0.11a0.44,0.44,0,0,0,.41.39,0.41,0.41,0,0,0-.41-0.39m0.43,0.17a1.19,1.19,0,0,0,.17.26,1.34,1.34,0,0,0,.4,0,0.5,0.5,0,0,0-.56-0.31h0Z"/><path class="al" d="M2.38,10.73a1.19,1.19,0,0,1,1.18,0c-0.3,0-.61.09-0.91,0.15a0.43,0.43,0,0,1-.27-0.11h0Z"/><path class="am" d="M26.33,10.73a1.24,1.24,0,0,1,1.2,0c-0.31,0-.61.09-0.91,0.15a0.43,0.43,0,0,1-.29-0.11h0Z"/><path class="an" d="M10.08,10.63a0.82,0.82,0,0,1,.79.39,2.85,2.85,0,0,1-.81,0c0-.13,0-0.26,0-0.4h0Z"/><path class="ao" d="M18.07,10.63h0.44c0,0.28,0,.55.07,0.83a0.85,0.85,0,0,0-.91-0.2,1,1,0,0,0-.18,1.05,0.77,0.77,0,0,1-.47-0.5,0.81,0.81,0,0,1,.24-1,1,1,0,0,1,.87.25c0-.16,0-0.31,0-0.47m0.15,1.78,0,0.13,0.28-.11a0.91,0.91,0,0,1,0,1,1.41,1.41,0,0,1-1,.33,5.84,5.84,0,0,0,.33,1.31,8.08,8.08,0,0,0,.55,2.1,4.7,4.7,0,0,1-.4-0.3,6.59,6.59,0,0,1-.63-2.26,4.34,4.34,0,0,1-.33-1.24A1.3,1.3,0,0,0,18,13.1a0.9,0.9,0,0,0,.2-0.69h0Z"/><path class="ap" d="M21.64,10.7a0.94,0.94,0,0,1,.57.94,1.57,1.57,0,0,1-.57,1.18c-0.26.23-.54,0.44-0.81,0.67a2,2,0,0,0-1.25.48A1.71,1.71,0,0,1,20,13.41,7.79,7.79,0,0,0,21.56,12a1.42,1.42,0,0,0,.07-1.26m-1.71,4.38a0.6,0.6,0,0,1,.39-0.46A0.56,0.56,0,0,1,21,15a0.81,0.81,0,0,0-.48.18,0.39,0.39,0,0,0,0,.54A3.43,3.43,0,0,1,21.38,17a1.23,1.23,0,0,1-.26,1.26,1.68,1.68,0,0,1-1.64.32,1.69,1.69,0,0,1-1-.54,2.27,2.27,0,0,0,1.88,0,1.2,1.2,0,0,0,.53-1.4,4.76,4.76,0,0,0-1-1.58m-7.12,1.75a3.41,3.41,0,0,0,1.81-1.32c0.11,0.21.22,0.42,0.35,0.62a4.18,4.18,0,0,1-1.69,1.07,1.72,1.72,0,0,0-.56-0.34,1.17,1.17,0,0,0-.92.42c-0.1.23-.22,0.46-0.32,0.69,0,0.44,0,.89,0,1.33a2.45,2.45,0,0,1,.22.69,4.54,4.54,0,0,0-.07,1,1.64,1.64,0,0,0-.54.24,0.59,0.59,0,0,1-.39-0.35,0.77,0.77,0,0,0,.48-0.35c0-.2,0-0.41,0-0.62a3.15,3.15,0,0,0,.06-0.58A0.48,0.48,0,0,1,11,19.05c0-.54,0-1.09,0-1.63l0.19,0a1,1,0,0,1,1.13-.87,1.71,1.71,0,0,1,.49.33m2.07,2.51a1.57,1.57,0,0,1,1.27-.78c0.05,0.14.11,0.27,0.17,0.41a2.2,2.2,0,0,0-.87.54,1.17,1.17,0,0,0-.17.54,0.58,0.58,0,0,1-.41-0.72m-3.49,3,0.17-.11a0.42,0.42,0,0,1,.38.41l-0.32.45a0.8,0.8,0,0,1-.22-0.76m0.87,0.39a0.83,0.83,0,0,1,.4-0.51,1.69,1.69,0,0,1,.38.4,2.38,2.38,0,0,0-.4.62,1.23,1.23,0,0,1-.38-0.52M17.5,22.8a0.51,0.51,0,0,1,.45-0.39l0.31,0.32,0,0a2.84,2.84,0,0,0-.43.54,1.83,1.83,0,0,1-.37-0.51h0Z"/><path class="aq" d="M2,11.1l0.27-.29a3.77,3.77,0,0,1,1.27.69l-0.09.4C3,11.63,2.48,11.34,2,11.1m23.75,0.66a14.56,14.56,0,0,0,1.44.67,0.6,0.6,0,0,1-.24.33,2.35,2.35,0,0,1-1.09-.49,0.69,0.69,0,0,1-.11-0.51h0Z"/><path class="ar" d="M2.79,10.87a2.51,2.51,0,0,1,1,0,1.68,1.68,0,0,1,.21.22l-0.82,0a0.56,0.56,0,0,1-.42-0.22h0Z"/><path class="aq" d="M25.95,11.1l0.28-.29a3.61,3.61,0,0,1,1.26.69,1,1,0,0,1-.08.39c-0.49-.26-1-0.55-1.46-0.79h0Z"/><path class="as" d="M26.76,10.87a2.39,2.39,0,0,1,1,0,1.7,1.7,0,0,1,.19.22c-0.29,0-.58,0-0.88,0a0.6,0.6,0,0,1-.35-0.22h0Z"/><path class="at" d="M19.77,11a0.48,0.48,0,0,1,.61.34,1.7,1.7,0,0,0-.62.49,6.21,6.21,0,0,0,0-.83h0Z"/><path class="au" d="M3.26,11.17a2.66,2.66,0,0,1,.86,0l0.11,0.24a5.41,5.41,0,0,1-.63,0,1.78,1.78,0,0,1-.34-0.26h0Z"/><path class="an" d="M10.17,11.21a1.51,1.51,0,0,1,.71.21,1,1,0,0,1-.83.15c0-.12,0-0.31.12-0.36h0Z"/><path class="av" d="M27.23,11.17a2.39,2.39,0,0,1,.86,0l0.1,0.24a6.15,6.15,0,0,1-.62,0,1.43,1.43,0,0,1-.34-0.26h0Z"/><path class="aq" d="M1.79,11.62a1.75,1.75,0,0,1,.14-0.43,8,8,0,0,1,1.37.75c0.14,0.1,0,.27,0,0.4a5.49,5.49,0,0,1-1.49-.72m1.06,6.22a0.36,0.36,0,1,1,0,.62,0.35,0.35,0,0,1,0-.62m0.58,0.63a0.81,0.81,0,0,1,.75.43,1.09,1.09,0,0,1-.46.36,0.91,0.91,0,0,1-.49.24,0.9,0.9,0,0,1-.1-0.86,1.92,1.92,0,0,1,.38.26c0-.15-0.06-0.29-0.09-0.44h0Z"/><path class="aq" d="M25.86,11.24a0.44,0.44,0,0,1,.31.08,7,7,0,0,1,1.19.71l-0.16.32a6.73,6.73,0,0,1-1.46-.72,1.67,1.67,0,0,1,.11-0.39m-24,7.59c0-.36.51-0.4,0.79-0.42-0.05.15-.11,0.3-0.16,0.44l0.38-.26a1,1,0,0,1,0,.76,0.22,0.22,0,0,1-.36,0C2.25,19.17,2,19,1.83,18.83h0Z"/><path class="au" d="M4,11.5l0.25,0.05A1.27,1.27,0,0,1,3.53,13,3.52,3.52,0,0,0,4,11.5H4Z"/><path class="aw" d="M27.57,11.64c0-.15.2-0.11,0.31-0.14A1.9,1.9,0,0,1,27.27,13l-0.18-.14a7.45,7.45,0,0,0,.49-1.18h0Z"/><path class="ax" d="M28,11.49a0.45,0.45,0,0,1,.25.1A1.25,1.25,0,0,1,27.42,13a2.82,2.82,0,0,0,.58-1.5h0Z"/><path class="ay" d="M3.12,12.82a7.07,7.07,0,0,0,.53-1.3H3.94A2,2,0,0,1,3.3,13l-0.18-.14h0Z"/><path class="az" d="M10.15,11.79a0.6,0.6,0,0,1,.63.13,1.68,1.68,0,0,1-.63.12V11.79h0Z"/><path class="aq" d="M1.76,11.75a14.51,14.51,0,0,0,1.45.68L3,12.77a2.36,2.36,0,0,1-1.12-.46,0.7,0.7,0,0,1-.17-0.56m25.8,6.67a1.25,1.25,0,0,1,.7.19,0.2,0.2,0,0,1,0,.35c-0.17.14-.35,0.27-0.51,0.42a0.22,0.22,0,0,1-.36,0,1.57,1.57,0,0,1-.09-0.66,0.56,0.56,0,0,1,.44.17c-0.05-.15-0.11-0.29-0.15-0.44h0Z"/><path class="ba" d="M11,12.35a7.43,7.43,0,0,1,1.08.3l0.09,0.22-0.72-.13c0,0.74,0,1.47,0,2.21a2.27,2.27,0,0,1-.46.16c0-.92,0-1.84,0-2.76h0Z"/><path class="bb" d="M2,12.5c0.11,0,.15,0,0.11.12S2,12.61,2,12.5H2Z"/><path class="bc" d="M26,12.51c0.11,0,.15,0,0.12.12s-0.15,0-.12-0.12h0Z"/><path class="bd" d="M2.21,12.61a0.41,0.41,0,0,1,.42.39,0.46,0.46,0,0,1-.42-0.39h0Z"/><path class="be" d="M12.12,12.65a0.48,0.48,0,0,1,.36.53c0,0.3-.43.21-0.64,0.28a1.42,1.42,0,0,0,.39-0.3,0.81,0.81,0,0,0,0-.29l-0.09-.22h0Z"/><path class="bf" d="M26.18,12.62a0.41,0.41,0,0,1,.41.39,0.44,0.44,0,0,1-.41-0.39h0Z"/><path class="bg" d="M2.65,12.8a0.66,0.66,0,0,1,.61.27,1,1,0,0,1-.43,0,1.15,1.15,0,0,1-.18-0.26h0Z"/><path class="bh" d="M26.61,12.79a0.5,0.5,0,0,1,.56.31,1.34,1.34,0,0,1-.4,0,1.19,1.19,0,0,1-.17-0.26h0Z"/><path class="bi" d="M13,13.68a1.81,1.81,0,0,0,.54-0.47l0.2,0.35c-0.34.21-.69,0.39-1,0.61-0.14-.13-0.29-0.26-0.44-0.37A1.69,1.69,0,0,0,13,13.68h0Z"/><path class="bj" d="M20.08,14.46a0.76,0.76,0,0,1,1.18,0,1.07,1.07,0,0,1,.07.92,1.16,1.16,0,0,1-.31.16c0-.21,0-0.41,0-0.61a0.56,0.56,0,0,0-.68-0.36,0.6,0.6,0,0,0-.39.46,0.87,0.87,0,0,1,.15-0.62m-9.9,2.08,0.31-.08c0,0.18-.06.36-0.08,0.54A4.11,4.11,0,0,1,11,16.79c0,0.19,0,.37,0,0.56l-0.24-.25c0,0.7,0,1.41,0,2.11a0.35,0.35,0,0,1-.12.33,2.25,2.25,0,0,1-.5.09c0-.11,0-0.23,0-0.34l0.28-.1c0-.56,0-1.13,0-1.69a3.37,3.37,0,0,0-.25-1h0Z"/><path class="bk" d="M9.75,16.14a2.53,2.53,0,0,1,.45-0.06,1.89,1.89,0,0,0-.24.59l0,0.09a3.56,3.56,0,0,0-.19-0.62h0Z"/><path class="bl" d="M2.32,17a0.47,0.47,0,0,1,.34-0.37c0.3,0,.6,0,0.91.05a0.48,0.48,0,0,1,.36.4,0.52,0.52,0,0,1,.46.26c0.06,0.29.15,0.57,0.22,0.86a0.44,0.44,0,0,1-.28.43,0.53,0.53,0,0,1-.12.56c-0.25.14-.48,0.3-0.72,0.45A0.48,0.48,0,0,1,3,19.53a0.66,0.66,0,0,1-.52.06C2.28,19.48,2.14,19.32,2,19.2a0.79,0.79,0,0,1-.31-0.31,1.15,1.15,0,0,1,0-.42A0.45,0.45,0,0,1,1.49,18c0.12-.26.22-0.53,0.31-0.79A0.47,0.47,0,0,1,2.32,17m0.21-.09a1,1,0,0,0,.31.71C3,17.68,3,17.36,3.09,17.25a2.76,2.76,0,0,1,.12.41,0.91,0.91,0,0,0,.46-0.49,0.19,0.19,0,0,0-.09-0.3,4,4,0,0,0-.67-0.05,0.36,0.36,0,0,0-.38.09m-0.76.87a0.51,0.51,0,0,0-.08.44,1.1,1.1,0,0,0,.82,0,0.84,0.84,0,0,0-.27-0.36,0.58,0.58,0,0,0,.4,0,1,1,0,0,0-.54-0.65,1.54,1.54,0,0,0-.34.65M3.48,17.9H3.92c-0.1.11-.38,0.15-0.3,0.34a1.55,1.55,0,0,0,.6.2,0.2,0.2,0,0,0,.2-0.24c-0.07-.26-0.14-0.53-0.21-0.8a0.19,0.19,0,0,0-.29-0.09,1,1,0,0,0-.44.58m-0.63-.06a0.35,0.35,0,0,0,0,.62,0.36,0.36,0,1,0,0-.62m-1,1C2,19,2.25,19.17,2.44,19.36a0.22,0.22,0,0,0,.36,0,1,1,0,0,0,0-.76l-0.38.26c0.05-.15.11-0.29,0.16-0.44-0.28,0-.79.05-0.79,0.42m1.61-.35c0,0.15.06,0.29,0.09,0.44a1.92,1.92,0,0,0-.38-0.26,0.9,0.9,0,0,0,.1.86,0.91,0.91,0,0,0,.49-0.24,1.09,1.09,0,0,0,.46-0.36,0.81,0.81,0,0,0-.75-0.43h0Z"/><path class="bm" d="M26.48,16.72a1.09,1.09,0,0,1,.46-0.05,5.89,5.89,0,0,1,.62,0,0.48,0.48,0,0,1,.29.36,0.49,0.49,0,0,1,.51.18c0.11,0.27.2,0.54,0.32,0.8a0.42,0.42,0,0,1-.22.49,0.53,0.53,0,0,1-.05.58l-0.64.53a0.48,0.48,0,0,1-.56-0.07,1.13,1.13,0,0,1-.27.18,0.8,0.8,0,0,1-.54-0.24c-0.15-.11-0.33-0.18-0.48-0.3a0.56,0.56,0,0,1-.07-0.49,0.52,0.52,0,0,1-.28-0.45c0.07-.29.16-0.57,0.22-0.86a0.52,0.52,0,0,1,.49-0.27,0.53,0.53,0,0,1,.2-0.36m0.39,0.12a0.39,0.39,0,0,0-.38.13,0.92,0.92,0,0,0,.47.71c0-.15.08-0.29,0.12-0.44,0.05,0.13.1,0.26,0.15,0.38a0.39,0.39,0,0,0,.28-0.26c0.1-.15.24-0.41,0-0.54s-0.45,0-.67,0m1,0.37a1.18,1.18,0,0,0-.39.62H28a0.56,0.56,0,0,0-.31.35c0.27,0.08.68,0.27,0.87,0-0.12-.26-0.22-0.54-0.32-0.81a0.19,0.19,0,0,0-.31-0.11m-2,.3a2.46,2.46,0,0,0-.15.91,1.13,1.13,0,0,0,.85-0.23,3.77,3.77,0,0,0-.39-0.28l0.47,0a1.14,1.14,0,0,0-.48-0.58,0.2,0.2,0,0,0-.3.19m1,0.31a0.36,0.36,0,1,0,.51.37A0.36,0.36,0,0,0,27,17.83m-0.44.67A0.62,0.62,0,0,0,26,19l0.76,0.5a0.2,0.2,0,0,0,.3-0.11,1.8,1.8,0,0,0,0-.72,3.51,3.51,0,0,0-.4.27c0-.14.08-0.28,0.12-0.42a0.36,0.36,0,0,0-.24,0m1-.09c0,0.15.1,0.29,0.15,0.44a0.56,0.56,0,0,0-.44-0.17,1.57,1.57,0,0,0,.09.66,0.22,0.22,0,0,0,.36,0c0.16-.15.34-0.29,0.51-0.42a0.2,0.2,0,0,0,0-.35,1.25,1.25,0,0,0-.7-0.19h0Z"/><path class="aq" d="M2.53,16.91a0.36,0.36,0,0,1,.38-0.09,4,4,0,0,1,.67.05,0.19,0.19,0,0,1,.09.3,0.91,0.91,0,0,1-.46.49,2.76,2.76,0,0,0-.12-0.41C3,17.36,3,17.68,2.85,17.62a1,1,0,0,1-.31-0.71m-0.76.87a1.54,1.54,0,0,1,.34-0.65,1,1,0,0,1,.54.65,0.58,0.58,0,0,1-.4,0,0.84,0.84,0,0,1,.27.36,1.1,1.1,0,0,1-.82,0,0.51,0.51,0,0,1,.08-0.44m26.14-.57a0.19,0.19,0,0,1,.31.11c0.1,0.27.2,0.54,0.32,0.81-0.19.32-.6,0.12-0.87,0A0.56,0.56,0,0,1,28,17.82H27.52a1.18,1.18,0,0,1,.39-0.62M3.48,17.9a1,1,0,0,1,.44-0.58,0.19,0.19,0,0,1,.29.09c0.07,0.26.14,0.53,0.21,0.8a0.2,0.2,0,0,1-.2.24,1.55,1.55,0,0,1-.6-0.2c-0.07-.19.2-0.23,0.3-0.34H3.48m22.45-.39a0.2,0.2,0,0,1,.3-0.19,1.14,1.14,0,0,1,.48.58l-0.47,0a3.77,3.77,0,0,1,.39.28,1.13,1.13,0,0,1-.85.23,2.46,2.46,0,0,1,.15-0.91m1,0.31a0.36,0.36,0,1,1-.08.59A0.35,0.35,0,0,1,27,17.83m-0.44.67a0.36,0.36,0,0,1,.24,0c0,0.14-.09.28-0.12,0.42a3.51,3.51,0,0,1,.4-0.27,1.8,1.8,0,0,1,0,.72,0.2,0.2,0,0,1-.3.11L26,19a0.62,0.62,0,0,1,.53-0.48h0Z"/><path class="aq" d="M26.87,16.84c0.22,0,.45,0,0.67,0s0.06,0.39,0,.54a0.39,0.39,0,0,1-.28.26c-0.06-.12-0.1-0.25-0.15-0.38,0,0.15-.08.3-0.12,0.44A0.92,0.92,0,0,1,26.48,17a0.39,0.39,0,0,1,.38-0.13h0Z"/><path class="bn" d="M10.77,17.1L11,17.35v0.07c0,0.54,0,1.09,0,1.63a0.48,0.48,0,0,0,.23.28,3.15,3.15,0,0,1-.06.58c0,0.2,0,.41,0,0.62a0.77,0.77,0,0,1-.48.35,0.87,0.87,0,0,1-.53-0.44,1.9,1.9,0,0,0,.52.11A0.34,0.34,0,0,0,10.8,20a1.86,1.86,0,0,0-.67-0.13c0-.05,0-0.16,0-0.22a2.25,2.25,0,0,0,.5-0.09,0.35,0.35,0,0,0,.12-0.33c0-.7,0-1.41,0-2.11h0Z"/><path class="bo" d="M17.84,17.61l0.5,0.31a2,2,0,0,0,.24.91,1.78,1.78,0,0,1-.74-1.21h0Z"/><path class="bp" d="M19.57,19.43l0.79,0a3.29,3.29,0,0,0-.83,2.49,2.93,2.93,0,0,1,0,.78,0.9,0.9,0,0,1-.53.25l-0.19.31-0.47-.39a0.53,0.53,0,0,1,.33-0.34,0.4,0.4,0,0,0,.43-0.38,4,4,0,0,1,.47-2.68h0Z"/><path class="bq" d="M10.13,19.86a1.86,1.86,0,0,1,.67.13,0.34,0.34,0,0,1-.11.57,1.9,1.9,0,0,1-.52-0.11,0.83,0.83,0,0,1,.17-0.5l-0.21-.09h0Z"/><path class="br" d="M17.28,19.89L17.65,20l0.07,0.3a1.28,1.28,0,0,1-.45-0.42h0Z"/><path class="bs" d="M12.66,22.21h0.48l0.14,0.57A1.7,1.7,0,0,1,13,22.61a1.69,1.69,0,0,0-.38-0.4h0Z"/><path class="bt" d="M16.86,22.4l0.45,0q0,0.29,0,.57l-0.09-.16-0.18-.33-0.21,0h0Z"/><path class="bu" d="M17.95,22.41l0.21,0,0.1,0.3-0.31-.32h0Z"/><path class="bv" d="M23.49,22.9c0-.16.41-0.16,0.43,0H23.49Z"/><path class="bw" d="M23.48,23A0.41,0.41,0,0,1,24,23a4.29,4.29,0,0,1,.3.4,0.71,0.71,0,0,1,.42.4A1.45,1.45,0,0,1,24,24.88c-0.4-.39-0.82-0.77-1.18-1.2A7.69,7.69,0,0,1,23.48,23m-0.23.5a2,2,0,0,0,.4.38,0.38,0.38,0,0,0,.1-0.48c-0.15-.18-0.36,0-0.5.1M24,23.86L23.84,24l-0.06,0a1,1,0,0,0,.34.42c0.1-.12.28-0.29,0.15-0.46a0.28,0.28,0,0,0-.3-0.07m-18.5,0c0.3-.26.57-0.55,0.86-0.81a4.23,4.23,0,0,1,.71.71l-0.18.18-0.42-.38-0.25.26,0.35,0.38-0.14.23L6,24c-0.18.18-.37,0.35-0.53,0.54l-0.33-.35c0.12-.13.24-0.26,0.37-0.38m6.43,2.5a2.34,2.34,0,0,1,1,.27,0.59,0.59,0,0,1,.09.64l0,0.1a1.09,1.09,0,0,1-.36.78,2.22,2.22,0,0,1-1-.16c0.07-.55.24-1.08,0.36-1.63m0.35,0.34c0,0.14,0,.29,0,0.43,0.12,0,.36,0,0.34-0.16a0.27,0.27,0,0,0-.3-0.27m-0.14.65a1.88,1.88,0,0,0-.1.5,0.42,0.42,0,0,0,.41-0.12,1.19,1.19,0,0,0,0-.31l-0.27-.07h0Z"/><path class="bx" d="M23.26,23.52c0.14-.1.35-0.28,0.5-0.1a0.38,0.38,0,0,1-.1.48,2,2,0,0,1-.4-0.38m0.14,0a2.21,2.21,0,0,0,.25.25l0.11-.18-0.1-.18-0.25.11h0Z"/><path class="by" d="M23.4,23.52l0.25-.11,0.1,0.18-0.11.18a2.21,2.21,0,0,1-.25-0.25h0Z"/><path class="bz" d="M22.45,23.88l0.21-.2L23,24.08a1.36,1.36,0,0,0,.12.63,6.93,6.93,0,0,0-.72-0.84h0Z"/><path class="ca" d="M24,23.86a0.28,0.28,0,0,1,.3.07c0.13,0.17,0,.33-0.15.46A1,1,0,0,1,23.78,24l0.06,0,0.31,0.23L24.23,24,24,23.86h0Z"/><path class="cb" d="M23.84,24L24,23.86,24.23,24l-0.09.23L23.84,24h0Z"/><path class="cc" d="M22.28,24.21L22.49,24a8.43,8.43,0,0,1,.73,1,0.6,0.6,0,0,1-.31.85,1.3,1.3,0,0,1-.67,0l-0.06-.1c-0.19-.34-0.45-0.63-0.67-0.95l0.34-.26c0.27,0.3.47,0.66,0.75,0.95A0.23,0.23,0,0,0,23,25.19c-0.2-.35-0.49-0.64-0.71-1h0Z"/><path class="cd" d="M7,24.28a1,1,0,0,1,.75-0.07,0.92,0.92,0,0,1,.56.56,1.13,1.13,0,0,1-.45,1.09,1,1,0,0,1-1.34-.48A1.14,1.14,0,0,1,7,24.28m0.46,0.28c-0.36.14-.71,0.75-0.31,1a0.7,0.7,0,0,0,.71-0.86,0.35,0.35,0,0,0-.41-0.16h0Z"/><path class="ce" d="M7.52,24.64a0.26,0.26,0,0,1,.29.35,0.85,0.85,0,0,1-.48.51A0.25,0.25,0,0,1,7,25.17a0.79,0.79,0,0,1,.49-0.53h0Z"/><path class="cf" d="M8.3,24.77l0-.14a1.42,1.42,0,0,1,.12.65,1.09,1.09,0,0,1,.34-0.1H8.86a1.45,1.45,0,0,0-.57.62,1,1,0,0,0,.13.92,0.91,0.91,0,0,1-.35-0.83l-0.22,0a1.13,1.13,0,0,0,.45-1.09h0Z"/><path class="cg" d="M23.34,25a0.27,0.27,0,0,1,0,.45c0-.15,0-0.3,0-0.45h0Z"/><path class="ch" d="M20.39,25.32l0.37-.17c0.19,0.31.37,0.63,0.55,1a0.42,0.42,0,0,0,.17.2A4.85,4.85,0,0,0,22,26l0.13,0.26c-0.29.17-.57,0.35-0.87,0.5a11.13,11.13,0,0,1-.85-1.48m-10,.5c0.36,0.11.72,0.24,1.07,0.38l0,0.25L11,26.37c-0.16.43-.3,0.86-0.48,1.29l-0.39-.16c0.1-.32.21-0.63,0.32-0.94l0.09-.22,0-.09L10.27,26l0.12-.19h0Z"/><path class="ci" d="M8.86,25.19a1.18,1.18,0,0,1,1,.37,1.08,1.08,0,0,1-.06,1.15,0.94,0.94,0,0,1-1.34,0,1,1,0,0,1-.13-0.92,1.45,1.45,0,0,1,.57-0.62M9,25.65a0.65,0.65,0,0,0-.18.93,0.6,0.6,0,0,0,.67-0.72A0.28,0.28,0,0,0,9,25.65m10.53,0.06a1.12,1.12,0,0,1,.7.14l-0.12.23a0.84,0.84,0,0,0-.7.09,0.65,0.65,0,0,0,.09.79,0.58,0.58,0,0,0,.56.12L20.16,27l0.19-.28,0.24,0a0.93,0.93,0,0,1-.42.67,1.11,1.11,0,0,1-1,0l-0.16-.15a1.61,1.61,0,0,1-.19-0.63,0.84,0.84,0,0,1,.69-0.85h0Z"/><path class="cj" d="M9,25.65a0.28,0.28,0,0,1,.48.2,0.6,0.6,0,0,1-.67.72A0.65,0.65,0,0,1,9,25.65H9Z"/><path class="ck" d="M10,25.66l0.34,0.08-0.12.36,0.37,0.23-0.09.22-0.13.19c0-.15,0-0.3,0-0.44a0.29,0.29,0,0,0-.41.14,1.33,1.33,0,0,0,0-.79h0Z"/><path class="cl" d="M10.44,25.74a1,1,0,0,1,.87.31c-0.3-.08-0.58-0.2-0.87-0.31h0Z"/><path class="cm" d="M11.11,26.51a1.76,1.76,0,0,1,.34,0h0a1.1,1.1,0,0,0-.6.38,1,1,0,0,1,.21-0.43h0Z"/><path class="cc" d="M16.39,26.63l0.4-.08c0.11,0.46.13,0.93,0.25,1.39l0.55-.09,0.07,0.26a8.7,8.7,0,0,1-1,.16q-0.14-.82-0.26-1.64m-2.39,0a12.5,12.5,0,0,1,.57,1.77l-0.41,0L14,28l-0.4-.06-0.2.38H13.18A13.77,13.77,0,0,1,14,26.62m-0.17.89c-0.13,0-.09.26,0,0.23s0.08-.25,0-0.23h0Z"/><path class="cn" d="M15,26.63h0.52A12.28,12.28,0,0,1,15.59,28h0.61q0,0.19,0,.38H16.13l-0.07-.26-0.56,0c0-.46,0-0.91,0-1.37H15.08c0,0.36,0,.72,0,1.08l-0.07,0c0-.16,0-0.32,0-0.48s0-.49,0-0.73h0Z"/><path class="co" d="M11.58,27.29a0.67,0.67,0,0,1,.14-0.59c0,0.2-.08.39-0.14,0.59h0Z"/><path class="cp" d="M15.08,26.72h0.38c0,0.46,0,.91,0,1.37l0.56,0,0.07,0.26H15.62a2.06,2.06,0,0,0-.51,0c0-.18,0-0.36,0-0.54,0-.36,0-0.72,0-1.08h0Z"/><path class="cq" d="M16.92,26.71c0.14,0,.11.19,0.14,0.3a6.82,6.82,0,0,0,.09.69,2.31,2.31,0,0,1,.53,0l-0.57.11a7.49,7.49,0,0,1-.19-1.12h0Z"/><path class="cr" d="M12.1,27.32l0.27,0.07a1.19,1.19,0,0,1,0,.31,0.42,0.42,0,0,1-.41.12,1.88,1.88,0,0,1,.1-0.5m0.07,0.09-0.08.34a0.24,0.24,0,0,0,.28-0.23l-0.2-.1h0Z"/><path class="cs" d="M12.17,27.41l0.2,0.1a0.24,0.24,0,0,1-.28.23l0.08-.34h0Z"/><path class="ct" d="M13.83,27.51c0.12,0,.18.2,0,0.23s-0.18-.2,0-0.23h0Z"/><path class="cu" d="M11.43,28a0.38,0.38,0,0,1,.28.06c-0.06.11-.29,0.07-0.28-0.06h0Z"/><path class="cv" d="M12,28.18h0.64a0.48,0.48,0,0,1-.64,0h0Z"/><path class="cw" d="M16.55,28.37c0.32-.06.64-0.08,1-0.11a1.64,1.64,0,0,1-.91.17l0-.06h0Z"/><path class="cx" d="M13.08,28.35a1.5,1.5,0,0,1,.37,0c0,0.16-.35.16-0.37,0h0Z"/><path class="cy" d="M15.11,28.35a2.06,2.06,0,0,1,.51,0c-0.15,0-.45.17-0.51,0h0Z"/></svg>