<?xml version="1.0" encoding="iso-8859-1"?>
<!-- Generator: Adobe Illustrator 16.0.0, SVG Export Plug-In . SVG Version: 6.00 Build 0)  -->
<!DOCTYPE svg PUBLIC "-//W3C//DTD SVG 1.1//EN" "http://www.w3.org/Graphics/SVG/1.1/DTD/svg11.dtd">
<svg version="1.1" id="Layer_1" xmlns="http://www.w3.org/2000/svg" xmlns:xlink="http://www.w3.org/1999/xlink" x="0px" y="0px"
	 width="461.649px" height="463.111px" viewBox="0 0 461.649 463.111" style="enable-background:new 0 0 461.649 463.111;"
	 xml:space="preserve">
<g>
	<path style="fill-rule:evenodd;clip-rule:evenodd;fill:#051F7A;" d="M440.387,270.676c-1.528,2.568-2.749,5.289-3.681,8.129
		l24.303,9.23l-0.56,1.35c-38.883,93.771-111.854,151.03-214.631,159.455l-14.994,14.271l-14.994-14.271
		C113.055,440.415,40.083,383.155,1.2,289.385l-0.56-1.35l24.303-9.23c-0.931-2.84-2.152-5.561-3.68-8.129l-14.854,6.652L5.76,276.9
		c-5.545-3.656-6.276-10.374-5.501-16.457c0.523-4.105,3.956-6.561,7.511-8.063c12.545-5.305,24.966-10.906,37.621-15.949
		c2.779-1.107,5.731-1.291,8.439,0.103c1.904,0.98,3.762,2.111,5.521,3.335l0.127,0.089l0.105,0.114
		c12.16,13.197,11.973,27.493,13.851,44.204l0.126,1.128l-12.275,4.241c22.588,43.391,57.707,76.958,104.172,93.574
		c20.982,7.503,43.104,11.079,65.368,11.079s44.385-3.576,65.368-11.079c46.465-16.616,81.584-50.184,104.173-93.574l-12.275-4.241
		l0.127-1.128c1.878-16.711,1.69-31.007,13.851-44.204l0.104-0.114l0.128-0.089c1.758-1.224,3.616-2.354,5.521-3.335
		c2.708-1.394,5.66-1.21,8.438-0.103c12.655,5.043,25.076,10.645,37.622,15.949c3.555,1.503,6.987,3.958,7.51,8.063
		c0.775,6.083,0.044,12.801-5.501,16.457l-0.649,0.428L440.387,270.676L440.387,270.676z"/>
	<path style="fill-rule:evenodd;clip-rule:evenodd;fill:#FFFFFF;" d="M230.825,461.155l14.379-13.688
		c110.294-8.863,178.462-73.077,213.937-158.626l-24.184-9.186c1.132-3.841,2.743-7.441,4.875-10.781l15.277,6.842
		c3.799-2.505,5.701-7.214,4.875-15.095c-0.424-2.821-2.482-5.177-6.656-6.938c-12.531-5.312-25.062-10.625-37.594-15.938
		c-2.736-1.021-5.154-0.993-7.266,0.047c-1.764,0.947-3.644,2.043-5.359,3.237c-11.894,12.908-11.656,27.135-13.484,43.402
		l12.75,4.406c-36.732,71.799-101.441,105.148-171.55,106.875c-70.109-1.727-134.818-35.076-171.551-106.875l12.75-4.406
		c-1.828-16.268-1.591-30.494-13.484-43.402c-1.716-1.194-3.596-2.29-5.359-3.237c-2.111-1.04-4.53-1.068-7.266-0.047
		c-12.531,5.312-25.062,10.625-37.594,15.938c-4.173,1.761-6.232,4.116-6.656,6.938c-0.826,7.881,1.076,12.59,4.875,15.095
		l15.277-6.842c2.132,3.34,3.743,6.94,4.875,10.781l-24.184,9.186c35.474,85.549,103.642,149.763,213.936,158.626L230.825,461.155
		L230.825,461.155z"/>
	<path style="fill-rule:evenodd;clip-rule:evenodd;fill:#051F7A;" d="M405.923,244.256c-9.871,10.962-10.367,23.562-11.718,37.262
		c3.467,1.198,6.934,2.396,10.4,3.595c1.691-3.854,3.383-7.709,5.073-11.563c0.358-0.68-0.612-0.957-1.546-0.163
		c-2.375,2.062-4.469,5.576-6.938,6.302c-1.718,0.016-3.438,0.031-5.155,0.047c0.171-1.406,0.344-2.529,0.516-3.936
		c2.379,0.683,4.271,1.022,4.78,0.375c1.578-1.906,3.543-3.87,5.121-5.776c0.974-0.74,1.827-0.89,3.363-0.505
		c7.055,2.738,14.108,5.477,21.163,8.215c1.161-3.836,2.779-7.493,4.879-10.903c-6.04-2.541-12.08-5.082-18.12-7.624
		c-1.108-0.419-1.217-1.628-1.219-3.75c0.682-4.344,2.676-10.054,0.006-13.183c-1.409-1.354-3.938-1.982-6.113-1.073
		C408.872,242.369,407.361,243.276,405.923,244.256L405.923,244.256z M55.726,244.256c9.872,10.962,10.367,23.562,11.718,37.262
		c-3.467,1.198-6.934,2.396-10.4,3.595c-1.691-3.854-3.382-7.709-5.073-11.563c-0.358-0.68,0.612-0.957,1.546-0.163
		c2.375,2.062,4.469,5.576,6.938,6.302c1.719,0.016,3.438,0.031,5.156,0.047c-0.172-1.406-0.344-2.529-0.516-3.936
		c-2.379,0.683-4.272,1.022-4.781,0.375c-1.578-1.906-3.543-3.87-5.121-5.776c-0.974-0.74-1.828-0.89-3.364-0.505
		c-7.054,2.738-14.108,5.477-21.163,8.215c-1.161-3.836-2.779-7.493-4.879-10.903c6.04-2.541,12.08-5.082,18.12-7.624
		c1.108-0.419,1.216-1.628,1.219-3.75c-0.682-4.344-2.676-10.054-0.006-13.183c1.409-1.354,3.937-1.982,6.113-1.073
		C52.777,242.369,54.288,243.276,55.726,244.256L55.726,244.256z M7.333,270.703c-1.924-2.584-1.836-6.518-1.451-9.543
		c0.223-1.75,2.699-2.969,4.095-3.559c10-4.229,19.921-8.647,29.946-12.819c0.237,3.714,0.475,7.428,0.712,11.143
		c0.024,0.37-0.183,0.7-0.526,0.841C28.819,261.398,18.477,265.712,7.333,270.703L7.333,270.703z M53.26,286.42
		c0.743,1.452,1.486,2.905,2.229,4.357c23.217,45.381,59.714,80.491,108.06,97.779c21.595,7.723,44.362,11.41,67.276,11.41
		s45.681-3.688,67.276-11.41c48.346-17.288,84.843-52.398,108.06-97.779c0.743-1.452,1.486-2.905,2.229-4.357
		c1.55-3.517,3.101-7.033,4.651-10.549c0.188-0.428,0.689-0.623,1.117-0.437c5.202,2.266,10.404,4.532,15.606,6.798
		c7.914,3.006,15.829,6.012,23.743,9.019c-38.533,89.559-109.22,143.989-208.645,151.978c-0.5,0.041-1,0.081-1.5,0.121
		c-4.18,3.979-8.359,7.957-12.539,11.936c-4.18-3.979-8.359-7.957-12.539-11.936c-0.5-0.04-1-0.08-1.5-0.121
		C117.361,435.24,46.675,380.81,8.142,291.251c7.914-3.007,15.828-6.013,23.742-9.019c5.202-2.266,10.405-4.532,15.606-6.798
		c0.428-0.187,0.929,0.009,1.118,0.437C50.159,279.387,51.709,282.903,53.26,286.42L53.26,286.42z M454.316,270.703
		c1.924-2.584,1.836-6.518,1.45-9.543c-0.223-1.75-2.699-2.969-4.094-3.559c-10.001-4.229-19.922-8.647-29.946-12.819
		c-0.237,3.714-0.475,7.428-0.712,11.143c-0.023,0.37,0.183,0.7,0.525,0.841C432.83,261.398,443.173,265.712,454.316,270.703
		L454.316,270.703z"/>
	<path style="fill-rule:evenodd;clip-rule:evenodd;fill:#051F7A;" d="M250.226,388.687c-6.128,6.3-12.257,12.601-18.385,18.899
		l-1.016,1.045l-1.016-1.045c-6.128-6.299-12.257-12.6-18.385-18.899c-36.047-3.928-70.758-17.279-99.076-40.125
		c-24.593-19.842-43.956-46.738-51.965-77.544c-7.784-29.939-2.906-61.289,5.874-90.438c3.702-12.289,9.283-23.94,12.51-36.379
		c2.382-9.184,4.603-19.503,3.195-29.004c-2.768-18.674-18.666-35.709-32.168-47.809l-1.161-1.04l1.145-1.057
		c23.218-21.445,46.437-42.89,69.656-64.334L120.468,0l0.962,1.03c15.001,16.07,42.081,19.932,62.923,17.969
		c15.824-1.49,32.853-6.579,45.611-16.325l0.86-0.657l0.86,0.657C244.443,12.42,261.473,17.509,277.296,19
		c20.843,1.962,47.922-1.899,62.923-17.969L341.181,0l1.036,0.957c23.219,21.445,46.438,42.89,69.656,64.334l1.145,1.057l-1.16,1.04
		c-13.503,12.099-29.401,29.135-32.169,47.809c-1.408,9.5,0.812,19.82,3.194,29.004c3.228,12.439,8.809,24.091,12.51,36.379
		c8.78,29.149,13.658,60.499,5.874,90.438c-8.01,30.806-27.372,57.702-51.965,77.544
		C320.984,371.407,286.273,384.759,250.226,388.687L250.226,388.687z"/>
	<path style="fill-rule:evenodd;clip-rule:evenodd;fill:#FFFFFF;" d="M230.825,3.801c29.896,22.837,86.941,23.36,110.43-1.803
		c23.219,21.445,46.438,42.89,69.656,64.334c-17.328,15.527-29.86,31.863-32.625,48.656c-1.218,9.235,0.865,19.097,3.226,29.568
		c3.659,12.449,8.748,24.171,12.523,36.432c9.127,30.99,11.921,60.745,5.86,89.673c-17.719,56.832-72.217,108.354-150.329,116.672
		c-6.247,6.422-12.494,12.844-18.742,19.266c-6.248-6.422-12.494-12.844-18.742-19.266c-78.112-8.318-132.61-59.84-150.329-116.672
		c-6.061-28.928-3.267-58.683,5.859-89.673c3.776-12.261,8.865-23.983,12.524-36.432c2.36-10.471,4.443-20.333,3.225-29.568
		c-2.764-16.793-15.296-33.129-32.625-48.656c23.218-21.445,46.438-42.89,69.656-64.334
		C143.884,27.161,200.928,26.638,230.825,3.801L230.825,3.801z"/>
	<path style="fill-rule:evenodd;clip-rule:evenodd;fill:#051F7A;" d="M230.825,12.61c-13.407,8.758-29.954,13.49-45.664,14.969
		c-21.381,2.013-47.442-1.656-64.778-15.77C100.7,29.988,81.017,48.167,61.334,66.346c13.403,12.926,26.431,29.239,29.15,47.586
		c1.602,10.803-0.669,21.989-3.377,32.431c-3.272,12.613-8.862,24.294-12.6,36.701c-8.308,27.58-13.157,57.432-5.785,85.784
		c7.542,29.006,25.89,54.332,49.036,73.006c27.159,21.912,60.508,34.637,95.086,38.318l2.585,0.275l1.813,1.864
		c4.527,4.653,9.054,9.307,13.581,13.96c4.527-4.653,9.054-9.307,13.581-13.96l1.813-1.864l2.585-0.275
		c34.579-3.682,67.929-16.406,95.087-38.318c23.146-18.674,41.494-44,49.036-73.006c7.372-28.352,2.522-58.204-5.785-85.784
		c-3.737-12.407-9.328-24.088-12.6-36.701c-2.709-10.442-4.979-21.628-3.378-32.431c2.72-18.348,15.748-34.66,29.15-47.586
		c-19.683-18.179-39.365-36.358-59.048-54.537c-17.337,14.114-43.396,17.783-64.778,15.77
		C260.778,26.1,244.231,21.368,230.825,12.61L230.825,12.61z"/>
	<path style="fill-rule:evenodd;clip-rule:evenodd;fill:#FFFFFF;" d="M322.463,110.666l-0.101,0.103
		c3.204,2.128,5.934,4.478,8.444,6.929c-1.125,1.266-2.25,2.531-3.375,3.797c-1.551-3.45-3.429-6.743-6.047-9.682
		c-2.618,2.939-4.495,6.232-6.047,9.682c-1.125-1.266-2.25-2.531-3.375-3.797c2.511-2.452,5.241-4.801,8.444-6.929l-0.101-0.103
		c0.242-0.25,0.484-0.5,0.727-0.75l0.352,0.22l0.352-0.22C321.979,110.166,322.221,110.416,322.463,110.666L322.463,110.666z
		 M141.343,110.666l-0.101,0.103c3.204,2.128,5.934,4.478,8.445,6.929c-1.125,1.266-2.25,2.531-3.375,3.797
		c-1.552-3.45-3.429-6.743-6.047-9.682c-2.618,2.939-4.496,6.232-6.047,9.682c-1.125-1.266-2.25-2.531-3.375-3.797
		c2.511-2.452,5.241-4.801,8.445-6.929l-0.101-0.103c0.242-0.25,0.485-0.5,0.727-0.75l0.352,0.22l0.352-0.22
		C140.858,110.166,141.101,110.416,141.343,110.666L141.343,110.666z M114.391,61.521c3.326-4.658,2.802-9.251,0.74-14.095
		C112.03,52.208,111.568,57.083,114.391,61.521L114.391,61.521z M117.87,58.889c5.243-2.61,6.742-6.288,7.356-11.517
		C120.161,49.983,117.622,53.635,117.87,58.889L117.87,58.889z M114.378,66.668c5.196-1.086,7.543-3.615,8.457-7.949
		C118.903,59.621,115.616,61.372,114.378,66.668L114.378,66.668z M112.147,69.937c2.29-5.391,1.04-9.161-1.89-13.535
		C108.103,61.679,108.546,66.104,112.147,69.937L112.147,69.937z M110.987,75.626c-4.629-2.315-7.668-7.028-6.343-11.942
		C109.472,65.91,111.697,70.113,110.987,75.626L110.987,75.626z M112.086,78.259c5.288-3.452,5.865-6.001,6.199-11.268
		C113.402,69.93,111.731,72.831,112.086,78.259L112.086,78.259z M112.924,84.713c-4.958-1.484-8.763-5.604-8.302-10.673
		C109.761,75.403,112.676,79.161,112.924,84.713L112.924,84.713z M115.482,77.901c-1.831,5.8-0.958,10.654,2.438,14.109
		C119.711,86.727,119.208,81.866,115.482,77.901L115.482,77.901z M115.202,90.792c-5.978-0.314-10.116-2.42-11.344-7.359
		C109.159,83.035,112.9,85.564,115.202,90.792L115.202,90.792z M119.842,99.229c-5.978-0.314-10.116-2.42-11.344-7.359
		C113.8,91.473,117.541,94.002,119.842,99.229L119.842,99.229z M119.512,90.37c-0.895,5.586,1.411,9.883,6.188,12
		C125.397,96.28,123.885,92.178,119.512,90.37L119.512,90.37z M137.031,107.901c-4.988-0.108-9.289-3.476-10.254-8.04
		C132.503,100.012,136.423,103.5,137.031,107.901L137.031,107.901z M124.302,103.775c-3.583-3.689-7.933-4.873-13.167-2.437
		C114.848,105.209,119.288,106.082,124.302,103.775L124.302,103.775z M130.971,106.9c-4.592-2.316-9.089-2.013-13.24,2
		C122.505,111.345,126.986,110.719,130.971,106.9L130.971,106.9z M139.21,109.659c-4.751-1.969-9.213-1.333-13.055,2.977
		C131.098,114.72,135.52,113.762,139.21,109.659L139.21,109.659z M166.138,61.521c-3.326-4.658-2.802-9.251-0.74-14.095
		C168.499,52.208,168.96,57.083,166.138,61.521L166.138,61.521z M162.659,58.889c-5.243-2.61-6.742-6.288-7.356-11.517
		C160.368,49.983,162.907,53.635,162.659,58.889L162.659,58.889z M166.15,66.668c-5.196-1.086-7.544-3.615-8.457-7.949
		C161.626,59.621,164.912,61.372,166.15,66.668L166.15,66.668z M168.381,69.937c-2.29-5.391-1.039-9.161,1.891-13.535
		C172.426,61.679,171.983,66.104,168.381,69.937L168.381,69.937z M169.542,75.626c4.629-2.315,7.668-7.028,6.343-11.942
		C171.057,65.91,168.831,70.113,169.542,75.626L169.542,75.626z M168.442,78.259c-5.288-3.452-5.865-6.001-6.199-11.268
		C167.126,69.93,168.797,72.831,168.442,78.259L168.442,78.259z M167.604,84.713c4.958-1.484,8.763-5.604,8.302-10.673
		C170.768,75.403,167.853,79.161,167.604,84.713L167.604,84.713z M165.046,77.901c1.831,5.8,0.958,10.654-2.438,14.109
		C160.818,86.727,161.321,81.866,165.046,77.901L165.046,77.901z M165.327,90.792c5.978-0.314,10.116-2.42,11.344-7.359
		C171.369,83.035,167.628,85.564,165.327,90.792L165.327,90.792z M160.687,99.229c5.978-0.314,10.116-2.42,11.344-7.359
		C166.729,91.473,162.988,94.002,160.687,99.229L160.687,99.229z M161.017,90.37c0.895,5.586-1.411,9.883-6.188,12
		C155.131,96.28,156.644,92.178,161.017,90.37L161.017,90.37z M143.498,107.901c4.988-0.108,9.289-3.476,10.254-8.04
		C148.025,100.012,144.106,103.5,143.498,107.901L143.498,107.901z M156.227,103.775c3.583-3.689,7.933-4.873,13.167-2.437
		C165.681,105.209,161.241,106.082,156.227,103.775L156.227,103.775z M149.557,106.9c4.592-2.316,9.09-2.013,13.24,2
		C158.023,111.345,153.542,110.719,149.557,106.9L149.557,106.9z M141.318,109.659c4.751-1.969,9.213-1.333,13.055,2.977
		C149.431,114.72,145.009,113.762,141.318,109.659L141.318,109.659z M295.512,61.521c3.326-4.658,2.802-9.251,0.74-14.095
		C293.15,52.208,292.689,57.083,295.512,61.521L295.512,61.521z M298.99,58.889c5.242-2.61,6.742-6.288,7.356-11.517
		C301.281,49.983,298.742,53.635,298.99,58.889L298.99,58.889z M295.499,66.668c5.195-1.086,7.544-3.615,8.457-7.949
		C300.023,59.621,296.737,61.372,295.499,66.668L295.499,66.668z M293.269,69.937c2.289-5.391,1.039-9.161-1.891-13.535
		C289.224,61.679,289.666,66.104,293.269,69.937L293.269,69.937z M292.107,75.626c-4.629-2.315-7.668-7.028-6.342-11.942
		C290.593,65.91,292.818,70.113,292.107,75.626L292.107,75.626z M293.207,78.259c5.288-3.452,5.864-6.001,6.198-11.268
		C294.523,69.93,292.852,72.831,293.207,78.259L293.207,78.259z M294.045,84.713c-4.958-1.484-8.763-5.604-8.302-10.673
		C290.882,75.403,293.796,79.161,294.045,84.713L294.045,84.713z M296.603,77.901c-1.831,5.8-0.957,10.654,2.438,14.109
		C300.831,86.727,300.328,81.866,296.603,77.901L296.603,77.901z M296.322,90.792c-5.978-0.314-10.116-2.42-11.344-7.359
		C290.28,83.035,294.021,85.564,296.322,90.792L296.322,90.792z M300.963,99.229c-5.978-0.314-10.116-2.42-11.344-7.359
		C294.921,91.473,298.661,94.002,300.963,99.229L300.963,99.229z M300.633,90.37c-0.896,5.586,1.411,9.883,6.188,12
		C306.519,96.28,305.005,92.178,300.633,90.37L300.633,90.37z M318.152,107.901c-4.989-0.108-9.289-3.476-10.255-8.04
		C313.624,100.012,317.544,103.5,318.152,107.901L318.152,107.901z M305.422,103.775c-3.583-3.689-7.933-4.873-13.166-2.437
		C295.969,105.209,300.408,106.082,305.422,103.775L305.422,103.775z M312.092,106.9c-4.592-2.316-9.09-2.013-13.24,2
		C303.626,111.345,308.106,110.719,312.092,106.9L312.092,106.9z M320.331,109.659c-4.751-1.969-9.214-1.333-13.055,2.977
		C312.219,114.72,316.641,113.762,320.331,109.659L320.331,109.659z M347.258,61.521c-3.326-4.658-2.802-9.251-0.74-14.095
		C349.619,52.208,350.081,57.083,347.258,61.521L347.258,61.521z M343.78,58.889c-5.243-2.61-6.743-6.288-7.357-11.517
		C341.488,49.983,344.027,53.635,343.78,58.889L343.78,58.889z M347.271,66.668c-5.196-1.086-7.544-3.615-8.457-7.949
		C342.746,59.621,346.033,61.372,347.271,66.668L347.271,66.668z M349.502,69.937c-2.29-5.391-1.04-9.161,1.89-13.535
		C353.546,61.679,353.104,66.104,349.502,69.937L349.502,69.937z M350.662,75.626c4.629-2.315,7.668-7.028,6.343-11.942
		C352.177,65.91,349.952,70.113,350.662,75.626L350.662,75.626z M349.562,78.259c-5.288-3.452-5.864-6.001-6.198-11.268
		C348.247,69.93,349.918,72.831,349.562,78.259L349.562,78.259z M348.726,84.713c4.957-1.484,8.762-5.604,8.302-10.673
		C351.889,75.403,348.974,79.161,348.726,84.713L348.726,84.713z M346.167,77.901c1.831,5.8,0.958,10.654-2.438,14.109
		C341.938,86.727,342.441,81.866,346.167,77.901L346.167,77.901z M346.447,90.792c5.978-0.314,10.116-2.42,11.344-7.359
		C352.49,83.035,348.749,85.564,346.447,90.792L346.447,90.792z M341.807,99.229c5.978-0.314,10.116-2.42,11.344-7.359
		C347.85,91.473,344.108,94.002,341.807,99.229L341.807,99.229z M342.137,90.37c0.896,5.586-1.411,9.883-6.188,12
		C336.252,96.28,337.765,92.178,342.137,90.37L342.137,90.37z M324.618,107.901c4.988-0.108,9.288-3.476,10.254-8.04
		C329.146,100.012,325.227,103.5,324.618,107.901L324.618,107.901z M337.348,103.775c3.583-3.689,7.933-4.873,13.166-2.437
		C346.802,105.209,342.361,106.082,337.348,103.775L337.348,103.775z M330.678,106.9c4.592-2.316,9.09-2.013,13.24,2
		C339.145,111.345,334.663,110.719,330.678,106.9L330.678,106.9z M322.438,109.659c4.751-1.969,9.214-1.333,13.056,2.977
		C330.552,114.72,326.129,113.762,322.438,109.659L322.438,109.659z"/>
	<path style="fill-rule:evenodd;clip-rule:evenodd;fill:#FFFFFF;" d="M229.474,39.322c0.713-1.266,2.112-1.535,3.504-1.566
		c1.872,0.096,3.141,1.042,3.763,2.682c0.395,1.565,0.075,3.258,0.713,4.771c11.48,24.034,22.919,48.245,34.409,72.273
		c0.49,1.025,1.17,1.782,2.137,2.378c3.054,1.886,6.558,3.715,7.534,7.287c0.485,2.98-2.177,5.018-4.46,6.374
		c-0.016,29.612-0.501,59.232-0.251,88.852c1.039,0.801,2.448,2.005,2.428,4.458l-0.28,21.108c-1.139,3.273-5.28,2.629-8.033,2.674
		c-0.038-1.782,0.099-3.855-0.197-5.608c-1.085-1.026-2.58-1.423-3.945-1.933c-25.063-8.484-48.733-17.234-77.259-27.283
		c-1.51-0.449-2.792-1.737-2.731-3.377c-0.099-4.741-0.121-9.489,0-14.222c-0.03-1.723,1.927-2.344,3.057-3.258
		c-0.023-20.138-0.008-40.277-0.137-60.415c-1.722-0.869-3.732-1.835-4.233-3.872c-1.16-3.438,1.207-6.815,3.839-8.852
		c1.411-1.273,3.451-1.978,4.293-3.774c10.688-22.423,21.354-44.86,32.072-67.275c0.964-2.06,2.094-4.052,2.83-6.208
		C228.738,42.79,228.375,40.85,229.474,39.322L229.474,39.322z M202.674,115.839c10.051-21.157,20.155-42.292,30.077-63.508
		c1.449,2.674,2.685,5.46,4.028,8.186c-2.337,0.419-5.891-0.256-6.075,1.946c-0.4,0.845,4.588,0.203,7.22,0.772
		c0.524,0.749,0.658,1.849,1.112,2.643c-1.714,0.644-4.888,0.806-4.692,2c-0.421,1.015,4.157,0.562,6.258,0.704
		c0.721,1.61,1.209,3.425,1.968,5.012c-3.486,0.358-5.873,0.275-9.34,0.896c-1.096,0.317-0.142,0.877,1.707,1.131
		c3.429,0.517,6.151,0.442,9.443,1.625c1.017,0.899,1.156,2.812,1.801,3.966c-3.368,0.332-9.708-0.574-9.317,0.616
		c3.021,2.799,7.364,0.317,10.968,2.391c1.062,1.52,1.543,3.648,2.347,5.303c-3.125,0.045-8.006-0.99-11.699,0.771
		c-2.209,2.19,10.415,0.801,14.2,4.044c1.122,1.677,1.843,3.572,2.716,5.377c-6.555-0.591-12.812-0.843-19.396-0.431
		c-1.334,0.159-1.58,0.974-0.312,1.18c7.236,1.003,14.671,1.063,21.649,3.453c1.047,2.157,2.086,4.321,3.133,6.485
		c-5.72-0.719-11.538-2.038-17.318-1.117c-0.853,0.272-0.512,0.923,0.44,1.124c6.091,1.183,12.372,1.506,18.229,3.678
		c0.821,0.49,1.273,0.973,1.472,1.468c-10.188-1.423-20.429-2.749-30.729-2.906C222.525,112.806,212.505,113.839,202.674,115.839
		L202.674,115.839z M263.237,223.324l7.541,2.06l0.113,15.42l-7.532-2.816L263.237,223.324L263.237,223.324z M249.856,219.527
		l8.678,2.591l-0.022,14.132l-8.663-2.794L249.856,219.527L249.856,219.527z M236.134,215.026l8.731,2.763l0.038,13.99l-8.731-3.505
		L236.134,215.026L236.134,215.026z M223.269,210.3l8.094,2.689l0.083,13.765l-8.2-2.958L223.269,210.3L223.269,210.3z
		 M210.024,205.702l8.602,3.228l0.091,13.81l-8.39-2.928L210.024,205.702L210.024,205.702z M197.258,200.938l7.851,3.078
		l0.212,14.192l-7.95-2.771L197.258,200.938L197.258,200.938z M240.776,136.134c9.922,0.854,19.936,1.701,29.425,4.854
		c-0.03,1.161-0.053,2.329-0.076,3.497c-6.022-1.363-12.296-2.92-18.479-2.014c-1.219,0.25-1.692,1.069-0.993,1.198
		c6.698,0.622,13.79,0.936,19.594,4.71c0.016,1.663,0,3.325-0.03,4.988c-4.65-1.191-9.398-1.925-14.14-2.651
		c-5.606-1.113-10.101-1.207-16.104-1.303L240.776,136.134L240.776,136.134z M226.895,136.135c3.694-0.375,7.411-0.262,11.113-0.217
		c-0.44,5.864-0.569,11.743-1.001,17.607c-3.05-0.09-6.106-0.12-9.156,0.007C227.616,147.728,227.251,141.931,226.895,136.135
		L226.895,136.135z M201.589,130.899c17.166-3.167,34.802-3.167,52.151-1.625c5.53,0.622,11.228,1.116,16.302,3.55
		c0.016,1.25,0.038,3.068,0.068,4.319c-8.822-1.213-20.151-3.121-29.072-3.278c-0.878-1.141-1.58-1.342-3.91-1.49
		c-4.448,0.007-8.922-0.19-13.363,0.19c-0.75,0.064-1.318,0.702-1.296,1.455c0.162,5.308,0.601,10.89,0.846,16.201
		c-5.029,0.531-10.036,0.907-15.042,1.596c-1.626,0.273-3.479,0.339-4.686,1.53c-0.084,0.083-0.108,0.203-0.062,0.312
		c0.046,0.109,0.149,0.175,0.268,0.172c6.563-0.176,13.1-0.646,19.666-0.9c0.063,0.789,0.139,1.464,0.223,2.173
		c0.085,0.716,0.685,1.249,1.406,1.25c3.759,0.002,7.513-0.141,11.273,0.001c1.024-0.09,2.254,0.3,3.103-0.465
		c0.243-1.033,0.433-2.082,0.577-3.137c4.392-0.023,8.762,0.539,13.1,1.138c5.872,0.966,11.827,1.985,17.242,4.531
		c-0.007,1.281-0.022,2.569-0.037,3.857c-6.213-1.206-12.39-2.456-18.776-2.119c-1.199,0.176-1.866,0.296-2.403,0.885
		c-0.072,0.08-0.094,0.187-0.057,0.289c0.038,0.102,0.123,0.17,0.23,0.183c6.867,0.865,14.473,1.5,20.585,5.004l0.295,4.167
		c-13.729-2.816-27.434-4.516-41.489-3.572c-5.795,0.457-11.062,0.042-16.652,1.81c-0.677,0.282-0.084,1.208,1.168,1.333
		c11.47-0.531,22.251-0.529,33.697,0.407c8.026,1.049,16.165,1.963,23.675,5.086c0.016,1.61,0.03,3.228,0.03,4.838
		c-10.862-2.457-21.975-3.137-33.118-2.717c-1.251,0.176-1.069,1.185-0.152,1.159c11.227,0.696,22.527,1.446,33.025,5.782
		c0,1.64,0.03,3.28,0.061,4.928c-5.529-0.749-10.293-1.198-15.868-0.689c-1.483,0.396-1.133,1.105-0.046,1.438
		c5.712,0.292,10.918,0.652,16.243,2.847c-0.015,2.165-0.03,4.329-0.03,6.5c-7.654-2.636-15.869-2.105-23.85-1.761
		c-1.455,0.296-1.831,0.896-2.036,1.545c-0.027,0.088-0.013,0.176,0.041,0.251c0.055,0.075,0.134,0.116,0.227,0.117
		c8.683,0.106,17.502,0.323,25.732,3.322c-0.008,1.992-0.016,3.992-0.031,5.984c-4.627-1.071-9.353-1.342-14.116-1.373
		c-2.42,0.005-3.691,1.691-2.007,2.07c3.118,0.219,5.2-0.098,8.303,0.292c2.686,0.277,5.249,1.146,7.844,1.834
		c-0.016,3.048,0.139,7.127,0.063,10.184l-65.859-21.941c-2.708-1.109-6.854-2.784-7.722-6.215
		c-0.82-8.358-0.602-15.279-0.647-23.674c-0.114-11.736-0.152-23.471-0.25-35.207C196.112,132.532,199.442,131.431,201.589,130.899
		L201.589,130.899z M201.422,121.838c21.005-4.06,43.048-4.876,63.848,0.749c3.254,0.989,6.172,1.3,7.817,4.587
		c0.171,0.762,0.03,2.299-0.664,2.423c-2.427-0.03-4.506-1.505-6.805-2.082c-12.175-3.475-24.972-4.269-37.586-4.029
		c-10.81,0.307-21.68,1.558-32.019,4.778c-1.009,0.247-2.041,0.606-3.087,0.441c-1.216-0.469-2.053-1.936-1.334-2.846
		C194.323,123.081,197.781,122.594,201.422,121.838L201.422,121.838z"/>
	<path style="fill-rule:evenodd;clip-rule:evenodd;fill:#FFFFFF;" d="M113.565,256.934c1.417,3.699,1.227,7.635,1.322,11.449
		l0.07,27.714c-0.031,3.945-0.388,7.678-1.017,11.347c-0.025,0.12,0.051,0.166,0.121,0.165c10.592-0.057,21.047-0.293,31.618,0.269
		c0.115,0.011,0.134-0.076,0.15-0.153c0.547-2.529,1.492-5.46,2.197-8.042c0.261-0.927-0.283-2.221-1.585-1.218
		c-2.666,2.041-5.928,3.646-9.238,3.677l-4.096-0.011c-5.94-0.011-7.038-2.139-7.014-8.343l0.006-10.778
		c0.002-0.136,0.145-0.165,0.254-0.165c5.144,0.024,10.086,0.07,15.183,0.673c0.09,0.011,0.109-0.046,0.122-0.093
		c0.574-2.146,1.136-4.115,1.717-6.184c0.152-0.406,0.023-0.709-0.517-0.598c-5.416,0.716-11.122,0.512-16.675,0.596
		c-0.062,0-0.105-0.087-0.105-0.116c0.048-5.019-0.036-9.989,0.255-15.007c0.015-0.164,0.05-0.229,0.24-0.224
		c6.564-0.269,12.904-0.344,15.402,3.776c0.273,0.52,0.875,0.334,0.982,0.021c0.847-2.984,1.653-5.826,2.5-8.811
		c0.024-0.08-0.07-0.2-0.195-0.195c-10.433,0.265-20.958,0.229-31.437,0.034C113.608,256.71,113.516,256.787,113.565,256.934
		L113.565,256.934z M310.979,271.615c-0.069-0.199-0.012-0.323,0.206-0.322c3.498,0.045,7.046,0.025,10.457-0.265
		c0.196-0.021,0.401,0.097,0.391,0.322c-0.092,2.14-0.202,4.691-0.265,6.136c3.612-3.93,8.648-6.993,13.249-6.963
		c7.102,0.046,11.582,3.447,11.513,12.892c0.016,4.244,0.031,8.487,0.047,12.731c-0.008,4.006,0.49,8.426,1.493,11.191
		c0.085,0.236-0.044,0.273-0.229,0.264c-3.749-0.235-7.637-0.207-11.489,0c-0.285,0.024-0.383-0.13-0.346-0.333
		c0.586-3.688,0.861-7.192,0.861-10.824l-0.001-11.468c0.062-2.903-0.934-7.334-6.572-7.331c-3.692,0.003-8.074,3.11-8.182,8.457
		v9.697c0.039,4.018,0.398,8.311,1.494,11.502c0.082,0.256-0.095,0.353-0.322,0.321c-3.847-0.182-7.58-0.157-11.335-0.028
		c-0.244,0.013-0.34-0.06-0.291-0.262c0.701-4.362,0.807-8.984,0.863-13.43l0.034-9.554
		C312.566,280.196,312.025,274.814,310.979,271.615L310.979,271.615z M290.485,270.566c-12.739,0.366-19.644,8-19.717,19.625
		c-0.074,11.722,6.449,18.917,18.843,18.614c11.823-0.29,18.977-7.805,19.304-20.085
		C309.174,279.041,303.079,270.205,290.485,270.566L290.485,270.566z M289.288,274.839c7.599-0.252,8.974,8.397,9.101,14.615
		c0.137,6.722-0.814,15.104-8.641,15.167c-7.043,0.058-8.534-8.509-8.549-15.259C281.188,284.706,281.621,275.094,289.288,274.839
		L289.288,274.839z M248.981,265.09c-0.104,0.043-0.067,0.11-0.043,0.215c0.206,2.118,0.287,4.248,0.31,6.354
		c-0.002,0.092-0.026,0.246-0.166,0.24c-1.387-0.046-2.717,0.013-4.108-0.194c-0.12-0.009-0.245,0.055-0.276,0.161l-1.321,4.722
		c-0.142,0.641,0.096,0.843,0.712,0.713c1.535-0.227,3.163-0.36,4.573-0.368c0.277-0.035,0.345,0.148,0.345,0.368l0.046,20.017
		c-0.046,8.518,4.389,11.592,10.203,11.49c2.887-0.051,5.855-0.647,8.663-1.471c0.155-0.05,0.241-0.1,0.311-0.254l1.401-4.837
		c0.28-0.819-0.429-1.248-0.988-0.907c-1.084,0.628-2.765,1.366-4.492,1.367c-4.41,0.003-5.623-3.109-5.643-8.215v-12.547
		c0.012-1.518,0.151-4.279,0.203-4.776c0.004-0.117,0.097-0.188,0.269-0.188c3.136,0.047,6.354-0.065,9.479,0.333
		c0.097,0.011,0.174-0.062,0.2-0.144l1.355-4.982c0.192-0.546,0.085-1.052-0.77-0.827c-1.141,0.269-2.374,0.502-3.562,0.494
		l-6.803,0.046c-0.102-0.006-0.131-0.106-0.129-0.201c-0.01-3.185,0.282-6.605,0.623-9.853c0.096-1.027-0.417-1.261-1.333-0.735
		C255.465,262.631,252.128,264.123,248.981,265.09L248.981,265.09z M216.211,271.709c-0.185,0.002-0.233,0.106-0.195,0.241
		c0.862,2.451,1.632,8.166,1.551,12.249l-0.046,12.225c-0.288,3.635-0.144,7.782-0.834,11.015c-0.025,0.124,0.012,0.204,0.167,0.188
		c3.779-0.239,7.626-0.191,11.526-0.046c0.091,0.002,0.248-0.002,0.178-0.184c-1.164-3.118-1.501-7.062-1.562-11.008l0.046-7.309
		c0-5.897,3.08-9.634,6.48-9.56c1.67,0.037,2.39,1.021,3.425,2.24c0.344,0.405,0.979,0.376,1.126-0.057l2.821-10.112
		c0.094-0.213-0.014-0.284-0.27-0.442c-0.701-0.407-1.93-0.572-3.148-0.568c-5.241,0.017-8.222,4.892-11.444,9.284
		c0.049-2.747,0.1-5.493,0.149-8.239c-0.108-0.068-0.215-0.138-0.322-0.206C222.644,271.568,219.45,271.665,216.211,271.709
		L216.211,271.709z M191.103,288.915c-0.101-0.003-0.164,0.02-0.167,0.104c0.13,7.575,4.388,13.594,12.516,13.56
		c2.781-0.012,5.193-0.697,7.652-2.459c0.547-0.383,1.348-0.128,1.103,0.907l-1.527,5.516c-0.026,0.094-0.132,0.162-0.23,0.195
		c-3.625,1.131-7.805,2.096-11.329,2.125c-10.214,0.086-18.78-7.129-18.361-19.304c0.424-12.304,7.821-18.891,17.788-18.89
		c7.142,0.001,14.456,3.708,14.523,14.11c0.008,1.275,0.02,3.103-0.712,3.757c-0.136,0.139-0.326,0.154-0.545,0.149L191.103,288.915
		L191.103,288.915z M190.956,284.355c0.19-4.527,1.487-9.307,6.894-9.353c3.456,0.083,5.764,2.421,5.768,5.538
		C203.625,285.788,198.243,283.758,190.956,284.355L190.956,284.355z M145.48,271.409c-0.073,0.001-0.106,0.087-0.052,0.135
		c2.327,2.664,3.7,5.752,4.81,8.715c2.359,7.062,4.718,14.124,7.078,21.187c0.63,1.988,1.203,4.064,1.425,5.964
		c0.009,0.147,0.098,0.231,0.241,0.218c2.72-0.196,5.646-0.198,8.435-0.16c0.09,0.008,0.218-0.033,0.229-0.132
		c0.431-2.046,0.914-3.925,1.667-5.93l8.744-20.349c1.351-3.119,3.183-6.411,5.097-9.049c0.54-0.608,0.597-1.194-0.69-1.034
		c-2.985,0.232-5.948,0.396-8.888,0.282c-0.237-0.014-0.32,0.076-0.299,0.219c0.215,3.914-0.812,7.644-2.183,11.19l-5.653,14.937
		l-5.515-18.844c-0.597-2.477-0.973-4.924-1.333-7.537c-0.022-0.118-0.017-0.282-0.255-0.262
		C154.138,271.359,149.783,271.446,145.48,271.409L145.48,271.409z"/>
	<path style="fill-rule:evenodd;clip-rule:evenodd;fill:#FFFFFF;" d="M196.565,330.881c-0.141,0.006-0.275,0.055-0.314,0.229
		c-0.134,0.733-0.415,1.406-0.762,2.1c-0.121,0.216,0.144,0.388,0.337,0.323c1.124-0.425,4.094-1.212,4.875-1.171
		c0.986,0.053,1.576,0.374,1.563,3.304l-0.045,15.055c-0.114,2.056-0.117,4.192-0.467,5.936c-0.009,0.067,0.021,0.117,0.124,0.107
		c1.461-0.103,2.83-0.143,4.291-0.017c0.065,0.014,0.125-0.021,0.092-0.111c-0.424-1.606-0.681-3.527-0.746-5.924l0.007-14.983
		c0.186-2.132,0.164-4.27,0.493-6.387c0.05-0.28-0.231-0.426-0.538-0.356C203.41,329.65,197.864,330.901,196.565,330.881
		L196.565,330.881z M250.007,335.216c0.026-3.565,3.117-6.863,7.996-6.941c4.284-0.068,7.351,3.084,7.29,6.5
		c-0.063,3.593-3.344,5.82-5.272,6.682c3.594,1.878,6.132,4.227,6.17,7.94c0.041,4.034-3.4,8.133-9.392,8.005
		c-4.482-0.095-8.221-2.618-8.197-7.258c0.018-3.455,2.533-5.97,6.298-7.93C252.205,340.609,249.979,338.964,250.007,335.216
		L250.007,335.216z M256.953,343.354c2.862,1.468,5.891,3.321,5.853,6.742c-0.032,2.929-2.612,5.285-5.736,5.248
		c-2.287-0.027-5.426-1.596-5.357-5.422C251.778,346.097,254.698,344.546,256.953,343.354L256.953,343.354z M258.12,340.378
		c2.756-1.446,4.302-3.321,4.3-5.352c-0.002-2.569-1.571-4.861-4.696-4.824c-2.287,0.027-4.528,1.852-4.419,4.482
		C253.415,337.316,255.844,338.93,258.12,340.378L258.12,340.378z M211.543,335.216c0.026-3.565,3.117-6.863,7.996-6.941
		c4.284-0.068,7.351,3.084,7.29,6.5c-0.064,3.593-3.345,5.82-5.273,6.682c3.594,1.878,6.132,4.227,6.17,7.94
		c0.041,4.034-3.4,8.133-9.392,8.005c-4.482-0.095-8.221-2.618-8.197-7.258c0.018-3.455,2.534-5.97,6.298-7.93
		C213.741,340.609,211.515,338.964,211.543,335.216L211.543,335.216z M218.489,343.354c2.862,1.468,5.891,3.321,5.853,6.742
		c-0.033,2.929-2.613,5.285-5.737,5.248c-2.287-0.027-5.425-1.596-5.358-5.422S216.234,344.546,218.489,343.354L218.489,343.354z
		 M219.656,340.378c2.755-1.446,4.302-3.321,4.3-5.352c-0.001-2.569-1.571-4.861-4.696-4.824c-2.288,0.027-4.529,1.852-4.419,4.482
		C214.951,337.316,217.379,338.93,219.656,340.378L219.656,340.378z M231.432,329.616c-0.103,0.021-0.127,0.127-0.129,0.215
		c-0.196,1.356-0.499,2.692-0.942,4.007c-0.034,0.112,0.013,0.127,0.064,0.156l0.221,0.106c0.09,0.039,0.23-0.044,0.333-0.128
		c1.299-0.848,2.672-1.052,3.944-1.078l9.792,0.021l-14.14,23.841c-0.086,0.13-0.14,0.262-0.097,0.365l0.14,0.257
		c0.052,0.104,0.17,0.15,0.311,0.129c1.539-0.2,3.207-0.114,4.811-0.117c0.167,0.028,0.221-0.05,0.193-0.236
		c0.409-6.509,9.18-21.205,12.333-24.807c0.09-0.104,0.081-0.242,0.045-0.362c-0.201-0.712-0.306-1.421-0.39-2.147
		c-0.016-0.152-0.081-0.294-0.323-0.279c-5.317,0.18-10.604,0.148-15.916,0.077C231.605,329.636,231.513,329.605,231.432,329.616
		L231.432,329.616z"/>
	<path style="fill-rule:evenodd;clip-rule:evenodd;fill:#FFFFFF;" d="M41.729,333.644l18.391-11.492l-2.136-3.419l-11.922,7.45
		l7.575-14.407l-3.018-4.83l-18.391,11.492l2.136,3.42l14.125-8.827l-9.124,16.831L41.729,333.644L41.729,333.644z M53.698,350.199
		l2.543-1.848l-1.99-2.739l12.458-9.052l1.99,2.739l2.543-1.848l-6.612-9.1l-2.543,1.848l1.99,2.738l-12.458,9.052l-1.99-2.739
		l-2.543,1.849L53.698,350.199L53.698,350.199z M68.831,367.557l2.609-2.349l-6.404-7.112l13.508-12.162l-2.996-3.327
		l-16.116,14.511L68.831,367.557L68.831,367.557z M104.254,377.122l2.874-3.426c-0.493-0.962-1.116-1.875-1.774-2.728
		c-0.81-1.049-1.733-2.001-2.748-2.853c-1.75-1.469-3.797-2.557-6.12-2.653c-1.983-0.084-3.657,0.594-4.938,2.12
		c-0.845,1.007-1.461,2.173-1.555,3.502c-0.101,1.432,0.498,2.878,1.209,4.089c0.416,0.709,0.886,1.386,1.398,2.029
		c0.53,0.664,1.042,1.344,1.535,2.036c0.397,0.559,0.755,1.218,0.839,1.908c0.075,0.622-0.073,1.195-0.478,1.678
		c-0.352,0.42-0.804,0.765-1.365,0.82c-0.462,0.046-0.924-0.007-1.369-0.139c-0.458-0.135-0.903-0.389-1.3-0.649
		c-0.367-0.241-0.735-0.499-1.072-0.781c-1.075-0.902-1.934-2.017-2.618-3.237c-0.711-1.27-1.191-2.623-1.434-4.055l-3.023,3.604
		c0.51,1.029,1.111,2.012,1.778,2.946c0.846,1.185,1.928,2.241,3.04,3.174c1.827,1.533,4.014,2.769,6.454,2.82
		c2.086,0.044,3.786-0.729,5.127-2.327c0.807-0.963,1.422-2.097,1.471-3.376c0.052-1.337-0.472-2.656-1.141-3.789
		c-0.391-0.661-0.812-1.307-1.272-1.921c-0.447-0.596-0.9-1.188-1.352-1.78c-0.477-0.628-1.146-1.569-1.321-2.349
		c-0.152-0.675,0.051-1.294,0.49-1.817c0.321-0.383,0.736-0.619,1.229-0.704c0.454-0.078,0.906-0.05,1.347,0.082
		c0.459,0.138,0.903,0.324,1.312,0.576c0.396,0.244,0.773,0.515,1.129,0.813c1.021,0.856,1.839,1.889,2.464,3.065
		C103.623,374.845,104.046,375.958,104.254,377.122L104.254,377.122z M116.776,404.404l5.267-22.282l-4.683-2.926l-17.721,14.499
		l3.786,2.365l3.628-3.106l7.022,4.389l-1.202,4.622L116.776,404.404L116.776,404.404z M114.949,394.018l-5.292-3.307l7.902-6.764
		L114.949,394.018L114.949,394.018z M145.374,398.537l1.537-3.15l-15.622-7.619l-1.537,3.15l5.796,2.827l-7.97,16.341l4.023,1.963
		l7.97-16.341L145.374,398.537L145.374,398.537z M154.416,421.213l1.126-2.935l-3.161-1.213l5.519-14.377l3.161,1.213l1.126-2.935
		l-10.501-4.03l-1.126,2.934l3.161,1.214l-5.519,14.377l-3.161-1.214l-1.126,2.935L154.416,421.213L154.416,421.213z
		 M181.803,412.163l1.158-4.318c-0.854-0.664-1.804-1.229-2.761-1.723c-1.178-0.607-2.417-1.081-3.696-1.424
		c-2.201-0.59-4.529-0.71-6.668,0.182c-1.846,0.769-3.06,2.07-3.579,4.009c-0.34,1.268-0.405,2.589,0.071,3.831
		c0.513,1.34,1.667,2.397,2.823,3.194c0.677,0.467,1.389,0.882,2.125,1.248c0.761,0.379,1.512,0.778,2.251,1.197
		c0.597,0.338,1.2,0.785,1.567,1.375c0.332,0.532,0.439,1.113,0.276,1.722c-0.142,0.529-0.406,1.033-0.891,1.32
		c-0.401,0.238-0.839,0.384-1.299,0.454c-0.472,0.071-0.982,0.028-1.452-0.04c-0.435-0.063-0.878-0.142-1.302-0.255
		c-1.355-0.363-2.604-1.011-3.74-1.828c-1.181-0.85-2.188-1.873-3.014-3.067l-1.217,4.543c0.897,0.717,1.856,1.354,2.856,1.919
		c1.267,0.716,2.694,1.216,4.096,1.592c2.297,0.615,4.814,0.81,7.041-0.172c1.911-0.843,3.122-2.258,3.663-4.276
		c0.324-1.209,0.401-2.505-0.093-3.681c-0.518-1.233-1.55-2.208-2.636-2.952c-0.633-0.435-1.287-0.841-1.965-1.203
		c-0.657-0.351-1.318-0.695-1.978-1.043c-0.697-0.366-1.702-0.937-2.19-1.569c-0.423-0.548-0.5-1.193-0.324-1.854
		c0.129-0.482,0.406-0.872,0.816-1.157c0.379-0.263,0.8-0.428,1.256-0.494c0.474-0.069,0.956-0.088,1.432-0.033
		c0.462,0.054,0.918,0.141,1.367,0.261c1.287,0.345,2.465,0.935,3.528,1.736C180.268,410.366,181.123,411.196,181.803,412.163
		L181.803,412.163z M214.734,433.887l3.018-21.476l-3.992-0.562l-1.957,13.922l-6.167-15.063l-5.639-0.792l-3.019,21.475
		l3.993,0.562l2.318-16.494l7.028,17.808L214.734,433.887L214.734,433.887z M235.018,434.604l0.055-3.143l-3.386-0.059l0.27-15.397
		l3.385,0.059l0.055-3.143l-11.246-0.196l-0.055,3.143l3.385,0.059l-0.269,15.398l-3.385-0.06l-0.055,3.143L235.018,434.604
		L235.018,434.604z M257.252,416.022l-0.468-4.447c-1.034-0.313-2.124-0.5-3.194-0.618c-1.317-0.146-2.644-0.144-3.961-0.005
		c-2.272,0.239-4.478,0.956-6.16,2.559c-1.446,1.377-2.115,3.032-1.905,5.025c0.138,1.308,0.549,2.561,1.439,3.552
		c0.96,1.067,2.415,1.641,3.78,1.971c0.799,0.192,1.612,0.325,2.432,0.403c0.846,0.081,1.689,0.185,2.53,0.311
		c0.679,0.102,1.401,0.303,1.956,0.723c0.501,0.378,0.81,0.882,0.875,1.509c0.057,0.544-0.009,1.109-0.358,1.552
		c-0.289,0.365-0.646,0.658-1.051,0.889c-0.415,0.236-0.907,0.379-1.37,0.483c-0.429,0.097-0.87,0.183-1.307,0.229
		c-1.394,0.146-2.796-0.011-4.147-0.366c-1.406-0.37-2.714-0.965-3.912-1.784l0.491,4.678c1.095,0.349,2.219,0.599,3.355,0.768
		c1.439,0.215,2.951,0.17,4.395,0.019c2.371-0.249,4.778-0.964,6.511-2.684c1.48-1.47,2.105-3.229,1.888-5.305
		c-0.132-1.25-0.521-2.479-1.406-3.403c-0.926-0.966-2.239-1.506-3.519-1.812c-0.747-0.179-1.503-0.323-2.265-0.419
		c-0.74-0.092-1.48-0.177-2.221-0.265c-0.783-0.093-1.924-0.266-2.607-0.681c-0.592-0.36-0.896-0.934-0.967-1.615
		c-0.052-0.495,0.067-0.962,0.349-1.373c0.259-0.381,0.593-0.687,0.994-0.912c0.417-0.234,0.86-0.424,1.325-0.543
		c0.45-0.115,0.907-0.198,1.369-0.247c1.325-0.14,2.637-0.011,3.917,0.357C255.175,414.895,256.271,415.363,257.252,416.022
		L257.252,416.022z M278.161,429.035l-0.6-3.085l-3.323,0.646l-2.938-15.116l3.323-0.646l-0.6-3.085l-11.042,2.146l0.601,3.086
		l3.323-0.646l2.938,15.117l-3.323,0.646l0.6,3.085L278.161,429.035L278.161,429.035z M311.833,407.896
		c-0.983-2.853-2.591-5.462-5.291-6.958c-2.569-1.424-5.332-1.354-8.066-0.413c-2.742,0.944-4.961,2.576-6.106,5.292
		c-1.197,2.838-0.847,5.891,0.133,8.736c0.979,2.843,2.582,5.438,5.266,6.941c2.567,1.437,5.337,1.367,8.074,0.425
		c2.748-0.946,4.968-2.587,6.11-5.31C313.143,413.772,312.812,410.742,311.833,407.896L311.833,407.896z M307.821,415.587
		c-0.246,0.749-0.64,1.418-1.209,1.967c-0.535,0.518-1.16,0.901-1.864,1.144c-0.703,0.242-1.427,0.328-2.166,0.258
		c-0.781-0.074-1.502-0.356-2.157-0.784c-0.763-0.497-1.393-1.192-1.921-1.928c-0.691-0.96-1.188-2.103-1.572-3.216
		c-0.389-1.131-0.683-2.332-0.736-3.53c-0.04-0.91,0.016-1.887,0.334-2.748c0.27-0.728,0.668-1.4,1.239-1.93
		c0.53-0.491,1.145-0.848,1.828-1.083c0.688-0.236,1.402-0.325,2.127-0.262c0.782,0.07,1.506,0.357,2.162,0.781
		c0.759,0.491,1.397,1.188,1.923,1.918c0.697,0.966,1.202,2.111,1.589,3.233c0.369,1.072,0.664,2.212,0.741,3.348
		C308.204,413.712,308.122,414.673,307.821,415.587L307.821,415.587z M314.356,395.172l9.166,19.654l4.058-1.893l-3.103-6.653
		l3.389-1.581c1.091-0.509,2.2-1.188,2.994-2.107c0.72-0.832,1.23-1.794,1.565-2.838c0.271-0.847,0.311-1.736,0.211-2.615
		c-0.106-0.957-0.366-1.878-0.773-2.75c-0.454-0.975-1.062-1.917-1.897-2.608c-0.734-0.608-1.564-0.998-2.501-1.173
		c-0.825-0.153-1.664-0.142-2.489,0.001c-1.046,0.18-2.102,0.592-3.061,1.038L314.356,395.172L314.356,395.172z M327.699,396.479
		c0.251,0.537,0.46,1.126,0.526,1.718c0.06,0.539-0.011,1.067-0.214,1.569c-0.241,0.599-0.656,1.083-1.171,1.467
		c-0.613,0.456-1.336,0.832-2.028,1.154l-1.767,0.824l-3.214-6.891l1.214-0.566c0.641-0.299,1.288-0.595,1.942-0.865
		c0.57-0.235,1.18-0.338,1.794-0.354c0.581-0.015,1.134,0.173,1.629,0.466C326.997,395.348,327.414,395.866,327.699,396.479
		L327.699,396.479z M349.106,380.45l-1.857-2.973l-14.74,9.21l1.857,2.973l5.47-3.418l9.635,15.419l3.797-2.372l-9.635-15.419
		L349.106,380.45L349.106,380.45z M373.314,384.994l-1.936-2.477l-2.668,2.084l-9.48-12.135l2.668-2.085l-1.936-2.477l-8.864,6.925
		l1.936,2.477l2.668-2.084l9.481,12.135l-2.668,2.085l1.936,2.477L373.314,384.994L373.314,384.994z M395.177,364.9l-15.064-15.6
		l-3.941,3.806l4.799,12.046l-11.885-5.203l-3.938,3.803l15.064,15.601l2.999-2.896l-11.755-12.172l11.347,5.204l2.226-2.149
		l-4.806-11.521l11.755,12.172L395.177,364.9L395.177,364.9z M395.41,330.475l-2.774,3.55l10.743,8.394
		c1.001,0.782,2.102,1.865,2.379,3.156c0.264,1.23-0.261,2.376-1.006,3.33c-0.76,0.973-1.761,1.762-3.047,1.764
		c-1.304,0.002-2.577-0.757-3.572-1.534l-10.743-8.394l-2.774,3.55l11.008,8.601c1.767,1.38,3.858,2.345,6.142,2.014
		c2.381-0.346,4.275-2.048,5.705-3.877c1.43-1.831,2.622-4.083,2.384-6.479c-0.229-2.309-1.674-4.097-3.448-5.483L395.41,330.475
		L395.41,330.475z M429.422,318.54l-18.392-11.492l-2.903,4.646l7.57,10.527l-12.791-2.173l-2.9,4.643l18.391,11.492l2.209-3.536
		l-14.35-8.967l12.269,2.305l1.639-2.623l-7.449-10.017l14.351,8.967L429.422,318.54L429.422,318.54z"/>
</g>
</svg>
