<svg id="Layer_1" data-name="Layer 1" xmlns="http://www.w3.org/2000/svg" viewBox="0 0 30 30"><title>iconset</title><rect width="30" height="30" fill="#d00027"/><path d="M11.2,8.75A6.75,6.75,0,1,1,4.46,15.5,6.75,6.75,0,0,1,11.2,8.75" fill="#fff"/><path d="M12.89,10.1a5.4,5.4,0,1,1-5.4,5.4,5.4,5.4,0,0,1,5.4-5.4" fill="#d00027"/><polygon points="16.91 15.5 20.12 16.54 20.64 14.94 16.91 15.5" fill="#fff"/><polygon points="16.91 15.5 20.12 14.46 20.64 16.06 16.91 15.5" fill="#fff"/><polygon points="19.24 12.29 19.24 15.66 20.93 15.66 19.24 12.29" fill="#fff"/><polygon points="19.24 12.29 21.22 15.02 19.86 16.01 19.24 12.29" fill="#fff"/><polygon points="19.24 18.71 21.22 15.98 19.86 14.99 19.24 18.71" fill="#fff"/><polygon points="19.24 18.71 19.24 15.34 20.93 15.34 19.24 18.71" fill="#fff"/><polygon points="23.01 13.52 19.8 14.56 20.33 16.16 23.01 13.52" fill="#fff"/><polygon points="23.01 13.52 21.03 16.25 19.66 15.26 23.01 13.52" fill="#fff"/><polygon points="23.01 17.48 21.03 14.75 19.66 15.75 23.01 17.48" fill="#fff"/><polygon points="23.01 17.48 19.8 16.44 20.33 14.84 23.01 17.48" fill="#fff"/></svg>