<svg id="Layer_1" data-name="Layer 1" xmlns="http://www.w3.org/2000/svg" viewBox="0 0 30 30"><title>iconset</title><path d="M7.88,7.1v12c0,4.5,6,4,7.12,5.75,1.08-1.8,7.12-1.26,7.12-5.75V7.1H7.88Z" fill="#f6d728"/><path d="M15,25l0-.06c-0.38-.64-1.4-1-2.57-1.36-2-.68-4.56-1.51-4.56-4.42V7.06H22.16V19.11c0,2.9-2.53,3.74-4.56,4.42-1.17.39-2.19,0.73-2.57,1.36L15,25h0ZM7.93,7.15v12c0,2.84,2.39,3.63,4.49,4.33A5.13,5.13,0,0,1,15,24.78a5.13,5.13,0,0,1,2.58-1.34c2.11-.7,4.49-1.49,4.49-4.33v-12H7.93Z"/><path d="M14.53,8.83a3.05,3.05,0,0,1-.25,1.51,3.25,3.25,0,0,0-.68,1.37c-0.18,2.7.83,6.61,1.4,9.42,0.58-2.8,1.58-6.72,1.4-9.42a10.92,10.92,0,0,0-.54-3.42Z"/><path d="M14.68,9.22A4.79,4.79,0,0,1,13,8.83a2.33,2.33,0,0,0,1.29.57Z" fill="#ca001c"/><path d="M14.29,9.38A2.1,2.1,0,0,1,13,8.84a6.09,6.09,0,0,0,1.71.36v0a4.79,4.79,0,0,1-1.7-.4,2.87,2.87,0,0,0,1.31.53h0Z"/><path d="M14.46,7.75c-1.08-.54-1.73.07-1,1,0.07-.18.75-0.43,1.08,0.43a2.41,2.41,0,0,1-1.19,0,2.21,2.21,0,0,0,1.47.18,1.86,1.86,0,0,0-.32-1Z" fill="#ca001c"/><path d="M14.41,9.52a2.09,2.09,0,0,1-1.08-.24,2.86,2.86,0,0,0,1.19-.07,0.76,0.76,0,0,0-.68-0.57h0a0.41,0.41,0,0,0-.36.16,0.86,0.86,0,0,1-.23-1.08,1,1,0,0,1,1.23,0l0,0a1,1,0,0,0-1.18,0,0.87,0.87,0,0,0,.2,1,0.37,0.37,0,0,1,.37-0.19,0.79,0.79,0,0,1,.71.63,2.09,2.09,0,0,1-1.21.07,2.53,2.53,0,0,0,1.47.14,1.67,1.67,0,0,0-.33-1,1.37,1.37,0,0,1,.35,1,1,1,0,0,1-.42.06h0Z"/><path d="M15.79,8.5a1.43,1.43,0,0,0,.68-0.36,4.25,4.25,0,0,1-1.4-.36c-0.29-.14-0.79-0.47-0.79.14s0.65,1.08.54,1.58Z"/><path d="M14.89,8.11a3.19,3.19,0,0,1-.43-0.25c-0.07-.07-0.18.4,0.14,0.54a0.56,0.56,0,0,1,.29-0.29h0Z" fill="#f0f7ff"/><path d="M14.64,7.89c-0.17,0-.2.18-0.11,0.4A0.4,0.4,0,0,1,14.89,8Z"/><path d="M16.58,12.78V17l4.82,4V10.44a2.13,2.13,0,0,0-.5-1.65V11Z"/><polygon points="17.55 20.51 17.41 20.51 17.41 11.52 17.55 11.52 17.55 20.51 17.55 20.51" fill="#f6d728"/><polygon points="18.55 20.51 18.42 20.51 18.42 11.52 18.55 11.52 18.55 20.51 18.55 20.51" fill="#f6d728"/><polygon points="19.56 20.51 19.43 20.51 19.43 11.52 19.56 11.52 19.56 20.51 19.56 20.51" fill="#f6d728"/><polygon points="20.57 20.51 20.43 20.51 20.43 11.52 20.57 11.52 20.57 20.51 20.57 20.51" fill="#f6d728"/><path d="M15.65,13.57c3.24,0,4.6-1,5.29-1.83V8.83A0.77,0.77,0,0,0,21.51,8c-1,.83-2.59-1.11-3.52.9a1.06,1.06,0,0,0,1.87.32c0.72,0.61.14,2.91-4.21,2.88v1.44Z"/><path d="M16.83,20.62a0.46,0.46,0,0,0,.18.72,0.63,0.63,0,0,1,.11-0.61Z" fill="#ca001c"/><path d="M17,21.33A0.43,0.43,0,0,1,16.71,21a0.48,0.48,0,0,1,.11-0.4l0,0a0.42,0.42,0,0,0-.1.36,0.51,0.51,0,0,0,.27.32,0.54,0.54,0,0,1,.08-0.61,0.78,0.78,0,0,0-.07.62h0Z"/><path d="M18.09,21.84a0.75,0.75,0,0,1-.22.54c0.43-.11.61-0.25,0.47-0.5Z" fill="#ca001c"/><path d="M17.88,22.4a1,1,0,0,0,.19-0.56h0a0.77,0.77,0,0,1-.22.56,0.83,0.83,0,0,0,.46-0.29,0.23,0.23,0,0,0,0-.21,0.18,0.18,0,0,1,.07.23,0.72,0.72,0,0,1-.52.28h0Z"/><path d="M19.53,21.3a0.93,0.93,0,0,1,0,.58c0.32-.29.43-0.68,0.18-0.76Z" fill="#ca001c"/><path d="M19.58,21.9a1.34,1.34,0,0,0-.07-0.58l0,0a1,1,0,0,1,0,.59,0.89,0.89,0,0,0,.27-0.62,0.16,0.16,0,0,0-.12-0.12,0.13,0.13,0,0,1,.16.11,0.78,0.78,0,0,1-.32.64h0Z"/><path d="M19.49,20a0.64,0.64,0,0,1,.36.36c0-.4,0-0.61-0.4-0.68Z" fill="#ca001c"/><path d="M19.88,20.37A0.85,0.85,0,0,0,19.49,20v0a0.66,0.66,0,0,1,.37.37,0.52,0.52,0,0,0-.42-0.65c0.4,0,.46.28,0.42,0.66h0Z"/><path d="M16.33,18.82L18,20.37a6.7,6.7,0,0,1-.9.14c-0.25,0-.47.07-0.4,0.14a1.33,1.33,0,0,1,.29.18c0.07,0.11.18,0.25,0.32,0.11A2.23,2.23,0,0,1,18,20.66a9.06,9.06,0,0,1,0,.94,0.42,0.42,0,0,0-.07.32,1,1,0,0,1,.36,0c0.29,0,.25.11,0.18-0.32a4.27,4.27,0,0,1,0-.9,4.76,4.76,0,0,1,.86.72c0.22,0.29.18,0.07,0.29,0a0.84,0.84,0,0,1,.36-0.18,0.84,0.84,0,0,0-.4-0.22l-0.93-.54a6.07,6.07,0,0,1,.75-0.18c0.29,0,.29,0,0.25-0.18a1.2,1.2,0,0,1,0-.36c0-.07,0-0.14-0.22,0a8.7,8.7,0,0,1-1,.5l-1.4-1.87Z" fill="#ca001c"/><path d="M18.43,22H18.34l-0.11,0a0.79,0.79,0,0,0-.3,0H17.84a0.36,0.36,0,0,1,.05-0.24l0-.09a8.2,8.2,0,0,0,0-.92,3.76,3.76,0,0,0-.61.3,0.18,0.18,0,0,1-.15.06A0.33,0.33,0,0,1,17,20.85a0.33,0.33,0,0,0-.16-0.11,0.37,0.37,0,0,1-.13-0.07h0V20.61a0.58,0.58,0,0,1,.43-0.12A6.65,6.65,0,0,0,18,20.35l-1.7-1.51,0,0L18,20.35a3.31,3.31,0,0,1-.91.18,0.58,0.58,0,0,0-.39.09,0.25,0.25,0,0,0,.12.08,0.35,0.35,0,0,1,.18.12,0.3,0.3,0,0,0,.18.16,0.14,0.14,0,0,0,.11-0.05A2.16,2.16,0,0,1,18,20.64a4.79,4.79,0,0,1,0,1l0,0.09a0.59,0.59,0,0,0-.06.2,1,1,0,0,1,.36,0l0.11,0h0.09a0.46,0.46,0,0,0,0-.16l0-.16a4.33,4.33,0,0,1,0-.9,3.25,3.25,0,0,1,.9.71,0.27,0.27,0,0,0,.14.13,0.11,0.11,0,0,0,0-.06,0.38,0.38,0,0,1,.07-0.11,0.76,0.76,0,0,1,.33-0.17s-0.08-.07-0.15-0.1L19.48,21l-0.93-.54a2.36,2.36,0,0,1,.76-0.22,0.54,0.54,0,0,0,.24-0.05,0.17,0.17,0,0,0,0-.1,0.83,0.83,0,0,1,0-.29s0-.05,0-0.07-0.07-.07-0.18,0a8.39,8.39,0,0,1-1,.51l-1.43-1.88,1.44,1.84s0.8-.37,1-0.51a0.22,0.22,0,0,1,.21-0.08,0.09,0.09,0,0,1,0,.1s0,0,0,.08a0.8,0.8,0,0,0,0,.28,0.17,0.17,0,0,1,0,.14,0.44,0.44,0,0,1-.28.07,5.94,5.94,0,0,0-.74.18,8.78,8.78,0,0,1,.93.5l0.2,0.09a0.31,0.31,0,0,1,.22.13l-0.08,0a0.74,0.74,0,0,0-.31.16,0.38,0.38,0,0,0-.06.1,0.12,0.12,0,0,1-.08.09,0.28,0.28,0,0,1-.18-0.15,4.7,4.7,0,0,0-.85-0.71s0,0.48.06,0.87l0,0.16a0.26,0.26,0,0,1,0,.2l0,0h0Z"/><path d="M15,23.5l0.76-.9a1.16,1.16,0,0,0,1.91-.43q-1.94.32-1.83-3.52l1,1.51v-1.4L18,18.9l-3.13-3.34Z"/><path d="M13.42,12.78V17L8.6,21V10.44a2.13,2.13,0,0,1,.5-1.65V11Z"/><polygon points="12.59 20.51 12.45 20.51 12.45 11.52 12.59 11.52 12.59 20.51 12.59 20.51" fill="#f6d728"/><polygon points="11.58 20.51 11.45 20.51 11.45 11.52 11.58 11.52 11.58 20.51 11.58 20.51" fill="#f6d728"/><polygon points="10.57 20.51 10.44 20.51 10.44 11.52 10.57 11.52 10.57 20.51 10.57 20.51" fill="#f6d728"/><polygon points="9.57 20.51 9.43 20.51 9.43 11.52 9.57 11.52 9.57 20.51 9.57 20.51" fill="#f6d728"/><path d="M14.35,13.57c-3.24,0-4.6-1-5.29-1.83V8.83A0.77,0.77,0,0,1,8.49,8c1,0.83,2.59-1.11,3.52.9a1.06,1.06,0,0,1-1.87.32c-0.72.61-.14,2.91,4.21,2.88v1.44Z"/><path d="M13.17,20.62a0.45,0.45,0,0,1-.18.72,0.63,0.63,0,0,0-.11-0.61Z" fill="#ca001c"/><path d="M13,21.36a0.75,0.75,0,0,0-.14-0.62,0.54,0.54,0,0,1,.15.61A0.81,0.81,0,0,0,13.25,21a0.42,0.42,0,0,0-.1-0.36l0,0a0.48,0.48,0,0,1,.11.4,0.55,0.55,0,0,1-.29.35h0Z"/><path d="M11.91,21.84a0.75,0.75,0,0,0,.22.54c-0.43-.11-0.61-0.25-0.47-0.5Z" fill="#ca001c"/><path d="M12.14,22.37a0.63,0.63,0,0,1-.54-0.25,0.28,0.28,0,0,1,0-.25,0.52,0.52,0,0,0,0,.23,0.68,0.68,0,0,0,.49.26,0.62,0.62,0,0,1-.24-0.52h0a0.73,0.73,0,0,0,.21.52h0Z"/><path d="M10.47,21.3a0.92,0.92,0,0,0,0,.58c-0.32-.29-0.43-0.68-0.18-0.76Z" fill="#ca001c"/><path d="M10.46,21.88a0.69,0.69,0,0,1-.36-0.62,0.2,0.2,0,0,1,.15-0.15,0.41,0.41,0,0,0-.1.16,0.75,0.75,0,0,0,.31.6,0.7,0.7,0,0,1,0-.57l0,0a0.91,0.91,0,0,0,0,.56h0Z"/><path d="M10.51,20a0.64,0.64,0,0,0-.36.36c0-.4,0-0.61.4-0.68Z" fill="#ca001c"/><path d="M10.17,20.38c-0.08-.39,0-0.64.37-0.72a0.54,0.54,0,0,0-.37.7A0.52,0.52,0,0,1,10.5,20v0a0.63,0.63,0,0,0-.34.35h0Z"/><path d="M13.67,18.82L12,20.37a6.7,6.7,0,0,0,.9.14c0.25,0,.47.07,0.4,0.14a1.34,1.34,0,0,0-.29.18c-0.07.11-.18,0.25-0.32,0.11A2.23,2.23,0,0,0,12,20.66a9.17,9.17,0,0,0,0,.94,0.43,0.43,0,0,1,.07.32,1,1,0,0,0-.36,0c-0.29,0-.25.11-0.18-0.32a4.3,4.3,0,0,0,0-.9,4.75,4.75,0,0,0-.86.72c-0.22.29-.18,0.07-0.29,0a0.84,0.84,0,0,0-.36-0.18,0.84,0.84,0,0,1,.4-0.22l0.93-.54a6.09,6.09,0,0,0-.75-0.18c-0.29,0-.29,0-0.25-0.18a1.19,1.19,0,0,0,0-.36c0-.07,0-0.14.22,0a8.66,8.66,0,0,0,1,.5l1.4-1.87Z" fill="#ca001c"/><path d="M11.57,22l0,0a0.26,0.26,0,0,1,0-.2l0-.16a4.31,4.31,0,0,0,0-.89,8.62,8.62,0,0,0-.82.73,0.28,0.28,0,0,1-.18.15,0.12,0.12,0,0,1-.08-0.09,0.34,0.34,0,0,0-.06-0.1,0.72,0.72,0,0,0-.31-0.16l-0.08,0a0.31,0.31,0,0,1,.22-0.13l0.2-.09,0.92-.53c-0.08,0-.48-0.11-0.73-0.14a0.44,0.44,0,0,1-.28-0.07,0.17,0.17,0,0,1,0-.14,0.79,0.79,0,0,0,0-.28,0.78,0.78,0,0,1,0-.08,0.09,0.09,0,0,1,0-.1,0.22,0.22,0,0,1,.21.08,8.62,8.62,0,0,0,1,.5L13,18.34l-1.37,1.9a6,6,0,0,1-1-.5,0.19,0.19,0,0,0-.16-0.07,0.3,0.3,0,0,0,0,.13,0.82,0.82,0,0,1,0,.29,0.18,0.18,0,0,0,0,.1,0.54,0.54,0,0,0,.24.05,5.78,5.78,0,0,1,.76.18s-0.82.51-.93,0.58l-0.21.09a0.9,0.9,0,0,0-.2.09,0.73,0.73,0,0,1,.37.18,0.37,0.37,0,0,1,.07.11,0.11,0.11,0,0,0,0,.06,0.32,0.32,0,0,0,.14-0.13,4.74,4.74,0,0,1,.87-0.72,2.4,2.4,0,0,1,0,.92l0,0.16a0.46,0.46,0,0,0,0,.16h0.09l0.11,0a0.9,0.9,0,0,1,.31,0c0.06,0,0-.14,0-0.2l0-.09a8.9,8.9,0,0,1,0-.94,1.58,1.58,0,0,1,.69.27,0.15,0.15,0,0,0,.11.05A0.3,0.3,0,0,0,13,20.83a0.35,0.35,0,0,1,.18-0.12,0.32,0.32,0,0,0,.11-0.06,0.45,0.45,0,0,0-.38-0.11,6.71,6.71,0,0,1-.9-0.14l1.68-1.59,0,0L12,20.38c0.06,0,.65.11,0.88,0.11a0.58,0.58,0,0,1,.43.12v0l0,0.05a0.37,0.37,0,0,1-.13.07,0.33,0.33,0,0,0-.16.11,0.33,0.33,0,0,1-.21.18A0.18,0.18,0,0,1,12.65,21,2.17,2.17,0,0,0,12,20.68c0,0.21,0,.82.06,0.91l0,0.09a0.36,0.36,0,0,1,.05.25H12.07a0.84,0.84,0,0,0-.3,0l-0.11,0H11.57Z"/><path d="M15,23.5l-0.75-.9a1.16,1.16,0,0,1-1.91-.43q1.94,0.32,1.83-3.52l-1,1.51v-1.4L12,18.9l3.13-3.34Z"/><rect width="30" height="10"/><rect y="10" width="30" height="10" fill="#e1001f"/><rect y="20" width="30" height="10" fill="#f6d928"/></svg>