<svg id="Layer_2" data-name="Layer 2" xmlns="http://www.w3.org/2000/svg" xmlns:xlink="http://www.w3.org/1999/xlink" viewBox="0 0 30 30"><defs><clipPath id="clip-path"><rect x="-37" width="30" height="30" fill="none"/></clipPath><clipPath id="clip-path-2"><rect width="30" height="30" fill="none"/></clipPath></defs><title>slices_fixtures_v03</title><g clip-path="url(#clip-path)"><rect x="-47.2" y="0.029" width="50.4" height="29.839" fill="#fff"/><polygon points="3.205 26.892 3.205 18.627 -10.817 18.627 3.205 26.892" fill="#293d7a"/><polygon points="-12.861 18.627 -15.761 18.627 3.205 29.862 3.205 28.073 -12.861 18.627" fill="#ed1c24"/><polygon points="3.205 3.057 3.205 11.321 -10.817 11.31 3.205 3.057" fill="#293d7a"/><polygon points="-18.418 11.321 -15.127 11.321 3.205 0.029 -0.124 0.029 -18.418 11.321" fill="#ed1c24"/><rect x="-47.2" y="12.612" width="50.408" height="4.822" fill="#ed1c24"/></g><g clip-path="url(#clip-path-2)"><polygon points="52 0.025 52 30 -10.993 30 -11 0.025 52 0.025 52 0.025" fill="#004990" fill-rule="evenodd"/><polygon points="1.628 0.304 1.628 4.702 -7.173 0.304 -11 0.304 -11 2.245 -4.304 5.534 -11 5.534 -11 10.803 -4.304 10.803 -11 14.13 -11 16.032 -7.173 16.032 1.628 11.635 1.628 16.032 7.941 16.032 7.941 11.635 16.79 16.032 20.617 16.032 20.617 14.13 13.873 10.803 20.617 10.803 20.617 5.534 13.873 5.534 20.617 2.245 20.617 0.304 16.79 0.304 7.941 4.702 7.941 0.304 1.628 0.304 1.628 0.304" fill="#fff" fill-rule="evenodd"/><polygon points="7.963 5.534 10.064 5.534 20.617 0.304 18.086 0.304 7.963 5.336 7.963 5.534 7.963 5.534" fill="#ed1c24" fill-rule="evenodd"/><polygon points="20.617 16.032 10.064 10.803 12.595 10.803 20.617 14.764 20.617 16.032 20.617 16.032" fill="#ed1c24" fill-rule="evenodd"/><polygon points="1.66 10.803 -0.441 10.803 -10.945 16.032 -8.415 16.032 1.66 11.001 1.66 10.803 1.66 10.803" fill="#ed1c24" fill-rule="evenodd"/><polygon points="-11 6.603 2.967 6.603 2.967 0.304 6.698 0.304 6.698 6.603 20.617 6.603 20.617 9.693 6.698 9.693 6.698 16.032 2.967 16.032 2.967 9.693 -11 9.693 -11 6.603 -11 6.603" fill="#ed1c24" fill-rule="evenodd"/><path d="M37.141,4.266l1.347-.515L37.7,4.939l1.228,0.713L37.5,5.811,37.7,7.2,36.7,6.167,35.715,7.2l0.2-1.387-1.426-.158,1.228-.713L34.922,3.751l1.347,0.515L36.7,2.919l0.436,1.347h0Zm0,21.353,1.347-.515L37.7,26.293l1.228,0.753-1.426.119,0.2,1.426-0.99-1.03-0.99,1.03,0.2-1.426-1.426-.119,1.228-.753L34.922,25.1l1.347,0.515L36.7,24.272l0.436,1.347h0ZM44.272,10.8l1.347-.515-0.792,1.188,1.228,0.713-1.426.158,0.2,1.387-0.99-1.03-0.99,1.03,0.2-1.387-1.426-.158,1.228-.713-0.792-1.188L43.4,10.8l0.436-1.347L44.272,10.8h0ZM29.138,12.942l1.347-.515-0.792,1.188,1.228,0.753-1.426.119,0.2,1.387-0.99-1.03-0.99,1.03,0.2-1.387-1.426-.119,1.228-.753L26.92,12.427l1.347,0.515L28.7,11.595l0.436,1.347h0Zm10.776,2.852-0.317.99h-1.03L39.4,17.379l-0.317.951,0.832-.594,0.832,0.594-0.317-.951,0.832-.594h-1.03l-0.317-.99h0Z" fill="#fff" fill-rule="evenodd"/><polygon points="3.228 22.014 6.279 20.865 4.496 23.559 7.269 25.223 4.06 25.501 4.496 28.709 2.238 26.372 0.019 28.709 0.455 25.501 -2.754 25.223 -0.02 23.559 -1.803 20.865 1.247 22.014 2.238 18.924 3.228 22.014 3.228 22.014" fill="#fff" fill-rule="evenodd"/></g></svg>