<svg xmlns="http://www.w3.org/2000/svg" viewBox="0 0 30 30"><defs><style>.a,.h,.j{fill:#ad923d;}.a,.c,.e,.f,.g,.h,.i,.j,.k,.l,.n,.p,.q{fill-rule:evenodd;}.b,.d,.m,.o{fill:none;}.b,.h,.i{stroke:#ad923d;}.b,.d,.e,.f,.h,.i,.j,.k,.m,.o,.p,.q{stroke-miterlimit:3.86;stroke-width:0px;}.c,.e{fill:#231f20;}.d,.e,.f,.j,.q{stroke:#231f20;}.f,.k,.l{fill:#ed1c2e;}.g,.i,.p,.q{fill:#fff;}.k,.m{stroke:#ed1c2e;}.n{fill:#d6c391;}.o{stroke:#d6c391;}.p{stroke:#fff;}</style></defs><title>slices_fixtures_v03</title><path class="a" d="M22.31,11.13a2.35,2.35,0,0,0-.93,1.71v0.21h0.06a0.68,0.68,0,0,1,.21,0,1.19,1.19,0,0,1,.47.4,1.93,1.93,0,0,1,.08.82,7.72,7.72,0,0,0,1,.51,0.79,0.79,0,0,0,.28.15,0.24,0.24,0,0,0,.22-0.23,0.23,0.23,0,0,0-.16-0.24c-0.13,0-.25.08-0.38,0.08a0.24,0.24,0,0,1-.25-0.29c0-.16.1-0.56,0.34-0.45a0.81,0.81,0,0,0,.37.15,0.46,0.46,0,0,0,.22-0.06,0.32,0.32,0,0,0-.34-0.3c-0.38,0-.47,0-0.57-0.36A1.69,1.69,0,0,1,22.84,13c0-.25.53-0.18,0.69-0.22s0.07-.33.5-0.33a1,1,0,0,0,.33,0,0.65,0.65,0,0,0,0-.32l0.37,0.13a1.43,1.43,0,0,0,.29,0,1.89,1.89,0,0,1,.8.25,2.15,2.15,0,0,1,.26.27l-0.36-.06a2.5,2.5,0,0,1,.84.84s-0.31-.09-0.42-0.11a2,2,0,0,1,.45,1.18,3.37,3.37,0,0,1-.08.48l0,0a2,2,0,0,1-.13,1.32l-0.14-.41,0,0c0,0.15-.1.36-0.16,0.55a10.8,10.8,0,0,0-.34,1.13,1.38,1.38,0,0,0,.3,1,1.51,1.51,0,0,0,1,.56,0.39,0.39,0,0,0,.31-0.45,7.4,7.4,0,0,0-.57-1.75,3.17,3.17,0,0,1-.15-0.83,0.82,0.82,0,0,1,1.1-.9,2.84,2.84,0,0,1,.31.12l-0.11.06a1.42,1.42,0,0,1,.62.48H28.34A3.63,3.63,0,0,1,29,17.89l0,0a2.05,2.05,0,0,1,.61.89L29.75,19,29.59,19H29.44a1.4,1.4,0,0,0,.56.61,1.57,1.57,0,0,1-.33.07A1.3,1.3,0,0,1,29,19.44l0.06,0.13-0.2-.05a1.23,1.23,0,0,1-.62-1.05A0.84,0.84,0,0,1,28.42,18a6.22,6.22,0,0,0-.16-1.2,1.71,1.71,0,0,0-.78-1c-0.16,0-.21.08-0.23,0.28,0,0.39.7,1.72,0.79,2.29a4.79,4.79,0,0,1,.07,1,1.37,1.37,0,0,1-.32.57s0-.07,0-0.15a2.7,2.7,0,0,1-.45.51c0,0.16,0,.31.07,0.51a1.75,1.75,0,0,0,.75,1,2.34,2.34,0,0,0,.36.11l-0.16.12a0.22,0.22,0,0,0,.07.38l0.14,0-0.09.11a0.19,0.19,0,0,1-.15.06,1,1,0,0,0,.19.25H28.24a1.32,1.32,0,0,0-.43.9h-1l-0.32,0,0-.08-0.33,0a1.08,1.08,0,0,1,0-.13,0.78,0.78,0,0,1,.78-0.7h0.19c0-.1,0-0.21.07-0.31A2.48,2.48,0,0,0,26.36,22a3.19,3.19,0,0,1-1-.6,2.15,2.15,0,0,1-.49-1,2.16,2.16,0,0,1-.95-0.25,0.62,0.62,0,0,0,.34.4l-0.19.07a0.6,0.6,0,0,1-.21,0L24,20.88H23.82a1.22,1.22,0,0,0-.78.84s0,0.13,0,.13l-1.74-.09s0.1-.22.17-0.34a0.86,0.86,0,0,1,1-.43,0.78,0.78,0,0,0,.31-0.33,3,3,0,0,1-1.15-1.81,0.72,0.72,0,0,1,.88-0.72,4.5,4.5,0,0,1,.9.09,2.12,2.12,0,0,1-.29-0.32,1.14,1.14,0,0,1-.3-0.79,0.41,0.41,0,0,0-.15.28l-0.11-.13c-0.19-.2-0.32,0-0.51.1,0,0,0-.21,0-0.23l0-.07a0.81,0.81,0,0,0-.52.09l-0.06.06-0.19-.13v3.15a3.34,3.34,0,0,1-1,2.9,7.88,7.88,0,0,1-.94.62,8,8,0,0,1-2.73.41,1.34,1.34,0,0,0-.71.29H15.8A1.18,1.18,0,0,1,16.7,24a8.17,8.17,0,0,0,2.67-.38,3.36,3.36,0,0,0,1.58-1.44,4.83,4.83,0,0,0,.28-1.94V18.05H8.78v2.19A3.17,3.17,0,0,0,9.71,23a7.72,7.72,0,0,0,.93.61A8.18,8.18,0,0,0,13.3,24a1.18,1.18,0,0,1,.9.46H14a1.23,1.23,0,0,0-.71-0.29,8,8,0,0,1-2.73-.41c-1.13-.68-1.74-1.09-1.9-2.55a8.82,8.82,0,0,1,0-1V17.09l-0.19.13-0.06-.06a0.82,0.82,0,0,0-.52-0.09l0,0.07s0,0.23,0,.23c-0.19-.13-0.33-0.3-0.51-0.1l-0.11.13a0.41,0.41,0,0,0-.15-0.28,1.14,1.14,0,0,1-.3.79,2.15,2.15,0,0,1-.29.32,4.49,4.49,0,0,1,.9-0.09,0.72,0.72,0,0,1,.88.72,3,3,0,0,1-1.15,1.81,0.78,0.78,0,0,0,.31.33,0.86,0.86,0,0,1,1,.43c0.08,0.12.17,0.34,0.17,0.34l-1.74.09s0-.11,0-0.13a1.22,1.22,0,0,0-.78-0.84H6l0.1-.22a0.6,0.6,0,0,1-.21,0L5.73,20.6a0.62,0.62,0,0,0,.34-0.4,2.16,2.16,0,0,1-.95.25,2.15,2.15,0,0,1-.49,1,3.19,3.19,0,0,1-1,.6,2.47,2.47,0,0,0-.78.61c0,0.1.05,0.21,0.07,0.31H3.12a0.78,0.78,0,0,1,.78.7,1.13,1.13,0,0,1,0,.13l-0.33,0,0,0.08-0.32,0h-1a1.31,1.31,0,0,0-.43-0.9H1.49a1,1,0,0,0,.19-0.25,0.19,0.19,0,0,1-.15-0.06l-0.09-.11,0.14,0a0.22,0.22,0,0,0,.07-0.38L1.49,22a2.34,2.34,0,0,0,.36-0.11,1.75,1.75,0,0,0,.75-1c0-.2,0-0.35.07-0.51a2.71,2.71,0,0,1-.45-0.51c0,0.08,0,.15,0,0.15a1.37,1.37,0,0,1-.32-0.57,4.77,4.77,0,0,1,.07-1c0.09-.57.83-1.9,0.79-2.29,0-.2-0.07-0.3-0.23-0.28a1.71,1.71,0,0,0-.78,1A6.21,6.21,0,0,0,1.58,18a0.84,0.84,0,0,1,.18.44,1.23,1.23,0,0,1-.62,1.05l-0.2.05L1,19.44a1.3,1.3,0,0,1-.67.26A1.57,1.57,0,0,1,0,19.63,1.39,1.39,0,0,0,.56,19H0.41L0.25,19,0.4,18.8A2.05,2.05,0,0,1,1,17.91l0,0a3.63,3.63,0,0,1,.62-2.05H1.43a1.42,1.42,0,0,1,.62-0.48l-0.11-.06a2.82,2.82,0,0,1,.31-0.12,0.82,0.82,0,0,1,1.1.9,3.16,3.16,0,0,1-.15.83,7.39,7.39,0,0,0-.57,1.75,0.39,0.39,0,0,0,.31.45,1.51,1.51,0,0,0,1-.56,1.38,1.38,0,0,0,.3-1,10.8,10.8,0,0,0-.34-1.13c-0.06-.19-0.12-0.4-0.16-0.55l0,0-0.14.41A2,2,0,0,1,3.49,15l0,0a3.32,3.32,0,0,1-.08-0.48,2,2,0,0,1,.45-1.18c-0.11,0-.42.11-0.42,0.11a2.51,2.51,0,0,1,.84-0.84l-0.36.06a2.14,2.14,0,0,1,.26-0.27A1.89,1.89,0,0,1,5,12.21a1.43,1.43,0,0,0,.29,0l0.37-.13a0.66,0.66,0,0,0,0,.32,1,1,0,0,0,.34,0c0.42,0,.34.29,0.49,0.33s0.69,0,.69.22a1.69,1.69,0,0,1-.06.31c-0.1.36-.19,0.36-0.57,0.36a0.32,0.32,0,0,0-.34.3,0.46,0.46,0,0,0,.22.06,0.81,0.81,0,0,0,.37-0.15c0.24-.11.34,0.29,0.34,0.45a0.24,0.24,0,0,1-.25.29c-0.13,0-.25-0.08-0.38-0.08a0.22,0.22,0,0,0-.16.24,0.24,0.24,0,0,0,.22.23,0.8,0.8,0,0,0,.28-0.15,7.74,7.74,0,0,0,1-.51,1.94,1.94,0,0,1,.08-0.82,1.18,1.18,0,0,1,.47-0.4,0.68,0.68,0,0,1,.21,0H8.62V12.85a2.35,2.35,0,0,0-.93-1.71L7.6,11.05l-0.15-.13a2.08,2.08,0,0,1,.85-0.1c0.33,0,1.33.12,1.79,0.12a1.69,1.69,0,0,0,.91-0.2h8a1.69,1.69,0,0,0,.91.2c0.45,0,1.45-.12,1.78-0.12a3,3,0,0,1,.76,0l0.09,0.05-0.15.13-0.08.08h0Z"/><path class="b" d="M22.31,11.13a2.35,2.35,0,0,0-.93,1.71v0.21h0.06a0.68,0.68,0,0,1,.21,0,1.19,1.19,0,0,1,.47.4,2,2,0,0,1,.08.82,7.72,7.72,0,0,0,1,.51,0.79,0.79,0,0,0,.28.15,0.24,0.24,0,0,0,.22-0.23,0.23,0.23,0,0,0-.16-0.24c-0.13,0-.25.08-0.38,0.08a0.24,0.24,0,0,1-.25-0.29c0-.16.1-0.56,0.34-0.45a0.81,0.81,0,0,0,.37.15,0.46,0.46,0,0,0,.22-0.06,0.32,0.32,0,0,0-.34-0.3c-0.38,0-.47,0-0.57-0.36A1.69,1.69,0,0,1,22.84,13c0-.25.53-0.18,0.69-0.22s0.07-.33.5-0.33a1,1,0,0,0,.33,0,0.65,0.65,0,0,0,0-.32l0.37,0.13a1.43,1.43,0,0,0,.29,0,1.89,1.89,0,0,1,.8.25,2.15,2.15,0,0,1,.26.27l-0.36-.06a2.5,2.5,0,0,1,.84.84s-0.31-.09-0.42-0.11a2,2,0,0,1,.45,1.18,3.26,3.26,0,0,1-.08.48l0,0a2,2,0,0,1-.13,1.32l-0.14-.41,0,0c0,0.15-.1.36-0.16,0.55a10.8,10.8,0,0,0-.34,1.13,1.38,1.38,0,0,0,.3,1,1.51,1.51,0,0,0,1,.56,0.39,0.39,0,0,0,.31-0.45,7.4,7.4,0,0,0-.57-1.75,3.17,3.17,0,0,1-.15-0.83,0.82,0.82,0,0,1,1.1-.9,2.84,2.84,0,0,1,.31.12l-0.11.06a1.42,1.42,0,0,1,.62.48H28.34A3.63,3.63,0,0,1,29,17.89l0,0a2.05,2.05,0,0,1,.61.89L29.75,19,29.59,19H29.44a1.4,1.4,0,0,0,.56.61,1.57,1.57,0,0,1-.33.07A1.3,1.3,0,0,1,29,19.44l0.06,0.13-0.2-.05a1.23,1.23,0,0,1-.62-1.05A0.84,0.84,0,0,1,28.42,18a6.22,6.22,0,0,0-.16-1.2,1.71,1.71,0,0,0-.78-1c-0.16,0-.21.08-0.23,0.28,0,0.39.7,1.72,0.79,2.29a4.79,4.79,0,0,1,.07,1,1.37,1.37,0,0,1-.32.57s0-.07,0-0.15a2.7,2.7,0,0,1-.45.51c0,0.16,0,.31.07,0.51a1.75,1.75,0,0,0,.75,1,2.34,2.34,0,0,0,.36.11l-0.16.12a0.22,0.22,0,0,0,.07.38l0.14,0-0.09.11a0.19,0.19,0,0,1-.15.06,1,1,0,0,0,.19.25H28.24a1.32,1.32,0,0,0-.43.9h-1l-0.32,0,0-.08-0.33,0s0-.09,0-0.13a0.78,0.78,0,0,1,.78-0.7h0.19c0-.1,0-0.21.07-0.31A2.48,2.48,0,0,0,26.36,22a3.19,3.19,0,0,1-1-.6,2.15,2.15,0,0,1-.49-1,2.16,2.16,0,0,1-.95-0.25,0.62,0.62,0,0,0,.34.4l-0.19.07a0.6,0.6,0,0,1-.21,0L24,20.88H23.82a1.22,1.22,0,0,0-.78.84l0,0.13-1.74-.09s0.1-.22.17-0.34a0.86,0.86,0,0,1,1-.43,0.78,0.78,0,0,0,.31-0.33,3,3,0,0,1-1.15-1.81,0.72,0.72,0,0,1,.88-0.72,4.5,4.5,0,0,1,.9.09,2.12,2.12,0,0,1-.29-0.32,1.14,1.14,0,0,1-.3-0.79,0.41,0.41,0,0,0-.15.28l-0.11-.13c-0.19-.2-0.32,0-0.51.1,0,0,0-.21,0-0.23l0-.07a0.81,0.81,0,0,0-.52.09l-0.06.06-0.19-.13v3.15a3.34,3.34,0,0,1-1,2.9,7.88,7.88,0,0,1-.94.62,8,8,0,0,1-2.73.41,1.34,1.34,0,0,0-.71.29H15.8A1.18,1.18,0,0,1,16.7,24a8.17,8.17,0,0,0,2.67-.38,3.36,3.36,0,0,0,1.58-1.44,4.83,4.83,0,0,0,.28-1.94V18.05H8.78v2.19A3.17,3.17,0,0,0,9.71,23a7.72,7.72,0,0,0,.93.61A8.18,8.18,0,0,0,13.3,24a1.18,1.18,0,0,1,.9.46H14a1.23,1.23,0,0,0-.71-0.29,8,8,0,0,1-2.73-.41c-1.13-.68-1.74-1.09-1.9-2.55a8.82,8.82,0,0,1,0-1V17.09l-0.19.13-0.06-.06a0.82,0.82,0,0,0-.52-0.09l0,0.07s0,0.23,0,.23c-0.19-.13-0.33-0.3-0.51-0.1l-0.11.13a0.41,0.41,0,0,0-.15-0.28,1.14,1.14,0,0,1-.3.79,2.15,2.15,0,0,1-.29.32,4.49,4.49,0,0,1,.9-0.09,0.72,0.72,0,0,1,.88.72,3,3,0,0,1-1.15,1.81,0.78,0.78,0,0,0,.31.33,0.86,0.86,0,0,1,1,.43c0.08,0.12.17,0.34,0.17,0.34l-1.74.09,0-.13a1.22,1.22,0,0,0-.78-0.84H6l0.1-.22a0.6,0.6,0,0,1-.21,0L5.73,20.6a0.62,0.62,0,0,0,.34-0.4,2.16,2.16,0,0,1-.95.25,2.15,2.15,0,0,1-.49,1,3.19,3.19,0,0,1-1,.6,2.47,2.47,0,0,0-.78.61c0,0.1.05,0.21,0.07,0.31H3.12a0.78,0.78,0,0,1,.78.7s0,0.13,0,.13l-0.33,0,0,0.08-0.32,0h-1a1.31,1.31,0,0,0-.43-0.9H1.49a1,1,0,0,0,.19-0.25,0.19,0.19,0,0,1-.15-0.06l-0.09-.11,0.14,0a0.22,0.22,0,0,0,.07-0.38L1.49,22a2.34,2.34,0,0,0,.36-0.11,1.75,1.75,0,0,0,.75-1c0-.2,0-0.35.07-0.51a2.71,2.71,0,0,1-.45-0.51c0,0.08,0,.15,0,0.15a1.37,1.37,0,0,1-.32-0.57,4.77,4.77,0,0,1,.07-1c0.09-.57.83-1.9,0.79-2.29,0-.2-0.07-0.3-0.23-0.28a1.71,1.71,0,0,0-.78,1A6.21,6.21,0,0,0,1.58,18a0.84,0.84,0,0,1,.18.44,1.23,1.23,0,0,1-.62,1.05l-0.2.05L1,19.44a1.3,1.3,0,0,1-.67.26A1.57,1.57,0,0,1,0,19.63,1.39,1.39,0,0,0,.56,19H0.41L0.25,19,0.4,18.8A2.05,2.05,0,0,1,1,17.91l0,0a3.63,3.63,0,0,1,.62-2.05H1.43a1.42,1.42,0,0,1,.62-0.48l-0.11-.06a2.82,2.82,0,0,1,.31-0.12,0.82,0.82,0,0,1,1.1.9,3.16,3.16,0,0,1-.15.83,7.39,7.39,0,0,0-.57,1.75,0.39,0.39,0,0,0,.31.45,1.51,1.51,0,0,0,1-.56,1.38,1.38,0,0,0,.3-1,10.8,10.8,0,0,0-.34-1.13c-0.06-.19-0.12-0.4-0.16-0.55l0,0-0.14.41A2,2,0,0,1,3.49,15l0,0a3.27,3.27,0,0,1-.08-0.48,2,2,0,0,1,.45-1.18c-0.11,0-.42.11-0.42,0.11a2.51,2.51,0,0,1,.84-0.84l-0.36.06a2.14,2.14,0,0,1,.26-0.27A1.89,1.89,0,0,1,5,12.21a1.43,1.43,0,0,0,.29,0l0.37-.13a0.66,0.66,0,0,0,0,.32,1,1,0,0,0,.34,0c0.42,0,.34.29,0.49,0.33s0.69,0,.69.22a1.69,1.69,0,0,1-.06.31c-0.1.36-.19,0.36-0.57,0.36a0.32,0.32,0,0,0-.34.3,0.46,0.46,0,0,0,.22.06,0.81,0.81,0,0,0,.37-0.15c0.24-.11.34,0.29,0.34,0.45a0.24,0.24,0,0,1-.25.29c-0.13,0-.25-0.08-0.38-0.08a0.22,0.22,0,0,0-.16.24,0.24,0.24,0,0,0,.22.23,0.8,0.8,0,0,0,.28-0.15,7.74,7.74,0,0,0,1-.51,2,2,0,0,1,.08-0.82,1.18,1.18,0,0,1,.47-0.4,0.68,0.68,0,0,1,.21,0H8.62V12.85a2.35,2.35,0,0,0-.93-1.71L7.6,11.05l-0.15-.13a2.08,2.08,0,0,1,.85-0.1c0.33,0,1.33.12,1.79,0.12a1.69,1.69,0,0,0,.91-0.2h8a1.69,1.69,0,0,0,.91.2c0.45,0,1.45-.12,1.78-0.12a3,3,0,0,1,.76,0l0.09,0.05-0.15.13-0.08.08h0Z"/><path class="c" d="M12.48,8.21a1.75,1.75,0,0,1-.61-0.41A0.58,0.58,0,0,1,11.72,7a1.16,1.16,0,0,1,.69-0.51v0a0.77,0.77,0,0,1,1-.55L13.61,6a3.91,3.91,0,0,0,.61.29,0.15,0.15,0,0,0,.16-0.18,0.49,0.49,0,0,0-.23-0.33,0.84,0.84,0,0,1-.45-0.1,0.39,0.39,0,0,1-.18-0.5,0.21,0.21,0,0,1,.22-0.13A0.41,0.41,0,0,1,14.07,5a1.55,1.55,0,0,1,.22,0,0.36,0.36,0,0,0,.38-0.46,2,2,0,0,1,0-.56,0.52,0.52,0,0,1,.15-0.24,0.2,0.2,0,0,1-.06-0.12c0-.11.13-0.35,0.15-0.5S15,2.7,15,2.7s0.06,0.24.08,0.39,0.15,0.39.15,0.5a0.22,0.22,0,0,1-.07.13,0.52,0.52,0,0,1,.14.23,2,2,0,0,1,0,.56,0.36,0.36,0,0,0,.38.46,1.56,1.56,0,0,1,.22,0,0.41,0.41,0,0,1,.34.12,0.21,0.21,0,0,1,.22.13,0.39,0.39,0,0,1-.18.5,0.84,0.84,0,0,1-.45.1,0.49,0.49,0,0,0-.23.33,0.15,0.15,0,0,0,.16.18A3.92,3.92,0,0,0,16.39,6L16.57,6a0.77,0.77,0,0,1,1,.55v0a1.16,1.16,0,0,1,.69.51,0.58,0.58,0,0,1-.15.75,1.75,1.75,0,0,1-.61.41l0.18,0a1.11,1.11,0,0,1,1.36-.1h0.19a0.5,0.5,0,0,1,.41.32,6,6,0,0,1,1.81.46,0.21,0.21,0,0,1,.1.16V9.6H22c0.36,0,.7-0.15.7,0.41v0.86a0.18,0.18,0,0,1,0,.15,0.62,0.62,0,0,1-.41.2l0,0.69-0.54-.2,0.09-.11,0.31,0.11,0-.43,0.13-.12,0.12-.11c0.11,0,.18-0.06.17-0.11h0v0l-0.09-.05a3,3,0,0,0-.76,0c-0.33,0-1.33.12-1.78,0.12-0.23,0-1,0-1-.38a0.27,0.27,0,0,1,0-.09v0l0,0a1.75,1.75,0,0,1-.47.3H18.27l0.14-.06a1.56,1.56,0,0,0,.51-0.35v0a1.2,1.2,0,0,1-.76.27,0.88,0.88,0,0,1-.9-0.57,0.59,0.59,0,0,1,0-.11,0.4,0.4,0,0,0-.08.24,1,1,0,0,0,.31.64h-0.1a1.13,1.13,0,0,1-.21-0.32l0,0.32H16.82l-0.13-1a2,2,0,0,1-3.36,0l-0.13,1H12.84l0-.41a1.08,1.08,0,0,1-.25.42h-0.1a1,1,0,0,0,.31-0.64,0.4,0.4,0,0,0-.08-0.24,0.59,0.59,0,0,1,0,.11,0.88,0.88,0,0,1-.9.57,1.2,1.2,0,0,1-.76-0.27v0a1.57,1.57,0,0,0,.51.35l0.14,0.06H11.56a1.75,1.75,0,0,1-.47-0.3l0,0v0a0.27,0.27,0,0,1,0,.09c0,0.37-.77.38-1,0.38-0.45,0-1.45-.12-1.79-0.12a2.14,2.14,0,0,0-.85.1v0h0c0,0.07.15,0.1,0.17,0.11l0.12,0.12,0.13,0.12,0,0.43,0.31-.11,0.09,0.11-0.54.2,0-.7-0.2,0C7.33,11.1,7.24,11,7.32,10.87V10A0.35,0.35,0,0,1,7.6,9.58c0.14,0,.27,0,0.41,0H8.43V9.08a1.1,1.1,0,0,1,.8-0.41c0.22,0,.58-0.12,1.12-0.21a0.5,0.5,0,0,1,.41-0.32h0.19a1.11,1.11,0,0,1,1.36.1l0.18,0h0Z"/><path class="d" d="M12.48,8.21a1.75,1.75,0,0,1-.61-0.41A0.58,0.58,0,0,1,11.72,7a1.16,1.16,0,0,1,.69-0.51v0a0.77,0.77,0,0,1,1-.55L13.61,6a3.91,3.91,0,0,0,.61.29,0.15,0.15,0,0,0,.16-0.18,0.51,0.51,0,0,0-.23-0.33,0.84,0.84,0,0,1-.45-0.1,0.39,0.39,0,0,1-.18-0.5,0.21,0.21,0,0,1,.22-0.13A0.41,0.41,0,0,1,14.07,5a1.55,1.55,0,0,1,.22,0,0.36,0.36,0,0,0,.38-0.46,2,2,0,0,1,0-.56,0.52,0.52,0,0,1,.15-0.24,0.2,0.2,0,0,1-.06-0.12c0-.11.13-0.35,0.15-0.5S15,2.7,15,2.7s0.06,0.24.08,0.39,0.15,0.39.15,0.5a0.22,0.22,0,0,1-.07.13,0.52,0.52,0,0,1,.14.23,2,2,0,0,1,0,.56,0.36,0.36,0,0,0,.38.46,1.56,1.56,0,0,1,.22,0,0.41,0.41,0,0,1,.34.12,0.21,0.21,0,0,1,.22.13,0.39,0.39,0,0,1-.18.5,0.84,0.84,0,0,1-.45.1,0.51,0.51,0,0,0-.23.33,0.15,0.15,0,0,0,.16.18A3.92,3.92,0,0,0,16.39,6L16.57,6a0.77,0.77,0,0,1,1,.55v0a1.16,1.16,0,0,1,.69.51,0.58,0.58,0,0,1-.15.75,1.75,1.75,0,0,1-.61.41l0.18,0a1.11,1.11,0,0,1,1.36-.1h0.19a0.5,0.5,0,0,1,.41.32,6,6,0,0,1,1.81.46,0.21,0.21,0,0,1,.1.16V9.6H22c0.36,0,.7-0.15.7,0.41v0.86a0.18,0.18,0,0,1,0,.15,0.62,0.62,0,0,1-.41.2l0,0.69-0.54-.2,0.09-.11,0.31,0.11,0-.43,0.13-.12,0.12-.11c0.11,0,.18-0.06.17-0.11h0v0l-0.09-.05a3,3,0,0,0-.76,0c-0.33,0-1.33.12-1.78,0.12-0.23,0-1,0-1-.38a0.27,0.27,0,0,1,0-.09v0l0,0a1.75,1.75,0,0,1-.47.3H18.27l0.14-.06a1.56,1.56,0,0,0,.51-0.35v0a1.2,1.2,0,0,1-.76.27,0.88,0.88,0,0,1-.9-0.57,0.59,0.59,0,0,1,0-.11,0.42,0.42,0,0,0-.08.24,0.93,0.93,0,0,0,.31.64h-0.1a1.13,1.13,0,0,1-.21-0.32l0,0.32H16.82l-0.13-1a2,2,0,0,1-3.36,0l-0.13,1H12.84l0-.41a1.08,1.08,0,0,1-.25.42h-0.1a0.93,0.93,0,0,0,.31-0.64,0.42,0.42,0,0,0-.08-0.24,0.59,0.59,0,0,1,0,.11,0.88,0.88,0,0,1-.9.57,1.2,1.2,0,0,1-.76-0.27v0a1.57,1.57,0,0,0,.51.35l0.14,0.06H11.56a1.75,1.75,0,0,1-.47-0.3l0,0v0a0.27,0.27,0,0,1,0,.09c0,0.37-.77.38-1,0.38-0.45,0-1.45-.12-1.79-0.12a2.14,2.14,0,0,0-.85.1v0h0c0,0.07.17,0.11,0.17,0.11l0.12,0.12,0.13,0.12,0,0.43,0.31-.11,0.09,0.11-0.54.2,0-.7-0.2,0C7.33,11.1,7.24,11,7.32,10.87V10A0.35,0.35,0,0,1,7.6,9.58c0.14,0,.27,0,0.41,0H8.43V9.08a1.1,1.1,0,0,1,.8-0.41c0.22,0,.58-0.12,1.12-0.21a0.5,0.5,0,0,1,.41-0.32h0.19a1.11,1.11,0,0,1,1.36.1l0.18,0h0Z"/><path class="c" d="M20.86,16.27a0.44,0.44,0,0,1,.17.08,0.35,0.35,0,0,1,.18.27A0.54,0.54,0,0,1,21,16.48l-0.16-.05V17L21,16.91H21.4L21.55,17a1.49,1.49,0,0,1,.92-0.09L22.4,17a0.32,0.32,0,0,1,.23.09h0A0.69,0.69,0,0,1,23.37,17l-0.16.14a1.52,1.52,0,0,1-.25.09,2.11,2.11,0,0,0,.86,1.1l-0.07.14a3.11,3.11,0,0,0-.35-0.09,4.33,4.33,0,0,0-.88-0.09c-0.66,0-.72.35-0.72,0.56A3,3,0,0,0,23,20.63s0,0.1-.07.16a1.09,1.09,0,0,1-.38.38,1.56,1.56,0,0,0-.66.06,1.09,1.09,0,0,0-.3.39h0.2a0.88,0.88,0,0,1,.13-0.29c0-.05.22-0.13,0.22-0.08a0.54,0.54,0,0,1-.15.19,0.24,0.24,0,0,0,0,.18H22.1a1.89,1.89,0,0,1,.13-0.26,0.24,0.24,0,0,1,.23-0.06,0.58,0.58,0,0,1-.15.19,0.44,0.44,0,0,0-.06.14l0.63,0a1.4,1.4,0,0,1,.85-0.94,2.53,2.53,0,0,1-.11-0.41l0.21,0.14,0.06,0a1.16,1.16,0,0,1-.18-0.68,3.25,3.25,0,0,0,.3.24,2.11,2.11,0,0,0,1,.23,2.16,2.16,0,0,0,.47,1,3,3,0,0,0,.94.57,2.62,2.62,0,0,1,.89.71s0,0.14-.06.25a2.15,2.15,0,0,0,0,.27,0.74,0.74,0,0,0-.95.51h0.15a0.48,0.48,0,0,1,.07-0.19,0.28,0.28,0,0,1,.23-0.18,0.39,0.39,0,0,1-.09.23,1.27,1.27,0,0,0-.07.18l0,0h0.17a1.16,1.16,0,0,1,.1-0.25A0.21,0.21,0,0,1,27,23.31c0.05,0,0,.13-0.08.23a0.72,0.72,0,0,0-.05.14h0.78a1.23,1.23,0,0,1,.49-0.89h0a1.35,1.35,0,0,1-.1-0.38l0.06,0a0.37,0.37,0,0,1,0-.4,1.14,1.14,0,0,1-.5-0.38,2.09,2.09,0,0,1-.43-0.83,1.43,1.43,0,0,0-.36-1,0.84,0.84,0,0,0,.8-0.24l0,0.12c0.08-.14.18-0.35,0.18-0.35l0.08,0.12a3.07,3.07,0,0,0,0-1.07,21.73,21.73,0,0,1-.8-2.33,0.38,0.38,0,0,1,.41-0.43,1.79,1.79,0,0,1,.92,1.14,6.56,6.56,0,0,1,.17,1.28,0.78,0.78,0,0,0-.18.39,1,1,0,0,0,.38.79l0-.25s0.22,0.2.3,0.26a1.48,1.48,0,0,0,.57.28,0.88,0.88,0,0,1-.32-0.64,0.13,0.13,0,0,1,.16,0A1.41,1.41,0,0,0,28.78,18a2.28,2.28,0,0,0,0-.42A3.89,3.89,0,0,0,28,15.67h0.15a1.08,1.08,0,0,0-.71-0.21l0.22-.13a0.66,0.66,0,0,0-.88.74,3.64,3.64,0,0,0,.36,1.34,4.09,4.09,0,0,1,.36,1.24,0.54,0.54,0,0,1-.47.61,1.66,1.66,0,0,1-1.16-.63,1.53,1.53,0,0,1-.33-1.08,10.68,10.68,0,0,1,.35-1.16c0.11-.32.24-0.86,0.24-0.86l0.16,0.18a0.74,0.74,0,0,1,.08.14,2.79,2.79,0,0,0-.11-1.15A5,5,0,0,0,26,14.2l0.4,0.29,0.06,0.06a2.23,2.23,0,0,0-.64-1.33,3.09,3.09,0,0,1,.37,0,3.31,3.31,0,0,0-.88-0.66l0.24-.07h0.08a2.49,2.49,0,0,0-.77-0.15,1.07,1.07,0,0,1-.3-0.07v0c0,0.3-.29.26-0.52,0.26a0.23,0.23,0,0,0-.27.17A1.07,1.07,0,0,1,23,13a1.17,1.17,0,0,0,.12.47,1.09,1.09,0,0,0,.33,0,0.48,0.48,0,0,1,.5.46,0.35,0.35,0,0,1-.38.22A1,1,0,0,1,23.13,14a0.61,0.61,0,0,0-.09.31c0,0.12,0,.13.09,0.13s0.25-.08.38-0.08a0.38,0.38,0,0,1,.32.4,0.4,0.4,0,0,1-.38.39A1.33,1.33,0,0,1,23,14.88a3.88,3.88,0,0,1-.89-0.47,0.17,0.17,0,0,1,0-.11A2.11,2.11,0,0,0,22,13.57a1,1,0,0,0-.39-0.33,0.67,0.67,0,0,0-.19,0v0.13l0.22,0.06a0.49,0.49,0,0,1,.3.3,0.49,0.49,0,0,1-.3-0.12,0.62,0.62,0,0,0-.22-0.07v0.14a2,2,0,0,1,.26.1,0.58,0.58,0,0,1,.22.23s-0.08.06-.11,0a1.52,1.52,0,0,0-.23-0.12,0.45,0.45,0,0,0-.13,0v0.42a0.69,0.69,0,0,1,.27.28,0.56,0.56,0,0,1,.09.21v0a1.69,1.69,0,0,1,.66.54l-0.09,0a0.47,0.47,0,0,1,.22.37v0a0.49,0.49,0,0,1,.53.26s-0.54.18-.74,0.27a2,2,0,0,1-.93.23,0.74,0.74,0,0,0-.51-0.67V16a0.73,0.73,0,0,1,.19.08,0.33,0.33,0,0,1,.15.21s-0.08,0-.14,0A0.23,0.23,0,0,0,21,16.15H20.9l0,0.14h0Z"/><path class="d" d="M20.86,16.27a0.44,0.44,0,0,1,.17.08,0.35,0.35,0,0,1,.18.27A0.54,0.54,0,0,1,21,16.48l-0.16-.05V17L21,16.91H21.4L21.55,17a1.49,1.49,0,0,1,.92-0.09L22.4,17a0.32,0.32,0,0,1,.23.09h0A0.69,0.69,0,0,1,23.37,17l-0.16.14a1.52,1.52,0,0,1-.25.09,2.11,2.11,0,0,0,.86,1.1l-0.07.14a3.11,3.11,0,0,0-.35-0.09,4.33,4.33,0,0,0-.88-0.09c-0.66,0-.72.35-0.72,0.56A3,3,0,0,0,23,20.63s0,0.1-.07.16a1.09,1.09,0,0,1-.38.38,1.56,1.56,0,0,0-.66.06,1.09,1.09,0,0,0-.3.39h0.2a0.88,0.88,0,0,1,.13-0.29c0-.05.22-0.13,0.22-0.08a0.54,0.54,0,0,1-.15.19,0.26,0.26,0,0,0,0,.18H22.1a1.89,1.89,0,0,1,.13-0.26,0.24,0.24,0,0,1,.23-0.06,0.58,0.58,0,0,1-.15.19,0.44,0.44,0,0,0-.06.14l0.63,0a1.4,1.4,0,0,1,.85-0.94,2.53,2.53,0,0,1-.11-0.41l0.21,0.14,0.06,0a1.16,1.16,0,0,1-.18-0.68,3.25,3.25,0,0,0,.3.24,2.11,2.11,0,0,0,1,.23,2.16,2.16,0,0,0,.47,1,3,3,0,0,0,.94.57,2.62,2.62,0,0,1,.89.71s0,0.14-.06.25a2.15,2.15,0,0,0,0,.27,0.74,0.74,0,0,0-.95.51h0.15a0.43,0.43,0,0,1,.07-0.19,0.28,0.28,0,0,1,.23-0.18,0.39,0.39,0,0,1-.09.23,1.27,1.27,0,0,0-.07.18l0,0h0.17a1.16,1.16,0,0,1,.1-0.25A0.21,0.21,0,0,1,27,23.31c0.05,0,0,.13-0.08.23a0.72,0.72,0,0,0-.05.14h0.78a1.23,1.23,0,0,1,.49-0.89h0a1.35,1.35,0,0,1-.1-0.38l0.06,0a0.37,0.37,0,0,1,0-.4,1.14,1.14,0,0,1-.5-0.38,2.09,2.09,0,0,1-.43-0.83,1.43,1.43,0,0,0-.36-1,0.84,0.84,0,0,0,.8-0.24l0,0.12c0.08-.14.18-0.35,0.18-0.35l0.08,0.12a3.07,3.07,0,0,0,0-1.07,21.73,21.73,0,0,1-.8-2.33,0.38,0.38,0,0,1,.41-0.43,1.79,1.79,0,0,1,.92,1.14,6.56,6.56,0,0,1,.17,1.28,0.78,0.78,0,0,0-.18.39,1,1,0,0,0,.38.79l0-.25s0.22,0.2.3,0.26a1.48,1.48,0,0,0,.57.28,0.88,0.88,0,0,1-.32-0.64,0.13,0.13,0,0,1,.16,0A1.41,1.41,0,0,0,28.78,18a2.29,2.29,0,0,0,0-.42A3.89,3.89,0,0,0,28,15.67h0.15a1.08,1.08,0,0,0-.71-0.21l0.22-.13a0.66,0.66,0,0,0-.88.74,3.64,3.64,0,0,0,.36,1.34,4.09,4.09,0,0,1,.36,1.24,0.54,0.54,0,0,1-.47.61,1.66,1.66,0,0,1-1.16-.63,1.53,1.53,0,0,1-.33-1.08,10.68,10.68,0,0,1,.35-1.16c0.11-.32.24-0.86,0.24-0.86l0.16,0.18a0.74,0.74,0,0,1,.08.14,2.79,2.79,0,0,0-.11-1.15A5,5,0,0,0,26,14.2l0.4,0.29,0.06,0.06a2.23,2.23,0,0,0-.64-1.33,3.09,3.09,0,0,1,.37,0,3.31,3.31,0,0,0-.88-0.66l0.24-.07h0.08a2.49,2.49,0,0,0-.77-0.15,1.07,1.07,0,0,1-.3-0.07v0c0,0.3-.29.26-0.52,0.26a0.23,0.23,0,0,0-.27.17A1.07,1.07,0,0,1,23,13a1.2,1.2,0,0,0,.12.47,1.09,1.09,0,0,0,.33,0,0.48,0.48,0,0,1,.5.46,0.35,0.35,0,0,1-.38.22A1,1,0,0,1,23.13,14a0.73,0.73,0,0,0-.09.31c0,0.12,0,.13.09,0.13s0.25-.08.38-0.08a0.38,0.38,0,0,1,.32.4,0.4,0.4,0,0,1-.38.39A1.33,1.33,0,0,1,23,14.88a3.88,3.88,0,0,1-.89-0.47,0.17,0.17,0,0,1,0-.11A2.11,2.11,0,0,0,22,13.57a1,1,0,0,0-.39-0.33,0.67,0.67,0,0,0-.19,0v0.13l0.22,0.06a0.49,0.49,0,0,1,.3.3,0.49,0.49,0,0,1-.3-0.12,0.71,0.71,0,0,0-.22-0.07v0.14a2,2,0,0,1,.26.1,0.58,0.58,0,0,1,.22.23s-0.08.06-.11,0a1.52,1.52,0,0,0-.23-0.12,0.45,0.45,0,0,0-.13,0v0.42a0.69,0.69,0,0,1,.27.28,0.56,0.56,0,0,1,.09.21v0a1.69,1.69,0,0,1,.66.54l-0.09,0a0.47,0.47,0,0,1,.22.37v0a0.49,0.49,0,0,1,.53.26s-0.54.18-.74,0.27a2,2,0,0,1-.93.23,0.74,0.74,0,0,0-.51-0.67V16a0.73,0.73,0,0,1,.19.08,0.33,0.33,0,0,1,.15.21s-0.08,0-.14,0A0.23,0.23,0,0,0,21,16.15H20.9l0,0.14h0Z"/><path class="c" d="M9.14,16.27a0.44,0.44,0,0,0-.17.08,0.34,0.34,0,0,0-.18.27A0.54,0.54,0,0,0,9,16.48l0.16-.05V17L9,16.91H8.6L8.45,17a1.49,1.49,0,0,0-.92-0.09L7.6,17a0.32,0.32,0,0,0-.23.09h0A0.69,0.69,0,0,0,6.63,17l0.16,0.14a1.52,1.52,0,0,0,.25.09,2.1,2.1,0,0,1-.86,1.1l0.07,0.14a3.09,3.09,0,0,1,.35-0.09,4.33,4.33,0,0,1,.88-0.09c0.66,0,.72.35,0.72,0.56A3,3,0,0,1,7,20.63s0,0.1.07,0.16a1.1,1.1,0,0,0,.38.38,1.56,1.56,0,0,1,.66.06,1.09,1.09,0,0,1,.3.39H8.23a0.87,0.87,0,0,0-.13-0.29c0-.05-0.22-0.13-0.22-0.08a0.54,0.54,0,0,0,.15.19,0.24,0.24,0,0,1,0,.18H7.9a1.9,1.9,0,0,0-.13-0.26,0.24,0.24,0,0,0-.23-0.06,0.58,0.58,0,0,0,.15.19,0.45,0.45,0,0,1,.06.14l-0.63,0a1.4,1.4,0,0,0-.85-0.94,2.52,2.52,0,0,0,.11-0.41l-0.21.14-0.06,0a1.16,1.16,0,0,0,.18-0.68,3.23,3.23,0,0,1-.3.24,2.1,2.1,0,0,1-1,.23,2.17,2.17,0,0,1-.47,1,3,3,0,0,1-.94.57,2.62,2.62,0,0,0-.89.71s0,0.14.06,0.25a2.2,2.2,0,0,1,0,.27,0.74,0.74,0,0,1,.95.51H3.58a0.48,0.48,0,0,0-.07-0.19,0.28,0.28,0,0,0-.23-0.18,0.38,0.38,0,0,0,.09.23,1.33,1.33,0,0,1,.07.18l0,0H3.26a1.15,1.15,0,0,0-.1-0.25A0.21,0.21,0,0,0,3,23.31c-0.05,0,0,.13.08,0.23a0.74,0.74,0,0,1,.05.14H2.31a1.23,1.23,0,0,0-.49-0.89h0a1.36,1.36,0,0,0,.1-0.38l-0.06,0a0.37,0.37,0,0,0,0-.4,1.14,1.14,0,0,0,.5-0.38,2.09,2.09,0,0,0,.43-0.83,1.43,1.43,0,0,1,.36-1,0.84,0.84,0,0,1-.8-0.24l0,0.12c-0.08-.14-0.18-0.35-0.18-0.35l-0.08.12a3.08,3.08,0,0,1,0-1.07,21.59,21.59,0,0,0,.8-2.33,0.37,0.37,0,0,0-.41-0.43,1.79,1.79,0,0,0-.92,1.14,6.63,6.63,0,0,0-.17,1.28,0.78,0.78,0,0,1,.18.39,1,1,0,0,1-.38.79l0-.25S1,19.2,1,19.26a1.47,1.47,0,0,1-.57.28A0.88,0.88,0,0,0,.72,18.9a0.13,0.13,0,0,0-.16,0A1.41,1.41,0,0,1,1.22,18a2.28,2.28,0,0,1,0-.42A3.89,3.89,0,0,1,2,15.67H1.83a1.09,1.09,0,0,1,.71-0.21l-0.22-.13a0.66,0.66,0,0,1,.88.74,3.64,3.64,0,0,1-.36,1.34,4.09,4.09,0,0,0-.36,1.24,0.54,0.54,0,0,0,.47.61,1.66,1.66,0,0,0,1.16-.63,1.53,1.53,0,0,0,.33-1.08,10.75,10.75,0,0,0-.35-1.16C4,16.08,3.85,15.53,3.85,15.53l-0.16.18a0.73,0.73,0,0,0-.08.14,2.8,2.8,0,0,1,.11-1.15A5,5,0,0,1,4,14.2l-0.4.29-0.06.06a2.22,2.22,0,0,1,.64-1.33,3.09,3.09,0,0,0-.37,0,3.32,3.32,0,0,1,.88-0.66l-0.24-.07H4.39a2.49,2.49,0,0,1,.77-0.15,1.07,1.07,0,0,0,.3-0.07v0c0,0.3.29,0.26,0.52,0.26a0.23,0.23,0,0,1,.27.17A1.07,1.07,0,0,0,7,13a1.17,1.17,0,0,1-.12.47,1.09,1.09,0,0,1-.33,0,0.48,0.48,0,0,0-.5.46,0.35,0.35,0,0,0,.38.22A1,1,0,0,0,6.87,14a0.6,0.6,0,0,1,.09.31c0,0.12,0,.13-0.09.13s-0.25-.08-0.38-0.08a0.38,0.38,0,0,0-.32.4,0.4,0.4,0,0,0,.38.39A1.32,1.32,0,0,0,7,14.88a3.87,3.87,0,0,0,.89-0.47,0.17,0.17,0,0,0,0-.11A2.1,2.1,0,0,1,8,13.57a1,1,0,0,1,.39-0.33,0.67,0.67,0,0,1,.19,0v0.13l-0.22.06a0.49,0.49,0,0,0-.3.3,0.49,0.49,0,0,0,.3-0.12,0.62,0.62,0,0,1,.22-0.07v0.14a2,2,0,0,0-.26.1,0.58,0.58,0,0,0-.22.23s0.08,0.06.11,0a1.52,1.52,0,0,1,.23-0.12,0.45,0.45,0,0,1,.13,0v0.42a0.7,0.7,0,0,0-.27.28,0.57,0.57,0,0,0-.09.21v0a1.69,1.69,0,0,0-.66.54l0.09,0a0.47,0.47,0,0,0-.22.37v0A0.49,0.49,0,0,0,6.9,16s0.54,0.18.74,0.27a2,2,0,0,0,.93.23,0.74,0.74,0,0,1,.51-0.67V16a0.73,0.73,0,0,0-.19.08,0.33,0.33,0,0,0-.15.21s0.08,0,.14,0A0.23,0.23,0,0,1,9,16.15H9.1l0,0.14h0Z"/><path class="d" d="M9.14,16.27a0.44,0.44,0,0,0-.17.08,0.34,0.34,0,0,0-.18.27A0.54,0.54,0,0,0,9,16.48l0.16-.05V17L9,16.91H8.6L8.45,17a1.49,1.49,0,0,0-.92-0.09L7.6,17a0.32,0.32,0,0,0-.23.09h0A0.69,0.69,0,0,0,6.63,17l0.16,0.14a1.52,1.52,0,0,0,.25.09,2.1,2.1,0,0,1-.86,1.1l0.07,0.14a3.09,3.09,0,0,1,.35-0.09,4.33,4.33,0,0,1,.88-0.09c0.66,0,.72.35,0.72,0.56A3,3,0,0,1,7,20.63s0,0.1.07,0.16a1.1,1.1,0,0,0,.38.38,1.56,1.56,0,0,1,.66.06,1.09,1.09,0,0,1,.3.39H8.23a0.87,0.87,0,0,0-.13-0.29c0-.05-0.22-0.13-0.22-0.08a0.54,0.54,0,0,0,.15.19,0.26,0.26,0,0,1,0,.18H7.9a1.9,1.9,0,0,0-.13-0.26,0.24,0.24,0,0,0-.23-0.06,0.58,0.58,0,0,0,.15.19,0.45,0.45,0,0,1,.06.14l-0.63,0a1.4,1.4,0,0,0-.85-0.94,2.52,2.52,0,0,0,.11-0.41l-0.21.14-0.06,0a1.16,1.16,0,0,0,.18-0.68,3.23,3.23,0,0,1-.3.24,2.1,2.1,0,0,1-1,.23,2.17,2.17,0,0,1-.47,1,3,3,0,0,1-.94.57,2.62,2.62,0,0,0-.89.71s0,0.14.06,0.25a2.2,2.2,0,0,1,0,.27,0.74,0.74,0,0,1,.95.51H3.58a0.43,0.43,0,0,0-.07-0.19,0.28,0.28,0,0,0-.23-0.18,0.38,0.38,0,0,0,.09.23,1.33,1.33,0,0,1,.07.18l0,0H3.26a1.15,1.15,0,0,0-.1-0.25A0.21,0.21,0,0,0,3,23.31c-0.05,0,0,.13.08,0.23a0.74,0.74,0,0,1,.05.14H2.31a1.23,1.23,0,0,0-.49-0.89h0a1.36,1.36,0,0,0,.1-0.38l-0.06,0a0.37,0.37,0,0,0,0-.4,1.14,1.14,0,0,0,.5-0.38,2.09,2.09,0,0,0,.43-0.83,1.43,1.43,0,0,1,.36-1,0.84,0.84,0,0,1-.8-0.24l0,0.12c-0.08-.14-0.18-0.35-0.18-0.35l-0.08.12a3.08,3.08,0,0,1,0-1.07,21.59,21.59,0,0,0,.8-2.33,0.37,0.37,0,0,0-.41-0.43,1.79,1.79,0,0,0-.92,1.14,6.63,6.63,0,0,0-.17,1.28,0.78,0.78,0,0,1,.18.39,1,1,0,0,1-.38.79l0-.25S1,19.2,1,19.26a1.47,1.47,0,0,1-.57.28A0.88,0.88,0,0,0,.72,18.9a0.13,0.13,0,0,0-.16,0A1.41,1.41,0,0,1,1.22,18a2.28,2.28,0,0,1,0-.42A3.89,3.89,0,0,1,2,15.67H1.83a1.09,1.09,0,0,1,.71-0.21l-0.22-.13a0.66,0.66,0,0,1,.88.74,3.64,3.64,0,0,1-.36,1.34,4.09,4.09,0,0,0-.36,1.24,0.54,0.54,0,0,0,.47.61,1.66,1.66,0,0,0,1.16-.63,1.53,1.53,0,0,0,.33-1.08,10.75,10.75,0,0,0-.35-1.16C4,16.08,3.85,15.53,3.85,15.53l-0.16.18a0.73,0.73,0,0,0-.08.14,2.8,2.8,0,0,1,.11-1.15A5,5,0,0,1,4,14.2l-0.4.29-0.06.06a2.22,2.22,0,0,1,.64-1.33,3.09,3.09,0,0,0-.37,0,3.32,3.32,0,0,1,.88-0.66l-0.24-.07H4.39a2.49,2.49,0,0,1,.77-0.15,1.07,1.07,0,0,0,.3-0.07v0c0,0.3.29,0.26,0.52,0.26a0.23,0.23,0,0,1,.27.17A1.07,1.07,0,0,0,7,13a1.2,1.2,0,0,1-.12.47,1.09,1.09,0,0,1-.33,0,0.48,0.48,0,0,0-.5.46,0.35,0.35,0,0,0,.38.22A1,1,0,0,0,6.87,14a0.73,0.73,0,0,1,.09.31c0,0.12,0,.13-0.09.13s-0.25-.08-0.38-0.08a0.38,0.38,0,0,0-.32.4,0.4,0.4,0,0,0,.38.39A1.32,1.32,0,0,0,7,14.88a3.87,3.87,0,0,0,.89-0.47,0.17,0.17,0,0,0,0-.11A2.1,2.1,0,0,1,8,13.57a1,1,0,0,1,.39-0.33,0.67,0.67,0,0,1,.19,0v0.13l-0.22.06a0.49,0.49,0,0,0-.3.3,0.49,0.49,0,0,0,.3-0.12,0.72,0.72,0,0,1,.22-0.07v0.14a2,2,0,0,0-.26.1,0.58,0.58,0,0,0-.22.23s0.08,0.06.11,0a1.52,1.52,0,0,1,.23-0.12,0.45,0.45,0,0,1,.13,0v0.42a0.7,0.7,0,0,0-.27.28,0.57,0.57,0,0,0-.09.21v0a1.69,1.69,0,0,0-.66.54l0.09,0a0.47,0.47,0,0,0-.22.37v0A0.49,0.49,0,0,0,6.9,16s0.54,0.18.74,0.27a2,2,0,0,0,.93.23,0.74,0.74,0,0,1,.51-0.67V16a0.73,0.73,0,0,0-.19.08,0.33,0.33,0,0,0-.15.21s0.08,0,.14,0A0.23,0.23,0,0,1,9,16.15H9.1l0,0.14h0Z"/><path class="e" d="M14.2,24.47A1.19,1.19,0,0,0,13.3,24a8.18,8.18,0,0,1-2.67-.38A7.72,7.72,0,0,1,9.71,23a3.17,3.17,0,0,1-.93-2.78V18.05H9.25v2a3.3,3.3,0,0,0,.52,2.37,3.25,3.25,0,0,0,2.1,1,8.77,8.77,0,0,1,2,.25,1.46,1.46,0,0,1,1,.8h0.35a1.46,1.46,0,0,1,1-.8,8.77,8.77,0,0,1,2-.25,3.25,3.25,0,0,0,2.1-1A3.3,3.3,0,0,0,20.75,20v-2h0.47v2.19A3.17,3.17,0,0,1,20.29,23a7.69,7.69,0,0,1-.93.61A8.18,8.18,0,0,1,16.7,24a1.19,1.19,0,0,0-.9.45H16A36,36,0,0,0,20.08,24V23.38l0.16-.11V24a18.88,18.88,0,0,0,1.94-.4,2.28,2.28,0,0,0,1.15-.72,0.51,0.51,0,0,0-.59-0.47,2.59,2.59,0,0,0-1.11.29,4.09,4.09,0,0,1-1,.2l0.17-.2,0.21,0a10.41,10.41,0,0,1,1.7-.42,0.69,0.69,0,0,1,.75.77v1.55a4.46,4.46,0,0,0,.61,0c0.56,0,.66,0,0.66-0.66v-2.1a2,2,0,0,1-1.21.18c-0.81-.08-2-0.23-2.3-0.27l0-.16h0.11l-0.07.14,1.74,0.09v0l0.52,0.06a1.49,1.49,0,0,0,1.17-.24h0a0.55,0.55,0,0,0-.56-0.37l-0.78-.15,0.2-.14,0.62,0.14h0V20.35l0.16,0v0.78a0.54,0.54,0,0,1,.49.57V24c0,0.75-.2.82-0.82,0.82a4.88,4.88,0,0,1-.61,0V25.3c0,0.63-.12.72-0.77,1A24,24,0,0,1,15,27.4a24,24,0,0,1-7.72-1.1c-0.64-.28-0.77-0.36-0.77-1V24.75a4.88,4.88,0,0,1-.61,0c-0.54,0-.82,0-0.82-0.82V21.74a0.54,0.54,0,0,1,.49-0.57V20.39l0.16,0v0.78h0L6.38,21l0.18,0.13-0.76.17a0.55,0.55,0,0,0-.56.37h0a1.49,1.49,0,0,0,1.17.24l0.52-.06v0l1.74-.09L8.6,21.61l0.11,0,0,0.19L6.44,22a1.68,1.68,0,0,1-1.21-.19V24c0,0.61.1,0.66,0.66,0.66a4.46,4.46,0,0,0,.61,0V23a0.69,0.69,0,0,1,.75-0.77,10.41,10.41,0,0,1,1.7.42l0.2,0,0.16,0.18-0.38,0a2.74,2.74,0,0,1-.57-0.13,2.59,2.59,0,0,0-1.11-.29,0.51,0.51,0,0,0-.58.47l0,0a2.26,2.26,0,0,0,1.11.67,18.88,18.88,0,0,0,1.94.4V23.27l0.16,0.11V24a36,36,0,0,0,4.06.42H14.2Z"/><path class="f" d="M23.33,23.13a2.53,2.53,0,0,1-1.11.63,33,33,0,0,1-7.22.88,33,33,0,0,1-7.22-.88,2.76,2.76,0,0,1-1.11-.62V25.3c0,0.54.06,0.58,0.67,0.85A23.91,23.91,0,0,0,15,27.24a23.9,23.9,0,0,0,7.66-1.09c0.61-.26.67-0.31,0.67-0.85V23.13h0Z"/><path class="g" d="M7.14,25.11l0,0a0.65,0.65,0,0,0,0,.36,0.31,0.31,0,0,0,.18.17,0.21,0.21,0,0,0,.19,0,0.25,0.25,0,0,0,.1-0.12,0.2,0.2,0,0,0,0-.16,0.68,0.68,0,0,0-.11-0.14l-0.09-.1a0.78,0.78,0,0,1-.17-0.26,0.38,0.38,0,0,1,0-.24,0.46,0.46,0,0,1,.18-0.23,0.34,0.34,0,0,1,.32,0,0.57,0.57,0,0,1,.17.1l0.09,0.07h0l0,0,0.05,0-0.14.42,0,0a0.63,0.63,0,0,0,0-.29,0.28,0.28,0,0,0-.17-0.18,0.19,0.19,0,0,0-.16,0,0.21,0.21,0,0,0-.09.26,1.19,1.19,0,0,0,.16.21L7.83,25a0.54,0.54,0,0,1,.1.15,0.41,0.41,0,0,1,0,.3,0.46,0.46,0,0,1-.2.24,0.42,0.42,0,0,1-.37,0l-0.1,0L7.17,25.6l0,0H7.06l0,0,0,0,0.16-.47h0Z"/><path class="g" d="M8.75,24.67v0a0.23,0.23,0,0,0-.15,0,0.21,0.21,0,0,0-.07.14l-0.16.66a0.68,0.68,0,0,0,0,.24,0.22,0.22,0,0,0,.18.21,0.28,0.28,0,0,0,.32-0.1,0.7,0.7,0,0,0,.1-0.25L9.09,25a0.23,0.23,0,0,0,0-.15A0.21,0.21,0,0,0,9,24.77v0l0.39,0.1v0a0.25,0.25,0,0,0-.12,0,0.19,0.19,0,0,0-.06.11L9,25.63a0.62,0.62,0,0,1-.21.36,0.42,0.42,0,0,1-.38.05,0.45,0.45,0,0,1-.37-0.31,0.58,0.58,0,0,1,0-.29l0.16-.66a0.24,0.24,0,0,0,0-.15,0.21,0.21,0,0,0-.11-0.07v0l0.6,0.15h0Z"/><path class="g" d="M9,26.09a0.17,0.17,0,0,0,.14,0,0.2,0.2,0,0,0,0-.11L9.37,25l-0.08-.14,0,0V24.8l0.38,0.07,0.47,0.95h0l0.1-.59a0.24,0.24,0,0,0,0-.15A0.18,0.18,0,0,0,10.08,25V24.94L10.48,25v0.05a0.24,0.24,0,0,0-.12,0,0.17,0.17,0,0,0,0,.11l-0.21,1.17h0l-0.6-1.2h0l-0.14.78a0.27,0.27,0,0,0,0,.13,0.17,0.17,0,0,0,.14.09v0.05L9,26.14V26.09H9Z"/><path class="g" d="M10.22,26.31h0.1a0.12,0.12,0,0,0,.07-0.1l0.14-1a0.12,0.12,0,0,0,0-.11l-0.1,0V25L11,25.08a0.65,0.65,0,0,1,.48.27,0.71,0.71,0,0,1,.09.51,0.7,0.7,0,0,1-.23.44,0.62,0.62,0,0,1-.52.14l-0.57-.08V26.31h0Zm0.47,0a0.09,0.09,0,0,0,.07,0A0.33,0.33,0,0,0,11,26.28a0.81,0.81,0,0,0,.17-0.47,1.08,1.08,0,0,0,0-.37,0.32,0.32,0,0,0-.27-0.29,0.1,0.1,0,0,0-.1,0,0.17,0.17,0,0,0,0,.08l-0.14,1a0.18,0.18,0,0,0,0,.09h0Z"/><path class="g" d="M11.43,26.53V26.48l0.11,0a0.13,0.13,0,0,0,.06-0.11l0.07-1a0.13,0.13,0,0,0,0-.12l-0.11,0V25.17l1,0.07,0,0.41h0a0.45,0.45,0,0,0-.1-0.28,0.47,0.47,0,0,0-.3-0.09,0.18,0.18,0,0,0-.11,0,0.1,0.1,0,0,0,0,.07l0,0.47a0.27,0.27,0,0,0,.21,0,0.52,0.52,0,0,0,.1-0.23h0l0,0.68h0A0.46,0.46,0,0,0,12.14,26a0.27,0.27,0,0,0-.21-0.09l0,0.49a0.11,0.11,0,0,0,0,.09,0.22,0.22,0,0,0,.12,0,0.49,0.49,0,0,0,.29-0.06,0.62,0.62,0,0,0,.21-0.27h0.05l-0.1.41-1.06-.07h0Z"/><path class="g" d="M12.55,26.57a0.19,0.19,0,0,0,.13,0,0.22,0.22,0,0,0,0-.14l0-.89a0.21,0.21,0,0,0,0-.15,0.23,0.23,0,0,0-.12,0V25.26l0.59,0a0.85,0.85,0,0,1,.29.06,0.31,0.31,0,0,1,.2.32,0.32,0.32,0,0,1-.12.25,0.4,0.4,0,0,1-.18.08l0.34,0.59,0,0h0v0l-0.37,0L13.09,26h0l0,0.4a0.23,0.23,0,0,0,0,.15,0.18,0.18,0,0,0,.13,0v0.05l-0.61,0V26.57h0Zm0.75-.66a0.29,0.29,0,0,0,.09-0.24,0.48,0.48,0,0,0,0-.19,0.19,0.19,0,0,0-.18-0.12,0.15,0.15,0,0,0-.1,0,0.09,0.09,0,0,0,0,.06L13,26a0.48,0.48,0,0,0,.26,0h0Z"/><path class="g" d="M13.78,26.63l0.11,0a0.13,0.13,0,0,0,.06-0.12l0-1a0.13,0.13,0,0,0,0-.12l-0.11,0V25.32h0.64v0.05a0.26,0.26,0,0,0-.15,0,0.21,0.21,0,0,0,0,.15l0,1a0.1,0.1,0,0,0,0,.09,0.24,0.24,0,0,0,.12,0,0.46,0.46,0,0,0,.28-0.08,0.64,0.64,0,0,0,.2-0.31h0.05l-0.08.46-1.05,0V26.63h0Z"/><path class="g" d="M15.57,26.22l-0.18-.47h0l-0.16.47h0.35Zm-0.68.44a0.13,0.13,0,0,0,.1-0.07,1,1,0,0,0,.07-0.17l0.39-1.11h0.05l0.43,1.06a1.54,1.54,0,0,0,.11.23,0.1,0.1,0,0,0,.1,0v0.05H15.55V26.64l0.12,0a0.07,0.07,0,0,0,0-.07,0.3,0.3,0,0,0,0-.07l0-.07,0-.12H15.19l0,0.16a0.45,0.45,0,0,0,0,.11,0.07,0.07,0,0,0,.05.06h0.09V26.7H14.9V26.65h0Z"/><path class="g" d="M16.12,26.63a0.17,0.17,0,0,0,.13,0,0.2,0.2,0,0,0,0-.12l-0.05-1-0.11-.12-0.05,0V25.32l0.39,0,0.67,0.82h0l0-.6a0.24,0.24,0,0,0,0-.14,0.18,0.18,0,0,0-.14,0V25.28l0.39,0v0.05a0.25,0.25,0,0,0-.11,0,0.17,0.17,0,0,0,0,.12l0.06,1.19H17.17l-0.86-1h0l0,0.79a0.28,0.28,0,0,0,0,.13,0.17,0.17,0,0,0,.15.06v0.05l-0.41,0V26.63h0Z"/><path class="g" d="M17.33,26.57l0.1,0a0.12,0.12,0,0,0,0-.12l-0.07-1a0.12,0.12,0,0,0-.06-0.11l-0.1,0V25.26l0.56,0a0.65,0.65,0,0,1,.53.16,0.71,0.71,0,0,1,.19.48,0.7,0.7,0,0,1-.13.48,0.62,0.62,0,0,1-.48.25l-0.57,0V26.57h0Zm0.46-.08a0.09,0.09,0,0,0,.08,0,0.33,0.33,0,0,0,.26-0.14,0.81,0.81,0,0,0,.07-0.49,1.08,1.08,0,0,0-.08-0.36,0.32,0.32,0,0,0-.32-0.23,0.1,0.1,0,0,0-.09,0,0.17,0.17,0,0,0,0,.08l0.07,1a0.19,0.19,0,0,0,0,.09h0Z"/><path class="g" d="M19.44,25.92l-0.24-.44h0l-0.1.49,0.35,0h0Zm-0.62.52a0.13,0.13,0,0,0,.1-0.08,1,1,0,0,0,0-.18L19.21,25h0.05l0.55,1a1.54,1.54,0,0,0,.13.21,0.1,0.1,0,0,0,.1,0v0.05l-0.58.08V26.35l0.11,0a0.07,0.07,0,0,0,0-.07l0-.07,0-.07L19.48,26l-0.41.06,0,0.16a0.46,0.46,0,0,0,0,.12,0.07,0.07,0,0,0,.06.06h0.09v0.05l-0.37.05V26.44h0Z"/><path class="g" d="M20.07,26a0.14,0.14,0,0,1,.21,0,0.17,0.17,0,0,1,.07.11,0.18,0.18,0,0,1,0,.13,0.14,0.14,0,0,1-.1.07,0.14,0.14,0,0,1-.12,0,0.19,0.19,0,0,1,0-.24h0Z"/><path class="g" d="M20.38,26.2l0.1,0a0.13,0.13,0,0,0,0-.13l-0.2-1A0.13,0.13,0,0,0,20.24,25H20.12V24.91l1-.21,0.09,0.4h0A0.47,0.47,0,0,0,21,24.87a0.43,0.43,0,0,0-.3,0,0.17,0.17,0,0,0-.1,0,0.1,0.1,0,0,0,0,.08l0.1,0.46a0.23,0.23,0,0,0,.18-0.11,0.57,0.57,0,0,0,0-.24h0l0.14,0.67h0a0.5,0.5,0,0,0-.12-0.22,0.24,0.24,0,0,0-.21,0L20.8,26a0.12,0.12,0,0,0,.07.11,0.34,0.34,0,0,0,.15,0v0.05l-0.64.14V26.2h0Z"/><path class="g" d="M21.25,25.8a0.14,0.14,0,0,1,.1-0.07,0.14,0.14,0,0,1,.12,0,0.17,0.17,0,0,1,.07.11,0.17,0.17,0,0,1,0,.13,0.14,0.14,0,0,1-.09.07,0.14,0.14,0,0,1-.12,0,0.18,0.18,0,0,1-.07-0.11,0.18,0.18,0,0,1,0-.13h0Z"/><path class="g" d="M22.08,24.45h0.14a0.06,0.06,0,0,0,0,0,0.14,0.14,0,0,0,0-.07h0l0.13,0.45h0a1.13,1.13,0,0,0-.2-0.2,0.36,0.36,0,0,0-.32-0.08,0.27,0.27,0,0,0-.2.24,1.2,1.2,0,0,0,.06.47,1.18,1.18,0,0,0,.14.33,0.32,0.32,0,0,0,.37.17,0.44,0.44,0,0,0,.23-0.16,1,1,0,0,0,.11-0.2l0.07,0a1.09,1.09,0,0,1-.13.24,0.53,0.53,0,0,1-.28.19,0.62,0.62,0,0,1-.48,0,0.7,0.7,0,0,1-.34-0.45,0.75,0.75,0,0,1,0-.57,0.59,0.59,0,0,1,.37-0.31,0.6,0.6,0,0,1,.23,0h0Z"/><path class="g" d="M22.75,25.37a0.14,0.14,0,0,1,.09-0.08,0.14,0.14,0,0,1,.12,0,0.17,0.17,0,0,1,.08.1,0.17,0.17,0,0,1,0,.13,0.14,0.14,0,0,1-.09.08,0.14,0.14,0,0,1-.12,0,0.18,0.18,0,0,1-.08-0.1,0.17,0.17,0,0,1,0-.13h0Z"/><path class="h" d="M24.7,13.32A0.84,0.84,0,0,0,24.43,13a0.35,0.35,0,0,0-.31,0,0.6,0.6,0,0,0,.11.23,0.37,0.37,0,0,1,.2,0,2.11,2.11,0,0,1,.27.1h0Z"/><path class="i" d="M27.32,20.25c0.05-.11.12-0.26,0.14-0.32a0.73,0.73,0,0,1-.26.07,1.14,1.14,0,0,1,.12.26h0Z"/><path class="j" d="M5.3,13.32A0.83,0.83,0,0,1,5.57,13a0.35,0.35,0,0,1,.31,0,0.59,0.59,0,0,1-.11.23,0.37,0.37,0,0,0-.2,0,2.12,2.12,0,0,0-.27.1h0Z"/><path class="i" d="M2.68,20.25C2.63,20.13,2.56,20,2.54,19.92A0.73,0.73,0,0,0,2.8,20a1.14,1.14,0,0,0-.12.26h0Z"/><path class="k" d="M16.14,23.69a1.46,1.46,0,0,0-1,.8H15V18.05h5.75v2a3.3,3.3,0,0,1-.52,2.37,3.25,3.25,0,0,1-2.1,1,8.77,8.77,0,0,0-2,.25h0Z"/><path class="a" d="M15,19V18.87a2.34,2.34,0,0,0,.35,0,0.73,0.73,0,0,1,.36,0l0.13,0.06,0.25,0a1.39,1.39,0,0,1,.27.06,1,1,0,0,1,.28-0.11A11.06,11.06,0,0,1,19,19.1a8.52,8.52,0,0,1,1.74.55v0.16A12.41,12.41,0,0,0,19,19.25,9.64,9.64,0,0,0,16.64,19c-0.18,0-.36.07-0.54,0.07A3.09,3.09,0,0,1,15.56,19a3.12,3.12,0,0,0-.41,0H15Zm0,0.37V19a3.4,3.4,0,0,1,.54,0,3.15,3.15,0,0,0,.56.07c0.18,0,.36-0.06.54-0.07a9.58,9.58,0,0,1,2.31.28,12.14,12.14,0,0,1,1.79.57V20c0,0.07,0,.14,0,0.2A8.21,8.21,0,0,0,19,19.62a12.51,12.51,0,0,0-2.35-.32,1.82,1.82,0,0,1-.23-0.07,1.4,1.4,0,0,0-.86.09s-0.37,0-.56,0h0Zm4.1,0.53v3.32l-0.28.1V19.8l-0.39-.08L18,19.63v3.81l-0.28,0V19.59c-0.4-.06-0.68-0.09-0.86-0.11v4.06l-0.28.05V19.45l-0.15-.06a0.41,0.41,0,0,1-.2.07,1.34,1.34,0,0,1-.28-0.06l-0.14.13H15.67V23.9a1.47,1.47,0,0,0-.28.25V19.51H15.25l-0.25,0V19.42a4.43,4.43,0,0,0,.58,0,2.26,2.26,0,0,1,.52-0.12,1.77,1.77,0,0,1,.53.1A12.47,12.47,0,0,1,19,19.7a7.94,7.94,0,0,1,1.77.63v0.14l-0.5-.22v2.13l0,0a1.47,1.47,0,0,1-.27.29V20.14C19.72,20,19.42,20,19.1,19.87h0Z"/><path class="b" d="M15,19V18.87a2.34,2.34,0,0,0,.35,0,0.73,0.73,0,0,1,.36,0l0.13,0.06,0.25,0a1.39,1.39,0,0,1,.27.06,1,1,0,0,1,.28-0.11A11.06,11.06,0,0,1,19,19.1a8.52,8.52,0,0,1,1.74.55v0.16A12.41,12.41,0,0,0,19,19.25,9.64,9.64,0,0,0,16.64,19c-0.18,0-.36.07-0.54,0.07A3.09,3.09,0,0,1,15.56,19a3.12,3.12,0,0,0-.41,0H15Zm0,0.37V19a3.4,3.4,0,0,1,.54,0,3.15,3.15,0,0,0,.56.07c0.18,0,.36-0.06.54-0.07a9.58,9.58,0,0,1,2.31.28,12.14,12.14,0,0,1,1.79.57V20c0,0.07,0,.14,0,0.2A8.21,8.21,0,0,0,19,19.62a12.51,12.51,0,0,0-2.35-.32,1.82,1.82,0,0,1-.23-0.07,1.4,1.4,0,0,0-.86.09s-0.37,0-.56,0h0Zm4.1,0.53v3.32l-0.28.1V19.8l-0.39-.08L18,19.63v3.81l-0.28,0V19.59c-0.4-.06-0.68-0.09-0.86-0.11v4.06l-0.28.05V19.45l-0.15-.06a0.41,0.41,0,0,1-.2.07,1.34,1.34,0,0,1-.28-0.06l-0.14.13H15.67V23.9a1.47,1.47,0,0,0-.28.25V19.51H15.25l-0.25,0V19.42a4.43,4.43,0,0,0,.58,0,2.26,2.26,0,0,1,.52-0.12,1.77,1.77,0,0,1,.53.1A12.47,12.47,0,0,1,19,19.7a7.94,7.94,0,0,1,1.77.63v0.14l-0.5-.22v2.13l0,0a1.47,1.47,0,0,1-.27.29V20.14C19.72,20,19.42,20,19.1,19.87h0Z"/><path class="l" d="M11.6,23.4A4,4,0,0,1,10.47,23V18.05H11.6V23.4h0Zm2.28,0.3h0a5.64,5.64,0,0,0-1.11-.2V18.05h1.13v5.64h0Z"/><path class="m" d="M11.6,23.4A4,4,0,0,1,10.47,23V18.05H11.6V23.4h0Zm2.28,0.3h0a5.64,5.64,0,0,0-1.11-.2V18.05h1.13v5.64h0Z"/><path class="h" d="M9.33,22.89l-0.38,0a2.74,2.74,0,0,1-.57-0.13,2.59,2.59,0,0,0-1.11-.29,0.51,0.51,0,0,0-.58.47l0,0a2.26,2.26,0,0,0,1.11.67,18.88,18.88,0,0,0,1.94.4V23.27a2.7,2.7,0,0,1-.25-0.21,1.54,1.54,0,0,0-.19-0.17h0Z"/><path class="a" d="M7,21.73a0.7,0.7,0,0,0-.13-0.32,2.59,2.59,0,0,0-.27-0.3l-0.76.17a0.55,0.55,0,0,0-.56.37h0a1.49,1.49,0,0,0,1.17.24l0.52-.06a0.32,0.32,0,0,0,0-.09H7Z"/><path class="b" d="M7,21.73a0.66,0.66,0,0,0-.13-0.32,2.59,2.59,0,0,0-.27-0.3l-0.76.17a0.55,0.55,0,0,0-.56.37h0a1.49,1.49,0,0,0,1.17.24l0.52-.06a0.47,0.47,0,0,0,0-.09H7Z"/><path class="k" d="M5.73,20.35v0.78h0L6.38,21l-0.2-.09a0.63,0.63,0,0,0-.15,0l0.1-.22H5.89a0.31,0.31,0,0,1-.16-0.06A1,1,0,0,0,6,20.43a0.63,0.63,0,0,0,.12-0.23,1,1,0,0,1-.17.09l-0.17.06h0Z"/><path class="h" d="M20.67,22.89l0.38,0a2.74,2.74,0,0,0,.57-0.13,2.59,2.59,0,0,1,1.11-.29,0.51,0.51,0,0,1,.58.47l0,0a2.26,2.26,0,0,1-1.11.67,18.88,18.88,0,0,1-1.94.4V23.27a2.61,2.61,0,0,0,.25-0.21,1.55,1.55,0,0,1,.19-0.17h0Z"/><path class="a" d="M23,21.73a0.69,0.69,0,0,1,.13-0.32,2.64,2.64,0,0,1,.27-0.3l0.76,0.17a0.55,0.55,0,0,1,.56.37h0a1.49,1.49,0,0,1-1.17.24l-0.52-.06a0.31,0.31,0,0,1,0-.09h0Z"/><path class="b" d="M23,21.73a0.66,0.66,0,0,1,.13-0.32,2.64,2.64,0,0,1,.27-0.3l0.76,0.17a0.55,0.55,0,0,1,.56.37h0a1.49,1.49,0,0,1-1.17.24l-0.52-.06a0.48,0.48,0,0,1,0-.09h0Z"/><path class="l" d="M24.27,20.35v0.78h0L23.62,21l0.2-.09a0.63,0.63,0,0,1,.15,0l-0.1-.22h0.24a0.3,0.3,0,0,0,.16-0.06A1,1,0,0,1,24,20.43a0.63,0.63,0,0,1-.12-0.23,1,1,0,0,0,.17.09l0.17,0.06h0Z"/><path class="m" d="M24.27,20.35v0.78h0L23.62,21l0.2-.09a0.63,0.63,0,0,1,.15,0l-0.1-.22h0.24a0.3,0.3,0,0,0,.16-0.06A1,1,0,0,1,24,20.43a0.63,0.63,0,0,1-.12-0.23,1,1,0,0,0,.17.09l0.17,0.06h0Z"/><path class="f" d="M21.07,22.27a2.28,2.28,0,0,1-.25.43l0.21,0a10.41,10.41,0,0,1,1.7-.42,0.69,0.69,0,0,1,.75.77v1.55a4.46,4.46,0,0,0,.61,0c0.56,0,.66,0,0.66-0.66v-2.1a2,2,0,0,1-1.21.18c-0.81-.08-2-0.23-2.3-0.27a2.59,2.59,0,0,1-.18.5h0Z"/><path class="f" d="M8.93,22.27a2.28,2.28,0,0,0,.25.43L9,22.68a10.41,10.41,0,0,0-1.7-.42,0.69,0.69,0,0,0-.75.77v1.55a4.46,4.46,0,0,1-.61,0c-0.56,0-.66,0-0.66-0.66v-2.1A2,2,0,0,0,6.44,22c0.81-.08,2-0.23,2.3-0.27a2.59,2.59,0,0,0,.18.5h0Z"/><path class="k" d="M9.25,15.62V12.54A2.14,2.14,0,0,0,9,11.77a4.25,4.25,0,0,0-.27-0.45H15l0,5.6H14.64V14.25H13.89v2.68H13V14.25H12.26v2.68H11.38V14.25H10.63v2.68H9.33V16.37l-0.09-.3V15.62h0Z"/><polygon class="h" points="10.07 14.15 15 14.15 15 13.96 10.07 13.96 10.07 14.15 10.07 14.15"/><polygon class="h" points="15 13.68 15 13.87 10.07 13.87 13.46 12.62 15 13.2 15 13.68 15 13.68"/><path class="n" d="M12.19,14.9a1.66,1.66,0,0,1-.74.31v-1h0.74V14.9h0ZM9.53,13.57a1.67,1.67,0,0,1,3.16-.74l-3,1.1H10v0.28h0.55v0.89a1.67,1.67,0,0,1-1-1.54h0Z"/><path class="o" d="M12.19,14.9a1.66,1.66,0,0,1-.74.31v-1h0.74V14.9h0ZM9.53,13.57a1.67,1.67,0,0,1,3.16-.74l-3,1.1H10v0.28h0.55v0.89a1.67,1.67,0,0,1-1-1.54h0Z"/><path class="g" d="M8.62,15.95V14.42l0,0a1.28,1.28,0,0,0-.21.35l0,0.11a1,1,0,0,0-.52.34l0,0,0.28,0.13c-0.32.07-.45,0-0.51,0.37,0,0.05,0,.19,0,0.19a0.48,0.48,0,0,0-.38,0,8.48,8.48,0,0,0,1.27.44h0a0.84,0.84,0,0,1,.16-0.43h0Z"/><path class="b" d="M8.62,15.95V14.42l0,0a1.28,1.28,0,0,0-.21.35l0,0.11a1,1,0,0,0-.52.34l0,0,0.28,0.13c-0.32.07-.45,0-0.51,0.37,0,0.05,0,.19,0,0.19a0.48,0.48,0,0,0-.38,0,8.48,8.48,0,0,0,1.27.44h0a0.84,0.84,0,0,1,.16-0.43h0Z"/><path class="g" d="M21.38,14.42v1.52a0.84,0.84,0,0,1,.16.43h0a8.46,8.46,0,0,0,1.27-.44,0.48,0.48,0,0,0-.38,0s0-.13,0-0.19c-0.07-.33-0.2-0.3-0.51-0.37l0.28-.13,0,0a1,1,0,0,0-.52-0.34l0-.11a1.29,1.29,0,0,0-.21-0.35l0,0h0Z"/><path class="b" d="M21.38,14.42v1.52a0.84,0.84,0,0,1,.16.43h0a8.46,8.46,0,0,0,1.27-.44,0.48,0.48,0,0,0-.38,0s0-.13,0-0.19c-0.07-.33-0.2-0.3-0.51-0.37l0.28-.13,0,0a1,1,0,0,0-.52-0.34l0-.11a1.29,1.29,0,0,0-.21-0.35l0,0h0Z"/><path class="e" d="M15,11.33H8.76a4.25,4.25,0,0,1,.27.45,2.14,2.14,0,0,1,.22.77v3.08A1.34,1.34,0,0,0,9,15.7a1.08,1.08,0,0,0-.22.12v-3a2.63,2.63,0,0,0-1.1-1.94H22.32a2.64,2.64,0,0,0-1.1,1.94v3A1.07,1.07,0,0,0,21,15.7a1.32,1.32,0,0,0-.25-0.08V12.54A2.14,2.14,0,0,1,21,11.77a4.26,4.26,0,0,1,.27-0.45H15Z"/><path class="p" d="M20.67,16.92V16.37l0.09-.3V12.54A2.14,2.14,0,0,1,21,11.77a4.26,4.26,0,0,1,.27-0.45H15v5.6h5.67Z"/><polygon class="k" points="18.46 16.92 19.59 16.92 19.59 11.32 18.46 11.32 18.46 16.92 18.46 16.92"/><polygon class="k" points="16.18 16.92 17.31 16.92 17.31 11.32 16.18 11.32 16.18 16.92 16.18 16.92"/><path class="j" d="M21.44,10.26v0a4.29,4.29,0,0,0-1.61-.47l-0.77-.12v0.7a1.21,1.21,0,0,1,.55-0.1,5.88,5.88,0,0,1,1,.23l0.22,0c0.17,0,.65,0,0.65-0.23h0Z"/><path class="l" d="M21.57,9.73v0.46a0.18,0.18,0,0,1,0,.07c0,0.38-.53.36-0.78,0.36a3.41,3.41,0,0,1-.59-0.14,3.14,3.14,0,0,0-.6-0.13c-0.12,0-.56,0-0.56.2a1.1,1.1,0,0,0,.87.25c0.45,0,1.45-.12,1.78-0.12a2.53,2.53,0,0,1,.85.08V10c0-.12,0-0.29-0.16-0.3s-0.27,0-.4,0H21.57Z"/><path class="d" d="M21.57,9.73v0.46a0.35,0.35,0,0,1,0,.07c0,0.38-.53.36-0.78,0.36a3.41,3.41,0,0,1-.59-0.14,3.14,3.14,0,0,0-.6-0.13c-0.12,0-.56,0-0.56.2a1.1,1.1,0,0,0,.87.25c0.45,0,1.45-.12,1.78-0.12a2.53,2.53,0,0,1,.85.08V10c0-.12,0-0.29-0.16-0.3s-0.27,0-.4,0H21.57Z"/><path class="l" d="M8.43,10.19V9.73H8a2.59,2.59,0,0,0-.46,0,0.3,0.3,0,0,0-.1.29v0.76l0,0a3.13,3.13,0,0,1,.81-0.06c0.33,0,1.33.12,1.79,0.12A1.1,1.1,0,0,0,11,10.56c0-.2-0.44-0.2-0.56-0.2a6.12,6.12,0,0,0-.95.23,1.21,1.21,0,0,1-.25,0c-0.26,0-.78,0-0.78-0.36a0.19,0.19,0,0,1,0-.07h0Z"/><path class="d" d="M8.43,10.19V9.73H8a2.59,2.59,0,0,0-.46,0,0.3,0.3,0,0,0-.1.29v0.76l0,0a3.13,3.13,0,0,1,.81-0.06c0.33,0,1.33.12,1.79,0.12A1.1,1.1,0,0,0,11,10.56c0-.2-0.44-0.2-0.56-0.2a6.12,6.12,0,0,0-.95.23,1.21,1.21,0,0,1-.25,0c-0.26,0-.78,0-0.78-0.36a0.36,0.36,0,0,1,0-.07h0Z"/><path class="j" d="M8.56,10.22v0h0c0,0.26.48,0.23,0.65,0.23a3.6,3.6,0,0,0,.56-0.13,3.18,3.18,0,0,1,.64-0.14,1.21,1.21,0,0,1,.55.1V9.62l-0.77.12a4.29,4.29,0,0,0-1.61.47h0Z"/><path class="l" d="M21.44,10v-1a1.64,1.64,0,0,0-.69-0.28,18.51,18.51,0,0,0-1.83-.3A27.47,27.47,0,0,0,15,8.24a27.46,27.46,0,0,0-3.92.26A10.17,10.17,0,0,0,8.61,9a0.09,0.09,0,0,0,0,.05v1a5,5,0,0,1,1.59-.43A29.64,29.64,0,0,1,15,9.2a29.62,29.62,0,0,1,4.85.41,5,5,0,0,1,1.59.43h0Z"/><path class="d" d="M21.44,10v-1a1.64,1.64,0,0,0-.69-0.28,18.51,18.51,0,0,0-1.83-.3A27.47,27.47,0,0,0,15,8.24a27.46,27.46,0,0,0-3.92.26A10.17,10.17,0,0,0,8.61,9a0.11,0.11,0,0,0,0,.05v1a5,5,0,0,1,1.59-.43A29.64,29.64,0,0,1,15,9.2a29.62,29.62,0,0,1,4.85.41,5,5,0,0,1,1.59.43h0Z"/><path class="f" d="M8,11.45l-0.15-.16,0,0.43,0.31-.11L8,11.45H8Z"/><path class="f" d="M22,11.45l0.15-.16,0,0.43-0.31-.11L22,11.45h0Z"/><path class="l" d="M18.27,10.74l0.14-.06a1.56,1.56,0,0,0,.53-0.37v0a1.19,1.19,0,0,1-.78.28,0.88,0.88,0,0,1-.9-0.57,0.59,0.59,0,0,1,0-.11,0.4,0.4,0,0,0-.08.24,1,1,0,0,0,.31.64h0.8Z"/><path class="m" d="M18.27,10.74l0.14-.06a1.56,1.56,0,0,0,.53-0.37v0a1.19,1.19,0,0,1-.78.28,0.88,0.88,0,0,1-.9-0.57,0.59,0.59,0,0,1,0-.11,0.42,0.42,0,0,0-.08.24,0.93,0.93,0,0,0,.31.64h0.8Z"/><path class="l" d="M11.73,10.74l-0.14-.06a1.55,1.55,0,0,1-.53-0.37v0a1.2,1.2,0,0,0,.78.28,0.88,0.88,0,0,0,.9-0.57,0.59,0.59,0,0,0,0-.11,0.4,0.4,0,0,1,.08.24,1,1,0,0,1-.31.64h-0.8Z"/><path class="m" d="M11.73,10.74l-0.14-.06a1.55,1.55,0,0,1-.53-0.37v0a1.2,1.2,0,0,0,.78.28,0.88,0.88,0,0,0,.9-0.57,0.59,0.59,0,0,0,0-.11,0.42,0.42,0,0,1,.08.24,0.93,0.93,0,0,1-.31.64h-0.8Z"/><path class="g" d="M12.48,6.51l0.06,0a0.9,0.9,0,0,1,.54-0.24,1.27,1.27,0,0,1,.47,0,1.4,1.4,0,0,0,.52.08L13.8,6.21A2.16,2.16,0,0,0,13.42,6a0.7,0.7,0,0,0-.94.48h0Z"/><path class="d" d="M12.48,6.51l0.06,0a0.9,0.9,0,0,1,.54-0.24,1.27,1.27,0,0,1,.47,0,1.4,1.4,0,0,0,.52.08L13.8,6.21A2.16,2.16,0,0,0,13.42,6a0.7,0.7,0,0,0-.94.48h0Z"/><path class="f" d="M12.21,8.23A1,1,0,0,0,11.52,8a1.13,1.13,0,0,0-.46.12,1.07,1.07,0,0,1,.52.15l0,0,0.6-.07h0Z"/><path class="q" d="M11,8.19a0.62,0.62,0,0,0-.18.21l0.28,0,0.43-.05a1,1,0,0,0-.33-0.1L11,8.19h0Z"/><path class="q" d="M10.71,8.41a0.67,0.67,0,0,1,.15-0.22,0.48,0.48,0,0,0-.44.26l0.28,0h0Z"/><path class="q" d="M19.58,8.45a0.48,0.48,0,0,0-.43-0.26,0.66,0.66,0,0,1,.15.22l0.28,0h0Z"/><path class="q" d="M19.21,8.4A0.61,0.61,0,0,0,19,8.19l-0.21,0a1,1,0,0,0-.33.1l0.43,0.05,0.28,0h0Z"/><path class="f" d="M18.39,8.3l0,0a1.07,1.07,0,0,1,.52-0.15A1.13,1.13,0,0,0,18.48,8a1,1,0,0,0-.69.23l0.6,0.07h0Z"/><path class="g" d="M12.24,9.47l-1.16.13v0.59a1.15,1.15,0,0,0,.76.29A0.81,0.81,0,0,0,12.67,10a0.54,0.54,0,0,0,0-.16,1.44,1.44,0,0,0-.46-0.31l0,0h0Z"/><path class="d" d="M12.24,9.47l-1.16.13v0.59a1.15,1.15,0,0,0,.76.29A0.81,0.81,0,0,0,12.67,10a0.38,0.38,0,0,0,0-.16,1.46,1.46,0,0,0-.46-0.31l0,0h0Z"/><path class="l" d="M12.64,9.43l-0.28,0a1.38,1.38,0,0,1,.36.25,0.58,0.58,0,0,0-.06-0.23l0,0h0Z"/><path class="m" d="M12.64,9.43l-0.28,0a1.38,1.38,0,0,1,.36.25,0.53,0.53,0,0,0-.06-0.23l0,0h0Z"/><path class="q" d="M13,9.41l-0.25,0a0.62,0.62,0,0,1,.07.35,0.56,0.56,0,0,1,.12.24L13,9.41h0Z"/><path class="g" d="M17.76,9.47l0,0a1.44,1.44,0,0,0-.46.31,0.53,0.53,0,0,0,0,.16,0.81,0.81,0,0,0,.84.53,1.14,1.14,0,0,0,.76-0.29V9.61l-1.16-.13h0Z"/><path class="d" d="M17.76,9.47l0,0a1.46,1.46,0,0,0-.46.31,0.38,0.38,0,0,0,0,.16,0.81,0.81,0,0,0,.84.53,1.14,1.14,0,0,0,.76-0.29V9.61l-1.16-.13h0Z"/><path class="l" d="M17.36,9.44l0,0a0.58,0.58,0,0,0-.06.23,1.39,1.39,0,0,1,.36-0.25l-0.28,0h0Z"/><path class="m" d="M17.36,9.44l0,0a0.53,0.53,0,0,0-.06.23,1.39,1.39,0,0,1,.36-0.25l-0.28,0h0Z"/><path class="q" d="M17.11,9.95a0.6,0.6,0,0,1,.1-0.17,0.62,0.62,0,0,1,.07-0.35l-0.22,0,0,0.53h0Z"/><path class="l" d="M15.74,5.82h0a0.31,0.31,0,0,0-.35.28,0.25,0.25,0,0,0,.24.24,0.27,0.27,0,0,1-.06-0.18,0.46,0.46,0,0,1,.19-0.33h0Z"/><path class="d" d="M15.74,5.82h0a0.31,0.31,0,0,0-.35.28,0.25,0.25,0,0,0,.24.24,0.25,0.25,0,0,1-.06-0.18,0.48,0.48,0,0,1,.19-0.33h0Z"/><path class="l" d="M15.15,3.8a2.1,2.1,0,0,1,0,1,0.48,0.48,0,0,0,.37.42,2.15,2.15,0,0,0,.59-0.1h0A0.56,0.56,0,0,0,15.82,5a0.52,0.52,0,0,1-.36,0,0.47,0.47,0,0,1-.21-0.49,1.91,1.91,0,0,0,0-.54,0.46,0.46,0,0,0-.09-0.16h0Z"/><path class="d" d="M15.15,3.8a2.1,2.1,0,0,1,0,1,0.47,0.47,0,0,0,.37.42,2.15,2.15,0,0,0,.59-0.1h0A0.56,0.56,0,0,0,15.82,5a0.52,0.52,0,0,1-.36,0,0.47,0.47,0,0,1-.21-0.49,1.91,1.91,0,0,0,0-.54,0.46,0.46,0,0,0-.09-0.16h0Z"/><path class="q" d="M15.94,5.74a0.67,0.67,0,0,0,.32-0.09,0.33,0.33,0,0,0,.16-0.41,0.15,0.15,0,0,0-.13-0.1,0.4,0.4,0,0,1,0,.37,1.58,1.58,0,0,1-.32.23h0Z"/><path class="l" d="M15.72,6.91a0.3,0.3,0,0,1,.21-0.18,2.68,2.68,0,0,1,1.24.08,1.52,1.52,0,0,1,.89.43,0.93,0.93,0,0,1,.14.37,0.46,0.46,0,0,0,0-.54,1.1,1.1,0,0,0-.64-0.47,0,0,0,0,1,0,0l-0.07,0a0,0,0,0,1,0,0l-0.21,0A2.58,2.58,0,0,0,16,6.56a0.58,0.58,0,0,0-.39.31l0.08,0h0Z"/><path class="d" d="M15.72,6.91a0.3,0.3,0,0,1,.21-0.18,2.68,2.68,0,0,1,1.24.08,1.52,1.52,0,0,1,.89.43,0.93,0.93,0,0,1,.14.37,0.46,0.46,0,0,0,0-.54,1.1,1.1,0,0,0-.64-0.47,0.06,0.06,0,0,1,0,0l-0.07,0a0.05,0.05,0,0,1,0,0l-0.21,0A2.58,2.58,0,0,0,16,6.56a0.58,0.58,0,0,0-.39.31l0.08,0h0Z"/><path class="g" d="M17.36,8.19a2.21,2.21,0,0,0,.49-0.25l-0.11,0a2.26,2.26,0,0,0-.92.07l0.06,0.16,0.48,0h0Z"/><path class="d" d="M17.36,8.19a2.21,2.21,0,0,0,.49-0.25l-0.11,0a2.26,2.26,0,0,0-.92.07l0.06,0.16,0.48,0h0Z"/><path class="g" d="M15.78,6.4a0.37,0.37,0,0,1-.48-0.3,0.37,0.37,0,0,1,.42-0.35h0.1L16,5.59a0.72,0.72,0,0,0,.16-0.12,0.35,0.35,0,0,0,0-.32H16.15a2.1,2.1,0,0,1-.61.1,0.54,0.54,0,0,1-.43-0.48c0-.24.06-0.5,0.05-0.7a0.62,0.62,0,0,0-.07-0.24V6.78a2,2,0,0,1,.48.08A0.64,0.64,0,0,1,16,6.5a2.65,2.65,0,0,1,1.21-.06l0.08,0a1.17,1.17,0,0,0-.83-0.12,1.26,1.26,0,0,1-.69.07h0Z"/><path class="d" d="M15.78,6.4a0.37,0.37,0,0,1-.48-0.3,0.37,0.37,0,0,1,.42-0.35h0.1L16,5.59a0.72,0.72,0,0,0,.16-0.12,0.35,0.35,0,0,0,0-.32H16.15a2.1,2.1,0,0,1-.61.1,0.54,0.54,0,0,1-.43-0.48c0-.24.05-0.5,0.05-0.7a0.58,0.58,0,0,0-.07-0.24V6.78a2,2,0,0,1,.48.08A0.64,0.64,0,0,1,16,6.5a2.65,2.65,0,0,1,1.21-.06l0.08,0a1.17,1.17,0,0,0-.83-0.12,1.26,1.26,0,0,1-.69.07h0Z"/><path class="g" d="M17.52,6.51A0.7,0.7,0,0,0,16.58,6a2.16,2.16,0,0,0-.38.18l-0.26.13a1.4,1.4,0,0,0,.52-0.08,1.27,1.27,0,0,1,.47,0,0.9,0.9,0,0,1,.54.24l0.06,0h0Z"/><path class="d" d="M17.52,6.51A0.7,0.7,0,0,0,16.58,6a2.16,2.16,0,0,0-.38.18l-0.26.13a1.4,1.4,0,0,0,.52-0.08,1.27,1.27,0,0,1,.47,0,0.9,0.9,0,0,1,.54.24l0.06,0h0Z"/><path class="l" d="M14.26,5.82a0.46,0.46,0,0,1,.19.33,0.27,0.27,0,0,1-.06.18,0.25,0.25,0,0,0,.24-0.24,0.31,0.31,0,0,0-.35-0.28h0Z"/><path class="d" d="M14.26,5.82a0.48,0.48,0,0,1,.19.33,0.25,0.25,0,0,1-.06.18,0.25,0.25,0,0,0,.24-0.24,0.31,0.31,0,0,0-.35-0.28h0Z"/><path class="l" d="M14.85,3.8a0.46,0.46,0,0,0-.09.16,1.9,1.9,0,0,0,0,.54,0.47,0.47,0,0,1-.21.49,0.52,0.52,0,0,1-.36,0,0.56,0.56,0,0,0-.36.06h0a2.16,2.16,0,0,0,.59.1,0.48,0.48,0,0,0,.37-0.42,2.1,2.1,0,0,1,0-1h0Z"/><path class="d" d="M14.85,3.8a0.46,0.46,0,0,0-.09.16,1.9,1.9,0,0,0,0,.54,0.47,0.47,0,0,1-.21.49,0.52,0.52,0,0,1-.36,0,0.56,0.56,0,0,0-.36.06h0a2.16,2.16,0,0,0,.59.1,0.47,0.47,0,0,0,.37-0.42,2.1,2.1,0,0,1,0-1h0Z"/><path class="q" d="M14.06,5.74a1.58,1.58,0,0,1-.32-0.23,0.4,0.4,0,0,1,0-.37,0.15,0.15,0,0,0-.13.1,0.33,0.33,0,0,0,.16.41,0.67,0.67,0,0,0,.32.09h0Z"/><path class="g" d="M13.19,8a2.24,2.24,0,0,0-.94-0.07l-0.11,0a2.22,2.22,0,0,0,.49.25l0.5,0L13.19,8h0Z"/><path class="d" d="M13.19,8a2.24,2.24,0,0,0-.94-0.07l-0.11,0a2.22,2.22,0,0,0,.49.25l0.5,0L13.19,8h0Z"/><path class="l" d="M14.36,6.89h0A0.58,0.58,0,0,0,14,6.56a2.58,2.58,0,0,0-1.18-.06l-0.21,0a0,0,0,0,1,0,0l-0.07,0a0,0,0,0,1,0,0,1.1,1.1,0,0,0-.64.47,0.45,0.45,0,0,0,0,.54A0.93,0.93,0,0,1,12,7.24a1.52,1.52,0,0,1,.89-0.43,2.68,2.68,0,0,1,1.24-.08,0.3,0.3,0,0,1,.21.19l0.08,0h0Z"/><path class="d" d="M14.36,6.89h0A0.58,0.58,0,0,0,14,6.56a2.58,2.58,0,0,0-1.18-.06l-0.21,0a0,0,0,0,1,0,0l-0.07,0a0.06,0.06,0,0,1,0,0,1.1,1.1,0,0,0-.64.47,0.45,0.45,0,0,0,0,.54A0.93,0.93,0,0,1,12,7.24a1.52,1.52,0,0,1,.89-0.43,2.68,2.68,0,0,1,1.24-.08,0.3,0.3,0,0,1,.21.19l0.08,0h0Z"/><path class="g" d="M14.22,6.4a1.26,1.26,0,0,1-.69-0.07,1.17,1.17,0,0,0-.83.12l0.08,0A2.65,2.65,0,0,1,14,6.5a0.64,0.64,0,0,1,.44.36,2.3,2.3,0,0,1,.5-0.08v-3a0.64,0.64,0,0,0-.09.28c0,0.2.06,0.46,0.05,0.7a0.55,0.55,0,0,1-.43.48,2.1,2.1,0,0,1-.61-0.1H13.78a0.35,0.35,0,0,0,0,.32,0.72,0.72,0,0,0,.16.12l0.22,0.15h0.1a0.37,0.37,0,0,1,.42.35,0.37,0.37,0,0,1-.48.3h0Z"/><path class="d" d="M14.22,6.4a1.26,1.26,0,0,1-.69-0.07,1.17,1.17,0,0,0-.83.12l0.08,0A2.65,2.65,0,0,1,14,6.5a0.64,0.64,0,0,1,.44.36,2.3,2.3,0,0,1,.5-0.08v-3a0.6,0.6,0,0,0-.09.28c0,0.2.05,0.46,0.05,0.7a0.55,0.55,0,0,1-.43.48,2.1,2.1,0,0,1-.61-0.1H13.78a0.35,0.35,0,0,0,0,.32,0.72,0.72,0,0,0,.16.12l0.22,0.15h0.1a0.37,0.37,0,0,1,.42.35,0.37,0.37,0,0,1-.48.3h0Z"/><path class="g" d="M12.52,7l0,0h0l0,0a1.62,1.62,0,0,0,1.64.23l-0.06.13a0.92,0.92,0,0,1-.94.17A1.05,1.05,0,0,1,12.53,7V7h0Z"/><path class="d" d="M12.52,7l0,0h0l0,0a1.62,1.62,0,0,0,1.64.23l-0.06.13a0.92,0.92,0,0,1-.94.17A1.05,1.05,0,0,1,12.53,7V7h0Z"/><path class="q" d="M13.38,7.64l-0.19,0A1.1,1.1,0,0,1,12.44,7a0.93,0.93,0,0,0-.42.27,0.62,0.62,0,0,0-.12.44l0,0,0.15,0.14a2.4,2.4,0,0,1,1.15.05,2,2,0,0,1,.16-0.3h0Z"/><path class="g" d="M17.34,6.93l-0.2-.05c-0.12,0-1.23-.28-1.36,0v0a2,2,0,0,1,.56.37,1.55,1.55,0,0,0,1-.34l0,0-0.05,0h0Z"/><path class="d" d="M17.34,6.93l-0.2-.05c-0.12,0-1.23-.28-1.36,0v0a2,2,0,0,1,.56.37,1.55,1.55,0,0,0,1-.34l0,0-0.05,0h0Z"/><path class="q" d="M17.56,7a1.1,1.1,0,0,1-.75.6l-0.17,0a1.94,1.94,0,0,1,.16.29,2.28,2.28,0,0,1,.51-0.09,2.21,2.21,0,0,1,.62,0l0.15-.14,0,0A0.62,0.62,0,0,0,18,7.27,1,1,0,0,0,17.56,7h0Z"/><path class="g" d="M17.47,7l0,0a1.61,1.61,0,0,1-1.12.36,1.14,1.14,0,0,1-.52-0.13l0.06,0.13a0.92,0.92,0,0,0,.94.17A1.05,1.05,0,0,0,17.47,7l0,0h0Z"/><path class="d" d="M17.47,7l0,0a1.61,1.61,0,0,1-1.12.36,1.14,1.14,0,0,1-.52-0.13l0.06,0.13a0.92,0.92,0,0,0,.94.17A1.05,1.05,0,0,0,17.47,7l0,0h0Z"/><path class="g" d="M16.22,7.63a0.78,0.78,0,0,1-.38-0.17l-0.38.65h0.46l0.46-.27a1.7,1.7,0,0,0-.17-0.22h0Zm-2.43,0a1.64,1.64,0,0,0-.16.21L14.1,8.12h0.45l-0.38-.66a0.76,0.76,0,0,1-.38.19h0Zm2.73,1.74H16.25l0.22,0.13,0.05-.11h0Zm-0.59,0H15.45l0.45,0.78a1.65,1.65,0,0,0,.49-0.49L16,9.38l0,0h0Zm-0.67,0H15.09v1a1.63,1.63,0,0,0,.67-0.18l-0.5-.86h0Zm-0.33,0H14.75l-0.49.85a1.63,1.63,0,0,0,.67.18v-1h0Zm-0.36,0H14.1l0,0-0.44.26a1.65,1.65,0,0,0,.49.49l0.45-.78h0Zm-0.8,0H13.5l0.05,0.11,0.22-.13h0ZM13.48,8.14h0.31L13.55,8l-0.07.15h0Zm1.26,0h0.19v-1a1.63,1.63,0,0,0-.67.18l0.48,0.83h0Zm0.35,0h0.19l0.48-.83a1.63,1.63,0,0,0-.67-0.18v1h0Zm1.14,0h0.31L16.47,8l-0.24.14h0Z"/><path class="d" d="M16.22,7.63a0.78,0.78,0,0,1-.38-0.17l-0.38.65h0.46l0.46-.27a1.7,1.7,0,0,0-.17-0.22h0Zm-2.43,0a1.64,1.64,0,0,0-.16.21L14.1,8.12h0.45l-0.38-.66a0.76,0.76,0,0,1-.38.19h0Zm2.73,1.74H16.25l0.22,0.13,0.05-.11h0Zm-0.59,0H15.45l0.45,0.78a1.65,1.65,0,0,0,.49-0.49L16,9.38l0,0h0Zm-0.67,0H15.09v1a1.63,1.63,0,0,0,.67-0.18l-0.5-.86h0Zm-0.33,0H14.75l-0.49.85a1.63,1.63,0,0,0,.67.18v-1h0Zm-0.36,0H14.1l0,0-0.44.26a1.65,1.65,0,0,0,.49.49l0.45-.78h0Zm-0.8,0H13.5l0.05,0.11,0.22-.13h0ZM13.48,8.14h0.31L13.55,8l-0.07.15h0Zm1.26,0h0.19v-1a1.63,1.63,0,0,0-.67.18l0.48,0.83h0Zm0.35,0h0.19l0.48-.83a1.63,1.63,0,0,0-.67-0.18v1h0Zm1.14,0h0.31L16.47,8l-0.24.14h0Z"/><path class="g" d="M9.12,8.94H9.19l0,0a0.09,0.09,0,0,0,0,0h0L9.3,9.14h0L9.18,9A0.18,0.18,0,0,0,9,9a0.14,0.14,0,0,0-.1.13,0.75,0.75,0,0,0,0,.27A0.74,0.74,0,0,0,9,9.56a0.17,0.17,0,0,0,.19.11,0.21,0.21,0,0,0,.12-0.08,0.54,0.54,0,0,0,.06-0.11l0,0a0.58,0.58,0,0,1-.07.13,0.25,0.25,0,0,1-.14.1,0.3,0.3,0,0,1-.25,0,0.43,0.43,0,0,1-.17-0.27,0.46,0.46,0,0,1,0-.32A0.28,0.28,0,0,1,9,8.94H9.12Z"/><path class="g" d="M9.87,9.39a0.91,0.91,0,0,0,0-.22,0.67,0.67,0,0,0-.1-0.26,0.13,0.13,0,0,0-.13-0.07A0.16,0.16,0,0,0,9.51,9a0.94,0.94,0,0,0,0,.21,0.92,0.92,0,0,0,.06.21,0.14,0.14,0,1,0,.28-0.05h0Zm0-.52a0.51,0.51,0,0,1,.11.58,0.29,0.29,0,0,1-.46.08,0.46,0.46,0,0,1-.14-0.26,0.47,0.47,0,0,1,0-.31,0.29,0.29,0,0,1,.46-0.09h0Z"/><path class="g" d="M10.05,9.49a0.08,0.08,0,0,0,.06,0,0.12,0.12,0,0,0,0-.07L10,8.85,10,8.79h0v0l0.19,0,0.39,0.43h0l-0.05-.34a0.15,0.15,0,0,0,0-.08,0.09,0.09,0,0,0-.07,0v0l0.2,0v0l-0.05,0a0.11,0.11,0,0,0,0,.07l0.11,0.67h0l-0.49-.54h0l0.07,0.45a0.17,0.17,0,0,0,0,.07,0.08,0.08,0,0,0,.08,0v0l-0.21,0v0h0Z"/><path class="g" d="M10.62,9.16h0a0.39,0.39,0,0,0,.1.17,0.15,0.15,0,0,0,.12,0,0.1,0.1,0,0,0,.08-0.05,0.15,0.15,0,0,0,0-.09,0.13,0.13,0,0,0,0-.08l-0.08,0-0.06,0A0.41,0.41,0,0,1,10.63,9a0.23,0.23,0,0,1-.06-0.13,0.28,0.28,0,0,1,0-.16,0.17,0.17,0,0,1,.13-0.1h0.18v0h0l0,0.25h0a0.38,0.38,0,0,0-.09-0.14,0.14,0.14,0,0,0-.12,0,0.09,0.09,0,0,0-.07,0,0.13,0.13,0,0,0,0,.16L10.82,8.9l0.07,0L11,9a0.25,0.25,0,0,1,.08.15,0.28,0.28,0,0,1,0,.17,0.2,0.2,0,0,1-.16.1H10.69v0h0l0-.28h0Z"/><path class="g" d="M11.07,9.36v0l0.05,0a0.08,0.08,0,0,0,0-.07l-0.06-.55a0.08,0.08,0,0,0,0-.06H11v0l0.53-.06,0,0.23h0a0.27,0.27,0,0,0-.08-0.14,0.22,0.22,0,0,0-.16,0l-0.05,0a0.06,0.06,0,0,0,0,0l0,0.26a0.12,0.12,0,0,0,.1,0,0.31,0.31,0,0,0,0-.14h0l0,0.39h0A0.28,0.28,0,0,0,11.37,9a0.13,0.13,0,0,0-.11,0l0,0.28a0.07,0.07,0,0,0,0,0h0.06a0.23,0.23,0,0,0,.14-0.06,0.35,0.35,0,0,0,.08-0.17h0V9.3l-0.53.06h0Z"/><path class="g" d="M12,8.49l0.07,0,0,0a0.09,0.09,0,0,0,0,0h0l0,0.27h0A0.67,0.67,0,0,0,12,8.59a0.18,0.18,0,0,0-.15-0.08,0.14,0.14,0,0,0-.12.11,0.93,0.93,0,0,0,0,.47,0.17,0.17,0,0,0,.17.13,0.21,0.21,0,0,0,.13-0.06l0.07-.1,0,0-0.08.12a0.25,0.25,0,0,1-.15.08,0.3,0.3,0,0,1-.24-0.08,0.43,0.43,0,0,1-.13-0.29,0.46,0.46,0,0,1,.07-0.31,0.28,0.28,0,0,1,.21-0.13H12Z"/><path class="g" d="M12.15,8.46l0.55,0,0,0.23h0a0.22,0.22,0,0,0-.09-0.16l-0.1,0,0,0.6a0.14,0.14,0,0,0,0,.08,0.1,0.1,0,0,0,.08,0v0l-0.33,0v0a0.09,0.09,0,0,0,.07,0,0.14,0.14,0,0,0,0-.09l0-.6a0.2,0.2,0,0,0-.1,0,0.21,0.21,0,0,0-.06.17h0l0-.23h0Z"/><path class="g" d="M13,8.91l-0.11-.26h0l-0.06.27H13Zm-0.33.26a0.07,0.07,0,0,0,.05,0,0.55,0.55,0,0,0,0-.1l0.16-.64h0L13.18,9l0.06,0.13a0.05,0.05,0,0,0,.05,0v0l-0.3,0v0h0.06a0,0,0,0,0,0,0V9L13,9H12.8l0,0.09a0.28,0.28,0,0,0,0,.07,0,0,0,0,0,0,0h0v0H12.67v0h0Z"/><path class="g" d="M13.14,8.4l0.55,0,0,0.23h0a0.22,0.22,0,0,0-.09-0.16l-0.1,0,0,0.6a0.14,0.14,0,0,0,0,.08,0.1,0.1,0,0,0,.08,0v0l-0.33,0v0a0.09,0.09,0,0,0,.07,0,0.14,0.14,0,0,0,0-.09l0-.6a0.2,0.2,0,0,0-.1,0,0.21,0.21,0,0,0-.06.17h0l0-.23h0Z"/><path class="g" d="M13.72,9.11h0.06a0.08,0.08,0,0,0,0-.07l0-.56a0.08,0.08,0,0,0,0-.07H13.7v0H14v0H14a0.08,0.08,0,0,0,0,.07L14,9a0.08,0.08,0,0,0,0,.06H14v0H13.72v0h0Z"/><path class="g" d="M14.49,8.95a0.93,0.93,0,0,0,0-.22,0.68,0.68,0,0,0,0-.28,0.13,0.13,0,0,0-.12-0.09,0.16,0.16,0,0,0-.14.16,0.93,0.93,0,0,0,0,.21,0.91,0.91,0,0,0,0,.22,0.14,0.14,0,1,0,.28,0h0Zm0.08-.51a0.51,0.51,0,0,1,0,.59,0.29,0.29,0,0,1-.47,0A0.45,0.45,0,0,1,14,8.75a0.47,0.47,0,0,1,.09-0.3,0.29,0.29,0,0,1,.47,0h0Z"/><path class="g" d="M14.81,9.11v0h0.06a0.08,0.08,0,0,0,0-.07V8.45a0.08,0.08,0,0,0,0-.07H14.82v0h0.53V8.58h0a0.27,0.27,0,0,0-.06-0.15,0.22,0.22,0,0,0-.15,0H15.06a0.06,0.06,0,0,0,0,0V8.7a0.13,0.13,0,0,0,.11,0,0.31,0.31,0,0,0,0-.13h0V8.92h0a0.28,0.28,0,0,0,0-.14,0.13,0.13,0,0,0-.11,0V9a0.07,0.07,0,0,0,0,.05h0.06a0.23,0.23,0,0,0,.14,0,0.35,0.35,0,0,0,.1-0.16h0l0,0.24H14.81Z"/><path class="g" d="M15.35,9.09l0.05,0,0,0,0.16-.25-0.18-.34,0-.05,0,0v0h0.32v0H15.62a0,0,0,0,0,0,0v0L15.7,8.63l0.09-.16a0.12,0.12,0,0,0,0-.05,0,0,0,0,0,0,0h0v0H16v0a0.14,0.14,0,0,0-.1,0l-0.15.24L15.88,9l0,0.08,0,0v0H15.66v0h0.05a0,0,0,0,0,0,0V9l-0.09-.19,0,0.06L15.53,9a0.19,0.19,0,0,0,0,.07,0,0,0,0,0,0,0h0v0H15.34v0h0Z"/><path class="g" d="M16.42,8.38l0.06,0,0,0v0h0V8.63h0a0.71,0.71,0,0,0-.06-0.14,0.18,0.18,0,0,0-.14-0.1,0.14,0.14,0,0,0-.13.1,0.94,0.94,0,0,0,0,.47,0.17,0.17,0,0,0,.15.15,0.21,0.21,0,0,0,.13,0L16.52,9l0,0-0.1.11a0.25,0.25,0,0,1-.16.05,0.3,0.3,0,0,1-.22-0.11A0.43,0.43,0,0,1,16,8.75a0.46,0.46,0,0,1,.11-0.3,0.28,0.28,0,0,1,.23-0.1l0.12,0h0Z"/><path class="g" d="M16.52,9.15v0h0.06a0.08,0.08,0,0,0,0-.07l0-.55a0.08,0.08,0,0,0,0-.07l-0.05,0v0l0.53,0,0,0.23h0a0.28,0.28,0,0,0,0-.16,0.22,0.22,0,0,0-.15-0.05H16.81a0.06,0.06,0,0,0,0,0l0,0.26a0.12,0.12,0,0,0,.11,0,0.32,0.32,0,0,0,.05-0.13h0l0,0.39h0a0.29,0.29,0,0,0,0-.14,0.13,0.13,0,0,0-.11,0l0,0.28a0.07,0.07,0,0,0,0,.05l0.06,0a0.23,0.23,0,0,0,.15,0A0.35,0.35,0,0,0,17.09,9h0l-0.05.24-0.54,0h0Z"/><path class="g" d="M17.07,9.16h0.05a0.08,0.08,0,0,0,0-.07l0-.55a0.08,0.08,0,0,0,0-.07l-0.05,0v0l0.32,0v0H17.36a0.13,0.13,0,0,0,0,.08l0,0.54a0.06,0.06,0,0,0,0,.05l0.06,0a0.21,0.21,0,0,0,.14,0A0.37,0.37,0,0,0,17.62,9h0l-0.06.26-0.53,0v0h0Z"/><path class="g" d="M17.61,9.18h0.05a0.08,0.08,0,0,0,0-.07l0.06-.55a0.08,0.08,0,0,0,0-.07l-0.05,0v0l0.32,0v0H17.92a0.13,0.13,0,0,0,0,.08l-0.06.54a0.06,0.06,0,0,0,0,.05l0.06,0a0.21,0.21,0,0,0,.14,0A0.37,0.37,0,0,0,18.17,9h0l-0.06.26L17.6,9.21v0h0Z"/><path class="g" d="M18.14,9.27v0H18.2a0.08,0.08,0,0,0,0-.06l0.06-.55a0.08,0.08,0,0,0,0-.07l-0.05,0v0l0.53,0.06,0,0.23h0a0.27,0.27,0,0,0,0-.16,0.22,0.22,0,0,0-.15-0.06H18.45a0.06,0.06,0,0,0,0,0l0,0.26a0.13,0.13,0,0,0,.11,0,0.32,0.32,0,0,0,.06-0.13h0l0,0.39h0a0.28,0.28,0,0,0,0-.14,0.13,0.13,0,0,0-.1-0.05l0,0.28a0.06,0.06,0,0,0,0,.05l0.06,0a0.23,0.23,0,0,0,.15,0,0.35,0.35,0,0,0,.11-0.15h0l-0.06.23-0.53-.06h0Z"/><path class="g" d="M18.68,9.29a0.08,0.08,0,0,0,.07,0,0.13,0.13,0,0,0,0-.06l0.09-.54,0-.08,0,0v0l0.19,0,0.24,0.53h0l0.05-.34a0.15,0.15,0,0,0,0-.08,0.09,0.09,0,0,0-.06,0v0l0.2,0v0H19.35a0.11,0.11,0,0,0,0,.06l-0.11.67h0l-0.3-.67h0l-0.07.45a0.17,0.17,0,0,0,0,.08,0.08,0.08,0,0,0,.07,0v0l-0.21,0v0h0Z"/><path class="g" d="M19.39,8.65l0.55,0.09L19.9,9h0a0.22,0.22,0,0,0,0-.18,0.19,0.19,0,0,0-.1,0l-0.09.6a0.14,0.14,0,0,0,0,.09,0.1,0.1,0,0,0,.07,0v0l-0.32-.05v0a0.09,0.09,0,0,0,.07,0,0.14,0.14,0,0,0,0-.08l0.09-.6H19.48a0.21,0.21,0,0,0-.1.15h0l0-.23h0Z"/><path class="g" d="M19.8,9.46h0.06a0.08,0.08,0,0,0,0-.06L20,8.86a0.08,0.08,0,0,0,0-.07l-0.05,0v0l0.32,0.06v0H20.19a0.08,0.08,0,0,0,0,.06L20,9.43a0.08,0.08,0,0,0,0,.07l0.06,0v0l-0.32-.06v0h0Z"/><path class="g" d="M20.46,9.35l0-.28h0l-0.13.24,0.17,0h0Zm-0.38.17a0.07,0.07,0,0,0,.06,0l0.05-.09,0.32-.58h0l0.09,0.63a1,1,0,0,0,0,.14,0.05,0.05,0,0,0,0,0v0l-0.29-.06v0h0.06a0,0,0,0,0,0,0,0.16,0.16,0,0,0,0,0V9.4l-0.2,0,0,0.08,0,0.06a0,0,0,0,0,0,0l0,0v0l-0.18,0v0h0Z"/><path class="g" d="M20.65,9.67v0h0.06a0.08,0.08,0,0,0,0-.06L20.89,9a0.07,0.07,0,0,0,0-.07l-0.05,0v0L21.35,9l-0.06.22h0a0.27,0.27,0,0,0,0-.16A0.22,0.22,0,0,0,21.11,9H21.06a0.06,0.06,0,0,0,0,0L21,9.32a0.12,0.12,0,0,0,.11,0,0.31,0.31,0,0,0,.07-0.12h0l-0.09.38h0a0.27,0.27,0,0,0,0-.14A0.13,0.13,0,0,0,21,9.36l-0.07.27a0.07,0.07,0,0,0,0,.05l0.06,0a0.23,0.23,0,0,0,.15,0,0.35,0.35,0,0,0,.13-0.13h0l-0.09.22-0.52-.13h0Z"/><path class="g" d="M13.67,7.3a2,2,0,0,1,.55-0.36v0c-0.13-.32-1.23-0.07-1.36,0l-0.25.07,0,0a1.56,1.56,0,0,0,1.06.34h0Z"/><path class="d" d="M13.67,7.3a2,2,0,0,1,.55-0.36v0c-0.13-.32-1.23-0.07-1.36,0l-0.25.07,0,0a1.56,1.56,0,0,0,1.06.34h0Z"/></svg>