<svg id="Layer_1" data-name="Layer 1" xmlns="http://www.w3.org/2000/svg" viewBox="0 0 30 30"><title>iconset</title><rect width="30" height="30" fill="#bc0030"/><path d="M23.27,19.06A0.55,0.55,0,0,0,23,19a0.9,0.9,0,0,1-.31-0.07,0.45,0.45,0,0,0-.51.08,0.85,0.85,0,0,1-.57.13,1.59,1.59,0,0,1-.74,0,1.71,1.71,0,0,1,.32-0.23,0.66,0.66,0,0,1,.41-0.18,0.63,0.63,0,0,0,.53-0.21,0.49,0.49,0,0,1,.53-0.15h0.14A0.51,0.51,0,0,0,22.22,18a0.53,0.53,0,0,1-.31,0,0.52,0.52,0,0,0-.6.32,1.71,1.71,0,0,1-.66.54l-0.29.18-0.55-.21a6.26,6.26,0,0,1-1.14-.51,1.06,1.06,0,0,1,.17-0.22A1.26,1.26,0,0,0,19,17.91a1,1,0,0,0-.24-0.14A3.39,3.39,0,0,1,17,16c-0.18-.48-0.09-0.59.13-0.16a1.46,1.46,0,0,0,.56.66c0.26,0.17.41,0.2,0.51,0.11s0.09-.24-0.08-0.43c-0.38-.43-0.49-1.08-0.18-1.08,0.12,0,.13,0,0.37.58a3.17,3.17,0,0,0,1,1.43A0.52,0.52,0,0,0,20,17c0.05-.16,0-0.26-0.27-0.42a1.85,1.85,0,0,1-.79-1.26,0.34,0.34,0,0,1,0-.31c0.09-.14.16-0.09,0.43,0.31a8.36,8.36,0,0,0,1.77,1.95,1.39,1.39,0,0,0,1.69,0A0.35,0.35,0,0,0,23,16.92c0-.19-0.14-0.27-0.44-0.25a1.67,1.67,0,0,1-1-.1,3.36,3.36,0,0,1-1.39-1.63c-0.37-.76-0.28-0.79.34-0.16,0.84,0.85,1.52,1.17,2.14,1a0.8,0.8,0,0,0,.59-0.56c0-.22-0.11-0.28-0.43-0.26l-0.61,0a1,1,0,0,1-.6-0.12A2.69,2.69,0,0,1,21,14.47,5.15,5.15,0,0,1,20,13c0-.18.16-0.11,0.57,0.25a7,7,0,0,0,1.2.83,1.22,1.22,0,0,0,.55.09,0.93,0.93,0,0,0,.55-0.1,0.54,0.54,0,0,0,.36-0.51c0-.37-0.16-0.47-0.7-0.33a1.66,1.66,0,0,1-1.88-.66,0.9,0.9,0,0,1-.42-0.65c0-.11.19-0.06,0.84,0.27a2.54,2.54,0,0,0,1.26.44A0.91,0.91,0,0,0,23,12.4c0.28-.24.35-0.51,0.17-0.68a0.62,0.62,0,0,0-.71,0,1.38,1.38,0,0,1-.46.14,2.23,2.23,0,0,1-1.54-.58,0.61,0.61,0,0,1-.29-0.54c0.07-.08.17-0.06,0.44,0a2.55,2.55,0,0,0,1.16.28,1.92,1.92,0,0,0,1.09-.28,0.82,0.82,0,0,0,.49-0.51,0.52,0.52,0,0,0-.08-0.23c-0.11-.18-0.31-0.17-0.69,0a1.76,1.76,0,0,1-1.77.2,2.22,2.22,0,0,1-.69-0.66C20,9.53,20,9.51,20.09,9.46s0.12-.06.69,0.15a2.57,2.57,0,0,0,1.76,0,1.38,1.38,0,0,0,.78-0.94,0.44,0.44,0,0,0-.17-0.36c-0.17-.06-0.26,0-0.52.25a1.8,1.8,0,0,1-1.45.57c-0.68,0-1-.11-1-0.36a0.38,0.38,0,0,1,.41-0.32A5,5,0,0,0,23,7.36a1,1,0,0,0,.42-0.73,0.49,0.49,0,0,0-.34-0.53c-0.19-.05-0.33,0-0.53.34a2.84,2.84,0,0,1-1.3,1.12,3.69,3.69,0,0,1-1.07.36,0.25,0.25,0,0,1-.12-0.16C20,7.5,19.94,7.49,19.56,7.65,19.37,7.74,19,7.89,18.69,8a1.33,1.33,0,0,0-.91.61,1.22,1.22,0,0,0-.08.63,0.92,0.92,0,0,1-.09.6,0.46,0.46,0,0,1-.46.21,0.55,0.55,0,0,1-.57-0.62,1.82,1.82,0,0,1,.2-1,1.74,1.74,0,0,1,.7-0.78,2.3,2.3,0,0,1,1.14-.37,1.3,1.3,0,0,0,1-.41,1,1,0,0,1-.83-0.08s0.81,0,.91,0a1.07,1.07,0,0,0,.63-0.26,0.43,0.43,0,0,0,.29-0.38c-0.05-.1-0.21-0.08-0.31,0L20,6.45a0.61,0.61,0,0,1-.51.21,1,1,0,0,1-.49,0,0.25,0.25,0,0,1-.1-0.1,0.41,0.41,0,0,1,.29-0.17,1.73,1.73,0,0,1,.52.11,1.77,1.77,0,0,0-.11-0.24A0.64,0.64,0,0,0,19,6a0.71,0.71,0,0,1-.44-0.08L18.38,5.8a0.48,0.48,0,0,0-.21,0A2.73,2.73,0,0,0,17.12,6a1.06,1.06,0,0,1-.53.12,2,2,0,0,1-.43,0C15.86,6,15.8,6,15.8,6.07a1.1,1.1,0,0,0,.46.41c0.11,0.05.15,0.1,0.13,0.13a1.19,1.19,0,0,1-.5.34c-0.18.06-.18,0.14,0,0.23a0.37,0.37,0,0,1,.16.12,0.79,0.79,0,0,1-.55.36c-0.21,0-.13.17,0.1,0.22s0.13,0,0,.17a0.37,0.37,0,0,1-.37.17c-0.14,0-.17,0-0.09.17s0.07,0.12,0,.17a0.28,0.28,0,0,1-.11,0H14.94a0.29,0.29,0,0,1-.11,0c-0.07,0-.07-0.06,0-0.17s0.05-.2-0.09-0.17A0.37,0.37,0,0,1,14.37,8c-0.11-.13-0.11-0.14,0-0.17s0.31-.22.1-0.22a0.78,0.78,0,0,1-.55-0.36,0.36,0.36,0,0,1,.16-0.12c0.2-.1.2-0.17,0-0.23a1.17,1.17,0,0,1-.5-0.34s0-.08.13-0.13a1.1,1.1,0,0,0,.46-0.41c0-.06-0.06-0.06-0.36,0a2,2,0,0,1-.43,0A1.06,1.06,0,0,1,12.88,6a2.72,2.72,0,0,0-1.05-.26,0.49,0.49,0,0,0-.21,0l-0.15.12A0.72,0.72,0,0,1,11,6a0.64,0.64,0,0,0-.66.26,1.51,1.51,0,0,0-.11.24,1.72,1.72,0,0,1,.52-0.11,0.41,0.41,0,0,1,.3.17,0.27,0.27,0,0,1-.1.1,1,1,0,0,1-.49,0A0.62,0.62,0,0,1,10,6.45L9.74,6.2c-0.1-.12-0.26-0.14-0.31,0a0.43,0.43,0,0,0,.29.38,1.07,1.07,0,0,0,.63.26c0.1,0,.87,0,0.91,0a1,1,0,0,1-.83.08,1.3,1.3,0,0,0,1,.41,2.31,2.31,0,0,1,1.14.37,1.75,1.75,0,0,1,.7.78,1.81,1.81,0,0,1,.2,1,0.55,0.55,0,0,1-.57.62,0.46,0.46,0,0,1-.46-0.21,0.92,0.92,0,0,1-.09-0.6,1.22,1.22,0,0,0-.08-0.63A1.34,1.34,0,0,0,11.31,8c-0.29-.1-0.68-0.25-0.87-0.33-0.38-.16-0.4-0.16-0.49.1a0.26,0.26,0,0,1-.12.16,3.67,3.67,0,0,1-1.07-.36,2.86,2.86,0,0,1-1.3-1.12C7.27,6.13,7.13,6,6.94,6.1a0.49,0.49,0,0,0-.34.53A1,1,0,0,0,7,7.36,5,5,0,0,0,9.36,8.42a0.38,0.38,0,0,1,.41.32c0,0.26-.28.36-1,0.36a1.8,1.8,0,0,1-1.44-.57C7.11,8.27,7,8.23,6.85,8.29a0.45,0.45,0,0,0-.17.36,1.38,1.38,0,0,0,.78.94,2,2,0,0,0,1,.17,2,2,0,0,0,.75-0.14c0.57-.21.62-0.22,0.69-0.15s0.05,0.07,0,.19a2.21,2.21,0,0,1-.69.66,1.76,1.76,0,0,1-1.77-.2c-0.38-.2-0.58-0.21-0.69,0a0.53,0.53,0,0,0-.08.23,0.82,0.82,0,0,0,.49.51,1.93,1.93,0,0,0,1.09.28,2.55,2.55,0,0,0,1.16-.28c0.26-.11.37-0.12,0.44,0a0.61,0.61,0,0,1-.29.54A2.23,2.23,0,0,1,8,11.89a1.37,1.37,0,0,1-.46-0.14,0.62,0.62,0,0,0-.71,0C6.68,11.9,6.74,12.16,7,12.4a0.91,0.91,0,0,0,.67.22A2.54,2.54,0,0,0,9,12.19c0.65-.33.8-0.38,0.84-0.27a0.9,0.9,0,0,1-.42.65,1.66,1.66,0,0,1-1.88.66c-0.54-.14-0.73,0-0.7.33a0.54,0.54,0,0,0,.36.51,0.94,0.94,0,0,0,.55.1,1.23,1.23,0,0,0,.55-0.09,7.06,7.06,0,0,0,1.2-.83C9.88,12.89,10,12.82,10,13A5.15,5.15,0,0,1,9,14.47a2.64,2.64,0,0,1-.52.38,1,1,0,0,1-.6.12l-0.61,0c-0.33,0-.43,0-0.43.26a0.8,0.8,0,0,0,.59.56c0.62,0.18,1.3-.13,2.14-1,0.62-.63.71-0.59,0.34,0.16a3.35,3.35,0,0,1-1.39,1.63,1.67,1.67,0,0,1-1,.1c-0.3,0-.44.06-0.44,0.25a0.36,0.36,0,0,0,.14.27,1.39,1.39,0,0,0,1.69,0,8.3,8.3,0,0,0,1.77-1.95c0.27-.4.33-0.45,0.43-0.31a0.33,0.33,0,0,1,0,.31,1.86,1.86,0,0,1-.79,1.26C10,16.72,10,16.82,10,17a0.52,0.52,0,0,0,.66.17,3.17,3.17,0,0,0,1-1.43c0.24-.55.26-0.58,0.37-0.58,0.31,0,.2.65-0.18,1.08-0.17.19-.2,0.32-0.08,0.43s0.25,0.06.51-.11a1.46,1.46,0,0,0,.56-0.66c0.23-.43.32-0.32,0.13,0.16a3.39,3.39,0,0,1-1.73,1.73,1,1,0,0,0-.24.14,1.26,1.26,0,0,0,.17.21,1.09,1.09,0,0,1,.17.22,6.25,6.25,0,0,1-1.14.51l-0.56.21-0.28-.18a1.69,1.69,0,0,1-.66-0.54A0.52,0.52,0,0,0,8.1,18a0.53,0.53,0,0,1-.31,0,0.51,0.51,0,0,0-.59.32H7.33a0.49,0.49,0,0,1,.53.15,0.63,0.63,0,0,0,.53.21,0.66,0.66,0,0,1,.41.18,1.71,1.71,0,0,1,.32.23,1.59,1.59,0,0,1-.74,0A0.86,0.86,0,0,1,7.82,19a0.45,0.45,0,0,0-.51-0.08A0.9,0.9,0,0,1,7,19a0.55,0.55,0,0,0-.27.08,0.49,0.49,0,0,0-.24.29,1.38,1.38,0,0,0,.29,0c0.26,0,.28,0,0.36,0a1.13,1.13,0,0,0,.17.12,0.7,0.7,0,0,0,.5,0,2.15,2.15,0,0,1,.68-0.06H9.1a1.12,1.12,0,0,1-.27.19,0.76,0.76,0,0,1-.57.18,0.49,0.49,0,0,0-.58.31l-0.08.3a0.64,0.64,0,0,0,.08.58,0.92,0.92,0,0,1,.16-0.34,0.29,0.29,0,0,1,.3-0.15,0.49,0.49,0,0,0,.49-0.31,1,1,0,0,1,.49-0.42,0.7,0.7,0,0,1,1,0,0.83,0.83,0,0,1,.41.28,0.35,0.35,0,0,0,.44.16,0.29,0.29,0,0,1,.38.15,0.47,0.47,0,0,0,.13.13,0.86,0.86,0,0,0,0-.23,0.45,0.45,0,0,0-.22-0.39,0.51,0.51,0,0,0-.55-0.24,0.42,0.42,0,0,1-.35-0.07c-0.23-.1-0.32-0.19-0.2-0.19L11,19l0.77-.3,0.11,0.09a1.58,1.58,0,0,0,.69.32c0.13,0,.15,0,0.19-0.15a10,10,0,0,1,.75-1.44c0.4-.62.62-0.78,0.8-0.58a0.51,0.51,0,0,1,.07.38,3.38,3.38,0,0,1-.93,2.13,1.61,1.61,0,0,1-.94.48,0.59,0.59,0,0,0-.47.18,0.75,0.75,0,0,0,.31.36,0.77,0.77,0,0,0,.42.06,0.87,0.87,0,0,0,.57-0.18c0.25-.15.29-0.16,0.34-0.11s0.05,0.08,0,.22a0.75,0.75,0,0,1-.79.5c-0.51.06-.68,0.22-0.51,0.46a0.65,0.65,0,0,0,.56.23,1.28,1.28,0,0,0,.89-0.45,0.88,0.88,0,0,1,.3-0.22,0.82,0.82,0,0,1,0,.52,1.06,1.06,0,0,1-.44.52l-0.32.1c-0.42.12-.48,0.28-0.18,0.47a0.81,0.81,0,0,0,.74,0,2.53,2.53,0,0,0,.65-0.6c0.07-.13.14,0,0.12,0.15a1.43,1.43,0,0,1-.31.62,0.82,0.82,0,0,0,.18,1,1.78,1.78,0,0,0,.45.52,1.81,1.81,0,0,0,.45-0.52,0.82,0.82,0,0,0,.18-1,1.42,1.42,0,0,1-.31-0.62c0-.19,0-0.28.12-0.15a2.56,2.56,0,0,0,.65.6,0.81,0.81,0,0,0,.74,0c0.3-.2.24-0.36-0.18-0.47L16.32,22a1.07,1.07,0,0,1-.44-0.52,0.82,0.82,0,0,1,0-.52,0.89,0.89,0,0,1,.3.22,1.27,1.27,0,0,0,.89.45,0.65,0.65,0,0,0,.56-0.23c0.17-.24,0-0.39-0.51-0.46a0.75,0.75,0,0,1-.79-0.5c0-.14,0-0.17,0-0.22s0.09,0,.33.11a0.87,0.87,0,0,0,.57.18,0.78,0.78,0,0,0,.42-0.06A0.76,0.76,0,0,0,18,20.1a0.59,0.59,0,0,0-.47-0.18,1.6,1.6,0,0,1-.94-0.48,3.38,3.38,0,0,1-.93-2.13,0.5,0.5,0,0,1,.07-0.38c0.18-.2.4,0,0.8,0.58A9.94,9.94,0,0,1,17.25,19c0,0.14.06,0.15,0.19,0.15a1.58,1.58,0,0,0,.69-0.32l0.11-.09L19,19l0.82,0.3c0.12,0,0,.09-0.2.19a0.42,0.42,0,0,1-.35.07,0.51,0.51,0,0,0-.55.24,0.45,0.45,0,0,0-.22.39,0.86,0.86,0,0,0,0,.23,0.53,0.53,0,0,0,.13-0.13A0.28,0.28,0,0,1,19,20.15,0.35,0.35,0,0,0,19.49,20a0.83,0.83,0,0,1,.41-0.28,0.7,0.7,0,0,1,1,0,1,1,0,0,1,.49.42,0.49,0.49,0,0,0,.48.31,0.29,0.29,0,0,1,.3.15,0.92,0.92,0,0,1,.16.34,0.64,0.64,0,0,0,.07-0.58l-0.08-.3a0.5,0.5,0,0,0-.58-0.31,0.76,0.76,0,0,1-.57-0.18,1.12,1.12,0,0,1-.27-0.19H21.5a2.15,2.15,0,0,1,.68.06,0.7,0.7,0,0,0,.5,0,1.13,1.13,0,0,0,.17-0.12c0.08-.07.11-0.08,0.36,0a1.38,1.38,0,0,0,.29,0,0.49,0.49,0,0,0-.24-0.29M17.77,6.52c0.08-.05-0.07-0.21.1-0.2l0.17,0a0.15,0.15,0,0,1,.11.23,0.8,0.8,0,0,1-.58,0c-0.14-.38.1,0,0.2-0.11m-5.35.11a0.8,0.8,0,0,1-.58,0A0.15,0.15,0,0,1,12,6.35l0.17,0c0.17,0,0,.15.1,0.2s0.34-.27.2,0.11"/></svg>