<svg id="Layer_1" data-name="Layer 1" xmlns="http://www.w3.org/2000/svg" xmlns:xlink="http://www.w3.org/1999/xlink" viewBox="0 0 30 30"><defs><clipPath id="clip-path"><rect width="30" height="30" fill="none"/></clipPath><clipPath id="clip-path-2"><rect x="-10.71" width="51.43" height="30" fill="none"/></clipPath></defs><title>iconset</title><g clip-path="url(#clip-path)"><rect y="10" width="30" height="10" fill="#fff"/><rect x="-10.71" y="20" width="51.43" height="10" fill="#1e2788"/><rect x="-10.71" width="51.43" height="10" fill="#cb0028"/><g clip-path="url(#clip-path-2)"><path d="M9,9.85a17.93,17.93,0,0,1,5.88-1,17.69,17.69,0,0,1,6,1l1.5-3L21.4,5l-1.89.77s-1.32-1.44-1.32-1.44l-1.68,1L14.93,4.16,13.45,5.35l-1.73-1-1.26,1.5L8.56,5l-1,1.82Z" fill="#fff"/><path d="M21,9.92h0a17.85,17.85,0,0,0-11.89,0l-1.55-3L8.52,5l1.95,0.79,1.21-1.49,1.79,1L14.9,4.12l1.63,1.21,1.63-1c0.56,0.56,1.33,1.4,1.37,1.44S20.88,5.19,21.39,5l1.11,1.85L21,9.92h0ZM8.54,5.07l-1,1.8,1.5,3a16.86,16.86,0,0,1,5.84-1,17.86,17.86,0,0,1,6,1l1.48-3L21.37,5l-1.86.79a13.58,13.58,0,0,1-1.36-1.45l-1.62,1L14.9,4.19,13.47,5.38l-1.78-1L10.48,5.87l-1.94-.8h0Z" fill="#cb0028"/><path d="M18.64,9l0.86-3,1.84-.75,1,1.62L20.91,9.71A12.21,12.21,0,0,0,18.64,9h0Z" fill="#3a7aa1"/><path d="M20.91,9.72h0A12.16,12.16,0,0,0,18.63,9l0.85-3,1.84-.75,1,1.63L20.91,9.72h0Zm0.41-4.47L19.5,6,18.65,9a11.2,11.2,0,0,1,2.25.67l1.38-2.83-1-1.61h0Z" fill="#4c73d5"/><path d="M13.8,8.69L13.51,5.55,15,4.39,16.5,5.55,16.23,8.69a22.9,22.9,0,0,0-2.42,0h0Z" fill="#3a7aa1"/><path d="M16.24,8.7h0a22.45,22.45,0,0,0-2.42,0L13.5,5.55,15,4.38,16.5,5.54,16.24,8.7h0ZM15,4.4L13.52,5.56l0.29,3.13a18.27,18.27,0,0,1,2.4,0l0.27-3.13L15,4.4h0Z" fill="#4c73d5"/><path d="M9.11,9.7L7.75,6.83,8.66,5.24l1.88,0.82,0.8,3a11.85,11.85,0,0,0-2.23.68h0Z" fill="#3a7aa1"/><path d="M9.11,9.72L7.74,6.83l0.91-1.6L10.55,6l0.8,3a12.93,12.93,0,0,0-2.24.69h0ZM8.66,5.25L7.76,6.83,9.12,9.69A12.11,12.11,0,0,1,11.34,9l-0.8-3L8.66,5.25h0Z" fill="#4c73d5"/><path d="M8.82,8.26a2.31,2.31,0,0,0,1.07-.1,1.48,1.48,0,0,0,.69-0.62,0.77,0.77,0,0,1-.42,1,1.06,1.06,0,0,1-1.34-.26h0Z" fill="#fff"/><path d="M9.63,8.66a1,1,0,0,1-.82-0.4H9.17a2.13,2.13,0,0,0,.72-0.12,1.43,1.43,0,0,0,.66-0.58h0a1.34,1.34,0,0,1-.65.59,2.36,2.36,0,0,1-1.08.1,1.12,1.12,0,0,0,1.34.25,0.76,0.76,0,0,0,.46-0.74,0.72,0.72,0,0,1-.45.76,1.18,1.18,0,0,1-.54.13h0Z" fill="#fff"/><path d="M15.37,6l-0.08,0V6.21l-0.1,0-0.07.13,0,0s0,0.1,0,.1l0,0,0,0.08h0.07l0,0.09,0.11,0,0.1,0.07v0h0.11l0.08,0,0.27,0,0-.05V6.71h0.14V6.59h0.08V6.45h0.06l0-.06,0-.05V6.25l-0.11-.11,0-.14L16,6V5.87l0.08-.11v0H16l-0.06,0H15.86v0l0,0.06H15.79V5.76L15.66,5.7l-0.12.08V5.87l-0.06,0L15.43,5.8l-0.1,0H15.28V5.82L15.38,6V6Z" fill="#fbfc2b"/><path d="M15.67,6.9l-0.21,0V6.81l-0.09-.05h-0.1l0-.11h0l-0.06-.19,0-.05-0.06,0,0.07-.16,0.12,0,0-.12,0.1,0V6l-0.1-.12V5.73h0.08l0.11,0,0.07,0.09,0-.09a0.23,0.23,0,0,1,.13-0.1L15.8,5.74l0,0.12,0,0,0,0c0-.06,0-0.07.1-0.07l0,0h0.11V5.75L16,5.88V6a0.08,0.08,0,0,1,.06,0l0,0.17,0.11,0.1,0.07,0.21-0.09,0,0,0.11-0.1,0v0.1L16,6.74l0,0.05,0,0.07-0.29,0h0ZM15.6,6.83l0.08,0,0.27,0,0,0V6.71l0.17,0V6.58l0.1,0,0-.11,0.09,0-0.08-.08V6.26l-0.11-.1L16,6C16,6,16,6,16,6V5.87l0.09-.13H16l0,0H15.86l0,0.07-0.11,0,0-.13-0.11,0a0.47,0.47,0,0,1-.09.07,0.35,0.35,0,0,1,0,.07v0l-0.07,0-0.08-.09-0.09,0,0,0,0.1,0.12V6l-0.1,0,0,0.12-0.12,0-0.05.12c0.05,0,0,0,0,.1s0,0,0,0l0,0.09h0l0,0.11h0.09L15.5,6.79V6.84l0.09,0h0Z" fill="#c2a21f"/><path d="M16.14,6.58l0-.08Z" fill="none"/><path d="M16.21,6.45l0-.05Z" fill="none"/><polygon points="15.16 6.39 15.28 6.38 15.31 6.49 15.35 6.52 15.35 6.71 15.39 6.73 15.4 6.65 15.49 6.65 15.51 6.8 15.49 6.82 15.5 6.85 15.61 6.84 15.63 6.8 15.7 6.8 15.72 6.84 15.74 6.78 15.8 6.76 15.84 6.84 15.92 6.83 15.87 6.78 15.85 6.68 15.97 6.62 16.01 6.69 16.05 6.69 16 6.61 16 6.43 16.09 6.32 16.2 6.31 16.2 6.26 16.09 6.15 16.05 6 15.99 5.97 15.97 5.99 15.9 6 15.97 6.1 15.97 6.17 16 6.19 16 6.38 15.91 6.4 15.91 6.5 15.86 6.55 15.82 6.66 15.78 6.72 15.69 6.72 15.63 6.67 15.62 6.59 15.58 6.58 15.56 6.5 15.5 6.46 15.5 6.42 15.44 6.39 15.43 6.34 15.4 6.32 15.39 6.2 15.45 6.2 15.42 6.16 15.41 6.12 15.41 6.09 15.45 6.04 15.37 6.04 15.29 6.07 15.29 6.21 15.2 6.24 15.13 6.36 15.16 6.39" fill="#c2a21f"/><path d="M15.48,6.87l0,0V6.65l-0.07,0V6.76l-0.07,0,0-.21-0.06-.13-0.1,0,0,0,0.07-.15,0.1,0a0.45,0.45,0,0,1,0-.12A0.4,0.4,0,0,1,15.36,6h0.1l0,0.13,0,0,0-.06h0s0,0-.06,0a0.79,0.79,0,0,1,0,.12l-0.11.05-0.06.11h0.13l0,0.12,0,0.23V6.65l0.12,0,0,0.18,0,0,0.11,0V6.86l-0.15,0h0Zm0.37,0a0.26,0.26,0,0,1-.08-0.1l0,0h0v0l0.07,0,0.07,0.09,0.06,0H15.86l0-.11h0l0,0.05H15.69a0.15,0.15,0,0,1-.08-0.08V6.59s0,0-.06-0.09l-0.06,0V6.42H15.42V6.35s0,0,0-.15v0h0.07l0.05,0H15.41a0.3,0.3,0,0,1,0,.09l0.1,0.08V6.46l0,0a0.53,0.53,0,0,1,0,.09,0.14,0.14,0,0,1,0,.1l0,0h0.07c0-.06,0-0.06,0-0.06a0.15,0.15,0,0,1,0-.08l0.06-.06V6.4s0,0,.11,0l0-.25L15.88,6,16,6l0.1,0,0,0.17,0.12,0.1V6.31l-0.14,0L16,6.45V6.61h0l0,0.07L16,6.72l-0.07-.09-0.08.07,0.07,0.11-0.09.05h0Zm0.08-.44a0.32,0.32,0,0,1,0,.09l-0.06.07a0.29,0.29,0,0,1,0,.11L16,6.6l0,0h0V6.43l0,0-0.07,0h0ZM16,6L15.9,6,16,6.09l0,0.28,0-.07,0.14,0-0.13-.11L16,6,16,6h0Z" fill="#c2a21f"/><path d="M15.63,6.58l0.06,0V6.48H15.63l0,0h0.17s0,0,0,0l0,0V6.55l0.14,0a0.09,0.09,0,0,1,0,0l-0.14,0-0.09.05v0Z" fill="#613f21"/><path d="M15.59,6.65l0-.07,0.07,0,0-.07h0l0.06,0h0l0,0V6.55c0.14,0,.14,0,0.14,0s0,0-.16,0l-0.11.07h0Z" fill="#c2a21f"/><path d="M16,6.18l-0.08.06-0.05.09h0l-0.08-.1H15.65l0,0.12h0l-0.09-.1,0-.05h0.23V6.09l-0.05,0h0.13l0,0V6.19h0.2Z" fill="#c2a21f"/><path d="M15.6,6.38h0l-0.12-.12,0-.07h0.26l0-.08h0s0,0,.1,0h0.08l-0.11.08V6.19l0.24,0-0.12.19H15.8l-0.08-.1H15.65a0.39,0.39,0,0,1,0,.11l0,0h0Zm0.1-.18-0.25,0,0.14,0.11,0-.11H15.7Z" fill="#c2a21f"/><path d="M15.56,6.23h0l0,0v0l0,0h0l0,0v0l0,0h0Z" fill="#613f21"/><path d="M15.81,6.22h0a0,0,0,0,1,0,0v0a0,0,0,0,1,0,0h0a0,0,0,0,1,0,0v0a0,0,0,0,1,0,0h0Z" fill="#613f21"/><path d="M15.45,6.07l0,0V6A0.79,0.79,0,0,1,15.67,6a0.82,0.82,0,0,1,.27,0,1,1,0,0,1-.27,0,0.77,0.77,0,0,0-.23.06h0Z" fill="#c2a21f"/><polygon points="15.47 5.88 15.4 5.88 15.3 5.77 15.36 5.78 15.42 5.81 15.47 5.88" fill="#c2a21f"/><polygon points="15.52 5.9 15.4 5.9 15.23 5.74 15.43 5.79 15.52 5.9 15.52 5.9" fill="#c2a21f"/><polygon points="15.88 5.84 16.04 5.72 15.99 5.71 15.93 5.76 15.86 5.78 15.88 5.84" fill="#c2a21f"/><polygon points="15.88 5.84 16.04 5.72 15.99 5.71 15.93 5.76 15.86 5.78 15.88 5.84" fill="none"/><polygon points="15.79 5.86 15.55 5.87 15.55 5.84 15.64 5.83 15.65 5.8 15.68 5.8 15.7 5.83 15.79 5.84 15.79 5.86" fill="#c2a21f"/><polygon points="15.52 5.89 15.53 5.84 15.64 5.81 15.59 5.84 15.67 5.84 15.66 5.81 15.79 5.82 15.81 5.86 15.79 5.88 15.52 5.89 15.52 5.89" fill="#c2a21f"/><polygon points="15.78 5.77 15.7 5.77 15.69 5.72 15.78 5.77" fill="#c2a21f"/><polygon points="15.78 5.77 15.7 5.77 15.69 5.72 15.78 5.77" fill="none"/><polygon points="15.64 5.72 15.63 5.77 15.55 5.78 15.64 5.72" fill="#c2a21f"/><polygon points="15.64 5.72 15.63 5.77 15.55 5.78 15.64 5.72" fill="none"/><polygon points="15.17 6.56 15.21 6.46 15.17 6.39 15.13 6.49 15.17 6.56" fill="#c2a21f"/><polygon points="15.17 6.56 15.21 6.46 15.17 6.39 15.13 6.49 15.17 6.56" fill="none"/><polygon points="15.25 6.62 15.31 6.5 15.21 6.59 15.25 6.62" fill="#c2a21f"/><polygon points="15.27 6.66 15.2 6.62 15.28 6.49 15.23 6.61 15.25 6.62 15.23 6.61 15.29 6.48 15.27 6.66 15.27 6.66" fill="#c2a21f"/><path d="M14,6.08l-0.08,0V6.25l-0.1,0-0.07.13,0,0s0,0.1,0,.1l0,0,0,0.08H13.9l0,0.1,0.11,0,0.1,0.07v0h0.11l0.08,0,0.27,0,0-.06V6.76h0.15V6.63h0.08V6.49h0.07l0-.07,0-.05V6.3l-0.11-.11,0-.15L14.64,6V5.91l0.08-.11v0H14.63l-0.06,0H14.5v0l0,0.06H14.43V5.8l-0.12-.06-0.11.08V5.91l-0.06,0-0.06-.08-0.1,0H13.92V5.87L14,6V6.08Z" fill="#fbfc2b"/><path d="M14.31,6.94l-0.21,0V6.85L14,6.8h-0.1l0-.11h0L13.76,6.5l0-.06,0-.05,0.07-.13,0.12,0,0-.12,0.1,0V6l-0.1-.12V5.78H14l0.11,0,0.07,0.09,0-.09a0.23,0.23,0,0,1,.13-0.1l0.15,0.06,0,0.12,0,0,0,0c0-.07,0-0.07.1-0.08l0,0h0.11V5.79l-0.09.13V6a0.09,0.09,0,0,1,.06,0l0,0.16,0.11,0.1,0.07,0.21-0.09,0,0,0.11-0.1,0v0.1l-0.17,0,0,0.05,0,0.07-0.29,0h0Zm-0.07-.08,0.08,0,0.27,0,0,0V6.76l0.17,0V6.63l0.1,0,0-.11,0.09,0L14.84,6.4V6.3l-0.11-.1,0-.16c-0.07,0-.07,0-0.07,0V5.91l0.09-.13H14.63l0,0H14.51l0,0.08-0.11,0,0-.12-0.11,0a0.43,0.43,0,0,1-.09.07,0.44,0.44,0,0,1,0,.08v0L14.14,6l-0.08-.09L14,5.83l0,0L14,6v0.1l-0.1,0,0,0.12-0.12,0-0.05.12c0.05,0,0,0,0,.11s0,0,0,0l0,0.09h0l0,0.11H14l0.12,0.08V6.89l0.09,0h0Z" fill="#c2a21f"/><path d="M14.79,6.63l0-.08Z" fill="none"/><path d="M14.85,6.49l0-.05Z" fill="none"/><polygon points="13.81 6.43 13.93 6.42 13.95 6.53 13.99 6.57 14 6.76 14.04 6.77 14.05 6.7 14.14 6.69 14.16 6.85 14.13 6.87 14.14 6.89 14.25 6.89 14.28 6.85 14.34 6.84 14.37 6.89 14.38 6.83 14.44 6.81 14.49 6.88 14.57 6.87 14.52 6.82 14.5 6.72 14.61 6.66 14.66 6.74 14.7 6.74 14.65 6.65 14.65 6.48 14.73 6.36 14.85 6.35 14.85 6.3 14.73 6.2 14.7 6.05 14.63 6.01 14.62 6.03 14.54 6.04 14.62 6.15 14.62 6.22 14.65 6.23 14.64 6.43 14.56 6.44 14.55 6.55 14.5 6.6 14.47 6.7 14.42 6.76 14.33 6.76 14.28 6.71 14.27 6.64 14.23 6.62 14.21 6.54 14.15 6.51 14.14 6.46 14.08 6.43 14.07 6.39 14.04 6.37 14.04 6.25 14.09 6.24 14.06 6.2 14.05 6.17 14.05 6.13 14.1 6.09 14.02 6.08 13.94 6.11 13.94 6.25 13.85 6.28 13.77 6.4 13.81 6.43" fill="#c2a21f"/><path d="M14.13,6.91l0,0V6.69L14,6.72V6.81L14,6.78l0-.22L13.9,6.43l-0.1,0,0,0,0.07-.15,0.1,0a0.45,0.45,0,0,1,0-.12A0.38,0.38,0,0,1,14,6.06h0.1l0,0.13,0,0,0-.07h0s0,0-.06,0a0.82,0.82,0,0,1,0,.12l-0.11.05-0.06.11h0.13l0,0.12,0,0.23V6.69l0.11,0,0,0.18,0,0,0.11,0V6.9H14.13Zm0.37,0-0.08-.1,0,0h0v0l0.07,0,0.07,0.09,0.06,0H14.5l0-.11,0.12-.09,0,0h0V6.48l0,0-0.07,0a0.34,0.34,0,0,1,0,.09l-0.06.07c0,0.11,0,.11,0,0.11l0,0.05H14.33a0.14,0.14,0,0,1-.08-0.08V6.64s0,0-.06-0.09l-0.06,0V6.46H14.06V6.4s0,0,0-.15v0h0.07l0.05,0-0.08,0a0.28,0.28,0,0,1,0,.09l0.1,0.08V6.5l0,0a0.45,0.45,0,0,1,0,.09,0.14,0.14,0,0,1,.05.1l0,0h0.07c0-.06,0-0.06,0-0.06a0.16,0.16,0,0,1,0-.08l0.06-.06V6.44s0,0,.11,0l0-.26-0.07-.09,0.09,0h0.1l0,0.17,0.12,0.1V6.35l-0.14,0-0.07.1V6.65h0l0,0.07h0l-0.06,0-0.07-.09-0.08.07,0.07,0.11-0.09.05h0ZM14.62,6l-0.08,0,0.09,0.07,0,0.28,0-.07,0.14,0-0.13-.11,0-.16L14.62,6h0Z" fill="#c2a21f"/><path d="M14.27,6.63l0.06,0V6.52H14.27l0,0h0.17s0,0,0,0l0,0V6.59l0.14,0a0.1,0.1,0,0,1,0,0l-0.14,0-0.09.05v0Z" fill="#613f21"/><path d="M14.23,6.69l0-.07,0.07,0,0-.06h0l0.06,0h0l0,0V6.59c0.14,0,.14,0,0.14,0s0,0-.16,0l-0.11.07h0Z" fill="#c2a21f"/><path d="M14.62,6.22l-0.08.06-0.05.09h0l-0.08-.1H14.29l0,0.12h0l-0.09-.1,0-.05h0.23V6.13l-0.05,0H14.4l0,0V6.23h0.2Z" fill="#c2a21f"/><path d="M14.24,6.42h0L14.09,6.3l0-.07h0.26l0-.08h0s0-.05.1-0.05h0.08l-0.12.08V6.23l0.24,0-0.12.19H14.44l-0.08-.1H14.3a0.42,0.42,0,0,1,0,.11l0,0h0Zm0.1-.18-0.25,0,0.14,0.11,0-.11h0.07Z" fill="#c2a21f"/><path d="M14.2,6.27h0a0,0,0,0,1,0,0v0a0,0,0,0,1,0,0h0a0,0,0,0,1,0,0v0l0,0h0Z" fill="#613f21"/><path d="M14.46,6.26h0a0,0,0,0,1,0,0v0l0,0h0l0,0v0a0,0,0,0,1,0,0h0Z" fill="#613f21"/><path d="M14.1,6.11h0v0A0.74,0.74,0,0,1,14.31,6a0.85,0.85,0,0,1,.27,0,1,1,0,0,1-.26,0,0.75,0.75,0,0,0-.22.06h0Z" fill="#c2a21f"/><polygon points="14.11 5.92 14.04 5.92 13.95 5.82 14 5.82 14.07 5.85 14.11 5.92" fill="#c2a21f"/><polygon points="14.16 5.94 14.04 5.94 13.88 5.78 14.08 5.83 14.16 5.94 14.16 5.94" fill="#c2a21f"/><polygon points="14.53 5.88 14.69 5.76 14.63 5.75 14.58 5.81 14.51 5.82 14.53 5.88" fill="#c2a21f"/><polygon points="14.53 5.88 14.69 5.76 14.63 5.75 14.58 5.81 14.51 5.82 14.53 5.88" fill="none"/><polygon points="14.44 5.9 14.19 5.91 14.2 5.88 14.29 5.88 14.3 5.84 14.32 5.84 14.34 5.87 14.43 5.89 14.44 5.9" fill="#c2a21f"/><polygon points="14.17 5.94 14.17 5.88 14.28 5.85 14.24 5.88 14.31 5.88 14.3 5.85 14.43 5.86 14.46 5.9 14.44 5.93 14.17 5.94 14.17 5.94" fill="#c2a21f"/><polygon points="14.43 5.81 14.34 5.81 14.34 5.77 14.43 5.81" fill="#c2a21f"/><polygon points="14.43 5.81 14.34 5.81 14.34 5.77 14.43 5.81" fill="none"/><polygon points="14.28 5.77 14.28 5.82 14.19 5.83 14.28 5.77" fill="#c2a21f"/><polygon points="14.28 5.77 14.28 5.82 14.19 5.83 14.28 5.77" fill="none"/><polygon points="13.81 6.61 13.86 6.5 13.82 6.43 13.78 6.54 13.81 6.61" fill="#c2a21f"/><polygon points="13.81 6.61 13.86 6.5 13.82 6.43 13.78 6.54 13.81 6.61" fill="none"/><polygon points="13.9 6.66 13.95 6.54 13.85 6.64 13.9 6.66" fill="#c2a21f"/><polygon points="13.91 6.7 13.84 6.66 13.93 6.53 13.87 6.66 13.9 6.66 13.88 6.66 13.93 6.52 13.91 6.7 13.91 6.7" fill="#c2a21f"/><path d="M16.25,8.69l0.27-3.15,1.67-1L19.47,6,18.62,9a15.74,15.74,0,0,0-2.37-.32h0Z" fill="#1e2788"/><path d="M18.62,9h0a15.73,15.73,0,0,0-2.37-.32l0.26-3.16,1.67-1L19.48,6,18.62,9h0ZM18.18,4.59l-1.65,1L16.26,8.69A14.53,14.53,0,0,1,18.61,9l0.86-3L18.18,4.59h0Z" fill="#160080"/><path d="M14.72,7.26l-0.08,0V7.43l-0.1,0-0.07.13,0,0s0,0.1,0,.1l0,0,0,0.08H14.6l0,0.09,0.11,0L14.82,8v0h0.11l0.08,0,0.27,0,0-.06V7.93h0.15V7.81h0.08V7.67h0.06l0-.06,0-.05V7.47l-0.11-.11,0-.15-0.07,0V7.08L15.42,7v0H15.34L15.28,7H15.2V7l0,0.06H15.14V7L15,6.92,14.89,7V7.09l-0.06,0L14.78,7l-0.1,0H14.62V7l0.1,0.13V7.26Z" fill="#fbfc2b"/><path d="M15,8.12l-0.21,0V8L14.71,8h-0.1l0-.11h0l-0.07-.2V7.57l0.07-.13,0.12,0,0-.12,0.1,0V7.18l-0.1-.12V7h0.08l0.11,0,0.07,0.09,0-.09A0.25,0.25,0,0,1,15,6.9L15.14,7l0,0.12,0,0,0,0c0-.07,0-0.07.1-0.08l0,0h0.11V7l-0.09.13V7.18a0.08,0.08,0,0,1,.06,0l0,0.16,0.11,0.1,0.07,0.21-0.09,0,0,0.11-0.1,0v0.1L15.33,8l0,0.05,0,0.07L15,8.12h0ZM14.94,8l0.08,0,0.26,0,0,0V7.93l0.17,0V7.8l0.1,0,0-.11,0.09,0-0.08-.08V7.47l-0.11-.1,0-.16c-0.07,0-.07,0-0.07,0V7.09L15.4,7H15.34l0,0H15.21l0,0.07-0.11,0,0-.12L15,6.94a0.47,0.47,0,0,1-.09.07,0.37,0.37,0,0,1,0,.07v0l-0.07,0L14.76,7,14.67,7l0,0,0.1,0.12v0.1l-0.1,0,0,0.12-0.12,0-0.05.12c0.05,0,0,0,0,.1s0,0,0,0l0,0.09h0l0,0.11h0.09L14.85,8V8.06l0.09,0h0Z" fill="#c2a21f"/><path d="M15.49,7.8l0-.08Z" fill="none"/><path d="M15.55,7.67l0-.05Z" fill="none"/><polygon points="14.51 7.61 14.63 7.6 14.65 7.71 14.69 7.74 14.7 7.93 14.74 7.95 14.75 7.87 14.84 7.87 14.86 8.02 14.84 8.04 14.85 8.06 14.95 8.06 14.98 8.02 15.04 8.02 15.07 8.06 15.09 8 15.14 7.98 15.19 8.06 15.27 8.05 15.22 8 15.2 7.9 15.31 7.84 15.36 7.92 15.4 7.92 15.35 7.83 15.35 7.65 15.43 7.54 15.55 7.53 15.55 7.48 15.43 7.37 15.4 7.22 15.34 7.19 15.32 7.21 15.24 7.22 15.32 7.32 15.32 7.39 15.35 7.41 15.35 7.6 15.26 7.62 15.26 7.72 15.2 7.78 15.17 7.87 15.13 7.93 15.03 7.94 14.98 7.89 14.97 7.81 14.93 7.8 14.91 7.72 14.85 7.68 14.85 7.63 14.79 7.61 14.78 7.56 14.74 7.54 14.74 7.42 14.8 7.42 14.77 7.38 14.76 7.34 14.76 7.31 14.8 7.26 14.72 7.25 14.64 7.29 14.64 7.43 14.55 7.46 14.47 7.58 14.51 7.61" fill="#c2a21f"/><path d="M14.83,8.09l0,0V7.87l-0.07,0V8L14.69,8l0-.22-0.06-.13-0.1,0,0,0,0.07-.15,0.1,0a0.45,0.45,0,0,1,0-.12,0.33,0.33,0,0,1,.09-0.06h0.1l0,0.13,0,0,0-.06h0s0,0-.06,0a0.89,0.89,0,0,1,0,.12l-0.11.05-0.06.11h0.13l0,0.12,0,0.23V7.87l0.11,0,0,0.18,0,0L15,8V8.07l-0.15,0h0Zm0.37,0A0.24,0.24,0,0,1,15.12,8l0,0.09L15,8h0L15,8V8l0,0h0l0-.06,0.07,0a0.57,0.57,0,0,1,.07.09l0.06,0H15.21l0-.12,0.12-.09,0,0h0V7.65l0,0-0.07,0a0.34,0.34,0,0,1,0,.09l-0.06.07c0,0.11,0,.11,0,0.11a0.14,0.14,0,0,1,0,.05H15A0.14,0.14,0,0,1,15,7.89V7.81s0,0-.06-0.09l-0.06,0V7.64H14.76V7.57s0,0,0-.15v0h0.07l0.05,0-0.09,0a0.26,0.26,0,0,1,0,.09s0,0,0,.06h0.06V7.68l0,0a0.45,0.45,0,0,1,0,.09,0.13,0.13,0,0,1,0,.1l0,0h0.07c0-.06,0-0.06,0-0.06a0.15,0.15,0,0,1,0-.08l0.06-.06V7.61s0,0,.11,0l0-.26-0.07-.09,0.09,0,0.1,0,0,0.17,0.12,0.1V7.53l-0.14,0-0.07.1V7.83h0l0,0.07-0.06,0-0.07-.09-0.08.07L15.29,8l-0.09.05h0Zm0.13-.87-0.08,0,0.09,0.07,0,0.28,0-.06,0.14,0-0.13-.11,0-.16-0.05,0h0Z" fill="#c2a21f"/><path d="M15,7.8l0.06,0V7.7H15l0,0h0.17s0,0,0,0l0,0V7.77l0.14,0a0.1,0.1,0,0,1,0,0L15,7.78,15,7.83v0Z" fill="#613f21"/><path d="M14.94,7.87l0-.07,0.07,0,0-.06h0l0.05,0h0l0,0V7.77c0.14,0,.14,0,0.14,0s0,0-.16,0l-0.11.07h0Z" fill="#c2a21f"/><path d="M15.32,7.39l-0.08.06-0.05.09h0l-0.08-.1H15l0,0.12h0l-0.09-.1,0-.05H15V7.31L15,7.29H15.1l0,0V7.41h0.2Z" fill="#c2a21f"/><path d="M14.95,7.6h0l-0.12-.12,0-.07H15l0-.08h0s0-.05.1-0.05h0.08l-0.11.08V7.41l0.24,0-0.12.19H15.14l-0.08-.1H15a0.41,0.41,0,0,1,0,.11l0,0h0ZM15,7.42l-0.25,0,0.14,0.11,0-.11H15Z" fill="#c2a21f"/><path d="M14.91,7.45h0l0,0v0a0,0,0,0,1,0,0h0a0,0,0,0,1,0,0v0l0,0h0Z" fill="#613f21"/><path d="M15.16,7.44h0a0,0,0,0,1,0,0v0l0,0h0l0,0v0a0,0,0,0,1,0,0h0Z" fill="#613f21"/><path d="M14.79,7.29l0,0v0A0.71,0.71,0,0,1,15,7.18a0.82,0.82,0,0,1,.27,0,1.08,1.08,0,0,1-.27,0,0.72,0.72,0,0,0-.23.06h0Z" fill="#c2a21f"/><polygon points="14.82 7.09 14.75 7.09 14.65 6.99 14.7 7 14.77 7.03 14.82 7.09" fill="#c2a21f"/><polygon points="14.87 7.12 14.75 7.12 14.58 6.96 14.78 7 14.87 7.12 14.87 7.12" fill="#c2a21f"/><polygon points="15.23 7.06 15.39 6.94 15.34 6.93 15.28 6.98 15.21 6.99 15.23 7.06" fill="#c2a21f"/><polygon points="15.23 7.06 15.39 6.94 15.34 6.93 15.28 6.98 15.21 6.99 15.23 7.06" fill="none"/><polygon points="15.14 7.08 14.9 7.09 14.9 7.06 14.99 7.05 15 7.02 15.03 7.02 15.05 7.05 15.13 7.06 15.14 7.08" fill="#c2a21f"/><polygon points="14.87 7.11 14.87 7.06 14.99 7.03 14.94 7.06 15.02 7.06 15 7.03 15.14 7.04 15.16 7.08 15.14 7.1 14.87 7.11 14.87 7.11" fill="#c2a21f"/><polygon points="15.13 6.99 15.04 6.99 15.04 6.94 15.13 6.99" fill="#c2a21f"/><polygon points="15.13 6.99 15.04 6.99 15.04 6.94 15.13 6.99" fill="none"/><polygon points="14.99 6.95 14.98 6.99 14.9 7 14.99 6.95" fill="#c2a21f"/><polygon points="14.99 6.95 14.98 6.99 14.9 7 14.99 6.95" fill="none"/><polygon points="14.52 7.78 14.56 7.68 14.52 7.6 14.48 7.71 14.52 7.78" fill="#c2a21f"/><polygon points="14.52 7.78 14.56 7.68 14.52 7.6 14.48 7.71 14.52 7.78" fill="none"/><polygon points="14.6 7.84 14.65 7.71 14.55 7.82 14.6 7.84" fill="#c2a21f"/><polygon points="14.61 7.87 14.54 7.84 14.63 7.71 14.57 7.83 14.6 7.84 14.58 7.83 14.63 7.7 14.61 7.87 14.61 7.87" fill="#c2a21f"/><path d="M16.66,8.12l-0.08.1V8.3h0.17a0.1,0.1,0,0,0,.08-0.05,0.16,0.16,0,0,0,0-.08Z" fill="#cb0028"/><path d="M16.57,8.32V8.22l0.09-.1,0.2,0V8.25h0a0.11,0.11,0,0,1-.09.06H16.57Z" fill="#d30028"/><path d="M17.07,8.36L17,8.41V8.49h0.15a0.08,0.08,0,0,0,.08,0,0.11,0.11,0,0,0,0-.06Z" fill="#cb0028"/><path d="M17.14,8.51H17V8.41l0.08-.07,0.18,0,0,0.07h0a0.09,0.09,0,0,1-.09,0h0Z" fill="#d30028"/><path d="M17.76,8.16l-0.08.08V8.3h0.16c0.06,0,0,0,.06,0a0.13,0.13,0,0,0,0-.07Z" fill="#cb0028"/><path d="M17.84,8.32H17.68V8.24l0.08-.09,0.18,0,0,0.08h0a0.07,0.07,0,0,1-.07,0h0Z" fill="#d30028"/><path d="M18.24,8.31l-0.09.08V8.46l0.17,0a0.09,0.09,0,0,0,.07,0,0.12,0.12,0,0,0,0-.07Z" fill="#cb0028"/><path d="M18.32,8.49l-0.18,0V8.39l0.1-.09,0.18,0.05V8.44a0.1,0.1,0,0,1-.08.05h0Z" fill="#d30028"/><path d="M17.07,6.25L17.4,6.46a0.31,0.31,0,0,1,.24,0c0.09,0,.15.08,0.23,0.09a1.42,1.42,0,0,0,.45,0,1,1,0,0,0,.34-0.13v0H18.59a0.84,0.84,0,0,1-.36,0,2.64,2.64,0,0,1-.31-0.11v0a0.61,0.61,0,0,0,.33,0,0.45,0.45,0,0,0,.17-0.1v0H18.34a0.32,0.32,0,0,1-.25.05c-0.11,0-.21-0.07-0.28-0.08a1.47,1.47,0,0,1-.15,0,1.17,1.17,0,0,0-.36,0,0.42,0.42,0,0,0-.23.14h0Z" fill="#cb0028"/><path d="M18.24,6.61a1.53,1.53,0,0,1-.37-0.05l-0.12,0-0.11,0a0.27,0.27,0,0,0-.23,0l-0.34-.22a0.37,0.37,0,0,1,.23-0.16,1.11,1.11,0,0,1,.37,0l0.08,0,0.07,0,0.13,0,0.16,0a0.31,0.31,0,0,0,.24,0h0.06l0,0.06a0.32,0.32,0,0,1-.13.08,0.39,0.39,0,0,1-.2,0H18L18,6.3a0.39,0.39,0,0,0,.19,0,0.31,0.31,0,0,0,.13-0.07l0,0a0.57,0.57,0,0,1-.3,0,0.61,0.61,0,0,1-.16,0l-0.12,0a0.15,0.15,0,0,1-.08,0l-0.07,0a1.11,1.11,0,0,0-.36,0,0.37,0.37,0,0,0-.2.11l0.3,0.23a0.26,0.26,0,0,1,.24,0l0.12,0,0.11,0a1.34,1.34,0,0,0,.44,0,0.8,0.8,0,0,0,.29-0.11v0a0.78,0.78,0,0,1-.36,0,0.41,0.41,0,0,1-.14,0l-0.17-.06,0,0L18.09,6.4a0.41,0.41,0,0,0,.14,0,0.78,0.78,0,0,0,.36,0h0.07l0,0.08a0.84,0.84,0,0,1-.3.11H18.24Z" fill="#ba0019"/><path d="M17.13,6.2l0.09,0,0,0a0.07,0.07,0,0,0,0,0l-0.07-.05Z" fill="#82373b"/><path d="M17.13,6.2l0.09,0,0,0a0.07,0.07,0,0,0,0,0l-0.07-.05Z" fill="none"/><path d="M17.41,6.43a0.19,0.19,0,0,0,0-.08,0.21,0.21,0,0,0,0-.07,0.11,0.11,0,0,1,.06,0,0.14,0.14,0,0,1,0,.09h0Z" fill="#82373b"/><path d="M17.41,6.43a0.19,0.19,0,0,0,0-.08,0.21,0.21,0,0,0,0-.07,0.11,0.11,0,0,1,.06,0,0.14,0.14,0,0,1,0,.09h0Z" fill="none"/><path d="M17.47,6.09a0.47,0.47,0,0,1,0,.07,0.57,0.57,0,0,1,0,.09s0-.06,0-0.09,0-.05,0-0.08h0Z" fill="#82373b"/><path d="M17.47,6.09a0.47,0.47,0,0,1,0,.07,0.57,0.57,0,0,1,0,.09s0-.06,0-0.09,0-.05,0-0.08h0Z" fill="none"/><polygon points="17.73 6.1 17.75 6.26 17.76 6.11 17.73 6.1" fill="#82373b"/><polygon points="17.73 6.1 17.75 6.26 17.76 6.11 17.73 6.1" fill="none"/><path d="M17.67,6.43a0.19,0.19,0,0,0,0-.08,0.4,0.4,0,0,0,0-.08,0.2,0.2,0,0,1,0,.08,0.09,0.09,0,0,1,0,.07h0Z" fill="#82373b"/><path d="M17.67,6.43a0.19,0.19,0,0,0,0-.08,0.4,0.4,0,0,0,0-.08,0.2,0.2,0,0,1,0,.08A0.09,0.09,0,0,1,17.67,6.43Z" fill="none"/><path d="M17.95,6.36a0.21,0.21,0,0,1,0,.09,0.1,0.1,0,0,1,0,.06A0.17,0.17,0,0,0,18,6.46a0.17,0.17,0,0,0,0-.1h0Z" fill="#82373b"/><path d="M17.95,6.36a0.21,0.21,0,0,1,0,.09,0.1,0.1,0,0,1,0,.06A0.17,0.17,0,0,0,18,6.46,0.17,0.17,0,0,0,17.95,6.36Z" fill="none"/><path d="M18,6.31a0.23,0.23,0,0,1,0-.11s0,0,0,0a0.47,0.47,0,0,1,0,.1h0Z" fill="#82373b"/><path d="M18,6.31a0.23,0.23,0,0,1,0-.11s0,0,0,0A0.47,0.47,0,0,1,18,6.31Z" fill="none"/><polygon points="18.18 6.28 18.19 6.21 18.21 6.21 18.21 6.27 18.18 6.28 18.18 6.28" fill="#82373b"/><polygon points="18.18 6.28 18.19 6.21 18.21 6.21 18.21 6.27 18.18 6.28" fill="none"/><path d="M18.17,6.45a0.21,0.21,0,0,1,0,.07,0.1,0.1,0,0,1,0,.06h0a0.1,0.1,0,0,0,0-.07,0.08,0.08,0,0,0,0-.06h0Z" fill="#82373b"/><path d="M18.22,6.6h0V6.52l0-.06h0l0,0.05a0.1,0.1,0,0,1,0,.06h0a0.09,0.09,0,0,0,0-.06l0-.05a0.05,0.05,0,0,1,0,0,0.11,0.11,0,0,1,0,.07h0Z" fill="#83353b"/><polygon points="18.39 6.47 18.4 6.56 18.43 6.55 18.42 6.47 18.39 6.47" fill="#82373b"/><polygon points="18.39 6.47 18.4 6.56 18.43 6.55 18.42 6.47 18.39 6.47" fill="none"/><path d="M17,6.26a0.29,0.29,0,0,0-.14.1L16.7,6.25a0.1,0.1,0,0,0,0,.11,0.43,0.43,0,0,0,.13.14,0.8,0.8,0,0,1,0,.15c0,0.06-.07.13-0.07,0.15a0.08,0.08,0,0,0,0,.1,1.19,1.19,0,0,0,.21,0,0.18,0.18,0,0,0,0,.08s0,0,0,0a0.09,0.09,0,0,0,0,.06,0.11,0.11,0,0,0,.08,0l-0.06.06-0.11.11s0,0.1,0,.09a0.12,0.12,0,0,0,0,.08s0,0,.07,0a0.31,0.31,0,0,0,0,.19,0.43,0.43,0,0,0,0,.15,0.24,0.24,0,0,0-.09.12,0.53,0.53,0,0,0-.11.2l0.19,0s0,0,0-.07a0.25,0.25,0,0,0,0-.09A1.73,1.73,0,0,0,17,7.76a0.23,0.23,0,0,1,.1,0,0.19,0.19,0,0,1,.08,0,0.69,0.69,0,0,0-.06.18v0.2a0.53,0.53,0,0,0-.09.2l0.17,0a0.43,0.43,0,0,1,.09-0.08V8.1a1.61,1.61,0,0,0,.16-0.28H17.6a0.14,0.14,0,0,0,.06,0,0,0,0,0,0,.05,0,0.23,0.23,0,0,0,.08,0,0.07,0.07,0,0,0,0,0H18L17.82,8a0.22,0.22,0,0,1,0,.06l0,0.06,0.16,0,0-.07a0.18,0.18,0,0,0,.08,0,0.39,0.39,0,0,0,0-.09,1.38,1.38,0,0,0,.2-0.2,0.17,0.17,0,0,1,.12.09,0.62,0.62,0,0,1,0,.22l-0.1.16v0l0.16,0.06,0.1-.08V8.15a0.7,0.7,0,0,1,.2-0.2V7.82a0.05,0.05,0,0,1,0,0,0.47,0.47,0,0,1,0-.12,0.11,0.11,0,0,0,0,0,0.27,0.27,0,0,1,0-.17,0.57,0.57,0,0,1,.11-0.2V7.19a0.06,0.06,0,0,1,0-.1l0,0V6.87a0.08,0.08,0,0,0,0-.05,0.09,0.09,0,0,0-.06,0l-0.09.07a0.27,0.27,0,0,1-.16,0H18.37a0.2,0.2,0,0,1-.16,0H18.15L18.07,7H18a0.38,0.38,0,0,0-.19,0,0.37,0.37,0,0,0-.19,0l-0.07,0a0.63,0.63,0,0,1-.2-0.24,0.38,0.38,0,0,0,.29-0.22H17.39Z" fill="#fbfc2b"/><path d="M17.26,8.39l-0.18,0a0.26,0.26,0,0,1,.06-0.17l0-.23a0.32,0.32,0,0,1,0-.13l-0.05-.08-0.1,0a1.41,1.41,0,0,1-.13.23,0.2,0.2,0,0,1,0,.09l-0.05.08-0.19,0a0.28,0.28,0,0,1,.07-0.17l0.05-.09a0.17,0.17,0,0,1,.07-0.08l0,0.09a0.43,0.43,0,0,1-.06.09,0.29,0.29,0,0,0-.07.15l0.18,0,0-.06a0.22,0.22,0,0,0,0-.09A2.15,2.15,0,0,0,17,7.76a0.16,0.16,0,0,1,.18,0,0.08,0.08,0,0,1,0,.08,0.29,0.29,0,0,0,0,.12v0.2a0.45,0.45,0,0,0-.09.2l0.16,0a0.21,0.21,0,0,1,.06-0.05l0-.22A0.35,0.35,0,0,1,17.42,8a0.26,0.26,0,0,0,.08-0.15h0.06l0,0H17.52a0.27,0.27,0,0,1-.08.15,0.34,0.34,0,0,0-.07.12V8.3a0.32,0.32,0,0,0-.09.08h0Zm1.16,0-0.17-.06,0.11-.2a0.59,0.59,0,0,0,0-.22,0.16,0.16,0,0,0-.11-0.08,1.05,1.05,0,0,1-.19.19l0,0.09L18,8.11l0,0.07-0.17,0,0-.06v0l0.14,0V8.11l0.08,0,0-.09a1.38,1.38,0,0,0,.2-0.19,0.17,0.17,0,0,1,.14.09,0.6,0.6,0,0,1,0,.23l-0.11.17,0.15,0.07,0.09-.08V8.15A0.6,0.6,0,0,1,18.68,8a0.54,0.54,0,0,0,0-.14,0.22,0.22,0,0,1,0-.15c0-.06,0-0.14,0-0.21a0.26,0.26,0,0,1,.07-0.14l0-.05V7.19a0.09,0.09,0,0,1,0-.11l0-.21H18.76l-0.09.07a0.27,0.27,0,0,1-.17,0H18.37a0.2,0.2,0,0,1-.16,0H18.15L18.07,7H18a0.38,0.38,0,0,0-.16,0H17.77a0.38,0.38,0,0,0-.16,0l-0.07,0a0.64,0.64,0,0,1-.21-0.25,0.42,0.42,0,0,0,.29-0.23l-0.23,0L17,6.27a0.26,0.26,0,0,0-.11.08h0A0.22,0.22,0,0,1,17,6.25L17.4,6.48h0.24a0.35,0.35,0,0,1-.29.24,0.8,0.8,0,0,0,.2.22l0.06,0a0.35,0.35,0,0,1,.17,0l0.21,0h0.08l0.06,0h0.09a0.19,0.19,0,0,0,.15,0h0.12a0.26,0.26,0,0,0,.16,0l0.09-.07a0.1,0.1,0,0,1,.06,0,0.09,0.09,0,0,1,.05.06V7.05l-0.05.09,0,0.12,0,0.06a0.25,0.25,0,0,0-.07.13,0.28,0.28,0,0,0,0,.17,0.3,0.3,0,0,0,0,.16s0,0,0,.15a1,1,0,0,0-.2.22V8.26l-0.11.09h0Zm-0.61-.27h0V8l0.14-.23a0.13,0.13,0,0,1-.09,0l-0.07,0c-0.06,0-.11.08-0.14,0h0.06l0.07,0,0.05,0H18l-0.15.3h0Zm-0.95-.32a0.3,0.3,0,0,1,0-.14,0.28,0.28,0,0,1,0-.19s-0.06,0-.07,0a0.09,0.09,0,0,1,0-.06s0,0,0,.06h0l0,0a0.24,0.24,0,0,0,0,.15,0.84,0.84,0,0,0,0,.14l0,0h0Zm0-.46a0,0,0,0,1,0-.07l0.08-.09L17,7.06a0.07,0.07,0,0,1-.08,0l0-.06h0l0.06,0,0,0.07-0.13.12a0.09,0.09,0,0,0,0,.06h0ZM16.94,7L16.88,7a0.14,0.14,0,0,1,0-.07H16.74a0.09,0.09,0,0,1-.08-0.11,0.28,0.28,0,0,1,0-.07l0-.08a0.8,0.8,0,0,0,0-.15,0.34,0.34,0,0,1-.13-0.13,0.11,0.11,0,0,1,0-.12l0.14,0.07-0.14,0a0.1,0.1,0,0,0,0,.1,0.4,0.4,0,0,0,.13.13,0.51,0.51,0,0,1,0,.16l0,0.08,0,0.06a0.07,0.07,0,0,0,0,.09h0.2l0,0.12h0Z" fill="#e8d629"/><path d="M17,6.56l0.07,0,0,0,0,0,0.06,0a0.39,0.39,0,0,0-.09,0,0.51,0.51,0,0,0-.11,0h0Z" fill="#624e0f"/><path d="M17.07,6.62L17,6.57h0a0.18,0.18,0,0,1,.1,0l0.06,0H17.07L17,6.57l0.08,0h0v0l0.06,0h0l-0.1.05h0Z" fill="#624e0f"/><path d="M17.09,7.37h0a0.62,0.62,0,0,0,0-.2,0.65,0.65,0,0,1,.06.2h0Z" fill="#c2a21f"/><path d="M17.09,7.37h0a0.62,0.62,0,0,0,0-.2A0.65,0.65,0,0,1,17.09,7.37Z" fill="none"/><path d="M17.49,7.38h0a0.1,0.1,0,0,0,0-.06s0-.1,0-0.12,0,0,0,0,0,0.16,0,.17h0Z" fill="#c2a21f"/><path d="M17.49,7.38h0a0.1,0.1,0,0,0,0-.06s0-.1,0-0.12,0,0,0,0S17.48,7.36,17.49,7.38Z" fill="none"/><path d="M17.71,7.35s0,0,0,0a1.82,1.82,0,0,1,0-.19,0.19,0.19,0,0,1,0,.08,1.23,1.23,0,0,1,0,.12h0Z" fill="#c2a21f"/><path d="M17.71,7.35s0,0,0,0a1.82,1.82,0,0,1,0-.19,0.19,0.19,0,0,1,0,.08A1.23,1.23,0,0,1,17.71,7.35Z" fill="none"/><path d="M17.68,7.68h0l0.08-.11a0.52,0.52,0,0,0,0-.14l-0.07.13-0.07.14h0Z" fill="#c2a21f"/><path d="M17.69,7.7h0a0.25,0.25,0,0,1,.07-0.15l0-.09h0l0,0.1-0.07.13h0l0.07-.09a0.62,0.62,0,0,0,.06-0.15,0.17,0.17,0,0,1,0,.11l-0.12.13h0Z" fill="#c2a21f"/><path d="M17.9,7.61a0.69,0.69,0,0,1,0-.13l0-.17a0.45,0.45,0,0,1-.05.29h0Z" fill="#c2a21f"/><path d="M17.9,7.63h0a0.15,0.15,0,0,1,0-.09l0-.21a0.36,0.36,0,0,1,0,.3h0Z" fill="#c2a21f"/><path d="M18,7.26a0.62,0.62,0,0,1-.09-0.15,0.79,0.79,0,0,1,.09.12,0,0,0,0,1,0,0h0Z" fill="#c2a21f"/><path d="M18,7.26a0.62,0.62,0,0,1-.09-0.15,0.79,0.79,0,0,1,.09.12A0,0,0,0,1,18,7.26Z" fill="none"/><path d="M18.26,7.38s0-.06,0-0.11a0.68,0.68,0,0,1,0-.12h0s0,0.14,0,.22h0Z" fill="#c2a21f"/><path d="M18.26,7.38s0-.06,0-0.11a0.68,0.68,0,0,1,0-.12h0s0,0.14,0,.22h0Z" fill="none"/><path d="M18.41,7.24s0,0.05,0,.13,0,0.21,0,.2a0.07,0.07,0,0,1,0,0h0.1a0.74,0.74,0,0,1-.13-0.13,0.78,0.78,0,0,1-.08-0.16h0Z" fill="#c2a21f"/><path d="M18.49,7.57h0V7.51a1.26,1.26,0,0,0,0-.14l0-.1h0v0l0,0.05L18.5,7.39a0.58,0.58,0,0,0,.1.11l-0.12.07h0Z" fill="#c2a21f"/><path d="M19.21,7a13.26,13.26,0,0,1,1.34.35C21,7.5,21.4,7.66,21.82,7.84l-0.7,1.43c-0.4-.15-0.78-0.27-1.17-0.4l-1.16-.36Z" fill="#fff"/><path d="M21.12,9.29h0c-0.34-.13-0.67-0.24-1-0.34l-0.17-.06-0.79-.25-0.37-.11L19.2,7a10.91,10.91,0,0,1,1.36.35c0.47,0.15.91,0.33,1.27,0.49l-0.7,1.45h0ZM19.2,7L18.79,8.52l0.36,0.1,0.8,0.25,0.17,0.06c0.33,0.11.66,0.21,1,.34l0.7-1.42C21.45,7.7,21,7.52,20.54,7.37A13.13,13.13,0,0,0,19.2,7h0Z" fill="#fff"/><path d="M19.11,7.34s0.66,0.15,1.29.35,1.26,0.47,1.26.47L21.26,9c-0.38-.15-0.79-0.3-1.19-0.42s-0.8-.25-1.21-0.35Z" fill="#cb0028"/><path d="M21.27,9h0c-0.37-.15-0.77-0.29-1.19-0.42s-0.78-.25-1.2-0.35l0.23-.88a11.28,11.28,0,0,1,1.31.34c0.41,0.13,1.13.41,1.25,0.47C21.6,8.14,21,7.9,20.4,7.7s-1.29-.35-1.29-0.35l-0.23.86a11.05,11.05,0,0,1,1.2.33c0.41,0.13.81,0.27,1.18,0.42,0.35-.72.39-0.8,0.4-0.81h0L21.27,9h0Z" fill="#d30028"/><path d="M19.17,7.74a0.29,0.29,0,0,0,.14-0.11h0.23V7.72L19.69,7.8l0.2,0.08,0.5,0a0.74,0.74,0,0,1,.22.07,0.34,0.34,0,0,1,.13.13,1.65,1.65,0,0,0,.31.07l0.34,0c0.05,0,.05,0,0,0.07a0.26,0.26,0,0,1-.21.08c-0.15,0-.33-0.09-0.41-0.07a0.31,0.31,0,0,0,.18.18V8.71l0,0,0,0a0.19,0.19,0,0,0,0-.17,0.11,0.11,0,0,0-.1-0.07,0.55,0.55,0,0,1-.23-0.1h0a0.18,0.18,0,0,1-.09.09h-0.1L20.12,8.4a0.08,0.08,0,0,1,0,0h0.23V8.29H20.5a0.2,0.2,0,0,0-.18-0.2H19.88V8.16a1.16,1.16,0,0,0-.41,0l-0.18,0h0s0,0,0,0A0.63,0.63,0,0,0,19.5,8.1a0.09,0.09,0,0,0,0-.06H19.23L19.11,8V8l0.08,0a0.63,0.63,0,0,0,.25,0V7.9a0.09,0.09,0,0,0,0-.06l-0.18,0a0.06,0.06,0,0,1-.06-0.09h0Z"/><path d="M20.93,8.76l-0.05,0a0.23,0.23,0,0,0,0-.17,0.1,0.1,0,0,0-.09-0.06,0.51,0.51,0,0,1-.21-0.09L20.8,8.47a0.1,0.1,0,0,1,.1.06,0.2,0.2,0,0,1,0,.2l0,0h0l0,0V8.48a0.29,0.29,0,0,1-.18-0.18,0.34,0.34,0,0,1,.17,0,0.9,0.9,0,0,0,.24,0,0.27,0.27,0,0,0,.21-0.07,1.31,1.31,0,0,0-.36-0.08,1.66,1.66,0,0,1-.31-0.07A0.37,0.37,0,0,0,20.61,8a0.76,0.76,0,0,0-.22-0.07l-0.5,0-0.1,0-0.1,0-0.07,0-0.07,0V7.63H19.31a0.18,0.18,0,0,1-.1.08c0,0.06,0,.08,0,0.09l0.18,0a0.09,0.09,0,0,1,0,.07V8a0.44,0.44,0,0,1-.27,0l0,0h0a0.43,0.43,0,0,0,.29,0V7.9a0.27,0.27,0,0,0-.2-0.07,0.07,0.07,0,0,1-.07-0.08h0l0,0a0.21,0.21,0,0,0,.1-0.08h0.24v0.1l0.07,0,0.07,0,0.1,0,0.1,0,0.5,0a0.76,0.76,0,0,1,.23.08,0.34,0.34,0,0,1,.13.13l0.3,0.07,0.34,0h0l0,0a0.23,0.23,0,0,1-.24.13,1,1,0,0,1-.25,0l-0.14,0a0.29,0.29,0,0,0,.16.16V8.71l-0.05,0h0Zm-0.49-.28h-0.1a0.42,0.42,0,0,1-.24-0.06s0-.05.1-0.05l0.15,0V8.29h0.1l-0.09,0V8.38a0.33,0.33,0,0,1-.16,0H20.12a1,1,0,0,0,.22.07h0.1a0.17,0.17,0,0,0,.08-0.08h0a0.38,0.38,0,0,1-.11.09h0Zm0.05-.21a0.21,0.21,0,0,0-.18-0.17H19.88l0,0H19.71a0.81,0.81,0,0,0-.23,0l-0.1,0-0.09,0-0.08,0h0l0,0h0l0.08,0,0.1,0a0.93,0.93,0,0,1,.24,0h0.18l0,0,0.45,0a0.2,0.2,0,0,1,.19.19h0Zm-1.18-.11,0.18-.07-0.12,0H19.22A0.33,0.33,0,0,1,19.09,8l0,0a0.31,0.31,0,0,0,.11.05h0.25a0.09,0.09,0,0,1,0,.07,0.41,0.41,0,0,1-.2.06h0Z"/><path d="M20.13,8.26l0.22,0H20.5a0.2,0.2,0,0,0-.18-0.2H19.88V8.16l0.25,0.1h0Z" fill="#fff"/><path d="M20.35,8.31h0a0.86,0.86,0,0,1-.22,0l-0.25-.1V8.1l0.45,0a0.2,0.2,0,0,1,.19.19h0a0.21,0.21,0,0,0-.18-0.17H19.88l0,0L20.1,8.24a0.8,0.8,0,0,0,.25,0h0.11l-0.11,0h0Z"/><path d="M11.36,9l-0.8-3,1.22-1.47,1.71,1,0.29,3.15A21.09,21.09,0,0,0,11.36,9h0Z" fill="#1e2788"/><path d="M11.36,9h0l-0.8-3,1.22-1.48,1.72,1,0.3,3.16A23.85,23.85,0,0,0,11.36,9h0Zm0.42-4.45L10.57,6l0.8,3a21.5,21.5,0,0,1,2.41-.32l-0.3-3.14-1.7-1h0Z" fill="#160080"/><path d="M8.51,6.54L8.8,6.76l-0.06.4L9.12,7l0.3,0.23,0-.37,0.31-.12L9.51,6.5l0.06-.36L9.2,6.27,8.93,6l-0.06.34Z" fill="#fbfc2b"/><path d="M9.43,7.26L9.11,7l-0.36.16,0-.41L8.5,6.55l0.36-.17A2.85,2.85,0,0,1,8.92,6a3.63,3.63,0,0,1,.29.22l0.36-.13,0,0.38L9.78,6.74l-0.31.14,0,0.38h0ZM9.12,7L9.41,7.21l0-.34,0.32-.13L9.5,6.51l0.05-.38L9.2,6.28,8.92,6.06a2.55,2.55,0,0,1,0,.34l-0.37.16,0.3,0.2-0.05.41L9.12,7h0Z" fill="#f4c627"/><path d="M8.51,6.54l1.25,0.2-0.31.13-0.3-.21L9.42,7.22,9.12,7l0-.35-0.4.5,0.06-.4Z" fill="#f4c427"/><polygon points="8.86 6.4 9.15 6.64 8.93 6.05 8.86 6.4" fill="#f4c627"/><path d="M9.19,6.28l0,0.36,0.41-.5-0.37.14h0Z" fill="#f4c627"/><path d="M20.44,6l0.07,0.36-0.3.27L20.6,6.78l0.08,0.36,0.27-.25L21.26,7l0-.35,0.28-.24-0.37-.13s-0.05-.34-0.06-0.34l-0.27.23Z" fill="#fbfc2b"/><path d="M20.67,7.16l-0.08-.38L20.2,6.67l0.3-.29L20.43,6l0.39,0.1,0.27-.23a1.77,1.77,0,0,1,.07.36l0.37,0.12-0.28.26,0,0.34L20.94,6.9l-0.27.26h0ZM20.43,6l0.09,0.35-0.31.28,0.39,0.1,0.08,0.35,0.26-.24L21.27,7l0-.34,0.29-.25-0.37-.12s-0.05-.32-0.06-0.34-0.26.23-.26,0.23L20.43,6h0Z" fill="#f4c627"/><path d="M20.44,6L21.26,7l-0.32-.1-0.09-.35-0.17.6L20.6,6.78l0.25-.25-0.63.13,0.3-.27Z" fill="#f4c627"/><polygon points="20.8 6.15 20.86 6.52 21.09 5.92 20.8 6.15" fill="#f4c627"/><path d="M21.14,6.26l-0.27.25,0.64-.12-0.37-.13h0Z" fill="#f4c627"/><path d="M10.57,6.05A4.89,4.89,0,0,1,12,5.62a10.34,10.34,0,0,1,1.49-.08l0.07,0.78a9.36,9.36,0,0,0-1.4.09,5.37,5.37,0,0,0-1.41.34Z" fill="#cb0028"/><path d="M10.75,6.76l-0.19-.71A4.64,4.64,0,0,1,12,5.6a9.66,9.66,0,0,1,1.39-.07h0.1s0.08,0.79.08,0.79H13.45a8.85,8.85,0,0,0-1.29.09,5.36,5.36,0,0,0-1.41.34h0Zm2.74-1.22H13.4A9.62,9.62,0,0,0,12,5.63a4.8,4.8,0,0,0-1.43.44l0.19,0.67a5.45,5.45,0,0,1,1.4-.34,8.87,8.87,0,0,1,1.29-.09h0.11s-0.08-.77-0.08-0.77h0Z" fill="#d30028"/><path d="M10.94,7.43s0.22,0.82.22,0.82A11.87,11.87,0,0,1,12.42,8c0.42-.06.87-0.09,1.28-0.12l-0.07-.8a7.55,7.55,0,0,0-1.37,0,7,7,0,0,0-1.32.31h0Z" fill="#cb0028"/><path d="M11.15,8.26h0a6.55,6.55,0,0,1-.22-0.83,6.87,6.87,0,0,1,1.33-.32,7.73,7.73,0,0,1,1.37,0l0.08,0.81c-0.4,0-.86.07-1.29,0.13a11.93,11.93,0,0,0-1.26.24h0ZM13.1,7.08a6.46,6.46,0,0,0-.83,0,6.83,6.83,0,0,0-1.32.31s0.14,0.48.22,0.8A12.25,12.25,0,0,1,12.42,8c0.43-.06.89-0.1,1.28-0.12l-0.08-.79H13.1Z" fill="#d30028"/><path d="M9,10H21v7.76A6.12,6.12,0,0,1,15.18,23c-2.86.12-6-2.22-6.26-5.29Z" fill="#fff"/><path d="M15,23c-2.69,0-5.85-2.19-6.08-5.33l0-7.73L21,9.92l0,7.8A6.2,6.2,0,0,1,15.21,23H15ZM21,10L9,10l0,7.69c0.24,3.18,3.5,5.36,6.21,5.24A6.12,6.12,0,0,0,21,17.71V10h0Z" fill="#cb0028"/><path d="M9.2,10.23H20.8v7.43a5.87,5.87,0,0,1-5.62,5c-2.74.12-5.78-2.13-6-5.07Z" fill="#cb0028"/><path d="M15,22.75c-2.58,0-5.61-2.1-5.83-5.11l0-7.41,11.63,0,0,7.48a5.94,5.94,0,0,1-5.63,5.08H15Zm5.79-12.52-11.55,0,0,7.37c0.23,3,3.37,5.13,6,5a5.86,5.86,0,0,0,5.58-5V10.23h0Z" fill="#cb0028"/><rect x="11.54" y="10.27" width="2.31" height="2.48" fill="#fff"/><path d="M18.47,17.72v2.45h1.3a5.7,5.7,0,0,0,1-2.46H18.47Z" fill="#fff"/><path d="M19.77,20.18H18.47V17.72h2.27a5.41,5.41,0,0,1-1,2.47h0Zm-1.31-2.46v2.44h1.28a5.61,5.61,0,0,0,1-2.45H18.47Z" fill="#fff"/><path d="M16.16,20.19v2.35a6.07,6.07,0,0,0,2.28-1V20.19H16.16Z" fill="#fff"/><path d="M16.15,22.56V20.19h2.29v1.33a6,6,0,0,1-2.29,1h0Zm2.28-2.37H16.16v2.33a6,6,0,0,0,2.27-1V20.19h0Z" fill="#fff"/><path d="M11.55,20.19v1.31a6.57,6.57,0,0,0,2.28,1V20.19H11.55Z" fill="#fff"/><path d="M13.85,22.54h0a6.6,6.6,0,0,1-2.28-1V20.19h2.29l0,2.35h0Zm0-2.34H11.55l0,1.3a6.63,6.63,0,0,0,2.26,1V20.19h0Z" fill="#fff"/><path d="M9.24,17.72a4.93,4.93,0,0,0,.94,2.42l1.34,0V17.72H9.24Z" fill="#fff"/><path d="M11.54,20.18h0l-1.34,0a5,5,0,0,1-.95-2.43h2.29v2.47h0Zm0-2.46H9.24a5.07,5.07,0,0,0,.95,2.4l1.32,0V17.72h0Z" fill="#fff"/><rect x="9.23" y="12.75" width="2.31" height="2.48" fill="#fff"/><rect x="13.84" y="12.75" width="2.31" height="2.48" fill="#fff"/><rect x="16.15" y="10.26" width="2.31" height="2.48" fill="#fff"/><rect x="18.45" y="12.75" width="2.31" height="2.48" fill="#fff"/><rect x="11.54" y="15.23" width="2.31" height="2.48" fill="#fff"/><rect x="16.15" y="15.23" width="2.31" height="2.48" fill="#fff"/><rect x="13.84" y="17.7" width="2.31" height="2.48" fill="#fff"/><path d="M17.28,7.34a0.59,0.59,0,0,1,0-.13l0-.16a0.46,0.46,0,0,1,.08.29h0Z" fill="#c2a21f"/><path d="M17.28,7.35s0,0,0-.1l-0.05-.2a0.36,0.36,0,0,1,.1.29h0Z" fill="#c2a21f"/></g></g></svg>