<svg id="Layer_1" data-name="Layer 1" xmlns="http://www.w3.org/2000/svg" viewBox="0 0 30 30"><title>iconset</title><rect width="30" height="29.99" fill="#fff" stroke="#000" stroke-width="0.04"/><polygon points="30.92 12 18 12 18 0 12 0 12 12 -0.42 12 -0.42 18 12 18 12 30 18 30 18 18 30.92 18 30.92 12" fill="#ec1c2e" stroke="#000" stroke-width="0.05"/><polygon points="15 22.86 17.28 18.95 21.79 18.95 19.55 15 21.79 11.05 17.28 11.05 15 7.14 12.72 11.05 8.21 11.05 10.45 15 8.21 18.95 12.72 18.95 15 22.86" fill="#fff" stroke="#000" stroke-width="0.03"/><path d="M16.2,16.87a2,2,0,0,0,.61-0.79,3.44,3.44,0,0,1,.77-1.16c0.31-.31.74-0.65,0.43-0.93s-1,.4-1.14.58a1.89,1.89,0,0,1-.51.25,26.79,26.79,0,0,0-.13-3.07c0-.59-0.16-1-0.43-1a0.38,0.38,0,0,0-.36.39c0-.32,0-0.85-0.39-0.85s-0.48.83-.43,1.3c0-.29,0-0.87-0.41-0.87s-0.45.67-.4,1.26c0,0.06,0,.21,0,0.4,0-.32-0.06-0.83-0.38-0.83s-0.32.43-.31,0.81a12.38,12.38,0,0,1,0,1.53,13.6,13.6,0,0,0,0,2.18c0,0.5.47,0.68,0.45,1s0,0.94,0,1.21,0.23,0.28.7,0.18c0.77-.17,1.2.17,1.83-0.08A8.53,8.53,0,0,1,16.2,16.87Z" fill="#ec1c2e" stroke="#000" stroke-width="0.03"/><path d="M15.8,15.56a1.15,1.15,0,0,1,.56-0.73" fill="none" stroke="#000" stroke-width="0.03"/><path d="M16.05,17.12a0.45,0.45,0,0,1,.15-0.25" fill="none" stroke="#000" stroke-width="0.03"/><path d="M13.83,12.4c0,0.4,0,1,0,1.15" fill="none" stroke="#000" stroke-width="0.03"/><path d="M15.44,11.16a2.68,2.68,0,0,0,0,.7,3.63,3.63,0,0,1,0,.73,3,3,0,0,1,0,.76" fill="none" stroke="#000" stroke-width="0.03"/><path d="M14.62,11.62c0.05,0.47,0,1.34,0,1.79" fill="none" stroke="#000" stroke-width="0.03"/><path d="M15,5a1.7,1.7,0,0,1,2.05-.15c0.37,0.36,1.47-.12,1.92.76L18.27,7.33H11.73L11,5.65c0.44-.88,1.54-0.41,1.92-0.76A1.7,1.7,0,0,1,15,5Z" fill="#ec1c2e" stroke="#000" stroke-width="0.03"/><path d="M15,4.4c0.21,0,.39.1,0.39-0.37S15.21,3.66,15,3.66s-0.39-.1-0.39.37S14.79,4.4,15,4.4Z" fill="#fff100" stroke="#000" stroke-width="0.03"/><path d="M15.24,2.36a1.19,1.19,0,0,1,.51.19V1.68a1.19,1.19,0,0,1-.51.19,1.19,1.19,0,0,1,.19-0.51H14.57a1.19,1.19,0,0,1,.19.51,1.19,1.19,0,0,1-.51-0.19V2.55a1.19,1.19,0,0,1,.51-0.19,2.8,2.8,0,0,1-.19.8h0.86A2.81,2.81,0,0,1,15.24,2.36Z" fill="#fff100" stroke="#000" stroke-width="0.03"/><path d="M15,4.85a0.41,0.41,0,0,1,.26.64c0.62-.26.5,0.77,0,0.44a0.76,0.76,0,0,0,.71.66,0.63,0.63,0,0,0,.79-0.46c-0.53.12-.41-0.79,0.15-0.48a0.3,0.3,0,1,1,.46.08c0.64-.1.44,0.79,0,0.5a0.46,0.46,0,0,0,.36.58,0.49,0.49,0,0,0,.69-0.34A0.28,0.28,0,0,1,18.19,6a0.26,0.26,0,0,1,.43,0,1.77,1.77,0,0,1,0-.74c0.13,0.09.38,0.31,0.5,0.41s0,0.23-.22.54a0.25,0.25,0,0,1-.24.39,0.83,0.83,0,0,1-.29.58,2.16,2.16,0,0,1-.2,1c0.36,0.18.06,0.79-.2,0.68a11,11,0,0,0-3-.31,11,11,0,0,0-3,.31c-0.25.11-.56-0.5-0.2-0.68a2.16,2.16,0,0,1-.2-1,0.83,0.83,0,0,1-.29-0.58,0.25,0.25,0,0,1-.24-0.39c-0.25-.31-0.34-0.44-0.22-0.54s0.37-.31.5-0.41a1.77,1.77,0,0,1,0,.74,0.26,0.26,0,0,1,.43,0,0.28,0.28,0,0,1-.21.43,0.49,0.49,0,0,0,.69.34,0.46,0.46,0,0,0,.36-0.58c-0.46.29-.65-0.6,0-0.5a0.3,0.3,0,1,1,.46-0.08c0.56-.31.68,0.59,0.15,0.48a0.63,0.63,0,0,0,.79.46,0.76,0.76,0,0,0,.71-0.66c-0.5.33-.62-0.7,0-0.44A0.41,0.41,0,0,1,15,4.85Z" fill="#fff100" stroke="#000" stroke-width="0.03"/><path d="M15,4.26A0.38,0.38,0,1,0,15,5,0.38,0.38,0,1,0,15,4.26Z" fill="#fff100" stroke="#000" stroke-width="0.03"/><path d="M15,3.48a7.61,7.61,0,0,1,4.39,1.75c0.22,0.21-.09.65-0.29,0.47A6.71,6.71,0,0,0,15,4,6.71,6.71,0,0,0,10.9,5.7c-0.2.18-.51-0.26-0.29-0.47A7.61,7.61,0,0,1,15,3.48Z" fill="#fff100" stroke="#000" stroke-width="0.03"/><path d="M13,7.18c-0.56.1-.46,0.7,0.1,0.6S13.6,7.08,13,7.18Z" fill="#ec1c2e" stroke="#000" stroke-width="0.03"/><path d="M15,7.65c0.34,0,.62.08,0.62-0.29S15.34,7.07,15,7.07s-0.62-.08-0.62.29S14.66,7.65,15,7.65Z" fill="#ec1c2e" stroke="#000" stroke-width="0.03"/><path d="M12.06,7.63c-0.3.32-.46,0.56-0.54,0.13S11.69,7.51,12.06,7.63Z" fill="#ec1c2e" stroke="#000" stroke-width="0.03"/><path d="M17,7.18c0.56,0.1.46,0.7-.1,0.6S16.4,7.08,17,7.18Z" fill="#ec1c2e" stroke="#000" stroke-width="0.03"/><path d="M17.94,7.63c0.3,0.32.46,0.56,0.54,0.13S18.31,7.51,17.94,7.63Z" fill="#ec1c2e" stroke="#000" stroke-width="0.03"/><path d="M18.39,7.22a13.26,13.26,0,0,0-6.78,0" fill="none" stroke="#000" stroke-width="0.03"/><path d="M18.19,8.26A11.37,11.37,0,0,0,15,7.9a11.37,11.37,0,0,0-3.19.36" fill="none" stroke="#000" stroke-width="0.03"/><path d="M10.63,4.62a0.43,0.43,0,1,0,0,.86A0.43,0.43,0,1,0,10.63,4.62Z" fill="#fff" stroke="#000" stroke-width="0.03"/><path d="M11.39,4.07a0.43,0.43,0,1,0,0,.86A0.43,0.43,0,1,0,11.39,4.07Z" fill="#fff" stroke="#000" stroke-width="0.03"/><path d="M12.23,3.65a0.43,0.43,0,1,0,0,.86A0.43,0.43,0,1,0,12.23,3.65Z" fill="#fff" stroke="#000" stroke-width="0.03"/><path d="M13.09,3.3a0.43,0.43,0,1,0,0,.86A0.43,0.43,0,1,0,13.09,3.3Z" fill="#fff" stroke="#000" stroke-width="0.03"/><path d="M14,3a0.43,0.43,0,1,0,0,.86A0.43,0.43,0,1,0,14,3Z" fill="#fff" stroke="#000" stroke-width="0.03"/><path d="M15,2.81a0.53,0.53,0,1,0,0,1.06A0.53,0.53,0,1,0,15,2.81Z" fill="#fff" stroke="#000" stroke-width="0.03"/><path d="M19.37,4.62a0.43,0.43,0,1,1,0,.86A0.43,0.43,0,1,1,19.37,4.62Z" fill="#fff" stroke="#000" stroke-width="0.03"/><path d="M18.61,4.07a0.43,0.43,0,1,1,0,.86A0.43,0.43,0,1,1,18.61,4.07Z" fill="#fff" stroke="#000" stroke-width="0.03"/><path d="M17.77,3.65a0.43,0.43,0,1,1,0,.86A0.43,0.43,0,1,1,17.77,3.65Z" fill="#fff" stroke="#000" stroke-width="0.03"/><path d="M16.91,3.3a0.43,0.43,0,1,1,0,.86A0.43,0.43,0,1,1,16.91,3.3Z" fill="#fff" stroke="#000" stroke-width="0.03"/><path d="M16,3a0.43,0.43,0,1,1,0,.86A0.43,0.43,0,1,1,16,3Z" fill="#fff" stroke="#000" stroke-width="0.03"/></svg>