<svg xmlns="http://www.w3.org/2000/svg" xmlns:xlink="http://www.w3.org/1999/xlink" viewBox="0 0 30 30"><defs><style>.a{fill:none;}.b{clip-path:url(#a);}.c{fill:url(#b);}.d{clip-path:url(#c);}.e{fill:#fff;}.f{fill:#010101;}.g{clip-path:url(#n);}.h{fill:url(#o);}.i{clip-path:url(#p);}.j{fill:url(#q);}.k{clip-path:url(#r);}.l{fill:url(#s);}.m{clip-path:url(#t);}.n{fill:url(#u);}.o{clip-path:url(#v);}.p{fill:url(#w);}.q{clip-path:url(#x);}.r{fill:url(#y);}.s{clip-path:url(#z);}.t{fill:url(#aa);}.u{clip-path:url(#ab);}.v{fill:url(#ac);}.w{clip-path:url(#ad);}.x{fill:url(#ae);}.y{clip-path:url(#af);}.z{fill:url(#ag);}.aa{clip-path:url(#ah);}.ab{fill:url(#ai);}.ac{clip-path:url(#aj);}.ad{fill:url(#ak);}.ae{clip-path:url(#al);}.af{fill:url(#am);}.ag{clip-path:url(#an);}.ah{fill:url(#ao);}</style><clipPath id="a"><path class="a" d="M3.56,1.63V4.79h0V9.15c0,0.1,0,.2,0,0.31s0,0.22,0,.34v0h0c0,0.44,0,1,.08,1.53a25.47,25.47,0,0,0,1.64,7.14,23.63,23.63,0,0,0,9.16,11.25L15,30.1l0.57-.35q0.7-.46,1.34-0.94a23.49,23.49,0,0,0,7.53-9.58h0v0q0.15-.34.28-0.69c0.09-.24.18-0.48,0.27-0.72a25.36,25.36,0,0,0,1.45-8.3c0-.06,0-0.12,0-0.18h0V1.63a41,41,0,0,0-22.88,0"/></clipPath><linearGradient id="b" x1="-312.56" y1="1904.88" x2="-312.47" y2="1904.88" gradientTransform="matrix(105.06, -272.8, -272.8, -105.06, 552496.78, 114892.52)" gradientUnits="userSpaceOnUse"><stop offset="0" stop-color="#8a181a"/><stop offset="1" stop-color="#ec2227"/></linearGradient><clipPath id="c"><rect class="a" x="3.56" width="22.88" height="30"/></clipPath><clipPath id="n"><path class="a" d="M5.44,2.53a0,0,0,0,1,0,0s0,0,0,0L5.62,3.08l-0.31.07,0.13-.62m0-.34a0.4,0.4,0,0,0-.35.32L4.8,3.9h0a0,0,0,0,0,0,0l0.29-.07a0.06,0.06,0,0,0,0,0l0.08-.37,0.43-.1L5.76,3.69a0,0,0,0,0,0,0l0.3-.06a0,0,0,0,0,0,0h0L5.81,2.35a0.21,0.21,0,0,0-.22-0.18l-0.13,0"/></clipPath><linearGradient id="o" x1="-317.49" y1="1909.91" x2="-317.39" y2="1909.91" gradientTransform="matrix(119.89, 89.64, 89.64, -119.89, -133134.62, 257451)" gradientUnits="userSpaceOnUse"><stop offset="0" stop-color="#a7986e"/><stop offset="0.44" stop-color="#ffe4c7"/><stop offset="1" stop-color="#a7986e"/></linearGradient><clipPath id="p"><path class="a" d="M7.23,1.87a2.34,2.34,0,0,0-.41,0,0.53,0.53,0,0,0-.52.56v1.1a0,0,0,0,0,0,0l0.27-.05a0.05,0.05,0,0,0,0-.05V2.88l0.55-.1a0.05,0.05,0,0,0,0,0V2.52a0,0,0,0,0,0,0l-0.55.1V2.4A0.14,0.14,0,0,1,6.8,2.23l0.43-.08a0.05,0.05,0,0,0,0,0V1.9a0,0,0,0,0,0,0h0"/></clipPath><linearGradient id="q" x1="-317.49" y1="1909.83" x2="-317.39" y2="1909.83" gradientTransform="matrix(119.88, 89.63, 89.63, -119.88, -133108.6, 257405.03)" xlink:href="#o"/><clipPath id="r"><path class="a" d="M8.14,1.68a0.72,0.72,0,0,0-.63.78V2.73a0.5,0.5,0,0,0,.63.57,1.36,1.36,0,0,0,.32-0.09,0.06,0.06,0,0,0,0-.06V3a0,0,0,0,0,0,0h0L8.14,3C8,3,7.87,3,7.87,2.67V2.4A0.33,0.33,0,0,1,8.14,2L8.45,2h0a0,0,0,0,0,0,0V1.71s0,0,0,0H8.36l-0.22,0"/></clipPath><linearGradient id="s" x1="-317.49" y1="1909.77" x2="-317.39" y2="1909.77" gradientTransform="matrix(119.85, 89.6, 89.6, -119.85, -133066.25, 257328.43)" xlink:href="#o"/><clipPath id="t"><path class="a" d="M9.65,2.39l0.24,0c0.17,0,.23.06,0.23,0.16v0c0,0.12-.07.2-0.29,0.22l-0.17,0V2.39m0-.62,0.16,0c0.22,0,.3,0,0.3.14v0a0.2,0.2,0,0,1-.22.19l-0.24,0q0-.18,0-0.37m0.13-.32L9.4,1.52a0.13,0.13,0,0,0-.11.15V3a0.1,0.1,0,0,0,.12.12l0.39,0a0.61,0.61,0,0,0,.67-0.55v0a0.3,0.3,0,0,0-.19-0.29,0.38,0.38,0,0,0,.18-0.33v0A0.39,0.39,0,0,0,10,1.44H9.78"/></clipPath><linearGradient id="u" x1="-317.49" y1="1909.7" x2="-317.39" y2="1909.7" gradientTransform="matrix(119.89, 89.64, 89.64, -119.89, -133108.82, 257414.66)" xlink:href="#o"/><clipPath id="v"><path class="a" d="M11,2.26V2c0-.26.08-0.37,0.26-0.39S11.58,1.7,11.58,2V2.21c0,0.26-.09.37-0.27,0.39h0C11.12,2.6,11,2.5,11,2.26m0.26-1a0.66,0.66,0,0,0-.63.74V2.29a0.54,0.54,0,0,0,.63.62,0.65,0.65,0,0,0,.63-0.73V1.93a0.54,0.54,0,0,0-.56-0.64H11.31"/></clipPath><linearGradient id="w" x1="-317.49" y1="1909.63" x2="-317.39" y2="1909.63" gradientTransform="matrix(119.86, 89.61, 89.61, -119.86, -133065.84, 257333.88)" xlink:href="#o"/><clipPath id="x"><path class="a" d="M13.39,1.19H13.11a0,0,0,0,0,0,0V2.19c0,0.22-.06.31-0.25,0.32s-0.25-.08-0.25-0.3V1.27a0,0,0,0,0,0,0l-0.28,0a0,0,0,0,0,0,0V2.24a0.51,0.51,0,0,0,.62.58,0.57,0.57,0,0,0,.62-0.64V1.23a0,0,0,0,0,0,0h0"/></clipPath><linearGradient id="y" x1="-317.49" y1="1909.56" x2="-317.4" y2="1909.56" gradientTransform="matrix(119.81, 89.58, 89.58, -119.81, -133011.36, 257234.59)" xlink:href="#o"/><clipPath id="z"><path class="a" d="M14.09,1.87V1.47h0.17c0.18,0,.28.06,0.28,0.19v0c0,0.14-.07.2-0.3,0.21H14.09m0.17-.73a3.16,3.16,0,0,0-.44,0,0.09,0.09,0,0,0-.1.1V2.72a0,0,0,0,0,0,0H14a0,0,0,0,0,0,0V2.17h0.18L14.56,2.7a0.05,0.05,0,0,0,0,0h0.33a0,0,0,0,0,0,0v0l-0.32-.6a0.43,0.43,0,0,0,.28-0.43v0a0.51,0.51,0,0,0-.62-0.49h0"/></clipPath><linearGradient id="aa" x1="-317.49" y1="1909.52" x2="-317.39" y2="1909.52" gradientTransform="matrix(119.83, 89.59, 89.59, -119.83, -133018.85, 257252.08)" xlink:href="#o"/><clipPath id="ab"><path class="a" d="M15.27,1.16a0.08,0.08,0,0,0-.08.08V2.7a0,0,0,0,0,0,0h0.25a0,0,0,0,0,0,0V1.84s0,0,0,0l0,0L16,2.69a0.12,0.12,0,0,0,.11.07h0.21a0.08,0.08,0,0,0,.08-0.08V1.22a0,0,0,0,0,0,0H16.15a0,0,0,0,0,0,0v0.9s0,0,0,0l0,0-0.51-.89a0.1,0.1,0,0,0-.09-0.07H15.27"/></clipPath><linearGradient id="ac" x1="-317.49" y1="1909.45" x2="-317.39" y2="1909.45" gradientTransform="matrix(119.88, 89.63, 89.63, -119.88, -133074.91, 257364.07)" xlink:href="#o"/><clipPath id="ad"><path class="a" d="M16.74,1.63V2.34a0.45,0.45,0,0,0,.52.48,2.73,2.73,0,0,0,.42,0,0,0,0,0,0,0,0V2.57a0,0,0,0,0,0,0l-0.44,0a0.12,0.12,0,0,1-.14-0.15V2.13l0.55,0a0,0,0,0,0,0,0V1.92a0,0,0,0,0,0,0l-0.55,0V1.65c0-.11,0-0.14.14-0.14l0.44,0a0,0,0,0,0,0,0V1.29a0,0,0,0,0,0,0,2.35,2.35,0,0,0-.41-0.05H17.19a0.39,0.39,0,0,0-.45.43"/></clipPath><linearGradient id="ae" x1="-317.49" y1="1909.4" x2="-317.39" y2="1909.4" gradientTransform="matrix(119.85, 89.61, 89.61, -119.85, -133031.6, 257282.74)" xlink:href="#o"/><clipPath id="af"><path class="a" d="M18,1.33V2.81a0,0,0,0,0,0,0l0.28,0a0,0,0,0,0,0,0V1.94s0,0,0,0l0,0,0.19,0.37a0.08,0.08,0,0,0,.06,0H18.8a0.06,0.06,0,0,0,.06,0L19.05,2h0s0,0,0,0V2.89a0,0,0,0,0,0,0L19.4,3a0,0,0,0,0,0,0V1.46a0.08,0.08,0,0,0-.08-0.08l-0.2,0a0.09,0.09,0,0,0-.09,0L18.74,2a0,0,0,0,1,0,0,0,0,0,0,1,0,0l-0.33-.63a0.11,0.11,0,0,0-.09-0.06H18.06a0.06,0.06,0,0,0-.07.07"/></clipPath><linearGradient id="ag" x1="-317.49" y1="1909.35" x2="-317.39" y2="1909.35" gradientTransform="matrix(119.9, 89.64, 89.64, -119.9, -133081.45, 257382.66)" xlink:href="#o"/><clipPath id="ah"><path class="a" d="M20.33,2.77a0.32,0.32,0,0,1-.26-0.4V2.12c0-.26.08-0.35,0.26-0.33a0.32,0.32,0,0,1,.26.4V2.44c0,0.23-.07.33-0.22,0.33h0M19.7,2.08V2.33a0.68,0.68,0,0,0,.63.76A0.52,0.52,0,0,0,21,2.48V2.23a0.69,0.69,0,0,0-.63-0.77H20.22a0.52,0.52,0,0,0-.53.62"/></clipPath><linearGradient id="ai" x1="-317.49" y1="1909.29" x2="-317.39" y2="1909.29" gradientTransform="matrix(119.87, 89.62, 89.62, -119.87, -133045.21, 257315.55)" xlink:href="#o"/><clipPath id="aj"><path class="a" d="M21.21,1.64V2.59a0.64,0.64,0,0,0,.61.71,0.45,0.45,0,0,0,.61-0.51V1.84a0.05,0.05,0,0,0,0,0l-0.28,0a0,0,0,0,0,0,0V2.72c0,0.22-.06.3-0.25,0.27a0.28,0.28,0,0,1-.25-0.35V1.7a0.05,0.05,0,0,0,0,0l-0.28,0h0a0,0,0,0,0,0,0"/></clipPath><linearGradient id="ak" x1="-317.49" y1="1909.24" x2="-317.39" y2="1909.24" gradientTransform="matrix(119.86, 89.61, 89.61, -119.86, -133025.22, 257280.62)" xlink:href="#o"/><clipPath id="al"><path class="a" d="M22.63,1.87V2.09a0.05,0.05,0,0,0,0,0L23,2.2V3.44a0.05,0.05,0,0,0,0,.05l0.28,0.05a0,0,0,0,0,0,0V2.27l0.34,0.07a0,0,0,0,0,0,0V2.09a0.05,0.05,0,0,0,0,0l-1-.2h0a0,0,0,0,0,0,0"/></clipPath><linearGradient id="am" x1="-317.49" y1="1909.2" x2="-317.39" y2="1909.2" gradientTransform="matrix(119.88, 89.63, 89.63, -119.88, -133051.28, 257331.42)" xlink:href="#o"/><clipPath id="an"><path class="a" d="M24,2.13v1.5a0.05,0.05,0,0,0,0,.05l0.28,0.06a0,0,0,0,0,0,0V3.09l0.52,0.12V3.82a0.06,0.06,0,0,0,0,.05l0.28,0.06a0,0,0,0,0,0,0V2.41a0.06,0.06,0,0,0,0-.05l-0.28-.06a0,0,0,0,0,0,0V2.89l-0.52-.12V2.21a0.05,0.05,0,0,0,0,0L24,2.1h0a0,0,0,0,0,0,0"/></clipPath><linearGradient id="ao" x1="-317.49" y1="1909.17" x2="-317.39" y2="1909.17" gradientTransform="matrix(119.85, 89.61, 89.61, -119.85, -133008.68, 257252.76)" xlink:href="#o"/></defs><title>slices_fixtures_v03</title><g class="b"><polygon class="c" points="22.71 36.19 -4.05 25.88 7.28 -3.54 34.04 6.76 22.71 36.19"/></g><path class="a" d="M4.6,3.44V11C6.2,24.1,15.06,29.21,15.06,29.21S24.72,22.62,25.39,11V3.44H4.6Z"/><g class="d"><path class="e" d="M17.15,14.15h0l0.44,0-0.44,0"/></g><g class="d"><polygon class="e" points="16.82 14.11 16.82 14.11 16.82 14.11 16.82 14.11"/></g><g class="d"><path class="e" d="M12.65,13.26l-2.34-.06,0,0.93s-0.34,0-.71,0a0.53,0.53,0,0,0-.38.52,2,2,0,0,0-.58.06,0.53,0.53,0,0,0-.26.54,1.84,1.84,0,0,0-1,.32,1.15,1.15,0,0,0,0,1.29,33.1,33.1,0,0,1,2.13,3.34,16.17,16.17,0,0,1,.44,3.71l0,0.07h0A23.17,23.17,0,0,0,15,28.66a24.21,24.21,0,0,0,2-1.5l-3.88-4.47,0.24-.21h0.15l0.43,0a1.86,1.86,0,0,0,.92-0.23,0.74,0.74,0,0,0,.33-0.34,1.06,1.06,0,0,0,.1-0.47A1,1,0,0,0,15.22,21a0.78,0.78,0,0,0-.42-0.34,1.75,1.75,0,0,0-.43-0.11h0l-0.22,0-0.73-.81,0.34-.3,0.62,0.69h0a2.23,2.23,0,0,1,.43.09l-0.86-1,0.34-.3,5.13,5.92,0.18-.2-5.1-5.89,0.34-.3,5.06,5.84,0.17-.21-5-5.81,0.12-.1a2.09,2.09,0,0,0,.45.06l4.75,5.49,0.17-.22L16,18.21a2.56,2.56,0,0,0,.52-0.1l4.33,5L21,22.89,16.76,18a0.84,0.84,0,0,0,.34-0.31l4.15,4.79,0.15-.23-4.19-4.83a1.69,1.69,0,0,0,0-.65l4.4,5.08,0.15-.24L17,16.12v-0.7l5,5.8,0.16-.28-6-6.95L16,13.94a5.84,5.84,0,0,1-.71-0.26l-0.13-.06-0.43-.22-0.14-.09L14.24,13l-0.12-.09q-0.23-.18-0.43-0.38l0,0a2,2,0,0,0-1,.71"/></g><g class="d"><path class="e" d="M5.2,13.81a23.94,23.94,0,0,0,1.21,4.24l0.14,0.34-0.14-.34A23.92,23.92,0,0,1,5.2,13.81"/></g><g class="d"><path class="f" d="M3.56,1.63V4.79h0V9.15c0,0.1,0,.2,0,0.31s0,0.22,0,.34v0h0c0,0.44,0,1,.08,1.53a25.47,25.47,0,0,0,1.64,7.14,23.63,23.63,0,0,0,9.16,11.25L15,30.1l0.57-.35q0.7-.46,1.34-0.94a23.49,23.49,0,0,0,7.53-9.58h0v0q0.15-.34.28-0.69c0.09-.24.18-0.48,0.27-0.72a25.36,25.36,0,0,0,1.45-8.3c0-.06,0-0.12,0-0.18h0V1.63a41,41,0,0,0-22.88,0M22.22,20.3l-1.66-1.86h0V13a4.93,4.93,0,0,0,1.23-3.49,5.09,5.09,0,0,0-1.23-3.4V4.25c0.48,0.07,1.18.19,1.66,0.27V20.3h0Zm-3.4-3.88-0.15-.16-1.53-1.78h0.19a6,6,0,0,0,1.49-.37v2.31h0ZM17.36,26.86L14,22.94l0.34,0,3.26,3.77-0.2.18m0.54-.48L14.8,22.79l0.26-.11,3,3.52-0.2.18m0.53-.5-3-3.48a1.34,1.34,0,0,0,.16-0.22l3,3.51-0.19.19m0.51-.52-3.2-3.69a1.7,1.7,0,0,0,0-.23c0-.06,0-0.11,0-0.17l3.37,3.89-0.19.2m3.12-4.14-5-5.8v0.7l4.78,5.51-0.15.24-4.4-5.08a1.68,1.68,0,0,1,0,.65l4.19,4.83-0.15.23L17.1,17.71a0.84,0.84,0,0,1-.34.31L21,22.89l-0.16.22-4.33-5a2.57,2.57,0,0,1-.52.1l4.57,5.28-0.17.22-4.75-5.49a2.08,2.08,0,0,1-.45-0.06l-0.12.1,5,5.81-0.17.21-5.06-5.84-0.34.3,5.1,5.89-0.18.2-5.13-5.92-0.34.3,0.86,1a2.21,2.21,0,0,0-.43-0.09h0l-0.62-.69-0.34.3,0.73,0.81,0.22,0h0a1.75,1.75,0,0,1,.43.11,0.78,0.78,0,0,1,.42.34,1,1,0,0,1,.08.43,1.07,1.07,0,0,1-.1.47,0.74,0.74,0,0,1-.33.34,1.86,1.86,0,0,1-.92.23l-0.43,0H13.38l-0.24.21L17,27.15a24.21,24.21,0,0,1-2,1.5A23.17,23.17,0,0,1,9.86,24h0a22.15,22.15,0,0,1-3.3-5.6l-0.14-.34a24.3,24.3,0,0,1-1.62-7.91v-5a41.87,41.87,0,0,1,14-1.1V4.8a5.83,5.83,0,0,0-2-.45,4.86,4.86,0,0,0-4.82,5,5.11,5.11,0,0,0,4.58,5.07l5.59,6.48-0.16.28m1.82-4h0V4.84l1.3,0.32v5h0a24.31,24.31,0,0,1-1.33,7.12"/></g><g class="d"><path class="e" d="M13.21,11.69L15,12.19,16,13.77a4.36,4.36,0,0,0,1,.12,4.31,4.31,0,0,0,1-.1l1-1.54,1.77-.5a4.39,4.39,0,0,0,.57-1.88L20.13,8.41l0-1.89L20,6.29a4.48,4.48,0,0,0-1.37-.95L16.91,6,15.16,5.3a4.24,4.24,0,0,0-1.37.95l-0.19.21,0.11,1.85L12.58,9.8a4.59,4.59,0,0,0,.62,1.89m3.72-4.14,1.89,1.4-0.68,2.24-2.31,0L15.09,8.92Z"/></g><g class="d"><polygon class="f" points="18.82 8.92 16.93 7.52 15.09 8.89 15.83 11.14 18.14 11.16 18.82 8.92"/></g><g class="d"><path class="e" d="M14,22.94l3.4,3.92,0.2-.18L14.3,22.92l-0.34,0"/></g><g class="d"><path class="e" d="M14.8,22.79l3.11,3.59,0.2-.18-3-3.52-0.26.11"/></g><g class="d"><path class="e" d="M15.42,22.4l3,3.48,0.19-.19-3-3.51a1.33,1.33,0,0,1-.16.22"/></g><g class="d"><path class="e" d="M15.75,21.27a1.62,1.62,0,0,1,0,.17,1.71,1.71,0,0,1,0,.23l3.2,3.69,0.19-.2-3.37-3.89h0Z"/></g><g class="g"><polygon class="h" points="3.95 3.31 5.28 1.54 6.98 2.81 5.65 4.58 3.95 3.31"/></g><g class="i"><polygon class="j" points="5.47 2.99 6.66 1.4 8.11 2.49 6.93 4.08 5.47 2.99"/></g><g class="k"><polygon class="l" points="6.7 2.75 7.86 1.19 9.31 2.27 8.14 3.83 6.7 2.75"/></g><g class="m"><polygon class="n" points="8.49 2.5 9.71 0.87 11.26 2.04 10.04 3.67 8.49 2.5"/></g><g class="o"><polygon class="p" points="9.88 2.35 11.13 0.69 12.74 1.89 11.49 3.55 9.88 2.35"/></g><g class="q"><polygon class="r" points="11.41 2.24 12.64 0.6 14.22 1.78 12.99 3.43 11.41 2.24"/></g><g class="s"><polygon class="t" points="12.95 2.18 14.17 0.56 15.73 1.72 14.52 3.35 12.95 2.18"/></g><g class="u"><polygon class="v" points="14.42 2.19 15.64 0.55 17.22 1.74 16 3.37 14.42 2.19"/></g><g class="w"><polygon class="x" points="15.96 2.25 17.09 0.73 18.5 1.78 17.37 3.3 15.96 2.25"/></g><g class="y"><polygon class="z" points="17.17 2.36 18.51 0.57 20.25 1.88 18.92 3.66 17.17 2.36"/></g><g class="aa"><polygon class="ab" points="18.89 2.53 20.15 0.85 21.76 2.06 20.51 3.74 18.89 2.53"/></g><g class="ac"><polygon class="ad" points="20.38 2.73 21.65 1.02 23.27 2.23 22 3.94 20.38 2.73"/></g><g class="ae"><polygon class="af" points="21.81 2.94 23.04 1.29 24.59 2.45 23.36 4.09 21.81 2.94"/></g><g class="ag"><polygon class="ah" points="23.08 3.28 24.41 1.5 26.09 2.76 24.76 4.54 23.08 3.28"/></g></svg>