<svg id="Layer_1" data-name="Layer 1" xmlns="http://www.w3.org/2000/svg" viewBox="0 0 30 30"><title>iconset</title><rect x="-3" width="34" height="30" fill="#fff"/><rect x="-3" y="10" width="34" height="20" fill="#2534a4"/><rect x="-3" y="20" width="34.18" height="10" fill="#bc0030"/><path d="M4.78,7.05c-0.6,0-.43.78-0.51,1.19-0.21,2.87-.51,5.83.37,8.62A9.65,9.65,0,0,0,9,22.18a7.07,7.07,0,0,0,1.52.77,7.45,7.45,0,0,0,1.59-.81,9.62,9.62,0,0,0,4.27-5.27c0.89-2.84.57-5.85,0.36-8.76,0-.4,0-1.1-0.56-1.05H4.78Z" fill="#fff"/><path d="M10.5,7.5v15c-6.94-3.36-6.18-8.93-5.72-15H10.5Zm0,0v15c6.94-3.36,6.18-8.93,5.72-15H10.5Z" fill="#bc0030"/><path d="M11.31,11.61a11.32,11.32,0,0,1,2.19.28,2.68,2.68,0,0,1,0-1.82,11.32,11.32,0,0,1-2.19.28H9.69a11.31,11.31,0,0,1-2.19-.28,2.68,2.68,0,0,1,0,1.82,11.31,11.31,0,0,1,2.19-.28h1.62Z" fill="#fff"/><path d="M11.94,14.34a11.32,11.32,0,0,1,2.19.28,2.67,2.67,0,0,1,0-1.82,11.45,11.45,0,0,1-2.19.27H9.06a11.46,11.46,0,0,1-2.19-.27,2.68,2.68,0,0,1,0,1.82,11.33,11.33,0,0,1,2.19-.28h2.88Z" fill="#fff"/><path d="M9.59,8.07a11.27,11.27,0,0,1,.28,2.18v9.29h1.27V10.25a11.27,11.27,0,0,1,.28-2.18,2.7,2.7,0,0,1-1.82,0" fill="#fff"/><path d="M7.62,17.29a1.48,1.48,0,0,0-1.49,1.48,1.52,1.52,0,0,0,0,.18,8.82,8.82,0,0,0,1,1.22,1.53,1.53,0,0,0,.46.08,1.48,1.48,0,1,0,0-3" fill="#2534a4"/><path d="M10.5,16.41a1.89,1.89,0,1,0,1.89,1.89,1.89,1.89,0,0,0-1.89-1.89" fill="#2534a4"/><path d="M13.38,17.29a1.48,1.48,0,1,0,0,3,1.53,1.53,0,0,0,.46-0.08,8.62,8.62,0,0,0,1-1.23,1.28,1.28,0,0,0,0-.18,1.49,1.49,0,0,0-1.49-1.48" fill="#2534a4"/><path d="M6.38,19.27A10.91,10.91,0,0,0,10.5,22.5a10.9,10.9,0,0,0,4.11-3.23H6.38Z" fill="#2534a4"/></svg>