<svg id="Layer_1" data-name="Layer 1" xmlns="http://www.w3.org/2000/svg" viewBox="0 0 30 30"><title>iconset</title><rect width="30" height="15" fill="#fff"/><rect y="15" width="30" height="15" fill="#46ac3e"/><path d="M26.43,8.63a8.18,8.18,0,0,0,.31,3.63,1.86,1.86,0,0,1-1-.86l-0.44,1.36c0.92,1.88-1.48,3.36-3.48,3.46,1.22,0.66,2.82,1.49,2.82,1.92-0.49.18-.78-0.33-1.16-0.5a4.72,4.72,0,0,1-.06,2.95c-0.21.25,0,.42,0.08,0.62l0.58,0.22,0.09,0.08a0.62,0.62,0,0,1,.52.59,0.64,0.64,0,0,0-.64-0.22L23.92,22l-0.33-.2a1.09,1.09,0,0,0-1.12-.06,0.59,0.59,0,0,1-.6,0,0.73,0.73,0,0,0-.71,0L20.66,22l-0.13,0a1.44,1.44,0,0,0-.74.26,0.57,0.57,0,0,1,.52-0.56c0-.12,0-0.1.07-0.15A1.37,1.37,0,0,1,21,21.38l-1.21-.06,0-.06a0.55,0.55,0,0,0-.62.21,0.63,0.63,0,0,1,.56-0.59,0.54,0.54,0,0,1,.53-0.11l1.07,0.4L20,20.61a0.12,0.12,0,0,1,0-.16,0.49,0.49,0,0,0-.59,0,0.49,0.49,0,0,1,.63-0.36A0.15,0.15,0,0,1,20.34,20l0.46,0.45,0.43,0.27a0.87,0.87,0,0,0,1.17-.46,0.4,0.4,0,0,1,.2-0.6,0.79,0.79,0,0,1,0-.59,0.93,0.93,0,0,1-.07-0.78A0.86,0.86,0,0,1,22.17,18a0.63,0.63,0,0,1-.56-0.13,0.84,0.84,0,0,1-.95-0.14,1.07,1.07,0,0,1-1-.14,0.93,0.93,0,0,1-.95-0.43,5.48,5.48,0,0,0-.6-0.2,1.58,1.58,0,0,1-.47.48,0.73,0.73,0,0,0,0,1l1,0.37a0.81,0.81,0,0,1,.91.88,2.27,2.27,0,0,0-.43-0.14l-0.58-.21a4.27,4.27,0,0,1-2.67,2,2.21,2.21,0,0,0,.7.1l0.25,0.15a0.58,0.58,0,0,1,.61.53,0.47,0.47,0,0,0-.67-0.13,1.18,1.18,0,0,1-.91-0.29,0.65,0.65,0,0,0-.74,0,1.19,1.19,0,0,0-.84,0,1.59,1.59,0,0,0-1,.33,0.11,0.11,0,0,1-.18,0,0.5,0.5,0,0,0-.6.23,0.4,0.4,0,0,1,.34-0.58l-0.47-.27c0-.05,0-0.06,0-0.08a0.45,0.45,0,0,0-.57.16,0.56,0.56,0,0,1,.7-0.5,0.5,0.5,0,0,1,.6,0A0.93,0.93,0,0,0,14,21a0.73,0.73,0,0,0-.57-0.43c-0.24-.06-0.52-0.14-0.44-0.29-0.15-.21-0.36-0.15-0.6,0A0.48,0.48,0,0,1,13.08,20c0-.15.2-0.18,0.34,0a0.8,0.8,0,0,1,.35.3,1.59,1.59,0,0,0,.87.4,1.88,1.88,0,0,1,.91-0.19A0.4,0.4,0,0,1,16,20.15a0.44,0.44,0,0,1,.34-0.45A0.42,0.42,0,0,1,16,19.44c-0.6,0-1-.08-1-0.47a0.78,0.78,0,0,1-.67-1,0.94,0.94,0,0,1-.68,0,1.39,1.39,0,0,1-1.32.51,2.63,2.63,0,0,1-.58.38,2.8,2.8,0,0,1-.37.94,3.49,3.49,0,0,1-.45-1.25A14,14,0,0,1,9.57,19.9a2.68,2.68,0,0,0-.65,1.25,3,3,0,0,0,.89.19,0.25,0.25,0,0,0,.09.09,0.5,0.5,0,0,1,.55.51,0.45,0.45,0,0,0-.57-0.11,0.79,0.79,0,0,1-.81,0,0.67,0.67,0,0,0-.9-0.19c-0.36.3-.53-0.16-1.09,0.16A0.85,0.85,0,0,1,6,22a0.66,0.66,0,0,0-.67.31c0.11-.68.53-0.61,0.53-0.61l0-.21L5.66,21.4a0.84,0.84,0,0,0-.79,0A0.63,0.63,0,0,1,5.7,21l0.17-.19c-0.13,0-.1-0.14-0.07-0.22a0.32,0.32,0,0,0-.51,0c0.07-.43.48-0.4,0.76-0.21a1,1,0,0,1,.71.21A1.29,1.29,0,0,0,8.5,20a0.76,0.76,0,0,1,.39-0.81,0.4,0.4,0,0,1,.28-0.61,0.4,0.4,0,0,1,.06-0.46,4.13,4.13,0,0,0-1.42.16,2.49,2.49,0,0,1-.57,1.05,3.61,3.61,0,0,0-1.28-2.48,3.34,3.34,0,0,1-1.24-2,1.24,1.24,0,0,1-.25.46C4.28,15.55,4.4,16,4,16a0.6,0.6,0,0,1-.77.18A0.53,0.53,0,0,0,3.8,15.7c-0.25-.06,0-0.27.09-0.34a2.34,2.34,0,0,1,.4-0.49L4.45,13.4a0.69,0.69,0,0,1-.51-0.7c-0.12-.15-0.2-0.37,0-0.46a0.62,0.62,0,0,0-.42-0.46,0.92,0.92,0,0,1,.85.3,7.13,7.13,0,0,1,.52,1.05,1.91,1.91,0,0,1,.08-1.36,0.71,0.71,0,0,0-.35-0.64,0.88,0.88,0,0,1,.75.55c0.33,0.43-.12.73,0,0.92a0.47,0.47,0,0,1,.31-0.23,0.76,0.76,0,0,0,.21-0.61,0.49,0.49,0,0,1,.14.72,0.53,0.53,0,0,1-.3.64,0.42,0.42,0,0,0-.28.47A3.09,3.09,0,0,1,5.83,15a0.57,0.57,0,0,1,.42.6,0.61,0.61,0,0,1,.62.42,0.45,0.45,0,0,1,.61.17,0.27,0.27,0,0,1,.33-0.08,0.53,0.53,0,0,1,.24-0.4A0.93,0.93,0,0,1,8,14.34a0.91,0.91,0,0,1,.34-1,0.83,0.83,0,0,1,.38-0.86,0.71,0.71,0,0,1,.35-0.73,0.63,0.63,0,0,1,.37-0.78l-0.16-.37a1.1,1.1,0,0,0-.89.81A2.87,2.87,0,0,1,8.2,11s-0.3.81-.31,0.79a0.51,0.51,0,0,1-.14-0.55,1.63,1.63,0,0,1-.23-0.71l-2.13-.09,0.24,0.44A3.68,3.68,0,0,1,3.9,8.93a4.42,4.42,0,0,0,2,.77L5.35,10a16.57,16.57,0,0,0,4-.2A1.12,1.12,0,0,0,8.4,9.32V9.63L8.2,9.49V9.72L8,9.62l0,0.2-0.15-.1-0.07.18L7.62,9.76a0.43,0.43,0,0,1-.15,0,0.57,0.57,0,0,0-.53-0.47,7,7,0,0,0-1.38.07C6.23,8.49,7.16,8.56,8,8.47a0.75,0.75,0,0,1,.78-0.54L10.65,8a1.93,1.93,0,0,1,1-.44,1.42,1.42,0,0,0,.76-0.38c-0.06.42-.06,0.51-0.09,0.76l0.23,0-0.7.46c-0.23.36-.19,0.36-0.09,0.55l0.21,0.37a1,1,0,0,1,.71.5c-0.39,0-.68,0-0.67.2a0.83,0.83,0,0,0,.43.26,0.85,0.85,0,0,1,.31.66c-0.29,0-.66-0.45-0.87,0a0.41,0.41,0,0,0,.26.55,0.83,0.83,0,0,1,.49.75s-1-.67-1,0a0.4,0.4,0,0,0,.21.42,0.57,0.57,0,0,1,.52.56c-0.43-.15-0.64,0-0.69.21l0.17,0.48,1.75-.35a1.28,1.28,0,0,0,.34-1,1.92,1.92,0,0,1,.6-1.85,32,32,0,0,1,5.17-3.47c-0.38.63-.65,1.8,0.34,1.88,0.32,0,3.8-1.46,3.8-1.46-1.21.88-2.6,2.12-1,2.65-1.48.46-2.72,2-1.64,3.17a1.77,1.77,0,0,0-2,.84,7.14,7.14,0,0,1,2.5.23s2.33,0.46,2.48-.56C23,14.2,22.09,14.07,22,13c0-1,1.45-1.5,2.68-.78l0.38-.78a3.56,3.56,0,0,1-1.32,0,28.83,28.83,0,0,0,2.64-2.78h0Z" fill="#c0003b"/><path d="M5.31,22.32h0a0,0,0,0,1,0,0,0.6,0.6,0,0,1,.53-0.64l0-.18-0.14,0a0.85,0.85,0,0,0-.76,0h0a0,0,0,0,1,0,0A0.56,0.56,0,0,1,5.46,21L5.7,21l0.11-.14a0.15,0.15,0,0,1-.07-0.07,0.23,0.23,0,0,1,0-.18,0.31,0.31,0,0,0-.46,0h0a0,0,0,0,1,0,0,0.39,0.39,0,0,1,.4-0.37,0.77,0.77,0,0,1,.41.14,0.09,0.09,0,0,1,.09,0,1.46,1.46,0,0,1,.61.25,2,2,0,0,0,.61.13A1.42,1.42,0,0,0,8.48,20a0.76,0.76,0,0,1,.38-0.8,0.43,0.43,0,0,1,0-.35,0.5,0.5,0,0,1,.3-0.27,0.43,0.43,0,0,1,.06-0.42,4.07,4.07,0,0,0-1.37.16,2.32,2.32,0,0,1-.56,1h0a0,0,0,0,1,0,0,3.57,3.57,0,0,0-1.28-2.46A3.36,3.36,0,0,1,4.7,15a1.3,1.3,0,0,1-.21.37,0.62,0.62,0,0,0-.12.29A0.37,0.37,0,0,1,4,16a0.58,0.58,0,0,1-.48.25,0.63,0.63,0,0,1-.31-0.08,0,0,0,0,1,0,0,0,0,0,0,1,0,0,0.49,0.49,0,0,0,.51-0.43,0.13,0.13,0,0,1-.11-0.1,0.4,0.4,0,0,1,.22-0.29A0.67,0.67,0,0,0,4,15.14a0.68,0.68,0,0,1,.26-0.31l0.15-1.41a0.7,0.7,0,0,1-.51-0.72,0.45,0.45,0,0,1-.12-0.35,0.18,0.18,0,0,1,.08-0.12,0.58,0.58,0,0,0-.39-0.41,0,0,0,0,1,0,0,0,0,0,0,1,0,0,0.72,0.72,0,0,1,.74.21,0.29,0.29,0,0,0,.12.09,1.12,1.12,0,0,1,.29.53c0,0.11.09,0.22,0.13,0.32a2,2,0,0,1,.14-1.14,0.68,0.68,0,0,0-.34-0.61,0,0,0,0,1,0,0s0,0,0,0a0.84,0.84,0,0,1,.77.54,0.63,0.63,0,0,1,.07.69,0.36,0.36,0,0,0,0,.22l0.06-.07a0.29,0.29,0,0,1,.21-0.15,0.68,0.68,0,0,0,.21-0.57,0,0,0,0,1,0,0h0a0.52,0.52,0,0,1,.15.75,0.55,0.55,0,0,1-.31.66,0.39,0.39,0,0,0-.26.44A3,3,0,0,1,5.86,15a0.55,0.55,0,0,1,.42.56,0.68,0.68,0,0,1,.61.4,0.54,0.54,0,0,1,.59.17A0.31,0.31,0,0,1,7.78,16,0.56,0.56,0,0,1,8,15.69,1,1,0,0,1,7.71,15,0.89,0.89,0,0,1,8,14.31a0.94,0.94,0,0,1,.32-1,0.8,0.8,0,0,1,.33-0.8l0.07-.06a0.68,0.68,0,0,1,.14-0.55A0.46,0.46,0,0,1,9,11.68a0.54,0.54,0,0,1,0-.44A0.64,0.64,0,0,1,9.4,10.9l-0.14-.32a1.06,1.06,0,0,0-.84.78,0,0,0,0,1,0,0h0a2.5,2.5,0,0,1-.16-0.3,1.8,1.8,0,0,1-.31.74,0.53,0.53,0,0,1-.17-0.59,0.74,0.74,0,0,1-.18-0.45,1.55,1.55,0,0,0-.05-0.24l-1,0-1,0,0.21,0.39a0,0,0,0,1,0,0l0,0a3.63,3.63,0,0,1-1.75-2,0,0,0,0,1,0,0h0a4.36,4.36,0,0,0,2,.76,0.05,0.05,0,0,1,0,0s0,0,0,0L5.47,10c0.31,0,.64,0,1,0a17.34,17.34,0,0,0,2.84-.24,1.1,1.1,0,0,0-.86-0.4V9.63a0,0,0,0,1,0,0h0L8.23,9.55V9.72a0,0,0,0,1,0,0h0L8.06,9.67,8,9.82l0,0H8L7.86,9.76,7.81,9.9l0,0h0L7.6,9.78c-0.14,0-.15,0-0.16,0a0.54,0.54,0,0,0-.5-0.46,3.67,3.67,0,0,0-.93,0l-0.45,0,0,0a0,0,0,0,1,0,0,2.6,2.6,0,0,1,2.1-.83L8,8.45a0.8,0.8,0,0,1,.8-0.54h0L10.65,8a1.84,1.84,0,0,1,1-.44,1.19,1.19,0,0,1,.26-0.09,0.74,0.74,0,0,0,.49-0.28h0a0,0,0,0,1,0,0c0,0.28-.05.42-0.07,0.55l0,0.18,0.2,0a0,0,0,0,1,0,0,0,0,0,0,1,0,0l-0.36.24-0.35.23c-0.19.3-.18,0.32-0.1,0.46L12,9.37a1,1,0,0,1,.71.51,0,0,0,0,1,0,0h0A0.82,0.82,0,0,0,12,10a0.1,0.1,0,0,0,0,.08,0.39,0.39,0,0,0,.25.16l0.16,0.07a0.89,0.89,0,0,1,.32.68v0h0a0.89,0.89,0,0,1-.32-0.11c-0.21-.1-0.41-0.16-0.52,0a0.34,0.34,0,0,0,0,.28,0.41,0.41,0,0,0,.25.23,0.85,0.85,0,0,1,.51.78,0,0,0,0,1,0,0l0,0A1.56,1.56,0,0,0,11.84,12a0.17,0.17,0,0,0-.13,0,0.24,0.24,0,0,0,0,.19,0.35,0.35,0,0,0,.17.37l0,0a0.59,0.59,0,0,1,.53.59v0h0c-0.37-.13-0.59-0.07-0.65.19l0.16,0.44,1.72-.35a1.26,1.26,0,0,0,.32-1c0-.13,0-0.25,0-0.37a1.6,1.6,0,0,1,.61-1.51A31.82,31.82,0,0,1,19.7,7.14h0a0,0,0,0,1,0,0,1.79,1.79,0,0,0-.25,1.51,0.64,0.64,0,0,0,.57.33,40.29,40.29,0,0,0,3.79-1.46,0,0,0,0,1,0,0,0,0,0,0,1,0,0c-1.22.89-1.77,1.54-1.7,2a0.88,0.88,0,0,0,.71.6,0,0,0,0,1,0,0,0,0,0,0,1,0,0,2.91,2.91,0,0,0-2,1.76,1.41,1.41,0,0,0,.35,1.36,0,0,0,0,1,0,0h0a1.43,1.43,0,0,0-.39-0.05,1.73,1.73,0,0,0-1.52.83H20a5.23,5.23,0,0,1,1.78.24,6.46,6.46,0,0,0,1.09.1A1.26,1.26,0,0,0,24.22,14a4.52,4.52,0,0,1-.92.11A1.08,1.08,0,0,1,22,13a1.35,1.35,0,0,1,1.52-1.15,2.39,2.39,0,0,1,1.18.32l0.34-.7H25a3.3,3.3,0,0,1-1.17,0l0,0a0,0,0,0,1,0,0,29.1,29.1,0,0,0,2.64-2.78h0a0,0,0,0,1,0,0,8.15,8.15,0,0,0,.3,3.61,0,0,0,0,1,0,0h0a1.91,1.91,0,0,1-1-.82l-0.42,1.29a1.72,1.72,0,0,1-.05,1.72,4.45,4.45,0,0,1-3.35,1.76l0.21,0.11c1.19,0.64,2.53,1.37,2.53,1.78a0.42,0.42,0,0,1-.23.07,1,1,0,0,1-.61-0.3,2.17,2.17,0,0,0-.29-0.21,4.21,4.21,0,0,1,0,2.52l-0.08.37a0.34,0.34,0,0,0,0,.46,1.19,1.19,0,0,1,.08.15L24.1,21.4l0.1,0.09a0.65,0.65,0,0,1,.53.6,0,0,0,0,1,0,0h0a0.63,0.63,0,0,0-.61-0.21L23.94,22l-0.36-.2a1,1,0,0,0-1.09-.05,0.63,0.63,0,0,1-.62,0,0.61,0.61,0,0,0-.67,0l-0.52.34-0.15,0a1.44,1.44,0,0,0-.73.26h0a0,0,0,0,1,0,0,0.63,0.63,0,0,1,.51-0.58,0.1,0.1,0,0,1,.06-0.11l0,0a0.61,0.61,0,0,1,.38-0.15l-0.94,0h0a0,0,0,0,1,0,0v0a0.48,0.48,0,0,0-.56.2h0a0,0,0,0,1,0,0,0.59,0.59,0,0,1,.49-0.58l0.09,0a0.36,0.36,0,0,1,.32-0.13h0.18L20,20.64a0.14,0.14,0,0,1,0-.19,1.37,1.37,0,0,0-.27-0.06,0.36,0.36,0,0,0-.26.1h0a0,0,0,0,1,0,0,0.45,0.45,0,0,1,.5-0.41H20A0.19,0.19,0,0,1,20.36,20l0.46,0.45,0.42,0.27a0.85,0.85,0,0,0,1.13-.45,0.4,0.4,0,0,1,.19-0.59,0.82,0.82,0,0,1,0-.59,1,1,0,0,1-.09-0.76A0.79,0.79,0,0,1,22.17,18,0.55,0.55,0,0,0,22,18a0.62,0.62,0,0,1-.43-0.15,0.68,0.68,0,0,1-.36.1,0.87,0.87,0,0,1-.59-0.23,0.93,0.93,0,0,1-.4.08,1,1,0,0,1-.65-0.22,0.22,0.22,0,0,1-.12,0,1,1,0,0,1-.83-0.47,0.41,0.41,0,0,1-.26-0.08A0.65,0.65,0,0,0,18.1,17a1.08,1.08,0,0,1-.3.33l-0.18.15a0.7,0.7,0,0,0,0,.91l1,0.36a0.84,0.84,0,0,1,.93.91,0,0,0,0,1,0,0h0l-0.26-.09a0.42,0.42,0,0,0-.16,0l-0.56-.2a4.28,4.28,0,0,1-2.59,1.93,1.34,1.34,0,0,0,.37,0l0.24,0,0.26,0.15a0.6,0.6,0,0,1,.63.56,0,0,0,0,1,0,0h0a0.44,0.44,0,0,0-.63-0.13,0.65,0.65,0,0,1-.66-0.13,1.16,1.16,0,0,0-.28-0.15,0.68,0.68,0,0,0-.71,0,1.1,1.1,0,0,0-.7-0.06l-0.15,0a1.51,1.51,0,0,0-.94.32,0.14,0.14,0,0,1-.21,0l-0.17,0a0.47,0.47,0,0,0-.4.25l0,0a0,0,0,0,1,0,0,0.42,0.42,0,0,1,.3-0.59l-0.4-.23,0,0a0.06,0.06,0,0,1,0-.05h0a0.47,0.47,0,0,0-.47.19h0a0,0,0,0,1,0,0,0.59,0.59,0,0,1,.75-0.53,0.34,0.34,0,0,1,.26-0.09,0.55,0.55,0,0,1,.35.13,0.92,0.92,0,0,0,.71.12,0.7,0.7,0,0,0-.53-0.38,0.74,0.74,0,0,1-.47-0.22,0.12,0.12,0,0,1,0-.11,0.4,0.4,0,0,0-.55.07h0a0,0,0,0,1,0,0,0.48,0.48,0,0,1,.5-0.42,0.54,0.54,0,0,1,.25.06,0.21,0.21,0,0,1,.37,0,0.43,0.43,0,0,1,.26.19l0.09,0.1a1.61,1.61,0,0,0,.86.39,1.79,1.79,0,0,1,.88-0.19A0.42,0.42,0,0,1,16,20.12a0.43,0.43,0,0,1,.27-0.4,0.38,0.38,0,0,1-.31-0.24c-0.59,0-1-.1-1-0.5a1,1,0,0,1-.69-0.52,0.59,0.59,0,0,1,0-.46,0.9,0.9,0,0,1-.64,0,1.91,1.91,0,0,1-1.07.58,0.49,0.49,0,0,1-.24-0.06,2.69,2.69,0,0,1-.55.37,2.84,2.84,0,0,1-.37.94h0l0,0c0-.12-0.11-0.24-0.17-0.36a2.3,2.3,0,0,1-.28-0.81,7.83,7.83,0,0,1-.83.9c-0.13.13-.27,0.26-0.41,0.41A2.61,2.61,0,0,0,9,21.13a1.54,1.54,0,0,0,.55.13l0.31,0L9.9,21.39l0,0h0a0.51,0.51,0,0,1,.55.53,0,0,0,0,1,0,0h0a0.46,0.46,0,0,0-.33-0.16,0.4,0.4,0,0,0-.2.05,0.89,0.89,0,0,1-.84,0,0.65,0.65,0,0,0-.87-0.19,0.51,0.51,0,0,1-.48.08,0.82,0.82,0,0,0-.62.08,1.19,1.19,0,0,1-.77.32A0.45,0.45,0,0,1,6,22H5.88a0.79,0.79,0,0,0-.55.31h0Zm15-.57a0.52,0.52,0,0,0-.47.46A1.45,1.45,0,0,1,20.53,22l0.14,0a3.5,3.5,0,0,1,.5-0.34,0.65,0.65,0,0,1,.73,0,0.59,0.59,0,0,0,.56,0,1.11,1.11,0,0,1,1.15.06l0.32,0.2,0,0,0.07,0a0.66,0.66,0,0,1,.6.14,0.56,0.56,0,0,0-.46-0.45l-0.11-.09-0.57-.22-0.09-.16a0.38,0.38,0,0,1,0-.51c0-.11,0-0.24.07-0.36a4.05,4.05,0,0,0,0-2.56,0,0,0,0,1,0,0h0a1.71,1.71,0,0,1,.37.25,0.77,0.77,0,0,0,.77.25c0-.35-1.41-1.1-2.52-1.7l-0.3-.16a0,0,0,0,1,0-.06,4.42,4.42,0,0,0,3.41-1.73,1.68,1.68,0,0,0,0-1.68l0.44-1.38,0,0,0,0a1.82,1.82,0,0,0,.91.82,8.59,8.59,0,0,1-.29-3.47,29.4,29.4,0,0,1-2.54,2.66,3.4,3.4,0,0,0,1.09,0l0.16,0h0a0,0,0,0,1,0,0l-0.38.78,0,0h0a2.34,2.34,0,0,0-1.18-.33A1.29,1.29,0,0,0,22.08,13c0,1,.71,1.26,2.17.95h0a0,0,0,0,1,0,0c-0.07.45-.56,0.69-1.42,0.69a6.45,6.45,0,0,1-1.1-.11A5.17,5.17,0,0,0,20,14.28H19.24a0,0,0,0,1,0,0,1.83,1.83,0,0,1,1.91-.88,1.45,1.45,0,0,1-.3-1.35,2.94,2.94,0,0,1,1.93-1.78,0.88,0.88,0,0,1-.66-0.61C22,9,22.88,8.28,23.63,7.72a37.79,37.79,0,0,1-3.58,1.37,0.7,0.7,0,0,1-.62-0.36,1.76,1.76,0,0,1,.2-1.47,31.58,31.58,0,0,0-5.07,3.42A1.55,1.55,0,0,0,14,12.13c0,0.12,0,.24,0,0.37a1.3,1.3,0,0,1-.35,1.05l-1.76.36a0,0,0,0,1,0,0l-0.17-.48c0.06-.31.3-0.4,0.69-0.27a0.56,0.56,0,0,0-.5-0.49l0,0a0.41,0.41,0,0,1-.19-0.42A0.29,0.29,0,0,1,11.66,12a0.85,0.85,0,0,1,.9.22,0.77,0.77,0,0,0-.47-0.67,0.48,0.48,0,0,1-.29-0.27,0.4,0.4,0,0,1,0-.33c0.12-.25.37-0.19,0.6-0.08a1,1,0,0,0,.26.1,0.82,0.82,0,0,0-.3-0.6l-0.15-.06a0.37,0.37,0,0,1-.29-0.21A0.17,0.17,0,0,1,12,10a0.8,0.8,0,0,1,.6-0.11,1,1,0,0,0-.67-0.44L11.67,9c-0.09-.16-0.1-0.21.11-0.53l0.36-.24L12.42,8,12.27,8h0a0,0,0,0,1,0,0l0-.21c0-.12,0-0.23.05-0.45a0.84,0.84,0,0,1-.45.22,1.24,1.24,0,0,0-.25.09,1.94,1.94,0,0,0-.95.43S9.25,8,8.82,8a0.73,0.73,0,0,0-.75.51,0,0,0,0,1,0,0l-0.41,0a2.56,2.56,0,0,0-2,.76L6,9.26a3.68,3.68,0,0,1,.94,0h0a0.6,0.6,0,0,1,.56.5H7.62L7.77,9.84,7.82,9.7l0,0h0L8,9.76l0-.15,0,0h0l0.1,0.07V9.49a0,0,0,0,1,0,0h0l0.15,0.1V9.32a0,0,0,0,1,0,0,1.14,1.14,0,0,1,1,.47,11.66,11.66,0,0,1-2.91.29c-0.39,0-.75,0-1.1,0a0,0,0,0,1,0-.06l0.49-.24A4.42,4.42,0,0,1,4,9a3.94,3.94,0,0,0,1.6,1.82l-0.21-.38a0,0,0,0,1,0,0h0L7.51,10.5a0.77,0.77,0,0,1,.08.27,0.8,0.8,0,0,0,.17.45,0.58,0.58,0,0,0,.11.52c0-.11.2-0.5,0.29-0.76l0,0,0,0a3.08,3.08,0,0,0,.15.29,1.16,1.16,0,0,1,.9-0.76,0,0,0,0,1,0,0,3.07,3.07,0,0,1,.16.38,0,0,0,0,1,0,0,0.55,0.55,0,0,0-.33.32,0.45,0.45,0,0,0,0,.42,0,0,0,0,1,0,0l0,0a0.33,0.33,0,0,0-.18.16,0.7,0.7,0,0,0-.14.53,0.29,0.29,0,0,1-.08.1,0.75,0.75,0,0,0-.3.78,0,0,0,0,1,0,0,0.9,0.9,0,0,0-.31,1,0.89,0.89,0,0,0-.26.68,0.88,0.88,0,0,0,.31.65v0a0.49,0.49,0,0,0-.23.38,0,0,0,0,1,0,0h0a0.25,0.25,0,0,0-.3.07h0C7.24,16,7,15.9,6.89,16h0l0,0a0.57,0.57,0,0,0-.59-0.4h0a0,0,0,0,1,0,0A0.54,0.54,0,0,0,5.82,15a3.52,3.52,0,0,0-.39-1.39,0.44,0.44,0,0,1,.29-0.52A0.5,0.5,0,0,0,6,12.49a0.48,0.48,0,0,0-.08-0.66,0.78,0.78,0,0,1-.22.57h0a0.23,0.23,0,0,0-.17.12,0.61,0.61,0,0,1-.1.11h0a0.32,0.32,0,0,1,0-.31,0.54,0.54,0,0,0,0-.61,0.86,0.86,0,0,0-.62-0.53,0.75,0.75,0,0,1,.28.61,1.92,1.92,0,0,0-.09,1.35,0,0,0,0,1,0,0,0,0,0,0,1,0,0,3,3,0,0,1-.25-0.55,1.21,1.21,0,0,0-.26-0.49A0.31,0.31,0,0,1,4.17,12a0.63,0.63,0,0,0-.57-0.21,0.71,0.71,0,0,1,.32.43,0,0,0,0,1,0,0,0.13,0.13,0,0,0-.07.09,0.45,0.45,0,0,0,.12.32,0.67,0.67,0,0,0,.5.69,0,0,0,0,1,0,0L4.32,14.86v0h0a0.67,0.67,0,0,0-.23.28,0.44,0.44,0,0,1-.16.21,0.37,0.37,0,0,0-.18.22,0.11,0.11,0,0,0,.09.06l0,0a0,0,0,0,1,0,0,0.55,0.55,0,0,1-.46.49,0.61,0.61,0,0,0,.18,0A0.58,0.58,0,0,0,4,16a0.33,0.33,0,0,0,.31-0.35,0.65,0.65,0,0,1,.13-0.31,1.47,1.47,0,0,0,.25-0.46,0,0,0,0,1,.06,0A3.33,3.33,0,0,0,6,16.82a3.69,3.69,0,0,1,1.3,2.44,2.61,2.61,0,0,0,.51-1,3.9,3.9,0,0,1,1.46-.18l0,0a0,0,0,0,1,0,0l0,0a0.34,0.34,0,0,0,0,.39,0,0,0,0,1,0,0l0,0a0.46,0.46,0,0,0-.3.25,0.38,0.38,0,0,0,0,.32,0,0,0,0,1,0,0,0.74,0.74,0,0,0-.38.79,1.47,1.47,0,0,1-1.14.77,2.08,2.08,0,0,1-.64-0.13,1,1,0,0,0-.68-0.22,0.91,0.91,0,0,0-.41-0.13,0.31,0.31,0,0,0-.32.24,0.32,0.32,0,0,1,.49.08,0.37,0.37,0,0,0,0,.16,0.12,0.12,0,0,0,.07.05l0,0a0,0,0,0,1,0,0l-0.17.19H5.46a0.51,0.51,0,0,0-.54.32,1,1,0,0,1,.75,0l0.16,0.06,0,0.24a0,0,0,0,1,0,0h0a0.51,0.51,0,0,0-.48.49A0.68,0.68,0,0,1,6,22a0.4,0.4,0,0,0,.34.14,1.14,1.14,0,0,0,.74-0.31,0.88,0.88,0,0,1,.67-0.09,0.43,0.43,0,0,0,.42-0.07,0.7,0.7,0,0,1,.94.19,0.84,0.84,0,0,0,.77,0,0.45,0.45,0,0,1,.23-0.06,0.49,0.49,0,0,1,.32.12,0.47,0.47,0,0,0-.52-0.41,0.26,0.26,0,0,1-.12-0.1l-0.29,0a1.52,1.52,0,0,1-.6-0.15,0,0,0,0,1,0,0,2.69,2.69,0,0,1,.66-1.26c0.15-.16.28-0.28,0.41-0.41a7.71,7.71,0,0,0,.88-1h0a0,0,0,0,1,0,0,2,2,0,0,0,.28.87l0.14,0.31a2.63,2.63,0,0,0,.34-0.87,0,0,0,0,1,0,0,2.82,2.82,0,0,0,.55-0.38h0a0.42,0.42,0,0,0,.22.06,2,2,0,0,0,1.06-.57,1,1,0,0,0,.69,0h0a0,0,0,0,1,0,0,0.54,0.54,0,0,0,0,.47,1,1,0,0,0,.67.52c0.07,0.39.44,0.47,1,.47a0,0,0,0,1,0,0,0.39,0.39,0,0,0,.35.23,0,0,0,0,1,0,0,0,0,0,0,1,0,0,0.41,0.41,0,0,0-.32.42v0h0a0.37,0.37,0,0,0-.44.3,0,0,0,0,1,0,0,1.86,1.86,0,0,0-.9.18,1.61,1.61,0,0,1-.91-0.41,0.67,0.67,0,0,1-.1-0.11A0.41,0.41,0,0,0,13.41,20c-0.14-.14-0.26-0.12-0.3,0l0,0h0a0.42,0.42,0,0,0-.24-0.06,0.41,0.41,0,0,0-.42.29c0.26-.17.44-0.16,0.57,0a0.15,0.15,0,0,0,0,.09,0.82,0.82,0,0,0,.42.19A0.75,0.75,0,0,1,14,21a0,0,0,0,1,0,0l0,0a1,1,0,0,1-.8-0.13,0.49,0.49,0,0,0-.57,0l-0.15,0a0.59,0.59,0,0,0-.52.43,0.43,0.43,0,0,1,.54-0.11,0,0,0,0,1,0,0l0,0h0a0,0,0,0,1,0,0l0.09,0,0.36,0.21a0,0,0,0,1,0,0,0,0,0,0,1,0,0,0.36,0.36,0,0,0-.34.47,0.51,0.51,0,0,1,.41-0.21,0.6,0.6,0,0,1,.19,0l0,0a0.07,0.07,0,0,0,.12,0,1.62,1.62,0,0,1,1-.34l0.15,0a1,1,0,0,1,.71.07,0.68,0.68,0,0,1,.74,0,1.16,1.16,0,0,1,.29.15,0.61,0.61,0,0,0,.6.13,0.49,0.49,0,0,1,.65.08,0.59,0.59,0,0,0-.58-0.42l-0.26-.15H16.32a1.16,1.16,0,0,1-.48-0.09,0,0,0,0,1,0,0,0,0,0,0,1,0,0,4.24,4.24,0,0,0,2.65-1.95,0,0,0,0,1,0,0l0.58,0.2a0.44,0.44,0,0,1,.18,0L19.5,19.6a0.78,0.78,0,0,0-.88-0.81l-1-.37a0.77,0.77,0,0,1,0-1l0.19-.15A0.94,0.94,0,0,0,18,16.93l0.05,0a0.7,0.7,0,0,1,.31.1,0.6,0.6,0,0,0,.26.09,1,1,0,0,0,.94.43,1.11,1.11,0,0,0,1,.14,0.86,0.86,0,0,0,.95.14,0.74,0.74,0,0,0,.56.13h0a0.07,0.07,0,0,1,.06.05,0.71,0.71,0,0,0,.35.31l0,0a0,0,0,0,1,0,0,0.92,0.92,0,0,0,.08.74,0.85,0.85,0,0,0,0,.59,0,0,0,0,1,0,0,0.37,0.37,0,0,0-.19.56,0.89,0.89,0,0,1-1.21.5l-0.43-.27-0.46-.45c-0.06-.06-0.18-0.11-0.22,0v0h0l-0.16,0a0.39,0.39,0,0,0-.43.27,0.42,0.42,0,0,1,.24-0.07,0.45,0.45,0,0,1,.34.12,0.11,0.11,0,0,0,0,.14h0l1.28,0.54c0.09,0,.09,0,0.09.06a0,0,0,0,1,0,0h0l-0.06,0-1-.37a0.52,0.52,0,0,0-.49.1l-0.1,0a0.56,0.56,0,0,0-.45.42,0.6,0.6,0,0,1,.59-0.14h0a0,0,0,0,1,0,0v0L21,21.35a0,0,0,0,1,0,0,0,0,0,0,1,0,0l-0.23,0a0.64,0.64,0,0,0-.39.13,0.1,0.1,0,0,1,0,0s0,0,0,.08a0,0,0,0,1,0,0,0,0,0,0,1,0,0h0Z"/><path d="M24.14,13.05c0,0.4-1.18.5-1.26,0.06,0-.23.6-0.62,1.26-0.06h0Z" fill="#fff"/><path d="M23.46,13.42a0.55,0.55,0,0,1-.6-0.31,0.21,0.21,0,0,1,.06-0.17,0.69,0.69,0,0,1,.52-0.21,1.11,1.11,0,0,1,.72.3,0.22,0.22,0,0,1-.07.19,0.93,0.93,0,0,1-.63.2h0Zm0-.64A0.64,0.64,0,0,0,23,13a0.17,0.17,0,0,0-.05.13,0.52,0.52,0,0,0,.55.27,0.9,0.9,0,0,0,.6-0.18,0.19,0.19,0,0,0,.06-0.14,1.08,1.08,0,0,0-.68-0.27h0Z"/><path d="M25.74,11.44h0a0,0,0,0,1,0,0,5.32,5.32,0,0,0,.18-1.1,0,0,0,0,1,0,0,0,0,0,0,1,0,0,5.15,5.15,0,0,1-.19,1.12h0Z"/><path d="M25.11,11.42h0a0,0,0,0,1,0,0l0.39-1s0.06,0,.06,0,0,0-.39,1.05l0,0h0Z"/><path d="M25.29,12.78a1.49,1.49,0,0,0-.52-0.54l-0.05,0,0,0,0,0a1.55,1.55,0,0,1,.53.56l0,0h0Z"/><path d="M24.27,14l0,0a1,1,0,0,0-.11-0.85l0,0a1,1,0,0,1,.1.91h0Z"/><path d="M21.81,16.25a3.27,3.27,0,0,1-.55-0.52,2.08,2.08,0,0,0-1.17-.86v0a2.08,2.08,0,0,1,1.22.88,3.25,3.25,0,0,0,.54.52l0,0h0Z"/><path d="M24,21.9a0.34,0.34,0,0,1,.11-0.42l0,0a0.28,0.28,0,0,0-.1.35l0,0h0Z"/><path d="M20.58,22h0a0.29,0.29,0,0,0-.23-0.28v0a0.34,0.34,0,0,1,.26.33h0Z"/><path d="M19.85,21.31l0,0a0.3,0.3,0,0,0-.06-0.35l0,0a0.35,0.35,0,0,1,.07.41h0Z"/><path d="M20,20.47l0,0a0.26,0.26,0,0,0,.14-0.19,0.16,0.16,0,0,0-.09-0.11l0,0a0.21,0.21,0,0,1,.12.15,0.29,0.29,0,0,1-.16.24h0Z"/><path d="M16.68,21.92a0.33,0.33,0,0,1,.06-0.45l0,0a0.28,0.28,0,0,0-.06.38l0,0h0Z"/><path d="M13.15,21.9l0,0a0.19,0.19,0,0,0,0-.19,0.37,0.37,0,0,0-.26-0.12v0a0.41,0.41,0,0,1,.3.14,0.24,0.24,0,0,1,0,.23h0Z"/><path d="M12.43,21.2v0a0.19,0.19,0,0,0,.13-0.1,0.26,0.26,0,0,0,0-.2l0,0a0.31,0.31,0,0,1,0,.24,0.24,0.24,0,0,1-.17.13h0Z"/><path d="M13,20.32v0a0.15,0.15,0,0,0,.13-0.07,0.27,0.27,0,0,0,0-.2l0,0a0.31,0.31,0,0,1,0,.25,0.2,0.2,0,0,1-.16.1h0Z"/><path d="M12.79,21.51l0,0s0.42-.36.62-0.16a1.49,1.49,0,0,0,1-.16l0,0a1.58,1.58,0,0,1-1,.15c-0.17-.16-0.55.16-0.56,0.16h0Z"/><polygon points="13.98 21.02 13.95 20.98 14.61 20.63 14.64 20.68 13.98 21.02 13.98 21.02"/><path d="M16,20.7a0.68,0.68,0,0,1-.43-0.21l0,0a0.6,0.6,0,0,0,.44.19,0.51,0.51,0,0,0,.36-0.3l0,0a0.56,0.56,0,0,1-.4.32h0Z"/><path d="M16.36,20.39a0.33,0.33,0,0,1-.23-0.13L16,20.16l0,0,0.12,0.11c0.18,0.17.21,0.2,1.08-.38l0,0a2.45,2.45,0,0,1-.92.5h0Z"/><path d="M17.26,19.89l0,0a4.48,4.48,0,0,0-.89-0.14h0l-0.08-.05,0.1,0h0A0.87,0.87,0,0,0,17.16,19a0.5,0.5,0,0,1,.52.21,0.8,0.8,0,0,1-.35.61l-0.07.06h0Zm-0.71-.2a3.5,3.5,0,0,1,.71.13l0,0a0.78,0.78,0,0,0,.34-0.56,0.49,0.49,0,0,0-.45-0.2,0.84,0.84,0,0,1-.63.65h0Z"/><path d="M6,22l0,0a0.18,0.18,0,0,0,0-.17,0.23,0.23,0,0,0-.17-0.1v0a0.28,0.28,0,0,1,.2.13A0.23,0.23,0,0,1,6,22H6Z"/><path d="M5.67,21.42l0,0a0.23,0.23,0,0,0,.12-0.18,0.19,0.19,0,0,0-.09-0.13l0,0a0.23,0.23,0,0,1,.11.17,0.27,0.27,0,0,1-.14.22h0Z"/><path d="M5.87,20.67H5.8v0A0.24,0.24,0,0,0,6,20.56a0.19,0.19,0,0,0,0-.16l0,0a0.23,0.23,0,0,1,0,.21,0.24,0.24,0,0,1-.2.08h0Z"/><path d="M5.84,21.48l0,0a0.65,0.65,0,0,1,.72-0.14,0.87,0.87,0,0,0,.34.06v0a0.86,0.86,0,0,1-.37-0.06,0.62,0.62,0,0,0-.67.14h0Z"/><path d="M9.85,21.86a0.45,0.45,0,0,1,0-.41l0,0,0,0a0.42,0.42,0,0,0,0,.37l0,0h0Z"/><path d="M6.5,21a0.83,0.83,0,0,1-.32-0.06,0.69,0.69,0,0,0-.32-0.06v0a0.76,0.76,0,0,1,.34.06,0.81,0.81,0,0,0,.3.06,2.31,2.31,0,0,0,.66-0.14l0.28-.08v0l-0.27.08A2.35,2.35,0,0,1,6.5,21h0Z"/><path d="M4,12.3l-0.08,0,0,0a0.27,0.27,0,0,0,.33-0.17l0,0A0.37,0.37,0,0,1,4,12.3H4Z"/><path d="M4.09,16H4a0.29,0.29,0,0,0-.23-0.28v0a0.32,0.32,0,0,1,.26.34h0Z"/><path d="M5,11.85H5a0.08,0.08,0,0,1,0-.07H5a0,0,0,0,0,0,0,0.4,0.4,0,0,0,.31-0.14l0,0a0.64,0.64,0,0,1-.31.16H5Z"/><path d="M5.39,13.54a0.92,0.92,0,0,1-.07-1l0,0a0.91,0.91,0,0,0,0,.89l0,0h0Z"/><path d="M5.9,12.6h0a0.37,0.37,0,0,1-.21-0.2l0,0a0.33,0.33,0,0,0,.17.17,0.16,0.16,0,0,0,.13,0l0,0a0.21,0.21,0,0,1-.14.06h0Z"/><polygon points="5.36 10.44 5.11 10.04 5.35 9.96 5.36 10 5.18 10.07 5.4 10.41 5.36 10.44 5.36 10.44"/><path d="M7.75,9.26l0,0A0.36,0.36,0,0,0,7.88,9a1.16,1.16,0,0,0-.22-0.42l0,0A1.16,1.16,0,0,1,7.93,9a0.4,0.4,0,0,1-.18.3h0Z"/><path d="M7.21,9.35l0,0a0.46,0.46,0,0,0,.24-0.16,2.78,2.78,0,0,1,.06-0.28h0a2.61,2.61,0,0,0-.06.27,0.45,0.45,0,0,1-.27.2h0Z"/><path d="M10.42,8.41l0,0A0.64,0.64,0,0,0,10.53,8l0,0a0.56,0.56,0,0,1-.15.38h0Z"/><path d="M9.6,8.77a6.38,6.38,0,0,0-.66-0.12,0.86,0.86,0,0,0-.55,0v0a0.93,0.93,0,0,1,.58,0,4.79,4.79,0,0,1,.65.11,1.9,1.9,0,0,0,.53-0.15l0,0a1.83,1.83,0,0,1-.56.15h0Z"/><path d="M9,9a0.35,0.35,0,0,1-.14,0A0.4,0.4,0,0,1,8.6,8.59h0a0.36,0.36,0,0,0,.22.33,0.42,0.42,0,0,0,.51-0.27l0,0A0.54,0.54,0,0,1,9,9H9Z"/><path d="M8.77,8.58L9.2,8.66s-0.3.4-.43-0.08h0Z"/><path d="M9,8.85a0.27,0.27,0,0,1-.21-0.26,0,0,0,0,1,0,0h0L9.2,8.64l0,0a0,0,0,0,1,0,0A0.41,0.41,0,0,1,9,8.85H9ZM8.8,8.62A0.2,0.2,0,0,0,9,8.8a0.31,0.31,0,0,0,.19-0.12L8.8,8.62h0Z"/><path d="M9.91,10.89l0,0L9.32,9.8a0,0,0,0,1,0,0,0,0,0,0,1,0,0l0.54,1,0.24-.36h0l0,0,0.12,0.23,0.2-.36h0l0.33,0.21-0.13-.41a0,0,0,0,1,0,0h0l0.29,0a0.47,0.47,0,0,0-.35-0.23l0,0a0,0,0,0,1,0,0l0.33-.23a0.58,0.58,0,0,0-.36-0.15l0,0a0,0,0,0,1,0,0,1.42,1.42,0,0,0,.16-0.26h0L10.62,9a0,0,0,0,1,0,0,0,0,0,0,1,0,0L10.8,9a1.24,1.24,0,0,0,.82-0.11,0,0,0,0,1,0,.05,1.23,1.23,0,0,1-.76.13,0.92,0.92,0,0,1-.13.25,0.65,0.65,0,0,1,.37.2,0,0,0,0,1,0,0v0l-0.3.2a0.51,0.51,0,0,1,.35.29,0,0,0,0,1,0,0h0l-0.3,0L11,10.58a0,0,0,0,1,0,0h0l-0.37-.24-0.21.38s0,0,0,0l0,0-0.12-.23-0.24.36h0Z"/><path d="M7.51,10.56v0H8.37a1.16,1.16,0,0,0,.36-0.11,1.43,1.43,0,0,1,.88-0.15v0a1.39,1.39,0,0,0-.85.15,1.18,1.18,0,0,1-.38.12H7.51Z"/><path d="M8.06,10.54L8,10.41l-0.14.12H7.76L7.7,10.41l0,0.11h0a1,1,0,0,1,.07-0.18l0,0h0l0,0,0.06,0.15H7.84L8,10.35H8L8.08,10.5l0,0,0.07-.18s0,0,0,0h0l0.07,0.15,0.15-.25h0l0.14,0.18,0.05-.21,0,0h0l0.14,0.14L9,10.11l0,0H9l0.14,0.12,0.07-.16,0,0h0l0.09,0.17,0,0-0.06-.13-0.06.14h0L9,10.16l-0.07.19,0,0h0l-0.14-.14-0.05.22,0,0h0l-0.15-.19-0.16.26h0l-0.07-.14-0.07.14H8.06Z"/><path d="M11.24,8.81a0.73,0.73,0,0,1-.41-0.12,0.11,0.11,0,0,1,0-.09,0.79,0.79,0,0,1,.48-0.36,4.66,4.66,0,0,0,.65-0.49l0,0a4.42,4.42,0,0,1-.67.51,0.74,0.74,0,0,0-.46.32,0.07,0.07,0,0,0,0,.06,0.66,0.66,0,0,0,.38.11v0h0Z"/><path d="M11.36,8l0,0a0.41,0.41,0,0,1,.41-0.08V8a0.37,0.37,0,0,0-.36.07h0Z"/><path d="M8.83,18.13a1.22,1.22,0,0,1-.72-1.21,1.22,1.22,0,0,1-.33-0.83h0a1.27,1.27,0,0,0,.33.81,1.18,1.18,0,0,0,.69,1.18l0,0h0Z"/><path d="M8.13,17A2.56,2.56,0,0,1,5.68,15.4,0.37,0.37,0,0,1,5.8,15l0,0a0.33,0.33,0,0,0-.1.38,2.51,2.51,0,0,0,2.41,1.52v0h0Z"/><path d="M7.52,16.85l0,0a1.13,1.13,0,0,0,0-.65l0,0a1.15,1.15,0,0,1,0,.69h0Z"/><path d="M6.69,16.5h0A3.39,3.39,0,0,1,6.85,16l0,0a3.51,3.51,0,0,0-.21.49h0Z"/><path d="M6,16l0,0a0.87,0.87,0,0,0,.28-0.34l0,0A0.9,0.9,0,0,1,6,16H6Z"/><path d="M13.6,13.54v0s0.55,0,1.09-1.5c0.37-1.41,2.48-2.91,3.87-3.89a4.72,4.72,0,0,0,1.11-.9h0a4.17,4.17,0,0,1-1.13.93c-1.38,1-3.48,2.47-3.85,3.87-0.56,1.51-1.11,1.53-1.13,1.53h0Z"/><path d="M15.18,11.1h0a0,0,0,0,1,0,0c0.58-.32,2-0.88,3.39-1.41L20.19,9a0,0,0,0,1,0,0,0,0,0,0,1,0,0l-1.63.64c-1.38.54-2.81,1.09-3.38,1.41h0Z"/><path d="M13,17.31h0a0.35,0.35,0,0,1,0-.22,7.46,7.46,0,0,1,.2-2.55,6.16,6.16,0,0,0-1.51,1.83l-0.08.18c0,0.07,0,.14,0,0.22a0,0,0,0,1,0,0h0a0.32,0.32,0,0,1,0-.24,7.39,7.39,0,0,1,.9-2.15A7.23,7.23,0,0,0,9.29,16h0a0,0,0,0,1,0,0,4.86,4.86,0,0,1,2.6-2.16v0a5,5,0,0,0-2.51,2,7.2,7.2,0,0,1,3.08-1.59h0a0,0,0,0,1,0,0,10,10,0,0,0-.87,2,5.65,5.65,0,0,1,1.61-1.88,0.08,0.08,0,0,1,.08,0,0,0,0,0,1,0,0,0,0,0,0,1,0,0h0A5.43,5.43,0,0,0,13,16.85a9.26,9.26,0,0,1,.29-1,6.68,6.68,0,0,1,.73-1.7,17.76,17.76,0,0,1,.91,2.7v0a9.49,9.49,0,0,0-.48-3,0,0,0,0,1,0,0l0,0a15.48,15.48,0,0,1,2.43,2.46,6.64,6.64,0,0,0-2-2.72v0a0,0,0,0,1,0,0,17.47,17.47,0,0,1,4.22,1.73,15.1,15.1,0,0,0-3.78-2.36,0,0,0,0,1,0,0,0,0,0,0,1,0,0,22.88,22.88,0,0,1,5.75.54c-0.72-.54-4-1.1-5.63-1h0a0,0,0,0,1,0,0c0.24-.29,4-1.21,7.1-1.94-1.11.12-5.53,0.87-6.69,1.22h0a0,0,0,0,1,0,0c0.11-.19,7-3.43,7.84-3.8l0,0c-2,.92-6.88,3.23-7.7,3.71a60.55,60.55,0,0,1,6.84-1.19,0,0,0,0,1,0,0l0,0-0.2,0a56.14,56.14,0,0,0-7.07,1.89c1.74,0,5.14.57,5.67,1.12a0,0,0,0,1,0,0h0a24.67,24.67,0,0,0-5.73-.58c0.92,0.31,3.77,2.16,3.77,2.48a0,0,0,0,1,0,0h0A19.81,19.81,0,0,0,15,13.47a6.27,6.27,0,0,1,2,2.82,0,0,0,0,1,0,0h0a16.49,16.49,0,0,0-2.46-2.52,8.85,8.85,0,0,1,.49,3,0.14,0.14,0,0,1-.06.1h0v0A20.11,20.11,0,0,0,14,14.16a12.64,12.64,0,0,0-.88,2.37,3.35,3.35,0,0,0-.11.54c0,0.07,0,.14,0,0.2a0,0,0,0,1,0,0h0Z"/><polygon points="9.75 10.58 9.29 10.57 9.29 10.52 9.75 10.53 9.75 10.58 9.75 10.58"/><path d="M7.55,9.74H7.45l0,0A1.14,1.14,0,0,0,8.4,9.29l0,0a1.5,1.5,0,0,1-.88.41h0Z"/><path d="M9.52,15.59a10.7,10.7,0,0,1,.82-4.88l0,0a5.46,5.46,0,0,0,.67,3.4,0.11,0.11,0,0,0,.06,0h0v0a0.17,0.17,0,0,1-.1-0.06,5.51,5.51,0,0,1-.69-3.34,11.78,11.78,0,0,0-.76,4.73l0,0h0Z"/><path d="M10,11.23a1,1,0,0,1-.62-0.31l0,0a0.87,0.87,0,0,0,.67.28v0H10Z"/><path d="M9.84,12.05A1,1,0,0,1,9,11.72l0,0a0.94,0.94,0,0,0,.76.31v0h0Z"/><path d="M9.57,12.9a1.29,1.29,0,0,1-.88-0.45l0,0a1.19,1.19,0,0,0,1,.42v0H9.57Z"/><path d="M9.56,13.73c-1.11,0-1.24-.4-1.25-0.42h0s0.13,0.36,1.2.38v0h0Z"/><path d="M9.13,14.73A1.78,1.78,0,0,1,8,14.38l0,0a1.87,1.87,0,0,0,1.46.31v0l-0.37,0h0Z"/><path d="M8.67,15.85a1.36,1.36,0,0,1-.61-0.13l0,0a1.5,1.5,0,0,0,1.45-.13l0,0a1.68,1.68,0,0,1-.89.26h0Z"/><path d="M13,17.32a1,1,0,0,0-.85-0.44,0.78,0.78,0,0,0-.55.24v0l0,0a2,2,0,0,1-.06-0.92,2.86,2.86,0,0,0-.85.65l0,0.05V16.87c0-.21,0-0.53,0-0.74V16a6,6,0,0,1-1.31.08v0a5.83,5.83,0,0,0,1.32-.08h0v0.21c0,0.19,0,.47,0,0.67a3,3,0,0,1,.86-0.63l0,0v0a4.2,4.2,0,0,0,0,.91,0.71,0.71,0,0,1,.58-0.27,1,1,0,0,1,.85.4,0.63,0.63,0,0,1,.37-0.52,1.43,1.43,0,0,1,1.55.22,1,1,0,0,0,.35-0.24c0.22-.21.46-0.44,1.72-0.35,0-.43.78-1.08,2.18-1.08h0a0.76,0.76,0,0,1,.06-1l0,0a0.71,0.71,0,0,0,0,1l0,0h0c-1.37,0-2.17.6-2.23,1.06-1.27-.07-1.5.16-1.71,0.36a0.87,0.87,0,0,1-.39.25,1.43,1.43,0,0,0-1.52-.21,0.56,0.56,0,0,0-.34.56l0,0h0Z"/><path d="M10.08,17.56a0.77,0.77,0,0,1-.67-0.9A1.34,1.34,0,0,1,9.67,16l0,0a1.34,1.34,0,0,0-.2,1,0.79,0.79,0,0,0,.61.49v0h0Z"/><path d="M11.3,17.4a0.27,0.27,0,0,1-.25-0.25,0.29,0.29,0,0,1,.16-0.35,0.63,0.63,0,0,0,.26-0.08l0,0a0.73,0.73,0,0,1-.28.08,0.25,0.25,0,0,0-.11.29,0.22,0.22,0,0,0,.22.22c0.08-.11.19-0.27,0.19-0.27l0,0a3.29,3.29,0,0,1-.21.28h0Z"/><path d="M11,17.64a0.25,0.25,0,0,1-.27-0.23A0.45,0.45,0,0,1,10.81,17h0l0,0a0.15,0.15,0,0,0,.1,0A0.11,0.11,0,0,0,11,17l0,0a0.16,0.16,0,0,1-.1.06,0.19,0.19,0,0,1-.15-0.06h0a0.39,0.39,0,0,0-.09.32,0.22,0.22,0,0,0,.22.22,0.43,0.43,0,0,1,.31-0.25v0a0.46,0.46,0,0,0-.3.24h0Z"/><path d="M10.51,17.75a0.13,0.13,0,0,1-.08,0,0.17,0.17,0,0,1,0-.2,0.34,0.34,0,0,1,.31-0.23v0a0.29,0.29,0,0,0-.26.2,0.13,0.13,0,0,0,0,.14s0.11,0.05.37-.14l0,0a0.66,0.66,0,0,1-.35.16h0Z"/><path d="M10.42,18.18h0a0.37,0.37,0,0,1-.19-0.32,0.31,0.31,0,0,1-.12-0.32,0.22,0.22,0,0,1,.08-0.23,0.39,0.39,0,0,1,.32.09l0,0a0.33,0.33,0,0,0-.26-0.09,0.19,0.19,0,0,0-.06.18,0.3,0.3,0,0,0,.1.29,0.39,0.39,0,0,0,.17.3A0.12,0.12,0,0,0,10.51,18a0.35,0.35,0,0,0,0-.3l0,0a0.39,0.39,0,0,1,0,.35,0.17,0.17,0,0,1-.14.11h0Z"/><path d="M8.68,20.3l-0.07,0A0.36,0.36,0,0,1,8.47,20h0v0h0a0.31,0.31,0,0,0,.12.23,0.27,0.27,0,0,0,.25-0.13l0.35-.7c0.32-.63.72-1.41,0.84-1.75l0,0C10,18,9.61,18.8,9.29,19.43l-0.36.71a0.39,0.39,0,0,1-.25.16h0Z"/><path d="M9.81,18.3a1,1,0,0,1-.59-0.22,0.69,0.69,0,0,1,0-.57,0.6,0.6,0,0,1,.34-0.27v0a0.55,0.55,0,0,0-.31.25,0.65,0.65,0,0,0,0,.52,0.87,0.87,0,0,0,.6.2v0H9.81Z"/><path d="M9.59,18.71a1.36,1.36,0,0,1-.42-0.12l0,0a0.88,0.88,0,0,0,.47.1l0,0-0.09,0h0Z"/><path d="M9.19,19.43a0.44,0.44,0,0,1-.32-0.22l0,0a0.32,0.32,0,0,0,.36.18l0,0-0.11,0h0Z"/><path d="M11.67,18.84A1,1,0,0,1,11.62,18a2,2,0,0,0,.18-1h0A2,2,0,0,1,11.66,18a1,1,0,0,0,.06.82l0,0h0Z"/><path d="M12.27,18.48l0,0a2.91,2.91,0,0,0,.16-1.56l0,0a3,3,0,0,1-.16,1.61h0Z"/><path d="M13.6,18l0,0a1.25,1.25,0,0,0,0-1.27l0,0a1.27,1.27,0,0,1,0,1.33h0Z"/><path d="M14.26,18l0,0a2.58,2.58,0,0,0,.62-1l0,0a2.57,2.57,0,0,1-.64,1h0Z"/><path d="M17.19,19a1.34,1.34,0,0,1-1.26-.51,1.91,1.91,0,0,1,.21-1.6l0,0A1.9,1.9,0,0,0,16,18.5a1.3,1.3,0,0,0,1.22.48v0h0Z"/><path d="M15.81,17.92a2.87,2.87,0,0,0-1.3-.22l0,0,0,0a2.69,2.69,0,0,1,1.35.25l0,0h0Z"/><path d="M14.92,19l0,0,0.09,0a1.59,1.59,0,0,0,1-.39l0,0A1.58,1.58,0,0,1,15,19H14.92Z"/><path d="M16,19.46v0a1.12,1.12,0,0,0,.42-0.4,0.14,0.14,0,0,0,0-.11l0,0a0.22,0.22,0,0,1,0,.22,1.26,1.26,0,0,1-.42.36h0Z"/><path d="M14.69,17.57h-0.1v0a1.3,1.3,0,0,0,.93-0.35,1,1,0,0,0,.36-0.81h0a1,1,0,0,1-.38.85,1.46,1.46,0,0,1-.88.38h0Z"/><path d="M16.34,17a1.31,1.31,0,0,1-.51-0.1l0,0a1.17,1.17,0,0,0,1.26-.2l0,0a1.15,1.15,0,0,1-.8.32h0Z"/><path d="M18.09,16.94a0.45,0.45,0,0,0-.54-0.12,0.82,0.82,0,0,1-.6-0.45l0,0a0.76,0.76,0,0,0,.55.43,0.5,0.5,0,0,1,.59.14l0,0h0Z"/><path d="M22.62,20.42a0.48,0.48,0,0,1-.24-0.08l0,0a0.32,0.32,0,0,0,.32,0A2.08,2.08,0,0,0,23.11,19c-0.09-1.66-.65-1.78-1.88-2.05-0.27-.06-0.58-0.13-0.92-0.22a1.58,1.58,0,0,1-1.63-1.43h0a1.54,1.54,0,0,0,1.59,1.38c0.34,0.09.65,0.16,0.92,0.22,1.22,0.27,1.83.4,1.91,2.1a2,2,0,0,1-.41,1.4,0.27,0.27,0,0,1-.13,0h0Z"/><path d="M22.82,19.84a0.4,0.4,0,0,1-.23-0.09l0,0a0.34,0.34,0,0,0,.24.07A0.27,0.27,0,0,0,23,19.64l0,0a0.32,0.32,0,0,1-.22.16h0Z"/><path d="M22.7,19.15H22.63v0a0.44,0.44,0,0,0,.46-0.25l0,0a0.48,0.48,0,0,1-.45.28h0Z"/><path d="M22.7,18.38l-0.16,0v0A0.42,0.42,0,0,0,23,18.18l0,0a0.36,0.36,0,0,1-.35.18h0Z"/><path d="M22.19,18l0,0a2.58,2.58,0,0,0,.37-0.58l0,0a2.7,2.7,0,0,1-.39.6h0Z"/><path d="M21.63,17.86l0,0A1.28,1.28,0,0,0,21.82,17h0a1.3,1.3,0,0,1-.24.82h0Z"/><path d="M20.68,17.73l0,0A1.15,1.15,0,0,0,21,16.9h0a1.18,1.18,0,0,1-.41.83h0Z"/><path d="M19.64,17.58l0,0a1.42,1.42,0,0,0,.47-0.87l0,0a1.42,1.42,0,0,1-.47.93h0Z"/><path d="M18.68,17.17v0a0.88,0.88,0,0,0,.72-0.74h0a0.93,0.93,0,0,1-.76.78h0Z"/><path d="M9.5,15.13l0,0a3.34,3.34,0,0,0,1.33-1.31h0A3.29,3.29,0,0,1,9.5,15.13h0Z"/><path d="M9.56,14.46l-0.05,0,0,0a1.76,1.76,0,0,0,1.09-1.06l0,0a1.81,1.81,0,0,1-1.12,1.09h0Z"/><path d="M9.56,14h0l0,0h0a1.92,1.92,0,0,0,.93-1h0a1.86,1.86,0,0,1-.85,1,0.32,0.32,0,0,1-.13.06h0Z"/><path d="M9.61,13.42v0a1.9,1.9,0,0,0,.79-0.92h0a1.92,1.92,0,0,1-.83.95h0Z"/><path d="M9.73,12.81l0,0a3.06,3.06,0,0,0,.63-0.63l0,0a3.11,3.11,0,0,1-.64.64h0Z"/><path d="M9.92,12.17h0a0.09,0.09,0,0,1-.06-0.09h0s0,0,0,0a0.74,0.74,0,0,0,.4-0.31l0,0a0.87,0.87,0,0,1-.43.33h0Z"/><polygon points="10.71 14.48 10.55 14.29 10.59 14.26 10.74 14.45 10.71 14.48 10.71 14.48"/><polygon points="10.33 14.75 10.23 14.59 10.27 14.56 10.37 14.72 10.33 14.75 10.33 14.75"/><path d="M10,15.06a0.68,0.68,0,0,1-.13-0.19h0L10,15l0,0h0Z"/><path d="M9.81,15.27A0.3,0.3,0,0,1,9.66,15h0a0.25,0.25,0,0,0,.11.24v0h0Z"/><path d="M10,14.79h0a0.85,0.85,0,0,1-.23-0.41h0a0.8,0.8,0,0,0,.2.38l0.05,0h0Z"/><path d="M10.22,14.59l-0.15-.44,0,0,0.15,0.44,0,0h0Z"/><polygon points="10.56 14.24 10.37 13.87 10.42 13.85 10.6 14.22 10.56 14.24 10.56 14.24"/><path d="M10.43,13.78a0.53,0.53,0,0,1-.25-0.24l0,0v0a0.53,0.53,0,0,0,.21.22h0l0,0h0Z"/><path d="M10.11,14.16h0a0.91,0.91,0,0,1-.18-0.4h0a0.92,0.92,0,0,0,.15.37l0,0h0Z"/><polygon points="9.72 14.39 9.52 14.09 9.56 14.06 9.76 14.36 9.72 14.39 9.72 14.39"/><path d="M10,13.71a0.86,0.86,0,0,1-.16-0.45h0a1.29,1.29,0,0,0,.11.41v0h0Z"/><path d="M10.3,13.41a1.83,1.83,0,0,1-.24-0.4h0s0.18,0.34.2,0.37v0h0Z"/><path d="M9.89,13.21L9.68,13v0a0.82,0.82,0,0,1,.23.25l0,0h0Z"/><path d="M10.16,12.89L10,12.6l0,0,0.18,0.3,0,0h0Z"/><path d="M10.16,12.43a0.44,0.44,0,0,1-.09-0.36h0a0.66,0.66,0,0,0,0,.31v0h0Z"/><polygon points="10.08 12.07 9.91 11.83 9.95 11.8 10.12 12.05 10.08 12.07 10.08 12.07"/></svg>