<svg xmlns="http://www.w3.org/2000/svg" viewBox="0 0 30 30"><defs><style>.a{fill:#162818;}.b{fill:#0ca54f;}.c,.d{fill:#34461e;}.d,.e{fill-rule:evenodd;}.e{fill:#f6eb16;}</style></defs><title>slices_fixtures_v03</title><path class="a" d="M1.59,0V9.93c0,7.79,2.89,12.66,5.31,15.37C9.78,28.53,13.12,30,15,30s5.22-1.47,8.1-4.7c2.42-2.71,5.31-7.58,5.31-15.37V0H1.59Z"/><path class="b" d="M15,29.1c3.13,0,12.51-5.33,12.51-19.17v-9h-25v9C2.49,23.77,11.87,29.1,15,29.1Z"/><path class="c" d="M26.31,2.38L25.9,2.23a1.94,1.94,0,0,0-.78-0.16h0a1,1,0,0,0-.76-0.41,2.49,2.49,0,0,0-2,.66,7.63,7.63,0,0,0-1.44,1.93A33.94,33.94,0,0,0,17.59,8V8l-0.22.17c-1.07,1.34-4.7,5.43-6.87,7.85l-0.3.33h0l-2.66,3a1.8,1.8,0,0,1-1,.63,2.22,2.22,0,0,1-.46.11,2.38,2.38,0,0,0,.47.18,2.69,2.69,0,0,0,1.4-.18,2.35,2.35,0,0,0-.21,1.62,1,1,0,0,0,.18.4A1.58,1.58,0,0,1,8,21.69a3.53,3.53,0,0,1,.78-1.35c0.6-.73,1.35-1.58,2-2.25s0.9-1,1.09-1.25h0L12,16.63a4.69,4.69,0,0,1,2.19-1.75l0.32-.07c0.42,0,.84.05,1.26,0.05l-0.43.81,0.42,1.63A4.8,4.8,0,1,0,17.53,17h-0.2L17.07,15.8l0.65-1.08a10,10,0,0,0,3.51-1.1A7.46,7.46,0,0,0,25,8.12a20,20,0,0,0,.28-3.67c0-.27,0-0.54,0-0.8V3.53A2.57,2.57,0,0,0,25.94,3c0.1-.11.2-0.21,0.31-0.31l0.14-.12,0.13-.11ZM11.77,15.83h0l0,0v0ZM16.68,17h0l-0.27.06L16,15.69l0.49-.85,0.47,0-0.59.9Z"/><path class="c" d="M15.17,8.68A1.34,1.34,0,0,0,15,8.05l-0.15-.29-0.12.31a0.62,0.62,0,0,1-.11.18l0,0a1.73,1.73,0,0,0-1.62-.36L13,7.76l0.29,0a1.28,1.28,0,0,0,1.48-1h0a0.85,0.85,0,0,0-.34-0.64,1,1,0,0,0-.32-0.17,3.08,3.08,0,0,1,.77.2l0.24,0.12,0-.27C15,5.42,14.78,5.37,14.53,5.39h0L14.3,5.26A2.08,2.08,0,0,0,13,4.8a0.24,0.24,0,0,0-.2.1,0.26,0.26,0,0,0,0,.15,0.5,0.5,0,0,0,0,.13l-0.2,0c-2.25-.37-3.56-0.37-4.12,0a0.93,0.93,0,0,0-.43.74,0.75,0.75,0,0,0,.13.42,0.87,0.87,0,0,0,.49.34,5.41,5.41,0,0,0-1.55.17h0A1.81,1.81,0,0,1,6.7,7a9.58,9.58,0,0,0,.63-1.4l0-.17-0.17,0a0.83,0.83,0,0,0-.4.1A1.29,1.29,0,0,0,6.74,5.1L6.69,5,6.56,5a1.07,1.07,0,0,0-.35.19,0.78,0.78,0,0,0-.09-0.27l-0.2-.39L5.85,5l-0.13.18a1.26,1.26,0,0,0-.13.18,3.69,3.69,0,0,0-.7,1.75h0s0,0.06,0,.1a3.14,3.14,0,0,0,0,.49,0.5,0.5,0,0,1-.62-0.24,1.51,1.51,0,0,1,0-1V6.4A0.57,0.57,0,0,1,4.66,5.9,1.35,1.35,0,0,0,5,5.22l0.07-.36-0.3.21a2.24,2.24,0,0,1-.54.2A0.63,0.63,0,0,0,3.63,4.8H3.36L3.49,5a0.75,0.75,0,0,1,.1.35L3.44,5.3a0.17,0.17,0,0,0-.22,0l0,0.05V5.42a2.5,2.5,0,0,0,.1.55L3.16,5.82l-0.06.31a1.29,1.29,0,0,0,0,.26A1,1,0,0,0,3.25,7L3.17,7,2.89,6.78,2.94,7.1a1.06,1.06,0,0,0,.56.7v0a0.23,0.23,0,0,1-.15,0H3.1L3.21,8.07a1.28,1.28,0,0,0,1.18.59A1.64,1.64,0,0,0,5,8.55,0.64,0.64,0,0,1,4.83,9a0.27,0.27,0,0,1-.26,0,1.69,1.69,0,0,1-.64-0.25h0a1,1,0,0,0-1,0l-0.37.16L3,9,3,9l-0.42.21L2.9,9.37,3.06,9.46l-0.64.47L3,9.87c0.26,0,.47-0.07.64-0.1A2,2,0,0,1,4,9.71H4a1,1,0,0,1,0,.22l0,0.19H4.07A1.6,1.6,0,0,0,4.7,9.89H4.76l0.12,0a0.17,0.17,0,0,1,0,.06v0.15H5a0.71,0.71,0,0,0,.49-0.44,0.14,0.14,0,0,1,.09,0,0.26,0.26,0,0,1,.1.24v0.23L5.92,10a0.93,0.93,0,0,0,.54-0.74,1.4,1.4,0,0,0,0-.23,1.41,1.41,0,0,0,0-.25,3.68,3.68,0,0,0,2.81-.52,2.21,2.21,0,0,1,.95-0.37h0.17L10.24,8a0.41,0.41,0,0,0-.22.28,0.7,0.7,0,0,0,0,.21,0.6,0.6,0,0,0,.37.53l0.08,0a2.14,2.14,0,0,1,.38.19,1.78,1.78,0,0,1-.67-0.33L10,8.77a2.25,2.25,0,0,0-1-.17l-0.21.06L8.85,8.84a2.23,2.23,0,0,0,.22.23l0,0a1.86,1.86,0,0,0-.61.2l-0.43.25,0.73,0H8.89a1.74,1.74,0,0,0-.24.2l-0.13.14L8.69,10a1.77,1.77,0,0,0,1.46-.18,2.92,2.92,0,0,0,1.66-.09h0l0,0a2.66,2.66,0,0,0,.44-0.89l0-.07a3.26,3.26,0,0,1,1.38-.19h0a0.87,0.87,0,0,0-.12.39,0.37,0.37,0,0,0,.07.22,0.43,0.43,0,0,0,.41.14l0.06,0.09a2.87,2.87,0,0,0,.37.46l0.4,0.35-0.15-.51L14.7,9.55a1,1,0,0,1-.05-0.17,0.48,0.48,0,0,0,.23-0.09A0.74,0.74,0,0,0,15.17,8.68ZM10.28,5.59a0.33,0.33,0,0,0-.17.27h0a0.33,0.33,0,0,0,.1.22A3.63,3.63,0,0,1,9,6a0.24,0.24,0,0,1-.19-0.15h0A0.29,0.29,0,0,1,9,5.65a3.41,3.41,0,0,1,1.1-.15,19.63,19.63,0,0,1,2.27.2l0.93,0.11,0.52,0.06h0a3.24,3.24,0,0,0-.76,0,5.47,5.47,0,0,1-1.09,0,4.31,4.31,0,0,1-.6-0.13,2.68,2.68,0,0,0-1-.12h0Zm0.07,1.1,2.31-.19h0.13a2.88,2.88,0,0,1,1,.09,0.31,0.31,0,0,1,.15.1h0a0.33,0.33,0,0,1-.08.15A1.7,1.7,0,0,1,12.74,7,13.62,13.62,0,0,0,10.34,6.7Z"/><path class="d" d="M5.86,2.48H5V2H3.3V4.62H8.65v-1H9.78v1h5.37V2H13.49V2.48h-0.9V2H10.92V2.48H10.08V2H8.35V2.48H7.54V2H5.86V2.48Zm0,0.66V3.6H5.75V3.14H5.86Zm6.84,0V3.62H12.59V3.16h0.11Z"/><path class="e" d="M14.86,8.12a0.42,0.42,0,0,1-.28.3,1.74,1.74,0,0,0-1.89-.37,1.8,1.8,0,0,1,.23-0.44c0.62-.09,1.55.07,1.71-0.89A0.77,0.77,0,0,0,13.83,6C13.37,5.92,12.78,6.09,12,6a5.76,5.76,0,0,0-1.61-.26C10,6,10.73,6.17,10.55,6.2A4.09,4.09,0,0,1,9,6.17C8.57,6,8.66,5.66,9,5.51a3.57,3.57,0,0,1,1.16-.16c1,0,2.18.2,3.21,0.31A5.76,5.76,0,0,1,14.95,6c-0.05-.52-0.3-0.43-0.46-0.42A2.65,2.65,0,0,0,13,4.95c-0.19,0,0,.28,0,0.35a0.86,0.86,0,0,1-.42,0c-1.49-.25-3.34-0.47-4,0a0.69,0.69,0,0,0-.26,1,1.61,1.61,0,0,0,1.39.35l2.93-.24a3.49,3.49,0,0,1,1.24.11c0.19,0.1.35,0.2,0.11,0.51a1.81,1.81,0,0,1-1.29.14,13.23,13.23,0,0,0-2.84-.27A9.3,9.3,0,0,0,7.18,7a2,2,0,0,1-.74.16,13,13,0,0,0,.75-1.61,1.37,1.37,0,0,0-.54.19,1.25,1.25,0,0,0,0-.56,1.64,1.64,0,0,0-.54.39A1.11,1.11,0,0,0,6,5c0,0.05-.25.34-0.27,0.39A3.56,3.56,0,0,0,5,7.09a3,3,0,0,0,.06.68,0.66,0.66,0,0,1-.91-0.26,1.72,1.72,0,0,1,0-1.14,0.71,0.71,0,0,1,.43-0.6,1.27,1.27,0,0,0,.28-0.58,3,3,0,0,1-.72.25A0.56,0.56,0,0,0,3.62,5a1.35,1.35,0,0,1,.14.58,0.66,0.66,0,0,1-.43-0.13,2.55,2.55,0,0,0,.2.83c-0.15.06-.15,0.1-0.29-0.08a0.91,0.91,0,0,0,.39,1,0.94,0.94,0,0,1-.54-0.08,0.83,0.83,0,0,0,.57.61A0.26,0.26,0,0,1,3.34,8a1.3,1.3,0,0,0,1.83.24c0,0.41-.09,1-0.65.89a2.13,2.13,0,0,1-.71-0.29,0.8,0.8,0,0,0-.82,0,0.42,0.42,0,0,1,.29.24C3.17,9.14,3.06,9.19,3,9.24L3.34,9.43,3,9.72c1-.12,1.27-0.39,1.11.25a1.46,1.46,0,0,0,.57-0.22C4.74,9.75,5,9.58,5,9.92a0.58,0.58,0,0,0,.36-0.4c0.1-.1.46-0.06,0.46,0.36a1,1,0,0,0,.35-1.32A3.28,3.28,0,0,0,8,8.66C9.13,8.4,9.31,7.87,10.2,7.76a4.21,4.21,0,0,1,1.3.09c0.26,0,.35.32,0,0.19a1.2,1.2,0,0,0-1.31.22,0.44,0.44,0,0,0,.25.58c0.06,0,.71.26,0.57,0.43S10.08,9,9.9,8.9A2.17,2.17,0,0,0,9,8.75a1.6,1.6,0,0,1,.39.46,2.23,2.23,0,0,0-.79.21,1.39,1.39,0,0,1,.69.1,2.06,2.06,0,0,0-.5.37,1.71,1.71,0,0,0,1.36-.2,2.84,2.84,0,0,0,1.63-.08,3.23,3.23,0,0,0,.47-1c0.66-.16,1.78-0.44,1.64,0s-0.15.64,0.29,0.55a4.88,4.88,0,0,0,.47.59,1,1,0,0,1-.12-0.57C14.66,9.38,15.31,9,14.86,8.12ZM5.51,6.05a0.51,0.51,0,0,1,.35.19c-0.05,0-.45.09-0.5,0.09ZM5.2,7.16a1.4,1.4,0,0,1,.67-0.28,3.29,3.29,0,0,0,.42.41A5.59,5.59,0,0,1,5.2,7.16Zm1-.83,0.47,0-0.15.28A0.66,0.66,0,0,1,6.2,6.33Z"/><path class="e" d="M13.64,2.14V2.63h-1.2V2.14H11.07V2.63H9.93V2.14H8.5V2.63H7.39V2.14H6V2.63H4.82V2.14H3.45V4.47h5v-1H9.93v1H15V2.14H13.64ZM6,3.75H5.6V3H6V3.75Zm6.84,0H12.44V3h0.41V3.77Z"/><path class="e" d="M17.41,17.1h0.12a4.66,4.66,0,1,1-.85.08L17,18.63a2,2,0,0,0-1.41,1.14,3.08,3.08,0,0,1,1.66-.57c0.31,0.47.56,1.12,1,1.66a3,3,0,0,0-.08-1.44,5.56,5.56,0,0,1,1.57.92,1.53,1.53,0,0,0-1.17-1.4c0.5,0,.94,0,1.44-0.05-0.45-.54-1.45-0.48-2.3-0.47L17.41,17.1h0Z"/><path class="e" d="M10.59,16.1c2.36-2.63,5.83-6.56,6.88-7.86L16.78,9.88c-1.2,1.49-3.34,3.83-4.85,5.57a2.43,2.43,0,0,1-1.34.64h0Z"/><path class="e" d="M25.19,3.41A1.18,1.18,0,0,1,25,2.8l1.1-.24a5.07,5.07,0,0,1-1,.85h0Z"/><path class="e" d="M25.13,3.64c-0.22,1-.62,2-1.85,1.85s-1.14-1.4-1-2.22l0.08,0c0,0.69-.1,1.74.79,2,0.93,0,1.58-.18,1.95-1.78A1.56,1.56,0,0,1,25,2.19a0.83,0.83,0,0,0-.67-0.37,2.35,2.35,0,0,0-1.89.62A7.43,7.43,0,0,0,21,4.35,33.71,33.71,0,0,0,17.71,8c-0.18.53-.55,1.34-0.7,1.76a3,3,0,0,0,3.4-1.16,9.13,9.13,0,0,0,3.52-.94V7.94a5.08,5.08,0,0,1-.92.44,5.59,5.59,0,0,1-2.4,3.74,8.55,8.55,0,0,1-4.14,1.36,4.46,4.46,0,0,1-1.93,1.18,12.08,12.08,0,0,0,6.63-1.17,7.34,7.34,0,0,0,3.7-5.4A22.61,22.61,0,0,0,25.13,3.64Zm-2.44-.49L23.31,3a0.69,0.69,0,0,1,1.38,0,0.69,0.69,0,0,1-.69.68,0.71,0.71,0,0,1-.66-0.47c-0.28,0-.54,0-0.65,0V3.15Z"/><path class="e" d="M25.06,2.64a1.65,1.65,0,0,1,.07-0.42,2.53,2.53,0,0,1,1,.23l-1,.18h0Z"/><path class="e" d="M16.13,10.94l0.74-.9c0.54,0.23,2,.63,3.65-1.12l0.41-.05a4.5,4.5,0,0,1-4.79,2.08h0Z"/><path class="e" d="M15.11,12.14l0.86-1a5.69,5.69,0,0,0,3.23-.42,4.62,4.62,0,0,0,2-1.91L22,8.65c-1.41,3.62-5.52,3.84-6.87,3.49h0Z"/><path class="e" d="M12.73,14.78l2.21-2.4c3.44,0.45,6-.77,7.29-3.78l0.55-.14c-0.62,3-3.31,4.6-6.41,4.82a5,5,0,0,1-3.64,1.5h0Z"/><path class="e" d="M11.89,16.53a1.78,1.78,0,0,1,.08-0.9l0.67-.71a6.7,6.7,0,0,0,1.5-.19,4.83,4.83,0,0,0-2.25,1.8h0Z"/><path class="e" d="M7.86,21.64A2.19,2.19,0,0,1,8.11,20l3.65-4.16a1.35,1.35,0,0,0,0,.85c-0.37.49-2,2.18-3.06,3.53a3.69,3.69,0,0,0-.81,1.4h0Z"/><path class="e" d="M6.55,20.08a2,2,0,0,0,1.11-.67l2.82-3.17a1.82,1.82,0,0,0,1.13-.38l-3.6,4a2.71,2.71,0,0,1-1.46.23h0Z"/><polygon class="e" points="15.91 17.22 15.51 15.68 15.92 14.9 16.31 14.89 15.87 15.67 16.24 17.15 15.91 17.22 15.91 17.22"/><path class="e" d="M17.32,19a3,3,0,0,0-1.34.33,2.19,2.19,0,0,1,1.22-.62l-0.65-3,0.55-.84,0.37,0-0.56.92c0.19,0.91.42,1.92,0.62,2.83a3.93,3.93,0,0,1,2.14.15c-0.34.1-1.07-.06-1.46,0.08-0.17,0,1.25.71,1.29,1.17a10.06,10.06,0,0,0-1.76-1,2.47,2.47,0,0,1,.39,1.46,12.18,12.18,0,0,0-.8-1.41h0Z"/><path class="e" d="M24,2.47A0.57,0.57,0,1,0,24.6,3,0.58,0.58,0,0,0,24,2.47Zm0,1A0.41,0.41,0,1,1,24.38,3,0.42,0.42,0,0,1,24,3.43Z"/><path class="d" d="M14.78,21.71l0.14,0a0.13,0.13,0,0,0,.14.09,0.18,0.18,0,0,0,.12,0,0.12,0.12,0,0,0,0-.09,0.12,0.12,0,0,0,0-.09,0.15,0.15,0,0,0-.1,0,0.21,0.21,0,0,0-.14.06l-0.14,0,0.08-.33h0.45v0.11H15l0,0.14a0.31,0.31,0,0,1,.16,0,0.28,0.28,0,0,1,.19.07,0.2,0.2,0,0,1,.08.16,0.21,0.21,0,0,1-.09.17,0.35,0.35,0,0,1-.22.07,0.33,0.33,0,0,1-.19-0.05,0.22,0.22,0,0,1-.1-0.14h0Z"/><path class="d" d="M14.7,21.31a0.31,0.31,0,0,0-.44,0,0.42,0.42,0,0,0,0,.5,0.31,0.31,0,0,0,.44,0A0.42,0.42,0,0,0,14.7,21.31Zm-0.22.48q-0.15,0-.15-0.23t0.15-.23q0.15,0,.15.23T14.48,21.79Z"/><path class="d" d="M14,21.3a0.3,0.3,0,0,0-.25-0.09,0.31,0.31,0,0,0-.2.06,0.21,0.21,0,0,0-.08.17,0.19,0.19,0,0,0,.07.16,0.28,0.28,0,0,0,.18.06A0.27,0.27,0,0,0,14,21.57a0.18,0.18,0,0,1-.19.21,0.1,0.1,0,0,1-.11-0.06l-0.15,0a0.23,0.23,0,0,0,.26.16,0.31,0.31,0,0,0,.25-0.1,0.4,0.4,0,0,0,.09-0.27A0.33,0.33,0,0,0,14,21.3Zm-0.13.21a0.16,0.16,0,0,1-.11,0,0.11,0.11,0,0,1-.14-0.12,0.1,0.1,0,0,1,0-.08,0.15,0.15,0,0,1,.1,0,0.18,0.18,0,0,1,.1,0,0.09,0.09,0,0,1,0,.08A0.11,0.11,0,0,1,13.91,21.51Z"/><path class="d" d="M13.26,21.88V21.43H13.14V21.34a0.32,0.32,0,0,0,.16-0.12h0.1v0.67H13.26Z"/></svg>