<?xml version="1.0" encoding="utf-8"?>
<!-- Generator: Adobe Illustrator 19.0.0, SVG Export Plug-In . SVG Version: 6.00 Build 0)  -->
<svg version="1.1" id="Layer_1" xmlns:sketch="http://www.bohemiancoding.com/sketch/ns"
	 xmlns="http://www.w3.org/2000/svg" xmlns:xlink="http://www.w3.org/1999/xlink" x="0px" y="0px" viewBox="-987 989 24 24"
	 style="enable-background:new -987 989 24 24;" xml:space="preserve">
<style type="text/css">
	.st0{fill:#00369C;}
</style>
<title></title>
<desc></desc>
<g id="miu">
	<g id="Artboard-1" transform="translate(-863.000000, -155.000000)">
		<g id="slice" transform="translate(215.000000, 119.000000)">
		</g>
		<path id="circle-sync-backup-2-outline-stroke" class="st0" d="M-104.3,1149.7c3.2,3.9,3,9.7-0.7,13.4c-3.2,3.2-7.9,3.8-11.7,1.8
			l0.7-0.7c3.3,1.6,7.5,1,10.2-1.8c3.3-3.3,3.5-8.4,0.7-12l-1.4,1.4l-0.4-3.9l3.9,0.4L-104.3,1149.7z M-120.3,1161.5
			c-2.6-3.9-2.1-9.2,1.3-12.6c2.9-2.9,7.1-3.6,10.7-2.2l-0.8,0.8c-3.1-1-6.7-0.3-9.2,2.2c-3,3-3.4,7.7-1.3,11.2l1.3-1.3l0.4,3.9
			l-3.9-0.4L-120.3,1161.5L-120.3,1161.5z"/>
	</g>
</g>
</svg>
