<?xml version="1.0" encoding="utf-8"?>
<!-- Generator: Adobe Illustrator 19.0.0, SVG Export Plug-In . SVG Version: 6.00 Build 0)  -->
<svg version="1.1" id="Layer_1" xmlns="http://www.w3.org/2000/svg" xmlns:xlink="http://www.w3.org/1999/xlink" x="0px" y="0px"
	 viewBox="-1367.8 968.2 65.5 65.5" style="enable-background:new -1367.8 968.2 65.5 65.5;" xml:space="preserve">
<style type="text/css">
	.st0{fill:#C75C5C;}
	.st1{opacity:0.2;}
	.st2{fill:#231F20;}
	.st3{fill:#E0995E;}
	.st4{fill:#F5CF87;}
	.st5{fill:#4F5D73;}
</style>
<g id="Layer_1_1_">
	<g>
		<circle class="st0" cx="-1335" cy="1001" r="32"/>
	</g>
	<g class="st1">
		<path class="st2" d="M-1319,1021c0,1.1-0.9,2-2,2h-28c-1.1,0-2-0.9-2-2l0,0c0-1.1,0.9-2,2-2h28
			C-1319.9,1019-1319,1019.9-1319,1021L-1319,1021z"/>
	</g>
	<g>
		<path class="st3" d="M-1331,1014c0,1.7-1.3,3-3,3h-2c-1.7,0-3-1.3-3-3v-10c0-1.7,1.3-3,3-3h2c1.7,0,3,1.3,3,3V1014z"/>
	</g>
	<g class="st1">
		<g>
			<path class="st2" d="M-1326,1003c-1.1,0-2-0.9-2-2s0.9-2,2-2c3.2,0,7-5.5,7-8.9c0-2.7,0-3.1-4-3.1h-24c-4,0-4,0.3-4,3.1
				c0,3.4,3.8,8.9,7,8.9c1.1,0,2,0.9,2,2s-0.9,2-2,2c-5.6,0-11-7.4-11-12.9c0-6.5,3.8-7.1,8-7.1h24c4.2,0,8,0.5,8,7.1
				C-1315,995.6-1320.4,1003-1326,1003z"/>
		</g>
	</g>
	<g>
		<path class="st3" d="M-1326,1001c-1.1,0-2-0.9-2-2s0.9-2,2-2c3.2,0,7-5.5,7-8.9c0-2.7,0-3.1-4-3.1h-24c-4,0-4,0.3-4,3.1
			c0,3.4,3.8,8.9,7,8.9c1.1,0,2,0.9,2,2s-0.9,2-2,2c-5.6,0-11-7.4-11-12.9c0-6.5,3.8-7.1,8-7.1h24c4.2,0,8,0.5,8,7.1
			C-1315,993.6-1320.4,1001-1326,1001z"/>
	</g>
	<g>
		<path class="st4" d="M-1349,981c0.6,19.9,8.4,24,14,24s13.3-4.1,14-24H-1349z"/>
	</g>
	<g>
		<path class="st4" d="M-1323.3,1019.3c-1.2-3.6-6-6.3-11.7-6.3s-10.5,2.7-11.7,6.3H-1323.3z"/>
	</g>
	<g>
		<path class="st5" d="M-1319,1019c0,1.1-0.9,2-2,2h-28c-1.1,0-2-0.9-2-2l0,0c0-1.1,0.9-2,2-2h28
			C-1319.9,1017-1319,1017.9-1319,1019L-1319,1019z"/>
	</g>
	<g class="st1">
		<path class="st2" d="M-1329,1011c0,1.1-0.9,2-2,2h-8c-1.1,0-2-0.9-2-2l0,0c0-1.1,0.9-2,2-2h8C-1329.9,1009-1329,1009.9-1329,1011
			L-1329,1011z"/>
	</g>
	<g>
		<path class="st4" d="M-1329,1009c0,1.1-0.9,2-2,2h-8c-1.1,0-2-0.9-2-2l0,0c0-1.1,0.9-2,2-2h8C-1329.9,1007-1329,1007.9-1329,1009
			L-1329,1009z"/>
	</g>
	<g class="st1">
		<path class="st2" d="M-1319,985c0,1.1-0.9,2-2,2h-28c-1.1,0-2-0.9-2-2l0,0c0-1.1,0.9-2,2-2h28C-1319.9,983-1319,983.9-1319,985
			L-1319,985z"/>
	</g>
	<g>
		<path class="st4" d="M-1319,983c0,1.1-0.9,2-2,2h-28c-1.1,0-2-0.9-2-2l0,0c0-1.1,0.9-2,2-2h28C-1319.9,981-1319,981.9-1319,983
			L-1319,983z"/>
	</g>
</g>
<g id="Layer_2">
</g>
</svg>
